<?xml version="1.0" encoding="UTF-8" standalone="no"?><svg xmlns="http://www.w3.org/2000/svg" xmlns:xlink="http://www.w3.org/1999/xlink" contentScriptType="application/ecmascript" contentStyleType="text/css" height="197px" preserveAspectRatio="none" style="width:554px;height:197px;" version="1.1" viewBox="0 0 554 197" width="554px" zoomAndPan="magnify"><defs><filter height="300%" id="f10vki23wb2cub" width="300%" x="-1" y="-1"><feGaussianBlur result="blurOut" stdDeviation="2.0"/><feColorMatrix in="blurOut" result="blurOut2" type="matrix" values="0 0 0 0 0 0 0 0 0 0 0 0 0 0 0 0 0 0 .4 0"/><feOffset dx="4.0" dy="4.0" in="blurOut2" result="blurOut3"/><feBlend in="SourceGraphic" in2="blurOut3" mode="normal"/></filter></defs><g><!--MD5=[c9e5697aeb21a63b0feeaea3b3ee58df]
class de.fraunhofer.aisec.cpg.frontends.cpp.DeclarationHandler--><a href="DeclarationHandler.html" target="_top" title="DeclarationHandler.html" xlink:actuate="onRequest" xlink:href="DeclarationHandler.html" xlink:show="new" xlink:title="DeclarationHandler.html" xlink:type="simple"><rect fill="#FEFECE" filter="url(#f10vki23wb2cub)" height="58.7422" id="de.fraunhofer.aisec.cpg.frontends.cpp.DeclarationHandler" style="stroke: #A80036; stroke-width: 1.5;" width="269" x="138.5" y="106"/><ellipse cx="177.35" cy="124.9688" fill="#ADD1B2" rx="11" ry="11" style="stroke: #A80036; stroke-width: 1.0;"/><path d="M180.3188,130.6094 Q179.7406,130.9063 179.1,131.0469 Q178.4594,131.2031 177.7563,131.2031 Q175.2563,131.2031 173.9281,129.5625 Q172.6156,127.9063 172.6156,124.7813 Q172.6156,121.6563 173.9281,120 Q175.2563,118.3438 177.7563,118.3438 Q178.4594,118.3438 179.1,118.5 Q179.7563,118.6563 180.3188,118.9531 L180.3188,121.6719 Q179.6938,121.0938 179.1,120.8281 Q178.5063,120.5469 177.8813,120.5469 Q176.5375,120.5469 175.85,121.625 Q175.1625,122.6875 175.1625,124.7813 Q175.1625,126.875 175.85,127.9531 Q176.5375,129.0156 177.8813,129.0156 Q178.5063,129.0156 179.1,128.75 Q179.6938,128.4688 180.3188,127.8906 L180.3188,130.6094 Z "/><text fill="#000000" font-family="sans-serif" font-size="14" lengthAdjust="spacingAndGlyphs" textLength="131" x="223.15" y="123.9951">DeclarationHandler</text><text fill="#000000" font-family="sans-serif" font-size="10" lengthAdjust="spacingAndGlyphs" textLength="184" x="196.65" y="136.5791">de.fraunhofer.aisec.cpg.frontends.cpp</text><line style="stroke: #A80036; stroke-width: 1.5;" x1="139.5" x2="406.5" y1="143.9375" y2="143.9375"/><ellipse cx="149.5" cy="154.9375" fill="#84BE84" rx="3" ry="3" style="stroke: #038048; stroke-width: 1.0;"/><text fill="#000000" font-family="sans-serif" font-size="11" lengthAdjust="spacingAndGlyphs" textLength="243" x="158.5" y="158.1479">DeclarationHandler(CXXLanguageFrontend)</text></a><!--MD5=[0d38b1d8da00c1a18e998a73bfd83290]
class de.fraunhofer.aisec.cpg.frontends.Handler--><a href="../Handler.html" target="_top" title="../Handler.html" xlink:actuate="onRequest" xlink:href="../Handler.html" xlink:show="new" xlink:title="../Handler.html" xlink:type="simple"><rect fill="#FEFECE" filter="url(#f10vki23wb2cub)" height="37.9375" id="de.fraunhofer.aisec.cpg.frontends.Handler" style="stroke: #A80036; stroke-width: 1.5;" width="534" x="6" y="8"/><ellipse cx="21" cy="26.9688" fill="#A9DCDF" rx="11" ry="11" style="stroke: #A80036; stroke-width: 1.0;"/><path d="M21.1094,22.3125 L19.9531,27.3906 L22.2813,27.3906 L21.1094,22.3125 Z M19.625,20.0781 L22.6094,20.0781 L25.9688,32.4688 L23.5156,32.4688 L22.75,29.4063 L19.4688,29.4063 L18.7188,32.4688 L16.2813,32.4688 L19.625,20.0781 Z "/><text fill="#000000" font-family="sans-serif" font-size="14" font-style="italic" lengthAdjust="spacingAndGlyphs" textLength="54" x="91.5" y="25.9951">Handler</text><text fill="#000000" font-family="sans-serif" font-size="10" font-style="italic" lengthAdjust="spacingAndGlyphs" textLength="167" x="35" y="38.5791">de.fraunhofer.aisec.cpg.frontends</text><rect fill="#FFFFFF" height="15.9688" style="stroke: #000000; stroke-width: 1.0; stroke-dasharray: 2.0,2.0;" width="333" x="210" y="5"/><text fill="#000000" font-family="sans-serif" font-size="12" font-style="italic" lengthAdjust="spacingAndGlyphs" textLength="331" x="211" y="17.1387">Declaration, IASTDeclaration, CXXLanguageFrontend</text></a><!--MD5=[2638210fa24765435b94b987376341a8]
reverse link de.fraunhofer.aisec.cpg.frontends.Handler to de.fraunhofer.aisec.cpg.frontends.cpp.DeclarationHandler--><path d="M273,66.22 C273,79.3 273,93.7 273,105.89 " fill="none" id="de.fraunhofer.aisec.cpg.frontends.Handler&lt;-de.fraunhofer.aisec.cpg.frontends.cpp.DeclarationHandler" style="stroke: #A80036; stroke-width: 1.0;"/><polygon fill="none" points="266,66.07,273,46.07,280,66.07,266,66.07" style="stroke: #A80036; stroke-width: 1.0;"/><text fill="#888888" font-family="sans-serif" font-size="10" lengthAdjust="spacingAndGlyphs" textLength="186" x="186" y="184.2822">UMLDoclet 2.0.9, PlantUML 1.2020.08</text><!--MD5=[2b2009c5bd6235df2581ddd7279f1af2]
@startuml
    set namespaceSeparator none
    hide empty fields
    hide empty methods

    class "<size:14>DeclarationHandler\n<size:10>de.fraunhofer.aisec.cpg.frontends.cpp" as de.fraunhofer.aisec.cpg.frontends.cpp.DeclarationHandler [[DeclarationHandler.html]] {
        +DeclarationHandler(CXXLanguageFrontend)
    }

    abstract class "<size:14>Handler\n<size:10>de.fraunhofer.aisec.cpg.frontends" as de.fraunhofer.aisec.cpg.frontends.Handler<Declaration, IASTDeclaration, CXXLanguageFrontend> [[../Handler.html]]

    de.fraunhofer.aisec.cpg.frontends.Handler <|- - de.fraunhofer.aisec.cpg.frontends.cpp.DeclarationHandler

    center footer UMLDoclet 2.0.9, PlantUML 1.2020.08
@enduml

PlantUML version 1.2020.08(Sun Apr 26 16:08:22 CEST 2020)
(APACHE source distribution)
Java Runtime: OpenJDK Runtime Environment
JVM: OpenJDK 64-Bit Server VM
Java Version: 12.0.2+9-Ubuntu-118.04
Operating System: Linux
Default Encoding: UTF-8
Language: en
Country: US
--></g></svg>