<?xml version="1.0" encoding="UTF-8" standalone="no"?><svg xmlns="http://www.w3.org/2000/svg" xmlns:xlink="http://www.w3.org/1999/xlink" contentScriptType="application/ecmascript" contentStyleType="text/css" height="197px" preserveAspectRatio="none" style="width:533px;height:197px;" version="1.1" viewBox="0 0 533 197" width="533px" zoomAndPan="magnify"><defs><filter height="300%" id="f14l2ez0ficzqd" width="300%" x="-1" y="-1"><feGaussianBlur result="blurOut" stdDeviation="2.0"/><feColorMatrix in="blurOut" result="blurOut2" type="matrix" values="0 0 0 0 0 0 0 0 0 0 0 0 0 0 0 0 0 0 .4 0"/><feOffset dx="4.0" dy="4.0" in="blurOut2" result="blurOut3"/><feBlend in="SourceGraphic" in2="blurOut3" mode="normal"/></filter></defs><g><!--MD5=[ab111e69088af75801783e665591c83b]
class de.fraunhofer.aisec.cpg.frontends.cpp.InitializerHandler--><a href="InitializerHandler.html" target="_top" title="InitializerHandler.html" xlink:actuate="onRequest" xlink:href="InitializerHandler.html" xlink:show="new" xlink:title="InitializerHandler.html" xlink:type="simple"><rect fill="#FEFECE" filter="url(#f14l2ez0ficzqd)" height="58.7422" id="de.fraunhofer.aisec.cpg.frontends.cpp.InitializerHandler" style="stroke: #A80036; stroke-width: 1.5;" width="255" x="135" y="106"/><ellipse cx="167.55" cy="124.9688" fill="#ADD1B2" rx="11" ry="11" style="stroke: #A80036; stroke-width: 1.0;"/><path d="M170.5188,130.6094 Q169.9406,130.9063 169.3,131.0469 Q168.6594,131.2031 167.9563,131.2031 Q165.4563,131.2031 164.1281,129.5625 Q162.8156,127.9063 162.8156,124.7813 Q162.8156,121.6563 164.1281,120 Q165.4563,118.3438 167.9563,118.3438 Q168.6594,118.3438 169.3,118.5 Q169.9563,118.6563 170.5188,118.9531 L170.5188,121.6719 Q169.8938,121.0938 169.3,120.8281 Q168.7063,120.5469 168.0813,120.5469 Q166.7375,120.5469 166.05,121.625 Q165.3625,122.6875 165.3625,124.7813 Q165.3625,126.875 166.05,127.9531 Q166.7375,129.0156 168.0813,129.0156 Q168.7063,129.0156 169.3,128.75 Q169.8938,128.4688 170.5188,127.8906 L170.5188,130.6094 Z "/><text fill="#000000" font-family="sans-serif" font-size="14" lengthAdjust="spacingAndGlyphs" textLength="112" x="221.45" y="123.9951">InitializerHandler</text><text fill="#000000" font-family="sans-serif" font-size="10" lengthAdjust="spacingAndGlyphs" textLength="184" x="185.45" y="136.5791">de.fraunhofer.aisec.cpg.frontends.cpp</text><line style="stroke: #A80036; stroke-width: 1.5;" x1="136" x2="389" y1="143.9375" y2="143.9375"/><ellipse cx="146" cy="154.9375" fill="#84BE84" rx="3" ry="3" style="stroke: #038048; stroke-width: 1.0;"/><text fill="#000000" font-family="sans-serif" font-size="11" lengthAdjust="spacingAndGlyphs" textLength="229" x="155" y="158.1479">InitializerHandler(CXXLanguageFrontend)</text></a><!--MD5=[0d38b1d8da00c1a18e998a73bfd83290]
class de.fraunhofer.aisec.cpg.frontends.Handler--><a href="../Handler.html" target="_top" title="../Handler.html" xlink:actuate="onRequest" xlink:href="../Handler.html" xlink:show="new" xlink:title="../Handler.html" xlink:type="simple"><rect fill="#FEFECE" filter="url(#f14l2ez0ficzqd)" height="37.9375" id="de.fraunhofer.aisec.cpg.frontends.Handler" style="stroke: #A80036; stroke-width: 1.5;" width="513" x="6" y="8"/><ellipse cx="21" cy="26.9688" fill="#A9DCDF" rx="11" ry="11" style="stroke: #A80036; stroke-width: 1.0;"/><path d="M21.1094,22.3125 L19.9531,27.3906 L22.2813,27.3906 L21.1094,22.3125 Z M19.625,20.0781 L22.6094,20.0781 L25.9688,32.4688 L23.5156,32.4688 L22.75,29.4063 L19.4688,29.4063 L18.7188,32.4688 L16.2813,32.4688 L19.625,20.0781 Z "/><text fill="#000000" font-family="sans-serif" font-size="14" font-style="italic" lengthAdjust="spacingAndGlyphs" textLength="54" x="91.5" y="25.9951">Handler</text><text fill="#000000" font-family="sans-serif" font-size="10" font-style="italic" lengthAdjust="spacingAndGlyphs" textLength="167" x="35" y="38.5791">de.fraunhofer.aisec.cpg.frontends</text><rect fill="#FFFFFF" height="15.9688" style="stroke: #000000; stroke-width: 1.0; stroke-dasharray: 2.0,2.0;" width="312" x="210" y="5"/><text fill="#000000" font-family="sans-serif" font-size="12" font-style="italic" lengthAdjust="spacingAndGlyphs" textLength="310" x="211" y="17.1387">Expression, IASTInitializer, CXXLanguageFrontend</text></a><!--MD5=[a798f1d76a515773287fffc730409b06]
reverse link de.fraunhofer.aisec.cpg.frontends.Handler to de.fraunhofer.aisec.cpg.frontends.cpp.InitializerHandler--><path d="M262.5,66.22 C262.5,79.3 262.5,93.7 262.5,105.89 " fill="none" id="de.fraunhofer.aisec.cpg.frontends.Handler&lt;-de.fraunhofer.aisec.cpg.frontends.cpp.InitializerHandler" style="stroke: #A80036; stroke-width: 1.0;"/><polygon fill="none" points="255.5,66.07,262.5,46.07,269.5,66.07,255.5,66.07" style="stroke: #A80036; stroke-width: 1.0;"/><text fill="#888888" font-family="sans-serif" font-size="10" lengthAdjust="spacingAndGlyphs" textLength="186" x="175.5" y="184.2822">UMLDoclet 2.0.9, PlantUML 1.2020.08</text><!--MD5=[5bd72394fa3be3a40e66452635c085d5]
@startuml
    set namespaceSeparator none
    hide empty fields
    hide empty methods

    class "<size:14>InitializerHandler\n<size:10>de.fraunhofer.aisec.cpg.frontends.cpp" as de.fraunhofer.aisec.cpg.frontends.cpp.InitializerHandler [[InitializerHandler.html]] {
        +InitializerHandler(CXXLanguageFrontend)
    }

    abstract class "<size:14>Handler\n<size:10>de.fraunhofer.aisec.cpg.frontends" as de.fraunhofer.aisec.cpg.frontends.Handler<Expression, IASTInitializer, CXXLanguageFrontend> [[../Handler.html]]

    de.fraunhofer.aisec.cpg.frontends.Handler <|- - de.fraunhofer.aisec.cpg.frontends.cpp.InitializerHandler

    center footer UMLDoclet 2.0.9, PlantUML 1.2020.08
@enduml

PlantUML version 1.2020.08(Sun Apr 26 16:08:22 CEST 2020)
(APACHE source distribution)
Java Runtime: OpenJDK Runtime Environment
JVM: OpenJDK 64-Bit Server VM
Java Version: 12.0.2+9-Ubuntu-118.04
Operating System: Linux
Default Encoding: UTF-8
Language: en
Country: US
--></g></svg>