<?xml version="1.0" encoding="UTF-8" standalone="no"?><svg xmlns="http://www.w3.org/2000/svg" xmlns:xlink="http://www.w3.org/1999/xlink" contentScriptType="application/ecmascript" contentStyleType="text/css" height="800px" preserveAspectRatio="none" style="width:1846px;height:800px;" version="1.1" viewBox="0 0 1846 800" width="1846px" zoomAndPan="magnify"><defs><filter height="300%" id="f1ornjxt98pp8g" width="300%" x="-1" y="-1"><feGaussianBlur result="blurOut" stdDeviation="2.0"/><feColorMatrix in="blurOut" result="blurOut2" type="matrix" values="0 0 0 0 0 0 0 0 0 0 0 0 0 0 0 0 0 0 .4 0"/><feOffset dx="4.0" dy="4.0" in="blurOut2" result="blurOut3"/><feBlend in="SourceGraphic" in2="blurOut3" mode="normal"/></filter></defs><g><!--MD5=[22823f160c0773e0645c5be0126a0566]
cluster de.fraunhofer.aisec.cpg.frontends.cpp--><polygon fill="#FFFFFF" filter="url(#f1ornjxt98pp8g)" points="22,297,335,297,342,319.2969,1735,319.2969,1735,752,22,752,22,297" style="stroke: #000000; stroke-width: 1.5;"/><line style="stroke: #000000; stroke-width: 1.5;" x1="22" x2="342" y1="319.2969" y2="319.2969"/><text fill="#000000" font-family="sans-serif" font-size="14" font-weight="bold" lengthAdjust="spacingAndGlyphs" textLength="307" x="26" y="311.9951">de.fraunhofer.aisec.cpg.frontends.cpp</text><!--MD5=[733ea7afc998df19735c48e2b7a590bd]
cluster de.fraunhofer.aisec.cpg.frontends--><polygon fill="#FFFFFF" filter="url(#f1ornjxt98pp8g)" points="849,24,1128,24,1135,46.2969,1824,46.2969,1824,264,849,264,849,24" style="stroke: #000000; stroke-width: 1.5;"/><line style="stroke: #000000; stroke-width: 1.5;" x1="849" x2="1135" y1="46.2969" y2="46.2969"/><text fill="#000000" font-family="sans-serif" font-size="14" font-weight="bold" lengthAdjust="spacingAndGlyphs" textLength="273" x="853" y="38.9951">de.fraunhofer.aisec.cpg.frontends</text><!--MD5=[888c711d8be0a2ccbd767d8b25998139]
class de.fraunhofer.aisec.cpg.frontends.cpp.ParameterDeclarationHandler--><a href="ParameterDeclarationHandler.html" target="_top" title="ParameterDeclarationHandler.html" xlink:actuate="onRequest" xlink:href="ParameterDeclarationHandler.html" xlink:show="new" xlink:title="ParameterDeclarationHandler.html" xlink:type="simple"><rect fill="#FEFECE" filter="url(#f1ornjxt98pp8g)" height="60.8047" id="de.fraunhofer.aisec.cpg.frontends.cpp.ParameterDeclarationHandler" style="stroke: #A80036; stroke-width: 1.5;" width="329" x="37.5" y="675"/><ellipse cx="104.25" cy="691" fill="#ADD1B2" rx="11" ry="11" style="stroke: #A80036; stroke-width: 1.0;"/><path d="M107.2188,696.6406 Q106.6406,696.9375 106,697.0781 Q105.3594,697.2344 104.6563,697.2344 Q102.1563,697.2344 100.8281,695.5938 Q99.5156,693.9375 99.5156,690.8125 Q99.5156,687.6875 100.8281,686.0313 Q102.1563,684.375 104.6563,684.375 Q105.3594,684.375 106,684.5313 Q106.6563,684.6875 107.2188,684.9844 L107.2188,687.7031 Q106.5938,687.125 106,686.8594 Q105.4063,686.5781 104.7813,686.5781 Q103.4375,686.5781 102.75,687.6563 Q102.0625,688.7188 102.0625,690.8125 Q102.0625,692.9063 102.75,693.9844 Q103.4375,695.0469 104.7813,695.0469 Q105.4063,695.0469 106,694.7813 Q106.5938,694.5 107.2188,693.9219 L107.2188,696.6406 Z "/><text fill="#000000" font-family="sans-serif" font-size="12" lengthAdjust="spacingAndGlyphs" textLength="187" x="124.75" y="695.1543">ParameterDeclarationHandler</text><line style="stroke: #A80036; stroke-width: 1.5;" x1="38.5" x2="365.5" y1="707" y2="707"/><line style="stroke: #A80036; stroke-width: 1.5;" x1="38.5" x2="365.5" y1="715" y2="715"/><ellipse cx="48.5" cy="726" fill="#84BE84" rx="3" ry="3" style="stroke: #038048; stroke-width: 1.0;"/><text fill="#000000" font-family="sans-serif" font-size="11" lengthAdjust="spacingAndGlyphs" textLength="303" x="57.5" y="729.2104">ParameterDeclarationHandler(CXXLanguageFrontend)</text></a><!--MD5=[ab111e69088af75801783e665591c83b]
class de.fraunhofer.aisec.cpg.frontends.cpp.InitializerHandler--><a href="InitializerHandler.html" target="_top" title="InitializerHandler.html" xlink:actuate="onRequest" xlink:href="InitializerHandler.html" xlink:show="new" xlink:title="InitializerHandler.html" xlink:type="simple"><rect fill="#FEFECE" filter="url(#f1ornjxt98pp8g)" height="60.8047" id="de.fraunhofer.aisec.cpg.frontends.cpp.InitializerHandler" style="stroke: #A80036; stroke-width: 1.5;" width="255" x="401.5" y="675"/><ellipse cx="473.25" cy="691" fill="#ADD1B2" rx="11" ry="11" style="stroke: #A80036; stroke-width: 1.0;"/><path d="M476.2188,696.6406 Q475.6406,696.9375 475,697.0781 Q474.3594,697.2344 473.6563,697.2344 Q471.1563,697.2344 469.8281,695.5938 Q468.5156,693.9375 468.5156,690.8125 Q468.5156,687.6875 469.8281,686.0313 Q471.1563,684.375 473.6563,684.375 Q474.3594,684.375 475,684.5313 Q475.6563,684.6875 476.2188,684.9844 L476.2188,687.7031 Q475.5938,687.125 475,686.8594 Q474.4063,686.5781 473.7813,686.5781 Q472.4375,686.5781 471.75,687.6563 Q471.0625,688.7188 471.0625,690.8125 Q471.0625,692.9063 471.75,693.9844 Q472.4375,695.0469 473.7813,695.0469 Q474.4063,695.0469 475,694.7813 Q475.5938,694.5 476.2188,693.9219 L476.2188,696.6406 Z "/><text fill="#000000" font-family="sans-serif" font-size="12" lengthAdjust="spacingAndGlyphs" textLength="103" x="493.75" y="695.1543">InitializerHandler</text><line style="stroke: #A80036; stroke-width: 1.5;" x1="402.5" x2="655.5" y1="707" y2="707"/><line style="stroke: #A80036; stroke-width: 1.5;" x1="402.5" x2="655.5" y1="715" y2="715"/><ellipse cx="412.5" cy="726" fill="#84BE84" rx="3" ry="3" style="stroke: #038048; stroke-width: 1.0;"/><text fill="#000000" font-family="sans-serif" font-size="11" lengthAdjust="spacingAndGlyphs" textLength="229" x="421.5" y="729.2104">InitializerHandler(CXXLanguageFrontend)</text></a><!--MD5=[c9e5697aeb21a63b0feeaea3b3ee58df]
class de.fraunhofer.aisec.cpg.frontends.cpp.DeclarationHandler--><a href="DeclarationHandler.html" target="_top" title="DeclarationHandler.html" xlink:actuate="onRequest" xlink:href="DeclarationHandler.html" xlink:show="new" xlink:title="DeclarationHandler.html" xlink:type="simple"><rect fill="#FEFECE" filter="url(#f1ornjxt98pp8g)" height="60.8047" id="de.fraunhofer.aisec.cpg.frontends.cpp.DeclarationHandler" style="stroke: #A80036; stroke-width: 1.5;" width="269" x="1449.5" y="675"/><ellipse cx="1519.25" cy="691" fill="#ADD1B2" rx="11" ry="11" style="stroke: #A80036; stroke-width: 1.0;"/><path d="M1522.2188,696.6406 Q1521.6406,696.9375 1521,697.0781 Q1520.3594,697.2344 1519.6563,697.2344 Q1517.1563,697.2344 1515.8281,695.5938 Q1514.5156,693.9375 1514.5156,690.8125 Q1514.5156,687.6875 1515.8281,686.0313 Q1517.1563,684.375 1519.6563,684.375 Q1520.3594,684.375 1521,684.5313 Q1521.6563,684.6875 1522.2188,684.9844 L1522.2188,687.7031 Q1521.5938,687.125 1521,686.8594 Q1520.4063,686.5781 1519.7813,686.5781 Q1518.4375,686.5781 1517.75,687.6563 Q1517.0625,688.7188 1517.0625,690.8125 Q1517.0625,692.9063 1517.75,693.9844 Q1518.4375,695.0469 1519.7813,695.0469 Q1520.4063,695.0469 1521,694.7813 Q1521.5938,694.5 1522.2188,693.9219 L1522.2188,696.6406 Z "/><text fill="#000000" font-family="sans-serif" font-size="12" lengthAdjust="spacingAndGlyphs" textLength="121" x="1539.75" y="695.1543">DeclarationHandler</text><line style="stroke: #A80036; stroke-width: 1.5;" x1="1450.5" x2="1717.5" y1="707" y2="707"/><line style="stroke: #A80036; stroke-width: 1.5;" x1="1450.5" x2="1717.5" y1="715" y2="715"/><ellipse cx="1460.5" cy="726" fill="#84BE84" rx="3" ry="3" style="stroke: #038048; stroke-width: 1.0;"/><text fill="#000000" font-family="sans-serif" font-size="11" lengthAdjust="spacingAndGlyphs" textLength="243" x="1469.5" y="729.2104">DeclarationHandler(CXXLanguageFrontend)</text></a><!--MD5=[5ab11d33b4f612644da6c2edddfd0621]
class de.fraunhofer.aisec.cpg.frontends.cpp.CXXLanguageFrontend--><a href="CXXLanguageFrontend.html" target="_top" title="CXXLanguageFrontend.html" xlink:actuate="onRequest" xlink:href="CXXLanguageFrontend.html" xlink:show="new" xlink:title="CXXLanguageFrontend.html" xlink:type="simple"><rect fill="#FEFECE" filter="url(#f1ornjxt98pp8g)" height="265.6797" id="de.fraunhofer.aisec.cpg.frontends.cpp.CXXLanguageFrontend" style="stroke: #A80036; stroke-width: 1.5;" width="402" x="822" y="332"/><ellipse cx="948.25" cy="348" fill="#ADD1B2" rx="11" ry="11" style="stroke: #A80036; stroke-width: 1.0;"/><path d="M951.2188,353.6406 Q950.6406,353.9375 950,354.0781 Q949.3594,354.2344 948.6563,354.2344 Q946.1563,354.2344 944.8281,352.5938 Q943.5156,350.9375 943.5156,347.8125 Q943.5156,344.6875 944.8281,343.0313 Q946.1563,341.375 948.6563,341.375 Q949.3594,341.375 950,341.5313 Q950.6563,341.6875 951.2188,341.9844 L951.2188,344.7031 Q950.5938,344.125 950,343.8594 Q949.4063,343.5781 948.7813,343.5781 Q947.4375,343.5781 946.75,344.6563 Q946.0625,345.7188 946.0625,347.8125 Q946.0625,349.9063 946.75,350.9844 Q947.4375,352.0469 948.7813,352.0469 Q949.4063,352.0469 950,351.7813 Q950.5938,351.5 951.2188,350.9219 L951.2188,353.6406 Z "/><text fill="#000000" font-family="sans-serif" font-size="12" lengthAdjust="spacingAndGlyphs" textLength="141" x="968.75" y="352.1543">CXXLanguageFrontend</text><line style="stroke: #A80036; stroke-width: 1.5;" x1="823" x2="1223" y1="364" y2="364"/><ellipse cx="833" cy="375" fill="none" rx="3" ry="3" style="stroke: #038048; stroke-width: 1.0;"/><text fill="#000000" font-family="sans-serif" font-size="11" lengthAdjust="spacingAndGlyphs" text-decoration="underline" textLength="101" x="842" y="378.2104">LONG_TYPE: Type</text><ellipse cx="833" cy="387.8047" fill="none" rx="3" ry="3" style="stroke: #038048; stroke-width: 1.0;"/><text fill="#000000" font-family="sans-serif" font-size="11" lengthAdjust="spacingAndGlyphs" text-decoration="underline" textLength="204" x="842" y="391.0151">TYPE_UNSIGNED_LONG_LONG: Type</text><ellipse cx="833" cy="400.6094" fill="none" rx="3" ry="3" style="stroke: #038048; stroke-width: 1.0;"/><text fill="#000000" font-family="sans-serif" font-size="11" lengthAdjust="spacingAndGlyphs" text-decoration="underline" textLength="87" x="842" y="403.8198">INT_TYPE: Type</text><ellipse cx="833" cy="413.4141" fill="none" rx="3" ry="3" style="stroke: #038048; stroke-width: 1.0;"/><text fill="#000000" font-family="sans-serif" font-size="11" lengthAdjust="spacingAndGlyphs" text-decoration="underline" textLength="139" x="842" y="416.6245">LONG_LONG_TYPE: Type</text><ellipse cx="833" cy="426.2188" fill="none" rx="3" ry="3" style="stroke: #038048; stroke-width: 1.0;"/><text fill="#000000" font-family="sans-serif" font-size="11" lengthAdjust="spacingAndGlyphs" text-decoration="underline" textLength="166" x="842" y="429.4292">TYPE_UNSIGNED_LONG: Type</text><line style="stroke: #A80036; stroke-width: 1.5;" x1="823" x2="1223" y1="436.0234" y2="436.0234"/><ellipse cx="833" cy="447.0234" fill="#84BE84" rx="3" ry="3" style="stroke: #038048; stroke-width: 1.0;"/><text fill="#000000" font-family="sans-serif" font-size="11" lengthAdjust="spacingAndGlyphs" textLength="367" x="842" y="450.2339">CXXLanguageFrontend(TranslationConfiguration, ScopeManager)</text><ellipse cx="833" cy="459.8281" fill="#84BE84" rx="3" ry="3" style="stroke: #038048; stroke-width: 1.0;"/><text fill="#000000" font-family="sans-serif" font-size="11" lengthAdjust="spacingAndGlyphs" textLength="218" x="842" y="463.0386">parse(File): TranslationUnitDeclaration</text><ellipse cx="833" cy="472.6328" fill="#84BE84" rx="3" ry="3" style="stroke: #038048; stroke-width: 1.0;"/><text fill="#000000" font-family="sans-serif" font-size="11" lengthAdjust="spacingAndGlyphs" textLength="185" x="842" y="475.8433">getCodeFromRawNode(T): String</text><ellipse cx="833" cy="485.4375" fill="#84BE84" rx="3" ry="3" style="stroke: #038048; stroke-width: 1.0;"/><text fill="#000000" font-family="sans-serif" font-size="11" lengthAdjust="spacingAndGlyphs" textLength="262" x="842" y="488.6479">getLocationFromRawNode(T): PhysicalLocation</text><ellipse cx="833" cy="498.2422" fill="#84BE84" rx="3" ry="3" style="stroke: #038048; stroke-width: 1.0;"/><text fill="#000000" font-family="sans-serif" font-size="11" lengthAdjust="spacingAndGlyphs" textLength="354" x="842" y="501.4526">replaceDeclarationInExpression(Declaration, Declaration): void</text><ellipse cx="833" cy="511.0469" fill="#84BE84" rx="3" ry="3" style="stroke: #038048; stroke-width: 1.0;"/><text fill="#000000" font-family="sans-serif" font-size="11" lengthAdjust="spacingAndGlyphs" textLength="376" x="842" y="514.2573">expressionRefersToDeclaration(Expression, IASTExpression): void</text><ellipse cx="833" cy="523.8516" fill="#84BE84" rx="3" ry="3" style="stroke: #038048; stroke-width: 1.0;"/><text fill="#000000" font-family="sans-serif" font-size="11" lengthAdjust="spacingAndGlyphs" textLength="294" x="842" y="527.062">cacheDeclaration(IBinding, Declaration): Declaration</text><ellipse cx="833" cy="536.6563" fill="#84BE84" rx="3" ry="3" style="stroke: #038048; stroke-width: 1.0;"/><text fill="#000000" font-family="sans-serif" font-size="11" lengthAdjust="spacingAndGlyphs" textLength="249" x="842" y="539.8667">getCachedDeclaration(IBinding): Declaration</text><ellipse cx="833" cy="549.4609" fill="#84BE84" rx="3" ry="3" style="stroke: #038048; stroke-width: 1.0;"/><text fill="#000000" font-family="sans-serif" font-size="11" lengthAdjust="spacingAndGlyphs" textLength="285" x="842" y="552.6714">getCachedExpression(IBinding): List&lt;Expression&gt;</text><ellipse cx="833" cy="562.2656" fill="#84BE84" rx="3" ry="3" style="stroke: #038048; stroke-width: 1.0;"/><text fill="#000000" font-family="sans-serif" font-size="11" lengthAdjust="spacingAndGlyphs" textLength="305" x="842" y="565.4761">getCachedDeclarations(): Map&lt;IBinding, Declaration&gt;</text><ellipse cx="833" cy="575.0703" fill="#84BE84" rx="3" ry="3" style="stroke: #038048; stroke-width: 1.0;"/><text fill="#000000" font-family="sans-serif" font-size="11" lengthAdjust="spacingAndGlyphs" textLength="83" x="842" y="578.2808">cleanup(): void</text><ellipse cx="833" cy="587.875" fill="#84BE84" rx="3" ry="3" style="stroke: #038048; stroke-width: 1.0;"/><text fill="#000000" font-family="sans-serif" font-size="11" lengthAdjust="spacingAndGlyphs" textLength="135" x="842" y="591.0854">setComment(S, T): void</text></a><!--MD5=[3ade1cab92fad797f50e16275d909acf]
class de.fraunhofer.aisec.cpg.frontends.cpp.DeclarationListHandler--><rect fill="#FEFECE" filter="url(#f1ornjxt98pp8g)" height="48" id="de.fraunhofer.aisec.cpg.frontends.cpp.DeclarationListHandler" style="stroke: #A80036; stroke-width: 1.5;" width="174" x="1058" y="681.5"/><ellipse cx="1073" cy="697.5" fill="#ADD1B2" rx="11" ry="11" style="stroke: #A80036; stroke-width: 1.0;"/><path d="M1075.9688,703.1406 Q1075.3906,703.4375 1074.75,703.5781 Q1074.1094,703.7344 1073.4063,703.7344 Q1070.9063,703.7344 1069.5781,702.0938 Q1068.2656,700.4375 1068.2656,697.3125 Q1068.2656,694.1875 1069.5781,692.5313 Q1070.9063,690.875 1073.4063,690.875 Q1074.1094,690.875 1074.75,691.0313 Q1075.4063,691.1875 1075.9688,691.4844 L1075.9688,694.2031 Q1075.3438,693.625 1074.75,693.3594 Q1074.1563,693.0781 1073.5313,693.0781 Q1072.1875,693.0781 1071.5,694.1563 Q1070.8125,695.2188 1070.8125,697.3125 Q1070.8125,699.4063 1071.5,700.4844 Q1072.1875,701.5469 1073.5313,701.5469 Q1074.1563,701.5469 1074.75,701.2813 Q1075.3438,701 1075.9688,700.4219 L1075.9688,703.1406 Z "/><text fill="#000000" font-family="sans-serif" font-size="12" lengthAdjust="spacingAndGlyphs" textLength="142" x="1087" y="701.6543">DeclarationListHandler</text><line style="stroke: #A80036; stroke-width: 1.5;" x1="1059" x2="1231" y1="713.5" y2="713.5"/><line style="stroke: #A80036; stroke-width: 1.5;" x1="1059" x2="1231" y1="721.5" y2="721.5"/><!--MD5=[56240377efc4097f2488b8d6d0b87a88]
class de.fraunhofer.aisec.cpg.frontends.cpp.DeclaratorHandler--><rect fill="#FEFECE" filter="url(#f1ornjxt98pp8g)" height="48" id="de.fraunhofer.aisec.cpg.frontends.cpp.DeclaratorHandler" style="stroke: #A80036; stroke-width: 1.5;" width="147" x="1267.5" y="681.5"/><ellipse cx="1282.5" cy="697.5" fill="#ADD1B2" rx="11" ry="11" style="stroke: #A80036; stroke-width: 1.0;"/><path d="M1285.4688,703.1406 Q1284.8906,703.4375 1284.25,703.5781 Q1283.6094,703.7344 1282.9063,703.7344 Q1280.4063,703.7344 1279.0781,702.0938 Q1277.7656,700.4375 1277.7656,697.3125 Q1277.7656,694.1875 1279.0781,692.5313 Q1280.4063,690.875 1282.9063,690.875 Q1283.6094,690.875 1284.25,691.0313 Q1284.9063,691.1875 1285.4688,691.4844 L1285.4688,694.2031 Q1284.8438,693.625 1284.25,693.3594 Q1283.6563,693.0781 1283.0313,693.0781 Q1281.6875,693.0781 1281,694.1563 Q1280.3125,695.2188 1280.3125,697.3125 Q1280.3125,699.4063 1281,700.4844 Q1281.6875,701.5469 1283.0313,701.5469 Q1283.6563,701.5469 1284.25,701.2813 Q1284.8438,701 1285.4688,700.4219 L1285.4688,703.1406 Z "/><text fill="#000000" font-family="sans-serif" font-size="12" lengthAdjust="spacingAndGlyphs" textLength="115" x="1296.5" y="701.6543">DeclaratorHandler</text><line style="stroke: #A80036; stroke-width: 1.5;" x1="1268.5" x2="1413.5" y1="713.5" y2="713.5"/><line style="stroke: #A80036; stroke-width: 1.5;" x1="1268.5" x2="1413.5" y1="721.5" y2="721.5"/><!--MD5=[1fa3067573688558dbadeb1738a90630]
class de.fraunhofer.aisec.cpg.frontends.cpp.ExpressionHandler--><rect fill="#FEFECE" filter="url(#f1ornjxt98pp8g)" height="48" id="de.fraunhofer.aisec.cpg.frontends.cpp.ExpressionHandler" style="stroke: #A80036; stroke-width: 1.5;" width="149" x="691.5" y="681.5"/><ellipse cx="706.5" cy="697.5" fill="#ADD1B2" rx="11" ry="11" style="stroke: #A80036; stroke-width: 1.0;"/><path d="M709.4688,703.1406 Q708.8906,703.4375 708.25,703.5781 Q707.6094,703.7344 706.9063,703.7344 Q704.4063,703.7344 703.0781,702.0938 Q701.7656,700.4375 701.7656,697.3125 Q701.7656,694.1875 703.0781,692.5313 Q704.4063,690.875 706.9063,690.875 Q707.6094,690.875 708.25,691.0313 Q708.9063,691.1875 709.4688,691.4844 L709.4688,694.2031 Q708.8438,693.625 708.25,693.3594 Q707.6563,693.0781 707.0313,693.0781 Q705.6875,693.0781 705,694.1563 Q704.3125,695.2188 704.3125,697.3125 Q704.3125,699.4063 705,700.4844 Q705.6875,701.5469 707.0313,701.5469 Q707.6563,701.5469 708.25,701.2813 Q708.8438,701 709.4688,700.4219 L709.4688,703.1406 Z "/><text fill="#000000" font-family="sans-serif" font-size="12" lengthAdjust="spacingAndGlyphs" textLength="117" x="720.5" y="701.6543">ExpressionHandler</text><line style="stroke: #A80036; stroke-width: 1.5;" x1="692.5" x2="839.5" y1="713.5" y2="713.5"/><line style="stroke: #A80036; stroke-width: 1.5;" x1="692.5" x2="839.5" y1="721.5" y2="721.5"/><!--MD5=[29aeae50023415ed364477cdce88a033]
class de.fraunhofer.aisec.cpg.frontends.cpp.StatementHandler--><rect fill="#FEFECE" filter="url(#f1ornjxt98pp8g)" height="48" id="de.fraunhofer.aisec.cpg.frontends.cpp.StatementHandler" style="stroke: #A80036; stroke-width: 1.5;" width="147" x="875.5" y="681.5"/><ellipse cx="890.5" cy="697.5" fill="#ADD1B2" rx="11" ry="11" style="stroke: #A80036; stroke-width: 1.0;"/><path d="M893.4688,703.1406 Q892.8906,703.4375 892.25,703.5781 Q891.6094,703.7344 890.9063,703.7344 Q888.4063,703.7344 887.0781,702.0938 Q885.7656,700.4375 885.7656,697.3125 Q885.7656,694.1875 887.0781,692.5313 Q888.4063,690.875 890.9063,690.875 Q891.6094,690.875 892.25,691.0313 Q892.9063,691.1875 893.4688,691.4844 L893.4688,694.2031 Q892.8438,693.625 892.25,693.3594 Q891.6563,693.0781 891.0313,693.0781 Q889.6875,693.0781 889,694.1563 Q888.3125,695.2188 888.3125,697.3125 Q888.3125,699.4063 889,700.4844 Q889.6875,701.5469 891.0313,701.5469 Q891.6563,701.5469 892.25,701.2813 Q892.8438,701 893.4688,700.4219 L893.4688,703.1406 Z "/><text fill="#000000" font-family="sans-serif" font-size="12" lengthAdjust="spacingAndGlyphs" textLength="115" x="904.5" y="701.6543">StatementHandler</text><line style="stroke: #A80036; stroke-width: 1.5;" x1="876.5" x2="1021.5" y1="713.5" y2="713.5"/><line style="stroke: #A80036; stroke-width: 1.5;" x1="876.5" x2="1021.5" y1="721.5" y2="721.5"/><!--MD5=[0d38b1d8da00c1a18e998a73bfd83290]
class de.fraunhofer.aisec.cpg.frontends.Handler--><a href="../Handler.html" target="_top" title="../Handler.html" xlink:actuate="onRequest" xlink:href="../Handler.html" xlink:show="new" xlink:title="../Handler.html" xlink:type="simple"><rect fill="#FEFECE" filter="url(#f1ornjxt98pp8g)" height="86.4141" id="de.fraunhofer.aisec.cpg.frontends.Handler" style="stroke: #A80036; stroke-width: 1.5;" width="388" x="865" y="110.5"/><ellipse cx="920.25" cy="126.5" fill="#A9DCDF" rx="11" ry="11" style="stroke: #A80036; stroke-width: 1.0;"/><path d="M920.3594,121.8438 L919.2031,126.9219 L921.5313,126.9219 L920.3594,121.8438 Z M918.875,119.6094 L921.8594,119.6094 L925.2188,132 L922.7656,132 L922,128.9375 L918.7188,128.9375 L917.9688,132 L915.5313,132 L918.875,119.6094 Z "/><text fill="#000000" font-family="sans-serif" font-size="12" font-style="italic" lengthAdjust="spacingAndGlyphs" textLength="49" x="940.75" y="130.6543">Handler</text><rect fill="#FFFFFF" height="15.9688" style="stroke: #000000; stroke-width: 1.0; stroke-dasharray: 2.0,2.0;" width="218" x="1038" y="107.5"/><text fill="#000000" font-family="sans-serif" font-size="12" font-style="italic" lengthAdjust="spacingAndGlyphs" textLength="216" x="1039" y="119.6387">S, T, L extends LanguageFrontend</text><line style="stroke: #A80036; stroke-width: 1.5;" x1="866" x2="1252" y1="142.5" y2="142.5"/><polygon fill="none" points="876,148.5,880,152.5,876,156.5,872,152.5" style="stroke: #B38D22; stroke-width: 1.0;"/><text fill="#000000" font-family="sans-serif" font-size="11" lengthAdjust="spacingAndGlyphs" text-decoration="underline" textLength="64" x="885" y="156.7104">log: Logger</text><polygon fill="none" points="876,161.3047,880,165.3047,876,169.3047,872,165.3047" style="stroke: #B38D22; stroke-width: 1.0;"/><text fill="#000000" font-family="sans-serif" font-size="11" lengthAdjust="spacingAndGlyphs" textLength="362" x="885" y="169.5151">map: HashMap&lt;Class&lt;? extends T&gt;, HandlerInterface&lt;S, T&gt;&gt;</text><polygon fill="none" points="876,174.1094,880,178.1094,876,182.1094,872,178.1094" style="stroke: #B38D22; stroke-width: 1.0;"/><text fill="#000000" font-family="sans-serif" font-size="11" lengthAdjust="spacingAndGlyphs" textLength="196" x="885" y="182.3198">lang: L extends LanguageFrontend</text><line style="stroke: #A80036; stroke-width: 1.5;" x1="866" x2="1252" y1="188.9141" y2="188.9141"/></a><!--MD5=[7aaf60bdf5840e2dacbce7cd0e282bdc]
class de.fraunhofer.aisec.cpg.frontends.LanguageFrontend--><a href="../LanguageFrontend.html" target="_top" title="../LanguageFrontend.html" xlink:actuate="onRequest" xlink:href="../LanguageFrontend.html" xlink:show="new" xlink:title="../LanguageFrontend.html" xlink:type="simple"><rect fill="#FEFECE" filter="url(#f1ornjxt98pp8g)" height="188.8516" id="de.fraunhofer.aisec.cpg.frontends.LanguageFrontend" style="stroke: #A80036; stroke-width: 1.5;" width="519" x="1288.5" y="59"/><ellipse cx="1483.75" cy="75" fill="#A9DCDF" rx="11" ry="11" style="stroke: #A80036; stroke-width: 1.0;"/><path d="M1483.8594,70.3438 L1482.7031,75.4219 L1485.0313,75.4219 L1483.8594,70.3438 Z M1482.375,68.1094 L1485.3594,68.1094 L1488.7188,80.5 L1486.2656,80.5 L1485.5,77.4375 L1482.2188,77.4375 L1481.4688,80.5 L1479.0313,80.5 L1482.375,68.1094 Z "/><text fill="#000000" font-family="sans-serif" font-size="12" font-style="italic" lengthAdjust="spacingAndGlyphs" textLength="120" x="1504.25" y="79.1543">LanguageFrontend</text><line style="stroke: #A80036; stroke-width: 1.5;" x1="1289.5" x2="1806.5" y1="91" y2="91"/><polygon fill="none" points="1299.5,97,1303.5,101,1299.5,105,1295.5,101" style="stroke: #B38D22; stroke-width: 1.0;"/><text fill="#000000" font-family="sans-serif" font-size="11" lengthAdjust="spacingAndGlyphs" text-decoration="underline" textLength="64" x="1308.5" y="105.2104">log: Logger</text><polygon fill="none" points="1299.5,109.8047,1303.5,113.8047,1299.5,117.8047,1295.5,113.8047" style="stroke: #B38D22; stroke-width: 1.0;"/><text fill="#000000" font-family="sans-serif" font-size="11" lengthAdjust="spacingAndGlyphs" textLength="182" x="1308.5" y="118.0151">config: TranslationConfiguration</text><polygon fill="none" points="1299.5,122.6094,1303.5,126.6094,1299.5,130.6094,1295.5,126.6094" style="stroke: #B38D22; stroke-width: 1.0;"/><text fill="#000000" font-family="sans-serif" font-size="11" lengthAdjust="spacingAndGlyphs" textLength="175" x="1308.5" y="130.8198">scopeManager: ScopeManager</text><polygon fill="none" points="1299.5,135.4141,1303.5,139.4141,1299.5,143.4141,1295.5,139.4141" style="stroke: #B38D22; stroke-width: 1.0;"/><text fill="#000000" font-family="sans-serif" font-size="11" lengthAdjust="spacingAndGlyphs" textLength="348" x="1308.5" y="143.6245">objectListeners: Map&lt;Object, BiConsumer&lt;Object, Object&gt;&gt;</text><polygon fill="none" points="1299.5,148.2188,1303.5,152.2188,1299.5,156.2188,1295.5,152.2188" style="stroke: #B38D22; stroke-width: 1.0;"/><text fill="#000000" font-family="sans-serif" font-size="11" lengthAdjust="spacingAndGlyphs" textLength="493" x="1308.5" y="156.4292">predicateListeners: Map&lt;BiPredicate&lt;Object, Object&gt;, BiConsumer&lt;Object, Object&gt;&gt;</text><polygon fill="none" points="1299.5,161.0234,1303.5,165.0234,1299.5,169.0234,1295.5,165.0234" style="stroke: #B38D22; stroke-width: 1.0;"/><text fill="#000000" font-family="sans-serif" font-size="11" lengthAdjust="spacingAndGlyphs" textLength="236" x="1308.5" y="169.2339">processedMapping: Map&lt;Object, Object&gt;</text><polygon fill="none" points="1299.5,173.8281,1303.5,177.8281,1299.5,181.8281,1295.5,177.8281" style="stroke: #B38D22; stroke-width: 1.0;"/><text fill="#000000" font-family="sans-serif" font-size="11" lengthAdjust="spacingAndGlyphs" textLength="214" x="1308.5" y="182.0386">currentTU: TranslationUnitDeclaration</text><line style="stroke: #A80036; stroke-width: 1.5;" x1="1289.5" x2="1806.5" y1="188.6328" y2="188.6328"/><ellipse cx="1299.5" cy="199.6328" fill="#84BE84" rx="3" ry="3" style="stroke: #038048; stroke-width: 1.0;"/><text fill="#000000" font-family="sans-serif" font-size="11" font-style="italic" lengthAdjust="spacingAndGlyphs" textLength="216" x="1308.5" y="202.8433">parse(File): TranslationUnitDeclaration</text><ellipse cx="1299.5" cy="212.4375" fill="#84BE84" rx="3" ry="3" style="stroke: #038048; stroke-width: 1.0;"/><text fill="#000000" font-family="sans-serif" font-size="11" font-style="italic" lengthAdjust="spacingAndGlyphs" textLength="185" x="1308.5" y="215.6479">getCodeFromRawNode(T): String</text><ellipse cx="1299.5" cy="225.2422" fill="#84BE84" rx="3" ry="3" style="stroke: #038048; stroke-width: 1.0;"/><text fill="#000000" font-family="sans-serif" font-size="11" font-style="italic" lengthAdjust="spacingAndGlyphs" textLength="263" x="1308.5" y="228.4526">getLocationFromRawNode(T): PhysicalLocation</text><ellipse cx="1299.5" cy="238.0469" fill="#84BE84" rx="3" ry="3" style="stroke: #038048; stroke-width: 1.0;"/><text fill="#000000" font-family="sans-serif" font-size="11" font-style="italic" lengthAdjust="spacingAndGlyphs" textLength="134" x="1308.5" y="241.2573">setComment(S, T): void</text></a><!--MD5=[b251dfcee8136d9c9b4b49345b1e9610]
reverse link de.fraunhofer.aisec.cpg.frontends.Handler to de.fraunhofer.aisec.cpg.frontends.cpp.ParameterDeclarationHandler--><path d="M844.65,176.83 C677.98,197.98 463.88,234.66 395,289 C266.36,390.48 219.78,597.69 206.49,674.75 " fill="none" id="de.fraunhofer.aisec.cpg.frontends.Handler&lt;-de.fraunhofer.aisec.cpg.frontends.cpp.ParameterDeclarationHandler" style="stroke: #A80036; stroke-width: 1.0;"/><polygon fill="none" points="844.01,169.85,864.73,174.32,845.75,183.74,844.01,169.85" style="stroke: #A80036; stroke-width: 1.0;"/><!--MD5=[a798f1d76a515773287fffc730409b06]
reverse link de.fraunhofer.aisec.cpg.frontends.Handler to de.fraunhofer.aisec.cpg.frontends.cpp.InitializerHandler--><path d="M918.9,204.13 C754.41,271.14 490.76,408.16 386,628 C376.19,648.59 386.9,663.81 406.14,674.99 " fill="none" id="de.fraunhofer.aisec.cpg.frontends.Handler&lt;-de.fraunhofer.aisec.cpg.frontends.cpp.InitializerHandler" style="stroke: #A80036; stroke-width: 1.0;"/><polygon fill="none" points="916.54,197.53,937.71,196.59,921.74,210.53,916.54,197.53" style="stroke: #A80036; stroke-width: 1.0;"/><!--MD5=[2638210fa24765435b94b987376341a8]
reverse link de.fraunhofer.aisec.cpg.frontends.Handler to de.fraunhofer.aisec.cpg.frontends.cpp.DeclarationHandler--><path d="M1137.88,208.41 C1170.73,231.97 1208.68,260.65 1241,289 C1398.39,427.02 1470.08,442.98 1568,628 C1575.62,642.39 1579.61,660.1 1581.7,674.85 " fill="none" id="de.fraunhofer.aisec.cpg.frontends.Handler&lt;-de.fraunhofer.aisec.cpg.frontends.cpp.DeclarationHandler" style="stroke: #A80036; stroke-width: 1.0;"/><polygon fill="none" points="1133.48,213.87,1121.22,196.59,1141.58,202.45,1133.48,213.87" style="stroke: #A80036; stroke-width: 1.0;"/><!--MD5=[63282ed95939bfead783b71cf55438c7]
reverse link de.fraunhofer.aisec.cpg.frontends.LanguageFrontend to de.fraunhofer.aisec.cpg.frontends.cpp.CXXLanguageFrontend--><path d="M1371.81,258.37 C1324.43,286.3 1272.83,316.72 1224.21,345.38 " fill="none" id="de.fraunhofer.aisec.cpg.frontends.LanguageFrontend&lt;-de.fraunhofer.aisec.cpg.frontends.cpp.CXXLanguageFrontend" style="stroke: #A80036; stroke-width: 1.0;"/><polygon fill="none" points="1368.27,252.33,1389.06,248.2,1375.38,264.39,1368.27,252.33" style="stroke: #A80036; stroke-width: 1.0;"/><!--MD5=[b3b3d9f12bd6820f0f559a41b1dba296]
link de.fraunhofer.aisec.cpg.frontends.cpp.CXXLanguageFrontend to de.fraunhofer.aisec.cpg.frontends.cpp.DeclarationHandler--><path d="M1224,552.57 C1292.76,582.05 1370.18,615.1 1441,645 C1462.65,654.14 1486.18,663.97 1507.79,672.96 " fill="none" id="de.fraunhofer.aisec.cpg.frontends.cpp.CXXLanguageFrontend-&gt;de.fraunhofer.aisec.cpg.frontends.cpp.DeclarationHandler" style="stroke: #A80036; stroke-width: 1.0;"/><polygon fill="#A80036" points="1512.66,674.98,1505.8798,667.8366,1508.0417,673.064,1502.8142,675.2259,1512.66,674.98" style="stroke: #A80036; stroke-width: 1.0;"/><text fill="#000000" font-family="sans-serif" font-size="13" lengthAdjust="spacingAndGlyphs" textLength="121" x="1442" y="641.0669">declarationHandler</text><!--MD5=[3add09633460fb102e2e329d343fab3a]
link de.fraunhofer.aisec.cpg.frontends.cpp.CXXLanguageFrontend to de.fraunhofer.aisec.cpg.frontends.cpp.DeclarationListHandler--><path d="M1074.64,598.41 C1082.21,614.41 1090.38,630.29 1099,645 C1105.52,656.14 1113.87,667.55 1121.66,677.36 " fill="none" id="de.fraunhofer.aisec.cpg.frontends.cpp.CXXLanguageFrontend-&gt;de.fraunhofer.aisec.cpg.frontends.cpp.DeclarationListHandler" style="stroke: #A80036; stroke-width: 1.0;"/><polygon fill="#A80036" points="1124.96,681.46,1122.4485,671.9368,1121.8313,677.5598,1116.2082,676.9427,1124.96,681.46" style="stroke: #A80036; stroke-width: 1.0;"/><text fill="#000000" font-family="sans-serif" font-size="13" lengthAdjust="spacingAndGlyphs" textLength="143" x="1100" y="641.0669">declarationListHandler</text><!--MD5=[54d5c3a5606a75a32182ec10c97188ba]
link de.fraunhofer.aisec.cpg.frontends.cpp.CXXLanguageFrontend to de.fraunhofer.aisec.cpg.frontends.cpp.DeclaratorHandler--><path d="M1208.5,598.11 C1221.94,608.12 1235.22,618.16 1248,628 C1268.94,644.13 1291.89,662.99 1309.74,677.94 " fill="none" id="de.fraunhofer.aisec.cpg.frontends.cpp.CXXLanguageFrontend-&gt;de.fraunhofer.aisec.cpg.frontends.cpp.DeclaratorHandler" style="stroke: #A80036; stroke-width: 1.0;"/><polygon fill="#A80036" points="1313.7,681.27,1309.3791,672.4196,1309.8706,678.055,1304.2352,678.5466,1313.7,681.27" style="stroke: #A80036; stroke-width: 1.0;"/><text fill="#000000" font-family="sans-serif" font-size="13" lengthAdjust="spacingAndGlyphs" textLength="115" x="1270" y="641.0669">declaratorHandler</text><!--MD5=[181fde5b35dc0f3ac381dfffc6e85c19]
link de.fraunhofer.aisec.cpg.frontends.cpp.CXXLanguageFrontend to de.fraunhofer.aisec.cpg.frontends.cpp.ExpressionHandler--><path d="M837.57,598.22 C827.5,607.86 817.88,617.82 809,628 C796.38,642.46 785.77,661.21 778.25,676.53 " fill="none" id="de.fraunhofer.aisec.cpg.frontends.cpp.CXXLanguageFrontend-&gt;de.fraunhofer.aisec.cpg.frontends.cpp.ExpressionHandler" style="stroke: #A80036; stroke-width: 1.0;"/><polygon fill="#A80036" points="776.01,681.17,783.5238,674.8027,778.1829,676.6669,776.3188,671.326,776.01,681.17" style="stroke: #A80036; stroke-width: 1.0;"/><text fill="#000000" font-family="sans-serif" font-size="13" lengthAdjust="spacingAndGlyphs" textLength="119" x="810" y="641.0669">expressionHandler</text><!--MD5=[563414319fc6210c79ad75f8de498d24]
link de.fraunhofer.aisec.cpg.frontends.cpp.CXXLanguageFrontend to de.fraunhofer.aisec.cpg.frontends.cpp.InitializerHandler--><path d="M821.63,560.84 C775.65,582.72 727.07,606.03 682,628 C652.35,642.45 619.62,658.77 592.08,672.6 " fill="none" id="de.fraunhofer.aisec.cpg.frontends.cpp.CXXLanguageFrontend-&gt;de.fraunhofer.aisec.cpg.frontends.cpp.InitializerHandler" style="stroke: #A80036; stroke-width: 1.0;"/><polygon fill="#A80036" points="587.35,674.98,597.1881,674.5202,591.8193,672.7382,593.6013,667.3694,587.35,674.98" style="stroke: #A80036; stroke-width: 1.0;"/><text fill="#000000" font-family="sans-serif" font-size="13" lengthAdjust="spacingAndGlyphs" textLength="106" x="683" y="641.0669">initializerHandler</text><!--MD5=[82d8e751004527483fa18ddf8a207d23]
link de.fraunhofer.aisec.cpg.frontends.cpp.CXXLanguageFrontend to de.fraunhofer.aisec.cpg.frontends.cpp.ParameterDeclarationHandler--><path d="M821.71,521.28 C711.18,552 571.8,591.32 448,628 C399.07,642.5 344.9,659.27 299.87,673.4 " fill="none" id="de.fraunhofer.aisec.cpg.frontends.cpp.CXXLanguageFrontend-&gt;de.fraunhofer.aisec.cpg.frontends.cpp.ParameterDeclarationHandler" style="stroke: #A80036; stroke-width: 1.0;"/><polygon fill="#A80036" points="294.98,674.94,304.7623,676.0835,299.7539,673.4535,302.3839,668.4452,294.98,674.94" style="stroke: #A80036; stroke-width: 1.0;"/><text fill="#000000" font-family="sans-serif" font-size="13" lengthAdjust="spacingAndGlyphs" textLength="191" x="449" y="641.0669">parameterDeclarationHandler</text><!--MD5=[ac14782948356ba510eb7085ac6beb44]
link de.fraunhofer.aisec.cpg.frontends.cpp.CXXLanguageFrontend to de.fraunhofer.aisec.cpg.frontends.cpp.StatementHandler--><path d="M949.18,598 C945.54,607.96 942.41,618.02 940,628 C936.2,643.75 938.01,661.72 940.97,676.28 " fill="none" id="de.fraunhofer.aisec.cpg.frontends.cpp.CXXLanguageFrontend-&gt;de.fraunhofer.aisec.cpg.frontends.cpp.StatementHandler" style="stroke: #A80036; stroke-width: 1.0;"/><polygon fill="#A80036" points="942.11,681.49,944.1162,671.8476,941.0526,676.6031,936.2971,673.5395,942.11,681.49" style="stroke: #A80036; stroke-width: 1.0;"/><text fill="#000000" font-family="sans-serif" font-size="13" lengthAdjust="spacingAndGlyphs" textLength="117" x="941" y="641.0669">statementHandler</text><text fill="#888888" font-family="sans-serif" font-size="10" lengthAdjust="spacingAndGlyphs" textLength="186" x="836" y="787.2822">UMLDoclet 2.0.9, PlantUML 1.2020.08</text><!--MD5=[7fc1564769289627f7e9b17fd25907a6]
@startuml
    namespace de.fraunhofer.aisec.cpg.frontends.cpp {

        class ParameterDeclarationHandler [[ParameterDeclarationHandler.html]] {
            +ParameterDeclarationHandler(CXXLanguageFrontend)
        }

        class InitializerHandler [[InitializerHandler.html]] {
            +InitializerHandler(CXXLanguageFrontend)
        }

        class DeclarationHandler [[DeclarationHandler.html]] {
            +DeclarationHandler(CXXLanguageFrontend)
        }

        class CXXLanguageFrontend [[CXXLanguageFrontend.html]] {
            {static} +LONG_TYPE: Type
            {static} +TYPE_UNSIGNED_LONG_LONG: Type
            {static} +INT_TYPE: Type
            {static} +LONG_LONG_TYPE: Type
            {static} +TYPE_UNSIGNED_LONG: Type
            +CXXLanguageFrontend(TranslationConfiguration, ScopeManager)
            +parse(File): TranslationUnitDeclaration
            +getCodeFromRawNode(T): String
            +getLocationFromRawNode(T): PhysicalLocation
            +replaceDeclarationInExpression(Declaration, Declaration): void
            +expressionRefersToDeclaration(Expression, IASTExpression): void
            +cacheDeclaration(IBinding, Declaration): Declaration
            +getCachedDeclaration(IBinding): Declaration
            +getCachedExpression(IBinding): List<Expression>
            +getCachedDeclarations(): Map<IBinding, Declaration>
            +cleanup(): void
            +setComment(S, T): void
        }

        de.fraunhofer.aisec.cpg.frontends.Handler <|- - ParameterDeclarationHandler
        de.fraunhofer.aisec.cpg.frontends.Handler <|- - InitializerHandler
        de.fraunhofer.aisec.cpg.frontends.Handler <|- - DeclarationHandler
        de.fraunhofer.aisec.cpg.frontends.LanguageFrontend <|- - CXXLanguageFrontend
        CXXLanguageFrontend - -> DeclarationHandler: declarationHandler
        CXXLanguageFrontend - -> DeclarationListHandler: declarationListHandler
        CXXLanguageFrontend - -> DeclaratorHandler: declaratorHandler
        CXXLanguageFrontend - -> ExpressionHandler: expressionHandler
        CXXLanguageFrontend - -> InitializerHandler: initializerHandler
        CXXLanguageFrontend - -> ParameterDeclarationHandler: parameterDeclarationHandler
        CXXLanguageFrontend - -> StatementHandler: statementHandler
    }

    namespace de.fraunhofer.aisec.cpg.frontends {
        abstract class Handler<S, T, L extends LanguageFrontend> [[../Handler.html]] {
            {static} #log: Logger
            #map: HashMap<Class<? extends T>, HandlerInterface<S, T>>
            #lang: L extends LanguageFrontend
        }
        abstract class LanguageFrontend [[../LanguageFrontend.html]] {
            {static} #log: Logger
            #config: TranslationConfiguration
            #scopeManager: ScopeManager
            #objectListeners: Map<Object, BiConsumer<Object, Object>>
            #predicateListeners: Map<BiPredicate<Object, Object>, BiConsumer<Object, Object>>
            #processedMapping: Map<Object, Object>
            #currentTU: TranslationUnitDeclaration
            {abstract} +parse(File): TranslationUnitDeclaration
            {abstract} +getCodeFromRawNode(T): String
            {abstract} +getLocationFromRawNode(T): PhysicalLocation
            {abstract} +setComment(S, T): void
        }
    }

    center footer UMLDoclet 2.0.9, PlantUML 1.2020.08
@enduml

PlantUML version 1.2020.08(Sun Apr 26 16:08:22 CEST 2020)
(APACHE source distribution)
Java Runtime: OpenJDK Runtime Environment
JVM: OpenJDK 64-Bit Server VM
Java Version: 12.0.2+9-Ubuntu-118.04
Operating System: Linux
Default Encoding: UTF-8
Language: en
Country: US
--></g></svg>