<?xml version="1.0" encoding="UTF-8" standalone="no"?><svg xmlns="http://www.w3.org/2000/svg" xmlns:xlink="http://www.w3.org/1999/xlink" contentScriptType="application/ecmascript" contentStyleType="text/css" height="197px" preserveAspectRatio="none" style="width:709px;height:197px;" version="1.1" viewBox="0 0 709 197" width="709px" zoomAndPan="magnify"><defs><filter height="300%" id="f16arrir4875l8" width="300%" x="-1" y="-1"><feGaussianBlur result="blurOut" stdDeviation="2.0"/><feColorMatrix in="blurOut" result="blurOut2" type="matrix" values="0 0 0 0 0 0 0 0 0 0 0 0 0 0 0 0 0 0 .4 0"/><feOffset dx="4.0" dy="4.0" in="blurOut2" result="blurOut3"/><feBlend in="SourceGraphic" in2="blurOut3" mode="normal"/></filter></defs><g><!--MD5=[888c711d8be0a2ccbd767d8b25998139]
class de.fraunhofer.aisec.cpg.frontends.cpp.ParameterDeclarationHandler--><a href="ParameterDeclarationHandler.html" target="_top" title="ParameterDeclarationHandler.html" xlink:actuate="onRequest" xlink:href="ParameterDeclarationHandler.html" xlink:show="new" xlink:title="ParameterDeclarationHandler.html" xlink:type="simple"><rect fill="#FEFECE" filter="url(#f16arrir4875l8)" height="58.7422" id="de.fraunhofer.aisec.cpg.frontends.cpp.ParameterDeclarationHandler" style="stroke: #A80036; stroke-width: 1.5;" width="329" x="186" y="106"/><ellipse cx="245.25" cy="124.9688" fill="#ADD1B2" rx="11" ry="11" style="stroke: #A80036; stroke-width: 1.0;"/><path d="M248.2188,130.6094 Q247.6406,130.9063 247,131.0469 Q246.3594,131.2031 245.6563,131.2031 Q243.1563,131.2031 241.8281,129.5625 Q240.5156,127.9063 240.5156,124.7813 Q240.5156,121.6563 241.8281,120 Q243.1563,118.3438 245.6563,118.3438 Q246.3594,118.3438 247,118.5 Q247.6563,118.6563 248.2188,118.9531 L248.2188,121.6719 Q247.5938,121.0938 247,120.8281 Q246.4063,120.5469 245.7813,120.5469 Q244.4375,120.5469 243.75,121.625 Q243.0625,122.6875 243.0625,124.7813 Q243.0625,126.875 243.75,127.9531 Q244.4375,129.0156 245.7813,129.0156 Q246.4063,129.0156 247,128.75 Q247.5938,128.4688 248.2188,127.8906 L248.2188,130.6094 Z "/><text fill="#000000" font-family="sans-serif" font-size="14" lengthAdjust="spacingAndGlyphs" textLength="202" x="265.75" y="123.9951">ParameterDeclarationHandler</text><text fill="#000000" font-family="sans-serif" font-size="10" lengthAdjust="spacingAndGlyphs" textLength="184" x="274.75" y="136.5791">de.fraunhofer.aisec.cpg.frontends.cpp</text><line style="stroke: #A80036; stroke-width: 1.5;" x1="187" x2="514" y1="143.9375" y2="143.9375"/><ellipse cx="197" cy="154.9375" fill="#84BE84" rx="3" ry="3" style="stroke: #038048; stroke-width: 1.0;"/><text fill="#000000" font-family="sans-serif" font-size="11" lengthAdjust="spacingAndGlyphs" textLength="303" x="206" y="158.1479">ParameterDeclarationHandler(CXXLanguageFrontend)</text></a><!--MD5=[0d38b1d8da00c1a18e998a73bfd83290]
class de.fraunhofer.aisec.cpg.frontends.Handler--><a href="../Handler.html" target="_top" title="../Handler.html" xlink:actuate="onRequest" xlink:href="../Handler.html" xlink:show="new" xlink:title="../Handler.html" xlink:type="simple"><rect fill="#FEFECE" filter="url(#f16arrir4875l8)" height="37.9375" id="de.fraunhofer.aisec.cpg.frontends.Handler" style="stroke: #A80036; stroke-width: 1.5;" width="689" x="6" y="8"/><ellipse cx="21" cy="26.9688" fill="#A9DCDF" rx="11" ry="11" style="stroke: #A80036; stroke-width: 1.0;"/><path d="M21.1094,22.3125 L19.9531,27.3906 L22.2813,27.3906 L21.1094,22.3125 Z M19.625,20.0781 L22.6094,20.0781 L25.9688,32.4688 L23.5156,32.4688 L22.75,29.4063 L19.4688,29.4063 L18.7188,32.4688 L16.2813,32.4688 L19.625,20.0781 Z "/><text fill="#000000" font-family="sans-serif" font-size="14" font-style="italic" lengthAdjust="spacingAndGlyphs" textLength="54" x="91.5" y="25.9951">Handler</text><text fill="#000000" font-family="sans-serif" font-size="10" font-style="italic" lengthAdjust="spacingAndGlyphs" textLength="167" x="35" y="38.5791">de.fraunhofer.aisec.cpg.frontends</text><rect fill="#FFFFFF" height="15.9688" style="stroke: #000000; stroke-width: 1.0; stroke-dasharray: 2.0,2.0;" width="488" x="210" y="5"/><text fill="#000000" font-family="sans-serif" font-size="12" font-style="italic" lengthAdjust="spacingAndGlyphs" textLength="486" x="211" y="17.1387">ParamVariableDeclaration, IASTParameterDeclaration, CXXLanguageFrontend</text></a><!--MD5=[b251dfcee8136d9c9b4b49345b1e9610]
reverse link de.fraunhofer.aisec.cpg.frontends.Handler to de.fraunhofer.aisec.cpg.frontends.cpp.ParameterDeclarationHandler--><path d="M350.5,66.22 C350.5,79.3 350.5,93.7 350.5,105.89 " fill="none" id="de.fraunhofer.aisec.cpg.frontends.Handler&lt;-de.fraunhofer.aisec.cpg.frontends.cpp.ParameterDeclarationHandler" style="stroke: #A80036; stroke-width: 1.0;"/><polygon fill="none" points="343.5,66.07,350.5,46.07,357.5,66.07,343.5,66.07" style="stroke: #A80036; stroke-width: 1.0;"/><text fill="#888888" font-family="sans-serif" font-size="10" lengthAdjust="spacingAndGlyphs" textLength="186" x="263.5" y="184.2822">UMLDoclet 2.0.9, PlantUML 1.2020.08</text><!--MD5=[7cc059a2b72824fa02933526515220b7]
@startuml
    set namespaceSeparator none
    hide empty fields
    hide empty methods

    class "<size:14>ParameterDeclarationHandler\n<size:10>de.fraunhofer.aisec.cpg.frontends.cpp" as de.fraunhofer.aisec.cpg.frontends.cpp.ParameterDeclarationHandler [[ParameterDeclarationHandler.html]] {
        +ParameterDeclarationHandler(CXXLanguageFrontend)
    }

    abstract class "<size:14>Handler\n<size:10>de.fraunhofer.aisec.cpg.frontends" as de.fraunhofer.aisec.cpg.frontends.Handler<ParamVariableDeclaration, IASTParameterDeclaration, CXXLanguageFrontend> [[../Handler.html]]

    de.fraunhofer.aisec.cpg.frontends.Handler <|- - de.fraunhofer.aisec.cpg.frontends.cpp.ParameterDeclarationHandler

    center footer UMLDoclet 2.0.9, PlantUML 1.2020.08
@enduml

PlantUML version 1.2020.08(Sun Apr 26 16:08:22 CEST 2020)
(APACHE source distribution)
Java Runtime: OpenJDK Runtime Environment
JVM: OpenJDK 64-Bit Server VM
Java Version: 12.0.2+9-Ubuntu-118.04
Operating System: Linux
Default Encoding: UTF-8
Language: en
Country: US
--></g></svg>