<svg xmlns="http://www.w3.org/2000/svg" width="963.0927734375" height="529.7136840820312" viewBox="-644.62255859375 -260.458984375 963.0927734375 529.7136840820312"><title>Neo4j Graph Visualization</title><desc>Created using Neo4j (http://www.neo4j.com/)</desc><g class="layer relationships"><g class="relationship" transform="translate(-267.9183654785156 -231.45897097814213) rotate(434.1910080373052)"><path class="b-outline" fill="#A5ABB6" stroke="none" d="M 24.018736134675446,6.953439040707552 L 24.277555179777966,5.987513214418485 A 471.9093865465583 471.9093865465583 0 0 0 129.26143825782242,21.755511309464453 L 129.22508540235498,22.754850325964526 A 472.9093865465583 472.9093865465583 0 0 1 24.018736134675446,6.953439040707552 Z M 157.9171697056378,22.92757738820154 L 157.89285114049164,21.92787312823799 A 471.9093865465583 471.9093865465583 0 0 0 263.0589657181709,7.424983253999385 L 262.3174529803691,4.51806755868283 L 269.9653544635432,6.179272815014697 L 264.0476493685733,11.300870847754792 L 263.3061366307715,8.393955152438236 A 472.9093865465583 472.9093865465583 0 0 1 157.9171697056378,22.92757738820154"/><text text-anchor="middle" pointer-events="none" font-size="8px" fill="#000000" x="143.57282723711637" y="25.558875636680455" font-family="Helvetica Neue, Helvetica, Arial, sans-serif">BODY</text></g><g class="relationship" transform="translate(-267.9183654785156 -231.45897097814213) rotate(434.1910080373052)"><path class="b-outline" fill="#569480" stroke="none" d="M 23.889326612124187,-7.436401953852087 L 24.406964702329226,-5.50455030127395 A 470.9825518275367 470.9825518275367 0 0 1 132.31783421941577,-21.34511522702485 L 132.2584333573134,-23.34423291680241 A 472.9825518275367 472.9825518275367 0 0 0 23.889326612124187,-7.436401953852087 Z M 153.86840540579104,-23.4924344754005 L 153.8364288081331,-21.4926901174382 A 470.9825518275367 470.9825518275367 0 0 1 261.95440770160207,-7.133654735769499 L 261.2177677460884,-4.225500411126328 L 269.95503255248843,-6.138666295947366 L 263.18214096079157,-11.980578610174783 L 262.4455010052779,-9.072424285531612 A 472.9825518275367 472.9825518275367 0 0 0 153.86840540579104,-23.4924344754005"/><text text-anchor="middle" pointer-events="none" font-size="8px" fill="#000000" x="143.0694307144302" y="-19.541792742710413" font-family="Helvetica Neue, Helvetica, Arial, sans-serif">AST</text></g><g class="relationship" transform="translate(-267.9183654785156 -231.45897097814213) rotate(438.60165333129964)"><path class="b-outline" fill="#4C8EDA" stroke="none" d="M 25 1 L 93.24014296725302 1 L 93.24014296725302 -1 L 25 -1 Z M 117.04014220431357 1 L 185.2802851715666 1 L 185.2802851715666 4 L 193.2802851715666 0 L 185.2802851715666 -4 L 185.2802851715666 -1 L 117.04014220431357 -1 Z"/><text text-anchor="middle" pointer-events="none" font-size="8px" fill="#000000" x="105.1401425857833" y="3" font-family="Helvetica Neue, Helvetica, Arial, sans-serif">EOG</text></g><g class="relationship" transform="translate(-606.8214659934259 -37.22253953575046) rotate(330.18156990808257)"><path class="b-outline" fill="#F16667" stroke="none" d="M 25 1 L 179.85943598307844 1 L 179.85943598307844 -1 L 25 -1 Z M 202.75943560160871 1 L 357.61887158468716 1 L 357.61887158468716 4 L 365.61887158468716 0 L 357.61887158468716 -4 L 357.61887158468716 -1 L 202.75943560160871 -1 Z"/><text text-anchor="middle" pointer-events="none" font-size="8px" fill="#000000" x="191.30943579234358" y="3" font-family="Helvetica Neue, Helvetica, Arial, sans-serif">DFG</text></g><g class="relationship" transform="translate(134.39626843723443 -227.4842524798277) rotate(180.5660425111172)"><path class="b-outline" fill="#F16667" stroke="none" d="M 25 1 L 185.7171340930605 1 L 185.7171340930605 -1 L 25 -1 Z M 208.61713371159078 1 L 369.3342678046513 1 L 369.3342678046513 4 L 377.3342678046513 0 L 369.3342678046513 -4 L 369.3342678046513 -1 L 208.61713371159078 -1 Z"/><text text-anchor="middle" pointer-events="none" font-size="8px" fill="#000000" x="197.16713390232565" y="3" transform="rotate(180 197.16713390232565 0)" font-family="Helvetica Neue, Helvetica, Arial, sans-serif">DFG</text></g><g class="relationship" transform="translate(-267.9183654785156 -231.45897097814213) rotate(375.3784965980825)"><path class="b-outline" fill="#569480" stroke="none" d="M 23.889326612124187,-7.436401953852087 L 24.406964702329226,-5.50455030127395 A 290.61172539379186 290.61172539379186 0 0 1 86.00625074646143,-15.087728557938874 L 85.91254108488852,-17.085531976528387 A 292.61172539379186 292.61172539379186 0 0 0 23.889326612124187,-7.436401953852087 Z M 107.54717403184169,-17.299583314244217 L 107.4930110617363,-15.3003168555976 A 290.61172539379186 290.61172539379186 0 0 1 169.26985026563315,-6.937812169697202 L 168.55088027699716,-4.025239053801094 L 177.27636857090144,-5.991416571966596 L 170.4681335800265,-11.792100696190715 L 169.7491635913905,-8.879527580294607 A 292.61172539379186 292.61172539379186 0 0 0 107.54717403184169,-17.299583314244217"/><text text-anchor="middle" pointer-events="none" font-size="8px" fill="#000000" x="96.73777195041403" y="-13.392632875918139" font-family="Helvetica Neue, Helvetica, Arial, sans-serif">AST</text></g><g class="relationship" transform="translate(-267.9183654785156 -231.45897097814213) rotate(375.3784965980825)"><path class="b-outline" fill="#A5ABB6" stroke="none" d="M 24.018736134675446,6.953439040707552 L 24.277555179777966,5.987513214418485 A 291.7347555158649 291.7347555158649 0 0 0 67.11722714594924,14.093439169404803 L 67.00525269565826,15.087150255426309 A 292.7347555158649 292.7347555158649 0 0 1 24.018736134675446,6.953439040707552 Z M 127.4983089349656,15.613277939471061 L 127.40363536994762,14.6177695687947 A 291.7347555158649 291.7347555158649 0 0 0 170.3778158031339,7.258194455188026 L 169.65187813088747,4.347350162544835 L 177.2907754313424,6.049480602053563 L 171.34573269946245,11.139320178712282 L 170.619795027216,8.22847588606909 A 292.7347555158649 292.7347555158649 0 0 1 127.4983089349656,15.613277939471061"/><text text-anchor="middle" pointer-events="none" font-size="8px" fill="#000000" x="97.24250192206104" y="19.41708175768946" font-family="Helvetica Neue, Helvetica, Arial, sans-serif">PARAMETERS</text></g><g class="relationship" transform="translate(-224.77983931831204 -17.483854538622765) rotate(313.2850638872344)"><path class="b-outline" fill="#A5ABB6" stroke="none" d="M 21.40063509461097,-12.933012701892217 L 21.90063509461097,-12.06698729810778 A 174.90649476935425 174.90649476935425 0 0 1 79.95260904503427,-33.01117244502123 L 79.78451195136702,-33.996942888431164 A 175.90649476935425 175.90649476935425 0 0 0 21.40063509461097,-12.933012701892217 Z M 133.55325306118505,-34.82751555057865 L 133.4156835495327,-33.83702343578736 A 174.90649476935425 174.90649476935425 0 0 1 192.08686079271516,-14.695875823695637 L 190.6678229504236,-12.052708859210691 L 198.49075668356195,-11.82531535242953 L 193.97891124910387,-18.2200984430089 L 192.55987340681233,-15.576931478523953 A 175.90649476935425 175.90649476935425 0 0 0 133.55325306118505,-34.82751555057865"/><text text-anchor="middle" pointer-events="none" font-size="8px" fill="#000000" x="106.64467899305245" y="-32.979090850975695" font-family="Helvetica Neue, Helvetica, Arial, sans-serif">REFERS_TO</text></g><g class="relationship" transform="translate(-73.5869734707415 -178.00964655594098) rotate(493.2850638872344)"><path class="b-outline" fill="#A5ABB6" stroke="none" d="M 25 0.5 L 89.75857402713493 0.5 L 89.75857402713493 -0.5 L 25 -0.5 Z M 123.75857402713493 0.5 L 188.51714805426985 0.5 L 188.51714805426985 3.5 L 195.51714805426985 0 L 188.51714805426985 -3.5 L 188.51714805426985 -0.5 L 123.75857402713493 -0.5 Z"/><text text-anchor="middle" pointer-events="none" font-size="8px" fill="#000000" x="106.75857402713493" y="3" transform="rotate(180 106.75857402713493 0)" font-family="Helvetica Neue, Helvetica, Arial, sans-serif">USAGE</text></g><g class="relationship" transform="translate(-73.5869734707415 -178.00964655594098) rotate(493.2850638872344)"><path class="b-outline" fill="#F16667" stroke="none" d="M 21.15063509461097,-13.366025403784437 L 22.15063509461097,-11.633974596215559 A 174.11173311216078 174.11173311216078 0 0 1 94.77673331944592,-34.361549213327606 L 94.61098035066753,-36.35466886687104 A 176.11173311216078 176.11173311216078 0 0 0 21.15063509461097,-13.366025403784437 Z M 117.62178778940596,-36.759351702704436 L 117.52622020864341,-34.76163629817174 A 174.11173311216078 174.11173311216078 0 0 1 190.9065635469309,-14.6018247193196 L 189.49884574809175,-11.952611515586936 L 198.4403713564977,-11.730981656992785 L 193.25275987832947,-19.017180058874043 L 191.84504207949033,-16.367966855141376 A 176.11173311216078 176.11173311216078 0 0 0 117.62178778940596,-36.759351702704436"/><text text-anchor="middle" pointer-events="none" font-size="8px" fill="#000000" x="106.12735040401084" y="-32.933449864027494" transform="rotate(180 106.12735040401084 -35.933449864027494)" font-family="Helvetica Neue, Helvetica, Arial, sans-serif">DFG</text></g><g class="relationship" transform="translate(-187.77190982083013 51.60303096662193) rotate(495.43646091509845)"><path class="b-outline" fill="#569480" stroke="none" d="M 23.889326612124187,-7.436401953852087 L 24.406964702329226,-5.50455030127395 A 367.06262682518224 367.06262682518224 0 0 1 105.60030108140967,-17.752047394430576 L 105.52505799655475,-19.750631512795792 A 369.06262682518224 369.06262682518224 0 0 0 23.889326612124187,-7.436401953852087 Z M 127.14647548941548,-19.930804201331114 L 127.10454920559788,-17.931243702940264 A 367.06262682518224 367.06262682518224 0 0 1 208.49071445857854,-7.03853224858217 L 207.76265653593725,-4.128217547165974 L 216.49423963656884,-6.067149355344121 L 209.70414432964736,-11.889056750942498 L 208.97608640700608,-8.978742049526302 A 369.06262682518224 369.06262682518224 0 0 0 127.14647548941548,-19.930804201331114"/><text text-anchor="middle" pointer-events="none" font-size="8px" fill="#000000" x="116.34277977019293" y="-15.999127545114732" transform="rotate(180 116.34277977019293 -18.99912754511473)" font-family="Helvetica Neue, Helvetica, Arial, sans-serif">AST</text></g><g class="relationship" transform="translate(-187.77190982083013 51.60303096662193) rotate(495.43646091509845)"><path class="b-outline" fill="#A5ABB6" stroke="none" d="M 24.018736134675446,6.953439040707552 L 24.277555179777966,5.987513214418485 A 368.08421350879155 368.08421350879155 0 0 0 87.6303427738883,17.14351287909375 L 87.54363865593844,18.139746986083935 A 369.08421350879155 369.08421350879155 0 0 1 24.018736134675446,6.953439040707552 Z M 146.15977849882785,18.56881055676581 L 146.08766753420986,17.571413941180083 A 368.08421350879155 368.08421350879155 0 0 0 209.5969790939593,7.344030616527361 L 208.8630256999947,4.4351971019569865 L 216.50658286028428,6.116278283038341 L 210.57558361924544,11.222475302621191 L 209.84163022528082,8.313641788050818 A 369.08421350879155 369.08421350879155 0 0 1 146.15977849882785,18.56881055676581"/><text text-anchor="middle" pointer-events="none" font-size="8px" fill="#000000" x="116.84683700344699" y="22.01980453172706" transform="rotate(180 116.84683700344699 19.01980453172706)" font-family="Helvetica Neue, Helvetica, Arial, sans-serif">STATEMENTS</text></g><g class="relationship" transform="translate(-359.29748297778696 220.53505690446465) rotate(184.4460648505148)"><path class="b-outline" fill="#569480" stroke="none" d="M 23.889326612124187,7.436401953852087 L 24.406964702329226,5.50455030127395 A 398.8888322448208 398.8888322448208 0 0 0 113.77475913382447,18.855066062998105 L 113.70520475620954,20.85385624422139 A 400.8888322448208 400.8888322448208 0 0 1 23.889326612124187,7.436401953852087 Z M 135.32252213465986,21.022871987721487 L 135.28422956998207,19.023238601450316 A 398.8888322448208 398.8888322448208 0 0 0 224.84984883275334,7.0717199226246565 L 224.1187965975749,4.162155929611158 L 232.8523702258488,6.092101959820076 L 226.06826922471734,11.920993244313822 L 225.33721698953892,9.011429251300322 A 400.8888322448208 400.8888322448208 0 0 1 135.32252213465986,21.022871987721487"/><text text-anchor="middle" pointer-events="none" font-size="8px" fill="#000000" x="124.52054225965786" y="23.084135724083126" transform="rotate(180 124.52054225965786 20.084135724083126)" font-family="Helvetica Neue, Helvetica, Arial, sans-serif">AST</text></g><g class="relationship" transform="translate(-359.29748297778696 220.53505690446465) rotate(184.4460648505148)"><path class="b-outline" fill="#A5ABB6" stroke="none" d="M 24.018736134675446,-6.953439040707552 L 24.277555179777966,-5.987513214418485 A 399.8772452139541 399.8772452139541 0 0 1 85.42363956928118,-17.364109926520996 L 85.3177326618943,-18.358485975592828 A 400.8772452139541 400.8772452139541 0 0 0 24.018736134675446,-6.953439040707552 Z M 164.75123027773867,-18.90389716077874 L 164.6589880046365,-17.90816056757103 A 399.8772452139541 399.8772452139541 0 0 1 225.95552915055458,-7.372286969959893 L 225.21893714602274,-4.464120499680081 L 232.86401624862947,-6.138266704432193 L 226.93765182326374,-11.24984226366631 L 226.2010598187319,-8.341675793386496 A 400.8772452139541 400.8772452139541 0 0 0 164.75123027773867,-18.90389716077874"/><text text-anchor="middle" pointer-events="none" font-size="8px" fill="#000000" x="125.0243717872624" y="-17.103562261834043" transform="rotate(180 125.0243717872624 -20.103562261834043)" font-family="Helvetica Neue, Helvetica, Arial, sans-serif">THEN_STATEMENT</text></g><g class="relationship" transform="translate(-359.29748297778696 220.53505690446465) rotate(361.97873068381455)"><path class="b-outline" fill="#A5ABB6" stroke="none" d="M 24.018736134675446,6.953439040707552 L 24.277555179777966,5.987513214418485 A 220.13020575819178 220.13020575819178 0 0 0 40.19230708084845,9.625153429474182 L 40.00578502854733,10.607604203816265 A 221.13020575819178 221.13020575819178 0 0 1 24.018736134675446,6.953439040707552 Z M 117.90327423046273,11.429636128138924 L 117.73752650155134,10.443467942502878 A 220.13020575819178 220.13020575819178 0 0 0 133.72549984549437,7.142488881650948 L 133.01036779672683,4.2289710504329 L 140.6428967931311,5.959433739729658 L 134.6790092438511,11.027179323275012 L 133.96387719508357,8.113661492056965 A 221.13020575819178 221.13020575819178 0 0 1 117.90327423046273,11.429636128138924"/><text text-anchor="middle" pointer-events="none" font-size="8px" fill="#000000" x="78.92332133479015" y="16.975984385823807" font-family="Helvetica Neue, Helvetica, Arial, sans-serif">ELSE_STATEMENT</text></g><g class="relationship" transform="translate(-359.29748297778696 220.53505690446465) rotate(361.97873068381455)"><path class="b-outline" fill="#569480" stroke="none" d="M 23.889326612124187,-7.436401953852087 L 24.406964702329226,-5.50455030127395 A 218.86881433702263 218.86881433702263 0 0 1 67.70366244325793,-12.554756345066721 L 67.58166498255123,-14.551032032335684 A 220.86881433702263 220.86881433702263 0 0 0 23.889326612124187,-7.436401953852087 Z M 89.23617899431953,-14.810730289745948 L 89.16209160640902,-12.81210299608847 A 218.86881433702263 218.86881433702263 0 0 1 132.61541575315897,-6.802272621880695 L 131.90867687383184,-3.8867074697279502 L 140.625835785342,-5.889490661059302 L 133.79331388537082,-11.661547875468601 L 133.0865750060437,-8.745982723315857 A 220.86881433702263 220.86881433702263 0 0 0 89.23617899431953,-14.810730289745948"/><text text-anchor="middle" pointer-events="none" font-size="8px" fill="#000000" x="78.41772910167856" y="-10.946514442414042" font-family="Helvetica Neue, Helvetica, Arial, sans-serif">AST</text></g><g class="relationship" transform="translate(-359.29748297778696 220.53505690446465) rotate(327.99974292776767)"><path class="b-outline" fill="#4C8EDA" stroke="none" d="M 25 1 L 129.07085255885795 1 L 129.07085255885795 -1 L 25 -1 Z M 152.8708517959185 1 L 256.94170435477645 1 L 256.94170435477645 4 L 264.94170435477645 0 L 256.94170435477645 -4 L 256.94170435477645 -1 L 152.8708517959185 -1 Z"/><text text-anchor="middle" pointer-events="none" font-size="8px" fill="#000000" x="140.97085217738822" y="3" font-family="Helvetica Neue, Helvetica, Arial, sans-serif">EOG</text></g><g class="relationship" transform="translate(-359.29748297778696 220.53505690446465) rotate(224.89198540380437)"><path class="b-outline" fill="#4C8EDA" stroke="none" d="M 25 1 L 46.607924144589646 1 L 46.607924144589646 -1 L 25 -1 Z M 70.40792338165019 1 L 92.01584752623984 1 L 92.01584752623984 4 L 100.01584752623984 0 L 92.01584752623984 -4 L 92.01584752623984 -1 L 70.40792338165019 -1 Z"/><text text-anchor="middle" pointer-events="none" font-size="8px" fill="#000000" x="58.50792376311992" y="3" transform="rotate(180 58.50792376311992 0)" font-family="Helvetica Neue, Helvetica, Arial, sans-serif">EOG</text></g><g class="relationship" transform="translate(-359.29748297778696 220.53505690446465) rotate(282.50520331090325)"><path class="b-outline" fill="#569480" stroke="none" d="M 16.970562748477143,18.38477631085023 L 18.384776310850235,16.97056274847714 A 91.02432301966698 91.02432301966698 0 0 0 69.1736554116962,42.613011756294156 L 68.87538267515869,44.59064503236898 A 93.02432301966698 93.02432301966698 0 0 1 16.970562748477143,18.38477631085023 Z M 90.6150529722273,45.297773794235596 L 90.44592815957819,43.30493742419755 A 91.02432301966698 91.02432301966698 0 0 0 142.79383696428656,21.01723060602583 L 140.81485565682848,18.762539277987422 L 149.46600760820832,16.491510895483813 L 146.09213914338332,24.77504948608984 L 144.11315783592525,22.520358158051433 A 93.02432301966698 93.02432301966698 0 0 1 90.6150529722273,45.297773794235596"/><text text-anchor="middle" pointer-events="none" font-size="8px" fill="#000000" x="79.75698882027251" y="47.582326827688036" font-family="Helvetica Neue, Helvetica, Arial, sans-serif">AST</text></g><g class="relationship" transform="translate(-322.86549593335724 56.271580526132766) rotate(462.50520331090325)"><path class="b-outline" fill="#4C8EDA" stroke="none" d="M 23.889326612124187,-7.436401953852087 L 24.406964702329226,-5.50455030127395 A 225.4151260218604 225.4151260218604 0 0 1 68.25920970238131,-12.719216943250359 L 68.13065149136592,-14.715080863055647 A 227.4151260218604 227.4151260218604 0 0 0 23.889326612124187,-7.436401953852087 Z M 92.02310940004527,-14.996191670697101 L 91.94154563433355,-12.997855524768966 A 225.4151260218604 225.4151260218604 0 0 1 135.95139858763633,-6.81694545196363 L 135.24333555093258,-3.9017015966311326 L 143.9614032140909,-5.900525305864492 L 137.13150364880923,-11.675685210851125 L 136.42344061210548,-8.760441355518628 A 227.4151260218604 227.4151260218604 0 0 0 92.02310940004527,-14.996191670697101"/><text text-anchor="middle" pointer-events="none" font-size="8px" fill="#000000" x="80.08495077401884" y="-11.169714650589043" transform="rotate(180 80.08495077401884 -14.169714650589043)" font-family="Helvetica Neue, Helvetica, Arial, sans-serif">EOG</text></g><g class="relationship" transform="translate(-359.29748297778696 220.53505690446465) rotate(282.50520331090325)"><path class="b-outline" fill="#A5ABB6" stroke="none" d="M 24.018736134675446,-6.953439040707552 L 24.277555179777966,-5.987513214418485 A 226.66143538139005 226.66143538139005 0 0 1 55.270801324405184,-12.015419224705397 L 55.148720344569384,-13.007939367756592 A 227.66143538139005 227.66143538139005 0 0 0 24.018736134675446,-6.953439040707552 Z M 106.0513808406238,-13.534872555503 L 105.94987252255862,-12.540037865032502 A 226.66143538139005 226.66143538139005 0 0 1 137.0612626980308,-7.155025441663668 L 136.34495984094957,-4.241795238446413 L 143.9781836483846,-5.969190475676986 L 138.0163331741391,-11.039332379286675 L 137.3000303170579,-8.12610217606942 A 227.66143538139005 227.66143538139005 0 0 0 106.0513808406238,-13.534872555503"/><text text-anchor="middle" pointer-events="none" font-size="8px" fill="#000000" x="80.59045202679681" y="-11.198644077423381" font-family="Helvetica Neue, Helvetica, Arial, sans-serif">CONDITION</text></g><g class="relationship" transform="translate(-322.86549593335724 56.271580526132766) rotate(462.50520331090325)"><path class="b-outline" fill="#F16667" stroke="none" d="M 16.970562748477143,18.38477631085023 L 18.384776310850235,16.97056274847714 A 91.02432301966698 91.02432301966698 0 0 0 68.52196984500664,42.512306951533276 L 68.20937817601084,44.48772752661961 A 93.02432301966698 93.02432301966698 0 0 1 16.970562748477143,18.38477631085023 Z M 91.2863378207026,45.2383544532569 L 91.10278054938709,43.24679558439382 A 91.02432301966698 91.02432301966698 0 0 0 142.79383696428656,21.01723060602583 L 140.81485565682848,18.762539277987422 L 149.46600760820832,16.491510895483813 L 146.09213914338332,24.77504948608984 L 144.11315783592525,22.520358158051433 A 93.02432301966698 93.02432301966698 0 0 1 91.2863378207026,45.2383544532569"/><text text-anchor="middle" pointer-events="none" font-size="8px" fill="#000000" x="79.75698882027251" y="47.582326827688036" transform="rotate(180 79.75698882027251 44.582326827688036)" font-family="Helvetica Neue, Helvetica, Arial, sans-serif">DFG</text></g><g class="relationship" transform="translate(-224.77983931831204 -17.483854538622765) rotate(503.05869189700167)"><path class="b-outline" fill="#F16667" stroke="none" d="M 25 1 L 45.91094101467418 1 L 45.91094101467418 -1 L 25 -1 Z M 68.81094063320445 1 L 89.72188164787863 1 L 89.72188164787863 4 L 97.72188164787863 0 L 89.72188164787863 -4 L 89.72188164787863 -1 L 68.81094063320445 -1 Z"/><text text-anchor="middle" pointer-events="none" font-size="8px" fill="#000000" x="57.360940823939316" y="3" transform="rotate(180 57.360940823939316 0)" font-family="Helvetica Neue, Helvetica, Arial, sans-serif">DFG</text></g><g class="relationship" transform="translate(-606.8214659934259 -37.22253953575046) rotate(406.8425045149703)"><path class="b-outline" fill="#569480" stroke="none" d="M 16.970562748477143,-18.38477631085023 L 18.384776310850235,-16.97056274847714 A 136.91452803699804 136.91452803699804 0 0 1 101.26405132059921,-56.36102040494849 L 101.06050949917318,-58.35063612838117 A 138.91452803699804 138.91452803699804 0 0 0 16.970562748477143,-18.38477631085023 Z M 122.75530150960438,-58.866177317517995 L 122.64649598598307,-56.869139171154885 A 136.91452803699804 136.91452803699804 0 0 1 207.30326321938145,-21.459901081101933 L 205.2850998364775,-19.240212688577934 L 213.89515339374674,-16.818028190866116 L 210.66686885755468,-25.159381735308592 L 208.64870547465074,-22.939693342784594 A 138.91452803699804 138.91452803699804 0 0 0 122.75530150960438,-58.866177317517995"/><text text-anchor="middle" pointer-events="none" font-size="8px" fill="#000000" x="111.92157967118963" y="-55.03297606694879" font-family="Helvetica Neue, Helvetica, Arial, sans-serif">AST</text></g><g class="relationship" transform="translate(-606.8214659934259 -37.22253953575046) rotate(406.8425045149703)"><path class="b-outline" fill="#A5ABB6" stroke="none" d="M 24.018736134675446,-6.953439040707552 L 24.277555179777966,-5.987513214418485 A 351.829834959413 351.829834959413 0 0 1 75.47796271908746,-15.710610913633047 L 75.36466972792297,-16.704172536358556 A 352.829834959413 352.829834959413 0 0 0 24.018736134675446,-6.953439040707552 Z M 149.99531020135282,-17.26954378896818 L 149.89708298340003,-16.27437977552455 A 351.829834959413 351.829834959413 0 0 1 201.23892209981327,-7.3281002580831585 L 200.50645631838938,-4.4188917954522875 L 208.14915280952263,-6.103881511865873 L 202.2155431417118,-11.20704487492432 L 201.48307736028792,-8.29783641229345 A 352.829834959413 352.829834959413 0 0 0 149.99531020135282,-17.26954378896818"/><text text-anchor="middle" pointer-events="none" font-size="8px" fill="#000000" x="112.6687867527684" y="-15.465714530617618" font-family="Helvetica Neue, Helvetica, Arial, sans-serif">RETURN_VALUES</text></g><g class="relationship" transform="translate(-73.5869734707415 -178.00964655594098) rotate(459.2369017977336)"><path class="b-outline" fill="#A5ABB6" stroke="none" d="M 25 0.5 L 103.55759678726663 0.5 L 103.55759678726663 -0.5 L 25 -0.5 Z M 137.55759678726662 0.5 L 216.11519357453327 0.5 L 216.11519357453327 3.5 L 223.11519357453327 0 L 216.11519357453327 -3.5 L 216.11519357453327 -0.5 L 137.55759678726662 -0.5 Z"/><text text-anchor="middle" pointer-events="none" font-size="8px" fill="#000000" x="120.55759678726663" y="3" transform="rotate(180 120.55759678726663 0)" font-family="Helvetica Neue, Helvetica, Arial, sans-serif">USAGE</text></g><g class="relationship" transform="translate(-194.4736118071852 226.22957364291045) rotate(305.9360984202086)"><path class="b-outline" fill="#569480" stroke="none" d="M 23.889326612124187,-7.436401953852087 L 24.406964702329226,-5.50455030127395 A 986.6458092106013 986.6458092106013 0 0 1 265.4017417833793,-39.01906940510128 L 265.3726169465248,-41.018857329826915 A 988.6458092106013 988.6458092106013 0 0 0 23.889326612124187,-7.436401953852087 Z M 286.96054768449716,-41.09753951394623 L 286.9460008028518,-39.09759241758729 A 986.6458092106013 986.6458092106013 0 0 1 528.178674709146,-7.340662290050117 L 527.4233611564196,-4.437301920225581 L 536.1727402129203,-6.294279606054284 L 529.4375306303568,-12.179596239757677 L 528.6822170776304,-9.27623586993314 A 988.6458092106013 988.6458092106013 0 0 0 286.96054768449716,-41.09753951394623"/><text text-anchor="middle" pointer-events="none" font-size="8px" fill="#000000" x="276.1700122520851" y="-37.11713108844765" font-family="Helvetica Neue, Helvetica, Arial, sans-serif">AST</text></g><g class="relationship" transform="translate(-194.4736118071852 226.22957364291045) rotate(305.9360984202086)"><path class="b-outline" fill="#A5ABB6" stroke="none" d="M 24.018736134675446,6.953439040707552 L 24.277555179777966,5.987513214418485 A 987.3698949714416 987.3698949714416 0 0 0 247.39414261062555,39.09848730701583 L 247.36129418561907,40.097947651889285 A 988.3698949714416 988.3698949714416 0 0 1 24.018736134675446,6.953439040707552 Z M 305.9820575859974,40.285215822808254 L 305.9555954596621,39.28556600618754 A 987.3698949714416 987.3698949714416 0 0 0 529.2791775356379,7.600776581253693 L 528.52125036899,4.698097403311854 L 536.1784168119435,6.3160597220656 L 530.2897470911685,11.471015485176144 L 529.5318199245205,8.568336307234306 A 988.3698949714416 988.3698949714416 0 0 1 305.9820575859974,40.285215822808254"/><text text-anchor="middle" pointer-events="none" font-size="8px" fill="#000000" x="276.6718844782112" y="43.12628582591469" font-family="Helvetica Neue, Helvetica, Arial, sans-serif">STATEMENTS</text></g><g class="relationship" transform="translate(134.39626843723443 -227.4842524798277) rotate(438.96652090465017)"><path class="b-outline" fill="#A5ABB6" stroke="none" d="M 17.324116139070416,-18.03122292025696 L 18.031222920256962,-17.324116139070412 A 68.13733688178458 68.13733688178458 0 0 1 28.917359870866115,-26.16862053632348 L 28.37002066277236,-27.00553139853242 A 69.13733688178458 69.13733688178458 0 0 0 17.324116139070416,-18.03122292025696 Z M 99.88208474386164,-29.528091571119475 L 99.3950759815763,-28.65469448762463 A 68.13733688178458 68.13733688178458 0 0 1 110.8773528440649,-20.599227164520084 L 108.91077655828201,-18.333707861535366 L 116.49132726532639,-16.388135714857455 L 113.4994545584421,-23.61991956849971 L 111.5328782726592,-21.354400265514993 A 69.13733688178458 69.13733688178458 0 0 0 99.88208474386164,-29.528091571119475"/><text text-anchor="middle" pointer-events="none" font-size="8px" fill="#000000" x="63.7919455048604" y="-34.73841721523662" font-family="Helvetica Neue, Helvetica, Arial, sans-serif">RETURN_VALUES</text></g><g class="relationship" transform="translate(134.39626843723443 -227.4842524798277) rotate(438.96652090465017)"><path class="b-outline" fill="#569480" stroke="none" d="M 23.889326612124187,-7.436401953852087 L 24.406964702329226,-5.50455030127395 A 160.59308768273056 160.59308768273056 0 0 1 52.94570364450337,-10.447489317765559 L 52.783482332865475,-12.440899522929186 A 162.59308768273056 162.59308768273056 0 0 0 23.889326612124187,-7.436401953852087 Z M 74.46524033717733,-12.754622956937908 L 74.36076202076438,-10.757353750896925 A 160.59308768273056 160.59308768273056 0 0 1 103.0305668367531,-6.642191743948551 L 102.33827578490792,-3.7231622649033165 L 111.04540913148878,-5.7690920987098195 L 104.18438525649506,-11.50724087569061 L 103.49209420464989,-8.588211396645375 A 162.59308768273056 162.59308768273056 0 0 0 74.46524033717733,-12.754622956937908"/><text text-anchor="middle" pointer-events="none" font-size="8px" fill="#000000" x="63.63359354111772" y="-8.959713721874522" font-family="Helvetica Neue, Helvetica, Arial, sans-serif">AST</text></g><g class="relationship" transform="translate(160.3038492215366 -94.61585354226202) rotate(258.96652090465017)"><path class="b-outline" fill="#4C8EDA" stroke="none" d="M 23.889326612124187,-7.436401953852087 L 24.406964702329226,-5.50455030127395 A 160.59308768273056 160.59308768273056 0 0 1 51.83992403220692,-10.353655243558734 L 51.66393152246515,-12.345896854537358 A 162.59308768273056 162.59308768273056 0 0 0 23.889326612124187,-7.436401953852087 Z M 75.5870711553215,-12.692051881099218 L 75.4687935952367,-10.695552339706722 A 160.59308768273056 160.59308768273056 0 0 1 103.0305668367531,-6.642191743948551 L 102.33827578490792,-3.7231622649033165 L 111.04540913148878,-5.7690920987098195 L 104.18438525649506,-11.50724087569061 L 103.49209420464989,-8.588211396645375 A 162.59308768273056 162.59308768273056 0 0 0 75.5870711553215,-12.692051881099218"/><text text-anchor="middle" pointer-events="none" font-size="8px" fill="#000000" x="63.63359354111772" y="-8.959713721874522" transform="rotate(180 63.63359354111772 -11.959713721874522)" font-family="Helvetica Neue, Helvetica, Arial, sans-serif">EOG</text></g><g class="relationship" transform="translate(160.3038492215366 -94.61585354226202) rotate(258.96652090465017)"><path class="b-outline" fill="#F16667" stroke="none" d="M 16.970562748477143,-18.38477631085023 L 18.384776310850235,-16.97056274847714 A 67.29781026245666 67.29781026245666 0 0 1 52.091516188616154,-35.234723899147994 L 51.67902139677399,-37.1917236555872 A 69.29781026245666 69.29781026245666 0 0 0 16.970562748477143,-18.38477631085023 Z M 74.78704631077215,-38.118626001251826 L 74.53262176341791,-36.13487497108105 A 67.29781026245666 67.29781026245666 0 0 1 109.59393074458518,-20.62911770959374 L 107.64933182221213,-18.34470640006439 L 116.33389387745446,-16.204991019775402 L 112.83492894854027,-24.436469892142654 L 110.89033002616722,-22.152058582613304 A 69.29781026245666 69.29781026245666 0 0 0 74.78704631077215,-38.118626001251826"/><text text-anchor="middle" pointer-events="none" font-size="8px" fill="#000000" x="63.23417372626753" y="-34.626757377407685" transform="rotate(180 63.23417372626753 -37.626757377407685)" font-family="Helvetica Neue, Helvetica, Arial, sans-serif">DFG</text></g><g class="relationship" transform="translate(160.3038492215366 -94.61585354226202) rotate(390.8833319197093)"><path class="b-outline" fill="#A5ABB6" stroke="none" d="M 21.40063509461097,12.933012701892217 L 21.90063509461097,12.06698729810778 A 104.05367910480237 104.05367910480237 0 0 0 53.506144949851304,23.983938835029335 L 53.30988730790294,24.964491198739125 A 105.05367910480237 105.05367910480237 0 0 1 21.40063509461097,12.933012701892217 Z M 89.92126860982782,25.782919510242493 L 89.76902459420548,24.794576573956107 A 104.05367910480237 104.05367910480237 0 0 0 121.87549058797536,14.301872988419747 L 120.49308826390174,11.63936217822651 L 128.31841619910517,11.520019367280172 L 123.71869368674018,17.851887402010732 L 122.33629136266656,15.189376591817494 A 105.05367910480237 105.05367910480237 0 0 1 89.92126860982782,25.782919510242493"/><text text-anchor="middle" pointer-events="none" font-size="8px" fill="#000000" x="71.59081551366735" y="29.481422805574226" font-family="Helvetica Neue, Helvetica, Arial, sans-serif">CALLEE</text></g><g class="relationship" transform="translate(160.3038492215366 -94.61585354226202) rotate(390.8833319197093)"><path class="b-outline" fill="#569480" stroke="none" d="M 25 1 L 60.46966984048022 1 L 60.46966984048022 -1 L 25 -1 Z M 82.0363364435686 1 L 117.50600628404882 1 L 117.50600628404882 4 L 125.50600628404882 0 L 117.50600628404882 -4 L 117.50600628404882 -1 L 82.0363364435686 -1 Z"/><text text-anchor="middle" pointer-events="none" font-size="8px" fill="#000000" x="71.25300314202441" y="3" font-family="Helvetica Neue, Helvetica, Arial, sans-serif">AST</text></g><g class="relationship" transform="translate(289.4702508094123 -17.362383533376487) rotate(210.8833319197093)"><path class="b-outline" fill="#4C8EDA" stroke="none" d="M 21.15063509461097,13.366025403784437 L 22.15063509461097,11.633974596215559 A 103.12180265279339 103.12180265279339 0 0 0 59.35313268435525,24.445171196327678 L 59.074658038503756,26.42568927794619 A 105.12180265279339 105.12180265279339 0 0 1 21.15063509461097,13.366025403784437 Z M 83.04322449070699,27.034669156617923 L 82.8656840027357,25.04256489852024 A 103.12180265279339 103.12180265279339 0 0 0 120.67076073813824,14.137118631999304 L 119.30463185629819,11.466221427275311 L 128.24852957801556,11.384407348667144 L 122.94764220787167,18.588613973205955 L 121.58151332603161,15.917716768481963 A 105.12180265279339 105.12180265279339 0 0 1 83.04322449070699,27.034669156617923"/><text text-anchor="middle" pointer-events="none" font-size="8px" fill="#000000" x="71.06692158285699" y="29.416085443378265" transform="rotate(180 71.06692158285699 26.416085443378265)" font-family="Helvetica Neue, Helvetica, Arial, sans-serif">EOG</text></g><g class="relationship" transform="translate(186.01399003287833 196.7199092098317) rotate(264.95675974027836)"><path class="b-outline" fill="#F16667" stroke="none" d="M 25 1 L 130.7840061528257 1 L 130.7840061528257 -1 L 25 -1 Z M 153.68400577135597 1 L 259.46801192418167 1 L 259.46801192418167 4 L 267.46801192418167 0 L 259.46801192418167 -4 L 259.46801192418167 -1 L 153.68400577135597 -1 Z"/><text text-anchor="middle" pointer-events="none" font-size="8px" fill="#000000" x="142.23400596209083" y="3" transform="rotate(180 142.23400596209083 0)" font-family="Helvetica Neue, Helvetica, Arial, sans-serif">DFG</text></g><g class="relationship" transform="translate(289.4702508094123 -17.362383533376487) rotate(475.792371308817)"><path class="b-outline" fill="#A5ABB6" stroke="none" d="M 17.324116139070416,-18.03122292025696 L 18.031222920256962,-17.324116139070412 A 141.44196890094796 141.44196890094796 0 0 1 101.58067944567058,-57.789896808476186 L 101.46427044092636,-58.78309816953771 A 142.44196890094796 142.44196890094796 0 0 0 17.324116139070416,-18.03122292025696 Z M 128.84583346163674,-59.341486995307775 L 128.77001286416484,-58.344365519759776 A 141.44196890094796 141.44196890094796 0 0 1 213.8997481888805,-21.318438732975533 L 211.86667517683455,-19.112398359888395 L 219.38602122809147,-16.94227510038285 L 216.61051220494173,-24.259825897091716 L 214.57743919289578,-22.053785524004578 A 142.44196890094796 142.44196890094796 0 0 0 128.84583346163674,-59.341486995307775"/><text text-anchor="middle" pointer-events="none" font-size="8px" fill="#000000" x="115.15179497147085" y="-56.22200422747733" transform="rotate(180 115.15179497147085 -59.22200422747733)" font-family="Helvetica Neue, Helvetica, Arial, sans-serif">BASE</text></g><g class="relationship" transform="translate(289.4702508094123 -17.362383533376487) rotate(475.792371308817)"><path class="b-outline" fill="#569480" stroke="none" d="M 23.889326612124187,-7.436401953852087 L 24.406964702329226,-5.50455030127395 A 361.2645531685805 361.2645531685805 0 0 1 104.11202381560852,-17.55078238621502 L 104.03564163282203,-19.549323294516057 A 363.2645531685805 363.2645531685805 0 0 0 23.889326612124187,-7.436401953852087 Z M 125.65787864773691,-19.731687869627365 L 125.61521680695262,-17.73214292956203 A 361.2645531685805 361.2645531685805 0 0 1 205.5121215004819,-7.0320132065769005 L 204.784651761068,-4.121551425649841 L 213.51584282942534,-6.062247828448934 L 206.72457106617168,-11.882782841455334 L 205.9971013267578,-8.972321060528275 A 363.2645531685805 363.2645531685805 0 0 0 125.65787864773691,-19.731687869627365"/><text text-anchor="middle" pointer-events="none" font-size="8px" fill="#000000" x="114.85383677469902" y="-15.801457391960241" transform="rotate(180 114.85383677469902 -18.80145739196024)" font-family="Helvetica Neue, Helvetica, Arial, sans-serif">AST</text></g><g class="relationship" transform="translate(-113.41366197672033 66.88825903979057) rotate(383.44152601818564)"><path class="b-outline" fill="#F16667" stroke="none" d="M 25 1 L 147.73178239531893 1 L 147.73178239531893 -1 L 25 -1 Z M 170.6317820138492 1 L 293.36356440916813 1 L 293.36356440916813 4 L 301.36356440916813 0 L 293.36356440916813 -4 L 293.36356440916813 -1 L 170.6317820138492 -1 Z"/><text text-anchor="middle" pointer-events="none" font-size="8px" fill="#000000" x="159.18178220458407" y="3" font-family="Helvetica Neue, Helvetica, Arial, sans-serif">DFG</text></g><g class="relationship" transform="translate(186.01399003287833 196.7199092098317) rotate(295.792371308817)"><path class="b-outline" fill="#4C8EDA" stroke="none" d="M 23.889326612124187,-7.436401953852087 L 24.406964702329226,-5.50455030127395 A 361.2645531685805 361.2645531685805 0 0 1 102.99931967908151,-17.50653843486907 L 102.91677744473851,-19.504834403826067 A 363.2645531685805 363.2645531685805 0 0 0 23.889326612124187,-7.436401953852087 Z M 126.77733406370751,-19.706077238539876 L 126.7285089162851,-17.706673301117746 A 361.2645531685805 361.2645531685805 0 0 1 205.5121215004819,-7.0320132065769005 L 204.784651761068,-4.121551425649841 L 213.51584282942534,-6.062247828448934 L 206.72457106617168,-11.882782841455334 L 205.9971013267578,-8.972321060528275 A 363.2645531685805 363.2645531685805 0 0 0 126.77733406370751,-19.706077238539876"/><text text-anchor="middle" pointer-events="none" font-size="8px" fill="#000000" x="114.85383677469902" y="-15.801457391960241" font-family="Helvetica Neue, Helvetica, Arial, sans-serif">EOG</text></g><g class="relationship" transform="translate(186.01399003287833 196.7199092098317) rotate(295.792371308817)"><path class="b-outline" fill="#F16667" stroke="none" d="M 16.970562748477143,-18.38477631085023 L 18.384776310850235,-16.97056274847714 A 140.74866444492991 140.74866444492991 0 0 1 103.29607821631811,-57.43424789505768 L 103.08843101449034,-59.42343934878282 A 142.74866444492991 142.74866444492991 0 0 0 16.970562748477143,-18.38477631085023 Z M 126.11869573231974,-59.958626876093874 L 126.0036742099618,-57.96193710314604 A 140.74866444492991 140.74866444492991 0 0 1 212.70292827241423,-21.486214328436994 L 210.6824369818551,-19.26864472529606 L 219.28994431097644,-16.837427421326247 L 216.07041375667947,-25.182163667005216 L 214.04992246612034,-22.964594063864283 A 142.74866444492991 142.74866444492991 0 0 0 126.11869573231974,-59.958626876093874"/><text text-anchor="middle" pointer-events="none" font-size="8px" fill="#000000" x="114.61598198484636" y="-56.15663368359073" font-family="Helvetica Neue, Helvetica, Arial, sans-serif">DFG</text></g><g class="relationship" transform="translate(-73.5869734707415 -178.00964655594098) rotate(415.28698877835717)"><path class="b-outline" fill="#A5ABB6" stroke="none" d="M 24.018736134675446,6.953439040707552 L 24.277555179777966,5.987513214418485 A 785.1756627558689 785.1756627558689 0 0 0 207.43410571754163,32.48538497001607 L 207.40855491956603,33.485058495084445 A 786.1756627558689 786.1756627558689 0 0 1 24.018736134675446,6.953439040707552 Z M 241.42727684910045,33.61828165005943 L 241.40955650101913,32.618438667754845 A 785.1756627558689 785.1756627558689 0 0 0 424.76802644685057,7.555902650980493 L 424.01428916733863,4.652132668100657 L 431.6691126201555,6.281143995932648 L 425.7730094861998,11.427595961486942 L 425.01927220668784,8.523825978607105 A 786.1756627558689 786.1756627558689 0 0 1 241.42727684910045,33.61828165005943"/><text text-anchor="middle" pointer-events="none" font-size="8px" fill="#000000" x="224.41915327545343" y="36.235700491730995" font-family="Helvetica Neue, Helvetica, Arial, sans-serif">USAGE</text></g><g class="relationship" transform="translate(-73.5869734707415 -178.00964655594098) rotate(415.28698877835717)"><path class="b-outline" fill="#F16667" stroke="none" d="M 23.889326612124187,-7.436401953852087 L 24.406964702329226,-5.50455030127395 A 784.4002089426301 784.4002089426301 0 0 1 212.4868165496312,-32.09009050814268 L 212.44872920330172,-34.08972781376826 A 786.4002089426301 786.4002089426301 0 0 0 23.889326612124187,-7.436401953852087 Z M 235.376845052455,-34.192131647101746 L 235.35662082768255,-32.19223390453271 A 784.4002089426301 784.4002089426301 0 0 1 423.6664424892992,-7.287762724357053 L 422.91590049877084,-4.383165209992329 L 431.6622165244479,-6.254516587736337 L 424.91734580684647,-12.128758581631592 L 424.1668038163181,-9.224161067266868 A 786.4002089426301 786.4002089426301 0 0 0 235.376845052455,-34.192131647101746"/><text text-anchor="middle" pointer-events="none" font-size="8px" fill="#000000" x="223.91688015129668" y="-30.224505881315054" font-family="Helvetica Neue, Helvetica, Arial, sans-serif">DFG</text></g><g class="relationship" transform="translate(3.791598345773764 240.25472205641273) rotate(346.5633141486155)"><path class="b-outline" fill="#4C8EDA" stroke="none" d="M 25 1 L 77.775343938026 1 L 77.775343938026 -1 L 25 -1 Z M 101.57534317508654 1 L 154.35068711311254 1 L 154.35068711311254 4 L 162.35068711311254 0 L 154.35068711311254 -4 L 154.35068711311254 -1 L 101.57534317508654 -1 Z"/><text text-anchor="middle" pointer-events="none" font-size="8px" fill="#000000" x="89.67534355655627" y="3" font-family="Helvetica Neue, Helvetica, Arial, sans-serif">EOG</text></g><g class="relationship" transform="translate(-194.4736118071852 226.22957364291045) rotate(364.0463247785893)"><path class="b-outline" fill="#569480" stroke="none" d="M 23.889326612124187,-7.436401953852087 L 24.406964702329226,-5.50455030127395 A 285.1649893691161 285.1649893691161 0 0 1 84.61321767903134,-14.896829442852606 L 84.5178351617134,-16.894553691939564 A 287.1649893691161 287.1649893691161 0 0 0 23.889326612124187,-7.436401953852087 Z M 106.15365709507142,-17.111506195787285 L 106.0983539596509,-15.11227095119682 A 285.1649893691161 285.1649893691161 0 0 1 166.48084327535256,-6.929191518174084 L 165.76265116685911,-4.016426492412866 L 174.48761404688028,-5.9849342374453185 L 167.67783012284164,-11.78379989444278 L 166.9596380143482,-8.871034868681562 A 287.1649893691161 287.1649893691161 0 0 0 106.15365709507142,-17.111506195787285"/><text text-anchor="middle" pointer-events="none" font-size="8px" fill="#000000" x="95.34372903681559" y="-13.206925810051075" font-family="Helvetica Neue, Helvetica, Arial, sans-serif">AST</text></g><g class="relationship" transform="translate(-194.4736118071852 226.22957364291045) rotate(364.0463247785893)"><path class="b-outline" fill="#A5ABB6" stroke="none" d="M 24.018736134675446,6.953439040707552 L 24.277555179777966,5.987513214418485 A 286.29675603758074 286.29675603758074 0 0 0 66.66915140125744,13.981615859303702 L 66.5584010831925,14.975464120885192 A 287.29675603758074 287.29675603758074 0 0 1 24.018736134675446,6.953439040707552 Z M 125.15622401584803,15.49201980551328 L 125.06301163088474,14.496373557446475 A 286.29675603758074 286.29675603758074 0 0 0 167.58894935679234,7.250841980389651 L 166.86369830482792,4.339826537004901 L 174.5021939000175,6.0437587663701375 L 168.55595075941156,11.13219590490265 L 167.83069970744714,8.2211804615179 A 287.29675603758074 287.29675603758074 0 0 1 125.15622401584803,15.49201980551328"/><text text-anchor="middle" pointer-events="none" font-size="8px" fill="#000000" x="95.84851531504772" y="19.231695917166974" font-family="Helvetica Neue, Helvetica, Arial, sans-serif">STATEMENTS</text></g><g class="relationship" transform="translate(3.791598345773764 240.25472205641273) rotate(235.93914466783872)"><path class="b-outline" fill="#A5ABB6" stroke="none" d="M 24.018736134675446,6.953439040707552 L 24.277555179777966,5.987513214418485 A 306.7896743604983 306.7896743604983 0 0 0 90.36276708193857,16.151917463106827 L 90.31935688995314,17.15097479641247 A 307.7896743604983 307.7896743604983 0 0 1 24.018736134675446,6.953439040707552 Z M 111.88255717114296,17.331814967265018 L 111.85590913155843,16.33217008932769 A 306.7896743604983 306.7896743604983 0 0 0 178.10230158582186,7.277567244370661 L 177.3745547736528,4.3671747317741625 L 185.01450858390854,6.064556768075583 L 179.07263066871394,11.158090594499324 L 178.34488385654487,8.247698081902827 A 307.7896743604983 307.7896743604983 0 0 1 111.88255717114296,17.331814967265018"/><text text-anchor="middle" pointer-events="none" font-size="8px" fill="#000000" x="101.10356593250704" y="19.930312033428947" transform="rotate(180 101.10356593250704 16.930312033428947)" font-family="Helvetica Neue, Helvetica, Arial, sans-serif">LHS</text></g><g class="relationship" transform="translate(3.791598345773764 240.25472205641273) rotate(235.93914466783872)"><path class="b-outline" fill="#569480" stroke="none" d="M 23.889326612124187,-7.436401953852087 L 24.406964702329226,-5.50455030127395 A 305.6896280576018 305.6896280576018 0 0 1 89.86486025408857,-15.615296955461076 L 89.77548592911292,-17.61329901502836 A 307.6896280576018 307.6896280576018 0 0 0 23.889326612124187,-7.436401953852087 Z M 111.40703075600484,-17.819705650160586 L 111.35579881509206,-15.820361935780738 A 305.6896280576018 305.6896280576018 0 0 1 176.994710240185,-6.960531525496499 L 176.27369021369853,-4.048465227932952 L 185.00056037584991,-6.00850022072046 L 178.19641028432906,-11.813975354769077 L 177.4753902578426,-8.90190905720553 A 307.6896280576018 307.6896280576018 0 0 0 111.40703075600484,-17.819705650160586"/><text text-anchor="middle" pointer-events="none" font-size="8px" fill="#000000" x="100.59898531336654" y="-13.906710945340649" transform="rotate(180 100.59898531336654 -16.90671094534065)" font-family="Helvetica Neue, Helvetica, Arial, sans-serif">AST</text></g><g class="relationship" transform="translate(3.791598345773764 240.25472205641273) rotate(270.5950651087612)"><path class="b-outline" fill="#569480" stroke="none" d="M 21.15063509461097,-13.366025403784437 L 22.15063509461097,-11.633974596215559 A 73.93452278248986 73.93452278248986 0 0 1 46.25189256439577,-20.411252675490275 L 45.9038547753561,-22.3807373028485 A 75.93452278248986 75.93452278248986 0 0 0 21.15063509461097,-13.366025403784437 Z M 67.67251043072491,-23.055911838248306 L 67.44719489224781,-21.068644139089287 A 73.93452278248986 73.93452278248986 0 0 1 92.0460739273612,-13.801844821533265 L 90.70996558978347,-11.115804146067749 L 99.65421850779516,-11.134236146481138 L 94.27292115665743,-18.27857928064246 L 92.93681281907969,-15.592538605176944 A 75.93452278248986 75.93452278248986 0 0 0 67.67251043072491,-23.055911838248306"/><text text-anchor="middle" pointer-events="none" font-size="8px" fill="#000000" x="56.794851616265724" y="-19.503305423869634" font-family="Helvetica Neue, Helvetica, Arial, sans-serif">AST</text></g><g class="relationship" transform="translate(5.059042228092551 118.22341305034911) rotate(450.5950651087612)"><path class="b-outline" fill="#4C8EDA" stroke="none" d="M 25 1 L 45.11894578314029 1 L 45.11894578314029 -1 L 25 -1 Z M 68.91894502020084 1 L 89.03789080334113 1 L 89.03789080334113 4 L 97.03789080334113 0 L 89.03789080334113 -4 L 89.03789080334113 -1 L 68.91894502020084 -1 Z"/><text text-anchor="middle" pointer-events="none" font-size="8px" fill="#000000" x="57.018945401670564" y="3" transform="rotate(180 57.018945401670564 0)" font-family="Helvetica Neue, Helvetica, Arial, sans-serif">EOG</text></g><g class="relationship" transform="translate(3.791598345773764 240.25472205641273) rotate(270.5950651087612)"><path class="b-outline" fill="#A5ABB6" stroke="none" d="M 21.40063509461097,12.933012701892217 L 21.90063509461097,12.06698729810778 A 74.96714424597245 74.96714424597245 0 0 0 46.050178080113994,20.915321753856475 L 45.872313106443215,21.899376656359934 A 75.96714424597245 75.96714424597245 0 0 1 21.40063509461097,12.933012701892217 Z M 68.79397358140028,22.525651197197035 L 68.67010731714615,21.533352276216206 A 74.96714424597245 74.96714424597245 0 0 0 93.26677590793068,14.01688081118939 L 91.91087917352277,11.340774676219782 L 99.73700634526108,11.29913945339921 L 95.07463822047455,17.585022324482203 L 93.71874148606665,14.908916189512594 A 75.96714424597245 75.96714424597245 0 0 1 68.79397358140028,22.525651197197035"/><text text-anchor="middle" pointer-events="none" font-size="8px" fill="#000000" x="57.3230336932975" y="25.58252733786091" font-family="Helvetica Neue, Helvetica, Arial, sans-serif">RHS</text></g><g class="relationship" transform="translate(5.059042228092551 118.22341305034911) rotate(203.42746405378512)"><path class="b-outline" fill="#F16667" stroke="none" d="M 25 1 L 49.10826782333335 1 L 49.10826782333335 -1 L 25 -1 Z M 72.00826744186362 1 L 96.11653526519697 1 L 96.11653526519697 4 L 104.11653526519697 0 L 96.11653526519697 -4 L 96.11653526519697 -1 L 72.00826744186362 -1 Z"/><text text-anchor="middle" pointer-events="none" font-size="8px" fill="#000000" x="60.558267632598486" y="3" transform="rotate(180 60.558267632598486 0)" font-family="Helvetica Neue, Helvetica, Arial, sans-serif">DFG</text></g><g class="relationship" transform="translate(-615.6225452257172 200.60460419047388) rotate(272.1193320757893)"><path class="b-outline" fill="#A5ABB6" stroke="none" d="M 24.018736134675446,-6.953439040707552 L 24.277555179777966,-5.987513214418485 A 362.7211501116892 362.7211501116892 0 0 1 86.25337358685361,-16.941176095505 L 86.16541807807367,-17.937300499620903 A 363.7211501116892 363.7211501116892 0 0 0 24.018736134675446,-6.953439040707552 Z M 144.7808575150062,-18.371191939991434 L 144.70765814065953,-17.37387461255986 A 362.7211501116892 362.7211501116892 0 0 1 206.83884163306752,-7.338894016064486 L 206.1053679049798,-4.429939514838123 L 213.74864775727698,-6.11228106739756 L 207.81680660385115,-11.217500017699637 L 207.08333287576343,-8.308545516473274 A 363.7211501116892 363.7211501116892 0 0 0 144.7808575150062,-18.371191939991434"/><text text-anchor="middle" pointer-events="none" font-size="8px" fill="#000000" x="115.4680839256016" y="-15.836985813967317" font-family="Helvetica Neue, Helvetica, Arial, sans-serif">STATEMENTS</text></g><g class="relationship" transform="translate(-615.6225452257172 200.60460419047388) rotate(272.1193320757893)"><path class="b-outline" fill="#569480" stroke="none" d="M 23.889326612124187,7.436401953852087 L 24.406964702329226,5.50455030127395 A 361.6935212551312 361.6935212551312 0 0 0 104.22212267658259,17.565676568390757 L 104.14582596123704,19.56422074133951 A 363.6935212551312 363.6935212551312 0 0 1 23.889326612124187,7.436401953852087 Z M 125.76800150461276,19.746421339291885 L 125.72539494409706,17.746875220543643 A 361.6935212551312 361.6935212551312 0 0 0 205.7324720811139,7.032500890804415 L 205.00495834006,4.122050108437925 L 213.73617874777588,6.062614508782762 L 206.94499498287047,11.883252194748565 L 206.21748124181656,8.972801412382076 A 363.6935212551312 363.6935212551312 0 0 1 125.76800150461276,19.746421339291885"/><text text-anchor="middle" pointer-events="none" font-size="8px" fill="#000000" x="114.96398563270157" y="21.816081981198238" font-family="Helvetica Neue, Helvetica, Arial, sans-serif">AST</text></g><g class="relationship" transform="translate(-447.86353108662945 132.30231210364684) rotate(226.8425045149703)"><path class="b-outline" fill="#4C8EDA" stroke="none" d="M 23.889326612124187,-7.436401953852087 L 24.406964702329226,-5.50455030127395 A 350.7894976989609 350.7894976989609 0 0 1 100.31148694437657,-17.14140088674077 L 100.22661279231649,-19.139599169772794 A 352.7894976989609 352.7894976989609 0 0 0 23.889326612124187,-7.436401953852087 Z M 124.0888274134656,-19.3453628394999 L 124.03842421301498,-17.3459980610304 A 350.7894976989609 350.7894976989609 0 0 1 200.13233338617255,-7.01982863141214 L 199.40596301521327,-4.109092283992046 L 208.13642043627922,-6.053086424660739 L 201.3429506711047,-11.871055877112296 L 200.61658030014542,-8.960319529692203 A 352.7894976989609 352.7894976989609 0 0 0 124.0888274134656,-19.3453628394999"/><text text-anchor="middle" pointer-events="none" font-size="8px" fill="#000000" x="112.16460251340918" y="-15.444334484833064" transform="rotate(180 112.16460251340918 -18.444334484833064)" font-family="Helvetica Neue, Helvetica, Arial, sans-serif">EOG</text></g><g class="relationship" transform="translate(-447.86353108662945 132.30231210364684) rotate(226.8425045149703)"><path class="b-outline" fill="#F16667" stroke="none" d="M 16.970562748477143,-18.38477631085023 L 18.384776310850235,-16.97056274847714 A 136.91452803699804 136.91452803699804 0 0 1 100.60582040844307,-56.292074049839684 L 100.39266337785563,-58.28068262879911 A 138.91452803699804 138.91452803699804 0 0 0 16.970562748477143,-18.38477631085023 Z M 123.42571657898556,-58.82802540263411 L 123.3072588601784,-56.831536542446045 A 136.91452803699804 136.91452803699804 0 0 1 207.30326321938145,-21.459901081101933 L 205.2850998364775,-19.240212688577934 L 213.89515339374674,-16.818028190866116 L 210.66686885755468,-25.159381735308592 L 208.64870547465074,-22.939693342784594 A 138.91452803699804 138.91452803699804 0 0 0 123.42571657898556,-58.82802540263411"/><text text-anchor="middle" pointer-events="none" font-size="8px" fill="#000000" x="111.92157967118963" y="-55.03297606694879" transform="rotate(180 111.92157967118963 -58.03297606694879)" font-family="Helvetica Neue, Helvetica, Arial, sans-serif">DFG</text></g><g class="relationship" transform="translate(-11.544692304436595 -48.530298727557295) rotate(444.3137782039994)"><path class="b-outline" fill="#F16667" stroke="none" d="M 25 1 L 68.33914685087184 1 L 68.33914685087184 -1 L 25 -1 Z M 91.23914646940212 1 L 134.57829332027396 1 L 134.57829332027396 4 L 142.57829332027396 0 L 134.57829332027396 -4 L 134.57829332027396 -1 L 91.23914646940212 -1 Z"/><text text-anchor="middle" pointer-events="none" font-size="8px" fill="#000000" x="79.78914666013698" y="3" font-family="Helvetica Neue, Helvetica, Arial, sans-serif">DFG</text></g><g class="relationship" transform="translate(-113.41366197672033 66.88825903979057) rotate(311.4317772737595)"><path class="b-outline" fill="#4C8EDA" stroke="none" d="M 25 1 L 61.071960307125906 1 L 61.071960307125906 -1 L 25 -1 Z M 84.87195954418645 1 L 120.94391985131236 1 L 120.94391985131236 4 L 128.94391985131236 0 L 120.94391985131236 -4 L 120.94391985131236 -1 L 84.87195954418645 -1 Z"/><text text-anchor="middle" pointer-events="none" font-size="8px" fill="#000000" x="72.97195992565618" y="3" font-family="Helvetica Neue, Helvetica, Arial, sans-serif">EOG</text></g><g class="relationship" transform="translate(-73.5869734707415 -178.00964655594098) rotate(424.3977787403093)"><path class="b-outline" fill="#A5ABB6" stroke="none" d="M 24.018736134675446,6.953439040707552 L 24.277555179777966,5.987513214418485 A 178.19815363414955 178.19815363414955 0 0 0 51.335369312087394,11.036860158616207 L 51.22839142572022,12.031121558766301 A 179.19815363414955 179.19815363414955 0 0 1 24.018736134675446,6.953439040707552 Z M 85.26964748042494,12.44135568927561 L 85.18666104314063,11.444805012577802 A 178.19815363414955 178.19815363414955 0 0 0 112.35829973925108,7.0489819099595525 L 111.65190069288954,4.133334402578129 L 119.27921043086799,5.8866587196795255 L 113.3001651343998,10.93651191980145 L 112.59376608803827,8.020864412420027 A 179.19815363414955 179.19815363414955 0 0 1 85.26964748042494,12.44135568927561"/><text text-anchor="middle" pointer-events="none" font-size="8px" fill="#000000" x="68.24528054560601" y="15.546493419925866" font-family="Helvetica Neue, Helvetica, Arial, sans-serif">USAGE</text></g><g class="relationship" transform="translate(-73.5869734707415 -178.00964655594098) rotate(424.3977787403093)"><path class="b-outline" fill="#F16667" stroke="none" d="M 23.889326612124187,-7.436401953852087 L 24.406964702329226,-5.50455030127395 A 176.82356373986906 176.82356373986906 0 0 1 56.381046689849185,-10.991028541311806 L 56.22505815936638,-12.984936156613458 A 178.82356373986906 178.82356373986906 0 0 0 23.889326612124187,-7.436401953852087 Z M 79.23577287646918,-13.299831933152177 L 79.13440477859875,-11.30240245786797 A 176.82356373986906 176.82356373986906 0 0 1 111.24664729289105,-6.692929263853801 L 110.54977676608372,-3.7749896707732202 L 119.26010971670839,-5.807254390061107 L 112.40809817090327,-11.556161918988105 L 111.71122764409594,-8.638222325907522 A 178.82356373986906 178.82356373986906 0 0 0 79.23577287646918,-13.299831933152177"/><text text-anchor="middle" pointer-events="none" font-size="8px" fill="#000000" x="67.73902822177149" y="-9.513018756154537" font-family="Helvetica Neue, Helvetica, Arial, sans-serif">DFG</text></g><g class="relationship" transform="translate(-322.86549593335724 56.271580526132766) rotate(216.29423701748647)"><path class="b-outline" fill="#A5ABB6" stroke="none" d="M 17.324116139070416,18.03122292025696 L 18.031222920256962,17.324116139070412 A 115.35819469670957 115.35819469670957 0 0 0 68.78440201582686,46.91920562243108 L 68.51725686223864,47.88286192366836 A 116.35819469670957 116.35819469670957 0 0 1 17.324116139070416,18.03122292025696 Z M 125.26869672409704,49.24557658115231 L 125.04811138298497,48.270208903152636 A 115.35819469670957 115.35819469670957 0 0 0 177.163252760262,21.145191869765366 L 175.14619272455906,18.924500803369575 L 182.68104192113597,16.808833630857812 L 179.85266614119922,24.10611329162642 L 177.83560610549628,21.88542222523063 A 116.35819469670957 116.35819469670957 0 0 1 125.26869672409704,49.24557658115231"/><text text-anchor="middle" pointer-events="none" font-size="8px" fill="#000000" x="96.82060122106823" y="54.57836304613927" transform="rotate(180 96.82060122106823 51.57836304613927)" font-family="Helvetica Neue, Helvetica, Arial, sans-serif">ARGUMENTS</text></g><g class="relationship" transform="translate(-322.86549593335724 56.271580526132766) rotate(216.29423701748647)"><path class="b-outline" fill="#569480" stroke="none" d="M 23.889326612124187,7.436401953852087 L 24.406964702329226,5.50455030127395 A 289.90632629481485 289.90632629481485 0 0 0 85.82581454660541,15.063015550010903 L 85.73189159659236,17.060808952608113 A 291.90632629481485 291.90632629481485 0 0 1 23.889326612124187,7.436401953852087 Z M 107.36667622143236,17.275231681126286 L 107.31236816254983,15.275969158409339 A 289.90632629481485 289.90632629481485 0 0 0 168.90860268048078,6.9367085606655 L 168.1897322750792,4.024110864409161 L 176.9151533389649,5.990586711680001 L 170.1067200228168,11.791038054426064 L 169.3878496174152,8.878440358169726 A 291.90632629481485 291.90632629481485 0 0 1 107.36667622143236,17.275231681126286"/><text text-anchor="middle" pointer-events="none" font-size="8px" fill="#000000" x="96.55720715352936" y="19.368582263634153" transform="rotate(180 96.55720715352936 16.368582263634153)" font-family="Helvetica Neue, Helvetica, Arial, sans-serif">AST</text></g><g class="relationship" transform="translate(-485.01960786365925 -62.81734760473688) rotate(396.29423701748647)"><path class="b-outline" fill="#4C8EDA" stroke="none" d="M 23.889326612124187,7.436401953852087 L 24.406964702329226,5.50455030127395 A 289.90632629481485 289.90632629481485 0 0 0 84.7143176197595,15.008622167882947 L 84.61272669684602,17.006040322496915 A 291.90632629481485 291.90632629481485 0 0 1 23.889326612124187,7.436401953852087 Z M 108.48670679458736,17.242655756480417 L 108.42472483163178,15.243616428135908 A 289.90632629481485 289.90632629481485 0 0 0 168.90860268048078,6.9367085606655 L 168.1897322750792,4.024110864409161 L 176.9151533389649,5.990586711680001 L 170.1067200228168,11.791038054426064 L 169.3878496174152,8.878440358169726 A 291.90632629481485 291.90632629481485 0 0 1 108.48670679458736,17.242655756480417"/><text text-anchor="middle" pointer-events="none" font-size="8px" fill="#000000" x="96.55720715352936" y="19.368582263634153" font-family="Helvetica Neue, Helvetica, Arial, sans-serif">EOG</text></g><g class="relationship" transform="translate(-485.01960786365925 -62.81734760473688) rotate(396.29423701748647)"><path class="b-outline" fill="#F16667" stroke="none" d="M 16.970562748477143,18.38477631085023 L 18.384776310850235,16.97056274847714 A 114.62974064011868 114.62974064011868 0 0 0 84.99362046243533,49.63084903206601 L 84.74156331391481,51.614902255616144 A 116.62974064011868 116.62974064011868 0 0 1 16.970562748477143,18.38477631085023 Z M 107.79326019337583,52.245330534474874 L 107.65002028039314,50.25046654729964 A 114.62974064011868 114.62974064011868 0 0 0 175.9443818986949,21.279574422880245 L 173.94217536237164,19.045481992853137 L 182.56936389087494,16.685054469360587 L 179.28139279256698,25.003061806258753 L 177.27918625624372,22.768969376231645 A 116.62974064011868 116.62974064011868 0 0 1 107.79326019337583,52.245330534474874"/><text text-anchor="middle" pointer-events="none" font-size="8px" fill="#000000" x="96.27913050158016" y="54.50161876215131" font-family="Helvetica Neue, Helvetica, Arial, sans-serif">DFG</text></g><g class="relationship" transform="translate(-348.3966187392566 -104.2823925441676) rotate(523.116968565857)"><path class="b-outline" fill="#4C8EDA" stroke="none" d="M 25 1 L 55.48835921733955 1 L 55.48835921733955 -1 L 25 -1 Z M 79.2883584544001 1 L 109.77671767173965 1 L 109.77671767173965 4 L 117.77671767173965 0 L 109.77671767173965 -4 L 109.77671767173965 -1 L 79.2883584544001 -1 Z"/><text text-anchor="middle" pointer-events="none" font-size="8px" fill="#000000" x="67.38835883586982" y="3" transform="rotate(180 67.38835883586982 0)" font-family="Helvetica Neue, Helvetica, Arial, sans-serif">EOG</text></g><g class="relationship" transform="translate(-224.77983931831204 -17.483854538622765) rotate(215.0749273486665)"><path class="b-outline" fill="#4C8EDA" stroke="none" d="M 23.889326612124187,7.436401953852087 L 24.406964702329226,5.50455030127395 A 191.5640230532165 191.5640230532165 0 0 0 59.664538253603666,11.495741042432115 L 59.515002409209984,13.49014296562649 A 193.5640230532165 193.5640230532165 0 0 1 23.889326612124187,7.436401953852087 Z M 83.42133993034932,13.80190245988868 L 83.32386357542984,11.80427928215181 A 191.5640230532165 191.5640230532165 0 0 0 118.72568118979362,6.734548636468075 L 118.02505434579997,3.817508694082043 L 126.73799665082092,5.838557033280366 L 119.89339259644969,11.596281873778128 L 119.19276575245604,8.679241931392097 A 193.5640230532165 193.5640230532165 0 0 1 83.42133993034932,13.80190245988868"/><text text-anchor="middle" pointer-events="none" font-size="8px" fill="#000000" x="71.47639290067677" y="16.015564050064626" transform="rotate(180 71.47639290067677 13.015564050064626)" font-family="Helvetica Neue, Helvetica, Arial, sans-serif">EOG</text></g><g class="relationship" transform="translate(-224.77983931831204 -17.483854538622765) rotate(215.0749273486665)"><path class="b-outline" fill="#F16667" stroke="none" d="M 23.889326612124187,-7.436401953852087 L 24.406964702329226,-5.50455030127395 A 191.5640230532165 191.5640230532165 0 0 1 60.11098685541574,-11.528690234857834 L 59.966112101290435,-13.523436159936296 A 193.5640230532165 193.5640230532165 0 0 0 23.889326612124187,-7.436401953852087 Z M 82.96951545059216,-13.823420604987575 L 82.87670757148373,-11.82557509104629 A 191.5640230532165 191.5640230532165 0 0 1 118.72568118979362,-6.734548636468075 L 118.02505434579997,-3.817508694082043 L 126.73799665082092,-5.838557033280366 L 119.89339259644969,-11.596281873778128 L 119.19276575245604,-8.679241931392097 A 193.5640230532165 193.5640230532165 0 0 0 82.96951545059216,-13.823420604987575"/><text text-anchor="middle" pointer-events="none" font-size="8px" fill="#000000" x="71.47639290067674" y="-10.015564050064626" transform="rotate(180 71.47639290067674 -13.015564050064626)" font-family="Helvetica Neue, Helvetica, Arial, sans-serif">DFG</text></g><g class="relationship" transform="translate(-322.86549593335724 56.271580526132766) rotate(260.9645389088878)"><path class="b-outline" fill="#A5ABB6" stroke="none" d="M 24.018736134675446,6.953439040707552 L 24.277555179777966,5.987513214418485 A 215.5209390666414 215.5209390666414 0 0 0 59.50964527509603,12.349360846683965 L 59.41430032326676,13.344805139530479 A 216.5209390666414 216.5209390666414 0 0 1 24.018736134675446,6.953439040707552 Z M 96.0863438239092,13.737168484847473 L 96.0123192743003,12.739912065437096 A 215.5209390666414 215.5209390666414 0 0 0 131.37246238943763,7.133348353342789 L 130.65818399333756,4.219621122995938 L 138.29020565959695,5.952319967500462 L 132.3248335842377,11.018317993805255 L 131.61055518813762,8.104590763458406 A 216.5209390666414 216.5209390666414 0 0 1 96.0863438239092,13.737168484847473"/><text text-anchor="middle" pointer-events="none" font-size="8px" fill="#000000" x="77.74734916945238" y="16.818847807832498" transform="rotate(180 77.74734916945238 13.818847807832498)" font-family="Helvetica Neue, Helvetica, Arial, sans-serif">CALLEE</text></g><g class="relationship" transform="translate(-322.86549593335724 56.271580526132766) rotate(260.9645389088878)"><path class="b-outline" fill="#569480" stroke="none" d="M 23.889326612124187,-7.436401953852087 L 24.406964702329226,-5.50455030127395 A 214.24853714977885 214.24853714977885 0 0 1 66.52916204919725,-12.389847834650908 L 66.40473268664314,-14.38597341530317 A 216.24853714977885 216.24853714977885 0 0 0 23.889326612124187,-7.436401953852087 Z M 88.0609311021577,-14.649277245517283 L 87.98507056956663,-12.650716468459194 A 214.24853714977885 214.24853714977885 0 0 1 130.26221936047844,-6.791576466485584 L 129.55644577347098,-3.8757774946971204 L 138.27294114758348,-5.881446558395254 L 131.4385086721575,-11.651241419466357 L 130.73273508515004,-8.735442447677894 A 216.24853714977885 216.24853714977885 0 0 0 88.0609311021577,-14.649277245517283"/><text text-anchor="middle" pointer-events="none" font-size="8px" fill="#000000" x="77.24169097340513" y="-10.788984305520643" transform="rotate(180 77.24169097340513 -13.788984305520643)" font-family="Helvetica Neue, Helvetica, Arial, sans-serif">AST</text></g><g class="relationship" transform="translate(5.059042228092551 118.22341305034911) rotate(310.84132607882833)"><path class="b-outline" fill="#569480" stroke="none" d="M 21.15063509461097,13.366025403784437 L 22.15063509461097,11.633974596215559 A 65.50856934476865 65.50856934476865 0 0 0 42.196667361546574,19.16597715964477 L 41.80867988044113,21.12798269340493 A 67.50856934476865 67.50856934476865 0 0 1 21.15063509461097,13.366025403784437 Z M 63.59189513550163,21.84920742685061 L 63.33453594531818,19.865834983957427 A 65.50856934476865 65.50856934476865 0 0 0 83.83487760509912,13.67629024344729 L 82.51001469964412,10.984685093773717 L 91.454112306047,11.04052421212511 L 86.04298244752415,18.16229882623658 L 84.71811954206915,15.470693676563005 A 67.50856934476865 67.50856934476865 0 0 1 63.59189513550163,21.84920742685061"/><text text-anchor="middle" pointer-events="none" font-size="8px" fill="#000000" x="52.70408050954778" y="24.37403469361523" font-family="Helvetica Neue, Helvetica, Arial, sans-serif">AST</text></g><g class="relationship" transform="translate(5.059042228092551 118.22341305034911) rotate(310.84132607882833)"><path class="b-outline" fill="#A5ABB6" stroke="none" d="M 25 0.5 L 35.12541100690833 0.5 L 35.12541100690833 -0.5 L 25 -0.5 Z M 71.7587442130851 0.5 L 81.88415521999342 0.5 L 81.88415521999342 3.5 L 88.88415521999342 0 L 81.88415521999342 -3.5 L 81.88415521999342 -0.5 L 71.7587442130851 -0.5 Z"/><text text-anchor="middle" pointer-events="none" font-size="8px" fill="#000000" x="53.44207760999671" y="3" font-family="Helvetica Neue, Helvetica, Arial, sans-serif">CALLEE</text></g><g class="relationship" transform="translate(79.53545738530133 32.06736627763189) rotate(490.84132607882833)"><path class="b-outline" fill="#4C8EDA" stroke="none" d="M 21.15063509461097,13.366025403784437 L 22.15063509461097,11.633974596215559 A 65.50856934476865 65.50856934476865 0 0 0 41.11952733095988,18.943560288369 L 40.69865438032396,20.898775355675667 A 67.50856934476865 67.50856934476865 0 0 1 21.15063509461097,13.366025403784437 Z M 64.71465076003749,21.69392567598331 L 64.42402895933117,19.715153589826286 A 65.50856934476865 65.50856934476865 0 0 0 83.83487760509912,13.67629024344729 L 82.51001469964412,10.984685093773717 L 91.454112306047,11.04052421212511 L 86.04298244752415,18.16229882623658 L 84.71811954206915,15.470693676563005 A 67.50856934476865 67.50856934476865 0 0 1 64.71465076003749,21.69392567598331"/><text text-anchor="middle" pointer-events="none" font-size="8px" fill="#000000" x="52.70408050954778" y="24.37403469361523" transform="rotate(180 52.70408050954778 21.37403469361523)" font-family="Helvetica Neue, Helvetica, Arial, sans-serif">EOG</text></g><g class="relationship" transform="translate(-11.544692304436595 -48.530298727557295) rotate(401.5059119163451)"><path class="b-outline" fill="#4C8EDA" stroke="none" d="M 23.889326612124187,7.436401953852087 L 24.406964702329226,5.50455030127395 A 133.28145303752817 133.28145303752817 0 0 0 44.983455874106724,9.317180560256958 L 44.77458529360138,11.306243927925095 A 135.28145303752817 135.28145303752817 0 0 1 23.889326612124187,7.436401953852087 Z M 68.7173850117867,11.689510828320152 L 68.57228541854556,9.694781245634488 A 133.28145303752817 133.28145303752817 0 0 0 89.26026500493732,6.542696369400248 L 88.57695488475855,3.621551511701256 L 97.27775466552757,5.694251001489832 L 90.39911520523529,11.411271132231901 L 89.71580508505652,8.490126274532908 A 135.28145303752817 135.28145303752817 0 0 1 68.7173850117867,11.689510828320152"/><text text-anchor="middle" pointer-events="none" font-size="8px" fill="#000000" x="56.75349388452577" y="14.028804619167829" font-family="Helvetica Neue, Helvetica, Arial, sans-serif">EOG</text></g><g class="relationship" transform="translate(-11.544692304436595 -48.530298727557295) rotate(401.5059119163451)"><path class="b-outline" fill="#F16667" stroke="none" d="M 23.889326612124187,-7.436401953852087 L 24.406964702329226,-5.50455030127395 A 133.28145303752817 133.28145303752817 0 0 1 45.42773942624451,-9.363082049049154 L 45.22553569310634,-11.352834207059033 A 135.28145303752817 135.28145303752817 0 0 0 23.889326612124187,-7.436401953852087 Z M 68.26517444371099,-11.72164366268251 L 68.12676032815983,-9.72643902841159 A 133.28145303752817 133.28145303752817 0 0 1 89.26026500493732,-6.542696369400248 L 88.57695488475855,-3.621551511701256 L 97.27775466552757,-5.694251001489832 L 90.39911520523529,-11.411271132231901 L 89.71580508505652,-8.490126274532908 A 135.28145303752817 135.28145303752817 0 0 0 68.26517444371099,-11.72164366268251"/><text text-anchor="middle" pointer-events="none" font-size="8px" fill="#000000" x="56.753493884525724" y="-8.028804619167829" font-family="Helvetica Neue, Helvetica, Arial, sans-serif">DFG</text></g></g><g class="layer nodes"><g class="node" aria-label="graph-node70" transform="translate(5.059042228092551,118.22341305034911)"><circle class="b-outline" cx="0" cy="0" r="25" fill="#569480" stroke="#447666" stroke-width="2px"/><text class="caption" text-anchor="middle" pointer-events="none" x="0" y="5" font-size="10px" fill="#FFFFFF" font-family="Helvetica Neue, Helvetica, Arial, sans-serif"> arg.trim()</text></g><g class="node" aria-label="graph-node1" transform="translate(289.4702508094123,-17.362383533376487)"><circle class="b-outline" cx="0" cy="0" r="25" fill="#8DCC93" stroke="#5db665" stroke-width="2px"/><text class="caption" text-anchor="middle" pointer-events="none" x="0" y="5" font-size="10px" fill="#2A2C34" font-family="Helvetica Neue, Helvetica, Arial, sans-serif"> length</text></g><g class="node" aria-label="graph-node2" transform="translate(-348.3966187392566,-104.2823925441676)"><circle class="b-outline" cx="0" cy="0" r="25" fill="#8DCC93" stroke="#5db665" stroke-width="2px"/><text class="caption" text-anchor="middle" pointer-events="none" x="0" y="5" font-size="10px" fill="#2A2C34" font-family="Helvetica Neue, Helvetica, Arial, sans-serif"> equals</text></g><g class="node" aria-label="graph-node3" transform="translate(79.53545738530133,32.06736627763189)"><circle class="b-outline" cx="0" cy="0" r="25" fill="#8DCC93" stroke="#5db665" stroke-width="2px"/><text class="caption" text-anchor="middle" pointer-events="none" x="0" y="5" font-size="10px" fill="#2A2C34" font-family="Helvetica Neue, Helvetica, Arial, sans-serif"> trim</text></g><g class="node" aria-label="graph-node7" transform="translate(3.791598345773764,240.25472205641273)"><circle class="b-outline" cx="0" cy="0" r="25" fill="#F16667" stroke="#eb2728" stroke-width="2px"/><text class="caption" text-anchor="middle" pointer-events="none" x="0" y="5" font-size="10px" fill="#FFFFFF" font-family="Helvetica Neue, Helvetica, Arial, sans-serif"> =</text></g><g class="node" aria-label="graph-node25" transform="translate(-187.77190982083013,51.60303096662193)"><circle class="b-outline" cx="0" cy="0" r="25" fill="#F79767" stroke="#f36924" stroke-width="2px"/><text class="caption" text-anchor="middle" pointer-events="none" x="0" y="5" font-size="10px" fill="#FFFFFF" font-family="Helvetica Neue, Helvetica, Arial, sans-serif"> </text></g><g class="node" aria-label="graph-node26" transform="translate(-615.6225452257172,200.60460419047388)"><circle class="b-outline" cx="0" cy="0" r="25" fill="#F79767" stroke="#f36924" stroke-width="2px"/><text class="caption" text-anchor="middle" pointer-events="none" x="0" y="5" font-size="10px" fill="#FFFFFF" font-family="Helvetica Neue, Helvetica, Arial, sans-serif"> </text></g><g class="node" aria-label="graph-node27" transform="translate(-194.4736118071852,226.22957364291045)"><circle class="b-outline" cx="0" cy="0" r="25" fill="#F79767" stroke="#f36924" stroke-width="2px"/><text class="caption" text-anchor="middle" pointer-events="none" x="0" y="5" font-size="10px" fill="#FFFFFF" font-family="Helvetica Neue, Helvetica, Arial, sans-serif"> </text></g><g class="node" aria-label="graph-node36" transform="translate(-113.41366197672033,66.88825903979057)"><circle class="b-outline" cx="0" cy="0" r="25" fill="#8DCC93" stroke="#5db665" stroke-width="2px"/><text class="caption" text-anchor="middle" pointer-events="none" x="0" y="5" font-size="10px" fill="#2A2C34" font-family="Helvetica Neue, Helvetica, Arial, sans-serif"> arg</text></g><g class="node" aria-label="graph-node38" transform="translate(186.01399003287833,196.7199092098317)"><circle class="b-outline" cx="0" cy="0" r="25" fill="#8DCC93" stroke="#5db665" stroke-width="2px"/><text class="caption" text-anchor="middle" pointer-events="none" x="0" y="5" font-size="10px" fill="#2A2C34" font-family="Helvetica Neue, Helvetica, Arial, sans-serif"> arg</text></g><g class="node" aria-label="graph-node41" transform="translate(-224.77983931831204,-17.483854538622765)"><circle class="b-outline" cx="0" cy="0" r="25" fill="#8DCC93" stroke="#5db665" stroke-width="2px"/><text class="caption" text-anchor="middle" pointer-events="none" x="0" y="5" font-size="10px" fill="#2A2C34" font-family="Helvetica Neue, Helvetica, Arial, sans-serif"> arg</text></g><g class="node" aria-label="graph-node42" transform="translate(-11.544692304436595,-48.530298727557295)"><circle class="b-outline" cx="0" cy="0" r="25" fill="#8DCC93" stroke="#5db665" stroke-width="2px"/><text class="caption" text-anchor="middle" pointer-events="none" x="0" y="5" font-size="10px" fill="#2A2C34" font-family="Helvetica Neue, Helvetica, Arial, sans-serif"> arg</text></g><g class="node" aria-label="graph-node46" transform="translate(-606.8214659934259,-37.22253953575046)"><circle class="b-outline" cx="0" cy="0" r="25" fill="#DA7194" stroke="#cc3c6c" stroke-width="2px"/><text class="caption" text-anchor="middle" pointer-events="none" x="0" y="5" font-size="10px" fill="#FFFFFF" font-family="Helvetica Neue, Helvetica, Arial, sans-serif"> </text></g><g class="node" aria-label="graph-node48" transform="translate(134.39626843723443,-227.4842524798277)"><circle class="b-outline" cx="0" cy="0" r="25" fill="#DA7194" stroke="#cc3c6c" stroke-width="2px"/><text class="caption" text-anchor="middle" pointer-events="none" x="0" y="5" font-size="10px" fill="#FFFFFF" font-family="Helvetica Neue, Helvetica, Arial, sans-serif"> </text></g><g class="node" aria-label="graph-node56" transform="translate(-267.9183654785156,-231.45897097814213)"><circle class="b-outline" cx="0" cy="0" r="25" fill="#57C7E3" stroke="#23b3d7" stroke-width="2px"/><text class="caption" text-anchor="middle" pointer-events="none" x="0" y="5" font-size="10px" fill="#2A2C34" font-family="Helvetica Neue, Helvetica, Arial, sans-serif"> Impleme…</text></g><g class="node" aria-label="graph-node59" transform="translate(-485.01960786365925,-62.81734760473688)"><circle class="b-outline" cx="0" cy="0" r="25" fill="#FFC454" stroke="#d7a013" stroke-width="2px"/><text class="caption" text-anchor="middle" pointer-events="none" x="0" y="5" font-size="10px" fill="#2A2C34" font-family="Helvetica Neue, Helvetica, Arial, sans-serif"> Test</text></g><g class="node" aria-label="graph-node61" transform="translate(-447.86353108662945,132.30231210364684)"><circle class="b-outline" cx="0" cy="0" r="25" fill="#FFC454" stroke="#d7a013" stroke-width="2px"/><text class="caption" text-anchor="middle" pointer-events="none" x="0" y="5" font-size="10px" fill="#2A2C34" font-family="Helvetica Neue, Helvetica, Arial, sans-serif"> 1</text></g><g class="node" aria-label="graph-node69" transform="translate(-322.86549593335724,56.271580526132766)"><circle class="b-outline" cx="0" cy="0" r="25" fill="#569480" stroke="#447666" stroke-width="2px"/><text class="caption" text-anchor="middle" pointer-events="none" x="0" y="5" font-size="10px" fill="#FFFFFF" font-family="Helvetica Neue, Helvetica, Arial, sans-serif"> arg.equa…</text></g><g class="node" aria-label="graph-node72" transform="translate(160.3038492215366,-94.61585354226202)"><circle class="b-outline" cx="0" cy="0" r="25" fill="#569480" stroke="#447666" stroke-width="2px"/><text class="caption" text-anchor="middle" pointer-events="none" x="0" y="5" font-size="10px" fill="#FFFFFF" font-family="Helvetica Neue, Helvetica, Arial, sans-serif"> arg.lengt…</text></g><g class="node" aria-label="graph-node76" transform="translate(-359.29748297778696,220.53505690446465)"><circle class="b-outline" cx="0" cy="0" r="25" fill="#F79767" stroke="#f36924" stroke-width="2px"/><text class="caption" text-anchor="middle" pointer-events="none" x="0" y="5" font-size="10px" fill="#FFFFFF" font-family="Helvetica Neue, Helvetica, Arial, sans-serif"> if(arg.eq…</text></g><g class="node" aria-label="graph-node80" transform="translate(-73.5869734707415,-178.00964655594098)"><circle class="b-outline" cx="0" cy="0" r="25" fill="#F79767" stroke="#f36924" stroke-width="2px"/><text class="caption" text-anchor="middle" pointer-events="none" x="0" y="5" font-size="10px" fill="#FFFFFF" font-family="Helvetica Neue, Helvetica, Arial, sans-serif"> arg</text></g></g></svg>