<?xml version="1.0" encoding="UTF-8" standalone="no"?><svg xmlns="http://www.w3.org/2000/svg" xmlns:xlink="http://www.w3.org/1999/xlink" contentScriptType="application/ecmascript" contentStyleType="text/css" height="95px" preserveAspectRatio="none" style="width:245px;height:95px;" version="1.1" viewBox="0 0 245 95" width="245px" zoomAndPan="magnify"><defs><filter height="300%" id="f1e3qe3n0vc3d7" width="300%" x="-1" y="-1"><feGaussianBlur result="blurOut" stdDeviation="2.0"/><feColorMatrix in="blurOut" result="blurOut2" type="matrix" values="0 0 0 0 0 0 0 0 0 0 0 0 0 0 0 0 0 0 .4 0"/><feOffset dx="4.0" dy="4.0" in="blurOut2" result="blurOut3"/><feBlend in="SourceGraphic" in2="blurOut3" mode="normal"/></filter></defs><g><!--MD5=[98735ed145356ca4ef7b916c9676d4a7]
class de.fraunhofer.aisec.cpg.helpers.CommonPath--><a href="CommonPath.html" target="_top" title="CommonPath.html" xlink:actuate="onRequest" xlink:href="CommonPath.html" xlink:show="new" xlink:title="CommonPath.html" xlink:type="simple"><rect fill="#FEFECE" filter="url(#f1e3qe3n0vc3d7)" height="58.7422" id="de.fraunhofer.aisec.cpg.helpers.CommonPath" style="stroke: #A80036; stroke-width: 1.5;" width="227" x="7" y="7"/><ellipse cx="41.35" cy="25.9688" fill="#ADD1B2" rx="11" ry="11" style="stroke: #A80036; stroke-width: 1.0;"/><path d="M44.3188,31.6094 Q43.7406,31.9063 43.1,32.0469 Q42.4594,32.2031 41.7563,32.2031 Q39.2563,32.2031 37.9281,30.5625 Q36.6156,28.9063 36.6156,25.7813 Q36.6156,22.6563 37.9281,21 Q39.2563,19.3438 41.7563,19.3438 Q42.4594,19.3438 43.1,19.5 Q43.7563,19.6563 44.3188,19.9531 L44.3188,22.6719 Q43.6938,22.0938 43.1,21.8281 Q42.5063,21.5469 41.8813,21.5469 Q40.5375,21.5469 39.85,22.625 Q39.1625,23.6875 39.1625,25.7813 Q39.1625,27.875 39.85,28.9531 Q40.5375,30.0156 41.8813,30.0156 Q42.5063,30.0156 43.1,29.75 Q43.6938,29.4688 44.3188,28.8906 L44.3188,31.6094 Z "/><text fill="#000000" font-family="sans-serif" font-size="14" lengthAdjust="spacingAndGlyphs" textLength="94" x="88.65" y="24.9951">CommonPath</text><text fill="#000000" font-family="sans-serif" font-size="10" lengthAdjust="spacingAndGlyphs" textLength="152" x="59.65" y="37.5791">de.fraunhofer.aisec.cpg.helpers</text><line style="stroke: #A80036; stroke-width: 1.5;" x1="8" x2="233" y1="44.9375" y2="44.9375"/><ellipse cx="18" cy="55.9375" fill="#84BE84" rx="3" ry="3" style="stroke: #038048; stroke-width: 1.0;"/><text fill="#000000" font-family="sans-serif" font-size="11" lengthAdjust="spacingAndGlyphs" text-decoration="underline" textLength="201" x="27" y="59.1479">commonPath(Collection&lt;File&gt;): File</text></a><text fill="#888888" font-family="sans-serif" font-size="10" lengthAdjust="spacingAndGlyphs" textLength="186" x="27.5" y="82.0244">UMLDoclet 2.0.9, PlantUML 1.2020.08</text><!--MD5=[93bbd3ded86b4dfade4cf869086b9b6e]
@startuml
    set namespaceSeparator none
    hide empty fields
    hide empty methods

    class "<size:14>CommonPath\n<size:10>de.fraunhofer.aisec.cpg.helpers" as de.fraunhofer.aisec.cpg.helpers.CommonPath [[CommonPath.html]] {
        {static} +commonPath(Collection<File>): File
    }

    center footer UMLDoclet 2.0.9, PlantUML 1.2020.08
@enduml

PlantUML version 1.2020.08(Sun Apr 26 14:08:22 UTC 2020)
(APACHE source distribution)
Java Runtime: OpenJDK Runtime Environment
JVM: OpenJDK 64-Bit Server VM
Java Version: 11.0.7+10-LTS
Operating System: Linux
Default Encoding: UTF-8
Language: en
Country: null
--></g></svg>