<?xml version="1.0" encoding="UTF-8" standalone="no"?><svg xmlns="http://www.w3.org/2000/svg" xmlns:xlink="http://www.w3.org/1999/xlink" contentScriptType="application/ecmascript" contentStyleType="text/css" height="463px" preserveAspectRatio="none" style="width:701px;height:463px;" version="1.1" viewBox="0 0 701 463" width="701px" zoomAndPan="magnify"><defs><filter height="300%" id="f1nfo8gz3njf3a" width="300%" x="-1" y="-1"><feGaussianBlur result="blurOut" stdDeviation="2.0"/><feColorMatrix in="blurOut" result="blurOut2" type="matrix" values="0 0 0 0 0 0 0 0 0 0 0 0 0 0 0 0 0 0 .4 0"/><feOffset dx="4.0" dy="4.0" in="blurOut2" result="blurOut3"/><feBlend in="SourceGraphic" in2="blurOut3" mode="normal"/></filter></defs><g><!--MD5=[3876c48393435148d8f3542f2ab10a3d]
cluster de.fraunhofer.aisec.cpg.sarif--><polygon fill="#FFFFFF" filter="url(#f1nfo8gz3njf3a)" points="22,24,258,24,265,46.2969,495,46.2969,495,415,22,415,22,24" style="stroke: #000000; stroke-width: 1.5;"/><line style="stroke: #000000; stroke-width: 1.5;" x1="22" x2="265" y1="46.2969" y2="46.2969"/><text fill="#000000" font-family="sans-serif" font-size="14" font-weight="bold" lengthAdjust="spacingAndGlyphs" textLength="230" x="26" y="38.9951">de.fraunhofer.aisec.cpg.sarif</text><!--MD5=[aa8f7b917213fcc1c2766e2d59b49067]
cluster java.lang--><polygon fill="#FFFFFF" filter="url(#f1nfo8gz3njf3a)" points="519,30.5,594,30.5,601,52.7969,679,52.7969,679,142.5,519,142.5,519,30.5" style="stroke: #000000; stroke-width: 1.5;"/><line style="stroke: #000000; stroke-width: 1.5;" x1="519" x2="601" y1="52.7969" y2="52.7969"/><text fill="#000000" font-family="sans-serif" font-size="14" font-weight="bold" lengthAdjust="spacingAndGlyphs" textLength="69" x="523" y="45.4951">java.lang</text><!--MD5=[df7e0397b69f06adb7f2e6196c1335b5]
class de.fraunhofer.aisec.cpg.sarif.PhysicalLocation--><a href="PhysicalLocation.html" target="_top" title="PhysicalLocation.html" xlink:actuate="onRequest" xlink:href="PhysicalLocation.html" xlink:show="new" xlink:title="PhysicalLocation.html" xlink:type="simple"><rect fill="#FEFECE" filter="url(#f1nfo8gz3njf3a)" height="73.6094" id="de.fraunhofer.aisec.cpg.sarif.PhysicalLocation" style="stroke: #A80036; stroke-width: 1.5;" width="235" x="146.5" y="59"/><ellipse cx="208.25" cy="75" fill="#ADD1B2" rx="11" ry="11" style="stroke: #A80036; stroke-width: 1.0;"/><path d="M211.2188,80.6406 Q210.6406,80.9375 210,81.0781 Q209.3594,81.2344 208.6563,81.2344 Q206.1563,81.2344 204.8281,79.5938 Q203.5156,77.9375 203.5156,74.8125 Q203.5156,71.6875 204.8281,70.0313 Q206.1563,68.375 208.6563,68.375 Q209.3594,68.375 210,68.5313 Q210.6563,68.6875 211.2188,68.9844 L211.2188,71.7031 Q210.5938,71.125 210,70.8594 Q209.4063,70.5781 208.7813,70.5781 Q207.4375,70.5781 206.75,71.6563 Q206.0625,72.7188 206.0625,74.8125 Q206.0625,76.9063 206.75,77.9844 Q207.4375,79.0469 208.7813,79.0469 Q209.4063,79.0469 210,78.7813 Q210.5938,78.5 211.2188,77.9219 L211.2188,80.6406 Z "/><text fill="#000000" font-family="sans-serif" font-size="12" lengthAdjust="spacingAndGlyphs" textLength="103" x="228.75" y="79.1543">PhysicalLocation</text><line style="stroke: #A80036; stroke-width: 1.5;" x1="147.5" x2="380.5" y1="91" y2="91"/><line style="stroke: #A80036; stroke-width: 1.5;" x1="147.5" x2="380.5" y1="99" y2="99"/><ellipse cx="157.5" cy="110" fill="#84BE84" rx="3" ry="3" style="stroke: #038048; stroke-width: 1.0;"/><text fill="#000000" font-family="sans-serif" font-size="11" lengthAdjust="spacingAndGlyphs" textLength="165" x="166.5" y="113.2104">PhysicalLocation(URI, Region)</text><ellipse cx="157.5" cy="122.8047" fill="#84BE84" rx="3" ry="3" style="stroke: #038048; stroke-width: 1.0;"/><text fill="#000000" font-family="sans-serif" font-size="11" lengthAdjust="spacingAndGlyphs" text-decoration="underline" textLength="209" x="166.5" y="126.0151">locationLink(PhysicalLocation): String</text></a><!--MD5=[64b1c0c7fee30b95cfdf830dc7890b76]
class de.fraunhofer.aisec.cpg.sarif.PhysicalLocation.ArtifactLocation--><a href="PhysicalLocation.ArtifactLocation.html" target="_top" title="PhysicalLocation.ArtifactLocation.html" xlink:actuate="onRequest" xlink:href="PhysicalLocation.ArtifactLocation.html" xlink:show="new" xlink:title="PhysicalLocation.ArtifactLocation.html" xlink:type="simple"><rect fill="#FEFECE" filter="url(#f1nfo8gz3njf3a)" height="73.6094" id="de.fraunhofer.aisec.cpg.sarif.PhysicalLocation.ArtifactLocation" style="stroke: #A80036; stroke-width: 1.5;" width="237" x="38.5" y="267.5"/><ellipse cx="53.5" cy="283.5" fill="#ADD1B2" rx="11" ry="11" style="stroke: #A80036; stroke-width: 1.0;"/><path d="M56.4688,289.1406 Q55.8906,289.4375 55.25,289.5781 Q54.6094,289.7344 53.9063,289.7344 Q51.4063,289.7344 50.0781,288.0938 Q48.7656,286.4375 48.7656,283.3125 Q48.7656,280.1875 50.0781,278.5313 Q51.4063,276.875 53.9063,276.875 Q54.6094,276.875 55.25,277.0313 Q55.9063,277.1875 56.4688,277.4844 L56.4688,280.2031 Q55.8438,279.625 55.25,279.3594 Q54.6563,279.0781 54.0313,279.0781 Q52.6875,279.0781 52,280.1563 Q51.3125,281.2188 51.3125,283.3125 Q51.3125,285.4063 52,286.4844 Q52.6875,287.5469 54.0313,287.5469 Q54.6563,287.5469 55.25,287.2813 Q55.8438,287 56.4688,286.4219 L56.4688,289.1406 Z "/><text fill="#000000" font-family="sans-serif" font-size="12" lengthAdjust="spacingAndGlyphs" textLength="205" x="67.5" y="287.6543">PhysicalLocation.ArtifactLocation</text><line style="stroke: #A80036; stroke-width: 1.5;" x1="39.5" x2="274.5" y1="299.5" y2="299.5"/><line style="stroke: #A80036; stroke-width: 1.5;" x1="39.5" x2="274.5" y1="307.5" y2="307.5"/><ellipse cx="49.5" cy="318.5" fill="#84BE84" rx="3" ry="3" style="stroke: #038048; stroke-width: 1.0;"/><text fill="#000000" font-family="sans-serif" font-size="11" lengthAdjust="spacingAndGlyphs" textLength="113" x="58.5" y="321.7104">ArtifactLocation(URI)</text><ellipse cx="49.5" cy="331.3047" fill="#84BE84" rx="3" ry="3" style="stroke: #038048; stroke-width: 1.0;"/><text fill="#000000" font-family="sans-serif" font-size="11" lengthAdjust="spacingAndGlyphs" textLength="68" x="58.5" y="334.5151">getUri(): URI</text></a><!--MD5=[3ab0021e74727c8dab8a8ca70002fced]
class de.fraunhofer.aisec.cpg.sarif.Region--><a href="Region.html" target="_top" title="Region.html" xlink:actuate="onRequest" xlink:href="Region.html" xlink:show="new" xlink:title="Region.html" xlink:type="simple"><rect fill="#FEFECE" filter="url(#f1nfo8gz3njf3a)" height="188.8516" id="de.fraunhofer.aisec.cpg.sarif.Region" style="stroke: #A80036; stroke-width: 1.5;" width="168" x="311" y="210"/><ellipse cx="369.25" cy="226" fill="#ADD1B2" rx="11" ry="11" style="stroke: #A80036; stroke-width: 1.0;"/><path d="M372.2188,231.6406 Q371.6406,231.9375 371,232.0781 Q370.3594,232.2344 369.6563,232.2344 Q367.1563,232.2344 365.8281,230.5938 Q364.5156,228.9375 364.5156,225.8125 Q364.5156,222.6875 365.8281,221.0313 Q367.1563,219.375 369.6563,219.375 Q370.3594,219.375 371,219.5313 Q371.6563,219.6875 372.2188,219.9844 L372.2188,222.7031 Q371.5938,222.125 371,221.8594 Q370.4063,221.5781 369.7813,221.5781 Q368.4375,221.5781 367.75,222.6563 Q367.0625,223.7188 367.0625,225.8125 Q367.0625,227.9063 367.75,228.9844 Q368.4375,230.0469 369.7813,230.0469 Q370.4063,230.0469 371,229.7813 Q371.5938,229.5 372.2188,228.9219 L372.2188,231.6406 Z "/><text fill="#000000" font-family="sans-serif" font-size="12" lengthAdjust="spacingAndGlyphs" textLength="43" x="389.75" y="230.1543">Region</text><line style="stroke: #A80036; stroke-width: 1.5;" x1="312" x2="478" y1="242" y2="242"/><line style="stroke: #A80036; stroke-width: 1.5;" x1="312" x2="478" y1="250" y2="250"/><ellipse cx="322" cy="261" fill="#84BE84" rx="3" ry="3" style="stroke: #038048; stroke-width: 1.0;"/><text fill="#000000" font-family="sans-serif" font-size="11" lengthAdjust="spacingAndGlyphs" textLength="126" x="331" y="264.2104">Region(int, int, int, int)</text><ellipse cx="322" cy="273.8047" fill="#84BE84" rx="3" ry="3" style="stroke: #038048; stroke-width: 1.0;"/><text fill="#000000" font-family="sans-serif" font-size="11" lengthAdjust="spacingAndGlyphs" textLength="46" x="331" y="277.0151">Region()</text><ellipse cx="322" cy="286.6094" fill="#84BE84" rx="3" ry="3" style="stroke: #038048; stroke-width: 1.0;"/><text fill="#000000" font-family="sans-serif" font-size="11" lengthAdjust="spacingAndGlyphs" textLength="99" x="331" y="289.8198">getStartLine(): int</text><ellipse cx="322" cy="299.4141" fill="#84BE84" rx="3" ry="3" style="stroke: #038048; stroke-width: 1.0;"/><text fill="#000000" font-family="sans-serif" font-size="11" lengthAdjust="spacingAndGlyphs" textLength="122" x="331" y="302.6245">setStartLine(int): void</text><ellipse cx="322" cy="312.2188" fill="#84BE84" rx="3" ry="3" style="stroke: #038048; stroke-width: 1.0;"/><text fill="#000000" font-family="sans-serif" font-size="11" lengthAdjust="spacingAndGlyphs" textLength="119" x="331" y="315.4292">getStartColumn(): int</text><ellipse cx="322" cy="325.0234" fill="#84BE84" rx="3" ry="3" style="stroke: #038048; stroke-width: 1.0;"/><text fill="#000000" font-family="sans-serif" font-size="11" lengthAdjust="spacingAndGlyphs" textLength="142" x="331" y="328.2339">setStartColumn(int): void</text><ellipse cx="322" cy="337.8281" fill="#84BE84" rx="3" ry="3" style="stroke: #038048; stroke-width: 1.0;"/><text fill="#000000" font-family="sans-serif" font-size="11" lengthAdjust="spacingAndGlyphs" textLength="92" x="331" y="341.0386">getEndLine(): int</text><ellipse cx="322" cy="350.6328" fill="#84BE84" rx="3" ry="3" style="stroke: #038048; stroke-width: 1.0;"/><text fill="#000000" font-family="sans-serif" font-size="11" lengthAdjust="spacingAndGlyphs" textLength="115" x="331" y="353.8433">setEndLine(int): void</text><ellipse cx="322" cy="363.4375" fill="#84BE84" rx="3" ry="3" style="stroke: #038048; stroke-width: 1.0;"/><text fill="#000000" font-family="sans-serif" font-size="11" lengthAdjust="spacingAndGlyphs" textLength="112" x="331" y="366.6479">getEndColumn(): int</text><ellipse cx="322" cy="376.2422" fill="#84BE84" rx="3" ry="3" style="stroke: #038048; stroke-width: 1.0;"/><text fill="#000000" font-family="sans-serif" font-size="11" lengthAdjust="spacingAndGlyphs" textLength="135" x="331" y="379.4526">setEndColumn(int): void</text><ellipse cx="322" cy="389.0469" fill="#84BE84" rx="3" ry="3" style="stroke: #038048; stroke-width: 1.0;"/><text fill="#000000" font-family="sans-serif" font-size="11" lengthAdjust="spacingAndGlyphs" textLength="132" x="331" y="392.2573">compareTo(Region): int</text></a><!--MD5=[008d82c49f85b4d489e041917c99c847]
class java.lang.Comparable--><rect fill="#FEFECE" filter="url(#f1nfo8gz3njf3a)" height="60.8047" id="java.lang.Comparable" style="stroke: #A80036; stroke-width: 1.5;" width="127" x="535.5" y="65.5"/><ellipse cx="554.55" cy="81.5" fill="#B4A7E5" rx="11" ry="11" style="stroke: #A80036; stroke-width: 1.0;"/><path d="M550.4719,77.2656 L550.4719,75.1094 L557.8625,75.1094 L557.8625,77.2656 L555.3938,77.2656 L555.3938,85.3438 L557.8625,85.3438 L557.8625,87.5 L550.4719,87.5 L550.4719,85.3438 L552.9406,85.3438 L552.9406,77.2656 L550.4719,77.2656 Z "/><text fill="#000000" font-family="sans-serif" font-size="12" font-style="italic" lengthAdjust="spacingAndGlyphs" textLength="75" x="569.45" y="85.6543">Comparable</text><rect fill="#FFFFFF" height="15.9688" style="stroke: #000000; stroke-width: 1.0; stroke-dasharray: 2.0,2.0;" width="9" x="656.5" y="62.5"/><text fill="#000000" font-family="sans-serif" font-size="12" font-style="italic" lengthAdjust="spacingAndGlyphs" textLength="7" x="657.5" y="74.6387">T</text><line style="stroke: #A80036; stroke-width: 1.5;" x1="536.5" x2="661.5" y1="97.5" y2="97.5"/><line style="stroke: #A80036; stroke-width: 1.5;" x1="536.5" x2="661.5" y1="105.5" y2="105.5"/><ellipse cx="546.5" cy="116.5" fill="#84BE84" rx="3" ry="3" style="stroke: #038048; stroke-width: 1.0;"/><text fill="#000000" font-family="sans-serif" font-size="11" font-style="italic" lengthAdjust="spacingAndGlyphs" textLength="101" x="555.5" y="119.7104">compareTo(T): int</text><!--MD5=[980bf04d10c1b76848d4316676e0aae3]
link de.fraunhofer.aisec.cpg.sarif.PhysicalLocation to de.fraunhofer.aisec.cpg.sarif.Region--><path d="M287.12,133.44 C299.89,153.58 316.44,179.66 332.72,205.33 " fill="none" id="de.fraunhofer.aisec.cpg.sarif.PhysicalLocation-&gt;de.fraunhofer.aisec.cpg.sarif.Region" style="stroke: #A80036; stroke-width: 1.0;"/><polygon fill="#A80036" points="335.54,209.78,334.0999,200.037,332.863,205.557,327.3431,204.3201,335.54,209.78" style="stroke: #A80036; stroke-width: 1.0;"/><text fill="#000000" font-family="sans-serif" font-size="13" lengthAdjust="spacingAndGlyphs" textLength="40" x="314" y="176.0669">region</text><!--MD5=[9f2e4dd92d016bc303f9f043903c7095]
link de.fraunhofer.aisec.cpg.sarif.PhysicalLocation to de.fraunhofer.aisec.cpg.sarif.PhysicalLocation.ArtifactLocation--><path d="M181.14,133.17 C170.28,141.41 160.64,151.27 154,163 C137.01,193 139.69,232.7 145.51,262.24 " fill="none" id="de.fraunhofer.aisec.cpg.sarif.PhysicalLocation-&gt;de.fraunhofer.aisec.cpg.sarif.PhysicalLocation.ArtifactLocation" style="stroke: #A80036; stroke-width: 1.0;"/><polygon fill="#A80036" points="146.54,267.26,148.6327,257.636,145.5265,262.3638,140.7987,259.2576,146.54,267.26" style="stroke: #A80036; stroke-width: 1.0;"/><text fill="#000000" font-family="sans-serif" font-size="13" lengthAdjust="spacingAndGlyphs" textLength="99" x="155" y="176.0669">artifactLocation</text><!--MD5=[99fe9d4582f4076fa4dc20c0d9df8139]
reverse link de.fraunhofer.aisec.cpg.sarif.PhysicalLocation to de.fraunhofer.aisec.cpg.sarif.PhysicalLocation.ArtifactLocation--><path d="M265.92,148.47 C264.94,159.16 262.87,170.16 259,180 C245.8,213.51 219.85,244.72 197.44,267.38 " fill="none" id="de.fraunhofer.aisec.cpg.sarif.PhysicalLocation&lt;-de.fraunhofer.aisec.cpg.sarif.PhysicalLocation.ArtifactLocation" style="stroke: #A80036; stroke-width: 1.0;"/><ellipse cx="266.2615" cy="141.1806" fill="#FFFFFF" rx="8" ry="8" style="stroke: #A80036; stroke-width: 1.0;"/><line style="stroke: #A80036; stroke-width: 1.0;" x1="265.873" x2="266.65" y1="149.1711" y2="133.19"/><line style="stroke: #A80036; stroke-width: 1.0;" x1="258.271" x2="274.2521" y1="140.7921" y2="141.569"/><!--MD5=[7d450d64f39750ad301e55097619acc8]
reverse link java.lang.Comparable to de.fraunhofer.aisec.cpg.sarif.Region--><path d="M555.7,140.83 C533.46,163.35 505.56,191.58 479.29,218.18 " fill="none" id="java.lang.Comparable&lt;-de.fraunhofer.aisec.cpg.sarif.Region" style="stroke: #A80036; stroke-width: 1.0; stroke-dasharray: 7.0,7.0;"/><polygon fill="none" points="550.74,135.89,569.77,126.59,560.7,145.73,550.74,135.89" style="stroke: #A80036; stroke-width: 1.0;"/><text fill="#888888" font-family="sans-serif" font-size="10" lengthAdjust="spacingAndGlyphs" textLength="186" x="263.5" y="450.2822">UMLDoclet 2.0.9, PlantUML 1.2020.08</text><!--MD5=[4888fefbffc5b8191d005a4f436e957a]
@startuml
    namespace de.fraunhofer.aisec.cpg.sarif {

        class PhysicalLocation [[PhysicalLocation.html]] {
            +PhysicalLocation(URI, Region)
            {static} +locationLink(PhysicalLocation): String
        }

        class de.fraunhofer.aisec.cpg.sarif.PhysicalLocation.ArtifactLocation [[PhysicalLocation.ArtifactLocation.html]] {
            +ArtifactLocation(URI)
            +getUri(): URI
        }

        class Region [[Region.html]] {
            +Region(int, int, int, int)
            +Region()
            +getStartLine(): int
            +setStartLine(int): void
            +getStartColumn(): int
            +setStartColumn(int): void
            +getEndLine(): int
            +setEndLine(int): void
            +getEndColumn(): int
            +setEndColumn(int): void
            +compareTo(Region): int
        }

        PhysicalLocation - -> Region: region
        PhysicalLocation - -> de.fraunhofer.aisec.cpg.sarif.PhysicalLocation.ArtifactLocation: artifactLocation
        PhysicalLocation +- - de.fraunhofer.aisec.cpg.sarif.PhysicalLocation.ArtifactLocation
        java.lang.Comparable <|.. Region
    }

    namespace java.lang {
        interface Comparable<T> {
            {abstract} +compareTo(T): int
        }
    }

    center footer UMLDoclet 2.0.9, PlantUML 1.2020.08
@enduml

PlantUML version 1.2020.08(Sun Apr 26 16:08:22 CEST 2020)
(APACHE source distribution)
Java Runtime: OpenJDK Runtime Environment
JVM: OpenJDK 64-Bit Server VM
Java Version: 12.0.2+9-Ubuntu-118.04
Operating System: Linux
Default Encoding: UTF-8
Language: en
Country: US
--></g></svg>