<?xml version="1.0" encoding="UTF-8" standalone="no"?><svg xmlns="http://www.w3.org/2000/svg" xmlns:xlink="http://www.w3.org/1999/xlink" contentScriptType="application/ecmascript" contentStyleType="text/css" height="248px" preserveAspectRatio="none" style="width:271px;height:248px;" version="1.1" viewBox="0 0 271 248" width="271px" zoomAndPan="magnify"><defs><filter height="300%" id="f1clhxw8ow3x58" width="300%" x="-1" y="-1"><feGaussianBlur result="blurOut" stdDeviation="2.0"/><feColorMatrix in="blurOut" result="blurOut2" type="matrix" values="0 0 0 0 0 0 0 0 0 0 0 0 0 0 0 0 0 0 .4 0"/><feOffset dx="4.0" dy="4.0" in="blurOut2" result="blurOut3"/><feBlend in="SourceGraphic" in2="blurOut3" mode="normal"/></filter></defs><g><!--MD5=[df7e0397b69f06adb7f2e6196c1335b5]
class de.fraunhofer.aisec.cpg.sarif.PhysicalLocation--><a href="PhysicalLocation.html" target="_top" title="PhysicalLocation.html" xlink:actuate="onRequest" xlink:href="PhysicalLocation.html" xlink:show="new" xlink:title="PhysicalLocation.html" xlink:type="simple"><rect fill="#FEFECE" filter="url(#f1clhxw8ow3x58)" height="109.9609" id="de.fraunhofer.aisec.cpg.sarif.PhysicalLocation" style="stroke: #A80036; stroke-width: 1.5;" width="235" x="15.5" y="8"/><ellipse cx="59.75" cy="26.9688" fill="#ADD1B2" rx="11" ry="11" style="stroke: #A80036; stroke-width: 1.0;"/><path d="M62.7188,32.6094 Q62.1406,32.9063 61.5,33.0469 Q60.8594,33.2031 60.1563,33.2031 Q57.6563,33.2031 56.3281,31.5625 Q55.0156,29.9063 55.0156,26.7813 Q55.0156,23.6563 56.3281,22 Q57.6563,20.3438 60.1563,20.3438 Q60.8594,20.3438 61.5,20.5 Q62.1563,20.6563 62.7188,20.9531 L62.7188,23.6719 Q62.0938,23.0938 61.5,22.8281 Q60.9063,22.5469 60.2813,22.5469 Q58.9375,22.5469 58.25,23.625 Q57.5625,24.6875 57.5625,26.7813 Q57.5625,28.875 58.25,29.9531 Q58.9375,31.0156 60.2813,31.0156 Q60.9063,31.0156 61.5,30.75 Q62.0938,30.4688 62.7188,29.8906 L62.7188,32.6094 Z "/><text fill="#000000" font-family="sans-serif" font-size="14" lengthAdjust="spacingAndGlyphs" textLength="113" x="92.75" y="25.9951">PhysicalLocation</text><text fill="#000000" font-family="sans-serif" font-size="10" lengthAdjust="spacingAndGlyphs" textLength="138" x="80.25" y="38.5791">de.fraunhofer.aisec.cpg.sarif</text><line style="stroke: #A80036; stroke-width: 1.5;" x1="16.5" x2="249.5" y1="45.9375" y2="45.9375"/><ellipse cx="26.5" cy="56.9375" fill="#84BE84" rx="3" ry="3" style="stroke: #038048; stroke-width: 1.0;"/><text fill="#000000" font-family="sans-serif" font-size="11" lengthAdjust="spacingAndGlyphs" textLength="165" x="35.5" y="60.1479">PhysicalLocation(URI, Region)</text><ellipse cx="26.5" cy="69.7422" fill="#84BE84" rx="3" ry="3" style="stroke: #038048; stroke-width: 1.0;"/><text fill="#000000" font-family="sans-serif" font-size="11" lengthAdjust="spacingAndGlyphs" text-decoration="underline" textLength="209" x="35.5" y="72.9526">locationLink(PhysicalLocation): String</text><ellipse cx="26.5" cy="82.5469" fill="#84BE84" rx="3" ry="3" style="stroke: #038048; stroke-width: 1.0;"/><text fill="#000000" font-family="sans-serif" font-size="11" lengthAdjust="spacingAndGlyphs" textLength="133" x="35.5" y="85.7573">setRegion(Region): void</text><ellipse cx="26.5" cy="95.3516" fill="#84BE84" rx="3" ry="3" style="stroke: #038048; stroke-width: 1.0;"/><text fill="#000000" font-family="sans-serif" font-size="11" lengthAdjust="spacingAndGlyphs" textLength="110" x="35.5" y="98.562">getRegion(): Region</text><ellipse cx="26.5" cy="108.1563" fill="#84BE84" rx="3" ry="3" style="stroke: #038048; stroke-width: 1.0;"/><text fill="#000000" font-family="sans-serif" font-size="11" lengthAdjust="spacingAndGlyphs" textLength="208" x="35.5" y="111.3667">getArtifactLocation(): ArtifactLocation</text></a><!--MD5=[64b1c0c7fee30b95cfdf830dc7890b76]
class de.fraunhofer.aisec.cpg.sarif.PhysicalLocation.ArtifactLocation--><a href="PhysicalLocation.ArtifactLocation.html" target="_top" title="PhysicalLocation.ArtifactLocation.html" xlink:actuate="onRequest" xlink:href="PhysicalLocation.ArtifactLocation.html" xlink:show="new" xlink:title="PhysicalLocation.ArtifactLocation.html" xlink:type="simple"><rect fill="#FEFECE" filter="url(#f1clhxw8ow3x58)" height="37.9375" id="de.fraunhofer.aisec.cpg.sarif.PhysicalLocation.ArtifactLocation" style="stroke: #A80036; stroke-width: 1.5;" width="254" x="6" y="178"/><ellipse cx="21" cy="196.9688" fill="#ADD1B2" rx="11" ry="11" style="stroke: #A80036; stroke-width: 1.0;"/><path d="M23.9688,202.6094 Q23.3906,202.9063 22.75,203.0469 Q22.1094,203.2031 21.4063,203.2031 Q18.9063,203.2031 17.5781,201.5625 Q16.2656,199.9063 16.2656,196.7813 Q16.2656,193.6563 17.5781,192 Q18.9063,190.3438 21.4063,190.3438 Q22.1094,190.3438 22.75,190.5 Q23.4063,190.6563 23.9688,190.9531 L23.9688,193.6719 Q23.3438,193.0938 22.75,192.8281 Q22.1563,192.5469 21.5313,192.5469 Q20.1875,192.5469 19.5,193.625 Q18.8125,194.6875 18.8125,196.7813 Q18.8125,198.875 19.5,199.9531 Q20.1875,201.0156 21.5313,201.0156 Q22.1563,201.0156 22.75,200.75 Q23.3438,200.4688 23.9688,199.8906 L23.9688,202.6094 Z "/><text fill="#000000" font-family="sans-serif" font-size="14" lengthAdjust="spacingAndGlyphs" textLength="222" x="35" y="195.9951">PhysicalLocation.ArtifactLocation</text><text fill="#000000" font-family="sans-serif" font-size="10" lengthAdjust="spacingAndGlyphs" textLength="138" x="77" y="208.5791">de.fraunhofer.aisec.cpg.sarif</text></a><!--MD5=[99fe9d4582f4076fa4dc20c0d9df8139]
reverse link de.fraunhofer.aisec.cpg.sarif.PhysicalLocation to de.fraunhofer.aisec.cpg.sarif.PhysicalLocation.ArtifactLocation--><path d="M133,133.25 C133,149.83 133,166.14 133,177.97 " fill="none" id="de.fraunhofer.aisec.cpg.sarif.PhysicalLocation&lt;-de.fraunhofer.aisec.cpg.sarif.PhysicalLocation.ArtifactLocation" style="stroke: #A80036; stroke-width: 1.0;"/><ellipse cx="133" cy="126.07" fill="#FFFFFF" rx="8" ry="8" style="stroke: #A80036; stroke-width: 1.0;"/><line style="stroke: #A80036; stroke-width: 1.0;" x1="133" x2="133" y1="134.07" y2="118.07"/><line style="stroke: #A80036; stroke-width: 1.0;" x1="125" x2="141" y1="126.07" y2="126.07"/><text fill="#888888" font-family="sans-serif" font-size="10" lengthAdjust="spacingAndGlyphs" textLength="186" x="46" y="235.2822">UMLDoclet 2.0.9, PlantUML 1.2020.08</text><!--MD5=[fa3b880dd4a239456f2d0548abeaaea2]
@startuml
    set namespaceSeparator none
    hide empty fields
    hide empty methods

    class "<size:14>PhysicalLocation\n<size:10>de.fraunhofer.aisec.cpg.sarif" as de.fraunhofer.aisec.cpg.sarif.PhysicalLocation [[PhysicalLocation.html]] {
        +PhysicalLocation(URI, Region)
        {static} +locationLink(PhysicalLocation): String
        +setRegion(Region): void
        +getRegion(): Region
        +getArtifactLocation(): ArtifactLocation
    }
    class "<size:14>PhysicalLocation.ArtifactLocation\n<size:10>de.fraunhofer.aisec.cpg.sarif" as de.fraunhofer.aisec.cpg.sarif.PhysicalLocation.ArtifactLocation [[PhysicalLocation.ArtifactLocation.html]]

    de.fraunhofer.aisec.cpg.sarif.PhysicalLocation +- - de.fraunhofer.aisec.cpg.sarif.PhysicalLocation.ArtifactLocation

    center footer UMLDoclet 2.0.9, PlantUML 1.2020.08
@enduml

PlantUML version 1.2020.08(Sun Apr 26 16:08:22 CEST 2020)
(APACHE source distribution)
Java Runtime: OpenJDK Runtime Environment
JVM: OpenJDK 64-Bit Server VM
Java Version: 12.0.2+9-Ubuntu-118.04
Operating System: Linux
Default Encoding: UTF-8
Language: en
Country: US
--></g></svg>