<?xml version="1.0" encoding="UTF-8" standalone="no"?><svg xmlns="http://www.w3.org/2000/svg" xmlns:xlink="http://www.w3.org/1999/xlink" contentScriptType="application/ecmascript" contentStyleType="text/css" height="256px" preserveAspectRatio="none" style="width:555px;height:256px;" version="1.1" viewBox="0 0 555 256" width="555px" zoomAndPan="magnify"><defs><filter height="300%" id="f1jsw9dr8jzn1j" width="300%" x="-1" y="-1"><feGaussianBlur result="blurOut" stdDeviation="2.0"/><feColorMatrix in="blurOut" result="blurOut2" type="matrix" values="0 0 0 0 0 0 0 0 0 0 0 0 0 0 0 0 0 0 .4 0"/><feOffset dx="4.0" dy="4.0" in="blurOut2" result="blurOut3"/><feBlend in="SourceGraphic" in2="blurOut3" mode="normal"/></filter></defs><g><!--MD5=[cdeb694742bb89edc90805fd603e9512]
class de.fraunhofer.aisec.cpg.passes.scopes.BlockScope--><a href="BlockScope.html" target="_top" title="BlockScope.html" xlink:actuate="onRequest" xlink:href="BlockScope.html" xlink:show="new" xlink:title="BlockScope.html" xlink:type="simple"><rect fill="#FEFECE" filter="url(#f1jsw9dr8jzn1j)" height="84.3516" id="de.fraunhofer.aisec.cpg.passes.scopes.BlockScope" style="stroke: #A80036; stroke-width: 1.5;" width="289" x="113.5" y="140"/><ellipse cx="160.75" cy="158.9688" fill="#ADD1B2" rx="11" ry="11" style="stroke: #A80036; stroke-width: 1.0;"/><path d="M163.7188,164.6094 Q163.1406,164.9063 162.5,165.0469 Q161.8594,165.2031 161.1563,165.2031 Q158.6563,165.2031 157.3281,163.5625 Q156.0156,161.9063 156.0156,158.7813 Q156.0156,155.6563 157.3281,154 Q158.6563,152.3438 161.1563,152.3438 Q161.8594,152.3438 162.5,152.5 Q163.1563,152.6563 163.7188,152.9531 L163.7188,155.6719 Q163.0938,155.0938 162.5,154.8281 Q161.9063,154.5469 161.2813,154.5469 Q159.9375,154.5469 159.25,155.625 Q158.5625,156.6875 158.5625,158.7813 Q158.5625,160.875 159.25,161.9531 Q159.9375,163.0156 161.2813,163.0156 Q161.9063,163.0156 162.5,162.75 Q163.0938,162.4688 163.7188,161.8906 L163.7188,164.6094 Z "/><text fill="#000000" font-family="sans-serif" font-size="14" lengthAdjust="spacingAndGlyphs" textLength="82" x="233.25" y="157.9951">BlockScope</text><text fill="#000000" font-family="sans-serif" font-size="10" lengthAdjust="spacingAndGlyphs" textLength="186" x="181.25" y="170.5791">de.fraunhofer.aisec.cpg.passes.scopes</text><line style="stroke: #A80036; stroke-width: 1.5;" x1="114.5" x2="401.5" y1="177.9375" y2="177.9375"/><ellipse cx="124.5" cy="188.9375" fill="#84BE84" rx="3" ry="3" style="stroke: #038048; stroke-width: 1.0;"/><text fill="#000000" font-family="sans-serif" font-size="11" lengthAdjust="spacingAndGlyphs" textLength="193" x="133.5" y="192.1479">BlockScope(CompoundStatement)</text><ellipse cx="124.5" cy="201.7422" fill="#84BE84" rx="3" ry="3" style="stroke: #038048; stroke-width: 1.0;"/><text fill="#000000" font-family="sans-serif" font-size="11" lengthAdjust="spacingAndGlyphs" textLength="244" x="133.5" y="204.9526">addBreakStatement(BreakStatement): void</text><ellipse cx="124.5" cy="214.5469" fill="#84BE84" rx="3" ry="3" style="stroke: #038048; stroke-width: 1.0;"/><text fill="#000000" font-family="sans-serif" font-size="11" lengthAdjust="spacingAndGlyphs" textLength="263" x="133.5" y="217.7573">getBreakStatements(): List&lt;BreakStatement&gt;</text></a><!--MD5=[e7d517a79af701e4c43d858dae22cf2b]
class de.fraunhofer.aisec.cpg.passes.scopes.DeclarationScope--><a href="DeclarationScope.html" target="_top" title="DeclarationScope.html" xlink:actuate="onRequest" xlink:href="DeclarationScope.html" xlink:show="new" xlink:title="DeclarationScope.html" xlink:type="simple"><rect fill="#FEFECE" filter="url(#f1jsw9dr8jzn1j)" height="37.9375" id="de.fraunhofer.aisec.cpg.passes.scopes.DeclarationScope" style="stroke: #A80036; stroke-width: 1.5;" width="218" x="6" y="25"/><ellipse cx="21" cy="43.9688" fill="#ADD1B2" rx="11" ry="11" style="stroke: #A80036; stroke-width: 1.0;"/><path d="M23.9688,49.6094 Q23.3906,49.9063 22.75,50.0469 Q22.1094,50.2031 21.4063,50.2031 Q18.9063,50.2031 17.5781,48.5625 Q16.2656,46.9063 16.2656,43.7813 Q16.2656,40.6563 17.5781,39 Q18.9063,37.3438 21.4063,37.3438 Q22.1094,37.3438 22.75,37.5 Q23.4063,37.6563 23.9688,37.9531 L23.9688,40.6719 Q23.3438,40.0938 22.75,39.8281 Q22.1563,39.5469 21.5313,39.5469 Q20.1875,39.5469 19.5,40.625 Q18.8125,41.6875 18.8125,43.7813 Q18.8125,45.875 19.5,46.9531 Q20.1875,48.0156 21.5313,48.0156 Q22.1563,48.0156 22.75,47.75 Q23.3438,47.4688 23.9688,46.8906 L23.9688,49.6094 Z "/><text fill="#000000" font-family="sans-serif" font-size="14" lengthAdjust="spacingAndGlyphs" textLength="122" x="67" y="42.9951">DeclarationScope</text><text fill="#000000" font-family="sans-serif" font-size="10" lengthAdjust="spacingAndGlyphs" textLength="186" x="35" y="55.5791">de.fraunhofer.aisec.cpg.passes.scopes</text></a><!--MD5=[d4051ff479a457ade008cced58f9d94e]
class de.fraunhofer.aisec.cpg.passes.scopes.IBreakable--><a href="IBreakable.html" target="_top" title="IBreakable.html" xlink:actuate="onRequest" xlink:href="IBreakable.html" xlink:show="new" xlink:title="IBreakable.html" xlink:type="simple"><rect fill="#FEFECE" filter="url(#f1jsw9dr8jzn1j)" height="71.5469" id="de.fraunhofer.aisec.cpg.passes.scopes.IBreakable" style="stroke: #A80036; stroke-width: 1.5;" width="285" x="259.5" y="8"/><ellipse cx="302.85" cy="26.9688" fill="#B4A7E5" rx="11" ry="11" style="stroke: #A80036; stroke-width: 1.0;"/><path d="M298.7719,22.7344 L298.7719,20.5781 L306.1625,20.5781 L306.1625,22.7344 L303.6938,22.7344 L303.6938,30.8125 L306.1625,30.8125 L306.1625,32.9688 L298.7719,32.9688 L298.7719,30.8125 L301.2406,30.8125 L301.2406,22.7344 L298.7719,22.7344 Z "/><text fill="#000000" font-family="sans-serif" font-size="14" font-style="italic" lengthAdjust="spacingAndGlyphs" textLength="73" x="381.65" y="25.9951">IBreakable</text><text fill="#000000" font-family="sans-serif" font-size="10" font-style="italic" lengthAdjust="spacingAndGlyphs" textLength="190" x="323.15" y="38.5791">de.fraunhofer.aisec.cpg.passes.scopes</text><line style="stroke: #A80036; stroke-width: 1.5;" x1="260.5" x2="543.5" y1="45.9375" y2="45.9375"/><ellipse cx="270.5" cy="56.9375" fill="#84BE84" rx="3" ry="3" style="stroke: #038048; stroke-width: 1.0;"/><text fill="#000000" font-family="sans-serif" font-size="11" font-style="italic" lengthAdjust="spacingAndGlyphs" textLength="243" x="279.5" y="60.1479">addBreakStatement(BreakStatement): void</text><ellipse cx="270.5" cy="69.7422" fill="#84BE84" rx="3" ry="3" style="stroke: #038048; stroke-width: 1.0;"/><text fill="#000000" font-family="sans-serif" font-size="11" font-style="italic" lengthAdjust="spacingAndGlyphs" textLength="259" x="279.5" y="72.9526">getBreakStatements(): List&lt;BreakStatement&gt;</text></a><!--MD5=[77e5a5fcbfd3a8635305c8e583f80681]
reverse link de.fraunhofer.aisec.cpg.passes.scopes.DeclarationScope to de.fraunhofer.aisec.cpg.passes.scopes.BlockScope--><path d="M148.5,76.86 C168.29,95.68 193.55,119.71 214.82,139.94 " fill="none" id="de.fraunhofer.aisec.cpg.passes.scopes.DeclarationScope&lt;-de.fraunhofer.aisec.cpg.passes.scopes.BlockScope" style="stroke: #A80036; stroke-width: 1.0;"/><polygon fill="none" points="143.66,81.92,133.99,63.06,153.31,71.77,143.66,81.92" style="stroke: #A80036; stroke-width: 1.0;"/><!--MD5=[ca9fb729bb74a77a1b954f3fde9a2205]
reverse link de.fraunhofer.aisec.cpg.passes.scopes.IBreakable to de.fraunhofer.aisec.cpg.passes.scopes.BlockScope--><path d="M350.2,93.92 C334.28,108.96 316.92,125.35 301.61,139.81 " fill="none" id="de.fraunhofer.aisec.cpg.passes.scopes.IBreakable&lt;-de.fraunhofer.aisec.cpg.passes.scopes.BlockScope" style="stroke: #A80036; stroke-width: 1.0; stroke-dasharray: 7.0,7.0;"/><polygon fill="none" points="345.57,88.67,364.92,80.02,355.18,98.84,345.57,88.67" style="stroke: #A80036; stroke-width: 1.0;"/><text fill="#888888" font-family="sans-serif" font-size="10" lengthAdjust="spacingAndGlyphs" textLength="186" x="188.5" y="243.2822">UMLDoclet 2.0.9, PlantUML 1.2020.08</text><!--MD5=[9c519b95f2b8055375f6c0097113137b]
@startuml
    set namespaceSeparator none
    hide empty fields
    hide empty methods

    class "<size:14>BlockScope\n<size:10>de.fraunhofer.aisec.cpg.passes.scopes" as de.fraunhofer.aisec.cpg.passes.scopes.BlockScope [[BlockScope.html]] {
        +BlockScope(CompoundStatement)
        +addBreakStatement(BreakStatement): void
        +getBreakStatements(): List<BreakStatement>
    }

    class "<size:14>DeclarationScope\n<size:10>de.fraunhofer.aisec.cpg.passes.scopes" as de.fraunhofer.aisec.cpg.passes.scopes.DeclarationScope [[DeclarationScope.html]]
    interface "<size:14>IBreakable\n<size:10>de.fraunhofer.aisec.cpg.passes.scopes" as de.fraunhofer.aisec.cpg.passes.scopes.IBreakable [[IBreakable.html]] {
        {abstract} +addBreakStatement(BreakStatement): void
        {abstract} +getBreakStatements(): List<BreakStatement>
    }

    de.fraunhofer.aisec.cpg.passes.scopes.DeclarationScope <|- - de.fraunhofer.aisec.cpg.passes.scopes.BlockScope
    de.fraunhofer.aisec.cpg.passes.scopes.IBreakable <|.. de.fraunhofer.aisec.cpg.passes.scopes.BlockScope

    center footer UMLDoclet 2.0.9, PlantUML 1.2020.08
@enduml

PlantUML version 1.2020.08(Sun Apr 26 16:08:22 CEST 2020)
(APACHE source distribution)
Java Runtime: OpenJDK Runtime Environment
JVM: OpenJDK 64-Bit Server VM
Java Version: 12.0.2+9-Ubuntu-118.04
Operating System: Linux
Default Encoding: UTF-8
Language: en
Country: US
--></g></svg>