<?xml version="1.0" encoding="UTF-8" standalone="no"?><svg xmlns="http://www.w3.org/2000/svg" xmlns:xlink="http://www.w3.org/1999/xlink" contentScriptType="application/ecmascript" contentStyleType="text/css" height="274px" preserveAspectRatio="none" style="width:335px;height:274px;" version="1.1" viewBox="0 0 335 274" width="335px" zoomAndPan="magnify"><defs><filter height="300%" id="f1vksxzjhv98fa" width="300%" x="-1" y="-1"><feGaussianBlur result="blurOut" stdDeviation="2.0"/><feColorMatrix in="blurOut" result="blurOut2" type="matrix" values="0 0 0 0 0 0 0 0 0 0 0 0 0 0 0 0 0 0 .4 0"/><feOffset dx="4.0" dy="4.0" in="blurOut2" result="blurOut3"/><feBlend in="SourceGraphic" in2="blurOut3" mode="normal"/></filter></defs><g><!--MD5=[e7d517a79af701e4c43d858dae22cf2b]
class de.fraunhofer.aisec.cpg.passes.scopes.DeclarationScope--><a href="DeclarationScope.html" target="_top" title="DeclarationScope.html" xlink:actuate="onRequest" xlink:href="DeclarationScope.html" xlink:show="new" xlink:title="DeclarationScope.html" xlink:type="simple"><rect fill="#FEFECE" filter="url(#f1vksxzjhv98fa)" height="135.5703" id="de.fraunhofer.aisec.cpg.passes.scopes.DeclarationScope" style="stroke: #A80036; stroke-width: 1.5;" width="318" x="6" y="106"/><ellipse cx="67.75" cy="124.9688" fill="#ADD1B2" rx="11" ry="11" style="stroke: #A80036; stroke-width: 1.0;"/><path d="M70.7188,130.6094 Q70.1406,130.9063 69.5,131.0469 Q68.8594,131.2031 68.1563,131.2031 Q65.6563,131.2031 64.3281,129.5625 Q63.0156,127.9063 63.0156,124.7813 Q63.0156,121.6563 64.3281,120 Q65.6563,118.3438 68.1563,118.3438 Q68.8594,118.3438 69.5,118.5 Q70.1563,118.6563 70.7188,118.9531 L70.7188,121.6719 Q70.0938,121.0938 69.5,120.8281 Q68.9063,120.5469 68.2813,120.5469 Q66.9375,120.5469 66.25,121.625 Q65.5625,122.6875 65.5625,124.7813 Q65.5625,126.875 66.25,127.9531 Q66.9375,129.0156 68.2813,129.0156 Q68.9063,129.0156 69.5,128.75 Q70.0938,128.4688 70.7188,127.8906 L70.7188,130.6094 Z "/><text fill="#000000" font-family="sans-serif" font-size="14" lengthAdjust="spacingAndGlyphs" textLength="122" x="120.25" y="123.9951">DeclarationScope</text><text fill="#000000" font-family="sans-serif" font-size="10" lengthAdjust="spacingAndGlyphs" textLength="186" x="88.25" y="136.5791">de.fraunhofer.aisec.cpg.passes.scopes</text><line style="stroke: #A80036; stroke-width: 1.5;" x1="7" x2="323" y1="143.9375" y2="143.9375"/><ellipse cx="17" cy="154.9375" fill="#84BE84" rx="3" ry="3" style="stroke: #038048; stroke-width: 1.0;"/><text fill="#000000" font-family="sans-serif" font-size="11" lengthAdjust="spacingAndGlyphs" textLength="136" x="26" y="158.1479">DeclarationScope(Node)</text><ellipse cx="17" cy="167.7422" fill="#84BE84" rx="3" ry="3" style="stroke: #038048; stroke-width: 1.0;"/><text fill="#000000" font-family="sans-serif" font-size="11" lengthAdjust="spacingAndGlyphs" textLength="269" x="26" y="170.9526">getValueDeclarations(): List&lt;ValueDeclaration&gt;</text><ellipse cx="17" cy="180.5469" fill="#84BE84" rx="3" ry="3" style="stroke: #038048; stroke-width: 1.0;"/><text fill="#000000" font-family="sans-serif" font-size="11" lengthAdjust="spacingAndGlyphs" textLength="292" x="26" y="183.7573">setValueDeclarations(List&lt;ValueDeclaration&gt;): void</text><ellipse cx="17" cy="193.3516" fill="#84BE84" rx="3" ry="3" style="stroke: #038048; stroke-width: 1.0;"/><text fill="#000000" font-family="sans-serif" font-size="11" lengthAdjust="spacingAndGlyphs" textLength="250" x="26" y="196.562">addValueDeclaration(ValueDeclaration): void</text><ellipse cx="17" cy="206.1563" fill="#84BE84" rx="3" ry="3" style="stroke: #038048; stroke-width: 1.0;"/><text fill="#000000" font-family="sans-serif" font-size="11" lengthAdjust="spacingAndGlyphs" textLength="233" x="26" y="209.3667">getTypedefs(): List&lt;TypedefDeclaration&gt;</text><ellipse cx="17" cy="218.9609" fill="#84BE84" rx="3" ry="3" style="stroke: #038048; stroke-width: 1.0;"/><text fill="#000000" font-family="sans-serif" font-size="11" lengthAdjust="spacingAndGlyphs" textLength="256" x="26" y="222.1714">setTypedefs(List&lt;TypedefDeclaration&gt;): void</text><ellipse cx="17" cy="231.7656" fill="#84BE84" rx="3" ry="3" style="stroke: #038048; stroke-width: 1.0;"/><text fill="#000000" font-family="sans-serif" font-size="11" lengthAdjust="spacingAndGlyphs" textLength="214" x="26" y="234.9761">addTypedef(TypedefDeclaration): void</text></a><!--MD5=[a4b4f6cfb8abbeeb190c9383e1ddf78a]
class de.fraunhofer.aisec.cpg.passes.scopes.Scope--><a href="Scope.html" target="_top" title="Scope.html" xlink:actuate="onRequest" xlink:href="Scope.html" xlink:show="new" xlink:title="Scope.html" xlink:type="simple"><rect fill="#FEFECE" filter="url(#f1vksxzjhv98fa)" height="37.9375" id="de.fraunhofer.aisec.cpg.passes.scopes.Scope" style="stroke: #A80036; stroke-width: 1.5;" width="222" x="54" y="8"/><ellipse cx="69" cy="26.9688" fill="#A9DCDF" rx="11" ry="11" style="stroke: #A80036; stroke-width: 1.0;"/><path d="M69.1094,22.3125 L67.9531,27.3906 L70.2813,27.3906 L69.1094,22.3125 Z M67.625,20.0781 L70.6094,20.0781 L73.9688,32.4688 L71.5156,32.4688 L70.75,29.4063 L67.4688,29.4063 L66.7188,32.4688 L64.2813,32.4688 L67.625,20.0781 Z "/><text fill="#000000" font-family="sans-serif" font-size="14" font-style="italic" lengthAdjust="spacingAndGlyphs" textLength="44" x="156" y="25.9951">Scope</text><text fill="#000000" font-family="sans-serif" font-size="10" font-style="italic" lengthAdjust="spacingAndGlyphs" textLength="190" x="83" y="38.5791">de.fraunhofer.aisec.cpg.passes.scopes</text></a><!--MD5=[cde9f40da2dc168cb19de05100bb329d]
reverse link de.fraunhofer.aisec.cpg.passes.scopes.Scope to de.fraunhofer.aisec.cpg.passes.scopes.DeclarationScope--><path d="M165,66.35 C165,78.53 165,92.37 165,105.96 " fill="none" id="de.fraunhofer.aisec.cpg.passes.scopes.Scope&lt;-de.fraunhofer.aisec.cpg.passes.scopes.DeclarationScope" style="stroke: #A80036; stroke-width: 1.0;"/><polygon fill="none" points="158,66.07,165,46.07,172,66.07,158,66.07" style="stroke: #A80036; stroke-width: 1.0;"/><text fill="#888888" font-family="sans-serif" font-size="10" lengthAdjust="spacingAndGlyphs" textLength="186" x="78" y="261.2822">UMLDoclet 2.0.9, PlantUML 1.2020.08</text><!--MD5=[0b6e3e3898417bd47636c25245db9db9]
@startuml
    set namespaceSeparator none
    hide empty fields
    hide empty methods

    class "<size:14>DeclarationScope\n<size:10>de.fraunhofer.aisec.cpg.passes.scopes" as de.fraunhofer.aisec.cpg.passes.scopes.DeclarationScope [[DeclarationScope.html]] {
        +DeclarationScope(Node)
        +getValueDeclarations(): List<ValueDeclaration>
        +setValueDeclarations(List<ValueDeclaration>): void
        +addValueDeclaration(ValueDeclaration): void
        +getTypedefs(): List<TypedefDeclaration>
        +setTypedefs(List<TypedefDeclaration>): void
        +addTypedef(TypedefDeclaration): void
    }

    abstract class "<size:14>Scope\n<size:10>de.fraunhofer.aisec.cpg.passes.scopes" as de.fraunhofer.aisec.cpg.passes.scopes.Scope [[Scope.html]]

    de.fraunhofer.aisec.cpg.passes.scopes.Scope <|- - de.fraunhofer.aisec.cpg.passes.scopes.DeclarationScope

    center footer UMLDoclet 2.0.9, PlantUML 1.2020.08
@enduml

PlantUML version 1.2020.08(Sun Apr 26 16:08:22 CEST 2020)
(APACHE source distribution)
Java Runtime: OpenJDK Runtime Environment
JVM: OpenJDK 64-Bit Server VM
Java Version: 12.0.2+9-Ubuntu-118.04
Operating System: Linux
Default Encoding: UTF-8
Language: en
Country: US
--></g></svg>