<?xml version="1.0" encoding="UTF-8" standalone="no"?><svg xmlns="http://www.w3.org/2000/svg" xmlns:xlink="http://www.w3.org/1999/xlink" contentScriptType="application/ecmascript" contentStyleType="text/css" height="222px" preserveAspectRatio="none" style="width:340px;height:222px;" version="1.1" viewBox="0 0 340 222" width="340px" zoomAndPan="magnify"><defs><filter height="300%" id="f1gpvaz1dbiuom" width="300%" x="-1" y="-1"><feGaussianBlur result="blurOut" stdDeviation="2.0"/><feColorMatrix in="blurOut" result="blurOut2" type="matrix" values="0 0 0 0 0 0 0 0 0 0 0 0 0 0 0 0 0 0 .4 0"/><feOffset dx="4.0" dy="4.0" in="blurOut2" result="blurOut3"/><feBlend in="SourceGraphic" in2="blurOut3" mode="normal"/></filter></defs><g><!--MD5=[5dc33d96a88256448bd2cd140ed3f3ad]
class de.fraunhofer.aisec.cpg.passes.scopes.FunctionScope--><a href="FunctionScope.html" target="_top" title="FunctionScope.html" xlink:actuate="onRequest" xlink:href="FunctionScope.html" xlink:show="new" xlink:title="FunctionScope.html" xlink:type="simple"><rect fill="#FEFECE" filter="url(#f1gpvaz1dbiuom)" height="84.3516" id="de.fraunhofer.aisec.cpg.passes.scopes.FunctionScope" style="stroke: #A80036; stroke-width: 1.5;" width="323" x="6" y="106"/><ellipse cx="70.25" cy="124.9688" fill="#ADD1B2" rx="11" ry="11" style="stroke: #A80036; stroke-width: 1.0;"/><path d="M73.2188,130.6094 Q72.6406,130.9063 72,131.0469 Q71.3594,131.2031 70.6563,131.2031 Q68.1563,131.2031 66.8281,129.5625 Q65.5156,127.9063 65.5156,124.7813 Q65.5156,121.6563 66.8281,120 Q68.1563,118.3438 70.6563,118.3438 Q71.3594,118.3438 72,118.5 Q72.6563,118.6563 73.2188,118.9531 L73.2188,121.6719 Q72.5938,121.0938 72,120.8281 Q71.4063,120.5469 70.7813,120.5469 Q69.4375,120.5469 68.75,121.625 Q68.0625,122.6875 68.0625,124.7813 Q68.0625,126.875 68.75,127.9531 Q69.4375,129.0156 70.7813,129.0156 Q71.4063,129.0156 72,128.75 Q72.5938,128.4688 73.2188,127.8906 L73.2188,130.6094 Z "/><text fill="#000000" font-family="sans-serif" font-size="14" lengthAdjust="spacingAndGlyphs" textLength="104" x="131.75" y="123.9951">FunctionScope</text><text fill="#000000" font-family="sans-serif" font-size="10" lengthAdjust="spacingAndGlyphs" textLength="186" x="90.75" y="136.5791">de.fraunhofer.aisec.cpg.passes.scopes</text><line style="stroke: #A80036; stroke-width: 1.5;" x1="7" x2="328" y1="143.9375" y2="143.9375"/><ellipse cx="17" cy="154.9375" fill="#84BE84" rx="3" ry="3" style="stroke: #038048; stroke-width: 1.0;"/><text fill="#000000" font-family="sans-serif" font-size="11" lengthAdjust="spacingAndGlyphs" textLength="201" x="26" y="158.1479">FunctionScope(FunctionDeclaration)</text><ellipse cx="17" cy="167.7422" fill="#84BE84" rx="3" ry="3" style="stroke: #038048; stroke-width: 1.0;"/><text fill="#000000" font-family="sans-serif" font-size="11" lengthAdjust="spacingAndGlyphs" textLength="274" x="26" y="170.9526">getCatchesOrRelays(): Map&lt;Type, List&lt;Node&gt;&gt;</text><ellipse cx="17" cy="180.5469" fill="#84BE84" rx="3" ry="3" style="stroke: #038048; stroke-width: 1.0;"/><text fill="#000000" font-family="sans-serif" font-size="11" lengthAdjust="spacingAndGlyphs" textLength="297" x="26" y="183.7573">setCatchesOrRelays(Map&lt;Type, List&lt;Node&gt;&gt;): void</text></a><!--MD5=[e7d517a79af701e4c43d858dae22cf2b]
class de.fraunhofer.aisec.cpg.passes.scopes.DeclarationScope--><a href="DeclarationScope.html" target="_top" title="DeclarationScope.html" xlink:actuate="onRequest" xlink:href="DeclarationScope.html" xlink:show="new" xlink:title="DeclarationScope.html" xlink:type="simple"><rect fill="#FEFECE" filter="url(#f1gpvaz1dbiuom)" height="37.9375" id="de.fraunhofer.aisec.cpg.passes.scopes.DeclarationScope" style="stroke: #A80036; stroke-width: 1.5;" width="218" x="58.5" y="8"/><ellipse cx="73.5" cy="26.9688" fill="#ADD1B2" rx="11" ry="11" style="stroke: #A80036; stroke-width: 1.0;"/><path d="M76.4688,32.6094 Q75.8906,32.9063 75.25,33.0469 Q74.6094,33.2031 73.9063,33.2031 Q71.4063,33.2031 70.0781,31.5625 Q68.7656,29.9063 68.7656,26.7813 Q68.7656,23.6563 70.0781,22 Q71.4063,20.3438 73.9063,20.3438 Q74.6094,20.3438 75.25,20.5 Q75.9063,20.6563 76.4688,20.9531 L76.4688,23.6719 Q75.8438,23.0938 75.25,22.8281 Q74.6563,22.5469 74.0313,22.5469 Q72.6875,22.5469 72,23.625 Q71.3125,24.6875 71.3125,26.7813 Q71.3125,28.875 72,29.9531 Q72.6875,31.0156 74.0313,31.0156 Q74.6563,31.0156 75.25,30.75 Q75.8438,30.4688 76.4688,29.8906 L76.4688,32.6094 Z "/><text fill="#000000" font-family="sans-serif" font-size="14" lengthAdjust="spacingAndGlyphs" textLength="122" x="119.5" y="25.9951">DeclarationScope</text><text fill="#000000" font-family="sans-serif" font-size="10" lengthAdjust="spacingAndGlyphs" textLength="186" x="87.5" y="38.5791">de.fraunhofer.aisec.cpg.passes.scopes</text></a><!--MD5=[8fc1fc2060feda6760dff4d99e9b6906]
reverse link de.fraunhofer.aisec.cpg.passes.scopes.DeclarationScope to de.fraunhofer.aisec.cpg.passes.scopes.FunctionScope--><path d="M167.5,66.54 C167.5,79.08 167.5,93.05 167.5,105.78 " fill="none" id="de.fraunhofer.aisec.cpg.passes.scopes.DeclarationScope&lt;-de.fraunhofer.aisec.cpg.passes.scopes.FunctionScope" style="stroke: #A80036; stroke-width: 1.0;"/><polygon fill="none" points="160.5,66.07,167.5,46.07,174.5,66.07,160.5,66.07" style="stroke: #A80036; stroke-width: 1.0;"/><text fill="#888888" font-family="sans-serif" font-size="10" lengthAdjust="spacingAndGlyphs" textLength="186" x="80.5" y="209.2822">UMLDoclet 2.0.9, PlantUML 1.2020.08</text><!--MD5=[6542110c5395a873080bda7b4f6b6ced]
@startuml
    set namespaceSeparator none
    hide empty fields
    hide empty methods

    class "<size:14>FunctionScope\n<size:10>de.fraunhofer.aisec.cpg.passes.scopes" as de.fraunhofer.aisec.cpg.passes.scopes.FunctionScope [[FunctionScope.html]] {
        +FunctionScope(FunctionDeclaration)
        +getCatchesOrRelays(): Map<Type, List<Node>>
        +setCatchesOrRelays(Map<Type, List<Node>>): void
    }

    class "<size:14>DeclarationScope\n<size:10>de.fraunhofer.aisec.cpg.passes.scopes" as de.fraunhofer.aisec.cpg.passes.scopes.DeclarationScope [[DeclarationScope.html]]

    de.fraunhofer.aisec.cpg.passes.scopes.DeclarationScope <|- - de.fraunhofer.aisec.cpg.passes.scopes.FunctionScope

    center footer UMLDoclet 2.0.9, PlantUML 1.2020.08
@enduml

PlantUML version 1.2020.08(Sun Apr 26 16:08:22 CEST 2020)
(APACHE source distribution)
Java Runtime: OpenJDK Runtime Environment
JVM: OpenJDK 64-Bit Server VM
Java Version: 12.0.2+9-Ubuntu-118.04
Operating System: Linux
Default Encoding: UTF-8
Language: en
Country: US
--></g></svg>