<?xml version="1.0" encoding="UTF-8" standalone="no"?><svg xmlns="http://www.w3.org/2000/svg" xmlns:xlink="http://www.w3.org/1999/xlink" contentScriptType="application/ecmascript" contentStyleType="text/css" height="176px" preserveAspectRatio="none" style="width:235px;height:176px;" version="1.1" viewBox="0 0 235 176" width="235px" zoomAndPan="magnify"><defs><filter height="300%" id="f1iiomareptdx2" width="300%" x="-1" y="-1"><feGaussianBlur result="blurOut" stdDeviation="2.0"/><feColorMatrix in="blurOut" result="blurOut2" type="matrix" values="0 0 0 0 0 0 0 0 0 0 0 0 0 0 0 0 0 0 .4 0"/><feOffset dx="4.0" dy="4.0" in="blurOut2" result="blurOut3"/><feBlend in="SourceGraphic" in2="blurOut3" mode="normal"/></filter></defs><g><!--MD5=[962ae8d3e051e78cc32c21776ec107e4]
class de.fraunhofer.aisec.cpg.passes.scopes.GlobalScope--><a href="GlobalScope.html" target="_top" title="GlobalScope.html" xlink:actuate="onRequest" xlink:href="GlobalScope.html" xlink:show="new" xlink:title="GlobalScope.html" xlink:type="simple"><rect fill="#FEFECE" filter="url(#f1iiomareptdx2)" height="37.9375" id="de.fraunhofer.aisec.cpg.passes.scopes.GlobalScope" style="stroke: #A80036; stroke-width: 1.5;" width="218" x="6" y="106"/><ellipse cx="21" cy="124.9688" fill="#ADD1B2" rx="11" ry="11" style="stroke: #A80036; stroke-width: 1.0;"/><path d="M23.9688,130.6094 Q23.3906,130.9063 22.75,131.0469 Q22.1094,131.2031 21.4063,131.2031 Q18.9063,131.2031 17.5781,129.5625 Q16.2656,127.9063 16.2656,124.7813 Q16.2656,121.6563 17.5781,120 Q18.9063,118.3438 21.4063,118.3438 Q22.1094,118.3438 22.75,118.5 Q23.4063,118.6563 23.9688,118.9531 L23.9688,121.6719 Q23.3438,121.0938 22.75,120.8281 Q22.1563,120.5469 21.5313,120.5469 Q20.1875,120.5469 19.5,121.625 Q18.8125,122.6875 18.8125,124.7813 Q18.8125,126.875 19.5,127.9531 Q20.1875,129.0156 21.5313,129.0156 Q22.1563,129.0156 22.75,128.75 Q23.3438,128.4688 23.9688,127.8906 L23.9688,130.6094 Z "/><text fill="#000000" font-family="sans-serif" font-size="14" lengthAdjust="spacingAndGlyphs" textLength="87" x="84.5" y="123.9951">GlobalScope</text><text fill="#000000" font-family="sans-serif" font-size="10" lengthAdjust="spacingAndGlyphs" textLength="186" x="35" y="136.5791">de.fraunhofer.aisec.cpg.passes.scopes</text></a><!--MD5=[e7d517a79af701e4c43d858dae22cf2b]
class de.fraunhofer.aisec.cpg.passes.scopes.DeclarationScope--><a href="DeclarationScope.html" target="_top" title="DeclarationScope.html" xlink:actuate="onRequest" xlink:href="DeclarationScope.html" xlink:show="new" xlink:title="DeclarationScope.html" xlink:type="simple"><rect fill="#FEFECE" filter="url(#f1iiomareptdx2)" height="37.9375" id="de.fraunhofer.aisec.cpg.passes.scopes.DeclarationScope" style="stroke: #A80036; stroke-width: 1.5;" width="218" x="6" y="8"/><ellipse cx="21" cy="26.9688" fill="#ADD1B2" rx="11" ry="11" style="stroke: #A80036; stroke-width: 1.0;"/><path d="M23.9688,32.6094 Q23.3906,32.9063 22.75,33.0469 Q22.1094,33.2031 21.4063,33.2031 Q18.9063,33.2031 17.5781,31.5625 Q16.2656,29.9063 16.2656,26.7813 Q16.2656,23.6563 17.5781,22 Q18.9063,20.3438 21.4063,20.3438 Q22.1094,20.3438 22.75,20.5 Q23.4063,20.6563 23.9688,20.9531 L23.9688,23.6719 Q23.3438,23.0938 22.75,22.8281 Q22.1563,22.5469 21.5313,22.5469 Q20.1875,22.5469 19.5,23.625 Q18.8125,24.6875 18.8125,26.7813 Q18.8125,28.875 19.5,29.9531 Q20.1875,31.0156 21.5313,31.0156 Q22.1563,31.0156 22.75,30.75 Q23.3438,30.4688 23.9688,29.8906 L23.9688,32.6094 Z "/><text fill="#000000" font-family="sans-serif" font-size="14" lengthAdjust="spacingAndGlyphs" textLength="122" x="67" y="25.9951">DeclarationScope</text><text fill="#000000" font-family="sans-serif" font-size="10" lengthAdjust="spacingAndGlyphs" textLength="186" x="35" y="38.5791">de.fraunhofer.aisec.cpg.passes.scopes</text></a><!--MD5=[d3fba0bd5599c22a9b9b1668d29fac17]
reverse link de.fraunhofer.aisec.cpg.passes.scopes.DeclarationScope to de.fraunhofer.aisec.cpg.passes.scopes.GlobalScope--><path d="M115,66.43 C115,79.98 115,94.59 115,105.7 " fill="none" id="de.fraunhofer.aisec.cpg.passes.scopes.DeclarationScope&lt;-de.fraunhofer.aisec.cpg.passes.scopes.GlobalScope" style="stroke: #A80036; stroke-width: 1.0;"/><polygon fill="none" points="108,66.06,115,46.06,122,66.06,108,66.06" style="stroke: #A80036; stroke-width: 1.0;"/><text fill="#888888" font-family="sans-serif" font-size="10" lengthAdjust="spacingAndGlyphs" textLength="186" x="28" y="163.2822">UMLDoclet 2.0.9, PlantUML 1.2020.08</text><!--MD5=[3f4ee174607c891ed4b81b75a09a405c]
@startuml
    set namespaceSeparator none
    hide empty fields
    hide empty methods

    class "<size:14>GlobalScope\n<size:10>de.fraunhofer.aisec.cpg.passes.scopes" as de.fraunhofer.aisec.cpg.passes.scopes.GlobalScope [[GlobalScope.html]]

    class "<size:14>DeclarationScope\n<size:10>de.fraunhofer.aisec.cpg.passes.scopes" as de.fraunhofer.aisec.cpg.passes.scopes.DeclarationScope [[DeclarationScope.html]]

    de.fraunhofer.aisec.cpg.passes.scopes.DeclarationScope <|- - de.fraunhofer.aisec.cpg.passes.scopes.GlobalScope

    center footer UMLDoclet 2.0.9, PlantUML 1.2020.08
@enduml

PlantUML version 1.2020.08(Sun Apr 26 16:08:22 CEST 2020)
(APACHE source distribution)
Java Runtime: OpenJDK Runtime Environment
JVM: OpenJDK 64-Bit Server VM
Java Version: 12.0.2+9-Ubuntu-118.04
Operating System: Linux
Default Encoding: UTF-8
Language: en
Country: US
--></g></svg>