<?xml version="1.0" encoding="UTF-8" standalone="no"?><svg xmlns="http://www.w3.org/2000/svg" xmlns:xlink="http://www.w3.org/1999/xlink" contentScriptType="application/ecmascript" contentStyleType="text/css" height="346px" preserveAspectRatio="none" style="width:909px;height:346px;" version="1.1" viewBox="0 0 909 346" width="909px" zoomAndPan="magnify"><defs><filter height="300%" id="f1f7rl0h2cb3k5" width="300%" x="-1" y="-1"><feGaussianBlur result="blurOut" stdDeviation="2.0"/><feColorMatrix in="blurOut" result="blurOut2" type="matrix" values="0 0 0 0 0 0 0 0 0 0 0 0 0 0 0 0 0 0 .4 0"/><feOffset dx="4.0" dy="4.0" in="blurOut2" result="blurOut3"/><feBlend in="SourceGraphic" in2="blurOut3" mode="normal"/></filter></defs><g><!--MD5=[d838e013838c1d25eb5695c0caf755b7]
class de.fraunhofer.aisec.cpg.passes.scopes.LoopScope--><a href="LoopScope.html" target="_top" title="LoopScope.html" xlink:actuate="onRequest" xlink:href="LoopScope.html" xlink:show="new" xlink:title="LoopScope.html" xlink:type="simple"><rect fill="#FEFECE" filter="url(#f1f7rl0h2cb3k5)" height="173.9844" id="de.fraunhofer.aisec.cpg.passes.scopes.LoopScope" style="stroke: #A80036; stroke-width: 1.5;" width="323" x="240.5" y="140"/><ellipse cx="304.75" cy="158.9688" fill="#ADD1B2" rx="11" ry="11" style="stroke: #A80036; stroke-width: 1.0;"/><path d="M307.7188,164.6094 Q307.1406,164.9063 306.5,165.0469 Q305.8594,165.2031 305.1563,165.2031 Q302.6563,165.2031 301.3281,163.5625 Q300.0156,161.9063 300.0156,158.7813 Q300.0156,155.6563 301.3281,154 Q302.6563,152.3438 305.1563,152.3438 Q305.8594,152.3438 306.5,152.5 Q307.1563,152.6563 307.7188,152.9531 L307.7188,155.6719 Q307.0938,155.0938 306.5,154.8281 Q305.9063,154.5469 305.2813,154.5469 Q303.9375,154.5469 303.25,155.625 Q302.5625,156.6875 302.5625,158.7813 Q302.5625,160.875 303.25,161.9531 Q303.9375,163.0156 305.2813,163.0156 Q305.9063,163.0156 306.5,162.75 Q307.0938,162.4688 307.7188,161.8906 L307.7188,164.6094 Z "/><text fill="#000000" font-family="sans-serif" font-size="14" lengthAdjust="spacingAndGlyphs" textLength="78" x="379.25" y="157.9951">LoopScope</text><text fill="#000000" font-family="sans-serif" font-size="10" lengthAdjust="spacingAndGlyphs" textLength="186" x="325.25" y="170.5791">de.fraunhofer.aisec.cpg.passes.scopes</text><line style="stroke: #A80036; stroke-width: 1.5;" x1="241.5" x2="562.5" y1="177.9375" y2="177.9375"/><ellipse cx="251.5" cy="188.9375" fill="#84BE84" rx="3" ry="3" style="stroke: #038048; stroke-width: 1.0;"/><text fill="#000000" font-family="sans-serif" font-size="11" lengthAdjust="spacingAndGlyphs" textLength="129" x="260.5" y="192.1479">LoopScope(Statement)</text><ellipse cx="251.5" cy="201.7422" fill="#84BE84" rx="3" ry="3" style="stroke: #038048; stroke-width: 1.0;"/><text fill="#000000" font-family="sans-serif" font-size="11" lengthAdjust="spacingAndGlyphs" textLength="136" x="260.5" y="204.9526">getStarts(): List&lt;Node&gt;</text><ellipse cx="251.5" cy="214.5469" fill="#84BE84" rx="3" ry="3" style="stroke: #038048; stroke-width: 1.0;"/><text fill="#000000" font-family="sans-serif" font-size="11" lengthAdjust="spacingAndGlyphs" textLength="159" x="260.5" y="217.7573">setStarts(List&lt;Node&gt;): void</text><ellipse cx="251.5" cy="227.3516" fill="#84BE84" rx="3" ry="3" style="stroke: #038048; stroke-width: 1.0;"/><text fill="#000000" font-family="sans-serif" font-size="11" lengthAdjust="spacingAndGlyphs" textLength="161" x="260.5" y="230.562">getConditions(): List&lt;Node&gt;</text><ellipse cx="251.5" cy="240.1563" fill="#84BE84" rx="3" ry="3" style="stroke: #038048; stroke-width: 1.0;"/><text fill="#000000" font-family="sans-serif" font-size="11" lengthAdjust="spacingAndGlyphs" textLength="184" x="260.5" y="243.3667">setConditions(List&lt;Node&gt;): void</text><ellipse cx="251.5" cy="252.9609" fill="#84BE84" rx="3" ry="3" style="stroke: #038048; stroke-width: 1.0;"/><text fill="#000000" font-family="sans-serif" font-size="11" lengthAdjust="spacingAndGlyphs" textLength="244" x="260.5" y="256.1714">addBreakStatement(BreakStatement): void</text><ellipse cx="251.5" cy="265.7656" fill="#84BE84" rx="3" ry="3" style="stroke: #038048; stroke-width: 1.0;"/><text fill="#000000" font-family="sans-serif" font-size="11" lengthAdjust="spacingAndGlyphs" textLength="278" x="260.5" y="268.9761">addContinueStatement(ContinueStatement): void</text><ellipse cx="251.5" cy="278.5703" fill="#84BE84" rx="3" ry="3" style="stroke: #038048; stroke-width: 1.0;"/><text fill="#000000" font-family="sans-serif" font-size="11" lengthAdjust="spacingAndGlyphs" textLength="263" x="260.5" y="281.7808">getBreakStatements(): List&lt;BreakStatement&gt;</text><ellipse cx="251.5" cy="291.375" fill="#84BE84" rx="3" ry="3" style="stroke: #038048; stroke-width: 1.0;"/><text fill="#000000" font-family="sans-serif" font-size="11" lengthAdjust="spacingAndGlyphs" textLength="297" x="260.5" y="294.5854">getContinueStatements(): List&lt;ContinueStatement&gt;</text><ellipse cx="251.5" cy="304.1797" fill="#84BE84" rx="3" ry="3" style="stroke: #038048; stroke-width: 1.0;"/><text fill="#000000" font-family="sans-serif" font-size="11" lengthAdjust="spacingAndGlyphs" textLength="117" x="260.5" y="307.3901">starts(): List&lt;Node&gt;</text></a><!--MD5=[e7d517a79af701e4c43d858dae22cf2b]
class de.fraunhofer.aisec.cpg.passes.scopes.DeclarationScope--><a href="DeclarationScope.html" target="_top" title="DeclarationScope.html" xlink:actuate="onRequest" xlink:href="DeclarationScope.html" xlink:show="new" xlink:title="DeclarationScope.html" xlink:type="simple"><rect fill="#FEFECE" filter="url(#f1f7rl0h2cb3k5)" height="37.9375" id="de.fraunhofer.aisec.cpg.passes.scopes.DeclarationScope" style="stroke: #A80036; stroke-width: 1.5;" width="218" x="6" y="25"/><ellipse cx="21" cy="43.9688" fill="#ADD1B2" rx="11" ry="11" style="stroke: #A80036; stroke-width: 1.0;"/><path d="M23.9688,49.6094 Q23.3906,49.9063 22.75,50.0469 Q22.1094,50.2031 21.4063,50.2031 Q18.9063,50.2031 17.5781,48.5625 Q16.2656,46.9063 16.2656,43.7813 Q16.2656,40.6563 17.5781,39 Q18.9063,37.3438 21.4063,37.3438 Q22.1094,37.3438 22.75,37.5 Q23.4063,37.6563 23.9688,37.9531 L23.9688,40.6719 Q23.3438,40.0938 22.75,39.8281 Q22.1563,39.5469 21.5313,39.5469 Q20.1875,39.5469 19.5,40.625 Q18.8125,41.6875 18.8125,43.7813 Q18.8125,45.875 19.5,46.9531 Q20.1875,48.0156 21.5313,48.0156 Q22.1563,48.0156 22.75,47.75 Q23.3438,47.4688 23.9688,46.8906 L23.9688,49.6094 Z "/><text fill="#000000" font-family="sans-serif" font-size="14" lengthAdjust="spacingAndGlyphs" textLength="122" x="67" y="42.9951">DeclarationScope</text><text fill="#000000" font-family="sans-serif" font-size="10" lengthAdjust="spacingAndGlyphs" textLength="186" x="35" y="55.5791">de.fraunhofer.aisec.cpg.passes.scopes</text></a><!--MD5=[d4051ff479a457ade008cced58f9d94e]
class de.fraunhofer.aisec.cpg.passes.scopes.IBreakable--><a href="IBreakable.html" target="_top" title="IBreakable.html" xlink:actuate="onRequest" xlink:href="IBreakable.html" xlink:show="new" xlink:title="IBreakable.html" xlink:type="simple"><rect fill="#FEFECE" filter="url(#f1f7rl0h2cb3k5)" height="71.5469" id="de.fraunhofer.aisec.cpg.passes.scopes.IBreakable" style="stroke: #A80036; stroke-width: 1.5;" width="285" x="259.5" y="8"/><ellipse cx="302.85" cy="26.9688" fill="#B4A7E5" rx="11" ry="11" style="stroke: #A80036; stroke-width: 1.0;"/><path d="M298.7719,22.7344 L298.7719,20.5781 L306.1625,20.5781 L306.1625,22.7344 L303.6938,22.7344 L303.6938,30.8125 L306.1625,30.8125 L306.1625,32.9688 L298.7719,32.9688 L298.7719,30.8125 L301.2406,30.8125 L301.2406,22.7344 L298.7719,22.7344 Z "/><text fill="#000000" font-family="sans-serif" font-size="14" font-style="italic" lengthAdjust="spacingAndGlyphs" textLength="73" x="381.65" y="25.9951">IBreakable</text><text fill="#000000" font-family="sans-serif" font-size="10" font-style="italic" lengthAdjust="spacingAndGlyphs" textLength="190" x="323.15" y="38.5791">de.fraunhofer.aisec.cpg.passes.scopes</text><line style="stroke: #A80036; stroke-width: 1.5;" x1="260.5" x2="543.5" y1="45.9375" y2="45.9375"/><ellipse cx="270.5" cy="56.9375" fill="#84BE84" rx="3" ry="3" style="stroke: #038048; stroke-width: 1.0;"/><text fill="#000000" font-family="sans-serif" font-size="11" font-style="italic" lengthAdjust="spacingAndGlyphs" textLength="243" x="279.5" y="60.1479">addBreakStatement(BreakStatement): void</text><ellipse cx="270.5" cy="69.7422" fill="#84BE84" rx="3" ry="3" style="stroke: #038048; stroke-width: 1.0;"/><text fill="#000000" font-family="sans-serif" font-size="11" font-style="italic" lengthAdjust="spacingAndGlyphs" textLength="259" x="279.5" y="72.9526">getBreakStatements(): List&lt;BreakStatement&gt;</text></a><!--MD5=[5162acff7f768b64080179bf91f88617]
class de.fraunhofer.aisec.cpg.passes.scopes.IContinuable--><a href="IContinuable.html" target="_top" title="IContinuable.html" xlink:actuate="onRequest" xlink:href="IContinuable.html" xlink:show="new" xlink:title="IContinuable.html" xlink:type="simple"><rect fill="#FEFECE" filter="url(#f1f7rl0h2cb3k5)" height="71.5469" id="de.fraunhofer.aisec.cpg.passes.scopes.IContinuable" style="stroke: #A80036; stroke-width: 1.5;" width="319" x="579.5" y="8"/><ellipse cx="639.75" cy="26.9688" fill="#B4A7E5" rx="11" ry="11" style="stroke: #A80036; stroke-width: 1.0;"/><path d="M635.6719,22.7344 L635.6719,20.5781 L643.0625,20.5781 L643.0625,22.7344 L640.5938,22.7344 L640.5938,30.8125 L643.0625,30.8125 L643.0625,32.9688 L635.6719,32.9688 L635.6719,30.8125 L638.1406,30.8125 L638.1406,22.7344 L635.6719,22.7344 Z "/><text fill="#000000" font-family="sans-serif" font-size="14" font-style="italic" lengthAdjust="spacingAndGlyphs" textLength="87" x="711.75" y="25.9951">IContinuable</text><text fill="#000000" font-family="sans-serif" font-size="10" font-style="italic" lengthAdjust="spacingAndGlyphs" textLength="190" x="660.25" y="38.5791">de.fraunhofer.aisec.cpg.passes.scopes</text><line style="stroke: #A80036; stroke-width: 1.5;" x1="580.5" x2="897.5" y1="45.9375" y2="45.9375"/><ellipse cx="590.5" cy="56.9375" fill="#84BE84" rx="3" ry="3" style="stroke: #038048; stroke-width: 1.0;"/><text fill="#000000" font-family="sans-serif" font-size="11" font-style="italic" lengthAdjust="spacingAndGlyphs" textLength="277" x="599.5" y="60.1479">addContinueStatement(ContinueStatement): void</text><ellipse cx="590.5" cy="69.7422" fill="#84BE84" rx="3" ry="3" style="stroke: #038048; stroke-width: 1.0;"/><text fill="#000000" font-family="sans-serif" font-size="11" font-style="italic" lengthAdjust="spacingAndGlyphs" textLength="293" x="599.5" y="72.9526">getContinueStatements(): List&lt;ContinueStatement&gt;</text></a><!--MD5=[f18f0c45c6d761eb969773bdbbcfc268]
reverse link de.fraunhofer.aisec.cpg.passes.scopes.DeclarationScope to de.fraunhofer.aisec.cpg.passes.scopes.LoopScope--><path d="M160.79,73.88 C189.32,91.87 227.65,116.05 265.36,139.82 " fill="none" id="de.fraunhofer.aisec.cpg.passes.scopes.DeclarationScope&lt;-de.fraunhofer.aisec.cpg.passes.scopes.LoopScope" style="stroke: #A80036; stroke-width: 1.0;"/><polygon fill="none" points="156.75,79.61,143.57,63.02,164.22,67.76,156.75,79.61" style="stroke: #A80036; stroke-width: 1.0;"/><!--MD5=[1ea19a1852c776684a5cbb66f2e12e80]
reverse link de.fraunhofer.aisec.cpg.passes.scopes.IBreakable to de.fraunhofer.aisec.cpg.passes.scopes.LoopScope--><path d="M402,100.63 C402,113.02 402,126.44 402,139.73 " fill="none" id="de.fraunhofer.aisec.cpg.passes.scopes.IBreakable&lt;-de.fraunhofer.aisec.cpg.passes.scopes.LoopScope" style="stroke: #A80036; stroke-width: 1.0; stroke-dasharray: 7.0,7.0;"/><polygon fill="none" points="395,100.33,402,80.33,409,100.33,395,100.33" style="stroke: #A80036; stroke-width: 1.0;"/><!--MD5=[fca5d68ca1dd8c05ba3c904636e7334e]
reverse link de.fraunhofer.aisec.cpg.passes.scopes.IContinuable to de.fraunhofer.aisec.cpg.passes.scopes.LoopScope--><path d="M655.66,89.76 C627.3,104.99 594.57,122.57 562.24,139.94 " fill="none" id="de.fraunhofer.aisec.cpg.passes.scopes.IContinuable&lt;-de.fraunhofer.aisec.cpg.passes.scopes.LoopScope" style="stroke: #A80036; stroke-width: 1.0; stroke-dasharray: 7.0,7.0;"/><polygon fill="none" points="652.69,83.41,673.62,80.11,659.32,95.74,652.69,83.41" style="stroke: #A80036; stroke-width: 1.0;"/><text fill="#888888" font-family="sans-serif" font-size="10" lengthAdjust="spacingAndGlyphs" textLength="186" x="365.5" y="333.2822">UMLDoclet 2.0.9, PlantUML 1.2020.08</text><!--MD5=[eee135d3b190939a24bb920819c947c4]
@startuml
    set namespaceSeparator none
    hide empty fields
    hide empty methods

    class "<size:14>LoopScope\n<size:10>de.fraunhofer.aisec.cpg.passes.scopes" as de.fraunhofer.aisec.cpg.passes.scopes.LoopScope [[LoopScope.html]] {
        +LoopScope(Statement)
        +getStarts(): List<Node>
        +setStarts(List<Node>): void
        +getConditions(): List<Node>
        +setConditions(List<Node>): void
        +addBreakStatement(BreakStatement): void
        +addContinueStatement(ContinueStatement): void
        +getBreakStatements(): List<BreakStatement>
        +getContinueStatements(): List<ContinueStatement>
        +starts(): List<Node>
    }

    class "<size:14>DeclarationScope\n<size:10>de.fraunhofer.aisec.cpg.passes.scopes" as de.fraunhofer.aisec.cpg.passes.scopes.DeclarationScope [[DeclarationScope.html]]
    interface "<size:14>IBreakable\n<size:10>de.fraunhofer.aisec.cpg.passes.scopes" as de.fraunhofer.aisec.cpg.passes.scopes.IBreakable [[IBreakable.html]] {
        {abstract} +addBreakStatement(BreakStatement): void
        {abstract} +getBreakStatements(): List<BreakStatement>
    }
    interface "<size:14>IContinuable\n<size:10>de.fraunhofer.aisec.cpg.passes.scopes" as de.fraunhofer.aisec.cpg.passes.scopes.IContinuable [[IContinuable.html]] {
        {abstract} +addContinueStatement(ContinueStatement): void
        {abstract} +getContinueStatements(): List<ContinueStatement>
    }

    de.fraunhofer.aisec.cpg.passes.scopes.DeclarationScope <|- - de.fraunhofer.aisec.cpg.passes.scopes.LoopScope
    de.fraunhofer.aisec.cpg.passes.scopes.IBreakable <|.. de.fraunhofer.aisec.cpg.passes.scopes.LoopScope
    de.fraunhofer.aisec.cpg.passes.scopes.IContinuable <|.. de.fraunhofer.aisec.cpg.passes.scopes.LoopScope

    center footer UMLDoclet 2.0.9, PlantUML 1.2020.08
@enduml

PlantUML version 1.2020.08(Sun Apr 26 16:08:22 CEST 2020)
(APACHE source distribution)
Java Runtime: OpenJDK Runtime Environment
JVM: OpenJDK 64-Bit Server VM
Java Version: 12.0.2+9-Ubuntu-118.04
Operating System: Linux
Default Encoding: UTF-8
Language: en
Country: US
--></g></svg>