<?xml version="1.0" encoding="UTF-8" standalone="no"?><svg xmlns="http://www.w3.org/2000/svg" xmlns:xlink="http://www.w3.org/1999/xlink" contentScriptType="application/ecmascript" contentStyleType="text/css" height="222px" preserveAspectRatio="none" style="width:239px;height:222px;" version="1.1" viewBox="0 0 239 222" width="239px" zoomAndPan="magnify"><defs><filter height="300%" id="fl910cwphzqtz" width="300%" x="-1" y="-1"><feGaussianBlur result="blurOut" stdDeviation="2.0"/><feColorMatrix in="blurOut" result="blurOut2" type="matrix" values="0 0 0 0 0 0 0 0 0 0 0 0 0 0 0 0 0 0 .4 0"/><feOffset dx="4.0" dy="4.0" in="blurOut2" result="blurOut3"/><feBlend in="SourceGraphic" in2="blurOut3" mode="normal"/></filter></defs><g><!--MD5=[b871b663e9565480ecd43f8052e5272c]
class de.fraunhofer.aisec.cpg.passes.scopes.NameScope--><a href="NameScope.html" target="_top" title="NameScope.html" xlink:actuate="onRequest" xlink:href="NameScope.html" xlink:show="new" xlink:title="NameScope.html" xlink:type="simple"><rect fill="#FEFECE" filter="url(#fl910cwphzqtz)" height="84.3516" id="de.fraunhofer.aisec.cpg.passes.scopes.NameScope" style="stroke: #A80036; stroke-width: 1.5;" width="218" x="8" y="106"/><ellipse cx="23" cy="124.9688" fill="#ADD1B2" rx="11" ry="11" style="stroke: #A80036; stroke-width: 1.0;"/><path d="M25.9688,130.6094 Q25.3906,130.9063 24.75,131.0469 Q24.1094,131.2031 23.4063,131.2031 Q20.9063,131.2031 19.5781,129.5625 Q18.2656,127.9063 18.2656,124.7813 Q18.2656,121.6563 19.5781,120 Q20.9063,118.3438 23.4063,118.3438 Q24.1094,118.3438 24.75,118.5 Q25.4063,118.6563 25.9688,118.9531 L25.9688,121.6719 Q25.3438,121.0938 24.75,120.8281 Q24.1563,120.5469 23.5313,120.5469 Q22.1875,120.5469 21.5,121.625 Q20.8125,122.6875 20.8125,124.7813 Q20.8125,126.875 21.5,127.9531 Q22.1875,129.0156 23.5313,129.0156 Q24.1563,129.0156 24.75,128.75 Q25.3438,128.4688 25.9688,127.8906 L25.9688,130.6094 Z "/><text fill="#000000" font-family="sans-serif" font-size="14" lengthAdjust="spacingAndGlyphs" textLength="84" x="88" y="123.9951">NameScope</text><text fill="#000000" font-family="sans-serif" font-size="10" lengthAdjust="spacingAndGlyphs" textLength="186" x="37" y="136.5791">de.fraunhofer.aisec.cpg.passes.scopes</text><line style="stroke: #A80036; stroke-width: 1.5;" x1="9" x2="225" y1="143.9375" y2="143.9375"/><ellipse cx="19" cy="154.9375" fill="#84BE84" rx="3" ry="3" style="stroke: #038048; stroke-width: 1.0;"/><text fill="#000000" font-family="sans-serif" font-size="11" lengthAdjust="spacingAndGlyphs" textLength="189" x="28" y="158.1479">NameScope(Node, String, String)</text><ellipse cx="19" cy="167.7422" fill="#84BE84" rx="3" ry="3" style="stroke: #038048; stroke-width: 1.0;"/><text fill="#000000" font-family="sans-serif" font-size="11" lengthAdjust="spacingAndGlyphs" textLength="133" x="28" y="170.9526">getNamePrefix(): String</text><ellipse cx="19" cy="180.5469" fill="#84BE84" rx="3" ry="3" style="stroke: #038048; stroke-width: 1.0;"/><text fill="#000000" font-family="sans-serif" font-size="11" lengthAdjust="spacingAndGlyphs" textLength="156" x="28" y="183.7573">setNamePrefix(String): void</text></a><!--MD5=[a4b4f6cfb8abbeeb190c9383e1ddf78a]
class de.fraunhofer.aisec.cpg.passes.scopes.Scope--><a href="Scope.html" target="_top" title="Scope.html" xlink:actuate="onRequest" xlink:href="Scope.html" xlink:show="new" xlink:title="Scope.html" xlink:type="simple"><rect fill="#FEFECE" filter="url(#fl910cwphzqtz)" height="37.9375" id="de.fraunhofer.aisec.cpg.passes.scopes.Scope" style="stroke: #A80036; stroke-width: 1.5;" width="222" x="6" y="8"/><ellipse cx="21" cy="26.9688" fill="#A9DCDF" rx="11" ry="11" style="stroke: #A80036; stroke-width: 1.0;"/><path d="M21.1094,22.3125 L19.9531,27.3906 L22.2813,27.3906 L21.1094,22.3125 Z M19.625,20.0781 L22.6094,20.0781 L25.9688,32.4688 L23.5156,32.4688 L22.75,29.4063 L19.4688,29.4063 L18.7188,32.4688 L16.2813,32.4688 L19.625,20.0781 Z "/><text fill="#000000" font-family="sans-serif" font-size="14" font-style="italic" lengthAdjust="spacingAndGlyphs" textLength="44" x="108" y="25.9951">Scope</text><text fill="#000000" font-family="sans-serif" font-size="10" font-style="italic" lengthAdjust="spacingAndGlyphs" textLength="190" x="35" y="38.5791">de.fraunhofer.aisec.cpg.passes.scopes</text></a><!--MD5=[3d443f2d0a479a60f05edab6a048e1b7]
reverse link de.fraunhofer.aisec.cpg.passes.scopes.Scope to de.fraunhofer.aisec.cpg.passes.scopes.NameScope--><path d="M117,66.54 C117,79.08 117,93.05 117,105.78 " fill="none" id="de.fraunhofer.aisec.cpg.passes.scopes.Scope&lt;-de.fraunhofer.aisec.cpg.passes.scopes.NameScope" style="stroke: #A80036; stroke-width: 1.0;"/><polygon fill="none" points="110,66.07,117,46.07,124,66.07,110,66.07" style="stroke: #A80036; stroke-width: 1.0;"/><text fill="#888888" font-family="sans-serif" font-size="10" lengthAdjust="spacingAndGlyphs" textLength="186" x="30" y="209.2822">UMLDoclet 2.0.9, PlantUML 1.2020.08</text><!--MD5=[e327b73b2db379c61a55175e5432a757]
@startuml
    set namespaceSeparator none
    hide empty fields
    hide empty methods

    class "<size:14>NameScope\n<size:10>de.fraunhofer.aisec.cpg.passes.scopes" as de.fraunhofer.aisec.cpg.passes.scopes.NameScope [[NameScope.html]] {
        +NameScope(Node, String, String)
        +getNamePrefix(): String
        +setNamePrefix(String): void
    }

    abstract class "<size:14>Scope\n<size:10>de.fraunhofer.aisec.cpg.passes.scopes" as de.fraunhofer.aisec.cpg.passes.scopes.Scope [[Scope.html]]

    de.fraunhofer.aisec.cpg.passes.scopes.Scope <|- - de.fraunhofer.aisec.cpg.passes.scopes.NameScope

    center footer UMLDoclet 2.0.9, PlantUML 1.2020.08
@enduml

PlantUML version 1.2020.08(Sun Apr 26 16:08:22 CEST 2020)
(APACHE source distribution)
Java Runtime: OpenJDK Runtime Environment
JVM: OpenJDK 64-Bit Server VM
Java Version: 12.0.2+9-Ubuntu-118.04
Operating System: Linux
Default Encoding: UTF-8
Language: en
Country: US
--></g></svg>