<?xml version="1.0" encoding="UTF-8" standalone="no"?><svg xmlns="http://www.w3.org/2000/svg" xmlns:xlink="http://www.w3.org/1999/xlink" contentScriptType="application/ecmascript" contentStyleType="text/css" height="876px" preserveAspectRatio="none" style="width:1569px;height:876px;" version="1.1" viewBox="0 0 1569 876" width="1569px" zoomAndPan="magnify"><defs><filter height="300%" id="f1n4m1wnzqncvl" width="300%" x="-1" y="-1"><feGaussianBlur result="blurOut" stdDeviation="2.0"/><feColorMatrix in="blurOut" result="blurOut2" type="matrix" values="0 0 0 0 0 0 0 0 0 0 0 0 0 0 0 0 0 0 .4 0"/><feOffset dx="4.0" dy="4.0" in="blurOut2" result="blurOut3"/><feBlend in="SourceGraphic" in2="blurOut3" mode="normal"/></filter></defs><g><!--MD5=[45ea7f4090d728ee5f4a126ce7f8b766]
cluster de.fraunhofer.aisec.cpg.frontends.java--><polygon fill="#FFFFFF" filter="url(#f1n4m1wnzqncvl)" points="22,297,337,297,344,319.2969,1464,319.2969,1464,828,22,828,22,297" style="stroke: #000000; stroke-width: 1.5;"/><line style="stroke: #000000; stroke-width: 1.5;" x1="22" x2="344" y1="319.2969" y2="319.2969"/><text fill="#000000" font-family="sans-serif" font-size="14" font-weight="bold" lengthAdjust="spacingAndGlyphs" textLength="309" x="26" y="311.9951">de.fraunhofer.aisec.cpg.frontends.java</text><!--MD5=[733ea7afc998df19735c48e2b7a590bd]
cluster de.fraunhofer.aisec.cpg.frontends--><polygon fill="#FFFFFF" filter="url(#f1n4m1wnzqncvl)" points="572,24,851,24,858,46.2969,1547,46.2969,1547,264,572,264,572,24" style="stroke: #000000; stroke-width: 1.5;"/><line style="stroke: #000000; stroke-width: 1.5;" x1="572" x2="858" y1="46.2969" y2="46.2969"/><text fill="#000000" font-family="sans-serif" font-size="14" font-weight="bold" lengthAdjust="spacingAndGlyphs" textLength="273" x="576" y="38.9951">de.fraunhofer.aisec.cpg.frontends</text><!--MD5=[838ef4429beb5427d5da9cb30b9cdb45]
class de.fraunhofer.aisec.cpg.frontends.java.DeclarationHandler--><a href="DeclarationHandler.html" target="_top" title="DeclarationHandler.html" xlink:actuate="onRequest" xlink:href="DeclarationHandler.html" xlink:show="new" xlink:title="DeclarationHandler.html" xlink:type="simple"><rect fill="#FEFECE" filter="url(#f1n4m1wnzqncvl)" height="176.0469" id="de.fraunhofer.aisec.cpg.frontends.java.DeclarationHandler" style="stroke: #A80036; stroke-width: 1.5;" width="521" x="38.5" y="636"/><ellipse cx="234.25" cy="652" fill="#ADD1B2" rx="11" ry="11" style="stroke: #A80036; stroke-width: 1.0;"/><path d="M237.2188,657.6406 Q236.6406,657.9375 236,658.0781 Q235.3594,658.2344 234.6563,658.2344 Q232.1563,658.2344 230.8281,656.5938 Q229.5156,654.9375 229.5156,651.8125 Q229.5156,648.6875 230.8281,647.0313 Q232.1563,645.375 234.6563,645.375 Q235.3594,645.375 236,645.5313 Q236.6563,645.6875 237.2188,645.9844 L237.2188,648.7031 Q236.5938,648.125 236,647.8594 Q235.4063,647.5781 234.7813,647.5781 Q233.4375,647.5781 232.75,648.6563 Q232.0625,649.7188 232.0625,651.8125 Q232.0625,653.9063 232.75,654.9844 Q233.4375,656.0469 234.7813,656.0469 Q235.4063,656.0469 236,655.7813 Q236.5938,655.5 237.2188,654.9219 L237.2188,657.6406 Z "/><text fill="#000000" font-family="sans-serif" font-size="12" lengthAdjust="spacingAndGlyphs" textLength="121" x="254.75" y="656.1543">DeclarationHandler</text><line style="stroke: #A80036; stroke-width: 1.5;" x1="39.5" x2="558.5" y1="668" y2="668"/><line style="stroke: #A80036; stroke-width: 1.5;" x1="39.5" x2="558.5" y1="676" y2="676"/><ellipse cx="49.5" cy="687" fill="#84BE84" rx="3" ry="3" style="stroke: #038048; stroke-width: 1.0;"/><text fill="#000000" font-family="sans-serif" font-size="11" lengthAdjust="spacingAndGlyphs" textLength="244" x="58.5" y="690.2104">DeclarationHandler(JavaLanguageFrontend)</text><ellipse cx="49.5" cy="699.8047" fill="#84BE84" rx="3" ry="3" style="stroke: #038048; stroke-width: 1.0;"/><text fill="#000000" font-family="sans-serif" font-size="11" lengthAdjust="spacingAndGlyphs" textLength="447" x="58.5" y="703.0151">handleConstructorDeclaration(ConstructorDeclaration): ConstructorDeclaration</text><ellipse cx="49.5" cy="712.6094" fill="#84BE84" rx="3" ry="3" style="stroke: #038048; stroke-width: 1.0;"/><text fill="#000000" font-family="sans-serif" font-size="11" lengthAdjust="spacingAndGlyphs" textLength="369" x="58.5" y="715.8198">handleMethodDeclaration(MethodDeclaration): MethodDeclaration</text><ellipse cx="49.5" cy="725.4141" fill="#84BE84" rx="3" ry="3" style="stroke: #038048; stroke-width: 1.0;"/><text fill="#000000" font-family="sans-serif" font-size="11" lengthAdjust="spacingAndGlyphs" textLength="477" x="58.5" y="728.6245">handleClassOrInterfaceDeclaration(ClassOrInterfaceDeclaration): RecordDeclaration</text><ellipse cx="49.5" cy="738.2188" fill="#84BE84" rx="3" ry="3" style="stroke: #038048; stroke-width: 1.0;"/><text fill="#000000" font-family="sans-serif" font-size="11" lengthAdjust="spacingAndGlyphs" textLength="324" x="58.5" y="741.4292">handleFieldDeclaration(FieldDeclaration): FieldDeclaration</text><ellipse cx="49.5" cy="751.0234" fill="#84BE84" rx="3" ry="3" style="stroke: #038048; stroke-width: 1.0;"/><text fill="#000000" font-family="sans-serif" font-size="11" lengthAdjust="spacingAndGlyphs" textLength="346" x="58.5" y="754.2339">handleInitializerDeclaration(InitializerDeclaration): Declaration</text><ellipse cx="49.5" cy="763.8281" fill="#84BE84" rx="3" ry="3" style="stroke: #038048; stroke-width: 1.0;"/><text fill="#000000" font-family="sans-serif" font-size="11" lengthAdjust="spacingAndGlyphs" textLength="342" x="58.5" y="767.0386">handleEnumDeclaration(EnumDeclaration): EnumDeclaration</text><ellipse cx="49.5" cy="776.6328" fill="#84BE84" rx="3" ry="3" style="stroke: #038048; stroke-width: 1.0;"/><text fill="#000000" font-family="sans-serif" font-size="11" lengthAdjust="spacingAndGlyphs" textLength="495" x="58.5" y="779.8433">handleEnumConstantDeclaration(EnumConstantDeclaration): EnumConstantDeclaration</text><ellipse cx="49.5" cy="789.4375" fill="#84BE84" rx="3" ry="3" style="stroke: #038048; stroke-width: 1.0;"/><text fill="#000000" font-family="sans-serif" font-size="11" lengthAdjust="spacingAndGlyphs" textLength="366" x="58.5" y="792.6479">handleAnnotationDeclaration(AnnotationDeclaration): Declaration</text><ellipse cx="49.5" cy="802.2422" fill="#84BE84" rx="3" ry="3" style="stroke: #038048; stroke-width: 1.0;"/><text fill="#000000" font-family="sans-serif" font-size="11" lengthAdjust="spacingAndGlyphs" textLength="458" x="58.5" y="805.4526">handleAnnotationMemberDeclaration(AnnotationMemberDeclaration): Declaration</text></a><!--MD5=[de2304de47d7f6d8fbb880a955046425]
class de.fraunhofer.aisec.cpg.frontends.java.JavaLanguageFrontend--><a href="JavaLanguageFrontend.html" target="_top" title="JavaLanguageFrontend.html" xlink:actuate="onRequest" xlink:href="JavaLanguageFrontend.html" xlink:show="new" xlink:title="JavaLanguageFrontend.html" xlink:type="simple"><rect fill="#FEFECE" filter="url(#f1n4m1wnzqncvl)" height="227.2656" id="de.fraunhofer.aisec.cpg.frontends.java.JavaLanguageFrontend" style="stroke: #A80036; stroke-width: 1.5;" width="500" x="704" y="332"/><ellipse cx="877.75" cy="348" fill="#ADD1B2" rx="11" ry="11" style="stroke: #A80036; stroke-width: 1.0;"/><path d="M880.7188,353.6406 Q880.1406,353.9375 879.5,354.0781 Q878.8594,354.2344 878.1563,354.2344 Q875.6563,354.2344 874.3281,352.5938 Q873.0156,350.9375 873.0156,347.8125 Q873.0156,344.6875 874.3281,343.0313 Q875.6563,341.375 878.1563,341.375 Q878.8594,341.375 879.5,341.5313 Q880.1563,341.6875 880.7188,341.9844 L880.7188,344.7031 Q880.0938,344.125 879.5,343.8594 Q878.9063,343.5781 878.2813,343.5781 Q876.9375,343.5781 876.25,344.6563 Q875.5625,345.7188 875.5625,347.8125 Q875.5625,349.9063 876.25,350.9844 Q876.9375,352.0469 878.2813,352.0469 Q878.9063,352.0469 879.5,351.7813 Q880.0938,351.5 880.7188,350.9219 L880.7188,353.6406 Z "/><text fill="#000000" font-family="sans-serif" font-size="12" lengthAdjust="spacingAndGlyphs" textLength="144" x="898.25" y="352.1543">JavaLanguageFrontend</text><line style="stroke: #A80036; stroke-width: 1.5;" x1="705" x2="1203" y1="364" y2="364"/><line style="stroke: #A80036; stroke-width: 1.5;" x1="705" x2="1203" y1="372" y2="372"/><ellipse cx="715" cy="383" fill="#84BE84" rx="3" ry="3" style="stroke: #038048; stroke-width: 1.0;"/><text fill="#000000" font-family="sans-serif" font-size="11" lengthAdjust="spacingAndGlyphs" textLength="368" x="724" y="386.2104">JavaLanguageFrontend(TranslationConfiguration, ScopeManager)</text><ellipse cx="715" cy="395.8047" fill="#84BE84" rx="3" ry="3" style="stroke: #038048; stroke-width: 1.0;"/><text fill="#000000" font-family="sans-serif" font-size="11" lengthAdjust="spacingAndGlyphs" textLength="218" x="724" y="399.0151">parse(File): TranslationUnitDeclaration</text><polygon fill="#FFFF44" points="715,403.6094,719,407.6094,715,411.6094,711,407.6094" style="stroke: #B38D22; stroke-width: 1.0;"/><text fill="#000000" font-family="sans-serif" font-size="11" lengthAdjust="spacingAndGlyphs" textLength="226" x="724" y="411.8198">parse(File, JavaParser): CompilationUnit</text><ellipse cx="715" cy="421.4141" fill="#84BE84" rx="3" ry="3" style="stroke: #038048; stroke-width: 1.0;"/><text fill="#000000" font-family="sans-serif" font-size="11" lengthAdjust="spacingAndGlyphs" textLength="185" x="724" y="424.6245">getCodeFromRawNode(T): String</text><ellipse cx="715" cy="434.2188" fill="#84BE84" rx="3" ry="3" style="stroke: #038048; stroke-width: 1.0;"/><text fill="#000000" font-family="sans-serif" font-size="11" lengthAdjust="spacingAndGlyphs" textLength="262" x="724" y="437.4292">getLocationFromRawNode(T): PhysicalLocation</text><ellipse cx="715" cy="447.0234" fill="#84BE84" rx="3" ry="3" style="stroke: #038048; stroke-width: 1.0;"/><text fill="#000000" font-family="sans-serif" font-size="11" lengthAdjust="spacingAndGlyphs" textLength="427" x="724" y="450.2339">getTypeAsGoodAsPossible(NodeWithType, ResolvedValueDeclaration): Type</text><ellipse cx="715" cy="459.8281" fill="#84BE84" rx="3" ry="3" style="stroke: #038048; stroke-width: 1.0;"/><text fill="#000000" font-family="sans-serif" font-size="11" lengthAdjust="spacingAndGlyphs" textLength="385" x="724" y="463.0386">getQualifiedMethodNameAsGoodAsPossible(MethodCallExpr): String</text><ellipse cx="715" cy="472.6328" fill="#84BE84" rx="3" ry="3" style="stroke: #038048; stroke-width: 1.0;"/><text fill="#000000" font-family="sans-serif" font-size="11" lengthAdjust="spacingAndGlyphs" textLength="314" x="724" y="475.8433">recoverTypeFromUnsolvedException(Throwable): String</text><ellipse cx="715" cy="485.4375" fill="#84BE84" rx="3" ry="3" style="stroke: #038048; stroke-width: 1.0;"/><text fill="#000000" font-family="sans-serif" font-size="11" lengthAdjust="spacingAndGlyphs" textLength="258" x="724" y="488.6479">getQualifiedNameFromImports(String): String</text><ellipse cx="715" cy="498.2422" fill="#84BE84" rx="3" ry="3" style="stroke: #038048; stroke-width: 1.0;"/><text fill="#000000" font-family="sans-serif" font-size="11" lengthAdjust="spacingAndGlyphs" textLength="221" x="724" y="501.4526">getTypeAsGoodAsPossible(Type): Type</text><ellipse cx="715" cy="511.0469" fill="#84BE84" rx="3" ry="3" style="stroke: #038048; stroke-width: 1.0;"/><text fill="#000000" font-family="sans-serif" font-size="11" lengthAdjust="spacingAndGlyphs" textLength="474" x="724" y="514.2573">getReturnTypeAsGoodAsPossible(NodeWithType, ResolvedMethodDeclaration): Type</text><ellipse cx="715" cy="523.8516" fill="#84BE84" rx="3" ry="3" style="stroke: #038048; stroke-width: 1.0;"/><text fill="#000000" font-family="sans-serif" font-size="11" lengthAdjust="spacingAndGlyphs" textLength="83" x="724" y="527.062">cleanup(): void</text><ellipse cx="715" cy="536.6563" fill="#84BE84" rx="3" ry="3" style="stroke: #038048; stroke-width: 1.0;"/><text fill="#000000" font-family="sans-serif" font-size="11" lengthAdjust="spacingAndGlyphs" textLength="135" x="724" y="539.8667">setComment(S, T): void</text><ellipse cx="715" cy="549.4609" fill="#84BE84" rx="3" ry="3" style="stroke: #038048; stroke-width: 1.0;"/><text fill="#000000" font-family="sans-serif" font-size="11" lengthAdjust="spacingAndGlyphs" textLength="166" x="724" y="552.6714">getContext(): CompilationUnit</text></a><!--MD5=[d5b23f5255c7068227792a25864a1a18]
class de.fraunhofer.aisec.cpg.frontends.java.StatementAnalyzer--><a href="StatementAnalyzer.html" target="_top" title="StatementAnalyzer.html" xlink:actuate="onRequest" xlink:href="StatementAnalyzer.html" xlink:show="new" xlink:title="StatementAnalyzer.html" xlink:type="simple"><rect fill="#FEFECE" filter="url(#f1n4m1wnzqncvl)" height="176.0469" id="de.fraunhofer.aisec.cpg.frontends.java.StatementAnalyzer" style="stroke: #A80036; stroke-width: 1.5;" width="548" x="595" y="636"/><ellipse cx="806.25" cy="652" fill="#ADD1B2" rx="11" ry="11" style="stroke: #A80036; stroke-width: 1.0;"/><path d="M809.2188,657.6406 Q808.6406,657.9375 808,658.0781 Q807.3594,658.2344 806.6563,658.2344 Q804.1563,658.2344 802.8281,656.5938 Q801.5156,654.9375 801.5156,651.8125 Q801.5156,648.6875 802.8281,647.0313 Q804.1563,645.375 806.6563,645.375 Q807.3594,645.375 808,645.5313 Q808.6563,645.6875 809.2188,645.9844 L809.2188,648.7031 Q808.5938,648.125 808,647.8594 Q807.4063,647.5781 806.7813,647.5781 Q805.4375,647.5781 804.75,648.6563 Q804.0625,649.7188 804.0625,651.8125 Q804.0625,653.9063 804.75,654.9844 Q805.4375,656.0469 806.7813,656.0469 Q807.4063,656.0469 808,655.7813 Q808.5938,655.5 809.2188,654.9219 L809.2188,657.6406 Z "/><text fill="#000000" font-family="sans-serif" font-size="12" lengthAdjust="spacingAndGlyphs" textLength="117" x="826.75" y="656.1543">StatementAnalyzer</text><line style="stroke: #A80036; stroke-width: 1.5;" x1="596" x2="1142" y1="668" y2="668"/><line style="stroke: #A80036; stroke-width: 1.5;" x1="596" x2="1142" y1="676" y2="676"/><ellipse cx="606" cy="687" fill="#84BE84" rx="3" ry="3" style="stroke: #038048; stroke-width: 1.0;"/><text fill="#000000" font-family="sans-serif" font-size="11" lengthAdjust="spacingAndGlyphs" textLength="242" x="615" y="690.2104">StatementAnalyzer(JavaLanguageFrontend)</text><ellipse cx="606" cy="699.8047" fill="#84BE84" rx="3" ry="3" style="stroke: #038048; stroke-width: 1.0;"/><text fill="#000000" font-family="sans-serif" font-size="11" lengthAdjust="spacingAndGlyphs" textLength="294" x="615" y="703.0151">handleExpressionStatement(Statement): Statement</text><ellipse cx="606" cy="712.6094" fill="#84BE84" rx="3" ry="3" style="stroke: #038048; stroke-width: 1.0;"/><text fill="#000000" font-family="sans-serif" font-size="11" lengthAdjust="spacingAndGlyphs" textLength="322" x="615" y="715.8198">handleBlockStatement(Statement): CompoundStatement</text><ellipse cx="606" cy="725.4141" fill="#84BE84" rx="3" ry="3" style="stroke: #038048; stroke-width: 1.0;"/><text fill="#000000" font-family="sans-serif" font-size="11" lengthAdjust="spacingAndGlyphs" textLength="378" x="615" y="728.6245">handleCaseDefaultStatement(Expression, SwitchEntry): Statement</text><ellipse cx="606" cy="738.2188" fill="#84BE84" rx="3" ry="3" style="stroke: #038048; stroke-width: 1.0;"/><text fill="#000000" font-family="sans-serif" font-size="11" lengthAdjust="spacingAndGlyphs" textLength="296" x="615" y="741.4292">getPreviousTokenWith(String, JavaToken): JavaToken</text><ellipse cx="606" cy="751.0234" fill="#84BE84" rx="3" ry="3" style="stroke: #038048; stroke-width: 1.0;"/><text fill="#000000" font-family="sans-serif" font-size="11" lengthAdjust="spacingAndGlyphs" textLength="272" x="615" y="754.2339">getNextTokenWith(String, JavaToken): JavaToken</text><ellipse cx="606" cy="763.8281" fill="#84BE84" rx="3" ry="3" style="stroke: #038048; stroke-width: 1.0;"/><text fill="#000000" font-family="sans-serif" font-size="11" lengthAdjust="spacingAndGlyphs" textLength="522" x="615" y="767.0386">getOuterTokensWithText(String, String, JavaToken, JavaToken): Pair&lt;JavaToken, JavaToken&gt;</text><ellipse cx="606" cy="776.6328" fill="#84BE84" rx="3" ry="3" style="stroke: #038048; stroke-width: 1.0;"/><text fill="#000000" font-family="sans-serif" font-size="11" lengthAdjust="spacingAndGlyphs" textLength="474" x="615" y="779.8433">getLocationsFromTokens(PhysicalLocation, JavaToken, JavaToken): PhysicalLocation</text><ellipse cx="606" cy="789.4375" fill="#84BE84" rx="3" ry="3" style="stroke: #038048; stroke-width: 1.0;"/><text fill="#000000" font-family="sans-serif" font-size="11" lengthAdjust="spacingAndGlyphs" textLength="309" x="615" y="792.6479">getCodeBetweenTokens(JavaToken, JavaToken): String</text><ellipse cx="606" cy="802.2422" fill="#84BE84" rx="3" ry="3" style="stroke: #038048; stroke-width: 1.0;"/><text fill="#000000" font-family="sans-serif" font-size="11" lengthAdjust="spacingAndGlyphs" textLength="305" x="615" y="805.4526">handleSwitchStatement(Statement): SwitchStatement</text></a><!--MD5=[642a44cab8f1684f573beb954714b869]
class de.fraunhofer.aisec.cpg.frontends.java.ExpressionHandler--><a href="ExpressionHandler.html" target="_top" title="ExpressionHandler.html" xlink:actuate="onRequest" xlink:href="ExpressionHandler.html" xlink:show="new" xlink:title="ExpressionHandler.html" xlink:type="simple"><rect fill="#FEFECE" filter="url(#f1n4m1wnzqncvl)" height="60.8047" id="de.fraunhofer.aisec.cpg.frontends.java.ExpressionHandler" style="stroke: #A80036; stroke-width: 1.5;" width="269" x="1178.5" y="693.5"/><ellipse cx="1250.25" cy="709.5" fill="#ADD1B2" rx="11" ry="11" style="stroke: #A80036; stroke-width: 1.0;"/><path d="M1253.2188,715.1406 Q1252.6406,715.4375 1252,715.5781 Q1251.3594,715.7344 1250.6563,715.7344 Q1248.1563,715.7344 1246.8281,714.0938 Q1245.5156,712.4375 1245.5156,709.3125 Q1245.5156,706.1875 1246.8281,704.5313 Q1248.1563,702.875 1250.6563,702.875 Q1251.3594,702.875 1252,703.0313 Q1252.6563,703.1875 1253.2188,703.4844 L1253.2188,706.2031 Q1252.5938,705.625 1252,705.3594 Q1251.4063,705.0781 1250.7813,705.0781 Q1249.4375,705.0781 1248.75,706.1563 Q1248.0625,707.2188 1248.0625,709.3125 Q1248.0625,711.4063 1248.75,712.4844 Q1249.4375,713.5469 1250.7813,713.5469 Q1251.4063,713.5469 1252,713.2813 Q1252.5938,713 1253.2188,712.4219 L1253.2188,715.1406 Z "/><text fill="#000000" font-family="sans-serif" font-size="12" lengthAdjust="spacingAndGlyphs" textLength="117" x="1270.75" y="713.6543">ExpressionHandler</text><line style="stroke: #A80036; stroke-width: 1.5;" x1="1179.5" x2="1446.5" y1="725.5" y2="725.5"/><line style="stroke: #A80036; stroke-width: 1.5;" x1="1179.5" x2="1446.5" y1="733.5" y2="733.5"/><ellipse cx="1189.5" cy="744.5" fill="#84BE84" rx="3" ry="3" style="stroke: #038048; stroke-width: 1.0;"/><text fill="#000000" font-family="sans-serif" font-size="11" lengthAdjust="spacingAndGlyphs" textLength="243" x="1198.5" y="747.7104">ExpressionHandler(JavaLanguageFrontend)</text></a><!--MD5=[0d38b1d8da00c1a18e998a73bfd83290]
class de.fraunhofer.aisec.cpg.frontends.Handler--><a href="../Handler.html" target="_top" title="../Handler.html" xlink:actuate="onRequest" xlink:href="../Handler.html" xlink:show="new" xlink:title="../Handler.html" xlink:type="simple"><rect fill="#FEFECE" filter="url(#f1n4m1wnzqncvl)" height="86.4141" id="de.fraunhofer.aisec.cpg.frontends.Handler" style="stroke: #A80036; stroke-width: 1.5;" width="388" x="588" y="110.5"/><ellipse cx="643.25" cy="126.5" fill="#A9DCDF" rx="11" ry="11" style="stroke: #A80036; stroke-width: 1.0;"/><path d="M643.3594,121.8438 L642.2031,126.9219 L644.5313,126.9219 L643.3594,121.8438 Z M641.875,119.6094 L644.8594,119.6094 L648.2188,132 L645.7656,132 L645,128.9375 L641.7188,128.9375 L640.9688,132 L638.5313,132 L641.875,119.6094 Z "/><text fill="#000000" font-family="sans-serif" font-size="12" font-style="italic" lengthAdjust="spacingAndGlyphs" textLength="49" x="663.75" y="130.6543">Handler</text><rect fill="#FFFFFF" height="15.9688" style="stroke: #000000; stroke-width: 1.0; stroke-dasharray: 2.0,2.0;" width="218" x="761" y="107.5"/><text fill="#000000" font-family="sans-serif" font-size="12" font-style="italic" lengthAdjust="spacingAndGlyphs" textLength="216" x="762" y="119.6387">S, T, L extends LanguageFrontend</text><line style="stroke: #A80036; stroke-width: 1.5;" x1="589" x2="975" y1="142.5" y2="142.5"/><polygon fill="none" points="599,148.5,603,152.5,599,156.5,595,152.5" style="stroke: #B38D22; stroke-width: 1.0;"/><text fill="#000000" font-family="sans-serif" font-size="11" lengthAdjust="spacingAndGlyphs" text-decoration="underline" textLength="64" x="608" y="156.7104">log: Logger</text><polygon fill="none" points="599,161.3047,603,165.3047,599,169.3047,595,165.3047" style="stroke: #B38D22; stroke-width: 1.0;"/><text fill="#000000" font-family="sans-serif" font-size="11" lengthAdjust="spacingAndGlyphs" textLength="362" x="608" y="169.5151">map: HashMap&lt;Class&lt;? extends T&gt;, HandlerInterface&lt;S, T&gt;&gt;</text><polygon fill="none" points="599,174.1094,603,178.1094,599,182.1094,595,178.1094" style="stroke: #B38D22; stroke-width: 1.0;"/><text fill="#000000" font-family="sans-serif" font-size="11" lengthAdjust="spacingAndGlyphs" textLength="196" x="608" y="182.3198">lang: L extends LanguageFrontend</text><line style="stroke: #A80036; stroke-width: 1.5;" x1="589" x2="975" y1="188.9141" y2="188.9141"/></a><!--MD5=[7aaf60bdf5840e2dacbce7cd0e282bdc]
class de.fraunhofer.aisec.cpg.frontends.LanguageFrontend--><a href="../LanguageFrontend.html" target="_top" title="../LanguageFrontend.html" xlink:actuate="onRequest" xlink:href="../LanguageFrontend.html" xlink:show="new" xlink:title="../LanguageFrontend.html" xlink:type="simple"><rect fill="#FEFECE" filter="url(#f1n4m1wnzqncvl)" height="188.8516" id="de.fraunhofer.aisec.cpg.frontends.LanguageFrontend" style="stroke: #A80036; stroke-width: 1.5;" width="519" x="1011.5" y="59"/><ellipse cx="1206.75" cy="75" fill="#A9DCDF" rx="11" ry="11" style="stroke: #A80036; stroke-width: 1.0;"/><path d="M1206.8594,70.3438 L1205.7031,75.4219 L1208.0313,75.4219 L1206.8594,70.3438 Z M1205.375,68.1094 L1208.3594,68.1094 L1211.7188,80.5 L1209.2656,80.5 L1208.5,77.4375 L1205.2188,77.4375 L1204.4688,80.5 L1202.0313,80.5 L1205.375,68.1094 Z "/><text fill="#000000" font-family="sans-serif" font-size="12" font-style="italic" lengthAdjust="spacingAndGlyphs" textLength="120" x="1227.25" y="79.1543">LanguageFrontend</text><line style="stroke: #A80036; stroke-width: 1.5;" x1="1012.5" x2="1529.5" y1="91" y2="91"/><polygon fill="none" points="1022.5,97,1026.5,101,1022.5,105,1018.5,101" style="stroke: #B38D22; stroke-width: 1.0;"/><text fill="#000000" font-family="sans-serif" font-size="11" lengthAdjust="spacingAndGlyphs" text-decoration="underline" textLength="64" x="1031.5" y="105.2104">log: Logger</text><polygon fill="none" points="1022.5,109.8047,1026.5,113.8047,1022.5,117.8047,1018.5,113.8047" style="stroke: #B38D22; stroke-width: 1.0;"/><text fill="#000000" font-family="sans-serif" font-size="11" lengthAdjust="spacingAndGlyphs" textLength="182" x="1031.5" y="118.0151">config: TranslationConfiguration</text><polygon fill="none" points="1022.5,122.6094,1026.5,126.6094,1022.5,130.6094,1018.5,126.6094" style="stroke: #B38D22; stroke-width: 1.0;"/><text fill="#000000" font-family="sans-serif" font-size="11" lengthAdjust="spacingAndGlyphs" textLength="175" x="1031.5" y="130.8198">scopeManager: ScopeManager</text><polygon fill="none" points="1022.5,135.4141,1026.5,139.4141,1022.5,143.4141,1018.5,139.4141" style="stroke: #B38D22; stroke-width: 1.0;"/><text fill="#000000" font-family="sans-serif" font-size="11" lengthAdjust="spacingAndGlyphs" textLength="348" x="1031.5" y="143.6245">objectListeners: Map&lt;Object, BiConsumer&lt;Object, Object&gt;&gt;</text><polygon fill="none" points="1022.5,148.2188,1026.5,152.2188,1022.5,156.2188,1018.5,152.2188" style="stroke: #B38D22; stroke-width: 1.0;"/><text fill="#000000" font-family="sans-serif" font-size="11" lengthAdjust="spacingAndGlyphs" textLength="493" x="1031.5" y="156.4292">predicateListeners: Map&lt;BiPredicate&lt;Object, Object&gt;, BiConsumer&lt;Object, Object&gt;&gt;</text><polygon fill="none" points="1022.5,161.0234,1026.5,165.0234,1022.5,169.0234,1018.5,165.0234" style="stroke: #B38D22; stroke-width: 1.0;"/><text fill="#000000" font-family="sans-serif" font-size="11" lengthAdjust="spacingAndGlyphs" textLength="236" x="1031.5" y="169.2339">processedMapping: Map&lt;Object, Object&gt;</text><polygon fill="none" points="1022.5,173.8281,1026.5,177.8281,1022.5,181.8281,1018.5,177.8281" style="stroke: #B38D22; stroke-width: 1.0;"/><text fill="#000000" font-family="sans-serif" font-size="11" lengthAdjust="spacingAndGlyphs" textLength="214" x="1031.5" y="182.0386">currentTU: TranslationUnitDeclaration</text><line style="stroke: #A80036; stroke-width: 1.5;" x1="1012.5" x2="1529.5" y1="188.6328" y2="188.6328"/><ellipse cx="1022.5" cy="199.6328" fill="#84BE84" rx="3" ry="3" style="stroke: #038048; stroke-width: 1.0;"/><text fill="#000000" font-family="sans-serif" font-size="11" font-style="italic" lengthAdjust="spacingAndGlyphs" textLength="216" x="1031.5" y="202.8433">parse(File): TranslationUnitDeclaration</text><ellipse cx="1022.5" cy="212.4375" fill="#84BE84" rx="3" ry="3" style="stroke: #038048; stroke-width: 1.0;"/><text fill="#000000" font-family="sans-serif" font-size="11" font-style="italic" lengthAdjust="spacingAndGlyphs" textLength="185" x="1031.5" y="215.6479">getCodeFromRawNode(T): String</text><ellipse cx="1022.5" cy="225.2422" fill="#84BE84" rx="3" ry="3" style="stroke: #038048; stroke-width: 1.0;"/><text fill="#000000" font-family="sans-serif" font-size="11" font-style="italic" lengthAdjust="spacingAndGlyphs" textLength="263" x="1031.5" y="228.4526">getLocationFromRawNode(T): PhysicalLocation</text><ellipse cx="1022.5" cy="238.0469" fill="#84BE84" rx="3" ry="3" style="stroke: #038048; stroke-width: 1.0;"/><text fill="#000000" font-family="sans-serif" font-size="11" font-style="italic" lengthAdjust="spacingAndGlyphs" textLength="134" x="1031.5" y="241.2573">setComment(S, T): void</text></a><!--MD5=[3fcfdcdfeb1a72080a91112990b5e3f6]
reverse link de.fraunhofer.aisec.cpg.frontends.Handler to de.fraunhofer.aisec.cpg.frontends.java.DeclarationHandler--><path d="M711.94,209.44 C683.99,232.73 652.27,260.94 626,289 C521.38,400.74 418.03,545.17 356.35,635.97 " fill="none" id="de.fraunhofer.aisec.cpg.frontends.Handler&lt;-de.fraunhofer.aisec.cpg.frontends.java.DeclarationHandler" style="stroke: #A80036; stroke-width: 1.0;"/><polygon fill="none" points="707.57,203.98,727.46,196.69,716.45,214.79,707.57,203.98" style="stroke: #A80036; stroke-width: 1.0;"/><!--MD5=[b3f4b93fc7853ce0db32c32b60e2eb06]
reverse link de.fraunhofer.aisec.cpg.frontends.LanguageFrontend to de.fraunhofer.aisec.cpg.frontends.java.JavaLanguageFrontend--><path d="M1153.62,261.88 C1128.69,284.69 1102.3,308.83 1077.16,331.83 " fill="none" id="de.fraunhofer.aisec.cpg.frontends.LanguageFrontend&lt;-de.fraunhofer.aisec.cpg.frontends.java.JavaLanguageFrontend" style="stroke: #A80036; stroke-width: 1.0;"/><polygon fill="none" points="1149.04,256.59,1168.52,248.25,1158.49,266.92,1149.04,256.59" style="stroke: #A80036; stroke-width: 1.0;"/><!--MD5=[d2e0eee7fc6e2ca4331d781de387aa15]
link de.fraunhofer.aisec.cpg.frontends.java.JavaLanguageFrontend to de.fraunhofer.aisec.cpg.frontends.java.ExpressionHandler--><path d="M1056.45,559.19 C1073.62,575.7 1091.79,591.88 1110,606 C1113.34,608.59 1197.87,657.11 1256.79,690.85 " fill="none" id="de.fraunhofer.aisec.cpg.frontends.java.JavaLanguageFrontend-&gt;de.fraunhofer.aisec.cpg.frontends.java.ExpressionHandler" style="stroke: #A80036; stroke-width: 1.0;"/><polygon fill="#A80036" points="1261.34,693.45,1255.516,685.5077,1257.0005,690.9662,1251.542,692.4508,1261.34,693.45" style="stroke: #A80036; stroke-width: 1.0;"/><text fill="#000000" font-family="sans-serif" font-size="13" lengthAdjust="spacingAndGlyphs" textLength="119" x="1111" y="602.0669">expressionHandler</text><!--MD5=[bd150abcf790710470121e1c4826f4c8]
link de.fraunhofer.aisec.cpg.frontends.java.JavaLanguageFrontend to de.fraunhofer.aisec.cpg.frontends.java.StatementAnalyzer--><path d="M919.3,559.36 C911.98,583.2 904.33,608.08 897.27,631.04 " fill="none" id="de.fraunhofer.aisec.cpg.frontends.java.JavaLanguageFrontend-&gt;de.fraunhofer.aisec.cpg.frontends.java.StatementAnalyzer" style="stroke: #A80036; stroke-width: 1.0;"/><polygon fill="#A80036" points="895.77,635.91,902.218,628.4653,897.2264,631.1268,894.5649,626.1351,895.77,635.91" style="stroke: #A80036; stroke-width: 1.0;"/><text fill="#000000" font-family="sans-serif" font-size="13" lengthAdjust="spacingAndGlyphs" textLength="117" x="909" y="602.0669">statementHandler</text><!--MD5=[56b3670b59e67593cbd0a822f317876a]
link de.fraunhofer.aisec.cpg.frontends.java.JavaLanguageFrontend to de.fraunhofer.aisec.cpg.frontends.java.DeclarationHandler--><path d="M703.57,552.22 C639.68,579.18 571.65,607.9 509.96,633.94 " fill="none" id="de.fraunhofer.aisec.cpg.frontends.java.JavaLanguageFrontend-&gt;de.fraunhofer.aisec.cpg.frontends.java.DeclarationHandler" style="stroke: #A80036; stroke-width: 1.0;"/><polygon fill="#A80036" points="505.15,635.97,514.9972,636.1531,509.756,634.0246,511.8845,628.7835,505.15,635.97" style="stroke: #A80036; stroke-width: 1.0;"/><text fill="#000000" font-family="sans-serif" font-size="13" lengthAdjust="spacingAndGlyphs" textLength="121" x="608" y="602.0669">declarationHandler</text><!--MD5=[b9dea675b3a7f11ad76539e04193bb7e]
reverse link de.fraunhofer.aisec.cpg.frontends.Handler to de.fraunhofer.aisec.cpg.frontends.java.StatementAnalyzer--><path d="M730.16,212.48 C713.24,234.84 696.41,261.61 687,289 C641.2,422.38 603.38,483.36 673,606 C679.16,616.86 686.78,626.81 695.39,635.92 " fill="none" id="de.fraunhofer.aisec.cpg.frontends.Handler&lt;-de.fraunhofer.aisec.cpg.frontends.java.StatementAnalyzer" style="stroke: #A80036; stroke-width: 1.0;"/><polygon fill="none" points="724.77,208,742.68,196.67,735.75,216.7,724.77,208" style="stroke: #A80036; stroke-width: 1.0;"/><!--MD5=[38674acd06f08dc4d9b6e81268253fba]
reverse link de.fraunhofer.aisec.cpg.frontends.Handler to de.fraunhofer.aisec.cpg.frontends.java.ExpressionHandler--><path d="M858.55,207.51 C897.36,231.55 946.27,257.74 994,272 C1042.68,286.54 1183.78,255.53 1222,289 C1342.03,394.12 1327.36,613.48 1317.41,693.21 " fill="none" id="de.fraunhofer.aisec.cpg.frontends.Handler&lt;-de.fraunhofer.aisec.cpg.frontends.java.ExpressionHandler" style="stroke: #A80036; stroke-width: 1.0;"/><polygon fill="none" points="854.61,213.29,841.48,196.66,862.11,201.47,854.61,213.29" style="stroke: #A80036; stroke-width: 1.0;"/><text fill="#888888" font-family="sans-serif" font-size="10" lengthAdjust="spacingAndGlyphs" textLength="186" x="697.5" y="863.2822">UMLDoclet 2.0.9, PlantUML 1.2020.08</text><!--MD5=[dc43af8754c3c36c1aa6fb355360331e]
@startuml
    namespace de.fraunhofer.aisec.cpg.frontends.java {

        class DeclarationHandler [[DeclarationHandler.html]] {
            +DeclarationHandler(JavaLanguageFrontend)
            +handleConstructorDeclaration(ConstructorDeclaration): ConstructorDeclaration
            +handleMethodDeclaration(MethodDeclaration): MethodDeclaration
            +handleClassOrInterfaceDeclaration(ClassOrInterfaceDeclaration): RecordDeclaration
            +handleFieldDeclaration(FieldDeclaration): FieldDeclaration
            +handleInitializerDeclaration(InitializerDeclaration): Declaration
            +handleEnumDeclaration(EnumDeclaration): EnumDeclaration
            +handleEnumConstantDeclaration(EnumConstantDeclaration): EnumConstantDeclaration
            +handleAnnotationDeclaration(AnnotationDeclaration): Declaration
            +handleAnnotationMemberDeclaration(AnnotationMemberDeclaration): Declaration
        }

        class JavaLanguageFrontend [[JavaLanguageFrontend.html]] {
            +JavaLanguageFrontend(TranslationConfiguration, ScopeManager)
            +parse(File): TranslationUnitDeclaration
            #parse(File, JavaParser): CompilationUnit
            +getCodeFromRawNode(T): String
            +getLocationFromRawNode(T): PhysicalLocation
            +getTypeAsGoodAsPossible(NodeWithType, ResolvedValueDeclaration): Type
            +getQualifiedMethodNameAsGoodAsPossible(MethodCallExpr): String
            +recoverTypeFromUnsolvedException(Throwable): String
            +getQualifiedNameFromImports(String): String
            +getTypeAsGoodAsPossible(Type): Type
            +getReturnTypeAsGoodAsPossible(NodeWithType, ResolvedMethodDeclaration): Type
            +cleanup(): void
            +setComment(S, T): void
            +getContext(): CompilationUnit
        }

        class StatementAnalyzer [[StatementAnalyzer.html]] {
            +StatementAnalyzer(JavaLanguageFrontend)
            +handleExpressionStatement(Statement): Statement
            +handleBlockStatement(Statement): CompoundStatement
            +handleCaseDefaultStatement(Expression, SwitchEntry): Statement
            +getPreviousTokenWith(String, JavaToken): JavaToken
            +getNextTokenWith(String, JavaToken): JavaToken
            +getOuterTokensWithText(String, String, JavaToken, JavaToken): Pair<JavaToken, JavaToken>
            +getLocationsFromTokens(PhysicalLocation, JavaToken, JavaToken): PhysicalLocation
            +getCodeBetweenTokens(JavaToken, JavaToken): String
            +handleSwitchStatement(Statement): SwitchStatement
        }

        class ExpressionHandler [[ExpressionHandler.html]] {
            +ExpressionHandler(JavaLanguageFrontend)
        }

        de.fraunhofer.aisec.cpg.frontends.Handler <|- - DeclarationHandler
        de.fraunhofer.aisec.cpg.frontends.LanguageFrontend <|- - JavaLanguageFrontend
        JavaLanguageFrontend - -> ExpressionHandler: expressionHandler
        JavaLanguageFrontend - -> StatementAnalyzer: statementHandler
        JavaLanguageFrontend - -> DeclarationHandler: declarationHandler
        de.fraunhofer.aisec.cpg.frontends.Handler <|- - StatementAnalyzer
        de.fraunhofer.aisec.cpg.frontends.Handler <|- - ExpressionHandler
    }

    namespace de.fraunhofer.aisec.cpg.frontends {
        abstract class Handler<S, T, L extends LanguageFrontend> [[../Handler.html]] {
            {static} #log: Logger
            #map: HashMap<Class<? extends T>, HandlerInterface<S, T>>
            #lang: L extends LanguageFrontend
        }
        abstract class LanguageFrontend [[../LanguageFrontend.html]] {
            {static} #log: Logger
            #config: TranslationConfiguration
            #scopeManager: ScopeManager
            #objectListeners: Map<Object, BiConsumer<Object, Object>>
            #predicateListeners: Map<BiPredicate<Object, Object>, BiConsumer<Object, Object>>
            #processedMapping: Map<Object, Object>
            #currentTU: TranslationUnitDeclaration
            {abstract} +parse(File): TranslationUnitDeclaration
            {abstract} +getCodeFromRawNode(T): String
            {abstract} +getLocationFromRawNode(T): PhysicalLocation
            {abstract} +setComment(S, T): void
        }
    }

    center footer UMLDoclet 2.0.9, PlantUML 1.2020.08
@enduml

PlantUML version 1.2020.08(Sun Apr 26 16:08:22 CEST 2020)
(APACHE source distribution)
Java Runtime: OpenJDK Runtime Environment
JVM: OpenJDK 64-Bit Server VM
Java Version: 12.0.2+9-Ubuntu-118.04
Operating System: Linux
Default Encoding: UTF-8
Language: en
Country: US
--></g></svg>