<?xml version="1.0" encoding="UTF-8" standalone="no"?><svg xmlns="http://www.w3.org/2000/svg" xmlns:xlink="http://www.w3.org/1999/xlink" contentScriptType="application/ecmascript" contentStyleType="text/css" height="95px" preserveAspectRatio="none" style="width:507px;height:95px;" version="1.1" viewBox="0 0 507 95" width="507px" zoomAndPan="magnify"><defs><filter height="300%" id="f1v192hd4cnoku" width="300%" x="-1" y="-1"><feGaussianBlur result="blurOut" stdDeviation="2.0"/><feColorMatrix in="blurOut" result="blurOut2" type="matrix" values="0 0 0 0 0 0 0 0 0 0 0 0 0 0 0 0 0 0 .4 0"/><feOffset dx="4.0" dy="4.0" in="blurOut2" result="blurOut3"/><feBlend in="SourceGraphic" in2="blurOut3" mode="normal"/></filter></defs><g><!--MD5=[8bb871ddcfb4e57375ff180b78888ea3]
class de.fraunhofer.aisec.cpg.frontends.LanguageFrontendFactory--><a href="LanguageFrontendFactory.html" target="_top" title="LanguageFrontendFactory.html" xlink:actuate="onRequest" xlink:href="LanguageFrontendFactory.html" xlink:show="new" xlink:title="LanguageFrontendFactory.html" xlink:type="simple"><rect fill="#FEFECE" filter="url(#f1v192hd4cnoku)" height="58.7422" id="de.fraunhofer.aisec.cpg.frontends.LanguageFrontendFactory" style="stroke: #A80036; stroke-width: 1.5;" width="489" x="7" y="7"/><ellipse cx="156.75" cy="25.9688" fill="#ADD1B2" rx="11" ry="11" style="stroke: #A80036; stroke-width: 1.0;"/><path d="M159.7188,31.6094 Q159.1406,31.9063 158.5,32.0469 Q157.8594,32.2031 157.1563,32.2031 Q154.6563,32.2031 153.3281,30.5625 Q152.0156,28.9063 152.0156,25.7813 Q152.0156,22.6563 153.3281,21 Q154.6563,19.3438 157.1563,19.3438 Q157.8594,19.3438 158.5,19.5 Q159.1563,19.6563 159.7188,19.9531 L159.7188,22.6719 Q159.0938,22.0938 158.5,21.8281 Q157.9063,21.5469 157.2813,21.5469 Q155.9375,21.5469 155.25,22.625 Q154.5625,23.6875 154.5625,25.7813 Q154.5625,27.875 155.25,28.9531 Q155.9375,30.0156 157.2813,30.0156 Q157.9063,30.0156 158.5,29.75 Q159.0938,29.4688 159.7188,28.8906 L159.7188,31.6094 Z "/><text fill="#000000" font-family="sans-serif" font-size="14" lengthAdjust="spacingAndGlyphs" textLength="181" x="177.25" y="24.9951">LanguageFrontendFactory</text><text fill="#000000" font-family="sans-serif" font-size="10" lengthAdjust="spacingAndGlyphs" textLength="164" x="185.75" y="37.5791">de.fraunhofer.aisec.cpg.frontends</text><line style="stroke: #A80036; stroke-width: 1.5;" x1="8" x2="495" y1="44.9375" y2="44.9375"/><ellipse cx="18" cy="55.9375" fill="#84BE84" rx="3" ry="3" style="stroke: #038048; stroke-width: 1.0;"/><text fill="#000000" font-family="sans-serif" font-size="11" lengthAdjust="spacingAndGlyphs" text-decoration="underline" textLength="463" x="27" y="59.1479">getFrontend(String, TranslationConfiguration, ScopeManager): LanguageFrontend</text></a><text fill="#888888" font-family="sans-serif" font-size="10" lengthAdjust="spacingAndGlyphs" textLength="186" x="158.5" y="82.0244">UMLDoclet 2.0.9, PlantUML 1.2020.08</text><!--MD5=[671f5738419b5407cc21a0c38123f9f0]
@startuml
    set namespaceSeparator none
    hide empty fields
    hide empty methods

    class "<size:14>LanguageFrontendFactory\n<size:10>de.fraunhofer.aisec.cpg.frontends" as de.fraunhofer.aisec.cpg.frontends.LanguageFrontendFactory [[LanguageFrontendFactory.html]] {
        {static} +getFrontend(String, TranslationConfiguration, ScopeManager): LanguageFrontend
    }

    center footer UMLDoclet 2.0.9, PlantUML 1.2020.08
@enduml

PlantUML version 1.2020.08(Sun Apr 26 16:08:22 CEST 2020)
(APACHE source distribution)
Java Runtime: OpenJDK Runtime Environment
JVM: OpenJDK 64-Bit Server VM
Java Version: 12.0.2+9-Ubuntu-118.04
Operating System: Linux
Default Encoding: UTF-8
Language: en
Country: US
--></g></svg>