<?xml version="1.0" encoding="UTF-8" standalone="no"?><svg xmlns="http://www.w3.org/2000/svg" xmlns:xlink="http://www.w3.org/1999/xlink" contentScriptType="application/ecmascript" contentStyleType="text/css" height="863px" preserveAspectRatio="none" style="width:1430px;height:863px;" version="1.1" viewBox="0 0 1430 863" width="1430px" zoomAndPan="magnify"><defs><filter height="300%" id="fd73uw358ayuh" width="300%" x="-1" y="-1"><feGaussianBlur result="blurOut" stdDeviation="2.0"/><feColorMatrix in="blurOut" result="blurOut2" type="matrix" values="0 0 0 0 0 0 0 0 0 0 0 0 0 0 0 0 0 0 .4 0"/><feOffset dx="4.0" dy="4.0" in="blurOut2" result="blurOut3"/><feBlend in="SourceGraphic" in2="blurOut3" mode="normal"/></filter></defs><g><!--MD5=[733ea7afc998df19735c48e2b7a590bd]
cluster de.fraunhofer.aisec.cpg.frontends--><polygon fill="#FFFFFF" filter="url(#fd73uw358ayuh)" points="22,156,301,156,308,178.2969,1408,178.2969,1408,815,22,815,22,156" style="stroke: #000000; stroke-width: 1.5;"/><line style="stroke: #000000; stroke-width: 1.5;" x1="22" x2="308" y1="178.2969" y2="178.2969"/><text fill="#000000" font-family="sans-serif" font-size="14" font-weight="bold" lengthAdjust="spacingAndGlyphs" textLength="273" x="26" y="170.9951">de.fraunhofer.aisec.cpg.frontends</text><!--MD5=[aa8f7b917213fcc1c2766e2d59b49067]
cluster java.lang--><polygon fill="#FFFFFF" filter="url(#fd73uw358ayuh)" points="502,24,577,24,584,46.2969,626,46.2969,626,123,502,123,502,24" style="stroke: #000000; stroke-width: 1.5;"/><line style="stroke: #000000; stroke-width: 1.5;" x1="502" x2="584" y1="46.2969" y2="46.2969"/><text fill="#000000" font-family="sans-serif" font-size="14" font-weight="bold" lengthAdjust="spacingAndGlyphs" textLength="69" x="506" y="38.9951">java.lang</text><!--MD5=[7aaf60bdf5840e2dacbce7cd0e282bdc]
class de.fraunhofer.aisec.cpg.frontends.LanguageFrontend--><a href="LanguageFrontend.html" target="_top" title="LanguageFrontend.html" xlink:actuate="onRequest" xlink:href="LanguageFrontend.html" xlink:show="new" xlink:title="LanguageFrontend.html" xlink:type="simple"><rect fill="#FEFECE" filter="url(#fd73uw358ayuh)" height="432.1406" id="de.fraunhofer.aisec.cpg.frontends.LanguageFrontend" style="stroke: #A80036; stroke-width: 1.5;" width="547" x="38.5" y="367"/><ellipse cx="247.75" cy="383" fill="#A9DCDF" rx="11" ry="11" style="stroke: #A80036; stroke-width: 1.0;"/><path d="M247.8594,378.3438 L246.7031,383.4219 L249.0313,383.4219 L247.8594,378.3438 Z M246.375,376.1094 L249.3594,376.1094 L252.7188,388.5 L250.2656,388.5 L249.5,385.4375 L246.2188,385.4375 L245.4688,388.5 L243.0313,388.5 L246.375,376.1094 Z "/><text fill="#000000" font-family="sans-serif" font-size="12" font-style="italic" lengthAdjust="spacingAndGlyphs" textLength="120" x="268.25" y="387.1543">LanguageFrontend</text><line style="stroke: #A80036; stroke-width: 1.5;" x1="39.5" x2="584.5" y1="399" y2="399"/><polygon fill="none" points="49.5,405,53.5,409,49.5,413,45.5,409" style="stroke: #B38D22; stroke-width: 1.0;"/><text fill="#000000" font-family="sans-serif" font-size="11" lengthAdjust="spacingAndGlyphs" text-decoration="underline" textLength="64" x="58.5" y="413.2104">log: Logger</text><polygon fill="none" points="49.5,417.8047,53.5,421.8047,49.5,425.8047,45.5,421.8047" style="stroke: #B38D22; stroke-width: 1.0;"/><text fill="#000000" font-family="sans-serif" font-size="11" lengthAdjust="spacingAndGlyphs" textLength="182" x="58.5" y="426.0151">config: TranslationConfiguration</text><polygon fill="none" points="49.5,430.6094,53.5,434.6094,49.5,438.6094,45.5,434.6094" style="stroke: #B38D22; stroke-width: 1.0;"/><text fill="#000000" font-family="sans-serif" font-size="11" lengthAdjust="spacingAndGlyphs" textLength="175" x="58.5" y="438.8198">scopeManager: ScopeManager</text><polygon fill="none" points="49.5,443.4141,53.5,447.4141,49.5,451.4141,45.5,447.4141" style="stroke: #B38D22; stroke-width: 1.0;"/><text fill="#000000" font-family="sans-serif" font-size="11" lengthAdjust="spacingAndGlyphs" textLength="348" x="58.5" y="451.6245">objectListeners: Map&lt;Object, BiConsumer&lt;Object, Object&gt;&gt;</text><polygon fill="none" points="49.5,456.2188,53.5,460.2188,49.5,464.2188,45.5,460.2188" style="stroke: #B38D22; stroke-width: 1.0;"/><text fill="#000000" font-family="sans-serif" font-size="11" lengthAdjust="spacingAndGlyphs" textLength="493" x="58.5" y="464.4292">predicateListeners: Map&lt;BiPredicate&lt;Object, Object&gt;, BiConsumer&lt;Object, Object&gt;&gt;</text><polygon fill="none" points="49.5,469.0234,53.5,473.0234,49.5,477.0234,45.5,473.0234" style="stroke: #B38D22; stroke-width: 1.0;"/><text fill="#000000" font-family="sans-serif" font-size="11" lengthAdjust="spacingAndGlyphs" textLength="236" x="58.5" y="477.2339">processedMapping: Map&lt;Object, Object&gt;</text><polygon fill="none" points="49.5,481.8281,53.5,485.8281,49.5,489.8281,45.5,485.8281" style="stroke: #B38D22; stroke-width: 1.0;"/><text fill="#000000" font-family="sans-serif" font-size="11" lengthAdjust="spacingAndGlyphs" textLength="214" x="58.5" y="490.0386">currentTU: TranslationUnitDeclaration</text><line style="stroke: #A80036; stroke-width: 1.5;" x1="39.5" x2="584.5" y1="496.6328" y2="496.6328"/><ellipse cx="49.5" cy="507.6328" fill="#84BE84" rx="3" ry="3" style="stroke: #038048; stroke-width: 1.0;"/><text fill="#000000" font-family="sans-serif" font-size="11" lengthAdjust="spacingAndGlyphs" textLength="387" x="58.5" y="510.8433">LanguageFrontend(TranslationConfiguration, ScopeManager, String)</text><ellipse cx="49.5" cy="520.4375" fill="#84BE84" rx="3" ry="3" style="stroke: #038048; stroke-width: 1.0;"/><text fill="#000000" font-family="sans-serif" font-size="11" lengthAdjust="spacingAndGlyphs" textLength="165" x="58.5" y="523.6479">process(Object, Object): void</text><ellipse cx="49.5" cy="533.2422" fill="#84BE84" rx="3" ry="3" style="stroke: #038048; stroke-width: 1.0;"/><text fill="#000000" font-family="sans-serif" font-size="11" lengthAdjust="spacingAndGlyphs" textLength="378" x="58.5" y="536.4526">registerObjectListener(Object, BiConsumer&lt;Object, Object&gt;): void</text><ellipse cx="49.5" cy="546.0469" fill="#84BE84" rx="3" ry="3" style="stroke: #038048; stroke-width: 1.0;"/><text fill="#000000" font-family="sans-serif" font-size="11" lengthAdjust="spacingAndGlyphs" textLength="521" x="58.5" y="549.2573">registerPredicateListener(BiPredicate&lt;Object, Object&gt;, BiConsumer&lt;Object, Object&gt;): void</text><ellipse cx="49.5" cy="558.8516" fill="#84BE84" rx="3" ry="3" style="stroke: #038048; stroke-width: 1.0;"/><text fill="#000000" font-family="sans-serif" font-size="11" lengthAdjust="spacingAndGlyphs" textLength="127" x="58.5" y="562.062">clearProcessed(): void</text><ellipse cx="49.5" cy="571.6563" fill="#84BE84" rx="3" ry="3" style="stroke: #038048; stroke-width: 1.0;"/><text fill="#000000" font-family="sans-serif" font-size="11" lengthAdjust="spacingAndGlyphs" textLength="250" x="58.5" y="574.8667">parseAll(): List&lt;TranslationUnitDeclaration&gt;</text><ellipse cx="49.5" cy="584.4609" fill="#84BE84" rx="3" ry="3" style="stroke: #038048; stroke-width: 1.0;"/><text fill="#000000" font-family="sans-serif" font-size="11" lengthAdjust="spacingAndGlyphs" textLength="202" x="58.5" y="587.6714">getScopeManager(): ScopeManager</text><ellipse cx="49.5" cy="597.2656" fill="#84BE84" rx="3" ry="3" style="stroke: #038048; stroke-width: 1.0;"/><text fill="#000000" font-family="sans-serif" font-size="11" lengthAdjust="spacingAndGlyphs" textLength="225" x="58.5" y="600.4761">setScopeManager(ScopeManager): void</text><ellipse cx="49.5" cy="610.0703" fill="#84BE84" rx="3" ry="3" style="stroke: #038048; stroke-width: 1.0;"/><text fill="#000000" font-family="sans-serif" font-size="11" lengthAdjust="spacingAndGlyphs" textLength="242" x="58.5" y="613.2808">getCurrentTU(): TranslationUnitDeclaration</text><ellipse cx="49.5" cy="622.875" fill="#84BE84" rx="3" ry="3" style="stroke: #038048; stroke-width: 1.0;"/><text fill="#000000" font-family="sans-serif" font-size="11" lengthAdjust="spacingAndGlyphs" textLength="265" x="58.5" y="626.0854">setCurrentTU(TranslationUnitDeclaration): void</text><ellipse cx="49.5" cy="635.6797" fill="#84BE84" rx="3" ry="3" style="stroke: #038048; stroke-width: 1.0;"/><text fill="#000000" font-family="sans-serif" font-size="11" font-style="italic" lengthAdjust="spacingAndGlyphs" textLength="216" x="58.5" y="638.8901">parse(File): TranslationUnitDeclaration</text><ellipse cx="49.5" cy="648.4844" fill="#84BE84" rx="3" ry="3" style="stroke: #038048; stroke-width: 1.0;"/><text fill="#000000" font-family="sans-serif" font-size="11" font-style="italic" lengthAdjust="spacingAndGlyphs" textLength="185" x="58.5" y="651.6948">getCodeFromRawNode(T): String</text><ellipse cx="49.5" cy="661.2891" fill="#84BE84" rx="3" ry="3" style="stroke: #038048; stroke-width: 1.0;"/><text fill="#000000" font-family="sans-serif" font-size="11" font-style="italic" lengthAdjust="spacingAndGlyphs" textLength="263" x="58.5" y="664.4995">getLocationFromRawNode(T): PhysicalLocation</text><ellipse cx="49.5" cy="674.0938" fill="#84BE84" rx="3" ry="3" style="stroke: #038048; stroke-width: 1.0;"/><text fill="#000000" font-family="sans-serif" font-size="11" lengthAdjust="spacingAndGlyphs" textLength="263" x="58.5" y="677.3042">setCodeAndRegion(NonNull N, NonNull S): void</text><ellipse cx="49.5" cy="686.8984" fill="#84BE84" rx="3" ry="3" style="stroke: #038048; stroke-width: 1.0;"/><text fill="#000000" font-family="sans-serif" font-size="11" lengthAdjust="spacingAndGlyphs" textLength="171" x="58.5" y="690.1089">getNewLineType(Node): String</text><ellipse cx="49.5" cy="699.7031" fill="#84BE84" rx="3" ry="3" style="stroke: #038048; stroke-width: 1.0;"/><text fill="#000000" font-family="sans-serif" font-size="11" lengthAdjust="spacingAndGlyphs" textLength="289" x="58.5" y="702.9136">getCodeOfSubregion(Node, Region, Region): String</text><ellipse cx="49.5" cy="712.5078" fill="#84BE84" rx="3" ry="3" style="stroke: #038048; stroke-width: 1.0;"/><text fill="#000000" font-family="sans-serif" font-size="11" lengthAdjust="spacingAndGlyphs" textLength="220" x="58.5" y="715.7183">mergeRegions(Region, Region): Region</text><ellipse cx="49.5" cy="725.3125" fill="#84BE84" rx="3" ry="3" style="stroke: #038048; stroke-width: 1.0;"/><text fill="#000000" font-family="sans-serif" font-size="11" lengthAdjust="spacingAndGlyphs" textLength="202" x="58.5" y="728.5229">addRecord(RecordDeclaration): void</text><ellipse cx="49.5" cy="738.1172" fill="#84BE84" rx="3" ry="3" style="stroke: #038048; stroke-width: 1.0;"/><text fill="#000000" font-family="sans-serif" font-size="11" lengthAdjust="spacingAndGlyphs" textLength="266" x="58.5" y="741.3276">getRecords(): Map&lt;String, RecordDeclaration&gt;</text><ellipse cx="49.5" cy="750.9219" fill="#84BE84" rx="3" ry="3" style="stroke: #038048; stroke-width: 1.0;"/><text fill="#000000" font-family="sans-serif" font-size="11" lengthAdjust="spacingAndGlyphs" textLength="83" x="58.5" y="754.1323">cleanup(): void</text><ellipse cx="49.5" cy="763.7266" fill="#84BE84" rx="3" ry="3" style="stroke: #038048; stroke-width: 1.0;"/><text fill="#000000" font-family="sans-serif" font-size="11" lengthAdjust="spacingAndGlyphs" textLength="186" x="58.5" y="766.937">getNamespaceDelimiter(): String</text><ellipse cx="49.5" cy="776.5313" fill="#84BE84" rx="3" ry="3" style="stroke: #038048; stroke-width: 1.0;"/><text fill="#000000" font-family="sans-serif" font-size="11" font-style="italic" lengthAdjust="spacingAndGlyphs" textLength="134" x="58.5" y="779.7417">setComment(S, T): void</text><ellipse cx="49.5" cy="789.3359" fill="#84BE84" rx="3" ry="3" style="stroke: #038048; stroke-width: 1.0;"/><text fill="#000000" font-family="sans-serif" font-size="11" lengthAdjust="spacingAndGlyphs" textLength="326" x="58.5" y="792.5464">getRecordForName(String): Optional&lt;RecordDeclaration&gt;</text></a><!--MD5=[134679e2631f95c77d83944aed80e07d]
class de.fraunhofer.aisec.cpg.frontends.HandlerInterface--><a href="HandlerInterface.html" target="_top" title="HandlerInterface.html" xlink:actuate="onRequest" xlink:href="HandlerInterface.html" xlink:show="new" xlink:title="HandlerInterface.html" xlink:type="simple"><rect fill="#FEFECE" filter="url(#fd73uw358ayuh)" height="60.8047" id="de.fraunhofer.aisec.cpg.frontends.HandlerInterface" style="stroke: #A80036; stroke-width: 1.5;" width="165" x="1226.5" y="210"/><ellipse cx="1241.5" cy="226" fill="#B4A7E5" rx="11" ry="11" style="stroke: #A80036; stroke-width: 1.0;"/><path d="M1237.4219,221.7656 L1237.4219,219.6094 L1244.8125,219.6094 L1244.8125,221.7656 L1242.3438,221.7656 L1242.3438,229.8438 L1244.8125,229.8438 L1244.8125,232 L1237.4219,232 L1237.4219,229.8438 L1239.8906,229.8438 L1239.8906,221.7656 L1237.4219,221.7656 Z "/><text fill="#000000" font-family="sans-serif" font-size="12" font-style="italic" lengthAdjust="spacingAndGlyphs" textLength="106" x="1255.5" y="230.1543">HandlerInterface</text><rect fill="#FFFFFF" height="15.9688" style="stroke: #000000; stroke-width: 1.0; stroke-dasharray: 2.0,2.0;" width="25" x="1369.5" y="207"/><text fill="#000000" font-family="sans-serif" font-size="12" font-style="italic" lengthAdjust="spacingAndGlyphs" textLength="23" x="1370.5" y="219.1387">S, T</text><line style="stroke: #A80036; stroke-width: 1.5;" x1="1227.5" x2="1390.5" y1="242" y2="242"/><line style="stroke: #A80036; stroke-width: 1.5;" x1="1227.5" x2="1390.5" y1="250" y2="250"/><ellipse cx="1237.5" cy="261" fill="#84BE84" rx="3" ry="3" style="stroke: #038048; stroke-width: 1.0;"/><text fill="#000000" font-family="sans-serif" font-size="11" font-style="italic" lengthAdjust="spacingAndGlyphs" textLength="68" x="1246.5" y="264.2104">handle(T): S</text></a><!--MD5=[8bb871ddcfb4e57375ff180b78888ea3]
class de.fraunhofer.aisec.cpg.frontends.LanguageFrontendFactory--><a href="LanguageFrontendFactory.html" target="_top" title="LanguageFrontendFactory.html" xlink:actuate="onRequest" xlink:href="LanguageFrontendFactory.html" xlink:show="new" xlink:title="LanguageFrontendFactory.html" xlink:type="simple"><rect fill="#FEFECE" filter="url(#fd73uw358ayuh)" height="60.8047" id="de.fraunhofer.aisec.cpg.frontends.LanguageFrontendFactory" style="stroke: #A80036; stroke-width: 1.5;" width="489" x="702.5" y="210"/><ellipse cx="860.25" cy="226" fill="#ADD1B2" rx="11" ry="11" style="stroke: #A80036; stroke-width: 1.0;"/><path d="M863.2188,231.6406 Q862.6406,231.9375 862,232.0781 Q861.3594,232.2344 860.6563,232.2344 Q858.1563,232.2344 856.8281,230.5938 Q855.5156,228.9375 855.5156,225.8125 Q855.5156,222.6875 856.8281,221.0313 Q858.1563,219.375 860.6563,219.375 Q861.3594,219.375 862,219.5313 Q862.6563,219.6875 863.2188,219.9844 L863.2188,222.7031 Q862.5938,222.125 862,221.8594 Q861.4063,221.5781 860.7813,221.5781 Q859.4375,221.5781 858.75,222.6563 Q858.0625,223.7188 858.0625,225.8125 Q858.0625,227.9063 858.75,228.9844 Q859.4375,230.0469 860.7813,230.0469 Q861.4063,230.0469 862,229.7813 Q862.5938,229.5 863.2188,228.9219 L863.2188,231.6406 Z "/><text fill="#000000" font-family="sans-serif" font-size="12" lengthAdjust="spacingAndGlyphs" textLength="165" x="880.75" y="230.1543">LanguageFrontendFactory</text><line style="stroke: #A80036; stroke-width: 1.5;" x1="703.5" x2="1190.5" y1="242" y2="242"/><line style="stroke: #A80036; stroke-width: 1.5;" x1="703.5" x2="1190.5" y1="250" y2="250"/><ellipse cx="713.5" cy="261" fill="#84BE84" rx="3" ry="3" style="stroke: #038048; stroke-width: 1.0;"/><text fill="#000000" font-family="sans-serif" font-size="11" lengthAdjust="spacingAndGlyphs" text-decoration="underline" textLength="463" x="722.5" y="264.2104">getFrontend(String, TranslationConfiguration, ScopeManager): LanguageFrontend</text></a><!--MD5=[f1c045e9ae2c34b66a13ffd73298f509]
class de.fraunhofer.aisec.cpg.frontends.TranslationException--><a href="TranslationException.html" target="_top" title="TranslationException.html" xlink:actuate="onRequest" xlink:href="TranslationException.html" xlink:show="new" xlink:title="TranslationException.html" xlink:type="simple"><rect fill="#FEFECE" filter="url(#fd73uw358ayuh)" height="73.6094" id="de.fraunhofer.aisec.cpg.frontends.TranslationException" style="stroke: #A80036; stroke-width: 1.5;" width="206" x="461" y="203.5"/><ellipse cx="495.35" cy="219.5" fill="#ADD1B2" rx="11" ry="11" style="stroke: #A80036; stroke-width: 1.0;"/><path d="M498.3188,225.1406 Q497.7406,225.4375 497.1,225.5781 Q496.4594,225.7344 495.7563,225.7344 Q493.2563,225.7344 491.9281,224.0938 Q490.6156,222.4375 490.6156,219.3125 Q490.6156,216.1875 491.9281,214.5313 Q493.2563,212.875 495.7563,212.875 Q496.4594,212.875 497.1,213.0313 Q497.7563,213.1875 498.3188,213.4844 L498.3188,216.2031 Q497.6938,215.625 497.1,215.3594 Q496.5063,215.0781 495.8813,215.0781 Q494.5375,215.0781 493.85,216.1563 Q493.1625,217.2188 493.1625,219.3125 Q493.1625,221.4063 493.85,222.4844 Q494.5375,223.5469 495.8813,223.5469 Q496.5063,223.5469 497.1,223.2813 Q497.6938,223 498.3188,222.4219 L498.3188,225.1406 Z "/><text fill="#000000" font-family="sans-serif" font-size="12" lengthAdjust="spacingAndGlyphs" textLength="131" x="513.65" y="223.6543">TranslationException</text><line style="stroke: #A80036; stroke-width: 1.5;" x1="462" x2="666" y1="235.5" y2="235.5"/><line style="stroke: #A80036; stroke-width: 1.5;" x1="462" x2="666" y1="243.5" y2="243.5"/><ellipse cx="472" cy="254.5" fill="#84BE84" rx="3" ry="3" style="stroke: #038048; stroke-width: 1.0;"/><text fill="#000000" font-family="sans-serif" font-size="11" lengthAdjust="spacingAndGlyphs" textLength="180" x="481" y="257.7104">TranslationException(Exception)</text><ellipse cx="472" cy="267.3047" fill="#84BE84" rx="3" ry="3" style="stroke: #038048; stroke-width: 1.0;"/><text fill="#000000" font-family="sans-serif" font-size="11" lengthAdjust="spacingAndGlyphs" textLength="160" x="481" y="270.5151">TranslationException(String)</text></a><!--MD5=[0d38b1d8da00c1a18e998a73bfd83290]
class de.fraunhofer.aisec.cpg.frontends.Handler--><a href="Handler.html" target="_top" title="Handler.html" xlink:actuate="onRequest" xlink:href="Handler.html" xlink:show="new" xlink:title="Handler.html" xlink:type="simple"><rect fill="#FEFECE" filter="url(#fd73uw358ayuh)" height="99.2188" id="de.fraunhofer.aisec.cpg.frontends.Handler" style="stroke: #A80036; stroke-width: 1.5;" width="388" x="38" y="191"/><ellipse cx="93.25" cy="207" fill="#A9DCDF" rx="11" ry="11" style="stroke: #A80036; stroke-width: 1.0;"/><path d="M93.3594,202.3438 L92.2031,207.4219 L94.5313,207.4219 L93.3594,202.3438 Z M91.875,200.1094 L94.8594,200.1094 L98.2188,212.5 L95.7656,212.5 L95,209.4375 L91.7188,209.4375 L90.9688,212.5 L88.5313,212.5 L91.875,200.1094 Z "/><text fill="#000000" font-family="sans-serif" font-size="12" font-style="italic" lengthAdjust="spacingAndGlyphs" textLength="49" x="113.75" y="211.1543">Handler</text><rect fill="#FFFFFF" height="15.9688" style="stroke: #000000; stroke-width: 1.0; stroke-dasharray: 2.0,2.0;" width="218" x="211" y="188"/><text fill="#000000" font-family="sans-serif" font-size="12" font-style="italic" lengthAdjust="spacingAndGlyphs" textLength="216" x="212" y="200.1387">S, T, L extends LanguageFrontend</text><line style="stroke: #A80036; stroke-width: 1.5;" x1="39" x2="425" y1="223" y2="223"/><polygon fill="none" points="49,229,53,233,49,237,45,233" style="stroke: #B38D22; stroke-width: 1.0;"/><text fill="#000000" font-family="sans-serif" font-size="11" lengthAdjust="spacingAndGlyphs" text-decoration="underline" textLength="64" x="58" y="237.2104">log: Logger</text><polygon fill="none" points="49,241.8047,53,245.8047,49,249.8047,45,245.8047" style="stroke: #B38D22; stroke-width: 1.0;"/><text fill="#000000" font-family="sans-serif" font-size="11" lengthAdjust="spacingAndGlyphs" textLength="362" x="58" y="250.0151">map: HashMap&lt;Class&lt;? extends T&gt;, HandlerInterface&lt;S, T&gt;&gt;</text><line style="stroke: #A80036; stroke-width: 1.5;" x1="39" x2="425" y1="256.6094" y2="256.6094"/><ellipse cx="49" cy="267.6094" fill="#84BE84" rx="3" ry="3" style="stroke: #038048; stroke-width: 1.0;"/><text fill="#000000" font-family="sans-serif" font-size="11" lengthAdjust="spacingAndGlyphs" textLength="95" x="58" y="270.8198">Handler(Supplier</text><text fill="#000000" font-family="sans-serif" font-size="11" lengthAdjust="spacingAndGlyphs" text-decoration="line-through" textLength="176" x="153" y="270.8198">, L extends LanguageFrontend)</text><ellipse cx="49" cy="280.4141" fill="#84BE84" rx="3" ry="3" style="stroke: #038048; stroke-width: 1.0;"/><text fill="#000000" font-family="sans-serif" font-size="11" lengthAdjust="spacingAndGlyphs" textLength="69" x="58" y="283.6245">handle(T): S</text></a><!--MD5=[46c05dfe24a0851e179497c4631d3ff2]
class java.lang.Exception--><rect fill="#FEFECE" filter="url(#fd73uw358ayuh)" height="48" id="java.lang.Exception" style="stroke: #A80036; stroke-width: 1.5;" width="93" x="517.5" y="59"/><ellipse cx="532.5" cy="75" fill="#ADD1B2" rx="11" ry="11" style="stroke: #A80036; stroke-width: 1.0;"/><path d="M535.4688,80.6406 Q534.8906,80.9375 534.25,81.0781 Q533.6094,81.2344 532.9063,81.2344 Q530.4063,81.2344 529.0781,79.5938 Q527.7656,77.9375 527.7656,74.8125 Q527.7656,71.6875 529.0781,70.0313 Q530.4063,68.375 532.9063,68.375 Q533.6094,68.375 534.25,68.5313 Q534.9063,68.6875 535.4688,68.9844 L535.4688,71.7031 Q534.8438,71.125 534.25,70.8594 Q533.6563,70.5781 533.0313,70.5781 Q531.6875,70.5781 531,71.6563 Q530.3125,72.7188 530.3125,74.8125 Q530.3125,76.9063 531,77.9844 Q531.6875,79.0469 533.0313,79.0469 Q533.6563,79.0469 534.25,78.7813 Q534.8438,78.5 535.4688,77.9219 L535.4688,80.6406 Z "/><text fill="#000000" font-family="sans-serif" font-size="12" lengthAdjust="spacingAndGlyphs" textLength="61" x="546.5" y="79.1543">Exception</text><line style="stroke: #A80036; stroke-width: 1.5;" x1="518.5" x2="609.5" y1="91" y2="91"/><line style="stroke: #A80036; stroke-width: 1.5;" x1="518.5" x2="609.5" y1="99" y2="99"/><!--MD5=[3d0f8264c03ec85a5974394a18206e7a]
reverse link java.lang.Exception to de.fraunhofer.aisec.cpg.frontends.TranslationException--><path d="M564,127.38 C564,151.3 564,180.66 564,203.34 " fill="none" id="java.lang.Exception&lt;-de.fraunhofer.aisec.cpg.frontends.TranslationException" style="stroke: #A80036; stroke-width: 1.0;"/><polygon fill="none" points="557,127.28,564,107.28,571,127.28,557,127.28" style="stroke: #A80036; stroke-width: 1.0;"/><!--MD5=[a85eddb36330ee4e14a1b4825e02b26a]
link de.fraunhofer.aisec.cpg.frontends.Handler to de.fraunhofer.aisec.cpg.frontends.LanguageFrontend--><path d="M243.46,290.29 C248.18,310.37 254,335.15 260.25,361.72 " fill="none" id="de.fraunhofer.aisec.cpg.frontends.Handler-&gt;de.fraunhofer.aisec.cpg.frontends.LanguageFrontend" style="stroke: #A80036; stroke-width: 1.0;"/><polygon fill="#A80036" points="261.42,366.7,263.2586,357.0243,260.278,361.8322,255.4701,358.8515,261.42,366.7" style="stroke: #A80036; stroke-width: 1.0;"/><text fill="#000000" font-family="sans-serif" font-size="13" lengthAdjust="spacingAndGlyphs" textLength="27" x="254" y="333.0669">lang</text><text fill="#888888" font-family="sans-serif" font-size="10" lengthAdjust="spacingAndGlyphs" textLength="186" x="628" y="850.2822">UMLDoclet 2.0.9, PlantUML 1.2020.08</text><!--MD5=[6b21b83cc0d52d1aa73965c721d48bb4]
@startuml
    namespace de.fraunhofer.aisec.cpg.frontends {

        abstract class LanguageFrontend [[LanguageFrontend.html]] {
            {static} #log: Logger
            #config: TranslationConfiguration
            #scopeManager: ScopeManager
            #objectListeners: Map<Object, BiConsumer<Object, Object>>
            #predicateListeners: Map<BiPredicate<Object, Object>, BiConsumer<Object, Object>>
            #processedMapping: Map<Object, Object>
            #currentTU: TranslationUnitDeclaration
            +LanguageFrontend(TranslationConfiguration, ScopeManager, String)
            +process(Object, Object): void
            +registerObjectListener(Object, BiConsumer<Object, Object>): void
            +registerPredicateListener(BiPredicate<Object, Object>, BiConsumer<Object, Object>): void
            +clearProcessed(): void
            +parseAll(): List<TranslationUnitDeclaration>
            +getScopeManager(): ScopeManager
            +setScopeManager(ScopeManager): void
            +getCurrentTU(): TranslationUnitDeclaration
            +setCurrentTU(TranslationUnitDeclaration): void
            {abstract} +parse(File): TranslationUnitDeclaration
            {abstract} +getCodeFromRawNode(T): String
            {abstract} +getLocationFromRawNode(T): PhysicalLocation
            +setCodeAndRegion(NonNull N, NonNull S): void
            +getNewLineType(Node): String
            +getCodeOfSubregion(Node, Region, Region): String
            +mergeRegions(Region, Region): Region
            +addRecord(RecordDeclaration): void
            +getRecords(): Map<String, RecordDeclaration>
            +cleanup(): void
            +getNamespaceDelimiter(): String
            {abstract} +setComment(S, T): void
            +getRecordForName(String): Optional<RecordDeclaration>
        }

        interface HandlerInterface<S, T> [[HandlerInterface.html]] {
            {abstract} +handle(T): S
        }

        class LanguageFrontendFactory [[LanguageFrontendFactory.html]] {
            {static} +getFrontend(String, TranslationConfiguration, ScopeManager): LanguageFrontend
        }

        class TranslationException [[TranslationException.html]] {
            +TranslationException(Exception)
            +TranslationException(String)
        }

        abstract class Handler<S, T, L extends LanguageFrontend> [[Handler.html]] {
            {static} #log: Logger
            #map: HashMap<Class<? extends T>, HandlerInterface<S, T>>
            +Handler(Supplier<S>, L extends LanguageFrontend)
            +handle(T): S
        }

        java.lang.Exception <|- - TranslationException
        Handler - -> LanguageFrontend: lang
    }

    namespace java.lang {
        class Exception {
        }
    }

    center footer UMLDoclet 2.0.9, PlantUML 1.2020.08
@enduml

PlantUML version 1.2020.08(Sun Apr 26 16:08:22 CEST 2020)
(APACHE source distribution)
Java Runtime: OpenJDK Runtime Environment
JVM: OpenJDK 64-Bit Server VM
Java Version: 12.0.2+9-Ubuntu-118.04
Operating System: Linux
Default Encoding: UTF-8
Language: en
Country: US
--></g></svg>