<?xml version="1.0" encoding="UTF-8" standalone="no"?><svg xmlns="http://www.w3.org/2000/svg" xmlns:xlink="http://www.w3.org/1999/xlink" contentScriptType="application/ecmascript" contentStyleType="text/css" height="222px" preserveAspectRatio="none" style="width:219px;height:222px;" version="1.1" viewBox="0 0 219 222" width="219px" zoomAndPan="magnify"><defs><filter height="300%" id="ft8rs758wetrd" width="300%" x="-1" y="-1"><feGaussianBlur result="blurOut" stdDeviation="2.0"/><feColorMatrix in="blurOut" result="blurOut2" type="matrix" values="0 0 0 0 0 0 0 0 0 0 0 0 0 0 0 0 0 0 .4 0"/><feOffset dx="4.0" dy="4.0" in="blurOut2" result="blurOut3"/><feBlend in="SourceGraphic" in2="blurOut3" mode="normal"/></filter></defs><g><!--MD5=[1c4aece73c1dac6bb8cc71f445685339]
class de.fraunhofer.aisec.cpg.graph.type.ObjectType.Modifier--><a href="ObjectType.Modifier.html" target="_top" title="ObjectType.Modifier.html" xlink:actuate="onRequest" xlink:href="ObjectType.Modifier.html" xlink:show="new" xlink:title="ObjectType.Modifier.html" xlink:type="simple"><rect fill="#FEFECE" filter="url(#ft8rs758wetrd)" height="84.3516" id="de.fraunhofer.aisec.cpg.graph.type.ObjectType.Modifier" style="stroke: #A80036; stroke-width: 1.5;" width="202" x="6" y="106"/><ellipse cx="21" cy="124.9688" fill="#EB937F" rx="11" ry="11" style="stroke: #A80036; stroke-width: 1.0;"/><path d="M25.1094,130.9688 L17.3906,130.9688 L17.3906,118.5781 L25.1094,118.5781 L25.1094,120.7344 L19.8438,120.7344 L19.8438,123.4063 L24.6094,123.4063 L24.6094,125.5625 L19.8438,125.5625 L19.8438,128.8125 L25.1094,128.8125 L25.1094,130.9688 Z "/><text fill="#000000" font-family="sans-serif" font-size="14" lengthAdjust="spacingAndGlyphs" textLength="137" x="51.5" y="123.9951">ObjectType.Modifier</text><text fill="#000000" font-family="sans-serif" font-size="10" lengthAdjust="spacingAndGlyphs" textLength="170" x="35" y="136.5791">de.fraunhofer.aisec.cpg.graph.type</text><line style="stroke: #A80036; stroke-width: 1.5;" x1="7" x2="207" y1="143.9375" y2="143.9375"/><ellipse cx="17" cy="154.9375" fill="none" rx="3" ry="3" style="stroke: #038048; stroke-width: 1.0;"/><text fill="#000000" font-family="sans-serif" font-size="11" lengthAdjust="spacingAndGlyphs" text-decoration="underline" textLength="43" x="26" y="158.1479">SIGNED</text><ellipse cx="17" cy="167.7422" fill="none" rx="3" ry="3" style="stroke: #038048; stroke-width: 1.0;"/><text fill="#000000" font-family="sans-serif" font-size="11" lengthAdjust="spacingAndGlyphs" text-decoration="underline" textLength="59" x="26" y="170.9526">UNSIGNED</text><ellipse cx="17" cy="180.5469" fill="none" rx="3" ry="3" style="stroke: #038048; stroke-width: 1.0;"/><text fill="#000000" font-family="sans-serif" font-size="11" lengthAdjust="spacingAndGlyphs" text-decoration="underline" textLength="96" x="26" y="183.7573">NOT_APPLICABLE</text></a><!--MD5=[5e3d6e27559f3169256da1b17e74373f]
class de.fraunhofer.aisec.cpg.graph.type.ObjectType--><a href="ObjectType.html" target="_top" title="ObjectType.html" xlink:actuate="onRequest" xlink:href="ObjectType.html" xlink:show="new" xlink:title="ObjectType.html" xlink:type="simple"><rect fill="#FEFECE" filter="url(#ft8rs758wetrd)" height="37.9375" id="de.fraunhofer.aisec.cpg.graph.type.ObjectType" style="stroke: #A80036; stroke-width: 1.5;" width="202" x="6" y="8"/><ellipse cx="21" cy="26.9688" fill="#ADD1B2" rx="11" ry="11" style="stroke: #A80036; stroke-width: 1.0;"/><path d="M23.9688,32.6094 Q23.3906,32.9063 22.75,33.0469 Q22.1094,33.2031 21.4063,33.2031 Q18.9063,33.2031 17.5781,31.5625 Q16.2656,29.9063 16.2656,26.7813 Q16.2656,23.6563 17.5781,22 Q18.9063,20.3438 21.4063,20.3438 Q22.1094,20.3438 22.75,20.5 Q23.4063,20.6563 23.9688,20.9531 L23.9688,23.6719 Q23.3438,23.0938 22.75,22.8281 Q22.1563,22.5469 21.5313,22.5469 Q20.1875,22.5469 19.5,23.625 Q18.8125,24.6875 18.8125,26.7813 Q18.8125,28.875 19.5,29.9531 Q20.1875,31.0156 21.5313,31.0156 Q22.1563,31.0156 22.75,30.75 Q23.3438,30.4688 23.9688,29.8906 L23.9688,32.6094 Z "/><text fill="#000000" font-family="sans-serif" font-size="14" lengthAdjust="spacingAndGlyphs" textLength="79" x="80.5" y="25.9951">ObjectType</text><text fill="#000000" font-family="sans-serif" font-size="10" lengthAdjust="spacingAndGlyphs" textLength="170" x="35" y="38.5791">de.fraunhofer.aisec.cpg.graph.type</text></a><!--MD5=[de4a40e5cb62ce071b47d77ca9b61cce]
reverse link de.fraunhofer.aisec.cpg.graph.type.ObjectType to de.fraunhofer.aisec.cpg.graph.type.ObjectType.Modifier--><path d="M107,61.45 C107,75.22 107,91.3 107,105.78 " fill="none" id="de.fraunhofer.aisec.cpg.graph.type.ObjectType&lt;-de.fraunhofer.aisec.cpg.graph.type.ObjectType.Modifier" style="stroke: #A80036; stroke-width: 1.0;"/><ellipse cx="107" cy="54.07" fill="#FFFFFF" rx="8" ry="8" style="stroke: #A80036; stroke-width: 1.0;"/><line style="stroke: #A80036; stroke-width: 1.0;" x1="107" x2="107" y1="62.07" y2="46.07"/><line style="stroke: #A80036; stroke-width: 1.0;" x1="99" x2="115" y1="54.07" y2="54.07"/><text fill="#888888" font-family="sans-serif" font-size="10" lengthAdjust="spacingAndGlyphs" textLength="186" x="20" y="209.2822">UMLDoclet 2.0.9, PlantUML 1.2020.08</text><!--MD5=[ff3a65e14a5926ae1277705f4d7bbb80]
@startuml
    set namespaceSeparator none
    hide empty fields
    hide empty methods

    enum "<size:14>ObjectType.Modifier\n<size:10>de.fraunhofer.aisec.cpg.graph.type" as de.fraunhofer.aisec.cpg.graph.type.ObjectType.Modifier [[ObjectType.Modifier.html]] {
        {static} +SIGNED
        {static} +UNSIGNED
        {static} +NOT_APPLICABLE
    }

    class "<size:14>ObjectType\n<size:10>de.fraunhofer.aisec.cpg.graph.type" as de.fraunhofer.aisec.cpg.graph.type.ObjectType [[ObjectType.html]]

    de.fraunhofer.aisec.cpg.graph.type.ObjectType +- - de.fraunhofer.aisec.cpg.graph.type.ObjectType.Modifier

    center footer UMLDoclet 2.0.9, PlantUML 1.2020.08
@enduml

PlantUML version 1.2020.08(Sun Apr 26 16:08:22 CEST 2020)
(APACHE source distribution)
Java Runtime: OpenJDK Runtime Environment
JVM: OpenJDK 64-Bit Server VM
Java Version: 12.0.2+9-Ubuntu-118.04
Operating System: Linux
Default Encoding: UTF-8
Language: en
Country: US
--></g></svg>