<?xml version="1.0" encoding="UTF-8" standalone="no"?><svg xmlns="http://www.w3.org/2000/svg" xmlns:xlink="http://www.w3.org/1999/xlink" contentScriptType="application/ecmascript" contentStyleType="text/css" height="210px" preserveAspectRatio="none" style="width:225px;height:210px;" version="1.1" viewBox="0 0 225 210" width="225px" zoomAndPan="magnify"><defs><filter height="300%" id="f7gb6yf31fczh" width="300%" x="-1" y="-1"><feGaussianBlur result="blurOut" stdDeviation="2.0"/><feColorMatrix in="blurOut" result="blurOut2" type="matrix" values="0 0 0 0 0 0 0 0 0 0 0 0 0 0 0 0 0 0 .4 0"/><feOffset dx="4.0" dy="4.0" in="blurOut2" result="blurOut3"/><feBlend in="SourceGraphic" in2="blurOut3" mode="normal"/></filter></defs><g><!--MD5=[10225fa8454f7f929614a3bdb1d38e1e]
class de.fraunhofer.aisec.cpg.graph.type.PointerType.PointerOrigin--><a href="PointerType.PointerOrigin.html" target="_top" title="PointerType.PointerOrigin.html" xlink:actuate="onRequest" xlink:href="PointerType.PointerOrigin.html" xlink:show="new" xlink:title="PointerType.PointerOrigin.html" xlink:type="simple"><rect fill="#FEFECE" filter="url(#f7gb6yf31fczh)" height="71.5469" id="de.fraunhofer.aisec.cpg.graph.type.PointerType.PointerOrigin" style="stroke: #A80036; stroke-width: 1.5;" width="208" x="6" y="106"/><ellipse cx="21" cy="124.9688" fill="#EB937F" rx="11" ry="11" style="stroke: #A80036; stroke-width: 1.0;"/><path d="M25.1094,130.9688 L17.3906,130.9688 L17.3906,118.5781 L25.1094,118.5781 L25.1094,120.7344 L19.8438,120.7344 L19.8438,123.4063 L24.6094,123.4063 L24.6094,125.5625 L19.8438,125.5625 L19.8438,128.8125 L25.1094,128.8125 L25.1094,130.9688 Z "/><text fill="#000000" font-family="sans-serif" font-size="14" lengthAdjust="spacingAndGlyphs" textLength="176" x="35" y="123.9951">PointerType.PointerOrigin</text><text fill="#000000" font-family="sans-serif" font-size="10" lengthAdjust="spacingAndGlyphs" textLength="170" x="38" y="136.5791">de.fraunhofer.aisec.cpg.graph.type</text><line style="stroke: #A80036; stroke-width: 1.5;" x1="7" x2="213" y1="143.9375" y2="143.9375"/><ellipse cx="17" cy="154.9375" fill="none" rx="3" ry="3" style="stroke: #038048; stroke-width: 1.0;"/><text fill="#000000" font-family="sans-serif" font-size="11" lengthAdjust="spacingAndGlyphs" text-decoration="underline" textLength="48" x="26" y="158.1479">POINTER</text><ellipse cx="17" cy="167.7422" fill="none" rx="3" ry="3" style="stroke: #038048; stroke-width: 1.0;"/><text fill="#000000" font-family="sans-serif" font-size="11" lengthAdjust="spacingAndGlyphs" text-decoration="underline" textLength="35" x="26" y="170.9526">ARRAY</text></a><!--MD5=[d9cdcd2552872d3167774b0a07ff92b8]
class de.fraunhofer.aisec.cpg.graph.type.PointerType--><a href="PointerType.html" target="_top" title="PointerType.html" xlink:actuate="onRequest" xlink:href="PointerType.html" xlink:show="new" xlink:title="PointerType.html" xlink:type="simple"><rect fill="#FEFECE" filter="url(#f7gb6yf31fczh)" height="37.9375" id="de.fraunhofer.aisec.cpg.graph.type.PointerType" style="stroke: #A80036; stroke-width: 1.5;" width="202" x="9" y="8"/><ellipse cx="24" cy="26.9688" fill="#ADD1B2" rx="11" ry="11" style="stroke: #A80036; stroke-width: 1.0;"/><path d="M26.9688,32.6094 Q26.3906,32.9063 25.75,33.0469 Q25.1094,33.2031 24.4063,33.2031 Q21.9063,33.2031 20.5781,31.5625 Q19.2656,29.9063 19.2656,26.7813 Q19.2656,23.6563 20.5781,22 Q21.9063,20.3438 24.4063,20.3438 Q25.1094,20.3438 25.75,20.5 Q26.4063,20.6563 26.9688,20.9531 L26.9688,23.6719 Q26.3438,23.0938 25.75,22.8281 Q25.1563,22.5469 24.5313,22.5469 Q23.1875,22.5469 22.5,23.625 Q21.8125,24.6875 21.8125,26.7813 Q21.8125,28.875 22.5,29.9531 Q23.1875,31.0156 24.5313,31.0156 Q25.1563,31.0156 25.75,30.75 Q26.3438,30.4688 26.9688,29.8906 L26.9688,32.6094 Z "/><text fill="#000000" font-family="sans-serif" font-size="14" lengthAdjust="spacingAndGlyphs" textLength="83" x="81.5" y="25.9951">PointerType</text><text fill="#000000" font-family="sans-serif" font-size="10" lengthAdjust="spacingAndGlyphs" textLength="170" x="38" y="38.5791">de.fraunhofer.aisec.cpg.graph.type</text></a><!--MD5=[511e76182845e97bcfa2a1ff12ed7d7d]
reverse link de.fraunhofer.aisec.cpg.graph.type.PointerType to de.fraunhofer.aisec.cpg.graph.type.PointerType.PointerOrigin--><path d="M110,61.21 C110,75.15 110,91.38 110,105.56 " fill="none" id="de.fraunhofer.aisec.cpg.graph.type.PointerType&lt;-de.fraunhofer.aisec.cpg.graph.type.PointerType.PointerOrigin" style="stroke: #A80036; stroke-width: 1.0;"/><ellipse cx="110" cy="54.16" fill="#FFFFFF" rx="8" ry="8" style="stroke: #A80036; stroke-width: 1.0;"/><line style="stroke: #A80036; stroke-width: 1.0;" x1="110" x2="110" y1="62.16" y2="46.16"/><line style="stroke: #A80036; stroke-width: 1.0;" x1="102" x2="118" y1="54.16" y2="54.16"/><text fill="#888888" font-family="sans-serif" font-size="10" lengthAdjust="spacingAndGlyphs" textLength="186" x="23" y="197.2822">UMLDoclet 2.0.9, PlantUML 1.2020.08</text><!--MD5=[43102ef3c4ad574a783575d701b0ca57]
@startuml
    set namespaceSeparator none
    hide empty fields
    hide empty methods

    enum "<size:14>PointerType.PointerOrigin\n<size:10>de.fraunhofer.aisec.cpg.graph.type" as de.fraunhofer.aisec.cpg.graph.type.PointerType.PointerOrigin [[PointerType.PointerOrigin.html]] {
        {static} +POINTER
        {static} +ARRAY
    }

    class "<size:14>PointerType\n<size:10>de.fraunhofer.aisec.cpg.graph.type" as de.fraunhofer.aisec.cpg.graph.type.PointerType [[PointerType.html]]

    de.fraunhofer.aisec.cpg.graph.type.PointerType +- - de.fraunhofer.aisec.cpg.graph.type.PointerType.PointerOrigin

    center footer UMLDoclet 2.0.9, PlantUML 1.2020.08
@enduml

PlantUML version 1.2020.08(Sun Apr 26 16:08:22 CEST 2020)
(APACHE source distribution)
Java Runtime: OpenJDK Runtime Environment
JVM: OpenJDK 64-Bit Server VM
Java Version: 12.0.2+9-Ubuntu-118.04
Operating System: Linux
Default Encoding: UTF-8
Language: en
Country: US
--></g></svg>