<?xml version="1.0" encoding="UTF-8" standalone="no"?><svg xmlns="http://www.w3.org/2000/svg" xmlns:xlink="http://www.w3.org/1999/xlink" contentScriptType="application/ecmascript" contentStyleType="text/css" height="244px" preserveAspectRatio="none" style="width:309px;height:244px;" version="1.1" viewBox="0 0 309 244" width="309px" zoomAndPan="magnify"><defs><filter height="300%" id="fg965j04nbkvy" width="300%" x="-1" y="-1"><feGaussianBlur result="blurOut" stdDeviation="2.0"/><feColorMatrix in="blurOut" result="blurOut2" type="matrix" values="0 0 0 0 0 0 0 0 0 0 0 0 0 0 0 0 0 0 .4 0"/><feOffset dx="4.0" dy="4.0" in="blurOut2" result="blurOut3"/><feBlend in="SourceGraphic" in2="blurOut3" mode="normal"/></filter></defs><g><!--MD5=[d2a41aaee34f829b87d0420099cdae16]
class de.fraunhofer.aisec.cpg.graph.type.QualifierConverter--><a href="QualifierConverter.html" target="_top" title="QualifierConverter.html" xlink:actuate="onRequest" xlink:href="QualifierConverter.html" xlink:show="new" xlink:title="QualifierConverter.html" xlink:type="simple"><rect fill="#FEFECE" filter="url(#fg965j04nbkvy)" height="71.5469" id="de.fraunhofer.aisec.cpg.graph.type.QualifierConverter" style="stroke: #A80036; stroke-width: 1.5;" width="284" x="8.5" y="140"/><ellipse cx="61.25" cy="158.9688" fill="#ADD1B2" rx="11" ry="11" style="stroke: #A80036; stroke-width: 1.0;"/><path d="M64.2188,164.6094 Q63.6406,164.9063 63,165.0469 Q62.3594,165.2031 61.6563,165.2031 Q59.1563,165.2031 57.8281,163.5625 Q56.5156,161.9063 56.5156,158.7813 Q56.5156,155.6563 57.8281,154 Q59.1563,152.3438 61.6563,152.3438 Q62.3594,152.3438 63,152.5 Q63.6563,152.6563 64.2188,152.9531 L64.2188,155.6719 Q63.5938,155.0938 63,154.8281 Q62.4063,154.5469 61.7813,154.5469 Q60.4375,154.5469 59.75,155.625 Q59.0625,156.6875 59.0625,158.7813 Q59.0625,160.875 59.75,161.9531 Q60.4375,163.0156 61.7813,163.0156 Q62.4063,163.0156 63,162.75 Q63.5938,162.4688 64.2188,161.8906 L64.2188,164.6094 Z "/><text fill="#000000" font-family="sans-serif" font-size="14" lengthAdjust="spacingAndGlyphs" textLength="123" x="105.25" y="157.9951">QualifierConverter</text><text fill="#000000" font-family="sans-serif" font-size="10" lengthAdjust="spacingAndGlyphs" textLength="170" x="81.75" y="170.5791">de.fraunhofer.aisec.cpg.graph.type</text><line style="stroke: #A80036; stroke-width: 1.5;" x1="9.5" x2="291.5" y1="177.9375" y2="177.9375"/><ellipse cx="19.5" cy="188.9375" fill="#84BE84" rx="3" ry="3" style="stroke: #038048; stroke-width: 1.0;"/><text fill="#000000" font-family="sans-serif" font-size="11" lengthAdjust="spacingAndGlyphs" textLength="258" x="28.5" y="192.1479">toGraphProperties(Qualifier): Map&lt;String, ?&gt;</text><ellipse cx="19.5" cy="201.7422" fill="#84BE84" rx="3" ry="3" style="stroke: #038048; stroke-width: 1.0;"/><text fill="#000000" font-family="sans-serif" font-size="11" lengthAdjust="spacingAndGlyphs" textLength="243" x="28.5" y="204.9526">toEntityAttribute(Map&lt;String, ?&gt;): Qualifier</text></a><!--MD5=[618b62cb0f69681de7e06507132a444b]
class org.neo4j.ogm.typeconversion.CompositeAttributeConverter--><rect fill="#FEFECE" filter="url(#fg965j04nbkvy)" height="71.5469" id="org.neo4j.ogm.typeconversion.CompositeAttributeConverter" style="stroke: #A80036; stroke-width: 1.5;" width="289" x="6" y="8"/><ellipse cx="21" cy="26.9688" fill="#B4A7E5" rx="11" ry="11" style="stroke: #A80036; stroke-width: 1.0;"/><path d="M16.9219,22.7344 L16.9219,20.5781 L24.3125,20.5781 L24.3125,22.7344 L21.8438,22.7344 L21.8438,30.8125 L24.3125,30.8125 L24.3125,32.9688 L16.9219,32.9688 L16.9219,30.8125 L19.3906,30.8125 L19.3906,22.7344 L16.9219,22.7344 Z "/><text fill="#000000" font-family="sans-serif" font-size="14" font-style="italic" lengthAdjust="spacingAndGlyphs" textLength="203" x="35" y="25.9951">CompositeAttributeConverter</text><text fill="#000000" font-family="sans-serif" font-size="10" font-style="italic" lengthAdjust="spacingAndGlyphs" textLength="150" x="61.5" y="38.5791">org.neo4j.ogm.typeconversion</text><rect fill="#FFFFFF" height="15.9688" style="stroke: #000000; stroke-width: 1.0; stroke-dasharray: 2.0,2.0;" width="52" x="246" y="5"/><text fill="#000000" font-family="sans-serif" font-size="12" font-style="italic" lengthAdjust="spacingAndGlyphs" textLength="50" x="247" y="17.1387">Qualifier</text><line style="stroke: #A80036; stroke-width: 1.5;" x1="7" x2="294" y1="45.9375" y2="45.9375"/><ellipse cx="17" cy="56.9375" fill="#84BE84" rx="3" ry="3" style="stroke: #038048; stroke-width: 1.0;"/><text fill="#000000" font-family="sans-serif" font-size="11" font-style="italic" lengthAdjust="spacingAndGlyphs" textLength="256" x="26" y="60.1479">toGraphProperties(Qualifier): Map&lt;String, ?&gt;</text><ellipse cx="17" cy="69.7422" fill="#84BE84" rx="3" ry="3" style="stroke: #038048; stroke-width: 1.0;"/><text fill="#000000" font-family="sans-serif" font-size="11" font-style="italic" lengthAdjust="spacingAndGlyphs" textLength="244" x="26" y="72.9526">toEntityAttribute(Map&lt;String, ?&gt;): Qualifier</text><!--MD5=[2ecf385ac8b96eac3673942722fd0225]
reverse link org.neo4j.ogm.typeconversion.CompositeAttributeConverter to de.fraunhofer.aisec.cpg.graph.type.QualifierConverter--><path d="M150.5,100.38 C150.5,113.74 150.5,127.65 150.5,139.79 " fill="none" id="org.neo4j.ogm.typeconversion.CompositeAttributeConverter&lt;-de.fraunhofer.aisec.cpg.graph.type.QualifierConverter" style="stroke: #A80036; stroke-width: 1.0; stroke-dasharray: 7.0,7.0;"/><polygon fill="none" points="143.5,100.18,150.5,80.18,157.5,100.18,143.5,100.18" style="stroke: #A80036; stroke-width: 1.0;"/><text fill="#888888" font-family="sans-serif" font-size="10" lengthAdjust="spacingAndGlyphs" textLength="186" x="63.5" y="231.2822">UMLDoclet 2.0.9, PlantUML 1.2020.08</text><!--MD5=[33bed7b44474571a63d6a95e12381dff]
@startuml
    set namespaceSeparator none
    hide empty fields
    hide empty methods

    class "<size:14>QualifierConverter\n<size:10>de.fraunhofer.aisec.cpg.graph.type" as de.fraunhofer.aisec.cpg.graph.type.QualifierConverter [[QualifierConverter.html]] {
        +toGraphProperties(Qualifier): Map<String, ?>
        +toEntityAttribute(Map<String, ?>): Qualifier
    }

    interface "<size:14>CompositeAttributeConverter\n<size:10>org.neo4j.ogm.typeconversion" as org.neo4j.ogm.typeconversion.CompositeAttributeConverter<Qualifier> {
        {abstract} +toGraphProperties(Qualifier): Map<String, ?>
        {abstract} +toEntityAttribute(Map<String, ?>): Qualifier
    }

    org.neo4j.ogm.typeconversion.CompositeAttributeConverter <|.. de.fraunhofer.aisec.cpg.graph.type.QualifierConverter

    center footer UMLDoclet 2.0.9, PlantUML 1.2020.08
@enduml

PlantUML version 1.2020.08(Sun Apr 26 16:08:22 CEST 2020)
(APACHE source distribution)
Java Runtime: OpenJDK Runtime Environment
JVM: OpenJDK 64-Bit Server VM
Java Version: 12.0.2+9-Ubuntu-118.04
Operating System: Linux
Default Encoding: UTF-8
Language: en
Country: US
--></g></svg>