<?xml version="1.0" encoding="UTF-8" standalone="no"?><svg xmlns="http://www.w3.org/2000/svg" xmlns:xlink="http://www.w3.org/1999/xlink" contentScriptType="application/ecmascript" contentStyleType="text/css" height="610px" preserveAspectRatio="none" style="width:693px;height:610px;" version="1.1" viewBox="0 0 693 610" width="693px" zoomAndPan="magnify"><defs><filter height="300%" id="f1bo44ru4pknqa" width="300%" x="-1" y="-1"><feGaussianBlur result="blurOut" stdDeviation="2.0"/><feColorMatrix in="blurOut" result="blurOut2" type="matrix" values="0 0 0 0 0 0 0 0 0 0 0 0 0 0 0 0 0 0 .4 0"/><feOffset dx="4.0" dy="4.0" in="blurOut2" result="blurOut3"/><feBlend in="SourceGraphic" in2="blurOut3" mode="normal"/></filter></defs><g><!--MD5=[3866cdf684664279cf1e955b13aec5cd]
class de.fraunhofer.aisec.cpg.graph.type.Type--><a href="Type.html" target="_top" title="Type.html" xlink:actuate="onRequest" xlink:href="Type.html" xlink:show="new" xlink:title="Type.html" xlink:type="simple"><rect fill="#FEFECE" filter="url(#f1bo44ru4pknqa)" height="374.0547" id="de.fraunhofer.aisec.cpg.graph.type.Type" style="stroke: #A80036; stroke-width: 1.5;" width="254" x="217" y="106"/><ellipse cx="254.05" cy="124.9688" fill="#A9DCDF" rx="11" ry="11" style="stroke: #A80036; stroke-width: 1.0;"/><path d="M254.1594,120.3125 L253.0031,125.3906 L255.3313,125.3906 L254.1594,120.3125 Z M252.675,118.0781 L255.6594,118.0781 L259.0188,130.4688 L256.5656,130.4688 L255.8,127.4063 L252.5188,127.4063 L251.7688,130.4688 L249.3313,130.4688 L252.675,118.0781 Z "/><text fill="#000000" font-family="sans-serif" font-size="14" font-style="italic" lengthAdjust="spacingAndGlyphs" textLength="35" x="341.95" y="123.9951">Type</text><text fill="#000000" font-family="sans-serif" font-size="10" font-style="italic" lengthAdjust="spacingAndGlyphs" textLength="173" x="272.95" y="136.5791">de.fraunhofer.aisec.cpg.graph.type</text><line style="stroke: #A80036; stroke-width: 1.5;" x1="218" x2="470" y1="143.9375" y2="143.9375"/><ellipse cx="228" cy="154.9375" fill="none" rx="3" ry="3" style="stroke: #038048; stroke-width: 1.0;"/><text fill="#000000" font-family="sans-serif" font-size="11" lengthAdjust="spacingAndGlyphs" text-decoration="underline" textLength="181" x="237" y="158.1479">UNKNOWN_TYPE_STRING: String</text><polygon fill="none" points="228,162.7422,232,166.7422,228,170.7422,224,166.7422" style="stroke: #B38D22; stroke-width: 1.0;"/><text fill="#000000" font-family="sans-serif" font-size="11" lengthAdjust="spacingAndGlyphs" textLength="97" x="237" y="170.9526">storage: Storage</text><polygon fill="none" points="228,175.5469,232,179.5469,228,183.5469,224,179.5469" style="stroke: #B38D22; stroke-width: 1.0;"/><text fill="#000000" font-family="sans-serif" font-size="11" lengthAdjust="spacingAndGlyphs" textLength="102" x="237" y="183.7573">qualifier: Qualifier</text><polygon fill="none" points="228,188.3516,232,192.3516,228,196.3516,224,192.3516" style="stroke: #B38D22; stroke-width: 1.0;"/><text fill="#000000" font-family="sans-serif" font-size="11" lengthAdjust="spacingAndGlyphs" textLength="74" x="237" y="196.562">origin: Origin</text><line style="stroke: #A80036; stroke-width: 1.5;" x1="218" x2="470" y1="203.1563" y2="203.1563"/><ellipse cx="228" cy="214.1563" fill="#84BE84" rx="3" ry="3" style="stroke: #038048; stroke-width: 1.0;"/><text fill="#000000" font-family="sans-serif" font-size="11" lengthAdjust="spacingAndGlyphs" textLength="35" x="237" y="217.3667">Type()</text><ellipse cx="228" cy="226.9609" fill="#84BE84" rx="3" ry="3" style="stroke: #038048; stroke-width: 1.0;"/><text fill="#000000" font-family="sans-serif" font-size="11" lengthAdjust="spacingAndGlyphs" textLength="69" x="237" y="230.1714">Type(String)</text><ellipse cx="228" cy="239.7656" fill="#84BE84" rx="3" ry="3" style="stroke: #038048; stroke-width: 1.0;"/><text fill="#000000" font-family="sans-serif" font-size="11" lengthAdjust="spacingAndGlyphs" textLength="62" x="237" y="242.9761">Type(Type)</text><ellipse cx="228" cy="252.5703" fill="#84BE84" rx="3" ry="3" style="stroke: #038048; stroke-width: 1.0;"/><text fill="#000000" font-family="sans-serif" font-size="11" lengthAdjust="spacingAndGlyphs" textLength="178" x="237" y="255.7808">Type(String, Storage, Qualifier)</text><ellipse cx="228" cy="265.375" fill="#84BE84" rx="3" ry="3" style="stroke: #038048; stroke-width: 1.0;"/><text fill="#000000" font-family="sans-serif" font-size="11" lengthAdjust="spacingAndGlyphs" textLength="124" x="237" y="268.5854">getStorage(): Storage</text><ellipse cx="228" cy="278.1797" fill="#84BE84" rx="3" ry="3" style="stroke: #038048; stroke-width: 1.0;"/><text fill="#000000" font-family="sans-serif" font-size="11" lengthAdjust="spacingAndGlyphs" textLength="147" x="237" y="281.3901">setStorage(Storage): void</text><ellipse cx="228" cy="290.9844" fill="#84BE84" rx="3" ry="3" style="stroke: #038048; stroke-width: 1.0;"/><text fill="#000000" font-family="sans-serif" font-size="11" lengthAdjust="spacingAndGlyphs" textLength="130" x="237" y="294.1948">getQualifier(): Qualifier</text><ellipse cx="228" cy="303.7891" fill="#84BE84" rx="3" ry="3" style="stroke: #038048; stroke-width: 1.0;"/><text fill="#000000" font-family="sans-serif" font-size="11" lengthAdjust="spacingAndGlyphs" textLength="153" x="237" y="306.9995">setQualifier(Qualifier): void</text><ellipse cx="228" cy="316.5938" fill="#84BE84" rx="3" ry="3" style="stroke: #038048; stroke-width: 1.0;"/><text fill="#000000" font-family="sans-serif" font-size="11" lengthAdjust="spacingAndGlyphs" textLength="129" x="237" y="319.8042">getTypeOrigin(): Origin</text><ellipse cx="228" cy="329.3984" fill="#84BE84" rx="3" ry="3" style="stroke: #038048; stroke-width: 1.0;"/><text fill="#000000" font-family="sans-serif" font-size="11" lengthAdjust="spacingAndGlyphs" textLength="152" x="237" y="332.6089">setTypeOrigin(Origin): void</text><ellipse cx="228" cy="342.2031" fill="#84BE84" rx="3" ry="3" style="stroke: #038048; stroke-width: 1.0;"/><text fill="#000000" font-family="sans-serif" font-size="11" font-style="italic" lengthAdjust="spacingAndGlyphs" textLength="173" x="237" y="345.4136">reference(PointerOrigin): Type</text><ellipse cx="228" cy="355.0078" fill="#84BE84" rx="3" ry="3" style="stroke: #038048; stroke-width: 1.0;"/><text fill="#000000" font-family="sans-serif" font-size="11" font-style="italic" lengthAdjust="spacingAndGlyphs" textLength="113" x="237" y="358.2183">dereference(): Type</text><ellipse cx="228" cy="367.8125" fill="#84BE84" rx="3" ry="3" style="stroke: #038048; stroke-width: 1.0;"/><text fill="#000000" font-family="sans-serif" font-size="11" lengthAdjust="spacingAndGlyphs" textLength="121" x="237" y="371.0229">refreshNames(): void</text><ellipse cx="228" cy="380.6172" fill="#84BE84" rx="3" ry="3" style="stroke: #038048; stroke-width: 1.0;"/><text fill="#000000" font-family="sans-serif" font-size="11" lengthAdjust="spacingAndGlyphs" textLength="86" x="237" y="383.8276">getRoot(): Type</text><ellipse cx="228" cy="393.4219" fill="#84BE84" rx="3" ry="3" style="stroke: #038048; stroke-width: 1.0;"/><text fill="#000000" font-family="sans-serif" font-size="11" lengthAdjust="spacingAndGlyphs" textLength="109" x="237" y="396.6323">setRoot(Type): void</text><ellipse cx="228" cy="406.2266" fill="#84BE84" rx="3" ry="3" style="stroke: #038048; stroke-width: 1.0;"/><text fill="#000000" font-family="sans-serif" font-size="11" font-style="italic" lengthAdjust="spacingAndGlyphs" textLength="95" x="237" y="409.437">duplicate(): Type</text><ellipse cx="228" cy="419.0313" fill="#84BE84" rx="3" ry="3" style="stroke: #038048; stroke-width: 1.0;"/><text fill="#000000" font-family="sans-serif" font-size="11" lengthAdjust="spacingAndGlyphs" textLength="128" x="237" y="422.2417">getTypeName(): String</text><ellipse cx="228" cy="431.8359" fill="#84BE84" rx="3" ry="3" style="stroke: #038048; stroke-width: 1.0;"/><text fill="#000000" font-family="sans-serif" font-size="11" lengthAdjust="spacingAndGlyphs" textLength="138" x="237" y="435.0464">getReferenceDepth(): int</text><ellipse cx="228" cy="444.6406" fill="#84BE84" rx="3" ry="3" style="stroke: #038048; stroke-width: 1.0;"/><text fill="#000000" font-family="sans-serif" font-size="11" lengthAdjust="spacingAndGlyphs" textLength="228" x="237" y="447.8511">setAdditionalTypeKeywords(String): void</text><ellipse cx="228" cy="457.4453" fill="#84BE84" rx="3" ry="3" style="stroke: #038048; stroke-width: 1.0;"/><text fill="#000000" font-family="sans-serif" font-size="11" lengthAdjust="spacingAndGlyphs" textLength="156" x="237" y="460.6558">isFirstOrderType(): boolean</text><ellipse cx="228" cy="470.25" fill="#84BE84" rx="3" ry="3" style="stroke: #038048; stroke-width: 1.0;"/><text fill="#000000" font-family="sans-serif" font-size="11" lengthAdjust="spacingAndGlyphs" textLength="138" x="237" y="473.4604">isSimilar(Type): boolean</text></a><!--MD5=[f81c6146b1d076807881e8ef0d844bc2]
class de.fraunhofer.aisec.cpg.graph.Node--><a href="../Node.html" target="_top" title="../Node.html" xlink:actuate="onRequest" xlink:href="../Node.html" xlink:show="new" xlink:title="../Node.html" xlink:type="simple"><rect fill="#FEFECE" filter="url(#f1bo44ru4pknqa)" height="37.9375" id="de.fraunhofer.aisec.cpg.graph.Node" style="stroke: #A80036; stroke-width: 1.5;" width="177" x="255.5" y="8"/><ellipse cx="270.5" cy="26.9688" fill="#ADD1B2" rx="11" ry="11" style="stroke: #A80036; stroke-width: 1.0;"/><path d="M273.4688,32.6094 Q272.8906,32.9063 272.25,33.0469 Q271.6094,33.2031 270.9063,33.2031 Q268.4063,33.2031 267.0781,31.5625 Q265.7656,29.9063 265.7656,26.7813 Q265.7656,23.6563 267.0781,22 Q268.4063,20.3438 270.9063,20.3438 Q271.6094,20.3438 272.25,20.5 Q272.9063,20.6563 273.4688,20.9531 L273.4688,23.6719 Q272.8438,23.0938 272.25,22.8281 Q271.6563,22.5469 271.0313,22.5469 Q269.6875,22.5469 269,23.625 Q268.3125,24.6875 268.3125,26.7813 Q268.3125,28.875 269,29.9531 Q269.6875,31.0156 271.0313,31.0156 Q271.6563,31.0156 272.25,30.75 Q272.8438,30.4688 273.4688,29.8906 L273.4688,32.6094 Z "/><text fill="#000000" font-family="sans-serif" font-size="14" lengthAdjust="spacingAndGlyphs" textLength="37" x="338.5" y="25.9951">Node</text><text fill="#000000" font-family="sans-serif" font-size="10" lengthAdjust="spacingAndGlyphs" textLength="145" x="284.5" y="38.5791">de.fraunhofer.aisec.cpg.graph</text></a><!--MD5=[bc50b8392b934b994b590bc2c467df64]
class de.fraunhofer.aisec.cpg.graph.type.Type.Storage--><a href="Type.Storage.html" target="_top" title="Type.Storage.html" xlink:actuate="onRequest" xlink:href="Type.Storage.html" xlink:show="new" xlink:title="Type.Storage.html" xlink:type="simple"><rect fill="#FEFECE" filter="url(#f1bo44ru4pknqa)" height="37.9375" id="de.fraunhofer.aisec.cpg.graph.type.Type.Storage" style="stroke: #A80036; stroke-width: 1.5;" width="202" x="6" y="540"/><ellipse cx="21" cy="558.9688" fill="#EB937F" rx="11" ry="11" style="stroke: #A80036; stroke-width: 1.0;"/><path d="M25.1094,564.9688 L17.3906,564.9688 L17.3906,552.5781 L25.1094,552.5781 L25.1094,554.7344 L19.8438,554.7344 L19.8438,557.4063 L24.6094,557.4063 L24.6094,559.5625 L19.8438,559.5625 L19.8438,562.8125 L25.1094,562.8125 L25.1094,564.9688 Z "/><text fill="#000000" font-family="sans-serif" font-size="14" lengthAdjust="spacingAndGlyphs" textLength="92" x="74" y="557.9951">Type.Storage</text><text fill="#000000" font-family="sans-serif" font-size="10" lengthAdjust="spacingAndGlyphs" textLength="170" x="35" y="570.5791">de.fraunhofer.aisec.cpg.graph.type</text></a><!--MD5=[fe1d7602b04ad24e24ff035502c00ae9]
class de.fraunhofer.aisec.cpg.graph.type.Type.Origin--><a href="Type.Origin.html" target="_top" title="Type.Origin.html" xlink:actuate="onRequest" xlink:href="Type.Origin.html" xlink:show="new" xlink:title="Type.Origin.html" xlink:type="simple"><rect fill="#FEFECE" filter="url(#f1bo44ru4pknqa)" height="37.9375" id="de.fraunhofer.aisec.cpg.graph.type.Type.Origin" style="stroke: #A80036; stroke-width: 1.5;" width="202" x="243" y="540"/><ellipse cx="258" cy="558.9688" fill="#EB937F" rx="11" ry="11" style="stroke: #A80036; stroke-width: 1.0;"/><path d="M262.1094,564.9688 L254.3906,564.9688 L254.3906,552.5781 L262.1094,552.5781 L262.1094,554.7344 L256.8438,554.7344 L256.8438,557.4063 L261.6094,557.4063 L261.6094,559.5625 L256.8438,559.5625 L256.8438,562.8125 L262.1094,562.8125 L262.1094,564.9688 Z "/><text fill="#000000" font-family="sans-serif" font-size="14" lengthAdjust="spacingAndGlyphs" textLength="78" x="318" y="557.9951">Type.Origin</text><text fill="#000000" font-family="sans-serif" font-size="10" lengthAdjust="spacingAndGlyphs" textLength="170" x="272" y="570.5791">de.fraunhofer.aisec.cpg.graph.type</text></a><!--MD5=[480279c787e326b4b4fa6cfe7ecd476b]
class de.fraunhofer.aisec.cpg.graph.type.Type.Qualifier--><a href="Type.Qualifier.html" target="_top" title="Type.Qualifier.html" xlink:actuate="onRequest" xlink:href="Type.Qualifier.html" xlink:show="new" xlink:title="Type.Qualifier.html" xlink:type="simple"><rect fill="#FEFECE" filter="url(#f1bo44ru4pknqa)" height="37.9375" id="de.fraunhofer.aisec.cpg.graph.type.Type.Qualifier" style="stroke: #A80036; stroke-width: 1.5;" width="202" x="480" y="540"/><ellipse cx="495" cy="558.9688" fill="#ADD1B2" rx="11" ry="11" style="stroke: #A80036; stroke-width: 1.0;"/><path d="M497.9688,564.6094 Q497.3906,564.9063 496.75,565.0469 Q496.1094,565.2031 495.4063,565.2031 Q492.9063,565.2031 491.5781,563.5625 Q490.2656,561.9063 490.2656,558.7813 Q490.2656,555.6563 491.5781,554 Q492.9063,552.3438 495.4063,552.3438 Q496.1094,552.3438 496.75,552.5 Q497.4063,552.6563 497.9688,552.9531 L497.9688,555.6719 Q497.3438,555.0938 496.75,554.8281 Q496.1563,554.5469 495.5313,554.5469 Q494.1875,554.5469 493.5,555.625 Q492.8125,556.6875 492.8125,558.7813 Q492.8125,560.875 493.5,561.9531 Q494.1875,563.0156 495.5313,563.0156 Q496.1563,563.0156 496.75,562.75 Q497.3438,562.4688 497.9688,561.8906 L497.9688,564.6094 Z "/><text fill="#000000" font-family="sans-serif" font-size="14" lengthAdjust="spacingAndGlyphs" textLength="93" x="547.5" y="557.9951">Type.Qualifier</text><text fill="#000000" font-family="sans-serif" font-size="10" lengthAdjust="spacingAndGlyphs" textLength="170" x="509" y="570.5791">de.fraunhofer.aisec.cpg.graph.type</text></a><!--MD5=[e2d291a9ee584b6d853553f4869ae439]
reverse link de.fraunhofer.aisec.cpg.graph.Node to de.fraunhofer.aisec.cpg.graph.type.Type--><path d="M344,66.19 C344,77.73 344,91.23 344,105.81 " fill="none" id="de.fraunhofer.aisec.cpg.graph.Node&lt;-de.fraunhofer.aisec.cpg.graph.type.Type" style="stroke: #A80036; stroke-width: 1.0;"/><polygon fill="none" points="337,66.15,344,46.15,351,66.15,337,66.15" style="stroke: #A80036; stroke-width: 1.0;"/><!--MD5=[bbdba7916976508de22dec99b22e75f5]
reverse link de.fraunhofer.aisec.cpg.graph.type.Type to de.fraunhofer.aisec.cpg.graph.type.Type.Storage--><path d="M206.8,446.83 C173.12,484.35 141.51,519.56 123.22,539.94 " fill="none" id="de.fraunhofer.aisec.cpg.graph.type.Type&lt;-de.fraunhofer.aisec.cpg.graph.type.Type.Storage" style="stroke: #A80036; stroke-width: 1.0;"/><ellipse cx="211.4863" cy="441.6135" fill="#FFFFFF" rx="8" ry="8" style="stroke: #A80036; stroke-width: 1.0;"/><line style="stroke: #A80036; stroke-width: 1.0;" x1="206.1426" x2="216.83" y1="447.5671" y2="435.66"/><line style="stroke: #A80036; stroke-width: 1.0;" x1="205.5327" x2="217.4398" y1="436.2698" y2="446.9573"/><!--MD5=[cba105d59b5bea931bfb679399a4634e]
reverse link de.fraunhofer.aisec.cpg.graph.type.Type to de.fraunhofer.aisec.cpg.graph.type.Type.Origin--><path d="M344,495.39 C344,513.27 344,528.77 344,539.88 " fill="none" id="de.fraunhofer.aisec.cpg.graph.type.Type&lt;-de.fraunhofer.aisec.cpg.graph.type.Type.Origin" style="stroke: #A80036; stroke-width: 1.0;"/><ellipse cx="344" cy="488.22" fill="#FFFFFF" rx="8" ry="8" style="stroke: #A80036; stroke-width: 1.0;"/><line style="stroke: #A80036; stroke-width: 1.0;" x1="344" x2="344" y1="496.22" y2="480.22"/><line style="stroke: #A80036; stroke-width: 1.0;" x1="336" x2="352" y1="488.22" y2="488.22"/><!--MD5=[1d482c5c2108fea3f266a6f5ec7b276a]
reverse link de.fraunhofer.aisec.cpg.graph.type.Type to de.fraunhofer.aisec.cpg.graph.type.Type.Qualifier--><path d="M481.2,446.83 C514.88,484.35 546.49,519.56 564.78,539.94 " fill="none" id="de.fraunhofer.aisec.cpg.graph.type.Type&lt;-de.fraunhofer.aisec.cpg.graph.type.Type.Qualifier" style="stroke: #A80036; stroke-width: 1.0;"/><ellipse cx="476.5137" cy="441.6135" fill="#FFFFFF" rx="8" ry="8" style="stroke: #A80036; stroke-width: 1.0;"/><line style="stroke: #A80036; stroke-width: 1.0;" x1="481.8574" x2="471.17" y1="447.5671" y2="435.66"/><line style="stroke: #A80036; stroke-width: 1.0;" x1="470.5602" x2="482.4673" y1="446.9573" y2="436.2698"/><text fill="#888888" font-family="sans-serif" font-size="10" lengthAdjust="spacingAndGlyphs" textLength="186" x="257" y="597.2822">UMLDoclet 2.0.9, PlantUML 1.2020.08</text><!--MD5=[d04f1e4bf7e4f6d2e04816d83d49578b]
@startuml
    set namespaceSeparator none
    hide empty fields
    hide empty methods

    abstract class "<size:14>Type\n<size:10>de.fraunhofer.aisec.cpg.graph.type" as de.fraunhofer.aisec.cpg.graph.type.Type [[Type.html]] {
        {static} +UNKNOWN_TYPE_STRING: String
        #storage: Storage
        #qualifier: Qualifier
        #origin: Origin
        +Type()
        +Type(String)
        +Type(Type)
        +Type(String, Storage, Qualifier)
        +getStorage(): Storage
        +setStorage(Storage): void
        +getQualifier(): Qualifier
        +setQualifier(Qualifier): void
        +getTypeOrigin(): Origin
        +setTypeOrigin(Origin): void
        {abstract} +reference(PointerOrigin): Type
        {abstract} +dereference(): Type
        +refreshNames(): void
        +getRoot(): Type
        +setRoot(Type): void
        {abstract} +duplicate(): Type
        +getTypeName(): String
        +getReferenceDepth(): int
        +setAdditionalTypeKeywords(String): void
        +isFirstOrderType(): boolean
        +isSimilar(Type): boolean
    }

    class "<size:14>Node\n<size:10>de.fraunhofer.aisec.cpg.graph" as de.fraunhofer.aisec.cpg.graph.Node [[../Node.html]]
    enum "<size:14>Type.Storage\n<size:10>de.fraunhofer.aisec.cpg.graph.type" as de.fraunhofer.aisec.cpg.graph.type.Type.Storage [[Type.Storage.html]]
    enum "<size:14>Type.Origin\n<size:10>de.fraunhofer.aisec.cpg.graph.type" as de.fraunhofer.aisec.cpg.graph.type.Type.Origin [[Type.Origin.html]]
    class "<size:14>Type.Qualifier\n<size:10>de.fraunhofer.aisec.cpg.graph.type" as de.fraunhofer.aisec.cpg.graph.type.Type.Qualifier [[Type.Qualifier.html]]

    de.fraunhofer.aisec.cpg.graph.Node <|- - de.fraunhofer.aisec.cpg.graph.type.Type
    de.fraunhofer.aisec.cpg.graph.type.Type +- - de.fraunhofer.aisec.cpg.graph.type.Type.Storage
    de.fraunhofer.aisec.cpg.graph.type.Type +- - de.fraunhofer.aisec.cpg.graph.type.Type.Origin
    de.fraunhofer.aisec.cpg.graph.type.Type +- - de.fraunhofer.aisec.cpg.graph.type.Type.Qualifier

    center footer UMLDoclet 2.0.9, PlantUML 1.2020.08
@enduml

PlantUML version 1.2020.08(Sun Apr 26 16:08:22 CEST 2020)
(APACHE source distribution)
Java Runtime: OpenJDK Runtime Environment
JVM: OpenJDK 64-Bit Server VM
Java Version: 12.0.2+9-Ubuntu-118.04
Operating System: Linux
Default Encoding: UTF-8
Language: en
Country: US
--></g></svg>