<?xml version="1.0" encoding="UTF-8" standalone="no"?><svg xmlns="http://www.w3.org/2000/svg" xmlns:xlink="http://www.w3.org/1999/xlink" contentScriptType="application/ecmascript" contentStyleType="text/css" height="358px" preserveAspectRatio="none" style="width:303px;height:358px;" version="1.1" viewBox="0 0 303 358" width="303px" zoomAndPan="magnify"><defs><filter height="300%" id="fv7j3uhdzv57d" width="300%" x="-1" y="-1"><feGaussianBlur result="blurOut" stdDeviation="2.0"/><feColorMatrix in="blurOut" result="blurOut2" type="matrix" values="0 0 0 0 0 0 0 0 0 0 0 0 0 0 0 0 0 0 .4 0"/><feOffset dx="4.0" dy="4.0" in="blurOut2" result="blurOut3"/><feBlend in="SourceGraphic" in2="blurOut3" mode="normal"/></filter></defs><g><!--MD5=[480279c787e326b4b4fa6cfe7ecd476b]
class de.fraunhofer.aisec.cpg.graph.type.Type.Qualifier--><a href="Type.Qualifier.html" target="_top" title="Type.Qualifier.html" xlink:actuate="onRequest" xlink:href="Type.Qualifier.html" xlink:show="new" xlink:title="Type.Qualifier.html" xlink:type="simple"><rect fill="#FEFECE" filter="url(#fv7j3uhdzv57d)" height="173.9844" id="de.fraunhofer.aisec.cpg.graph.type.Type.Qualifier" style="stroke: #A80036; stroke-width: 1.5;" width="286" x="6" y="152"/><ellipse cx="59.75" cy="170.9688" fill="#ADD1B2" rx="11" ry="11" style="stroke: #A80036; stroke-width: 1.0;"/><path d="M62.7188,176.6094 Q62.1406,176.9063 61.5,177.0469 Q60.8594,177.2031 60.1563,177.2031 Q57.6563,177.2031 56.3281,175.5625 Q55.0156,173.9063 55.0156,170.7813 Q55.0156,167.6563 56.3281,166 Q57.6563,164.3438 60.1563,164.3438 Q60.8594,164.3438 61.5,164.5 Q62.1563,164.6563 62.7188,164.9531 L62.7188,167.6719 Q62.0938,167.0938 61.5,166.8281 Q60.9063,166.5469 60.2813,166.5469 Q58.9375,166.5469 58.25,167.625 Q57.5625,168.6875 57.5625,170.7813 Q57.5625,172.875 58.25,173.9531 Q58.9375,175.0156 60.2813,175.0156 Q60.9063,175.0156 61.5,174.75 Q62.0938,174.4688 62.7188,173.8906 L62.7188,176.6094 Z "/><text fill="#000000" font-family="sans-serif" font-size="14" lengthAdjust="spacingAndGlyphs" textLength="93" x="118.75" y="169.9951">Type.Qualifier</text><text fill="#000000" font-family="sans-serif" font-size="10" lengthAdjust="spacingAndGlyphs" textLength="170" x="80.25" y="182.5791">de.fraunhofer.aisec.cpg.graph.type</text><line style="stroke: #A80036; stroke-width: 1.5;" x1="7" x2="291" y1="189.9375" y2="189.9375"/><ellipse cx="17" cy="200.9375" fill="#84BE84" rx="3" ry="3" style="stroke: #038048; stroke-width: 1.0;"/><text fill="#000000" font-family="sans-serif" font-size="11" lengthAdjust="spacingAndGlyphs" textLength="260" x="26" y="204.1479">Qualifier(boolean, boolean, boolean, boolean)</text><ellipse cx="17" cy="213.7422" fill="#84BE84" rx="3" ry="3" style="stroke: #038048; stroke-width: 1.0;"/><text fill="#000000" font-family="sans-serif" font-size="11" lengthAdjust="spacingAndGlyphs" textLength="56" x="26" y="216.9526">Qualifier()</text><ellipse cx="17" cy="226.5469" fill="#84BE84" rx="3" ry="3" style="stroke: #038048; stroke-width: 1.0;"/><text fill="#000000" font-family="sans-serif" font-size="11" lengthAdjust="spacingAndGlyphs" textLength="104" x="26" y="229.7573">isConst(): boolean</text><ellipse cx="17" cy="239.3516" fill="#84BE84" rx="3" ry="3" style="stroke: #038048; stroke-width: 1.0;"/><text fill="#000000" font-family="sans-serif" font-size="11" lengthAdjust="spacingAndGlyphs" textLength="135" x="26" y="242.562">setConst(boolean): void</text><ellipse cx="17" cy="252.1563" fill="#84BE84" rx="3" ry="3" style="stroke: #038048; stroke-width: 1.0;"/><text fill="#000000" font-family="sans-serif" font-size="11" lengthAdjust="spacingAndGlyphs" textLength="112" x="26" y="255.3667">isVolatile(): boolean</text><ellipse cx="17" cy="264.9609" fill="#84BE84" rx="3" ry="3" style="stroke: #038048; stroke-width: 1.0;"/><text fill="#000000" font-family="sans-serif" font-size="11" lengthAdjust="spacingAndGlyphs" textLength="143" x="26" y="268.1714">setVolatile(boolean): void</text><ellipse cx="17" cy="277.7656" fill="#84BE84" rx="3" ry="3" style="stroke: #038048; stroke-width: 1.0;"/><text fill="#000000" font-family="sans-serif" font-size="11" lengthAdjust="spacingAndGlyphs" textLength="114" x="26" y="280.9761">isRestrict(): boolean</text><ellipse cx="17" cy="290.5703" fill="#84BE84" rx="3" ry="3" style="stroke: #038048; stroke-width: 1.0;"/><text fill="#000000" font-family="sans-serif" font-size="11" lengthAdjust="spacingAndGlyphs" textLength="145" x="26" y="293.7808">setRestrict(boolean): void</text><ellipse cx="17" cy="303.375" fill="#84BE84" rx="3" ry="3" style="stroke: #038048; stroke-width: 1.0;"/><text fill="#000000" font-family="sans-serif" font-size="11" lengthAdjust="spacingAndGlyphs" textLength="109" x="26" y="306.5854">isAtomic(): boolean</text><ellipse cx="17" cy="316.1797" fill="#84BE84" rx="3" ry="3" style="stroke: #038048; stroke-width: 1.0;"/><text fill="#000000" font-family="sans-serif" font-size="11" lengthAdjust="spacingAndGlyphs" textLength="140" x="26" y="319.3901">setAtomic(boolean): void</text></a><!--MD5=[3866cdf684664279cf1e955b13aec5cd]
class de.fraunhofer.aisec.cpg.graph.type.Type--><a href="Type.html" target="_top" title="Type.html" xlink:actuate="onRequest" xlink:href="Type.html" xlink:show="new" xlink:title="Type.html" xlink:type="simple"><rect fill="#FEFECE" filter="url(#fv7j3uhdzv57d)" height="84.3516" id="de.fraunhofer.aisec.cpg.graph.type.Type" style="stroke: #A80036; stroke-width: 1.5;" width="205" x="46.5" y="8"/><ellipse cx="61.5" cy="26.9688" fill="#A9DCDF" rx="11" ry="11" style="stroke: #A80036; stroke-width: 1.0;"/><path d="M61.6094,22.3125 L60.4531,27.3906 L62.7813,27.3906 L61.6094,22.3125 Z M60.125,20.0781 L63.1094,20.0781 L66.4688,32.4688 L64.0156,32.4688 L63.25,29.4063 L59.9688,29.4063 L59.2188,32.4688 L56.7813,32.4688 L60.125,20.0781 Z "/><text fill="#000000" font-family="sans-serif" font-size="14" font-style="italic" lengthAdjust="spacingAndGlyphs" textLength="35" x="144.5" y="25.9951">Type</text><text fill="#000000" font-family="sans-serif" font-size="10" font-style="italic" lengthAdjust="spacingAndGlyphs" textLength="173" x="75.5" y="38.5791">de.fraunhofer.aisec.cpg.graph.type</text><line style="stroke: #A80036; stroke-width: 1.5;" x1="47.5" x2="250.5" y1="45.9375" y2="45.9375"/><ellipse cx="57.5" cy="56.9375" fill="#84BE84" rx="3" ry="3" style="stroke: #038048; stroke-width: 1.0;"/><text fill="#000000" font-family="sans-serif" font-size="11" font-style="italic" lengthAdjust="spacingAndGlyphs" textLength="173" x="66.5" y="60.1479">reference(PointerOrigin): Type</text><ellipse cx="57.5" cy="69.7422" fill="#84BE84" rx="3" ry="3" style="stroke: #038048; stroke-width: 1.0;"/><text fill="#000000" font-family="sans-serif" font-size="11" font-style="italic" lengthAdjust="spacingAndGlyphs" textLength="113" x="66.5" y="72.9526">dereference(): Type</text><ellipse cx="57.5" cy="82.5469" fill="#84BE84" rx="3" ry="3" style="stroke: #038048; stroke-width: 1.0;"/><text fill="#000000" font-family="sans-serif" font-size="11" font-style="italic" lengthAdjust="spacingAndGlyphs" textLength="95" x="66.5" y="85.7573">duplicate(): Type</text></a><!--MD5=[1d482c5c2108fea3f266a6f5ec7b276a]
reverse link de.fraunhofer.aisec.cpg.graph.type.Type to de.fraunhofer.aisec.cpg.graph.type.Type.Qualifier--><path d="M149,107.24 C149,121.29 149,136.68 149,151.81 " fill="none" id="de.fraunhofer.aisec.cpg.graph.type.Type&lt;-de.fraunhofer.aisec.cpg.graph.type.Type.Qualifier" style="stroke: #A80036; stroke-width: 1.0;"/><ellipse cx="149" cy="100.04" fill="#FFFFFF" rx="8" ry="8" style="stroke: #A80036; stroke-width: 1.0;"/><line style="stroke: #A80036; stroke-width: 1.0;" x1="149" x2="149" y1="108.04" y2="92.04"/><line style="stroke: #A80036; stroke-width: 1.0;" x1="141" x2="157" y1="100.04" y2="100.04"/><text fill="#888888" font-family="sans-serif" font-size="10" lengthAdjust="spacingAndGlyphs" textLength="186" x="62" y="345.2822">UMLDoclet 2.0.9, PlantUML 1.2020.08</text><!--MD5=[8e623123d070a1006ea7cdda67af1e23]
@startuml
    set namespaceSeparator none
    hide empty fields
    hide empty methods

    class "<size:14>Type.Qualifier\n<size:10>de.fraunhofer.aisec.cpg.graph.type" as de.fraunhofer.aisec.cpg.graph.type.Type.Qualifier [[Type.Qualifier.html]] {
        +Qualifier(boolean, boolean, boolean, boolean)
        +Qualifier()
        +isConst(): boolean
        +setConst(boolean): void
        +isVolatile(): boolean
        +setVolatile(boolean): void
        +isRestrict(): boolean
        +setRestrict(boolean): void
        +isAtomic(): boolean
        +setAtomic(boolean): void
    }

    abstract class "<size:14>Type\n<size:10>de.fraunhofer.aisec.cpg.graph.type" as de.fraunhofer.aisec.cpg.graph.type.Type [[Type.html]] {
        {abstract} +reference(PointerOrigin): Type
        {abstract} +dereference(): Type
        {abstract} +duplicate(): Type
    }

    de.fraunhofer.aisec.cpg.graph.type.Type +- - de.fraunhofer.aisec.cpg.graph.type.Type.Qualifier

    center footer UMLDoclet 2.0.9, PlantUML 1.2020.08
@enduml

PlantUML version 1.2020.08(Sun Apr 26 16:08:22 CEST 2020)
(APACHE source distribution)
Java Runtime: OpenJDK Runtime Environment
JVM: OpenJDK 64-Bit Server VM
Java Version: 12.0.2+9-Ubuntu-118.04
Operating System: Linux
Default Encoding: UTF-8
Language: en
Country: US
--></g></svg>