<?xml version="1.0" encoding="UTF-8" standalone="no"?><svg xmlns="http://www.w3.org/2000/svg" xmlns:xlink="http://www.w3.org/1999/xlink" contentScriptType="application/ecmascript" contentStyleType="text/css" height="332px" preserveAspectRatio="none" style="width:233px;height:332px;" version="1.1" viewBox="0 0 233 332" width="233px" zoomAndPan="magnify"><defs><filter height="300%" id="f8b0duv8scgl4" width="300%" x="-1" y="-1"><feGaussianBlur result="blurOut" stdDeviation="2.0"/><feColorMatrix in="blurOut" result="blurOut2" type="matrix" values="0 0 0 0 0 0 0 0 0 0 0 0 0 0 0 0 0 0 .4 0"/><feOffset dx="4.0" dy="4.0" in="blurOut2" result="blurOut3"/><feBlend in="SourceGraphic" in2="blurOut3" mode="normal"/></filter></defs><g><!--MD5=[720c6ee2e100a300e59379c76405a485]
class de.fraunhofer.aisec.cpg.graph.type.UnknownType--><a href="UnknownType.html" target="_top" title="UnknownType.html" xlink:actuate="onRequest" xlink:href="UnknownType.html" xlink:show="new" xlink:title="UnknownType.html" xlink:type="simple"><rect fill="#FEFECE" filter="url(#f8b0duv8scgl4)" height="148.375" id="de.fraunhofer.aisec.cpg.graph.type.UnknownType" style="stroke: #A80036; stroke-width: 1.5;" width="216" x="6" y="152"/><ellipse cx="27.3" cy="170.9688" fill="#ADD1B2" rx="11" ry="11" style="stroke: #A80036; stroke-width: 1.0;"/><path d="M30.2688,176.6094 Q29.6906,176.9063 29.05,177.0469 Q28.4094,177.2031 27.7063,177.2031 Q25.2063,177.2031 23.8781,175.5625 Q22.5656,173.9063 22.5656,170.7813 Q22.5656,167.6563 23.8781,166 Q25.2063,164.3438 27.7063,164.3438 Q28.4094,164.3438 29.05,164.5 Q29.7063,164.6563 30.2688,164.9531 L30.2688,167.6719 Q29.6438,167.0938 29.05,166.8281 Q28.4563,166.5469 27.8313,166.5469 Q26.4875,166.5469 25.8,167.625 Q25.1125,168.6875 25.1125,170.7813 Q25.1125,172.875 25.8,173.9531 Q26.4875,175.0156 27.8313,175.0156 Q28.4563,175.0156 29.05,174.75 Q29.6438,174.4688 30.2688,173.8906 L30.2688,176.6094 Z "/><text fill="#000000" font-family="sans-serif" font-size="14" lengthAdjust="spacingAndGlyphs" textLength="99" x="78.2" y="169.9951">UnknownType</text><text fill="#000000" font-family="sans-serif" font-size="10" lengthAdjust="spacingAndGlyphs" textLength="170" x="42.7" y="182.5791">de.fraunhofer.aisec.cpg.graph.type</text><line style="stroke: #A80036; stroke-width: 1.5;" x1="7" x2="221" y1="189.9375" y2="189.9375"/><ellipse cx="17" cy="200.9375" fill="#84BE84" rx="3" ry="3" style="stroke: #038048; stroke-width: 1.0;"/><text fill="#000000" font-family="sans-serif" font-size="11" lengthAdjust="spacingAndGlyphs" textLength="120" x="26" y="204.1479">UnknownType(String)</text><ellipse cx="17" cy="213.7422" fill="#84BE84" rx="3" ry="3" style="stroke: #038048; stroke-width: 1.0;"/><text fill="#000000" font-family="sans-serif" font-size="11" lengthAdjust="spacingAndGlyphs" text-decoration="underline" textLength="190" x="26" y="216.9526">getUnknownType(): UnknownType</text><ellipse cx="17" cy="226.5469" fill="#84BE84" rx="3" ry="3" style="stroke: #038048; stroke-width: 1.0;"/><text fill="#000000" font-family="sans-serif" font-size="11" lengthAdjust="spacingAndGlyphs" textLength="172" x="26" y="229.7573">reference(PointerOrigin): Type</text><ellipse cx="17" cy="239.3516" fill="#84BE84" rx="3" ry="3" style="stroke: #038048; stroke-width: 1.0;"/><text fill="#000000" font-family="sans-serif" font-size="11" lengthAdjust="spacingAndGlyphs" textLength="112" x="26" y="242.562">dereference(): Type</text><ellipse cx="17" cy="252.1563" fill="#84BE84" rx="3" ry="3" style="stroke: #038048; stroke-width: 1.0;"/><text fill="#000000" font-family="sans-serif" font-size="11" lengthAdjust="spacingAndGlyphs" textLength="94" x="26" y="255.3667">duplicate(): Type</text><ellipse cx="17" cy="264.9609" fill="#84BE84" rx="3" ry="3" style="stroke: #038048; stroke-width: 1.0;"/><text fill="#000000" font-family="sans-serif" font-size="11" lengthAdjust="spacingAndGlyphs" textLength="147" x="26" y="268.1714">setStorage(Storage): void</text><ellipse cx="17" cy="277.7656" fill="#84BE84" rx="3" ry="3" style="stroke: #038048; stroke-width: 1.0;"/><text fill="#000000" font-family="sans-serif" font-size="11" lengthAdjust="spacingAndGlyphs" textLength="153" x="26" y="280.9761">setQualifier(Qualifier): void</text><ellipse cx="17" cy="290.5703" fill="#84BE84" rx="3" ry="3" style="stroke: #038048; stroke-width: 1.0;"/><text fill="#000000" font-family="sans-serif" font-size="11" lengthAdjust="spacingAndGlyphs" textLength="152" x="26" y="293.7808">setTypeOrigin(Origin): void</text></a><!--MD5=[3866cdf684664279cf1e955b13aec5cd]
class de.fraunhofer.aisec.cpg.graph.type.Type--><a href="Type.html" target="_top" title="Type.html" xlink:actuate="onRequest" xlink:href="Type.html" xlink:show="new" xlink:title="Type.html" xlink:type="simple"><rect fill="#FEFECE" filter="url(#f8b0duv8scgl4)" height="84.3516" id="de.fraunhofer.aisec.cpg.graph.type.Type" style="stroke: #A80036; stroke-width: 1.5;" width="205" x="11.5" y="8"/><ellipse cx="26.5" cy="26.9688" fill="#A9DCDF" rx="11" ry="11" style="stroke: #A80036; stroke-width: 1.0;"/><path d="M26.6094,22.3125 L25.4531,27.3906 L27.7813,27.3906 L26.6094,22.3125 Z M25.125,20.0781 L28.1094,20.0781 L31.4688,32.4688 L29.0156,32.4688 L28.25,29.4063 L24.9688,29.4063 L24.2188,32.4688 L21.7813,32.4688 L25.125,20.0781 Z "/><text fill="#000000" font-family="sans-serif" font-size="14" font-style="italic" lengthAdjust="spacingAndGlyphs" textLength="35" x="109.5" y="25.9951">Type</text><text fill="#000000" font-family="sans-serif" font-size="10" font-style="italic" lengthAdjust="spacingAndGlyphs" textLength="173" x="40.5" y="38.5791">de.fraunhofer.aisec.cpg.graph.type</text><line style="stroke: #A80036; stroke-width: 1.5;" x1="12.5" x2="215.5" y1="45.9375" y2="45.9375"/><ellipse cx="22.5" cy="56.9375" fill="#84BE84" rx="3" ry="3" style="stroke: #038048; stroke-width: 1.0;"/><text fill="#000000" font-family="sans-serif" font-size="11" font-style="italic" lengthAdjust="spacingAndGlyphs" textLength="173" x="31.5" y="60.1479">reference(PointerOrigin): Type</text><ellipse cx="22.5" cy="69.7422" fill="#84BE84" rx="3" ry="3" style="stroke: #038048; stroke-width: 1.0;"/><text fill="#000000" font-family="sans-serif" font-size="11" font-style="italic" lengthAdjust="spacingAndGlyphs" textLength="113" x="31.5" y="72.9526">dereference(): Type</text><ellipse cx="22.5" cy="82.5469" fill="#84BE84" rx="3" ry="3" style="stroke: #038048; stroke-width: 1.0;"/><text fill="#000000" font-family="sans-serif" font-size="11" font-style="italic" lengthAdjust="spacingAndGlyphs" textLength="95" x="31.5" y="85.7573">duplicate(): Type</text></a><!--MD5=[4a296cad4086fe39dc4eeb1d16683ebb]
reverse link de.fraunhofer.aisec.cpg.graph.type.Type to de.fraunhofer.aisec.cpg.graph.type.UnknownType--><path d="M114,112.58 C114,125.24 114,138.69 114,151.71 " fill="none" id="de.fraunhofer.aisec.cpg.graph.type.Type&lt;-de.fraunhofer.aisec.cpg.graph.type.UnknownType" style="stroke: #A80036; stroke-width: 1.0;"/><polygon fill="none" points="107,112.24,114,92.24,121,112.24,107,112.24" style="stroke: #A80036; stroke-width: 1.0;"/><text fill="#888888" font-family="sans-serif" font-size="10" lengthAdjust="spacingAndGlyphs" textLength="186" x="27" y="319.2822">UMLDoclet 2.0.9, PlantUML 1.2020.08</text><!--MD5=[73557d6f9915d979af72da57a6d8f466]
@startuml
    set namespaceSeparator none
    hide empty fields
    hide empty methods

    class "<size:14>UnknownType\n<size:10>de.fraunhofer.aisec.cpg.graph.type" as de.fraunhofer.aisec.cpg.graph.type.UnknownType [[UnknownType.html]] {
        +UnknownType(String)
        {static} +getUnknownType(): UnknownType
        +reference(PointerOrigin): Type
        +dereference(): Type
        +duplicate(): Type
        +setStorage(Storage): void
        +setQualifier(Qualifier): void
        +setTypeOrigin(Origin): void
    }

    abstract class "<size:14>Type\n<size:10>de.fraunhofer.aisec.cpg.graph.type" as de.fraunhofer.aisec.cpg.graph.type.Type [[Type.html]] {
        {abstract} +reference(PointerOrigin): Type
        {abstract} +dereference(): Type
        {abstract} +duplicate(): Type
    }

    de.fraunhofer.aisec.cpg.graph.type.Type <|- - de.fraunhofer.aisec.cpg.graph.type.UnknownType

    center footer UMLDoclet 2.0.9, PlantUML 1.2020.08
@enduml

PlantUML version 1.2020.08(Sun Apr 26 16:08:22 CEST 2020)
(APACHE source distribution)
Java Runtime: OpenJDK Runtime Environment
JVM: OpenJDK 64-Bit Server VM
Java Version: 12.0.2+9-Ubuntu-118.04
Operating System: Linux
Default Encoding: UTF-8
Language: en
Country: US
--></g></svg>