<?xml version="1.0" encoding="UTF-8" standalone="no"?><svg xmlns="http://www.w3.org/2000/svg" xmlns:xlink="http://www.w3.org/1999/xlink" contentScriptType="application/ecmascript" contentStyleType="text/css" height="185px" preserveAspectRatio="none" style="width:269px;height:185px;" version="1.1" viewBox="0 0 269 185" width="269px" zoomAndPan="magnify"><defs><filter height="300%" id="f1pmxmlr73wv8j" width="300%" x="-1" y="-1"><feGaussianBlur result="blurOut" stdDeviation="2.0"/><feColorMatrix in="blurOut" result="blurOut2" type="matrix" values="0 0 0 0 0 0 0 0 0 0 0 0 0 0 0 0 0 0 .4 0"/><feOffset dx="4.0" dy="4.0" in="blurOut2" result="blurOut3"/><feBlend in="SourceGraphic" in2="blurOut3" mode="normal"/></filter></defs><g><!--MD5=[d901d516bf43ac80285bca84b5c24ae0]
class de.fraunhofer.aisec.cpg.graph.type.WrapState--><a href="WrapState.html" target="_top" title="WrapState.html" xlink:actuate="onRequest" xlink:href="WrapState.html" xlink:show="new" xlink:title="WrapState.html" xlink:type="simple"><rect fill="#FEFECE" filter="url(#f1pmxmlr73wv8j)" height="148.375" id="de.fraunhofer.aisec.cpg.graph.type.WrapState" style="stroke: #A80036; stroke-width: 1.5;" width="251" x="7" y="7"/><ellipse cx="44.05" cy="25.9688" fill="#ADD1B2" rx="11" ry="11" style="stroke: #A80036; stroke-width: 1.0;"/><path d="M47.0188,31.6094 Q46.4406,31.9063 45.8,32.0469 Q45.1594,32.2031 44.4563,32.2031 Q41.9563,32.2031 40.6281,30.5625 Q39.3156,28.9063 39.3156,25.7813 Q39.3156,22.6563 40.6281,21 Q41.9563,19.3438 44.4563,19.3438 Q45.1594,19.3438 45.8,19.5 Q46.4563,19.6563 47.0188,19.9531 L47.0188,22.6719 Q46.3938,22.0938 45.8,21.8281 Q45.2063,21.5469 44.5813,21.5469 Q43.2375,21.5469 42.55,22.625 Q41.8625,23.6875 41.8625,25.7813 Q41.8625,27.875 42.55,28.9531 Q43.2375,30.0156 44.5813,30.0156 Q45.2063,30.0156 45.8,29.75 Q46.3938,29.4688 47.0188,28.8906 L47.0188,31.6094 Z "/><text fill="#000000" font-family="sans-serif" font-size="14" lengthAdjust="spacingAndGlyphs" textLength="71" x="112.45" y="24.9951">WrapState</text><text fill="#000000" font-family="sans-serif" font-size="10" lengthAdjust="spacingAndGlyphs" textLength="170" x="62.95" y="37.5791">de.fraunhofer.aisec.cpg.graph.type</text><line style="stroke: #A80036; stroke-width: 1.5;" x1="8" x2="257" y1="44.9375" y2="44.9375"/><ellipse cx="18" cy="55.9375" fill="#84BE84" rx="3" ry="3" style="stroke: #038048; stroke-width: 1.0;"/><text fill="#000000" font-family="sans-serif" font-size="11" lengthAdjust="spacingAndGlyphs" textLength="81" x="27" y="59.1479">getDepth(): int</text><ellipse cx="18" cy="68.7422" fill="#84BE84" rx="3" ry="3" style="stroke: #038048; stroke-width: 1.0;"/><text fill="#000000" font-family="sans-serif" font-size="11" lengthAdjust="spacingAndGlyphs" textLength="104" x="27" y="71.9526">setDepth(int): void</text><ellipse cx="18" cy="81.5469" fill="#84BE84" rx="3" ry="3" style="stroke: #038048; stroke-width: 1.0;"/><text fill="#000000" font-family="sans-serif" font-size="11" lengthAdjust="spacingAndGlyphs" textLength="128" x="27" y="84.7573">isReference(): boolean</text><ellipse cx="18" cy="94.3516" fill="#84BE84" rx="3" ry="3" style="stroke: #038048; stroke-width: 1.0;"/><text fill="#000000" font-family="sans-serif" font-size="11" lengthAdjust="spacingAndGlyphs" textLength="159" x="27" y="97.562">setReference(boolean): void</text><ellipse cx="18" cy="107.1563" fill="#84BE84" rx="3" ry="3" style="stroke: #038048; stroke-width: 1.0;"/><text fill="#000000" font-family="sans-serif" font-size="11" lengthAdjust="spacingAndGlyphs" textLength="182" x="27" y="110.3667">getPointerOrigin(): PointerOrigin</text><ellipse cx="18" cy="119.9609" fill="#84BE84" rx="3" ry="3" style="stroke: #038048; stroke-width: 1.0;"/><text fill="#000000" font-family="sans-serif" font-size="11" lengthAdjust="spacingAndGlyphs" textLength="205" x="27" y="123.1714">setPointerOrigin(PointerOrigin): void</text><ellipse cx="18" cy="132.7656" fill="#84BE84" rx="3" ry="3" style="stroke: #038048; stroke-width: 1.0;"/><text fill="#000000" font-family="sans-serif" font-size="11" lengthAdjust="spacingAndGlyphs" textLength="202" x="27" y="135.9761">getReferenceType(): ReferenceType</text><ellipse cx="18" cy="145.5703" fill="#84BE84" rx="3" ry="3" style="stroke: #038048; stroke-width: 1.0;"/><text fill="#000000" font-family="sans-serif" font-size="11" lengthAdjust="spacingAndGlyphs" textLength="225" x="27" y="148.7808">setReferenceType(ReferenceType): void</text></a><text fill="#888888" font-family="sans-serif" font-size="10" lengthAdjust="spacingAndGlyphs" textLength="186" x="39.5" y="171.6572">UMLDoclet 2.0.9, PlantUML 1.2020.08</text><!--MD5=[930046d757c3d8f6a99a25db37f0a6b9]
@startuml
    set namespaceSeparator none
    hide empty fields
    hide empty methods

    class "<size:14>WrapState\n<size:10>de.fraunhofer.aisec.cpg.graph.type" as de.fraunhofer.aisec.cpg.graph.type.WrapState [[WrapState.html]] {
        +getDepth(): int
        +setDepth(int): void
        +isReference(): boolean
        +setReference(boolean): void
        +getPointerOrigin(): PointerOrigin
        +setPointerOrigin(PointerOrigin): void
        +getReferenceType(): ReferenceType
        +setReferenceType(ReferenceType): void
    }

    center footer UMLDoclet 2.0.9, PlantUML 1.2020.08
@enduml

PlantUML version 1.2020.08(Sun Apr 26 14:08:22 UTC 2020)
(APACHE source distribution)
Java Runtime: OpenJDK Runtime Environment
JVM: OpenJDK 64-Bit Server VM
Java Version: 11.0.7+10-LTS
Operating System: Linux
Default Encoding: UTF-8
Language: en
Country: null
--></g></svg>