<?xml version="1.0" encoding="UTF-8" standalone="no"?><svg xmlns="http://www.w3.org/2000/svg" xmlns:xlink="http://www.w3.org/1999/xlink" contentScriptType="application/ecmascript" contentStyleType="text/css" height="728px" preserveAspectRatio="none" style="width:1072px;height:728px;" version="1.1" viewBox="0 0 1072 728" width="1072px" zoomAndPan="magnify"><defs><filter height="300%" id="f3gdnmhyw018c" width="300%" x="-1" y="-1"><feGaussianBlur result="blurOut" stdDeviation="2.0"/><feColorMatrix in="blurOut" result="blurOut2" type="matrix" values="0 0 0 0 0 0 0 0 0 0 0 0 0 0 0 0 0 0 .4 0"/><feOffset dx="4.0" dy="4.0" in="blurOut2" result="blurOut3"/><feBlend in="SourceGraphic" in2="blurOut3" mode="normal"/></filter></defs><g><!--MD5=[28425048ae48a514fe1999560b7a930d]
cluster de.fraunhofer.aisec.cpg--><polygon fill="#FFFFFF" filter="url(#f3gdnmhyw018c)" points="22,24,218,24,225,46.2969,671,46.2969,671,680,22,680,22,24" style="stroke: #000000; stroke-width: 1.5;"/><line style="stroke: #000000; stroke-width: 1.5;" x1="22" x2="225" y1="46.2969" y2="46.2969"/><text fill="#000000" font-family="sans-serif" font-size="14" font-weight="bold" lengthAdjust="spacingAndGlyphs" textLength="190" x="26" y="38.9951">de.fraunhofer.aisec.cpg</text><!--MD5=[d29ba26a36e291f136976ac37b5c4907]
cluster de.fraunhofer.aisec.cpg.graph--><polygon fill="#FFFFFF" filter="url(#f3gdnmhyw018c)" points="695,257.5,942,257.5,949,279.7969,952,279.7969,952,356.5,695,356.5,695,257.5" style="stroke: #000000; stroke-width: 1.5;"/><line style="stroke: #000000; stroke-width: 1.5;" x1="695" x2="949" y1="279.7969" y2="279.7969"/><text fill="#000000" font-family="sans-serif" font-size="14" font-weight="bold" lengthAdjust="spacingAndGlyphs" textLength="241" x="699" y="272.4951">de.fraunhofer.aisec.cpg.graph</text><!--MD5=[4eea148db9d74f1508c49b72619f4e4a]
cluster de.fraunhofer.aisec.cpg.passes--><polygon fill="#FFFFFF" filter="url(#f3gdnmhyw018c)" points="783,510.5,1040,510.5,1047,532.7969,1050,532.7969,1050,609.5,783,609.5,783,510.5" style="stroke: #000000; stroke-width: 1.5;"/><line style="stroke: #000000; stroke-width: 1.5;" x1="783" x2="1047" y1="532.7969" y2="532.7969"/><text fill="#000000" font-family="sans-serif" font-size="14" font-weight="bold" lengthAdjust="spacingAndGlyphs" textLength="251" x="787" y="525.4951">de.fraunhofer.aisec.cpg.passes</text><!--MD5=[0b80c1371b4c8b6dcb2dd52eed0a322a]
class de.fraunhofer.aisec.cpg.TranslationResult--><a href="TranslationResult.html" target="_top" title="TranslationResult.html" xlink:actuate="onRequest" xlink:href="TranslationResult.html" xlink:show="new" xlink:title="TranslationResult.html" xlink:type="simple"><rect fill="#FEFECE" filter="url(#f3gdnmhyw018c)" height="99.2188" id="de.fraunhofer.aisec.cpg.TranslationResult" style="stroke: #A80036; stroke-width: 1.5;" width="274" x="381" y="59"/><ellipse cx="459.25" cy="75" fill="#ADD1B2" rx="11" ry="11" style="stroke: #A80036; stroke-width: 1.0;"/><path d="M462.2188,80.6406 Q461.6406,80.9375 461,81.0781 Q460.3594,81.2344 459.6563,81.2344 Q457.1563,81.2344 455.8281,79.5938 Q454.5156,77.9375 454.5156,74.8125 Q454.5156,71.6875 455.8281,70.0313 Q457.1563,68.375 459.6563,68.375 Q460.3594,68.375 461,68.5313 Q461.6563,68.6875 462.2188,68.9844 L462.2188,71.7031 Q461.5938,71.125 461,70.8594 Q460.4063,70.5781 459.7813,70.5781 Q458.4375,70.5781 457.75,71.6563 Q457.0625,72.7188 457.0625,74.8125 Q457.0625,76.9063 457.75,77.9844 Q458.4375,79.0469 459.7813,79.0469 Q460.4063,79.0469 461,78.7813 Q461.5938,78.5 462.2188,77.9219 L462.2188,80.6406 Z "/><text fill="#000000" font-family="sans-serif" font-size="12" lengthAdjust="spacingAndGlyphs" textLength="109" x="479.75" y="79.1543">TranslationResult</text><line style="stroke: #A80036; stroke-width: 1.5;" x1="382" x2="654" y1="91" y2="91"/><ellipse cx="392" cy="102" fill="none" rx="3" ry="3" style="stroke: #038048; stroke-width: 1.0;"/><text fill="#000000" font-family="sans-serif" font-size="11" lengthAdjust="spacingAndGlyphs" text-decoration="underline" textLength="248" x="401" y="105.2104">SOURCE_LOCATIONS_TO_FRONTEND: String</text><line style="stroke: #A80036; stroke-width: 1.5;" x1="382" x2="654" y1="111.8047" y2="111.8047"/><ellipse cx="392" cy="122.8047" fill="#84BE84" rx="3" ry="3" style="stroke: #038048; stroke-width: 1.0;"/><text fill="#000000" font-family="sans-serif" font-size="11" lengthAdjust="spacingAndGlyphs" textLength="220" x="401" y="126.0151">TranslationResult(TranslationManager)</text><ellipse cx="392" cy="135.6094" fill="#84BE84" rx="3" ry="3" style="stroke: #038048; stroke-width: 1.0;"/><text fill="#000000" font-family="sans-serif" font-size="11" lengthAdjust="spacingAndGlyphs" textLength="126" x="401" y="138.8198">isCancelled(): boolean</text><ellipse cx="392" cy="148.4141" fill="#84BE84" rx="3" ry="3" style="stroke: #038048; stroke-width: 1.0;"/><text fill="#000000" font-family="sans-serif" font-size="11" lengthAdjust="spacingAndGlyphs" textLength="196" x="401" y="151.6245">getScratch(): Map&lt;String, Object&gt;</text></a><!--MD5=[6707d313b60fbfb328572cc8979876e4]
class de.fraunhofer.aisec.cpg.TranslationManager--><a href="TranslationManager.html" target="_top" title="TranslationManager.html" xlink:actuate="onRequest" xlink:href="TranslationManager.html" xlink:show="new" xlink:title="TranslationManager.html" xlink:type="simple"><rect fill="#FEFECE" filter="url(#f3gdnmhyw018c)" height="86.4141" id="de.fraunhofer.aisec.cpg.TranslationManager" style="stroke: #A80036; stroke-width: 1.5;" width="308" x="38" y="65.5"/><ellipse cx="125.25" cy="81.5" fill="#ADD1B2" rx="11" ry="11" style="stroke: #A80036; stroke-width: 1.0;"/><path d="M128.2188,87.1406 Q127.6406,87.4375 127,87.5781 Q126.3594,87.7344 125.6563,87.7344 Q123.1563,87.7344 121.8281,86.0938 Q120.5156,84.4375 120.5156,81.3125 Q120.5156,78.1875 121.8281,76.5313 Q123.1563,74.875 125.6563,74.875 Q126.3594,74.875 127,75.0313 Q127.6563,75.1875 128.2188,75.4844 L128.2188,78.2031 Q127.5938,77.625 127,77.3594 Q126.4063,77.0781 125.7813,77.0781 Q124.4375,77.0781 123.75,78.1563 Q123.0625,79.2188 123.0625,81.3125 Q123.0625,83.4063 123.75,84.4844 Q124.4375,85.5469 125.7813,85.5469 Q126.4063,85.5469 127,85.2813 Q127.5938,85 128.2188,84.4219 L128.2188,87.1406 Z "/><text fill="#000000" font-family="sans-serif" font-size="12" lengthAdjust="spacingAndGlyphs" textLength="125" x="145.75" y="85.6543">TranslationManager</text><line style="stroke: #A80036; stroke-width: 1.5;" x1="39" x2="345" y1="97.5" y2="97.5"/><line style="stroke: #A80036; stroke-width: 1.5;" x1="39" x2="345" y1="105.5" y2="105.5"/><ellipse cx="49" cy="116.5" fill="#84BE84" rx="3" ry="3" style="stroke: #038048; stroke-width: 1.0;"/><text fill="#000000" font-family="sans-serif" font-size="11" lengthAdjust="spacingAndGlyphs" text-decoration="underline" textLength="95" x="58" y="119.7104">builder(): Builder</text><ellipse cx="49" cy="129.3047" fill="#84BE84" rx="3" ry="3" style="stroke: #038048; stroke-width: 1.0;"/><text fill="#000000" font-family="sans-serif" font-size="11" lengthAdjust="spacingAndGlyphs" textLength="282" x="58" y="132.5151">analyze(): CompletableFuture&lt;TranslationResult&gt;</text><ellipse cx="49" cy="142.1094" fill="#84BE84" rx="3" ry="3" style="stroke: #038048; stroke-width: 1.0;"/><text fill="#000000" font-family="sans-serif" font-size="11" lengthAdjust="spacingAndGlyphs" textLength="126" x="58" y="145.3198">isCancelled(): boolean</text></a><!--MD5=[24155592ede588bd2369ee121b84736a]
class de.fraunhofer.aisec.cpg.TranslationManager.Builder--><a href="TranslationManager.Builder.html" target="_top" title="TranslationManager.Builder.html" xlink:actuate="onRequest" xlink:href="TranslationManager.Builder.html" xlink:show="new" xlink:title="TranslationManager.Builder.html" xlink:type="simple"><rect fill="#FEFECE" filter="url(#f3gdnmhyw018c)" height="73.6094" id="de.fraunhofer.aisec.cpg.TranslationManager.Builder" style="stroke: #A80036; stroke-width: 1.5;" width="256" x="64" y="279.5"/><ellipse cx="102.4" cy="295.5" fill="#ADD1B2" rx="11" ry="11" style="stroke: #A80036; stroke-width: 1.0;"/><path d="M105.3688,301.1406 Q104.7906,301.4375 104.15,301.5781 Q103.5094,301.7344 102.8063,301.7344 Q100.3063,301.7344 98.9781,300.0938 Q97.6656,298.4375 97.6656,295.3125 Q97.6656,292.1875 98.9781,290.5313 Q100.3063,288.875 102.8063,288.875 Q103.5094,288.875 104.15,289.0313 Q104.8063,289.1875 105.3688,289.4844 L105.3688,292.2031 Q104.7438,291.625 104.15,291.3594 Q103.5563,291.0781 102.9313,291.0781 Q101.5875,291.0781 100.9,292.1563 Q100.2125,293.2188 100.2125,295.3125 Q100.2125,297.4063 100.9,298.4844 Q101.5875,299.5469 102.9313,299.5469 Q103.5563,299.5469 104.15,299.2813 Q104.7438,299 105.3688,298.4219 L105.3688,301.1406 Z "/><text fill="#000000" font-family="sans-serif" font-size="12" lengthAdjust="spacingAndGlyphs" textLength="172" x="121.6" y="299.6543">TranslationManager.Builder</text><line style="stroke: #A80036; stroke-width: 1.5;" x1="65" x2="319" y1="311.5" y2="311.5"/><line style="stroke: #A80036; stroke-width: 1.5;" x1="65" x2="319" y1="319.5" y2="319.5"/><ellipse cx="75" cy="330.5" fill="#84BE84" rx="3" ry="3" style="stroke: #038048; stroke-width: 1.0;"/><text fill="#000000" font-family="sans-serif" font-size="11" lengthAdjust="spacingAndGlyphs" textLength="230" x="84" y="333.7104">config(TranslationConfiguration): Builder</text><ellipse cx="75" cy="343.3047" fill="#84BE84" rx="3" ry="3" style="stroke: #038048; stroke-width: 1.0;"/><text fill="#000000" font-family="sans-serif" font-size="11" lengthAdjust="spacingAndGlyphs" textLength="156" x="84" y="346.5151">build(): TranslationManager</text></a><!--MD5=[25b648a678073bd0b65f20260d4d600a]
class de.fraunhofer.aisec.cpg.TranslationConfiguration--><a href="TranslationConfiguration.html" target="_top" title="TranslationConfiguration.html" xlink:actuate="onRequest" xlink:href="TranslationConfiguration.html" xlink:show="new" xlink:title="TranslationConfiguration.html" xlink:type="simple"><rect fill="#FEFECE" filter="url(#f3gdnmhyw018c)" height="163.2422" id="de.fraunhofer.aisec.cpg.TranslationConfiguration" style="stroke: #A80036; stroke-width: 1.5;" width="226" x="387" y="235"/><ellipse cx="420" cy="251" fill="#ADD1B2" rx="11" ry="11" style="stroke: #A80036; stroke-width: 1.0;"/><path d="M422.9688,256.6406 Q422.3906,256.9375 421.75,257.0781 Q421.1094,257.2344 420.4063,257.2344 Q417.9063,257.2344 416.5781,255.5938 Q415.2656,253.9375 415.2656,250.8125 Q415.2656,247.6875 416.5781,246.0313 Q417.9063,244.375 420.4063,244.375 Q421.1094,244.375 421.75,244.5313 Q422.4063,244.6875 422.9688,244.9844 L422.9688,247.7031 Q422.3438,247.125 421.75,246.8594 Q421.1563,246.5781 420.5313,246.5781 Q419.1875,246.5781 418.5,247.6563 Q417.8125,248.7188 417.8125,250.8125 Q417.8125,252.9063 418.5,253.9844 Q419.1875,255.0469 420.5313,255.0469 Q421.1563,255.0469 421.75,254.7813 Q422.3438,254.5 422.9688,253.9219 L422.9688,256.6406 Z "/><text fill="#000000" font-family="sans-serif" font-size="12" lengthAdjust="spacingAndGlyphs" textLength="154" x="438" y="255.1543">TranslationConfiguration</text><line style="stroke: #A80036; stroke-width: 1.5;" x1="388" x2="612" y1="267" y2="267"/><ellipse cx="398" cy="278" fill="none" rx="3" ry="3" style="stroke: #038048; stroke-width: 1.0;"/><text fill="#000000" font-family="sans-serif" font-size="11" lengthAdjust="spacingAndGlyphs" textLength="126" x="407" y="281.2104">debugParser: boolean</text><ellipse cx="398" cy="290.8047" fill="none" rx="3" ry="3" style="stroke: #038048; stroke-width: 1.0;"/><text fill="#000000" font-family="sans-serif" font-size="11" lengthAdjust="spacingAndGlyphs" textLength="124" x="407" y="294.0151">loadIncludes: boolean</text><ellipse cx="398" cy="303.6094" fill="none" rx="3" ry="3" style="stroke: #038048; stroke-width: 1.0;"/><text fill="#000000" font-family="sans-serif" font-size="11" lengthAdjust="spacingAndGlyphs" textLength="122" x="407" y="306.8198">includePaths: String[]</text><ellipse cx="398" cy="316.4141" fill="none" rx="3" ry="3" style="stroke: #038048; stroke-width: 1.0;"/><text fill="#000000" font-family="sans-serif" font-size="11" lengthAdjust="spacingAndGlyphs" textLength="126" x="407" y="319.6245">codeInNodes: boolean</text><ellipse cx="398" cy="329.2188" fill="none" rx="3" ry="3" style="stroke: #038048; stroke-width: 1.0;"/><text fill="#000000" font-family="sans-serif" font-size="11" lengthAdjust="spacingAndGlyphs" textLength="173" x="407" y="332.4292">symbols: Map&lt;String, String&gt;</text><line style="stroke: #A80036; stroke-width: 1.5;" x1="388" x2="612" y1="339.0234" y2="339.0234"/><ellipse cx="398" cy="350.0234" fill="#84BE84" rx="3" ry="3" style="stroke: #038048; stroke-width: 1.0;"/><text fill="#000000" font-family="sans-serif" font-size="11" lengthAdjust="spacingAndGlyphs" text-decoration="underline" textLength="95" x="407" y="353.2339">builder(): Builder</text><ellipse cx="398" cy="362.8281" fill="#84BE84" rx="3" ry="3" style="stroke: #038048; stroke-width: 1.0;"/><text fill="#000000" font-family="sans-serif" font-size="11" lengthAdjust="spacingAndGlyphs" textLength="200" x="407" y="366.0386">getSymbols(): Map&lt;String, String&gt;</text><ellipse cx="398" cy="375.6328" fill="#84BE84" rx="3" ry="3" style="stroke: #038048; stroke-width: 1.0;"/><text fill="#000000" font-family="sans-serif" font-size="11" lengthAdjust="spacingAndGlyphs" textLength="185" x="407" y="378.8433">getSourceLocations(): List&lt;File&gt;</text><ellipse cx="398" cy="388.4375" fill="#84BE84" rx="3" ry="3" style="stroke: #038048; stroke-width: 1.0;"/><text fill="#000000" font-family="sans-serif" font-size="11" lengthAdjust="spacingAndGlyphs" textLength="103" x="407" y="391.6479">getTopLevel(): File</text></a><!--MD5=[f742eeb2b5efa456023da7062870a3c8]
class de.fraunhofer.aisec.cpg.TranslationConfiguration.Builder--><a href="TranslationConfiguration.Builder.html" target="_top" title="TranslationConfiguration.Builder.html" xlink:actuate="onRequest" xlink:href="TranslationConfiguration.Builder.html" xlink:show="new" xlink:title="TranslationConfiguration.Builder.html" xlink:type="simple"><rect fill="#FEFECE" filter="url(#f3gdnmhyw018c)" height="188.8516" id="de.fraunhofer.aisec.cpg.TranslationConfiguration.Builder" style="stroke: #A80036; stroke-width: 1.5;" width="247" x="376.5" y="475"/><ellipse cx="397.8" cy="491" fill="#ADD1B2" rx="11" ry="11" style="stroke: #A80036; stroke-width: 1.0;"/><path d="M400.7688,496.6406 Q400.1906,496.9375 399.55,497.0781 Q398.9094,497.2344 398.2063,497.2344 Q395.7063,497.2344 394.3781,495.5938 Q393.0656,493.9375 393.0656,490.8125 Q393.0656,487.6875 394.3781,486.0313 Q395.7063,484.375 398.2063,484.375 Q398.9094,484.375 399.55,484.5313 Q400.2063,484.6875 400.7688,484.9844 L400.7688,487.7031 Q400.1438,487.125 399.55,486.8594 Q398.9563,486.5781 398.3313,486.5781 Q396.9875,486.5781 396.3,487.6563 Q395.6125,488.7188 395.6125,490.8125 Q395.6125,492.9063 396.3,493.9844 Q396.9875,495.0469 398.3313,495.0469 Q398.9563,495.0469 399.55,494.7813 Q400.1438,494.5 400.7688,493.9219 L400.7688,496.6406 Z "/><text fill="#000000" font-family="sans-serif" font-size="12" lengthAdjust="spacingAndGlyphs" textLength="201" x="413.2" y="495.1543">TranslationConfiguration.Builder</text><line style="stroke: #A80036; stroke-width: 1.5;" x1="377.5" x2="622.5" y1="507" y2="507"/><line style="stroke: #A80036; stroke-width: 1.5;" x1="377.5" x2="622.5" y1="515" y2="515"/><ellipse cx="387.5" cy="526" fill="#84BE84" rx="3" ry="3" style="stroke: #038048; stroke-width: 1.0;"/><text fill="#000000" font-family="sans-serif" font-size="11" lengthAdjust="spacingAndGlyphs" textLength="221" x="396.5" y="529.2104">symbols(Map&lt;String, String&gt;): Builder</text><ellipse cx="387.5" cy="538.8047" fill="#84BE84" rx="3" ry="3" style="stroke: #038048; stroke-width: 1.0;"/><text fill="#000000" font-family="sans-serif" font-size="11" lengthAdjust="spacingAndGlyphs" textLength="180" x="396.5" y="542.0151">sourceLocations(File...): Builder</text><ellipse cx="387.5" cy="551.6094" fill="#84BE84" rx="3" ry="3" style="stroke: #038048; stroke-width: 1.0;"/><text fill="#000000" font-family="sans-serif" font-size="11" lengthAdjust="spacingAndGlyphs" textLength="122" x="396.5" y="554.8198">topLevel(File): Builder</text><ellipse cx="387.5" cy="564.4141" fill="#84BE84" rx="3" ry="3" style="stroke: #038048; stroke-width: 1.0;"/><text fill="#000000" font-family="sans-serif" font-size="11" lengthAdjust="spacingAndGlyphs" textLength="174" x="396.5" y="567.6245">debugParser(boolean): Builder</text><ellipse cx="387.5" cy="577.2188" fill="#84BE84" rx="3" ry="3" style="stroke: #038048; stroke-width: 1.0;"/><text fill="#000000" font-family="sans-serif" font-size="11" lengthAdjust="spacingAndGlyphs" textLength="163" x="396.5" y="580.4292">failOnError(boolean): Builder</text><ellipse cx="387.5" cy="590.0234" fill="#84BE84" rx="3" ry="3" style="stroke: #038048; stroke-width: 1.0;"/><text fill="#000000" font-family="sans-serif" font-size="11" lengthAdjust="spacingAndGlyphs" textLength="172" x="396.5" y="593.2339">loadIncludes(boolean): Builder</text><ellipse cx="387.5" cy="602.8281" fill="#84BE84" rx="3" ry="3" style="stroke: #038048; stroke-width: 1.0;"/><text fill="#000000" font-family="sans-serif" font-size="11" lengthAdjust="spacingAndGlyphs" textLength="155" x="396.5" y="606.0386">includePath(String): Builder</text><ellipse cx="387.5" cy="615.6328" fill="#84BE84" rx="3" ry="3" style="stroke: #038048; stroke-width: 1.0;"/><text fill="#000000" font-family="sans-serif" font-size="11" lengthAdjust="spacingAndGlyphs" textLength="157" x="396.5" y="618.8433">registerPass(Pass): Builder</text><ellipse cx="387.5" cy="628.4375" fill="#84BE84" rx="3" ry="3" style="stroke: #038048; stroke-width: 1.0;"/><text fill="#000000" font-family="sans-serif" font-size="11" lengthAdjust="spacingAndGlyphs" textLength="137" x="396.5" y="631.6479">defaultPasses(): Builder</text><ellipse cx="387.5" cy="641.2422" fill="#84BE84" rx="3" ry="3" style="stroke: #038048; stroke-width: 1.0;"/><text fill="#000000" font-family="sans-serif" font-size="11" lengthAdjust="spacingAndGlyphs" textLength="174" x="396.5" y="644.4526">codeInNodes(boolean): Builder</text><ellipse cx="387.5" cy="654.0469" fill="#84BE84" rx="3" ry="3" style="stroke: #038048; stroke-width: 1.0;"/><text fill="#000000" font-family="sans-serif" font-size="11" lengthAdjust="spacingAndGlyphs" textLength="183" x="396.5" y="657.2573">build(): TranslationConfiguration</text></a><!--MD5=[46379bfef58435adf3366ed9c3258410]
class de.fraunhofer.aisec.cpg.graph.TranslationUnitDeclaration--><rect fill="#FEFECE" filter="url(#f3gdnmhyw018c)" height="48" id="de.fraunhofer.aisec.cpg.graph.TranslationUnitDeclaration" style="stroke: #A80036; stroke-width: 1.5;" width="199" x="733.5" y="292.5"/><ellipse cx="748.5" cy="308.5" fill="#ADD1B2" rx="11" ry="11" style="stroke: #A80036; stroke-width: 1.0;"/><path d="M751.4688,314.1406 Q750.8906,314.4375 750.25,314.5781 Q749.6094,314.7344 748.9063,314.7344 Q746.4063,314.7344 745.0781,313.0938 Q743.7656,311.4375 743.7656,308.3125 Q743.7656,305.1875 745.0781,303.5313 Q746.4063,301.875 748.9063,301.875 Q749.6094,301.875 750.25,302.0313 Q750.9063,302.1875 751.4688,302.4844 L751.4688,305.2031 Q750.8438,304.625 750.25,304.3594 Q749.6563,304.0781 749.0313,304.0781 Q747.6875,304.0781 747,305.1563 Q746.3125,306.2188 746.3125,308.3125 Q746.3125,310.4063 747,311.4844 Q747.6875,312.5469 749.0313,312.5469 Q749.6563,312.5469 750.25,312.2813 Q750.8438,312 751.4688,311.4219 L751.4688,314.1406 Z "/><text fill="#000000" font-family="sans-serif" font-size="12" lengthAdjust="spacingAndGlyphs" textLength="167" x="762.5" y="312.6543">TranslationUnitDeclaration</text><line style="stroke: #A80036; stroke-width: 1.5;" x1="734.5" x2="931.5" y1="324.5" y2="324.5"/><line style="stroke: #A80036; stroke-width: 1.5;" x1="734.5" x2="931.5" y1="332.5" y2="332.5"/><!--MD5=[c235e2277994a546abaab258d0865298]
class de.fraunhofer.aisec.cpg.passes.Pass--><rect fill="#FEFECE" filter="url(#f3gdnmhyw018c)" height="48" id="de.fraunhofer.aisec.cpg.passes.Pass" style="stroke: #A80036; stroke-width: 1.5;" width="62" x="885" y="545.5"/><ellipse cx="900" cy="561.5" fill="#ADD1B2" rx="11" ry="11" style="stroke: #A80036; stroke-width: 1.0;"/><path d="M902.9688,567.1406 Q902.3906,567.4375 901.75,567.5781 Q901.1094,567.7344 900.4063,567.7344 Q897.9063,567.7344 896.5781,566.0938 Q895.2656,564.4375 895.2656,561.3125 Q895.2656,558.1875 896.5781,556.5313 Q897.9063,554.875 900.4063,554.875 Q901.1094,554.875 901.75,555.0313 Q902.4063,555.1875 902.9688,555.4844 L902.9688,558.2031 Q902.3438,557.625 901.75,557.3594 Q901.1563,557.0781 900.5313,557.0781 Q899.1875,557.0781 898.5,558.1563 Q897.8125,559.2188 897.8125,561.3125 Q897.8125,563.4063 898.5,564.4844 Q899.1875,565.5469 900.5313,565.5469 Q901.1563,565.5469 901.75,565.2813 Q902.3438,565 902.9688,564.4219 L902.9688,567.1406 Z "/><text fill="#000000" font-family="sans-serif" font-size="12" lengthAdjust="spacingAndGlyphs" textLength="30" x="914" y="565.6543">Pass</text><line style="stroke: #A80036; stroke-width: 1.5;" x1="886" x2="946" y1="577.5" y2="577.5"/><line style="stroke: #A80036; stroke-width: 1.5;" x1="886" x2="946" y1="585.5" y2="585.5"/><!--MD5=[d1b2204a588cb2a22a90aca91fe316de]
link de.fraunhofer.aisec.cpg.TranslationResult to de.fraunhofer.aisec.cpg.graph.TranslationUnitDeclaration--><path d="M592.25,158.06 C655.11,199.16 742.79,256.5 793.15,289.44 " fill="none" id="de.fraunhofer.aisec.cpg.TranslationResult-&gt;de.fraunhofer.aisec.cpg.graph.TranslationUnitDeclaration" style="stroke: #A80036; stroke-width: 1.0;"/><polygon fill="#A80036" points="797.6,292.35,792.2646,284.0715,793.4179,289.6095,787.8799,290.7628,797.6,292.35" style="stroke: #A80036; stroke-width: 1.0;"/><text fill="#000000" font-family="sans-serif" font-size="13" lengthAdjust="spacingAndGlyphs" textLength="101" x="657" y="201.0669">translationUnits</text><text fill="#000000" font-family="sans-serif" font-size="13" lengthAdjust="spacingAndGlyphs" textLength="7" x="780.6319" y="281.3236">*</text><!--MD5=[73d896ac7f28da71ba59dc5082c13c2f]
link de.fraunhofer.aisec.cpg.TranslationManager to de.fraunhofer.aisec.cpg.passes.Pass--><path d="M335.21,151.55 C344.92,153.88 354.58,156.06 364,158 C492.43,184.42 862.54,136.42 949,235 C1025.83,322.61 962.25,477.26 930.93,540.43 " fill="none" id="de.fraunhofer.aisec.cpg.TranslationManager-&gt;de.fraunhofer.aisec.cpg.passes.Pass" style="stroke: #A80036; stroke-width: 1.0;"/><polygon fill="#A80036" points="928.55,545.18,936.1446,538.9093,930.7803,540.705,928.9846,535.3407,928.55,545.18" style="stroke: #A80036; stroke-width: 1.0;"/><text fill="#000000" font-family="sans-serif" font-size="13" lengthAdjust="spacingAndGlyphs" textLength="45" x="986" y="321.0669">passes</text><text fill="#000000" font-family="sans-serif" font-size="13" lengthAdjust="spacingAndGlyphs" textLength="7" x="923.7559" y="534.507">*</text><!--MD5=[541631c3ef1bf695a66c23247300f0a4]
link de.fraunhofer.aisec.cpg.TranslationManager to de.fraunhofer.aisec.cpg.TranslationConfiguration--><path d="M255.07,151.68 C291.81,176.26 339.31,208.03 382.69,237.04 " fill="none" id="de.fraunhofer.aisec.cpg.TranslationManager-&gt;de.fraunhofer.aisec.cpg.TranslationConfiguration" style="stroke: #A80036; stroke-width: 1.0;"/><polygon fill="#A80036" points="386.87,239.84,381.6003,231.5195,382.7097,237.0665,377.1627,238.1759,386.87,239.84" style="stroke: #A80036; stroke-width: 1.0;"/><text fill="#000000" font-family="sans-serif" font-size="13" lengthAdjust="spacingAndGlyphs" textLength="38" x="328" y="201.0669">config</text><!--MD5=[d290c6170016d1e4b7a5f3125cb5d8e7]
reverse link de.fraunhofer.aisec.cpg.TranslationManager to de.fraunhofer.aisec.cpg.TranslationManager.Builder--><path d="M192,166.97 C192,202.94 192,248.18 192,279.22 " fill="none" id="de.fraunhofer.aisec.cpg.TranslationManager&lt;-de.fraunhofer.aisec.cpg.TranslationManager.Builder" style="stroke: #A80036; stroke-width: 1.0;"/><ellipse cx="192" cy="159.68" fill="#FFFFFF" rx="8" ry="8" style="stroke: #A80036; stroke-width: 1.0;"/><line style="stroke: #A80036; stroke-width: 1.0;" x1="192" x2="192" y1="167.68" y2="151.68"/><line style="stroke: #A80036; stroke-width: 1.0;" x1="184" x2="200" y1="159.68" y2="159.68"/><!--MD5=[fc90956f068feace053ead9f5fd758ba]
link de.fraunhofer.aisec.cpg.TranslationConfiguration to de.fraunhofer.aisec.cpg.passes.Pass--><path d="M613.12,385.76 C702.46,439.66 821.52,511.5 880.2,546.9 " fill="none" id="de.fraunhofer.aisec.cpg.TranslationConfiguration-&gt;de.fraunhofer.aisec.cpg.passes.Pass" style="stroke: #A80036; stroke-width: 1.0;"/><polygon fill="#A80036" points="884.67,549.59,879.0303,541.5157,880.3888,547.007,874.8975,548.3656,884.67,549.59" style="stroke: #A80036; stroke-width: 1.0;"/><text fill="#000000" font-family="sans-serif" font-size="13" lengthAdjust="spacingAndGlyphs" textLength="110" x="709" y="441.0669">registeredPasses</text><text fill="#000000" font-family="sans-serif" font-size="13" lengthAdjust="spacingAndGlyphs" textLength="7" x="870.0509" y="540.6755">*</text><!--MD5=[f47eaa4e96c878c5c608fb34084a00cc]
reverse link de.fraunhofer.aisec.cpg.TranslationConfiguration to de.fraunhofer.aisec.cpg.TranslationConfiguration.Builder--><path d="M500,413.43 C500,433.54 500,454.72 500,474.74 " fill="none" id="de.fraunhofer.aisec.cpg.TranslationConfiguration&lt;-de.fraunhofer.aisec.cpg.TranslationConfiguration.Builder" style="stroke: #A80036; stroke-width: 1.0;"/><ellipse cx="500" cy="406.3" fill="#FFFFFF" rx="8" ry="8" style="stroke: #A80036; stroke-width: 1.0;"/><line style="stroke: #A80036; stroke-width: 1.0;" x1="500" x2="500" y1="414.3" y2="398.3"/><line style="stroke: #A80036; stroke-width: 1.0;" x1="492" x2="508" y1="406.3" y2="406.3"/><text fill="#888888" font-family="sans-serif" font-size="10" lengthAdjust="spacingAndGlyphs" textLength="186" x="449" y="715.2822">UMLDoclet 2.0.9, PlantUML 1.2020.08</text><!--MD5=[b8e2ab0b55a141c75c9678f3fa4d9c6e]
@startuml
    namespace de.fraunhofer.aisec.cpg {

        class TranslationResult [[TranslationResult.html]] {
            {static} +SOURCE_LOCATIONS_TO_FRONTEND: String
            +TranslationResult(TranslationManager)
            +isCancelled(): boolean
            +getScratch(): Map<String, Object>
        }

        class TranslationManager [[TranslationManager.html]] {
            {static} +builder(): Builder
            +analyze(): CompletableFuture<TranslationResult>
            +isCancelled(): boolean
        }

        class de.fraunhofer.aisec.cpg.TranslationManager.Builder [[TranslationManager.Builder.html]] {
            +config(TranslationConfiguration): Builder
            +build(): TranslationManager
        }

        class TranslationConfiguration [[TranslationConfiguration.html]] {
            +debugParser: boolean
            +loadIncludes: boolean
            +includePaths: String[]
            +codeInNodes: boolean
            +symbols: Map<String, String>
            {static} +builder(): Builder
            +getSymbols(): Map<String, String>
            +getSourceLocations(): List<File>
            +getTopLevel(): File
        }

        class de.fraunhofer.aisec.cpg.TranslationConfiguration.Builder [[TranslationConfiguration.Builder.html]] {
            +symbols(Map<String, String>): Builder
            +sourceLocations(File...): Builder
            +topLevel(File): Builder
            +debugParser(boolean): Builder
            +failOnError(boolean): Builder
            +loadIncludes(boolean): Builder
            +includePath(String): Builder
            +registerPass(Pass): Builder
            +defaultPasses(): Builder
            +codeInNodes(boolean): Builder
            +build(): TranslationConfiguration
        }

        TranslationResult - -> "*" de.fraunhofer.aisec.cpg.graph.TranslationUnitDeclaration: translationUnits
        TranslationManager - -> "*" de.fraunhofer.aisec.cpg.passes.Pass: passes
        TranslationManager - -> TranslationConfiguration: config
        TranslationManager +- - de.fraunhofer.aisec.cpg.TranslationManager.Builder
        TranslationConfiguration - -> "*" de.fraunhofer.aisec.cpg.passes.Pass: registeredPasses
        TranslationConfiguration +- - de.fraunhofer.aisec.cpg.TranslationConfiguration.Builder
    }

    center footer UMLDoclet 2.0.9, PlantUML 1.2020.08
@enduml

PlantUML version 1.2020.08(Sun Apr 26 16:08:22 CEST 2020)
(APACHE source distribution)
Java Runtime: OpenJDK Runtime Environment
JVM: OpenJDK 64-Bit Server VM
Java Version: 12.0.2+9-Ubuntu-118.04
Operating System: Linux
Default Encoding: UTF-8
Language: en
Country: US
--></g></svg>