<?xml version="1.0" encoding="UTF-8" standalone="no"?><svg xmlns="http://www.w3.org/2000/svg" xmlns:xlink="http://www.w3.org/1999/xlink" contentScriptType="application/ecmascript" contentStyleType="text/css" height="320px" preserveAspectRatio="none" style="width:269px;height:320px;" version="1.1" viewBox="0 0 269 320" width="269px" zoomAndPan="magnify"><defs><filter height="300%" id="f5uurug5xl7i9" width="300%" x="-1" y="-1"><feGaussianBlur result="blurOut" stdDeviation="2.0"/><feColorMatrix in="blurOut" result="blurOut2" type="matrix" values="0 0 0 0 0 0 0 0 0 0 0 0 0 0 0 0 0 0 .4 0"/><feOffset dx="4.0" dy="4.0" in="blurOut2" result="blurOut3"/><feBlend in="SourceGraphic" in2="blurOut3" mode="normal"/></filter></defs><g><!--MD5=[25b648a678073bd0b65f20260d4d600a]
class de.fraunhofer.aisec.cpg.TranslationConfiguration--><a href="TranslationConfiguration.html" target="_top" title="TranslationConfiguration.html" xlink:actuate="onRequest" xlink:href="TranslationConfiguration.html" xlink:show="new" xlink:title="TranslationConfiguration.html" xlink:type="simple"><rect fill="#FEFECE" filter="url(#f5uurug5xl7i9)" height="181.9844" id="de.fraunhofer.aisec.cpg.TranslationConfiguration" style="stroke: #A80036; stroke-width: 1.5;" width="229" x="17.5" y="8"/><ellipse cx="45.55" cy="26.9688" fill="#ADD1B2" rx="11" ry="11" style="stroke: #A80036; stroke-width: 1.0;"/><path d="M48.5188,32.6094 Q47.9406,32.9063 47.3,33.0469 Q46.6594,33.2031 45.9563,33.2031 Q43.4563,33.2031 42.1281,31.5625 Q40.8156,29.9063 40.8156,26.7813 Q40.8156,23.6563 42.1281,22 Q43.4563,20.3438 45.9563,20.3438 Q46.6594,20.3438 47.3,20.5 Q47.9563,20.6563 48.5188,20.9531 L48.5188,23.6719 Q47.8938,23.0938 47.3,22.8281 Q46.7063,22.5469 46.0813,22.5469 Q44.7375,22.5469 44.05,23.625 Q43.3625,24.6875 43.3625,26.7813 Q43.3625,28.875 44.05,29.9531 Q44.7375,31.0156 46.0813,31.0156 Q46.7063,31.0156 47.3,30.75 Q47.8938,30.4688 48.5188,29.8906 L48.5188,32.6094 Z "/><text fill="#000000" font-family="sans-serif" font-size="14" lengthAdjust="spacingAndGlyphs" textLength="168" x="62.45" y="25.9951">TranslationConfiguration</text><text fill="#000000" font-family="sans-serif" font-size="10" lengthAdjust="spacingAndGlyphs" textLength="114" x="89.45" y="38.5791">de.fraunhofer.aisec.cpg</text><line style="stroke: #A80036; stroke-width: 1.5;" x1="18.5" x2="245.5" y1="45.9375" y2="45.9375"/><ellipse cx="28.5" cy="56.9375" fill="none" rx="3" ry="3" style="stroke: #038048; stroke-width: 1.0;"/><text fill="#000000" font-family="sans-serif" font-size="11" lengthAdjust="spacingAndGlyphs" textLength="126" x="37.5" y="60.1479">debugParser: boolean</text><ellipse cx="28.5" cy="69.7422" fill="none" rx="3" ry="3" style="stroke: #038048; stroke-width: 1.0;"/><text fill="#000000" font-family="sans-serif" font-size="11" lengthAdjust="spacingAndGlyphs" textLength="124" x="37.5" y="72.9526">loadIncludes: boolean</text><ellipse cx="28.5" cy="82.5469" fill="none" rx="3" ry="3" style="stroke: #038048; stroke-width: 1.0;"/><text fill="#000000" font-family="sans-serif" font-size="11" lengthAdjust="spacingAndGlyphs" textLength="122" x="37.5" y="85.7573">includePaths: String[]</text><ellipse cx="28.5" cy="95.3516" fill="none" rx="3" ry="3" style="stroke: #038048; stroke-width: 1.0;"/><text fill="#000000" font-family="sans-serif" font-size="11" lengthAdjust="spacingAndGlyphs" textLength="126" x="37.5" y="98.562">codeInNodes: boolean</text><ellipse cx="28.5" cy="108.1563" fill="none" rx="3" ry="3" style="stroke: #038048; stroke-width: 1.0;"/><text fill="#000000" font-family="sans-serif" font-size="11" lengthAdjust="spacingAndGlyphs" textLength="173" x="37.5" y="111.3667">symbols: Map&lt;String, String&gt;</text><line style="stroke: #A80036; stroke-width: 1.5;" x1="18.5" x2="245.5" y1="117.9609" y2="117.9609"/><ellipse cx="28.5" cy="128.9609" fill="#84BE84" rx="3" ry="3" style="stroke: #038048; stroke-width: 1.0;"/><text fill="#000000" font-family="sans-serif" font-size="11" lengthAdjust="spacingAndGlyphs" text-decoration="underline" textLength="95" x="37.5" y="132.1714">builder(): Builder</text><ellipse cx="28.5" cy="141.7656" fill="#84BE84" rx="3" ry="3" style="stroke: #038048; stroke-width: 1.0;"/><text fill="#000000" font-family="sans-serif" font-size="11" lengthAdjust="spacingAndGlyphs" textLength="200" x="37.5" y="144.9761">getSymbols(): Map&lt;String, String&gt;</text><ellipse cx="28.5" cy="154.5703" fill="#84BE84" rx="3" ry="3" style="stroke: #038048; stroke-width: 1.0;"/><text fill="#000000" font-family="sans-serif" font-size="11" lengthAdjust="spacingAndGlyphs" textLength="185" x="37.5" y="157.7808">getSourceLocations(): List&lt;File&gt;</text><ellipse cx="28.5" cy="167.375" fill="#84BE84" rx="3" ry="3" style="stroke: #038048; stroke-width: 1.0;"/><text fill="#000000" font-family="sans-serif" font-size="11" lengthAdjust="spacingAndGlyphs" textLength="103" x="37.5" y="170.5854">getTopLevel(): File</text><ellipse cx="28.5" cy="180.1797" fill="#84BE84" rx="3" ry="3" style="stroke: #038048; stroke-width: 1.0;"/><text fill="#000000" font-family="sans-serif" font-size="11" lengthAdjust="spacingAndGlyphs" textLength="203" x="37.5" y="183.3901">getRegisteredPasses(): List&lt;Pass&gt;</text></a><!--MD5=[f742eeb2b5efa456023da7062870a3c8]
class de.fraunhofer.aisec.cpg.TranslationConfiguration.Builder--><a href="TranslationConfiguration.Builder.html" target="_top" title="TranslationConfiguration.Builder.html" xlink:actuate="onRequest" xlink:href="TranslationConfiguration.Builder.html" xlink:show="new" xlink:title="TranslationConfiguration.Builder.html" xlink:type="simple"><rect fill="#FEFECE" filter="url(#f5uurug5xl7i9)" height="37.9375" id="de.fraunhofer.aisec.cpg.TranslationConfiguration.Builder" style="stroke: #A80036; stroke-width: 1.5;" width="252" x="6" y="250"/><ellipse cx="21" cy="268.9688" fill="#ADD1B2" rx="11" ry="11" style="stroke: #A80036; stroke-width: 1.0;"/><path d="M23.9688,274.6094 Q23.3906,274.9063 22.75,275.0469 Q22.1094,275.2031 21.4063,275.2031 Q18.9063,275.2031 17.5781,273.5625 Q16.2656,271.9063 16.2656,268.7813 Q16.2656,265.6563 17.5781,264 Q18.9063,262.3438 21.4063,262.3438 Q22.1094,262.3438 22.75,262.5 Q23.4063,262.6563 23.9688,262.9531 L23.9688,265.6719 Q23.3438,265.0938 22.75,264.8281 Q22.1563,264.5469 21.5313,264.5469 Q20.1875,264.5469 19.5,265.625 Q18.8125,266.6875 18.8125,268.7813 Q18.8125,270.875 19.5,271.9531 Q20.1875,273.0156 21.5313,273.0156 Q22.1563,273.0156 22.75,272.75 Q23.3438,272.4688 23.9688,271.8906 L23.9688,274.6094 Z "/><text fill="#000000" font-family="sans-serif" font-size="14" lengthAdjust="spacingAndGlyphs" textLength="220" x="35" y="267.9951">TranslationConfiguration.Builder</text><text fill="#000000" font-family="sans-serif" font-size="10" lengthAdjust="spacingAndGlyphs" textLength="114" x="88" y="280.5791">de.fraunhofer.aisec.cpg</text></a><!--MD5=[f47eaa4e96c878c5c608fb34084a00cc]
reverse link de.fraunhofer.aisec.cpg.TranslationConfiguration to de.fraunhofer.aisec.cpg.TranslationConfiguration.Builder--><path d="M132,205.63 C132,222.69 132,238.47 132,249.89 " fill="none" id="de.fraunhofer.aisec.cpg.TranslationConfiguration&lt;-de.fraunhofer.aisec.cpg.TranslationConfiguration.Builder" style="stroke: #A80036; stroke-width: 1.0;"/><ellipse cx="132" cy="198.39" fill="#FFFFFF" rx="8" ry="8" style="stroke: #A80036; stroke-width: 1.0;"/><line style="stroke: #A80036; stroke-width: 1.0;" x1="132" x2="132" y1="206.39" y2="190.39"/><line style="stroke: #A80036; stroke-width: 1.0;" x1="124" x2="140" y1="198.39" y2="198.39"/><text fill="#888888" font-family="sans-serif" font-size="10" lengthAdjust="spacingAndGlyphs" textLength="186" x="45" y="307.2822">UMLDoclet 2.0.9, PlantUML 1.2020.08</text><!--MD5=[de67997f39f96c61329d8bbacbe929db]
@startuml
    set namespaceSeparator none
    hide empty fields
    hide empty methods

    class "<size:14>TranslationConfiguration\n<size:10>de.fraunhofer.aisec.cpg" as de.fraunhofer.aisec.cpg.TranslationConfiguration [[TranslationConfiguration.html]] {
        +debugParser: boolean
        +loadIncludes: boolean
        +includePaths: String[]
        +codeInNodes: boolean
        +symbols: Map<String, String>
        {static} +builder(): Builder
        +getSymbols(): Map<String, String>
        +getSourceLocations(): List<File>
        +getTopLevel(): File
        +getRegisteredPasses(): List<Pass>
    }
    class "<size:14>TranslationConfiguration.Builder\n<size:10>de.fraunhofer.aisec.cpg" as de.fraunhofer.aisec.cpg.TranslationConfiguration.Builder [[TranslationConfiguration.Builder.html]]

    de.fraunhofer.aisec.cpg.TranslationConfiguration +- - de.fraunhofer.aisec.cpg.TranslationConfiguration.Builder

    center footer UMLDoclet 2.0.9, PlantUML 1.2020.08
@enduml

PlantUML version 1.2020.08(Sun Apr 26 16:08:22 CEST 2020)
(APACHE source distribution)
Java Runtime: OpenJDK Runtime Environment
JVM: OpenJDK 64-Bit Server VM
Java Version: 12.0.2+9-Ubuntu-118.04
Operating System: Linux
Default Encoding: UTF-8
Language: en
Country: US
--></g></svg>