<?xml version="1.0" encoding="UTF-8" standalone="no"?><svg xmlns="http://www.w3.org/2000/svg" xmlns:xlink="http://www.w3.org/1999/xlink" contentScriptType="application/ecmascript" contentStyleType="text/css" height="325px" preserveAspectRatio="none" style="width:269px;height:325px;" version="1.1" viewBox="0 0 269 325" width="269px" zoomAndPan="magnify"><defs><filter height="300%" id="f9ux9eb5285ld" width="300%" x="-1" y="-1"><feGaussianBlur result="blurOut" stdDeviation="2.0"/><feColorMatrix in="blurOut" result="blurOut2" type="matrix" values="0 0 0 0 0 0 0 0 0 0 0 0 0 0 0 0 0 0 .4 0"/><feOffset dx="4.0" dy="4.0" in="blurOut2" result="blurOut3"/><feBlend in="SourceGraphic" in2="blurOut3" mode="normal"/></filter></defs><g><!--MD5=[f742eeb2b5efa456023da7062870a3c8]
class de.fraunhofer.aisec.cpg.TranslationConfiguration.Builder--><a href="TranslationConfiguration.Builder.html" target="_top" title="TranslationConfiguration.Builder.html" xlink:actuate="onRequest" xlink:href="TranslationConfiguration.Builder.html" xlink:show="new" xlink:title="TranslationConfiguration.Builder.html" xlink:type="simple"><rect fill="#FEFECE" filter="url(#f9ux9eb5285ld)" height="186.7891" id="de.fraunhofer.aisec.cpg.TranslationConfiguration.Builder" style="stroke: #A80036; stroke-width: 1.5;" width="252" x="6" y="106"/><ellipse cx="21" cy="124.9688" fill="#ADD1B2" rx="11" ry="11" style="stroke: #A80036; stroke-width: 1.0;"/><path d="M23.9688,130.6094 Q23.3906,130.9063 22.75,131.0469 Q22.1094,131.2031 21.4063,131.2031 Q18.9063,131.2031 17.5781,129.5625 Q16.2656,127.9063 16.2656,124.7813 Q16.2656,121.6563 17.5781,120 Q18.9063,118.3438 21.4063,118.3438 Q22.1094,118.3438 22.75,118.5 Q23.4063,118.6563 23.9688,118.9531 L23.9688,121.6719 Q23.3438,121.0938 22.75,120.8281 Q22.1563,120.5469 21.5313,120.5469 Q20.1875,120.5469 19.5,121.625 Q18.8125,122.6875 18.8125,124.7813 Q18.8125,126.875 19.5,127.9531 Q20.1875,129.0156 21.5313,129.0156 Q22.1563,129.0156 22.75,128.75 Q23.3438,128.4688 23.9688,127.8906 L23.9688,130.6094 Z "/><text fill="#000000" font-family="sans-serif" font-size="14" lengthAdjust="spacingAndGlyphs" textLength="220" x="35" y="123.9951">TranslationConfiguration.Builder</text><text fill="#000000" font-family="sans-serif" font-size="10" lengthAdjust="spacingAndGlyphs" textLength="114" x="88" y="136.5791">de.fraunhofer.aisec.cpg</text><line style="stroke: #A80036; stroke-width: 1.5;" x1="7" x2="257" y1="143.9375" y2="143.9375"/><ellipse cx="17" cy="154.9375" fill="#84BE84" rx="3" ry="3" style="stroke: #038048; stroke-width: 1.0;"/><text fill="#000000" font-family="sans-serif" font-size="11" lengthAdjust="spacingAndGlyphs" textLength="221" x="26" y="158.1479">symbols(Map&lt;String, String&gt;): Builder</text><ellipse cx="17" cy="167.7422" fill="#84BE84" rx="3" ry="3" style="stroke: #038048; stroke-width: 1.0;"/><text fill="#000000" font-family="sans-serif" font-size="11" lengthAdjust="spacingAndGlyphs" textLength="180" x="26" y="170.9526">sourceLocations(File...): Builder</text><ellipse cx="17" cy="180.5469" fill="#84BE84" rx="3" ry="3" style="stroke: #038048; stroke-width: 1.0;"/><text fill="#000000" font-family="sans-serif" font-size="11" lengthAdjust="spacingAndGlyphs" textLength="122" x="26" y="183.7573">topLevel(File): Builder</text><ellipse cx="17" cy="193.3516" fill="#84BE84" rx="3" ry="3" style="stroke: #038048; stroke-width: 1.0;"/><text fill="#000000" font-family="sans-serif" font-size="11" lengthAdjust="spacingAndGlyphs" textLength="174" x="26" y="196.562">debugParser(boolean): Builder</text><ellipse cx="17" cy="206.1563" fill="#84BE84" rx="3" ry="3" style="stroke: #038048; stroke-width: 1.0;"/><text fill="#000000" font-family="sans-serif" font-size="11" lengthAdjust="spacingAndGlyphs" textLength="163" x="26" y="209.3667">failOnError(boolean): Builder</text><ellipse cx="17" cy="218.9609" fill="#84BE84" rx="3" ry="3" style="stroke: #038048; stroke-width: 1.0;"/><text fill="#000000" font-family="sans-serif" font-size="11" lengthAdjust="spacingAndGlyphs" textLength="172" x="26" y="222.1714">loadIncludes(boolean): Builder</text><ellipse cx="17" cy="231.7656" fill="#84BE84" rx="3" ry="3" style="stroke: #038048; stroke-width: 1.0;"/><text fill="#000000" font-family="sans-serif" font-size="11" lengthAdjust="spacingAndGlyphs" textLength="155" x="26" y="234.9761">includePath(String): Builder</text><ellipse cx="17" cy="244.5703" fill="#84BE84" rx="3" ry="3" style="stroke: #038048; stroke-width: 1.0;"/><text fill="#000000" font-family="sans-serif" font-size="11" lengthAdjust="spacingAndGlyphs" textLength="157" x="26" y="247.7808">registerPass(Pass): Builder</text><ellipse cx="17" cy="257.375" fill="#84BE84" rx="3" ry="3" style="stroke: #038048; stroke-width: 1.0;"/><text fill="#000000" font-family="sans-serif" font-size="11" lengthAdjust="spacingAndGlyphs" textLength="137" x="26" y="260.5854">defaultPasses(): Builder</text><ellipse cx="17" cy="270.1797" fill="#84BE84" rx="3" ry="3" style="stroke: #038048; stroke-width: 1.0;"/><text fill="#000000" font-family="sans-serif" font-size="11" lengthAdjust="spacingAndGlyphs" textLength="174" x="26" y="273.3901">codeInNodes(boolean): Builder</text><ellipse cx="17" cy="282.9844" fill="#84BE84" rx="3" ry="3" style="stroke: #038048; stroke-width: 1.0;"/><text fill="#000000" font-family="sans-serif" font-size="11" lengthAdjust="spacingAndGlyphs" textLength="183" x="26" y="286.1948">build(): TranslationConfiguration</text></a><!--MD5=[25b648a678073bd0b65f20260d4d600a]
class de.fraunhofer.aisec.cpg.TranslationConfiguration--><a href="TranslationConfiguration.html" target="_top" title="TranslationConfiguration.html" xlink:actuate="onRequest" xlink:href="TranslationConfiguration.html" xlink:show="new" xlink:title="TranslationConfiguration.html" xlink:type="simple"><rect fill="#FEFECE" filter="url(#f9ux9eb5285ld)" height="37.9375" id="de.fraunhofer.aisec.cpg.TranslationConfiguration" style="stroke: #A80036; stroke-width: 1.5;" width="200" x="32" y="8"/><ellipse cx="47" cy="26.9688" fill="#ADD1B2" rx="11" ry="11" style="stroke: #A80036; stroke-width: 1.0;"/><path d="M49.9688,32.6094 Q49.3906,32.9063 48.75,33.0469 Q48.1094,33.2031 47.4063,33.2031 Q44.9063,33.2031 43.5781,31.5625 Q42.2656,29.9063 42.2656,26.7813 Q42.2656,23.6563 43.5781,22 Q44.9063,20.3438 47.4063,20.3438 Q48.1094,20.3438 48.75,20.5 Q49.4063,20.6563 49.9688,20.9531 L49.9688,23.6719 Q49.3438,23.0938 48.75,22.8281 Q48.1563,22.5469 47.5313,22.5469 Q46.1875,22.5469 45.5,23.625 Q44.8125,24.6875 44.8125,26.7813 Q44.8125,28.875 45.5,29.9531 Q46.1875,31.0156 47.5313,31.0156 Q48.1563,31.0156 48.75,30.75 Q49.3438,30.4688 49.9688,29.8906 L49.9688,32.6094 Z "/><text fill="#000000" font-family="sans-serif" font-size="14" lengthAdjust="spacingAndGlyphs" textLength="168" x="61" y="25.9951">TranslationConfiguration</text><text fill="#000000" font-family="sans-serif" font-size="10" lengthAdjust="spacingAndGlyphs" textLength="114" x="88" y="38.5791">de.fraunhofer.aisec.cpg</text></a><!--MD5=[f47eaa4e96c878c5c608fb34084a00cc]
reverse link de.fraunhofer.aisec.cpg.TranslationConfiguration to de.fraunhofer.aisec.cpg.TranslationConfiguration.Builder--><path d="M132,61.59 C132,74.51 132,89.98 132,105.8 " fill="none" id="de.fraunhofer.aisec.cpg.TranslationConfiguration&lt;-de.fraunhofer.aisec.cpg.TranslationConfiguration.Builder" style="stroke: #A80036; stroke-width: 1.0;"/><ellipse cx="132" cy="54.25" fill="#FFFFFF" rx="8" ry="8" style="stroke: #A80036; stroke-width: 1.0;"/><line style="stroke: #A80036; stroke-width: 1.0;" x1="132" x2="132" y1="62.25" y2="46.25"/><line style="stroke: #A80036; stroke-width: 1.0;" x1="124" x2="140" y1="54.25" y2="54.25"/><text fill="#888888" font-family="sans-serif" font-size="10" lengthAdjust="spacingAndGlyphs" textLength="186" x="45" y="312.2822">UMLDoclet 2.0.9, PlantUML 1.2020.08</text><!--MD5=[f78e249ff627991b5a5f69cbc31c9811]
@startuml
    set namespaceSeparator none
    hide empty fields
    hide empty methods

    class "<size:14>TranslationConfiguration.Builder\n<size:10>de.fraunhofer.aisec.cpg" as de.fraunhofer.aisec.cpg.TranslationConfiguration.Builder [[TranslationConfiguration.Builder.html]] {
        +symbols(Map<String, String>): Builder
        +sourceLocations(File...): Builder
        +topLevel(File): Builder
        +debugParser(boolean): Builder
        +failOnError(boolean): Builder
        +loadIncludes(boolean): Builder
        +includePath(String): Builder
        +registerPass(Pass): Builder
        +defaultPasses(): Builder
        +codeInNodes(boolean): Builder
        +build(): TranslationConfiguration
    }

    class "<size:14>TranslationConfiguration\n<size:10>de.fraunhofer.aisec.cpg" as de.fraunhofer.aisec.cpg.TranslationConfiguration [[TranslationConfiguration.html]]

    de.fraunhofer.aisec.cpg.TranslationConfiguration +- - de.fraunhofer.aisec.cpg.TranslationConfiguration.Builder

    center footer UMLDoclet 2.0.9, PlantUML 1.2020.08
@enduml

PlantUML version 1.2020.08(Sun Apr 26 16:08:22 CEST 2020)
(APACHE source distribution)
Java Runtime: OpenJDK Runtime Environment
JVM: OpenJDK 64-Bit Server VM
Java Version: 12.0.2+9-Ubuntu-118.04
Operating System: Linux
Default Encoding: UTF-8
Language: en
Country: US
--></g></svg>