<?xml version="1.0" encoding="UTF-8" standalone="no"?><svg xmlns="http://www.w3.org/2000/svg" xmlns:xlink="http://www.w3.org/1999/xlink" contentScriptType="application/ecmascript" contentStyleType="text/css" height="248px" preserveAspectRatio="none" style="width:325px;height:248px;" version="1.1" viewBox="0 0 325 248" width="325px" zoomAndPan="magnify"><defs><filter height="300%" id="f17qqmpuah3npj" width="300%" x="-1" y="-1"><feGaussianBlur result="blurOut" stdDeviation="2.0"/><feColorMatrix in="blurOut" result="blurOut2" type="matrix" values="0 0 0 0 0 0 0 0 0 0 0 0 0 0 0 0 0 0 .4 0"/><feOffset dx="4.0" dy="4.0" in="blurOut2" result="blurOut3"/><feBlend in="SourceGraphic" in2="blurOut3" mode="normal"/></filter></defs><g><!--MD5=[6707d313b60fbfb328572cc8979876e4]
class de.fraunhofer.aisec.cpg.TranslationManager--><a href="TranslationManager.html" target="_top" title="TranslationManager.html" xlink:actuate="onRequest" xlink:href="TranslationManager.html" xlink:show="new" xlink:title="TranslationManager.html" xlink:type="simple"><rect fill="#FEFECE" filter="url(#f17qqmpuah3npj)" height="109.9609" id="de.fraunhofer.aisec.cpg.TranslationManager" style="stroke: #A80036; stroke-width: 1.5;" width="308" x="6" y="8"/><ellipse cx="87.75" cy="26.9688" fill="#ADD1B2" rx="11" ry="11" style="stroke: #A80036; stroke-width: 1.0;"/><path d="M90.7188,32.6094 Q90.1406,32.9063 89.5,33.0469 Q88.8594,33.2031 88.1563,33.2031 Q85.6563,33.2031 84.3281,31.5625 Q83.0156,29.9063 83.0156,26.7813 Q83.0156,23.6563 84.3281,22 Q85.6563,20.3438 88.1563,20.3438 Q88.8594,20.3438 89.5,20.5 Q90.1563,20.6563 90.7188,20.9531 L90.7188,23.6719 Q90.0938,23.0938 89.5,22.8281 Q88.9063,22.5469 88.2813,22.5469 Q86.9375,22.5469 86.25,23.625 Q85.5625,24.6875 85.5625,26.7813 Q85.5625,28.875 86.25,29.9531 Q86.9375,31.0156 88.2813,31.0156 Q88.9063,31.0156 89.5,30.75 Q90.0938,30.4688 90.7188,29.8906 L90.7188,32.6094 Z "/><text fill="#000000" font-family="sans-serif" font-size="14" lengthAdjust="spacingAndGlyphs" textLength="136" x="108.25" y="25.9951">TranslationManager</text><text fill="#000000" font-family="sans-serif" font-size="10" lengthAdjust="spacingAndGlyphs" textLength="114" x="119.25" y="38.5791">de.fraunhofer.aisec.cpg</text><line style="stroke: #A80036; stroke-width: 1.5;" x1="7" x2="313" y1="45.9375" y2="45.9375"/><ellipse cx="17" cy="56.9375" fill="#84BE84" rx="3" ry="3" style="stroke: #038048; stroke-width: 1.0;"/><text fill="#000000" font-family="sans-serif" font-size="11" lengthAdjust="spacingAndGlyphs" text-decoration="underline" textLength="95" x="26" y="60.1479">builder(): Builder</text><ellipse cx="17" cy="69.7422" fill="#84BE84" rx="3" ry="3" style="stroke: #038048; stroke-width: 1.0;"/><text fill="#000000" font-family="sans-serif" font-size="11" lengthAdjust="spacingAndGlyphs" textLength="282" x="26" y="72.9526">analyze(): CompletableFuture&lt;TranslationResult&gt;</text><ellipse cx="17" cy="82.5469" fill="#84BE84" rx="3" ry="3" style="stroke: #038048; stroke-width: 1.0;"/><text fill="#000000" font-family="sans-serif" font-size="11" lengthAdjust="spacingAndGlyphs" textLength="142" x="26" y="85.7573">getPasses(): List&lt;Pass&gt;</text><ellipse cx="17" cy="95.3516" fill="#84BE84" rx="3" ry="3" style="stroke: #038048; stroke-width: 1.0;"/><text fill="#000000" font-family="sans-serif" font-size="11" lengthAdjust="spacingAndGlyphs" textLength="126" x="26" y="98.562">isCancelled(): boolean</text><ellipse cx="17" cy="108.1563" fill="#84BE84" rx="3" ry="3" style="stroke: #038048; stroke-width: 1.0;"/><text fill="#000000" font-family="sans-serif" font-size="11" lengthAdjust="spacingAndGlyphs" textLength="210" x="26" y="111.3667">getConfig(): TranslationConfiguration</text></a><!--MD5=[24155592ede588bd2369ee121b84736a]
class de.fraunhofer.aisec.cpg.TranslationManager.Builder--><a href="TranslationManager.Builder.html" target="_top" title="TranslationManager.Builder.html" xlink:actuate="onRequest" xlink:href="TranslationManager.Builder.html" xlink:show="new" xlink:title="TranslationManager.Builder.html" xlink:type="simple"><rect fill="#FEFECE" filter="url(#f17qqmpuah3npj)" height="37.9375" id="de.fraunhofer.aisec.cpg.TranslationManager.Builder" style="stroke: #A80036; stroke-width: 1.5;" width="220" x="50" y="178"/><ellipse cx="65" cy="196.9688" fill="#ADD1B2" rx="11" ry="11" style="stroke: #A80036; stroke-width: 1.0;"/><path d="M67.9688,202.6094 Q67.3906,202.9063 66.75,203.0469 Q66.1094,203.2031 65.4063,203.2031 Q62.9063,203.2031 61.5781,201.5625 Q60.2656,199.9063 60.2656,196.7813 Q60.2656,193.6563 61.5781,192 Q62.9063,190.3438 65.4063,190.3438 Q66.1094,190.3438 66.75,190.5 Q67.4063,190.6563 67.9688,190.9531 L67.9688,193.6719 Q67.3438,193.0938 66.75,192.8281 Q66.1563,192.5469 65.5313,192.5469 Q64.1875,192.5469 63.5,193.625 Q62.8125,194.6875 62.8125,196.7813 Q62.8125,198.875 63.5,199.9531 Q64.1875,201.0156 65.5313,201.0156 Q66.1563,201.0156 66.75,200.75 Q67.3438,200.4688 67.9688,199.8906 L67.9688,202.6094 Z "/><text fill="#000000" font-family="sans-serif" font-size="14" lengthAdjust="spacingAndGlyphs" textLength="188" x="79" y="195.9951">TranslationManager.Builder</text><text fill="#000000" font-family="sans-serif" font-size="10" lengthAdjust="spacingAndGlyphs" textLength="114" x="116" y="208.5791">de.fraunhofer.aisec.cpg</text></a><!--MD5=[d290c6170016d1e4b7a5f3125cb5d8e7]
reverse link de.fraunhofer.aisec.cpg.TranslationManager to de.fraunhofer.aisec.cpg.TranslationManager.Builder--><path d="M160,133.25 C160,149.83 160,166.14 160,177.97 " fill="none" id="de.fraunhofer.aisec.cpg.TranslationManager&lt;-de.fraunhofer.aisec.cpg.TranslationManager.Builder" style="stroke: #A80036; stroke-width: 1.0;"/><ellipse cx="160" cy="126.07" fill="#FFFFFF" rx="8" ry="8" style="stroke: #A80036; stroke-width: 1.0;"/><line style="stroke: #A80036; stroke-width: 1.0;" x1="160" x2="160" y1="134.07" y2="118.07"/><line style="stroke: #A80036; stroke-width: 1.0;" x1="152" x2="168" y1="126.07" y2="126.07"/><text fill="#888888" font-family="sans-serif" font-size="10" lengthAdjust="spacingAndGlyphs" textLength="186" x="73" y="235.2822">UMLDoclet 2.0.9, PlantUML 1.2020.08</text><!--MD5=[0893e6e3c1c69b669cfcdabb93dffa04]
@startuml
    set namespaceSeparator none
    hide empty fields
    hide empty methods

    class "<size:14>TranslationManager\n<size:10>de.fraunhofer.aisec.cpg" as de.fraunhofer.aisec.cpg.TranslationManager [[TranslationManager.html]] {
        {static} +builder(): Builder
        +analyze(): CompletableFuture<TranslationResult>
        +getPasses(): List<Pass>
        +isCancelled(): boolean
        +getConfig(): TranslationConfiguration
    }
    class "<size:14>TranslationManager.Builder\n<size:10>de.fraunhofer.aisec.cpg" as de.fraunhofer.aisec.cpg.TranslationManager.Builder [[TranslationManager.Builder.html]]

    de.fraunhofer.aisec.cpg.TranslationManager +- - de.fraunhofer.aisec.cpg.TranslationManager.Builder

    center footer UMLDoclet 2.0.9, PlantUML 1.2020.08
@enduml

PlantUML version 1.2020.08(Sun Apr 26 16:08:22 CEST 2020)
(APACHE source distribution)
Java Runtime: OpenJDK Runtime Environment
JVM: OpenJDK 64-Bit Server VM
Java Version: 12.0.2+9-Ubuntu-118.04
Operating System: Linux
Default Encoding: UTF-8
Language: en
Country: US
--></g></svg>