<?xml version="1.0" encoding="UTF-8" standalone="no"?><svg xmlns="http://www.w3.org/2000/svg" xmlns:xlink="http://www.w3.org/1999/xlink" contentScriptType="application/ecmascript" contentStyleType="text/css" height="210px" preserveAspectRatio="none" style="width:273px;height:210px;" version="1.1" viewBox="0 0 273 210" width="273px" zoomAndPan="magnify"><defs><filter height="300%" id="f1bxzom6pl9mw2" width="300%" x="-1" y="-1"><feGaussianBlur result="blurOut" stdDeviation="2.0"/><feColorMatrix in="blurOut" result="blurOut2" type="matrix" values="0 0 0 0 0 0 0 0 0 0 0 0 0 0 0 0 0 0 .4 0"/><feOffset dx="4.0" dy="4.0" in="blurOut2" result="blurOut3"/><feBlend in="SourceGraphic" in2="blurOut3" mode="normal"/></filter></defs><g><!--MD5=[24155592ede588bd2369ee121b84736a]
class de.fraunhofer.aisec.cpg.TranslationManager.Builder--><a href="TranslationManager.Builder.html" target="_top" title="TranslationManager.Builder.html" xlink:actuate="onRequest" xlink:href="TranslationManager.Builder.html" xlink:show="new" xlink:title="TranslationManager.Builder.html" xlink:type="simple"><rect fill="#FEFECE" filter="url(#f1bxzom6pl9mw2)" height="71.5469" id="de.fraunhofer.aisec.cpg.TranslationManager.Builder" style="stroke: #A80036; stroke-width: 1.5;" width="256" x="6" y="106"/><ellipse cx="37.2" cy="124.9688" fill="#ADD1B2" rx="11" ry="11" style="stroke: #A80036; stroke-width: 1.0;"/><path d="M40.1688,130.6094 Q39.5906,130.9063 38.95,131.0469 Q38.3094,131.2031 37.6063,131.2031 Q35.1063,131.2031 33.7781,129.5625 Q32.4656,127.9063 32.4656,124.7813 Q32.4656,121.6563 33.7781,120 Q35.1063,118.3438 37.6063,118.3438 Q38.3094,118.3438 38.95,118.5 Q39.6063,118.6563 40.1688,118.9531 L40.1688,121.6719 Q39.5438,121.0938 38.95,120.8281 Q38.3563,120.5469 37.7313,120.5469 Q36.3875,120.5469 35.7,121.625 Q35.0125,122.6875 35.0125,124.7813 Q35.0125,126.875 35.7,127.9531 Q36.3875,129.0156 37.7313,129.0156 Q38.3563,129.0156 38.95,128.75 Q39.5438,128.4688 40.1688,127.8906 L40.1688,130.6094 Z "/><text fill="#000000" font-family="sans-serif" font-size="14" lengthAdjust="spacingAndGlyphs" textLength="188" x="54.8" y="123.9951">TranslationManager.Builder</text><text fill="#000000" font-family="sans-serif" font-size="10" lengthAdjust="spacingAndGlyphs" textLength="114" x="91.8" y="136.5791">de.fraunhofer.aisec.cpg</text><line style="stroke: #A80036; stroke-width: 1.5;" x1="7" x2="261" y1="143.9375" y2="143.9375"/><ellipse cx="17" cy="154.9375" fill="#84BE84" rx="3" ry="3" style="stroke: #038048; stroke-width: 1.0;"/><text fill="#000000" font-family="sans-serif" font-size="11" lengthAdjust="spacingAndGlyphs" textLength="230" x="26" y="158.1479">config(TranslationConfiguration): Builder</text><ellipse cx="17" cy="167.7422" fill="#84BE84" rx="3" ry="3" style="stroke: #038048; stroke-width: 1.0;"/><text fill="#000000" font-family="sans-serif" font-size="11" lengthAdjust="spacingAndGlyphs" textLength="156" x="26" y="170.9526">build(): TranslationManager</text></a><!--MD5=[6707d313b60fbfb328572cc8979876e4]
class de.fraunhofer.aisec.cpg.TranslationManager--><a href="TranslationManager.html" target="_top" title="TranslationManager.html" xlink:actuate="onRequest" xlink:href="TranslationManager.html" xlink:show="new" xlink:title="TranslationManager.html" xlink:type="simple"><rect fill="#FEFECE" filter="url(#f1bxzom6pl9mw2)" height="37.9375" id="de.fraunhofer.aisec.cpg.TranslationManager" style="stroke: #A80036; stroke-width: 1.5;" width="168" x="50" y="8"/><ellipse cx="65" cy="26.9688" fill="#ADD1B2" rx="11" ry="11" style="stroke: #A80036; stroke-width: 1.0;"/><path d="M67.9688,32.6094 Q67.3906,32.9063 66.75,33.0469 Q66.1094,33.2031 65.4063,33.2031 Q62.9063,33.2031 61.5781,31.5625 Q60.2656,29.9063 60.2656,26.7813 Q60.2656,23.6563 61.5781,22 Q62.9063,20.3438 65.4063,20.3438 Q66.1094,20.3438 66.75,20.5 Q67.4063,20.6563 67.9688,20.9531 L67.9688,23.6719 Q67.3438,23.0938 66.75,22.8281 Q66.1563,22.5469 65.5313,22.5469 Q64.1875,22.5469 63.5,23.625 Q62.8125,24.6875 62.8125,26.7813 Q62.8125,28.875 63.5,29.9531 Q64.1875,31.0156 65.5313,31.0156 Q66.1563,31.0156 66.75,30.75 Q67.3438,30.4688 67.9688,29.8906 L67.9688,32.6094 Z "/><text fill="#000000" font-family="sans-serif" font-size="14" lengthAdjust="spacingAndGlyphs" textLength="136" x="79" y="25.9951">TranslationManager</text><text fill="#000000" font-family="sans-serif" font-size="10" lengthAdjust="spacingAndGlyphs" textLength="114" x="90" y="38.5791">de.fraunhofer.aisec.cpg</text></a><!--MD5=[d290c6170016d1e4b7a5f3125cb5d8e7]
reverse link de.fraunhofer.aisec.cpg.TranslationManager to de.fraunhofer.aisec.cpg.TranslationManager.Builder--><path d="M134,61.21 C134,75.15 134,91.38 134,105.56 " fill="none" id="de.fraunhofer.aisec.cpg.TranslationManager&lt;-de.fraunhofer.aisec.cpg.TranslationManager.Builder" style="stroke: #A80036; stroke-width: 1.0;"/><ellipse cx="134" cy="54.16" fill="#FFFFFF" rx="8" ry="8" style="stroke: #A80036; stroke-width: 1.0;"/><line style="stroke: #A80036; stroke-width: 1.0;" x1="134" x2="134" y1="62.16" y2="46.16"/><line style="stroke: #A80036; stroke-width: 1.0;" x1="126" x2="142" y1="54.16" y2="54.16"/><text fill="#888888" font-family="sans-serif" font-size="10" lengthAdjust="spacingAndGlyphs" textLength="186" x="47" y="197.2822">UMLDoclet 2.0.9, PlantUML 1.2020.08</text><!--MD5=[c6794fe5baee4757c4ad5dc8863ed818]
@startuml
    set namespaceSeparator none
    hide empty fields
    hide empty methods

    class "<size:14>TranslationManager.Builder\n<size:10>de.fraunhofer.aisec.cpg" as de.fraunhofer.aisec.cpg.TranslationManager.Builder [[TranslationManager.Builder.html]] {
        +config(TranslationConfiguration): Builder
        +build(): TranslationManager
    }

    class "<size:14>TranslationManager\n<size:10>de.fraunhofer.aisec.cpg" as de.fraunhofer.aisec.cpg.TranslationManager [[TranslationManager.html]]

    de.fraunhofer.aisec.cpg.TranslationManager +- - de.fraunhofer.aisec.cpg.TranslationManager.Builder

    center footer UMLDoclet 2.0.9, PlantUML 1.2020.08
@enduml

PlantUML version 1.2020.08(Sun Apr 26 16:08:22 CEST 2020)
(APACHE source distribution)
Java Runtime: OpenJDK Runtime Environment
JVM: OpenJDK 64-Bit Server VM
Java Version: 12.0.2+9-Ubuntu-118.04
Operating System: Linux
Default Encoding: UTF-8
Language: en
Country: US
--></g></svg>