<?xml version="1.0" encoding="UTF-8" standalone="no"?><svg xmlns="http://www.w3.org/2000/svg" xmlns:xlink="http://www.w3.org/1999/xlink" contentScriptType="application/ecmascript" contentStyleType="text/css" height="244px" preserveAspectRatio="none" style="width:362px;height:244px;" version="1.1" viewBox="0 0 362 244" width="362px" zoomAndPan="magnify"><defs><filter height="300%" id="fm3oco9e7t58l" width="300%" x="-1" y="-1"><feGaussianBlur result="blurOut" stdDeviation="2.0"/><feColorMatrix in="blurOut" result="blurOut2" type="matrix" values="0 0 0 0 0 0 0 0 0 0 0 0 0 0 0 0 0 0 .4 0"/><feOffset dx="4.0" dy="4.0" in="blurOut2" result="blurOut3"/><feBlend in="SourceGraphic" in2="blurOut3" mode="normal"/></filter></defs><g><!--MD5=[8e89ecb72cd51564b9e9b907fbf7d011]
class de.fraunhofer.aisec.cpg.helpers.LocationConverter--><a href="LocationConverter.html" target="_top" title="LocationConverter.html" xlink:actuate="onRequest" xlink:href="LocationConverter.html" xlink:show="new" xlink:title="LocationConverter.html" xlink:type="simple"><rect fill="#FEFECE" filter="url(#fm3oco9e7t58l)" height="71.5469" id="de.fraunhofer.aisec.cpg.helpers.LocationConverter" style="stroke: #A80036; stroke-width: 1.5;" width="329" x="12.5" y="140"/><ellipse cx="96.75" cy="158.9688" fill="#ADD1B2" rx="11" ry="11" style="stroke: #A80036; stroke-width: 1.0;"/><path d="M99.7188,164.6094 Q99.1406,164.9063 98.5,165.0469 Q97.8594,165.2031 97.1563,165.2031 Q94.6563,165.2031 93.3281,163.5625 Q92.0156,161.9063 92.0156,158.7813 Q92.0156,155.6563 93.3281,154 Q94.6563,152.3438 97.1563,152.3438 Q97.8594,152.3438 98.5,152.5 Q99.1563,152.6563 99.7188,152.9531 L99.7188,155.6719 Q99.0938,155.0938 98.5,154.8281 Q97.9063,154.5469 97.2813,154.5469 Q95.9375,154.5469 95.25,155.625 Q94.5625,156.6875 94.5625,158.7813 Q94.5625,160.875 95.25,161.9531 Q95.9375,163.0156 97.2813,163.0156 Q97.9063,163.0156 98.5,162.75 Q99.0938,162.4688 99.7188,161.8906 L99.7188,164.6094 Z "/><text fill="#000000" font-family="sans-serif" font-size="14" lengthAdjust="spacingAndGlyphs" textLength="126" x="130.25" y="157.9951">LocationConverter</text><text fill="#000000" font-family="sans-serif" font-size="10" lengthAdjust="spacingAndGlyphs" textLength="152" x="117.25" y="170.5791">de.fraunhofer.aisec.cpg.helpers</text><line style="stroke: #A80036; stroke-width: 1.5;" x1="13.5" x2="340.5" y1="177.9375" y2="177.9375"/><ellipse cx="23.5" cy="188.9375" fill="#84BE84" rx="3" ry="3" style="stroke: #038048; stroke-width: 1.0;"/><text fill="#000000" font-family="sans-serif" font-size="11" lengthAdjust="spacingAndGlyphs" textLength="303" x="32.5" y="192.1479">toGraphProperties(PhysicalLocation): Map&lt;String, ?&gt;</text><ellipse cx="23.5" cy="201.7422" fill="#84BE84" rx="3" ry="3" style="stroke: #038048; stroke-width: 1.0;"/><text fill="#000000" font-family="sans-serif" font-size="11" lengthAdjust="spacingAndGlyphs" textLength="288" x="32.5" y="204.9526">toEntityAttribute(Map&lt;String, ?&gt;): PhysicalLocation</text></a><!--MD5=[618b62cb0f69681de7e06507132a444b]
class org.neo4j.ogm.typeconversion.CompositeAttributeConverter--><rect fill="#FEFECE" filter="url(#fm3oco9e7t58l)" height="71.5469" id="org.neo4j.ogm.typeconversion.CompositeAttributeConverter" style="stroke: #A80036; stroke-width: 1.5;" width="342" x="6" y="8"/><ellipse cx="21" cy="26.9688" fill="#B4A7E5" rx="11" ry="11" style="stroke: #A80036; stroke-width: 1.0;"/><path d="M16.9219,22.7344 L16.9219,20.5781 L24.3125,20.5781 L24.3125,22.7344 L21.8438,22.7344 L21.8438,30.8125 L24.3125,30.8125 L24.3125,32.9688 L16.9219,32.9688 L16.9219,30.8125 L19.3906,30.8125 L19.3906,22.7344 L16.9219,22.7344 Z "/><text fill="#000000" font-family="sans-serif" font-size="14" font-style="italic" lengthAdjust="spacingAndGlyphs" textLength="203" x="35" y="25.9951">CompositeAttributeConverter</text><text fill="#000000" font-family="sans-serif" font-size="10" font-style="italic" lengthAdjust="spacingAndGlyphs" textLength="150" x="61.5" y="38.5791">org.neo4j.ogm.typeconversion</text><rect fill="#FFFFFF" height="15.9688" style="stroke: #000000; stroke-width: 1.0; stroke-dasharray: 2.0,2.0;" width="105" x="246" y="5"/><text fill="#000000" font-family="sans-serif" font-size="12" font-style="italic" lengthAdjust="spacingAndGlyphs" textLength="103" x="247" y="17.1387">PhysicalLocation</text><line style="stroke: #A80036; stroke-width: 1.5;" x1="7" x2="347" y1="45.9375" y2="45.9375"/><ellipse cx="17" cy="56.9375" fill="#84BE84" rx="3" ry="3" style="stroke: #038048; stroke-width: 1.0;"/><text fill="#000000" font-family="sans-serif" font-size="11" font-style="italic" lengthAdjust="spacingAndGlyphs" textLength="301" x="26" y="60.1479">toGraphProperties(PhysicalLocation): Map&lt;String, ?&gt;</text><ellipse cx="17" cy="69.7422" fill="#84BE84" rx="3" ry="3" style="stroke: #038048; stroke-width: 1.0;"/><text fill="#000000" font-family="sans-serif" font-size="11" font-style="italic" lengthAdjust="spacingAndGlyphs" textLength="289" x="26" y="72.9526">toEntityAttribute(Map&lt;String, ?&gt;): PhysicalLocation</text><!--MD5=[f0294f57ba460cc7279e9a8ad9b319cc]
reverse link org.neo4j.ogm.typeconversion.CompositeAttributeConverter to de.fraunhofer.aisec.cpg.helpers.LocationConverter--><path d="M177,100.38 C177,113.74 177,127.65 177,139.79 " fill="none" id="org.neo4j.ogm.typeconversion.CompositeAttributeConverter&lt;-de.fraunhofer.aisec.cpg.helpers.LocationConverter" style="stroke: #A80036; stroke-width: 1.0; stroke-dasharray: 7.0,7.0;"/><polygon fill="none" points="170,100.18,177,80.18,184,100.18,170,100.18" style="stroke: #A80036; stroke-width: 1.0;"/><text fill="#888888" font-family="sans-serif" font-size="10" lengthAdjust="spacingAndGlyphs" textLength="186" x="90" y="231.2822">UMLDoclet 2.0.9, PlantUML 1.2020.08</text><!--MD5=[556643ba523bf4ec6aa1758888374740]
@startuml
    set namespaceSeparator none
    hide empty fields
    hide empty methods

    class "<size:14>LocationConverter\n<size:10>de.fraunhofer.aisec.cpg.helpers" as de.fraunhofer.aisec.cpg.helpers.LocationConverter [[LocationConverter.html]] {
        +toGraphProperties(PhysicalLocation): Map<String, ?>
        +toEntityAttribute(Map<String, ?>): PhysicalLocation
    }

    interface "<size:14>CompositeAttributeConverter\n<size:10>org.neo4j.ogm.typeconversion" as org.neo4j.ogm.typeconversion.CompositeAttributeConverter<PhysicalLocation> {
        {abstract} +toGraphProperties(PhysicalLocation): Map<String, ?>
        {abstract} +toEntityAttribute(Map<String, ?>): PhysicalLocation
    }

    org.neo4j.ogm.typeconversion.CompositeAttributeConverter <|.. de.fraunhofer.aisec.cpg.helpers.LocationConverter

    center footer UMLDoclet 2.0.9, PlantUML 1.2020.08
@enduml

PlantUML version 1.2020.08(Sun Apr 26 16:08:22 CEST 2020)
(APACHE source distribution)
Java Runtime: OpenJDK Runtime Environment
JVM: OpenJDK 64-Bit Server VM
Java Version: 12.0.2+9-Ubuntu-118.04
Operating System: Linux
Default Encoding: UTF-8
Language: en
Country: US
--></g></svg>