<?xml version="1.0" encoding="UTF-8" standalone="no"?><svg xmlns="http://www.w3.org/2000/svg" xmlns:xlink="http://www.w3.org/1999/xlink" contentScriptType="application/ecmascript" contentStyleType="text/css" height="218px" preserveAspectRatio="none" style="width:209px;height:218px;" version="1.1" viewBox="0 0 209 218" width="209px" zoomAndPan="magnify"><defs><filter height="300%" id="f1qy0ssuj7f137" width="300%" x="-1" y="-1"><feGaussianBlur result="blurOut" stdDeviation="2.0"/><feColorMatrix in="blurOut" result="blurOut2" type="matrix" values="0 0 0 0 0 0 0 0 0 0 0 0 0 0 0 0 0 0 .4 0"/><feOffset dx="4.0" dy="4.0" in="blurOut2" result="blurOut3"/><feBlend in="SourceGraphic" in2="blurOut3" mode="normal"/></filter></defs><g><!--MD5=[7ab8fb30690e8b982961f1a18005bbc0]
class de.fraunhofer.aisec.cpg.helpers.NodeComparator--><a href="NodeComparator.html" target="_top" title="NodeComparator.html" xlink:actuate="onRequest" xlink:href="NodeComparator.html" xlink:show="new" xlink:title="NodeComparator.html" xlink:type="simple"><rect fill="#FEFECE" filter="url(#f1qy0ssuj7f137)" height="58.7422" id="de.fraunhofer.aisec.cpg.helpers.NodeComparator" style="stroke: #A80036; stroke-width: 1.5;" width="184" x="6" y="127"/><ellipse cx="21" cy="145.9688" fill="#ADD1B2" rx="11" ry="11" style="stroke: #A80036; stroke-width: 1.0;"/><path d="M23.9688,151.6094 Q23.3906,151.9063 22.75,152.0469 Q22.1094,152.2031 21.4063,152.2031 Q18.9063,152.2031 17.5781,150.5625 Q16.2656,148.9063 16.2656,145.7813 Q16.2656,142.6563 17.5781,141 Q18.9063,139.3438 21.4063,139.3438 Q22.1094,139.3438 22.75,139.5 Q23.4063,139.6563 23.9688,139.9531 L23.9688,142.6719 Q23.3438,142.0938 22.75,141.8281 Q22.1563,141.5469 21.5313,141.5469 Q20.1875,141.5469 19.5,142.625 Q18.8125,143.6875 18.8125,145.7813 Q18.8125,147.875 19.5,148.9531 Q20.1875,150.0156 21.5313,150.0156 Q22.1563,150.0156 22.75,149.75 Q23.3438,149.4688 23.9688,148.8906 L23.9688,151.6094 Z "/><text fill="#000000" font-family="sans-serif" font-size="14" lengthAdjust="spacingAndGlyphs" textLength="118" x="52" y="144.9951">NodeComparator</text><text fill="#000000" font-family="sans-serif" font-size="10" lengthAdjust="spacingAndGlyphs" textLength="152" x="35" y="157.5791">de.fraunhofer.aisec.cpg.helpers</text><line style="stroke: #A80036; stroke-width: 1.5;" x1="7" x2="189" y1="164.9375" y2="164.9375"/><ellipse cx="17" cy="175.9375" fill="#84BE84" rx="3" ry="3" style="stroke: #038048; stroke-width: 1.0;"/><text fill="#000000" font-family="sans-serif" font-size="11" lengthAdjust="spacingAndGlyphs" textLength="146" x="26" y="179.1479">compare(Node, Node): int</text></a><!--MD5=[ab8fa349a1e2e86ca8104897b03d4899]
class java.util.Comparator--><rect fill="#FEFECE" filter="url(#f1qy0ssuj7f137)" height="58.7422" id="java.util.Comparator" style="stroke: #A80036; stroke-width: 1.5;" width="172" x="12" y="8"/><ellipse cx="36.9" cy="26.9688" fill="#B4A7E5" rx="11" ry="11" style="stroke: #A80036; stroke-width: 1.0;"/><path d="M32.8219,22.7344 L32.8219,20.5781 L40.2125,20.5781 L40.2125,22.7344 L37.7438,22.7344 L37.7438,30.8125 L40.2125,30.8125 L40.2125,32.9688 L32.8219,32.9688 L32.8219,30.8125 L35.2906,30.8125 L35.2906,22.7344 L32.8219,22.7344 Z "/><text fill="#000000" font-family="sans-serif" font-size="14" font-style="italic" lengthAdjust="spacingAndGlyphs" textLength="81" x="53.1" y="25.9951">Comparator</text><text fill="#000000" font-family="sans-serif" font-size="10" font-style="italic" lengthAdjust="spacingAndGlyphs" textLength="40" x="73.6" y="38.5791">java.util</text><rect fill="#FFFFFF" height="15.9688" style="stroke: #000000; stroke-width: 1.0; stroke-dasharray: 2.0,2.0;" width="35" x="152" y="5"/><text fill="#000000" font-family="sans-serif" font-size="12" font-style="italic" lengthAdjust="spacingAndGlyphs" textLength="33" x="153" y="17.1387">Node</text><line style="stroke: #A80036; stroke-width: 1.5;" x1="13" x2="183" y1="45.9375" y2="45.9375"/><ellipse cx="23" cy="56.9375" fill="#84BE84" rx="3" ry="3" style="stroke: #038048; stroke-width: 1.0;"/><text fill="#000000" font-family="sans-serif" font-size="11" font-style="italic" lengthAdjust="spacingAndGlyphs" textLength="146" x="32" y="60.1479">compare(Node, Node): int</text><!--MD5=[ea7c97b8bfbfbcd4d7abdce76784b1b5]
reverse link java.util.Comparator to de.fraunhofer.aisec.cpg.helpers.NodeComparator--><path d="M98,87.25 C98,100.7 98,114.86 98,126.77 " fill="none" id="java.util.Comparator&lt;-de.fraunhofer.aisec.cpg.helpers.NodeComparator" style="stroke: #A80036; stroke-width: 1.0; stroke-dasharray: 7.0,7.0;"/><polygon fill="none" points="91,87.12,98,67.12,105,87.12,91,87.12" style="stroke: #A80036; stroke-width: 1.0;"/><text fill="#888888" font-family="sans-serif" font-size="10" lengthAdjust="spacingAndGlyphs" textLength="186" x="11" y="205.2822">UMLDoclet 2.0.9, PlantUML 1.2020.08</text><!--MD5=[8aae72fcad11e2ccf74518c367140ec6]
@startuml
    set namespaceSeparator none
    hide empty fields
    hide empty methods

    class "<size:14>NodeComparator\n<size:10>de.fraunhofer.aisec.cpg.helpers" as de.fraunhofer.aisec.cpg.helpers.NodeComparator [[NodeComparator.html]] {
        +compare(Node, Node): int
    }

    interface "<size:14>Comparator\n<size:10>java.util" as java.util.Comparator<Node> {
        {abstract} +compare(Node, Node): int
    }

    java.util.Comparator <|.. de.fraunhofer.aisec.cpg.helpers.NodeComparator

    center footer UMLDoclet 2.0.9, PlantUML 1.2020.08
@enduml

PlantUML version 1.2020.08(Sun Apr 26 16:08:22 CEST 2020)
(APACHE source distribution)
Java Runtime: OpenJDK Runtime Environment
JVM: OpenJDK 64-Bit Server VM
Java Version: 12.0.2+9-Ubuntu-118.04
Operating System: Linux
Default Encoding: UTF-8
Language: en
Country: US
--></g></svg>