<?xml version="1.0" encoding="UTF-8" standalone="no"?><svg xmlns="http://www.w3.org/2000/svg" xmlns:xlink="http://www.w3.org/1999/xlink" contentScriptType="application/ecmascript" contentStyleType="text/css" height="176px" preserveAspectRatio="none" style="width:209px;height:176px;" version="1.1" viewBox="0 0 209 176" width="209px" zoomAndPan="magnify"><defs><filter height="300%" id="fl876h8zondbr" width="300%" x="-1" y="-1"><feGaussianBlur result="blurOut" stdDeviation="2.0"/><feColorMatrix in="blurOut" result="blurOut2" type="matrix" values="0 0 0 0 0 0 0 0 0 0 0 0 0 0 0 0 0 0 .4 0"/><feOffset dx="4.0" dy="4.0" in="blurOut2" result="blurOut3"/><feBlend in="SourceGraphic" in2="blurOut3" mode="normal"/></filter></defs><g><!--MD5=[d68624a82ae852cbd5848a4344f00354]
class de.fraunhofer.aisec.cpg.helpers.ShutDownException--><a href="ShutDownException.html" target="_top" title="ShutDownException.html" xlink:actuate="onRequest" xlink:href="ShutDownException.html" xlink:show="new" xlink:title="ShutDownException.html" xlink:type="simple"><rect fill="#FEFECE" filter="url(#fl876h8zondbr)" height="37.9375" id="de.fraunhofer.aisec.cpg.helpers.ShutDownException" style="stroke: #A80036; stroke-width: 1.5;" width="184" x="6" y="106"/><ellipse cx="21" cy="124.9688" fill="#ADD1B2" rx="11" ry="11" style="stroke: #A80036; stroke-width: 1.0;"/><path d="M23.9688,130.6094 Q23.3906,130.9063 22.75,131.0469 Q22.1094,131.2031 21.4063,131.2031 Q18.9063,131.2031 17.5781,129.5625 Q16.2656,127.9063 16.2656,124.7813 Q16.2656,121.6563 17.5781,120 Q18.9063,118.3438 21.4063,118.3438 Q22.1094,118.3438 22.75,118.5 Q23.4063,118.6563 23.9688,118.9531 L23.9688,121.6719 Q23.3438,121.0938 22.75,120.8281 Q22.1563,120.5469 21.5313,120.5469 Q20.1875,120.5469 19.5,121.625 Q18.8125,122.6875 18.8125,124.7813 Q18.8125,126.875 19.5,127.9531 Q20.1875,129.0156 21.5313,129.0156 Q22.1563,129.0156 22.75,128.75 Q23.3438,128.4688 23.9688,127.8906 L23.9688,130.6094 Z "/><text fill="#000000" font-family="sans-serif" font-size="14" lengthAdjust="spacingAndGlyphs" textLength="140" x="41" y="123.9951">ShutDownException</text><text fill="#000000" font-family="sans-serif" font-size="10" lengthAdjust="spacingAndGlyphs" textLength="152" x="35" y="136.5791">de.fraunhofer.aisec.cpg.helpers</text></a><!--MD5=[46c05dfe24a0851e179497c4631d3ff2]
class java.lang.Exception--><rect fill="#FEFECE" filter="url(#fl876h8zondbr)" height="37.9375" id="java.lang.Exception" style="stroke: #A80036; stroke-width: 1.5;" width="100" x="48" y="8"/><ellipse cx="63" cy="26.9688" fill="#ADD1B2" rx="11" ry="11" style="stroke: #A80036; stroke-width: 1.0;"/><path d="M65.9688,32.6094 Q65.3906,32.9063 64.75,33.0469 Q64.1094,33.2031 63.4063,33.2031 Q60.9063,33.2031 59.5781,31.5625 Q58.2656,29.9063 58.2656,26.7813 Q58.2656,23.6563 59.5781,22 Q60.9063,20.3438 63.4063,20.3438 Q64.1094,20.3438 64.75,20.5 Q65.4063,20.6563 65.9688,20.9531 L65.9688,23.6719 Q65.3438,23.0938 64.75,22.8281 Q64.1563,22.5469 63.5313,22.5469 Q62.1875,22.5469 61.5,23.625 Q60.8125,24.6875 60.8125,26.7813 Q60.8125,28.875 61.5,29.9531 Q62.1875,31.0156 63.5313,31.0156 Q64.1563,31.0156 64.75,30.75 Q65.3438,30.4688 65.9688,29.8906 L65.9688,32.6094 Z "/><text fill="#000000" font-family="sans-serif" font-size="14" lengthAdjust="spacingAndGlyphs" textLength="68" x="77" y="25.9951">Exception</text><text fill="#000000" font-family="sans-serif" font-size="10" lengthAdjust="spacingAndGlyphs" textLength="43" x="89.5" y="38.5791">java.lang</text><!--MD5=[5d9b4622dbb729e5d31120384ef9efef]
reverse link java.lang.Exception to de.fraunhofer.aisec.cpg.helpers.ShutDownException--><path d="M98,66.43 C98,79.98 98,94.59 98,105.7 " fill="none" id="java.lang.Exception&lt;-de.fraunhofer.aisec.cpg.helpers.ShutDownException" style="stroke: #A80036; stroke-width: 1.0;"/><polygon fill="none" points="91,66.06,98,46.06,105,66.06,91,66.06" style="stroke: #A80036; stroke-width: 1.0;"/><text fill="#888888" font-family="sans-serif" font-size="10" lengthAdjust="spacingAndGlyphs" textLength="186" x="11" y="163.2822">UMLDoclet 2.0.9, PlantUML 1.2020.08</text><!--MD5=[133576e8237519a3cc944cbd158d5ccb]
@startuml
    set namespaceSeparator none
    hide empty fields
    hide empty methods

    class "<size:14>ShutDownException\n<size:10>de.fraunhofer.aisec.cpg.helpers" as de.fraunhofer.aisec.cpg.helpers.ShutDownException [[ShutDownException.html]]

    class "<size:14>Exception\n<size:10>java.lang" as java.lang.Exception

    java.lang.Exception <|- - de.fraunhofer.aisec.cpg.helpers.ShutDownException

    center footer UMLDoclet 2.0.9, PlantUML 1.2020.08
@enduml

PlantUML version 1.2020.08(Sun Apr 26 16:08:22 CEST 2020)
(APACHE source distribution)
Java Runtime: OpenJDK Runtime Environment
JVM: OpenJDK 64-Bit Server VM
Java Version: 12.0.2+9-Ubuntu-118.04
Operating System: Linux
Default Encoding: UTF-8
Language: en
Country: US
--></g></svg>