<?xml version="1.0" encoding="UTF-8" standalone="no"?><svg xmlns="http://www.w3.org/2000/svg" xmlns:xlink="http://www.w3.org/1999/xlink" contentScriptType="application/ecmascript" contentStyleType="text/css" height="235px" preserveAspectRatio="none" style="width:822px;height:235px;" version="1.1" viewBox="0 0 822 235" width="822px" zoomAndPan="magnify"><defs><filter height="300%" id="f8pb94dsly78p" width="300%" x="-1" y="-1"><feGaussianBlur result="blurOut" stdDeviation="2.0"/><feColorMatrix in="blurOut" result="blurOut2" type="matrix" values="0 0 0 0 0 0 0 0 0 0 0 0 0 0 0 0 0 0 .4 0"/><feOffset dx="4.0" dy="4.0" in="blurOut2" result="blurOut3"/><feBlend in="SourceGraphic" in2="blurOut3" mode="normal"/></filter></defs><g><!--MD5=[9a63779ecb0964d7a6cec19bd86089c8]
class de.fraunhofer.aisec.cpg.helpers.SubgraphWalker--><a href="SubgraphWalker.html" target="_top" title="SubgraphWalker.html" xlink:actuate="onRequest" xlink:href="SubgraphWalker.html" xlink:show="new" xlink:title="SubgraphWalker.html" xlink:type="simple"><rect fill="#FEFECE" filter="url(#f8pb94dsly78p)" height="97.1563" id="de.fraunhofer.aisec.cpg.helpers.SubgraphWalker" style="stroke: #A80036; stroke-width: 1.5;" width="231" x="267.5" y="8"/><ellipse cx="303.65" cy="26.9688" fill="#ADD1B2" rx="11" ry="11" style="stroke: #A80036; stroke-width: 1.0;"/><path d="M306.6188,32.6094 Q306.0406,32.9063 305.4,33.0469 Q304.7594,33.2031 304.0563,33.2031 Q301.5563,33.2031 300.2281,31.5625 Q298.9156,29.9063 298.9156,26.7813 Q298.9156,23.6563 300.2281,22 Q301.5563,20.3438 304.0563,20.3438 Q304.7594,20.3438 305.4,20.5 Q306.0563,20.6563 306.6188,20.9531 L306.6188,23.6719 Q305.9938,23.0938 305.4,22.8281 Q304.8063,22.5469 304.1813,22.5469 Q302.8375,22.5469 302.15,23.625 Q301.4625,24.6875 301.4625,26.7813 Q301.4625,28.875 302.15,29.9531 Q302.8375,31.0156 304.1813,31.0156 Q304.8063,31.0156 305.4,30.75 Q305.9938,30.4688 306.6188,29.8906 L306.6188,32.6094 Z "/><text fill="#000000" font-family="sans-serif" font-size="14" lengthAdjust="spacingAndGlyphs" textLength="113" x="341.85" y="25.9951">SubgraphWalker</text><text fill="#000000" font-family="sans-serif" font-size="10" lengthAdjust="spacingAndGlyphs" textLength="152" x="322.35" y="38.5791">de.fraunhofer.aisec.cpg.helpers</text><line style="stroke: #A80036; stroke-width: 1.5;" x1="268.5" x2="497.5" y1="45.9375" y2="45.9375"/><ellipse cx="278.5" cy="56.9375" fill="#84BE84" rx="3" ry="3" style="stroke: #038048; stroke-width: 1.0;"/><text fill="#000000" font-family="sans-serif" font-size="11" lengthAdjust="spacingAndGlyphs" text-decoration="underline" textLength="194" x="287.5" y="60.1479">getAstChildren(Node): Set&lt;Node&gt;</text><ellipse cx="278.5" cy="69.7422" fill="#84BE84" rx="3" ry="3" style="stroke: #038048; stroke-width: 1.0;"/><text fill="#000000" font-family="sans-serif" font-size="11" lengthAdjust="spacingAndGlyphs" text-decoration="underline" textLength="170" x="287.5" y="72.9526">flattenAST(Node): List&lt;Node&gt;</text><ellipse cx="278.5" cy="82.5469" fill="#84BE84" rx="3" ry="3" style="stroke: #038048; stroke-width: 1.0;"/><text fill="#000000" font-family="sans-serif" font-size="11" lengthAdjust="spacingAndGlyphs" text-decoration="underline" textLength="187" x="287.5" y="85.7573">getEOGPathEdges(Node): Border</text><ellipse cx="278.5" cy="95.3516" fill="#84BE84" rx="3" ry="3" style="stroke: #038048; stroke-width: 1.0;"/><text fill="#000000" font-family="sans-serif" font-size="11" lengthAdjust="spacingAndGlyphs" text-decoration="underline" textLength="205" x="287.5" y="98.562">visit(Node, Consumer&lt;Node&gt;): void</text></a><!--MD5=[1dc00b6594795c1b132f8d88baf5db66]
class de.fraunhofer.aisec.cpg.helpers.SubgraphWalker.Border--><a href="SubgraphWalker.Border.html" target="_top" title="SubgraphWalker.Border.html" xlink:actuate="onRequest" xlink:href="SubgraphWalker.Border.html" xlink:show="new" xlink:title="SubgraphWalker.Border.html" xlink:type="simple"><rect fill="#FEFECE" filter="url(#f8pb94dsly78p)" height="37.9375" id="de.fraunhofer.aisec.cpg.helpers.SubgraphWalker.Border" style="stroke: #A80036; stroke-width: 1.5;" width="196" x="6" y="165"/><ellipse cx="21" cy="183.9688" fill="#ADD1B2" rx="11" ry="11" style="stroke: #A80036; stroke-width: 1.0;"/><path d="M23.9688,189.6094 Q23.3906,189.9063 22.75,190.0469 Q22.1094,190.2031 21.4063,190.2031 Q18.9063,190.2031 17.5781,188.5625 Q16.2656,186.9063 16.2656,183.7813 Q16.2656,180.6563 17.5781,179 Q18.9063,177.3438 21.4063,177.3438 Q22.1094,177.3438 22.75,177.5 Q23.4063,177.6563 23.9688,177.9531 L23.9688,180.6719 Q23.3438,180.0938 22.75,179.8281 Q22.1563,179.5469 21.5313,179.5469 Q20.1875,179.5469 19.5,180.625 Q18.8125,181.6875 18.8125,183.7813 Q18.8125,185.875 19.5,186.9531 Q20.1875,188.0156 21.5313,188.0156 Q22.1563,188.0156 22.75,187.75 Q23.3438,187.4688 23.9688,186.8906 L23.9688,189.6094 Z "/><text fill="#000000" font-family="sans-serif" font-size="14" lengthAdjust="spacingAndGlyphs" textLength="164" x="35" y="182.9951">SubgraphWalker.Border</text><text fill="#000000" font-family="sans-serif" font-size="10" lengthAdjust="spacingAndGlyphs" textLength="152" x="41" y="195.5791">de.fraunhofer.aisec.cpg.helpers</text></a><!--MD5=[92b33f19938c67a9c190e1b392d7c79c]
class de.fraunhofer.aisec.cpg.helpers.SubgraphWalker.IterativeGraphWalker--><a href="SubgraphWalker.IterativeGraphWalker.html" target="_top" title="SubgraphWalker.IterativeGraphWalker.html" xlink:actuate="onRequest" xlink:href="SubgraphWalker.IterativeGraphWalker.html" xlink:show="new" xlink:title="SubgraphWalker.IterativeGraphWalker.html" xlink:type="simple"><rect fill="#FEFECE" filter="url(#f8pb94dsly78p)" height="37.9375" id="de.fraunhofer.aisec.cpg.helpers.SubgraphWalker.IterativeGraphWalker" style="stroke: #A80036; stroke-width: 1.5;" width="291" x="237.5" y="165"/><ellipse cx="252.5" cy="183.9688" fill="#ADD1B2" rx="11" ry="11" style="stroke: #A80036; stroke-width: 1.0;"/><path d="M255.4688,189.6094 Q254.8906,189.9063 254.25,190.0469 Q253.6094,190.2031 252.9063,190.2031 Q250.4063,190.2031 249.0781,188.5625 Q247.7656,186.9063 247.7656,183.7813 Q247.7656,180.6563 249.0781,179 Q250.4063,177.3438 252.9063,177.3438 Q253.6094,177.3438 254.25,177.5 Q254.9063,177.6563 255.4688,177.9531 L255.4688,180.6719 Q254.8438,180.0938 254.25,179.8281 Q253.6563,179.5469 253.0313,179.5469 Q251.6875,179.5469 251,180.625 Q250.3125,181.6875 250.3125,183.7813 Q250.3125,185.875 251,186.9531 Q251.6875,188.0156 253.0313,188.0156 Q253.6563,188.0156 254.25,187.75 Q254.8438,187.4688 255.4688,186.8906 L255.4688,189.6094 Z "/><text fill="#000000" font-family="sans-serif" font-size="14" lengthAdjust="spacingAndGlyphs" textLength="259" x="266.5" y="182.9951">SubgraphWalker.IterativeGraphWalker</text><text fill="#000000" font-family="sans-serif" font-size="10" lengthAdjust="spacingAndGlyphs" textLength="152" x="320" y="195.5791">de.fraunhofer.aisec.cpg.helpers</text></a><!--MD5=[4c0eeeed684d40ad9d8b5c194a1e70dc]
class de.fraunhofer.aisec.cpg.helpers.SubgraphWalker.ScopedWalker--><a href="SubgraphWalker.ScopedWalker.html" target="_top" title="SubgraphWalker.ScopedWalker.html" xlink:actuate="onRequest" xlink:href="SubgraphWalker.ScopedWalker.html" xlink:show="new" xlink:title="SubgraphWalker.ScopedWalker.html" xlink:type="simple"><rect fill="#FEFECE" filter="url(#f8pb94dsly78p)" height="37.9375" id="de.fraunhofer.aisec.cpg.helpers.SubgraphWalker.ScopedWalker" style="stroke: #A80036; stroke-width: 1.5;" width="248" x="563" y="165"/><ellipse cx="578" cy="183.9688" fill="#ADD1B2" rx="11" ry="11" style="stroke: #A80036; stroke-width: 1.0;"/><path d="M580.9688,189.6094 Q580.3906,189.9063 579.75,190.0469 Q579.1094,190.2031 578.4063,190.2031 Q575.9063,190.2031 574.5781,188.5625 Q573.2656,186.9063 573.2656,183.7813 Q573.2656,180.6563 574.5781,179 Q575.9063,177.3438 578.4063,177.3438 Q579.1094,177.3438 579.75,177.5 Q580.4063,177.6563 580.9688,177.9531 L580.9688,180.6719 Q580.3438,180.0938 579.75,179.8281 Q579.1563,179.5469 578.5313,179.5469 Q577.1875,179.5469 576.5,180.625 Q575.8125,181.6875 575.8125,183.7813 Q575.8125,185.875 576.5,186.9531 Q577.1875,188.0156 578.5313,188.0156 Q579.1563,188.0156 579.75,187.75 Q580.3438,187.4688 580.9688,186.8906 L580.9688,189.6094 Z "/><text fill="#000000" font-family="sans-serif" font-size="14" lengthAdjust="spacingAndGlyphs" textLength="216" x="592" y="182.9951">SubgraphWalker.ScopedWalker</text><text fill="#000000" font-family="sans-serif" font-size="10" lengthAdjust="spacingAndGlyphs" textLength="152" x="624" y="195.5791">de.fraunhofer.aisec.cpg.helpers</text></a><!--MD5=[7ff32c19eef831f5b82b816c646ad2f7]
reverse link de.fraunhofer.aisec.cpg.helpers.SubgraphWalker to de.fraunhofer.aisec.cpg.helpers.SubgraphWalker.Border--><path d="M263.4,111.3 C220.79,130.46 175.66,150.77 144.33,164.86 " fill="none" id="de.fraunhofer.aisec.cpg.helpers.SubgraphWalker&lt;-de.fraunhofer.aisec.cpg.helpers.SubgraphWalker.Border" style="stroke: #A80036; stroke-width: 1.0;"/><ellipse cx="269.8243" cy="108.4123" fill="#FFFFFF" rx="8" ry="8" style="stroke: #A80036; stroke-width: 1.0;"/><line style="stroke: #A80036; stroke-width: 1.0;" x1="262.5287" x2="277.12" y1="111.6946" y2="105.13"/><line style="stroke: #A80036; stroke-width: 1.0;" x1="266.5421" x2="273.1066" y1="101.1166" y2="115.7079"/><!--MD5=[7cb6e8db9f70d2128f33788968c4fbea]
reverse link de.fraunhofer.aisec.cpg.helpers.SubgraphWalker to de.fraunhofer.aisec.cpg.helpers.SubgraphWalker.IterativeGraphWalker--><path d="M383,120.67 C383,136.83 383,152.96 383,164.76 " fill="none" id="de.fraunhofer.aisec.cpg.helpers.SubgraphWalker&lt;-de.fraunhofer.aisec.cpg.helpers.SubgraphWalker.IterativeGraphWalker" style="stroke: #A80036; stroke-width: 1.0;"/><ellipse cx="383" cy="113.3" fill="#FFFFFF" rx="8" ry="8" style="stroke: #A80036; stroke-width: 1.0;"/><line style="stroke: #A80036; stroke-width: 1.0;" x1="383" x2="383" y1="121.3" y2="105.3"/><line style="stroke: #A80036; stroke-width: 1.0;" x1="375" x2="391" y1="113.3" y2="113.3"/><!--MD5=[67fe7a09e943cceccb4eca5640e3b0e2]
reverse link de.fraunhofer.aisec.cpg.helpers.SubgraphWalker to de.fraunhofer.aisec.cpg.helpers.SubgraphWalker.ScopedWalker--><path d="M512.41,110.93 C559.1,130.2 608.7,150.68 643.05,164.86 " fill="none" id="de.fraunhofer.aisec.cpg.helpers.SubgraphWalker&lt;-de.fraunhofer.aisec.cpg.helpers.SubgraphWalker.ScopedWalker" style="stroke: #A80036; stroke-width: 1.0;"/><ellipse cx="505.7532" cy="108.1863" fill="#FFFFFF" rx="8" ry="8" style="stroke: #A80036; stroke-width: 1.0;"/><line style="stroke: #A80036; stroke-width: 1.0;" x1="513.1463" x2="498.36" y1="111.2427" y2="105.13"/><line style="stroke: #A80036; stroke-width: 1.0;" x1="502.6968" x2="508.8095" y1="115.5795" y2="100.7932"/><text fill="#888888" font-family="sans-serif" font-size="10" lengthAdjust="spacingAndGlyphs" textLength="186" x="321.5" y="222.2822">UMLDoclet 2.0.9, PlantUML 1.2020.08</text><!--MD5=[07b77058c63fe07fcae578167b2fea6b]
@startuml
    set namespaceSeparator none
    hide empty fields
    hide empty methods

    class "<size:14>SubgraphWalker\n<size:10>de.fraunhofer.aisec.cpg.helpers" as de.fraunhofer.aisec.cpg.helpers.SubgraphWalker [[SubgraphWalker.html]] {
        {static} +getAstChildren(Node): Set<Node>
        {static} +flattenAST(Node): List<Node>
        {static} +getEOGPathEdges(Node): Border
        {static} +visit(Node, Consumer<Node>): void
    }
    class "<size:14>SubgraphWalker.Border\n<size:10>de.fraunhofer.aisec.cpg.helpers" as de.fraunhofer.aisec.cpg.helpers.SubgraphWalker.Border [[SubgraphWalker.Border.html]]
    class "<size:14>SubgraphWalker.IterativeGraphWalker\n<size:10>de.fraunhofer.aisec.cpg.helpers" as de.fraunhofer.aisec.cpg.helpers.SubgraphWalker.IterativeGraphWalker [[SubgraphWalker.IterativeGraphWalker.html]]
    class "<size:14>SubgraphWalker.ScopedWalker\n<size:10>de.fraunhofer.aisec.cpg.helpers" as de.fraunhofer.aisec.cpg.helpers.SubgraphWalker.ScopedWalker [[SubgraphWalker.ScopedWalker.html]]

    de.fraunhofer.aisec.cpg.helpers.SubgraphWalker +- - de.fraunhofer.aisec.cpg.helpers.SubgraphWalker.Border
    de.fraunhofer.aisec.cpg.helpers.SubgraphWalker +- - de.fraunhofer.aisec.cpg.helpers.SubgraphWalker.IterativeGraphWalker
    de.fraunhofer.aisec.cpg.helpers.SubgraphWalker +- - de.fraunhofer.aisec.cpg.helpers.SubgraphWalker.ScopedWalker

    center footer UMLDoclet 2.0.9, PlantUML 1.2020.08
@enduml

PlantUML version 1.2020.08(Sun Apr 26 16:08:22 CEST 2020)
(APACHE source distribution)
Java Runtime: OpenJDK Runtime Environment
JVM: OpenJDK 64-Bit Server VM
Java Version: 12.0.2+9-Ubuntu-118.04
Operating System: Linux
Default Encoding: UTF-8
Language: en
Country: US
--></g></svg>