<?xml version="1.0" encoding="UTF-8" standalone="no"?><svg xmlns="http://www.w3.org/2000/svg" xmlns:xlink="http://www.w3.org/1999/xlink" contentScriptType="application/ecmascript" contentStyleType="text/css" height="261px" preserveAspectRatio="none" style="width:308px;height:261px;" version="1.1" viewBox="0 0 308 261" width="308px" zoomAndPan="magnify"><defs><filter height="300%" id="fie365h6kf649" width="300%" x="-1" y="-1"><feGaussianBlur result="blurOut" stdDeviation="2.0"/><feColorMatrix in="blurOut" result="blurOut2" type="matrix" values="0 0 0 0 0 0 0 0 0 0 0 0 0 0 0 0 0 0 .4 0"/><feOffset dx="4.0" dy="4.0" in="blurOut2" result="blurOut3"/><feBlend in="SourceGraphic" in2="blurOut3" mode="normal"/></filter></defs><g><!--MD5=[92b33f19938c67a9c190e1b392d7c79c]
class de.fraunhofer.aisec.cpg.helpers.SubgraphWalker.IterativeGraphWalker--><a href="SubgraphWalker.IterativeGraphWalker.html" target="_top" title="SubgraphWalker.IterativeGraphWalker.html" xlink:actuate="onRequest" xlink:href="SubgraphWalker.IterativeGraphWalker.html" xlink:show="new" xlink:title="SubgraphWalker.IterativeGraphWalker.html" xlink:type="simple"><rect fill="#FEFECE" filter="url(#fie365h6kf649)" height="122.7656" id="de.fraunhofer.aisec.cpg.helpers.SubgraphWalker.IterativeGraphWalker" style="stroke: #A80036; stroke-width: 1.5;" width="291" x="6" y="106"/><ellipse cx="21" cy="124.9688" fill="#ADD1B2" rx="11" ry="11" style="stroke: #A80036; stroke-width: 1.0;"/><path d="M23.9688,130.6094 Q23.3906,130.9063 22.75,131.0469 Q22.1094,131.2031 21.4063,131.2031 Q18.9063,131.2031 17.5781,129.5625 Q16.2656,127.9063 16.2656,124.7813 Q16.2656,121.6563 17.5781,120 Q18.9063,118.3438 21.4063,118.3438 Q22.1094,118.3438 22.75,118.5 Q23.4063,118.6563 23.9688,118.9531 L23.9688,121.6719 Q23.3438,121.0938 22.75,120.8281 Q22.1563,120.5469 21.5313,120.5469 Q20.1875,120.5469 19.5,121.625 Q18.8125,122.6875 18.8125,124.7813 Q18.8125,126.875 19.5,127.9531 Q20.1875,129.0156 21.5313,129.0156 Q22.1563,129.0156 22.75,128.75 Q23.3438,128.4688 23.9688,127.8906 L23.9688,130.6094 Z "/><text fill="#000000" font-family="sans-serif" font-size="14" lengthAdjust="spacingAndGlyphs" textLength="259" x="35" y="123.9951">SubgraphWalker.IterativeGraphWalker</text><text fill="#000000" font-family="sans-serif" font-size="10" lengthAdjust="spacingAndGlyphs" textLength="152" x="88.5" y="136.5791">de.fraunhofer.aisec.cpg.helpers</text><line style="stroke: #A80036; stroke-width: 1.5;" x1="7" x2="296" y1="143.9375" y2="143.9375"/><ellipse cx="17" cy="154.9375" fill="#84BE84" rx="3" ry="3" style="stroke: #038048; stroke-width: 1.0;"/><text fill="#000000" font-family="sans-serif" font-size="11" lengthAdjust="spacingAndGlyphs" textLength="105" x="26" y="158.1479">iterate(Node): void</text><ellipse cx="17" cy="167.7422" fill="#84BE84" rx="3" ry="3" style="stroke: #038048; stroke-width: 1.0;"/><text fill="#000000" font-family="sans-serif" font-size="11" lengthAdjust="spacingAndGlyphs" textLength="259" x="26" y="170.9526">registerOnNodeVisit(Consumer&lt;Node&gt;): void</text><ellipse cx="17" cy="180.5469" fill="#84BE84" rx="3" ry="3" style="stroke: #038048; stroke-width: 1.0;"/><text fill="#000000" font-family="sans-serif" font-size="11" lengthAdjust="spacingAndGlyphs" textLength="261" x="26" y="183.7573">registerOnScopeExit(Consumer&lt;Node&gt;): void</text><ellipse cx="17" cy="193.3516" fill="#84BE84" rx="3" ry="3" style="stroke: #038048; stroke-width: 1.0;"/><text fill="#000000" font-family="sans-serif" font-size="11" lengthAdjust="spacingAndGlyphs" textLength="121" x="26" y="196.562">clearCallbacks(): void</text><ellipse cx="17" cy="206.1563" fill="#84BE84" rx="3" ry="3" style="stroke: #038048; stroke-width: 1.0;"/><text fill="#000000" font-family="sans-serif" font-size="11" lengthAdjust="spacingAndGlyphs" textLength="145" x="26" y="209.3667">getTodo(): Deque&lt;Node&gt;</text><ellipse cx="17" cy="218.9609" fill="#84BE84" rx="3" ry="3" style="stroke: #038048; stroke-width: 1.0;"/><text fill="#000000" font-family="sans-serif" font-size="11" lengthAdjust="spacingAndGlyphs" textLength="161" x="26" y="222.1714">getBacklog(): Deque&lt;Node&gt;</text></a><!--MD5=[9a63779ecb0964d7a6cec19bd86089c8]
class de.fraunhofer.aisec.cpg.helpers.SubgraphWalker--><a href="SubgraphWalker.html" target="_top" title="SubgraphWalker.html" xlink:actuate="onRequest" xlink:href="SubgraphWalker.html" xlink:show="new" xlink:title="SubgraphWalker.html" xlink:type="simple"><rect fill="#FEFECE" filter="url(#fie365h6kf649)" height="37.9375" id="de.fraunhofer.aisec.cpg.helpers.SubgraphWalker" style="stroke: #A80036; stroke-width: 1.5;" width="184" x="59.5" y="8"/><ellipse cx="74.5" cy="26.9688" fill="#ADD1B2" rx="11" ry="11" style="stroke: #A80036; stroke-width: 1.0;"/><path d="M77.4688,32.6094 Q76.8906,32.9063 76.25,33.0469 Q75.6094,33.2031 74.9063,33.2031 Q72.4063,33.2031 71.0781,31.5625 Q69.7656,29.9063 69.7656,26.7813 Q69.7656,23.6563 71.0781,22 Q72.4063,20.3438 74.9063,20.3438 Q75.6094,20.3438 76.25,20.5 Q76.9063,20.6563 77.4688,20.9531 L77.4688,23.6719 Q76.8438,23.0938 76.25,22.8281 Q75.6563,22.5469 75.0313,22.5469 Q73.6875,22.5469 73,23.625 Q72.3125,24.6875 72.3125,26.7813 Q72.3125,28.875 73,29.9531 Q73.6875,31.0156 75.0313,31.0156 Q75.6563,31.0156 76.25,30.75 Q76.8438,30.4688 77.4688,29.8906 L77.4688,32.6094 Z "/><text fill="#000000" font-family="sans-serif" font-size="14" lengthAdjust="spacingAndGlyphs" textLength="113" x="108" y="25.9951">SubgraphWalker</text><text fill="#000000" font-family="sans-serif" font-size="10" lengthAdjust="spacingAndGlyphs" textLength="152" x="88.5" y="38.5791">de.fraunhofer.aisec.cpg.helpers</text></a><!--MD5=[7cb6e8db9f70d2128f33788968c4fbea]
reverse link de.fraunhofer.aisec.cpg.helpers.SubgraphWalker to de.fraunhofer.aisec.cpg.helpers.SubgraphWalker.IterativeGraphWalker--><path d="M151.5,61.44 C151.5,74.76 151.5,90.5 151.5,105.7 " fill="none" id="de.fraunhofer.aisec.cpg.helpers.SubgraphWalker&lt;-de.fraunhofer.aisec.cpg.helpers.SubgraphWalker.IterativeGraphWalker" style="stroke: #A80036; stroke-width: 1.0;"/><ellipse cx="151.5" cy="54.11" fill="#FFFFFF" rx="8" ry="8" style="stroke: #A80036; stroke-width: 1.0;"/><line style="stroke: #A80036; stroke-width: 1.0;" x1="151.5" x2="151.5" y1="62.11" y2="46.11"/><line style="stroke: #A80036; stroke-width: 1.0;" x1="143.5" x2="159.5" y1="54.11" y2="54.11"/><text fill="#888888" font-family="sans-serif" font-size="10" lengthAdjust="spacingAndGlyphs" textLength="186" x="64.5" y="248.2822">UMLDoclet 2.0.9, PlantUML 1.2020.08</text><!--MD5=[9795630394ced20773756c8f17f66d3a]
@startuml
    set namespaceSeparator none
    hide empty fields
    hide empty methods

    class "<size:14>SubgraphWalker.IterativeGraphWalker\n<size:10>de.fraunhofer.aisec.cpg.helpers" as de.fraunhofer.aisec.cpg.helpers.SubgraphWalker.IterativeGraphWalker [[SubgraphWalker.IterativeGraphWalker.html]] {
        +iterate(Node): void
        +registerOnNodeVisit(Consumer<Node>): void
        +registerOnScopeExit(Consumer<Node>): void
        +clearCallbacks(): void
        +getTodo(): Deque<Node>
        +getBacklog(): Deque<Node>
    }

    class "<size:14>SubgraphWalker\n<size:10>de.fraunhofer.aisec.cpg.helpers" as de.fraunhofer.aisec.cpg.helpers.SubgraphWalker [[SubgraphWalker.html]]

    de.fraunhofer.aisec.cpg.helpers.SubgraphWalker +- - de.fraunhofer.aisec.cpg.helpers.SubgraphWalker.IterativeGraphWalker

    center footer UMLDoclet 2.0.9, PlantUML 1.2020.08
@enduml

PlantUML version 1.2020.08(Sun Apr 26 16:08:22 CEST 2020)
(APACHE source distribution)
Java Runtime: OpenJDK Runtime Environment
JVM: OpenJDK 64-Bit Server VM
Java Version: 12.0.2+9-Ubuntu-118.04
Operating System: Linux
Default Encoding: UTF-8
Language: en
Country: US
--></g></svg>