<?xml version="1.0" encoding="UTF-8" standalone="no"?><svg xmlns="http://www.w3.org/2000/svg" xmlns:xlink="http://www.w3.org/1999/xlink" contentScriptType="application/ecmascript" contentStyleType="text/css" height="286px" preserveAspectRatio="none" style="width:616px;height:286px;" version="1.1" viewBox="0 0 616 286" width="616px" zoomAndPan="magnify"><defs><filter height="300%" id="fwntzg5w4jvds" width="300%" x="-1" y="-1"><feGaussianBlur result="blurOut" stdDeviation="2.0"/><feColorMatrix in="blurOut" result="blurOut2" type="matrix" values="0 0 0 0 0 0 0 0 0 0 0 0 0 0 0 0 0 0 .4 0"/><feOffset dx="4.0" dy="4.0" in="blurOut2" result="blurOut3"/><feBlend in="SourceGraphic" in2="blurOut3" mode="normal"/></filter></defs><g><!--MD5=[4c0eeeed684d40ad9d8b5c194a1e70dc]
class de.fraunhofer.aisec.cpg.helpers.SubgraphWalker.ScopedWalker--><a href="SubgraphWalker.ScopedWalker.html" target="_top" title="SubgraphWalker.ScopedWalker.html" xlink:actuate="onRequest" xlink:href="SubgraphWalker.ScopedWalker.html" xlink:show="new" xlink:title="SubgraphWalker.ScopedWalker.html" xlink:type="simple"><rect fill="#FEFECE" filter="url(#fwntzg5w4jvds)" height="148.375" id="de.fraunhofer.aisec.cpg.helpers.SubgraphWalker.ScopedWalker" style="stroke: #A80036; stroke-width: 1.5;" width="599" x="6" y="106"/><ellipse cx="193.25" cy="124.9688" fill="#ADD1B2" rx="11" ry="11" style="stroke: #A80036; stroke-width: 1.0;"/><path d="M196.2188,130.6094 Q195.6406,130.9063 195,131.0469 Q194.3594,131.2031 193.6563,131.2031 Q191.1563,131.2031 189.8281,129.5625 Q188.5156,127.9063 188.5156,124.7813 Q188.5156,121.6563 189.8281,120 Q191.1563,118.3438 193.6563,118.3438 Q194.3594,118.3438 195,118.5 Q195.6563,118.6563 196.2188,118.9531 L196.2188,121.6719 Q195.5938,121.0938 195,120.8281 Q194.4063,120.5469 193.7813,120.5469 Q192.4375,120.5469 191.75,121.625 Q191.0625,122.6875 191.0625,124.7813 Q191.0625,126.875 191.75,127.9531 Q192.4375,129.0156 193.7813,129.0156 Q194.4063,129.0156 195,128.75 Q195.5938,128.4688 196.2188,127.8906 L196.2188,130.6094 Z "/><text fill="#000000" font-family="sans-serif" font-size="14" lengthAdjust="spacingAndGlyphs" textLength="216" x="213.75" y="123.9951">SubgraphWalker.ScopedWalker</text><text fill="#000000" font-family="sans-serif" font-size="10" lengthAdjust="spacingAndGlyphs" textLength="152" x="245.75" y="136.5791">de.fraunhofer.aisec.cpg.helpers</text><line style="stroke: #A80036; stroke-width: 1.5;" x1="7" x2="604" y1="143.9375" y2="143.9375"/><ellipse cx="17" cy="154.9375" fill="#84BE84" rx="3" ry="3" style="stroke: #038048; stroke-width: 1.0;"/><text fill="#000000" font-family="sans-serif" font-size="11" lengthAdjust="spacingAndGlyphs" textLength="121" x="26" y="158.1479">clearCallbacks(): void</text><ellipse cx="17" cy="167.7422" fill="#84BE84" rx="3" ry="3" style="stroke: #038048; stroke-width: 1.0;"/><text fill="#000000" font-family="sans-serif" font-size="11" lengthAdjust="spacingAndGlyphs" textLength="397" x="26" y="170.9526">registerHandler(TriConsumer&lt;RecordDeclaration, Node, Node&gt;): void</text><ellipse cx="17" cy="180.5469" fill="#84BE84" rx="3" ry="3" style="stroke: #038048; stroke-width: 1.0;"/><text fill="#000000" font-family="sans-serif" font-size="11" lengthAdjust="spacingAndGlyphs" textLength="356" x="26" y="183.7573">registerHandler(BiConsumer&lt;Node, RecordDeclaration&gt;): void</text><ellipse cx="17" cy="193.3516" fill="#84BE84" rx="3" ry="3" style="stroke: #038048; stroke-width: 1.0;"/><text fill="#000000" font-family="sans-serif" font-size="11" lengthAdjust="spacingAndGlyphs" textLength="105" x="26" y="196.562">iterate(Node): void</text><ellipse cx="17" cy="206.1563" fill="#84BE84" rx="3" ry="3" style="stroke: #038048; stroke-width: 1.0;"/><text fill="#000000" font-family="sans-serif" font-size="11" lengthAdjust="spacingAndGlyphs" textLength="212" x="26" y="209.3667">getCurrentClass(): RecordDeclaration</text><ellipse cx="17" cy="218.9609" fill="#84BE84" rx="3" ry="3" style="stroke: #038048; stroke-width: 1.0;"/><text fill="#000000" font-family="sans-serif" font-size="11" lengthAdjust="spacingAndGlyphs" textLength="175" x="26" y="222.1714">collectDeclarations(Node): void</text><ellipse cx="17" cy="231.7656" fill="#84BE84" rx="3" ry="3" style="stroke: #038048; stroke-width: 1.0;"/><text fill="#000000" font-family="sans-serif" font-size="11" lengthAdjust="spacingAndGlyphs" textLength="333" x="26" y="234.9761">getAllDeclarationsForScope(Node): List&lt;ValueDeclaration&gt;</text><ellipse cx="17" cy="244.5703" fill="#84BE84" rx="3" ry="3" style="stroke: #038048; stroke-width: 1.0;"/><text fill="#000000" font-family="sans-serif" font-size="11" lengthAdjust="spacingAndGlyphs" textLength="573" x="26" y="247.7808">getDeclarationForScope(Node, Predicate&lt;ValueDeclaration&gt;): Optional&lt;? extends ValueDeclaration&gt;</text></a><!--MD5=[9a63779ecb0964d7a6cec19bd86089c8]
class de.fraunhofer.aisec.cpg.helpers.SubgraphWalker--><a href="SubgraphWalker.html" target="_top" title="SubgraphWalker.html" xlink:actuate="onRequest" xlink:href="SubgraphWalker.html" xlink:show="new" xlink:title="SubgraphWalker.html" xlink:type="simple"><rect fill="#FEFECE" filter="url(#fwntzg5w4jvds)" height="37.9375" id="de.fraunhofer.aisec.cpg.helpers.SubgraphWalker" style="stroke: #A80036; stroke-width: 1.5;" width="184" x="213.5" y="8"/><ellipse cx="228.5" cy="26.9688" fill="#ADD1B2" rx="11" ry="11" style="stroke: #A80036; stroke-width: 1.0;"/><path d="M231.4688,32.6094 Q230.8906,32.9063 230.25,33.0469 Q229.6094,33.2031 228.9063,33.2031 Q226.4063,33.2031 225.0781,31.5625 Q223.7656,29.9063 223.7656,26.7813 Q223.7656,23.6563 225.0781,22 Q226.4063,20.3438 228.9063,20.3438 Q229.6094,20.3438 230.25,20.5 Q230.9063,20.6563 231.4688,20.9531 L231.4688,23.6719 Q230.8438,23.0938 230.25,22.8281 Q229.6563,22.5469 229.0313,22.5469 Q227.6875,22.5469 227,23.625 Q226.3125,24.6875 226.3125,26.7813 Q226.3125,28.875 227,29.9531 Q227.6875,31.0156 229.0313,31.0156 Q229.6563,31.0156 230.25,30.75 Q230.8438,30.4688 231.4688,29.8906 L231.4688,32.6094 Z "/><text fill="#000000" font-family="sans-serif" font-size="14" lengthAdjust="spacingAndGlyphs" textLength="113" x="262" y="25.9951">SubgraphWalker</text><text fill="#000000" font-family="sans-serif" font-size="10" lengthAdjust="spacingAndGlyphs" textLength="152" x="242.5" y="38.5791">de.fraunhofer.aisec.cpg.helpers</text></a><!--MD5=[67fe7a09e943cceccb4eca5640e3b0e2]
reverse link de.fraunhofer.aisec.cpg.helpers.SubgraphWalker to de.fraunhofer.aisec.cpg.helpers.SubgraphWalker.ScopedWalker--><path d="M305.5,61.38 C305.5,74.57 305.5,90.29 305.5,105.88 " fill="none" id="de.fraunhofer.aisec.cpg.helpers.SubgraphWalker&lt;-de.fraunhofer.aisec.cpg.helpers.SubgraphWalker.ScopedWalker" style="stroke: #A80036; stroke-width: 1.0;"/><ellipse cx="305.5" cy="54.21" fill="#FFFFFF" rx="8" ry="8" style="stroke: #A80036; stroke-width: 1.0;"/><line style="stroke: #A80036; stroke-width: 1.0;" x1="305.5" x2="305.5" y1="62.21" y2="46.21"/><line style="stroke: #A80036; stroke-width: 1.0;" x1="297.5" x2="313.5" y1="54.21" y2="54.21"/><text fill="#888888" font-family="sans-serif" font-size="10" lengthAdjust="spacingAndGlyphs" textLength="186" x="218.5" y="273.2822">UMLDoclet 2.0.9, PlantUML 1.2020.08</text><!--MD5=[417f23d23e0afdc87f32ae226a2af5a5]
@startuml
    set namespaceSeparator none
    hide empty fields
    hide empty methods

    class "<size:14>SubgraphWalker.ScopedWalker\n<size:10>de.fraunhofer.aisec.cpg.helpers" as de.fraunhofer.aisec.cpg.helpers.SubgraphWalker.ScopedWalker [[SubgraphWalker.ScopedWalker.html]] {
        +clearCallbacks(): void
        +registerHandler(TriConsumer<RecordDeclaration, Node, Node>): void
        +registerHandler(BiConsumer<Node, RecordDeclaration>): void
        +iterate(Node): void
        +getCurrentClass(): RecordDeclaration
        +collectDeclarations(Node): void
        +getAllDeclarationsForScope(Node): List<ValueDeclaration>
        +getDeclarationForScope(Node, Predicate<ValueDeclaration>): Optional<? extends ValueDeclaration>
    }

    class "<size:14>SubgraphWalker\n<size:10>de.fraunhofer.aisec.cpg.helpers" as de.fraunhofer.aisec.cpg.helpers.SubgraphWalker [[SubgraphWalker.html]]

    de.fraunhofer.aisec.cpg.helpers.SubgraphWalker +- - de.fraunhofer.aisec.cpg.helpers.SubgraphWalker.ScopedWalker

    center footer UMLDoclet 2.0.9, PlantUML 1.2020.08
@enduml

PlantUML version 1.2020.08(Sun Apr 26 16:08:22 CEST 2020)
(APACHE source distribution)
Java Runtime: OpenJDK Runtime Environment
JVM: OpenJDK 64-Bit Server VM
Java Version: 12.0.2+9-Ubuntu-118.04
Operating System: Linux
Default Encoding: UTF-8
Language: en
Country: US
--></g></svg>