<?xml version="1.0" encoding="UTF-8" standalone="no"?><svg xmlns="http://www.w3.org/2000/svg" xmlns:xlink="http://www.w3.org/1999/xlink" contentScriptType="application/ecmascript" contentStyleType="text/css" height="235px" preserveAspectRatio="none" style="width:210px;height:235px;" version="1.1" viewBox="0 0 210 235" width="210px" zoomAndPan="magnify"><defs><filter height="300%" id="fd74ndlibvp7l" width="300%" x="-1" y="-1"><feGaussianBlur result="blurOut" stdDeviation="2.0"/><feColorMatrix in="blurOut" result="blurOut2" type="matrix" values="0 0 0 0 0 0 0 0 0 0 0 0 0 0 0 0 0 0 .4 0"/><feOffset dx="4.0" dy="4.0" in="blurOut2" result="blurOut3"/><feBlend in="SourceGraphic" in2="blurOut3" mode="normal"/></filter></defs><g><!--MD5=[b291348baa1a9d568a61b09273290dbf]
class de.fraunhofer.aisec.cpg.graph.ArrayRangeExpression--><a href="ArrayRangeExpression.html" target="_top" title="ArrayRangeExpression.html" xlink:actuate="onRequest" xlink:href="ArrayRangeExpression.html" xlink:show="new" xlink:title="ArrayRangeExpression.html" xlink:type="simple"><rect fill="#FEFECE" filter="url(#fd74ndlibvp7l)" height="97.1563" id="de.fraunhofer.aisec.cpg.graph.ArrayRangeExpression" style="stroke: #A80036; stroke-width: 1.5;" width="187" x="6" y="106"/><ellipse cx="21" cy="124.9688" fill="#ADD1B2" rx="11" ry="11" style="stroke: #A80036; stroke-width: 1.0;"/><path d="M23.9688,130.6094 Q23.3906,130.9063 22.75,131.0469 Q22.1094,131.2031 21.4063,131.2031 Q18.9063,131.2031 17.5781,129.5625 Q16.2656,127.9063 16.2656,124.7813 Q16.2656,121.6563 17.5781,120 Q18.9063,118.3438 21.4063,118.3438 Q22.1094,118.3438 22.75,118.5 Q23.4063,118.6563 23.9688,118.9531 L23.9688,121.6719 Q23.3438,121.0938 22.75,120.8281 Q22.1563,120.5469 21.5313,120.5469 Q20.1875,120.5469 19.5,121.625 Q18.8125,122.6875 18.8125,124.7813 Q18.8125,126.875 19.5,127.9531 Q20.1875,129.0156 21.5313,129.0156 Q22.1563,129.0156 22.75,128.75 Q23.3438,128.4688 23.9688,127.8906 L23.9688,130.6094 Z "/><text fill="#000000" font-family="sans-serif" font-size="14" lengthAdjust="spacingAndGlyphs" textLength="155" x="35" y="123.9951">ArrayRangeExpression</text><text fill="#000000" font-family="sans-serif" font-size="10" lengthAdjust="spacingAndGlyphs" textLength="145" x="40" y="136.5791">de.fraunhofer.aisec.cpg.graph</text><line style="stroke: #A80036; stroke-width: 1.5;" x1="7" x2="192" y1="143.9375" y2="143.9375"/><ellipse cx="17" cy="154.9375" fill="#84BE84" rx="3" ry="3" style="stroke: #038048; stroke-width: 1.0;"/><text fill="#000000" font-family="sans-serif" font-size="11" lengthAdjust="spacingAndGlyphs" textLength="135" x="26" y="158.1479">getCeiling(): Expression</text><ellipse cx="17" cy="167.7422" fill="#84BE84" rx="3" ry="3" style="stroke: #038048; stroke-width: 1.0;"/><text fill="#000000" font-family="sans-serif" font-size="11" lengthAdjust="spacingAndGlyphs" textLength="158" x="26" y="170.9526">setCeiling(Expression): void</text><ellipse cx="17" cy="180.5469" fill="#84BE84" rx="3" ry="3" style="stroke: #038048; stroke-width: 1.0;"/><text fill="#000000" font-family="sans-serif" font-size="11" lengthAdjust="spacingAndGlyphs" textLength="125" x="26" y="183.7573">getFloor(): Expression</text><ellipse cx="17" cy="193.3516" fill="#84BE84" rx="3" ry="3" style="stroke: #038048; stroke-width: 1.0;"/><text fill="#000000" font-family="sans-serif" font-size="11" lengthAdjust="spacingAndGlyphs" textLength="148" x="26" y="196.562">setFloor(Expression): void</text></a><!--MD5=[f602dd8d46e7ba17465d0a1e20507055]
class de.fraunhofer.aisec.cpg.graph.Expression--><a href="Expression.html" target="_top" title="Expression.html" xlink:actuate="onRequest" xlink:href="Expression.html" xlink:show="new" xlink:title="Expression.html" xlink:type="simple"><rect fill="#FEFECE" filter="url(#fd74ndlibvp7l)" height="37.9375" id="de.fraunhofer.aisec.cpg.graph.Expression" style="stroke: #A80036; stroke-width: 1.5;" width="177" x="11" y="8"/><ellipse cx="26" cy="26.9688" fill="#ADD1B2" rx="11" ry="11" style="stroke: #A80036; stroke-width: 1.0;"/><path d="M28.9688,32.6094 Q28.3906,32.9063 27.75,33.0469 Q27.1094,33.2031 26.4063,33.2031 Q23.9063,33.2031 22.5781,31.5625 Q21.2656,29.9063 21.2656,26.7813 Q21.2656,23.6563 22.5781,22 Q23.9063,20.3438 26.4063,20.3438 Q27.1094,20.3438 27.75,20.5 Q28.4063,20.6563 28.9688,20.9531 L28.9688,23.6719 Q28.3438,23.0938 27.75,22.8281 Q27.1563,22.5469 26.5313,22.5469 Q25.1875,22.5469 24.5,23.625 Q23.8125,24.6875 23.8125,26.7813 Q23.8125,28.875 24.5,29.9531 Q25.1875,31.0156 26.5313,31.0156 Q27.1563,31.0156 27.75,30.75 Q28.3438,30.4688 28.9688,29.8906 L28.9688,32.6094 Z "/><text fill="#000000" font-family="sans-serif" font-size="14" lengthAdjust="spacingAndGlyphs" textLength="76" x="74.5" y="25.9951">Expression</text><text fill="#000000" font-family="sans-serif" font-size="10" lengthAdjust="spacingAndGlyphs" textLength="145" x="40" y="38.5791">de.fraunhofer.aisec.cpg.graph</text></a><!--MD5=[5ee09a6899f79263859f3181d57420db]
reverse link de.fraunhofer.aisec.cpg.graph.Expression to de.fraunhofer.aisec.cpg.graph.ArrayRangeExpression--><path d="M99.5,66.52 C99.5,78.97 99.5,92.93 99.5,105.96 " fill="none" id="de.fraunhofer.aisec.cpg.graph.Expression&lt;-de.fraunhofer.aisec.cpg.graph.ArrayRangeExpression" style="stroke: #A80036; stroke-width: 1.0;"/><polygon fill="none" points="92.5,66.25,99.5,46.25,106.5,66.25,92.5,66.25" style="stroke: #A80036; stroke-width: 1.0;"/><text fill="#888888" font-family="sans-serif" font-size="10" lengthAdjust="spacingAndGlyphs" textLength="186" x="12.5" y="222.2822">UMLDoclet 2.0.9, PlantUML 1.2020.08</text><!--MD5=[489cd59c39d01bf47635933b4199845d]
@startuml
    set namespaceSeparator none
    hide empty fields
    hide empty methods

    class "<size:14>ArrayRangeExpression\n<size:10>de.fraunhofer.aisec.cpg.graph" as de.fraunhofer.aisec.cpg.graph.ArrayRangeExpression [[ArrayRangeExpression.html]] {
        +getCeiling(): Expression
        +setCeiling(Expression): void
        +getFloor(): Expression
        +setFloor(Expression): void
    }

    class "<size:14>Expression\n<size:10>de.fraunhofer.aisec.cpg.graph" as de.fraunhofer.aisec.cpg.graph.Expression [[Expression.html]]

    de.fraunhofer.aisec.cpg.graph.Expression <|- - de.fraunhofer.aisec.cpg.graph.ArrayRangeExpression

    center footer UMLDoclet 2.0.9, PlantUML 1.2020.08
@enduml

PlantUML version 1.2020.08(Sun Apr 26 16:08:22 CEST 2020)
(APACHE source distribution)
Java Runtime: OpenJDK Runtime Environment
JVM: OpenJDK 64-Bit Server VM
Java Version: 12.0.2+9-Ubuntu-118.04
Operating System: Linux
Default Encoding: UTF-8
Language: en
Country: US
--></g></svg>