<?xml version="1.0" encoding="UTF-8" standalone="no"?><svg xmlns="http://www.w3.org/2000/svg" xmlns:xlink="http://www.w3.org/1999/xlink" contentScriptType="application/ecmascript" contentStyleType="text/css" height="176px" preserveAspectRatio="none" style="width:229px;height:176px;" version="1.1" viewBox="0 0 229 176" width="229px" zoomAndPan="magnify"><defs><filter height="300%" id="fgeuvm2rfeijw" width="300%" x="-1" y="-1"><feGaussianBlur result="blurOut" stdDeviation="2.0"/><feColorMatrix in="blurOut" result="blurOut2" type="matrix" values="0 0 0 0 0 0 0 0 0 0 0 0 0 0 0 0 0 0 .4 0"/><feOffset dx="4.0" dy="4.0" in="blurOut2" result="blurOut3"/><feBlend in="SourceGraphic" in2="blurOut3" mode="normal"/></filter></defs><g><!--MD5=[f2766fd94627fe2f0338e4847cf43e0e]
class de.fraunhofer.aisec.cpg.graph.ASMDeclarationStatement--><a href="ASMDeclarationStatement.html" target="_top" title="ASMDeclarationStatement.html" xlink:actuate="onRequest" xlink:href="ASMDeclarationStatement.html" xlink:show="new" xlink:title="ASMDeclarationStatement.html" xlink:type="simple"><rect fill="#FEFECE" filter="url(#fgeuvm2rfeijw)" height="37.9375" id="de.fraunhofer.aisec.cpg.graph.ASMDeclarationStatement" style="stroke: #A80036; stroke-width: 1.5;" width="212" x="6" y="106"/><ellipse cx="21" cy="124.9688" fill="#ADD1B2" rx="11" ry="11" style="stroke: #A80036; stroke-width: 1.0;"/><path d="M23.9688,130.6094 Q23.3906,130.9063 22.75,131.0469 Q22.1094,131.2031 21.4063,131.2031 Q18.9063,131.2031 17.5781,129.5625 Q16.2656,127.9063 16.2656,124.7813 Q16.2656,121.6563 17.5781,120 Q18.9063,118.3438 21.4063,118.3438 Q22.1094,118.3438 22.75,118.5 Q23.4063,118.6563 23.9688,118.9531 L23.9688,121.6719 Q23.3438,121.0938 22.75,120.8281 Q22.1563,120.5469 21.5313,120.5469 Q20.1875,120.5469 19.5,121.625 Q18.8125,122.6875 18.8125,124.7813 Q18.8125,126.875 19.5,127.9531 Q20.1875,129.0156 21.5313,129.0156 Q22.1563,129.0156 22.75,128.75 Q23.3438,128.4688 23.9688,127.8906 L23.9688,130.6094 Z "/><text fill="#000000" font-family="sans-serif" font-size="14" lengthAdjust="spacingAndGlyphs" textLength="180" x="35" y="123.9951">ASMDeclarationStatement</text><text fill="#000000" font-family="sans-serif" font-size="10" lengthAdjust="spacingAndGlyphs" textLength="145" x="52.5" y="136.5791">de.fraunhofer.aisec.cpg.graph</text></a><!--MD5=[d7781ecdc2356157de3c1ad39e5c051b]
class de.fraunhofer.aisec.cpg.graph.DeclarationStatement--><a href="DeclarationStatement.html" target="_top" title="DeclarationStatement.html" xlink:actuate="onRequest" xlink:href="DeclarationStatement.html" xlink:show="new" xlink:title="DeclarationStatement.html" xlink:type="simple"><rect fill="#FEFECE" filter="url(#fgeuvm2rfeijw)" height="37.9375" id="de.fraunhofer.aisec.cpg.graph.DeclarationStatement" style="stroke: #A80036; stroke-width: 1.5;" width="182" x="21" y="8"/><ellipse cx="36" cy="26.9688" fill="#ADD1B2" rx="11" ry="11" style="stroke: #A80036; stroke-width: 1.0;"/><path d="M38.9688,32.6094 Q38.3906,32.9063 37.75,33.0469 Q37.1094,33.2031 36.4063,33.2031 Q33.9063,33.2031 32.5781,31.5625 Q31.2656,29.9063 31.2656,26.7813 Q31.2656,23.6563 32.5781,22 Q33.9063,20.3438 36.4063,20.3438 Q37.1094,20.3438 37.75,20.5 Q38.4063,20.6563 38.9688,20.9531 L38.9688,23.6719 Q38.3438,23.0938 37.75,22.8281 Q37.1563,22.5469 36.5313,22.5469 Q35.1875,22.5469 34.5,23.625 Q33.8125,24.6875 33.8125,26.7813 Q33.8125,28.875 34.5,29.9531 Q35.1875,31.0156 36.5313,31.0156 Q37.1563,31.0156 37.75,30.75 Q38.3438,30.4688 38.9688,29.8906 L38.9688,32.6094 Z "/><text fill="#000000" font-family="sans-serif" font-size="14" lengthAdjust="spacingAndGlyphs" textLength="150" x="50" y="25.9951">DeclarationStatement</text><text fill="#000000" font-family="sans-serif" font-size="10" lengthAdjust="spacingAndGlyphs" textLength="145" x="52.5" y="38.5791">de.fraunhofer.aisec.cpg.graph</text></a><!--MD5=[252ae3736345c2f7ce5ef75efe9dfaf8]
reverse link de.fraunhofer.aisec.cpg.graph.DeclarationStatement to de.fraunhofer.aisec.cpg.graph.ASMDeclarationStatement--><path d="M112,66.43 C112,79.98 112,94.59 112,105.7 " fill="none" id="de.fraunhofer.aisec.cpg.graph.DeclarationStatement&lt;-de.fraunhofer.aisec.cpg.graph.ASMDeclarationStatement" style="stroke: #A80036; stroke-width: 1.0;"/><polygon fill="none" points="105,66.06,112,46.06,119,66.06,105,66.06" style="stroke: #A80036; stroke-width: 1.0;"/><text fill="#888888" font-family="sans-serif" font-size="10" lengthAdjust="spacingAndGlyphs" textLength="186" x="25" y="163.2822">UMLDoclet 2.0.9, PlantUML 1.2020.08</text><!--MD5=[f55ea2283c642b8d580da32a2180f5e1]
@startuml
    set namespaceSeparator none
    hide empty fields
    hide empty methods

    class "<size:14>ASMDeclarationStatement\n<size:10>de.fraunhofer.aisec.cpg.graph" as de.fraunhofer.aisec.cpg.graph.ASMDeclarationStatement [[ASMDeclarationStatement.html]]

    class "<size:14>DeclarationStatement\n<size:10>de.fraunhofer.aisec.cpg.graph" as de.fraunhofer.aisec.cpg.graph.DeclarationStatement [[DeclarationStatement.html]]

    de.fraunhofer.aisec.cpg.graph.DeclarationStatement <|- - de.fraunhofer.aisec.cpg.graph.ASMDeclarationStatement

    center footer UMLDoclet 2.0.9, PlantUML 1.2020.08
@enduml

PlantUML version 1.2020.08(Sun Apr 26 16:08:22 CEST 2020)
(APACHE source distribution)
Java Runtime: OpenJDK Runtime Environment
JVM: OpenJDK 64-Bit Server VM
Java Version: 12.0.2+9-Ubuntu-118.04
Operating System: Linux
Default Encoding: UTF-8
Language: en
Country: US
--></g></svg>