<?xml version="1.0" encoding="UTF-8" standalone="no"?><svg xmlns="http://www.w3.org/2000/svg" xmlns:xlink="http://www.w3.org/1999/xlink" contentScriptType="application/ecmascript" contentStyleType="text/css" height="235px" preserveAspectRatio="none" style="width:216px;height:235px;" version="1.1" viewBox="0 0 216 235" width="216px" zoomAndPan="magnify"><defs><filter height="300%" id="fmk9byo7ralkl" width="300%" x="-1" y="-1"><feGaussianBlur result="blurOut" stdDeviation="2.0"/><feColorMatrix in="blurOut" result="blurOut2" type="matrix" values="0 0 0 0 0 0 0 0 0 0 0 0 0 0 0 0 0 0 .4 0"/><feOffset dx="4.0" dy="4.0" in="blurOut2" result="blurOut3"/><feBlend in="SourceGraphic" in2="blurOut3" mode="normal"/></filter></defs><g><!--MD5=[7a52aa586e5b3c2fcacaeb0d464f5d6f]
class de.fraunhofer.aisec.cpg.graph.AssertStatement--><a href="AssertStatement.html" target="_top" title="AssertStatement.html" xlink:actuate="onRequest" xlink:href="AssertStatement.html" xlink:show="new" xlink:title="AssertStatement.html" xlink:type="simple"><rect fill="#FEFECE" filter="url(#fmk9byo7ralkl)" height="97.1563" id="de.fraunhofer.aisec.cpg.graph.AssertStatement" style="stroke: #A80036; stroke-width: 1.5;" width="199" x="6" y="106"/><ellipse cx="30.9" cy="124.9688" fill="#ADD1B2" rx="11" ry="11" style="stroke: #A80036; stroke-width: 1.0;"/><path d="M33.8688,130.6094 Q33.2906,130.9063 32.65,131.0469 Q32.0094,131.2031 31.3063,131.2031 Q28.8063,131.2031 27.4781,129.5625 Q26.1656,127.9063 26.1656,124.7813 Q26.1656,121.6563 27.4781,120 Q28.8063,118.3438 31.3063,118.3438 Q32.0094,118.3438 32.65,118.5 Q33.3063,118.6563 33.8688,118.9531 L33.8688,121.6719 Q33.2438,121.0938 32.65,120.8281 Q32.0563,120.5469 31.4313,120.5469 Q30.0875,120.5469 29.4,121.625 Q28.7125,122.6875 28.7125,124.7813 Q28.7125,126.875 29.4,127.9531 Q30.0875,129.0156 31.4313,129.0156 Q32.0563,129.0156 32.65,128.75 Q33.2438,128.4688 33.8688,127.8906 L33.8688,130.6094 Z "/><text fill="#000000" font-family="sans-serif" font-size="14" lengthAdjust="spacingAndGlyphs" textLength="116" x="61.6" y="123.9951">AssertStatement</text><text fill="#000000" font-family="sans-serif" font-size="10" lengthAdjust="spacingAndGlyphs" textLength="145" x="47.1" y="136.5791">de.fraunhofer.aisec.cpg.graph</text><line style="stroke: #A80036; stroke-width: 1.5;" x1="7" x2="204" y1="143.9375" y2="143.9375"/><ellipse cx="17" cy="154.9375" fill="#84BE84" rx="3" ry="3" style="stroke: #038048; stroke-width: 1.0;"/><text fill="#000000" font-family="sans-serif" font-size="11" lengthAdjust="spacingAndGlyphs" textLength="150" x="26" y="158.1479">getCondition(): Expression</text><ellipse cx="17" cy="167.7422" fill="#84BE84" rx="3" ry="3" style="stroke: #038048; stroke-width: 1.0;"/><text fill="#000000" font-family="sans-serif" font-size="11" lengthAdjust="spacingAndGlyphs" textLength="173" x="26" y="170.9526">setCondition(Expression): void</text><ellipse cx="17" cy="180.5469" fill="#84BE84" rx="3" ry="3" style="stroke: #038048; stroke-width: 1.0;"/><text fill="#000000" font-family="sans-serif" font-size="11" lengthAdjust="spacingAndGlyphs" textLength="144" x="26" y="183.7573">getMessage(): Statement</text><ellipse cx="17" cy="193.3516" fill="#84BE84" rx="3" ry="3" style="stroke: #038048; stroke-width: 1.0;"/><text fill="#000000" font-family="sans-serif" font-size="11" lengthAdjust="spacingAndGlyphs" textLength="167" x="26" y="196.562">setMessage(Statement): void</text></a><!--MD5=[9566dda5ff1f2bf4890c28c79b7fba98]
class de.fraunhofer.aisec.cpg.graph.Statement--><a href="Statement.html" target="_top" title="Statement.html" xlink:actuate="onRequest" xlink:href="Statement.html" xlink:show="new" xlink:title="Statement.html" xlink:type="simple"><rect fill="#FEFECE" filter="url(#fmk9byo7ralkl)" height="37.9375" id="de.fraunhofer.aisec.cpg.graph.Statement" style="stroke: #A80036; stroke-width: 1.5;" width="177" x="17" y="8"/><ellipse cx="32" cy="26.9688" fill="#ADD1B2" rx="11" ry="11" style="stroke: #A80036; stroke-width: 1.0;"/><path d="M34.9688,32.6094 Q34.3906,32.9063 33.75,33.0469 Q33.1094,33.2031 32.4063,33.2031 Q29.9063,33.2031 28.5781,31.5625 Q27.2656,29.9063 27.2656,26.7813 Q27.2656,23.6563 28.5781,22 Q29.9063,20.3438 32.4063,20.3438 Q33.1094,20.3438 33.75,20.5 Q34.4063,20.6563 34.9688,20.9531 L34.9688,23.6719 Q34.3438,23.0938 33.75,22.8281 Q33.1563,22.5469 32.5313,22.5469 Q31.1875,22.5469 30.5,23.625 Q29.8125,24.6875 29.8125,26.7813 Q29.8125,28.875 30.5,29.9531 Q31.1875,31.0156 32.5313,31.0156 Q33.1563,31.0156 33.75,30.75 Q34.3438,30.4688 34.9688,29.8906 L34.9688,32.6094 Z "/><text fill="#000000" font-family="sans-serif" font-size="14" lengthAdjust="spacingAndGlyphs" textLength="72" x="82.5" y="25.9951">Statement</text><text fill="#000000" font-family="sans-serif" font-size="10" lengthAdjust="spacingAndGlyphs" textLength="145" x="46" y="38.5791">de.fraunhofer.aisec.cpg.graph</text></a><!--MD5=[7f934d98500a244dc6b0d1875b6711bc]
reverse link de.fraunhofer.aisec.cpg.graph.Statement to de.fraunhofer.aisec.cpg.graph.AssertStatement--><path d="M105.5,66.52 C105.5,78.97 105.5,92.93 105.5,105.96 " fill="none" id="de.fraunhofer.aisec.cpg.graph.Statement&lt;-de.fraunhofer.aisec.cpg.graph.AssertStatement" style="stroke: #A80036; stroke-width: 1.0;"/><polygon fill="none" points="98.5,66.25,105.5,46.25,112.5,66.25,98.5,66.25" style="stroke: #A80036; stroke-width: 1.0;"/><text fill="#888888" font-family="sans-serif" font-size="10" lengthAdjust="spacingAndGlyphs" textLength="186" x="18.5" y="222.2822">UMLDoclet 2.0.9, PlantUML 1.2020.08</text><!--MD5=[2077ee6d0886f40cd39d3d6ba4fb58b8]
@startuml
    set namespaceSeparator none
    hide empty fields
    hide empty methods

    class "<size:14>AssertStatement\n<size:10>de.fraunhofer.aisec.cpg.graph" as de.fraunhofer.aisec.cpg.graph.AssertStatement [[AssertStatement.html]] {
        +getCondition(): Expression
        +setCondition(Expression): void
        +getMessage(): Statement
        +setMessage(Statement): void
    }

    class "<size:14>Statement\n<size:10>de.fraunhofer.aisec.cpg.graph" as de.fraunhofer.aisec.cpg.graph.Statement [[Statement.html]]

    de.fraunhofer.aisec.cpg.graph.Statement <|- - de.fraunhofer.aisec.cpg.graph.AssertStatement

    center footer UMLDoclet 2.0.9, PlantUML 1.2020.08
@enduml

PlantUML version 1.2020.08(Sun Apr 26 16:08:22 CEST 2020)
(APACHE source distribution)
Java Runtime: OpenJDK Runtime Environment
JVM: OpenJDK 64-Bit Server VM
Java Version: 12.0.2+9-Ubuntu-118.04
Operating System: Linux
Default Encoding: UTF-8
Language: en
Country: US
--></g></svg>