<?xml version="1.0" encoding="UTF-8" standalone="no"?><svg xmlns="http://www.w3.org/2000/svg" xmlns:xlink="http://www.w3.org/1999/xlink" contentScriptType="application/ecmascript" contentStyleType="text/css" height="230px" preserveAspectRatio="none" style="width:255px;height:230px;" version="1.1" viewBox="0 0 255 230" width="255px" zoomAndPan="magnify"><defs><filter height="300%" id="ffofonsljxuhp" width="300%" x="-1" y="-1"><feGaussianBlur result="blurOut" stdDeviation="2.0"/><feColorMatrix in="blurOut" result="blurOut2" type="matrix" values="0 0 0 0 0 0 0 0 0 0 0 0 0 0 0 0 0 0 .4 0"/><feOffset dx="4.0" dy="4.0" in="blurOut2" result="blurOut3"/><feBlend in="SourceGraphic" in2="blurOut3" mode="normal"/></filter></defs><g><!--MD5=[3ec8223af930915340d3612d0f86c699]
class de.fraunhofer.aisec.cpg.graph.CaseStatement--><a href="CaseStatement.html" target="_top" title="CaseStatement.html" xlink:actuate="onRequest" xlink:href="CaseStatement.html" xlink:show="new" xlink:title="CaseStatement.html" xlink:type="simple"><rect fill="#FEFECE" filter="url(#ffofonsljxuhp)" height="92.3516" id="de.fraunhofer.aisec.cpg.graph.CaseStatement" style="stroke: #A80036; stroke-width: 1.5;" width="238" x="6" y="106"/><ellipse cx="48.45" cy="124.9688" fill="#ADD1B2" rx="11" ry="11" style="stroke: #A80036; stroke-width: 1.0;"/><path d="M51.4188,130.6094 Q50.8406,130.9063 50.2,131.0469 Q49.5594,131.2031 48.8563,131.2031 Q46.3563,131.2031 45.0281,129.5625 Q43.7156,127.9063 43.7156,124.7813 Q43.7156,121.6563 45.0281,120 Q46.3563,118.3438 48.8563,118.3438 Q49.5594,118.3438 50.2,118.5 Q50.8563,118.6563 51.4188,118.9531 L51.4188,121.6719 Q50.7938,121.0938 50.2,120.8281 Q49.6063,120.5469 48.9813,120.5469 Q47.6375,120.5469 46.95,121.625 Q46.2625,122.6875 46.2625,124.7813 Q46.2625,126.875 46.95,127.9531 Q47.6375,129.0156 48.9813,129.0156 Q49.6063,129.0156 50.2,128.75 Q50.7938,128.4688 51.4188,127.8906 L51.4188,130.6094 Z "/><text fill="#000000" font-family="sans-serif" font-size="14" lengthAdjust="spacingAndGlyphs" textLength="107" x="87.55" y="123.9951">CaseStatement</text><text fill="#000000" font-family="sans-serif" font-size="10" lengthAdjust="spacingAndGlyphs" textLength="145" x="68.55" y="136.5791">de.fraunhofer.aisec.cpg.graph</text><line style="stroke: #A80036; stroke-width: 1.5;" x1="7" x2="243" y1="143.9375" y2="143.9375"/><ellipse cx="17" cy="154.9375" fill="none" rx="3" ry="3" style="stroke: #038048; stroke-width: 1.0;"/><text fill="#000000" font-family="sans-serif" font-size="11" lengthAdjust="spacingAndGlyphs" textLength="161" x="26" y="158.1479">caseExpression: Expression</text><line style="stroke: #A80036; stroke-width: 1.5;" x1="7" x2="243" y1="164.7422" y2="164.7422"/><ellipse cx="17" cy="175.7422" fill="#84BE84" rx="3" ry="3" style="stroke: #038048; stroke-width: 1.0;"/><text fill="#000000" font-family="sans-serif" font-size="11" lengthAdjust="spacingAndGlyphs" textLength="189" x="26" y="178.9526">getCaseExpression(): Expression</text><ellipse cx="17" cy="188.5469" fill="#84BE84" rx="3" ry="3" style="stroke: #038048; stroke-width: 1.0;"/><text fill="#000000" font-family="sans-serif" font-size="11" lengthAdjust="spacingAndGlyphs" textLength="212" x="26" y="191.7573">setCaseExpression(Expression): void</text></a><!--MD5=[9566dda5ff1f2bf4890c28c79b7fba98]
class de.fraunhofer.aisec.cpg.graph.Statement--><a href="Statement.html" target="_top" title="Statement.html" xlink:actuate="onRequest" xlink:href="Statement.html" xlink:show="new" xlink:title="Statement.html" xlink:type="simple"><rect fill="#FEFECE" filter="url(#ffofonsljxuhp)" height="37.9375" id="de.fraunhofer.aisec.cpg.graph.Statement" style="stroke: #A80036; stroke-width: 1.5;" width="177" x="36.5" y="8"/><ellipse cx="51.5" cy="26.9688" fill="#ADD1B2" rx="11" ry="11" style="stroke: #A80036; stroke-width: 1.0;"/><path d="M54.4688,32.6094 Q53.8906,32.9063 53.25,33.0469 Q52.6094,33.2031 51.9063,33.2031 Q49.4063,33.2031 48.0781,31.5625 Q46.7656,29.9063 46.7656,26.7813 Q46.7656,23.6563 48.0781,22 Q49.4063,20.3438 51.9063,20.3438 Q52.6094,20.3438 53.25,20.5 Q53.9063,20.6563 54.4688,20.9531 L54.4688,23.6719 Q53.8438,23.0938 53.25,22.8281 Q52.6563,22.5469 52.0313,22.5469 Q50.6875,22.5469 50,23.625 Q49.3125,24.6875 49.3125,26.7813 Q49.3125,28.875 50,29.9531 Q50.6875,31.0156 52.0313,31.0156 Q52.6563,31.0156 53.25,30.75 Q53.8438,30.4688 54.4688,29.8906 L54.4688,32.6094 Z "/><text fill="#000000" font-family="sans-serif" font-size="14" lengthAdjust="spacingAndGlyphs" textLength="72" x="102" y="25.9951">Statement</text><text fill="#000000" font-family="sans-serif" font-size="10" lengthAdjust="spacingAndGlyphs" textLength="145" x="65.5" y="38.5791">de.fraunhofer.aisec.cpg.graph</text></a><!--MD5=[5a24ae4f345c690bac95754569263030]
reverse link de.fraunhofer.aisec.cpg.graph.Statement to de.fraunhofer.aisec.cpg.graph.CaseStatement--><path d="M125,66.51 C125,79.01 125,92.99 125,105.93 " fill="none" id="de.fraunhofer.aisec.cpg.graph.Statement&lt;-de.fraunhofer.aisec.cpg.graph.CaseStatement" style="stroke: #A80036; stroke-width: 1.0;"/><polygon fill="none" points="118,66.15,125,46.15,132,66.15,118,66.15" style="stroke: #A80036; stroke-width: 1.0;"/><text fill="#888888" font-family="sans-serif" font-size="10" lengthAdjust="spacingAndGlyphs" textLength="186" x="38" y="217.2822">UMLDoclet 2.0.9, PlantUML 1.2020.08</text><!--MD5=[61edd259705196e73cd3a1f34d59495e]
@startuml
    set namespaceSeparator none
    hide empty fields
    hide empty methods

    class "<size:14>CaseStatement\n<size:10>de.fraunhofer.aisec.cpg.graph" as de.fraunhofer.aisec.cpg.graph.CaseStatement [[CaseStatement.html]] {
        +caseExpression: Expression
        +getCaseExpression(): Expression
        +setCaseExpression(Expression): void
    }

    class "<size:14>Statement\n<size:10>de.fraunhofer.aisec.cpg.graph" as de.fraunhofer.aisec.cpg.graph.Statement [[Statement.html]]

    de.fraunhofer.aisec.cpg.graph.Statement <|- - de.fraunhofer.aisec.cpg.graph.CaseStatement

    center footer UMLDoclet 2.0.9, PlantUML 1.2020.08
@enduml

PlantUML version 1.2020.08(Sun Apr 26 16:08:22 CEST 2020)
(APACHE source distribution)
Java Runtime: OpenJDK Runtime Environment
JVM: OpenJDK 64-Bit Server VM
Java Version: 12.0.2+9-Ubuntu-118.04
Operating System: Linux
Default Encoding: UTF-8
Language: en
Country: US
--></g></svg>