<?xml version="1.0" encoding="UTF-8" standalone="no"?><svg xmlns="http://www.w3.org/2000/svg" xmlns:xlink="http://www.w3.org/1999/xlink" contentScriptType="application/ecmascript" contentStyleType="text/css" height="235px" preserveAspectRatio="none" style="width:270px;height:235px;" version="1.1" viewBox="0 0 270 235" width="270px" zoomAndPan="magnify"><defs><filter height="300%" id="f1u9nubv5d0015" width="300%" x="-1" y="-1"><feGaussianBlur result="blurOut" stdDeviation="2.0"/><feColorMatrix in="blurOut" result="blurOut2" type="matrix" values="0 0 0 0 0 0 0 0 0 0 0 0 0 0 0 0 0 0 .4 0"/><feOffset dx="4.0" dy="4.0" in="blurOut2" result="blurOut3"/><feBlend in="SourceGraphic" in2="blurOut3" mode="normal"/></filter></defs><g><!--MD5=[8d952de187f8d6fd6fe15cdf6df6275b]
class de.fraunhofer.aisec.cpg.graph.CatchClause--><a href="CatchClause.html" target="_top" title="CatchClause.html" xlink:actuate="onRequest" xlink:href="CatchClause.html" xlink:show="new" xlink:title="CatchClause.html" xlink:type="simple"><rect fill="#FEFECE" filter="url(#f1u9nubv5d0015)" height="97.1563" id="de.fraunhofer.aisec.cpg.graph.CatchClause" style="stroke: #A80036; stroke-width: 1.5;" width="253" x="6" y="106"/><ellipse cx="55.75" cy="124.9688" fill="#ADD1B2" rx="11" ry="11" style="stroke: #A80036; stroke-width: 1.0;"/><path d="M58.7188,130.6094 Q58.1406,130.9063 57.5,131.0469 Q56.8594,131.2031 56.1563,131.2031 Q53.6563,131.2031 52.3281,129.5625 Q51.0156,127.9063 51.0156,124.7813 Q51.0156,121.6563 52.3281,120 Q53.6563,118.3438 56.1563,118.3438 Q56.8594,118.3438 57.5,118.5 Q58.1563,118.6563 58.7188,118.9531 L58.7188,121.6719 Q58.0938,121.0938 57.5,120.8281 Q56.9063,120.5469 56.2813,120.5469 Q54.9375,120.5469 54.25,121.625 Q53.5625,122.6875 53.5625,124.7813 Q53.5625,126.875 54.25,127.9531 Q54.9375,129.0156 56.2813,129.0156 Q56.9063,129.0156 57.5,128.75 Q58.0938,128.4688 58.7188,127.8906 L58.7188,130.6094 Z "/><text fill="#000000" font-family="sans-serif" font-size="14" lengthAdjust="spacingAndGlyphs" textLength="87" x="105.25" y="123.9951">CatchClause</text><text fill="#000000" font-family="sans-serif" font-size="10" lengthAdjust="spacingAndGlyphs" textLength="145" x="76.25" y="136.5791">de.fraunhofer.aisec.cpg.graph</text><line style="stroke: #A80036; stroke-width: 1.5;" x1="7" x2="258" y1="143.9375" y2="143.9375"/><ellipse cx="17" cy="154.9375" fill="#84BE84" rx="3" ry="3" style="stroke: #038048; stroke-width: 1.0;"/><text fill="#000000" font-family="sans-serif" font-size="11" lengthAdjust="spacingAndGlyphs" textLength="204" x="26" y="158.1479">getParameter(): VariableDeclaration</text><ellipse cx="17" cy="167.7422" fill="#84BE84" rx="3" ry="3" style="stroke: #038048; stroke-width: 1.0;"/><text fill="#000000" font-family="sans-serif" font-size="11" lengthAdjust="spacingAndGlyphs" textLength="227" x="26" y="170.9526">setParameter(VariableDeclaration): void</text><ellipse cx="17" cy="180.5469" fill="#84BE84" rx="3" ry="3" style="stroke: #038048; stroke-width: 1.0;"/><text fill="#000000" font-family="sans-serif" font-size="11" lengthAdjust="spacingAndGlyphs" textLength="182" x="26" y="183.7573">getBody(): CompoundStatement</text><ellipse cx="17" cy="193.3516" fill="#84BE84" rx="3" ry="3" style="stroke: #038048; stroke-width: 1.0;"/><text fill="#000000" font-family="sans-serif" font-size="11" lengthAdjust="spacingAndGlyphs" textLength="205" x="26" y="196.562">setBody(CompoundStatement): void</text></a><!--MD5=[9566dda5ff1f2bf4890c28c79b7fba98]
class de.fraunhofer.aisec.cpg.graph.Statement--><a href="Statement.html" target="_top" title="Statement.html" xlink:actuate="onRequest" xlink:href="Statement.html" xlink:show="new" xlink:title="Statement.html" xlink:type="simple"><rect fill="#FEFECE" filter="url(#f1u9nubv5d0015)" height="37.9375" id="de.fraunhofer.aisec.cpg.graph.Statement" style="stroke: #A80036; stroke-width: 1.5;" width="177" x="44" y="8"/><ellipse cx="59" cy="26.9688" fill="#ADD1B2" rx="11" ry="11" style="stroke: #A80036; stroke-width: 1.0;"/><path d="M61.9688,32.6094 Q61.3906,32.9063 60.75,33.0469 Q60.1094,33.2031 59.4063,33.2031 Q56.9063,33.2031 55.5781,31.5625 Q54.2656,29.9063 54.2656,26.7813 Q54.2656,23.6563 55.5781,22 Q56.9063,20.3438 59.4063,20.3438 Q60.1094,20.3438 60.75,20.5 Q61.4063,20.6563 61.9688,20.9531 L61.9688,23.6719 Q61.3438,23.0938 60.75,22.8281 Q60.1563,22.5469 59.5313,22.5469 Q58.1875,22.5469 57.5,23.625 Q56.8125,24.6875 56.8125,26.7813 Q56.8125,28.875 57.5,29.9531 Q58.1875,31.0156 59.5313,31.0156 Q60.1563,31.0156 60.75,30.75 Q61.3438,30.4688 61.9688,29.8906 L61.9688,32.6094 Z "/><text fill="#000000" font-family="sans-serif" font-size="14" lengthAdjust="spacingAndGlyphs" textLength="72" x="109.5" y="25.9951">Statement</text><text fill="#000000" font-family="sans-serif" font-size="10" lengthAdjust="spacingAndGlyphs" textLength="145" x="73" y="38.5791">de.fraunhofer.aisec.cpg.graph</text></a><!--MD5=[4d391ff83faf5e8683054dbee7b314da]
reverse link de.fraunhofer.aisec.cpg.graph.Statement to de.fraunhofer.aisec.cpg.graph.CatchClause--><path d="M132.5,66.52 C132.5,78.97 132.5,92.93 132.5,105.96 " fill="none" id="de.fraunhofer.aisec.cpg.graph.Statement&lt;-de.fraunhofer.aisec.cpg.graph.CatchClause" style="stroke: #A80036; stroke-width: 1.0;"/><polygon fill="none" points="125.5,66.25,132.5,46.25,139.5,66.25,125.5,66.25" style="stroke: #A80036; stroke-width: 1.0;"/><text fill="#888888" font-family="sans-serif" font-size="10" lengthAdjust="spacingAndGlyphs" textLength="186" x="45.5" y="222.2822">UMLDoclet 2.0.9, PlantUML 1.2020.08</text><!--MD5=[2a2196c0a7ec1c7964ffb9c61cd0ad31]
@startuml
    set namespaceSeparator none
    hide empty fields
    hide empty methods

    class "<size:14>CatchClause\n<size:10>de.fraunhofer.aisec.cpg.graph" as de.fraunhofer.aisec.cpg.graph.CatchClause [[CatchClause.html]] {
        +getParameter(): VariableDeclaration
        +setParameter(VariableDeclaration): void
        +getBody(): CompoundStatement
        +setBody(CompoundStatement): void
    }

    class "<size:14>Statement\n<size:10>de.fraunhofer.aisec.cpg.graph" as de.fraunhofer.aisec.cpg.graph.Statement [[Statement.html]]

    de.fraunhofer.aisec.cpg.graph.Statement <|- - de.fraunhofer.aisec.cpg.graph.CatchClause

    center footer UMLDoclet 2.0.9, PlantUML 1.2020.08
@enduml

PlantUML version 1.2020.08(Sun Apr 26 16:08:22 CEST 2020)
(APACHE source distribution)
Java Runtime: OpenJDK Runtime Environment
JVM: OpenJDK 64-Bit Server VM
Java Version: 12.0.2+9-Ubuntu-118.04
Operating System: Linux
Default Encoding: UTF-8
Language: en
Country: US
--></g></svg>