<?xml version="1.0" encoding="UTF-8" standalone="no"?><svg xmlns="http://www.w3.org/2000/svg" xmlns:xlink="http://www.w3.org/1999/xlink" contentScriptType="application/ecmascript" contentStyleType="text/css" height="210px" preserveAspectRatio="none" style="width:263px;height:210px;" version="1.1" viewBox="0 0 263 210" width="263px" zoomAndPan="magnify"><defs><filter height="300%" id="f1oovmp1xesboh" width="300%" x="-1" y="-1"><feGaussianBlur result="blurOut" stdDeviation="2.0"/><feColorMatrix in="blurOut" result="blurOut2" type="matrix" values="0 0 0 0 0 0 0 0 0 0 0 0 0 0 0 0 0 0 .4 0"/><feOffset dx="4.0" dy="4.0" in="blurOut2" result="blurOut3"/><feBlend in="SourceGraphic" in2="blurOut3" mode="normal"/></filter></defs><g><!--MD5=[434f7bb29860b598bf2d2189eb08f173]
class de.fraunhofer.aisec.cpg.graph.CompoundStatement--><a href="CompoundStatement.html" target="_top" title="CompoundStatement.html" xlink:actuate="onRequest" xlink:href="CompoundStatement.html" xlink:show="new" xlink:title="CompoundStatement.html" xlink:type="simple"><rect fill="#FEFECE" filter="url(#f1oovmp1xesboh)" height="71.5469" id="de.fraunhofer.aisec.cpg.graph.CompoundStatement" style="stroke: #A80036; stroke-width: 1.5;" width="246" x="6" y="106"/><ellipse cx="50.25" cy="124.9688" fill="#ADD1B2" rx="11" ry="11" style="stroke: #A80036; stroke-width: 1.0;"/><path d="M53.2188,130.6094 Q52.6406,130.9063 52,131.0469 Q51.3594,131.2031 50.6563,131.2031 Q48.1563,131.2031 46.8281,129.5625 Q45.5156,127.9063 45.5156,124.7813 Q45.5156,121.6563 46.8281,120 Q48.1563,118.3438 50.6563,118.3438 Q51.3594,118.3438 52,118.5 Q52.6563,118.6563 53.2188,118.9531 L53.2188,121.6719 Q52.5938,121.0938 52,120.8281 Q51.4063,120.5469 50.7813,120.5469 Q49.4375,120.5469 48.75,121.625 Q48.0625,122.6875 48.0625,124.7813 Q48.0625,126.875 48.75,127.9531 Q49.4375,129.0156 50.7813,129.0156 Q51.4063,129.0156 52,128.75 Q52.5938,128.4688 53.2188,127.8906 L53.2188,130.6094 Z "/><text fill="#000000" font-family="sans-serif" font-size="14" lengthAdjust="spacingAndGlyphs" textLength="149" x="70.75" y="123.9951">CompoundStatement</text><text fill="#000000" font-family="sans-serif" font-size="10" lengthAdjust="spacingAndGlyphs" textLength="145" x="72.75" y="136.5791">de.fraunhofer.aisec.cpg.graph</text><line style="stroke: #A80036; stroke-width: 1.5;" x1="7" x2="251" y1="143.9375" y2="143.9375"/><ellipse cx="17" cy="154.9375" fill="#84BE84" rx="3" ry="3" style="stroke: #038048; stroke-width: 1.0;"/><text fill="#000000" font-family="sans-serif" font-size="11" lengthAdjust="spacingAndGlyphs" textLength="197" x="26" y="158.1479">getStatements(): List&lt;Statement&gt;</text><ellipse cx="17" cy="167.7422" fill="#84BE84" rx="3" ry="3" style="stroke: #038048; stroke-width: 1.0;"/><text fill="#000000" font-family="sans-serif" font-size="11" lengthAdjust="spacingAndGlyphs" textLength="220" x="26" y="170.9526">setStatements(List&lt;Statement&gt;): void</text></a><!--MD5=[9566dda5ff1f2bf4890c28c79b7fba98]
class de.fraunhofer.aisec.cpg.graph.Statement--><a href="Statement.html" target="_top" title="Statement.html" xlink:actuate="onRequest" xlink:href="Statement.html" xlink:show="new" xlink:title="Statement.html" xlink:type="simple"><rect fill="#FEFECE" filter="url(#f1oovmp1xesboh)" height="37.9375" id="de.fraunhofer.aisec.cpg.graph.Statement" style="stroke: #A80036; stroke-width: 1.5;" width="177" x="40.5" y="8"/><ellipse cx="55.5" cy="26.9688" fill="#ADD1B2" rx="11" ry="11" style="stroke: #A80036; stroke-width: 1.0;"/><path d="M58.4688,32.6094 Q57.8906,32.9063 57.25,33.0469 Q56.6094,33.2031 55.9063,33.2031 Q53.4063,33.2031 52.0781,31.5625 Q50.7656,29.9063 50.7656,26.7813 Q50.7656,23.6563 52.0781,22 Q53.4063,20.3438 55.9063,20.3438 Q56.6094,20.3438 57.25,20.5 Q57.9063,20.6563 58.4688,20.9531 L58.4688,23.6719 Q57.8438,23.0938 57.25,22.8281 Q56.6563,22.5469 56.0313,22.5469 Q54.6875,22.5469 54,23.625 Q53.3125,24.6875 53.3125,26.7813 Q53.3125,28.875 54,29.9531 Q54.6875,31.0156 56.0313,31.0156 Q56.6563,31.0156 57.25,30.75 Q57.8438,30.4688 58.4688,29.8906 L58.4688,32.6094 Z "/><text fill="#000000" font-family="sans-serif" font-size="14" lengthAdjust="spacingAndGlyphs" textLength="72" x="106" y="25.9951">Statement</text><text fill="#000000" font-family="sans-serif" font-size="10" lengthAdjust="spacingAndGlyphs" textLength="145" x="69.5" y="38.5791">de.fraunhofer.aisec.cpg.graph</text></a><!--MD5=[93d02d49b7fd50aa153fd84aa7e4905e]
reverse link de.fraunhofer.aisec.cpg.graph.Statement to de.fraunhofer.aisec.cpg.graph.CompoundStatement--><path d="M129,66.3 C129,79 129,93.08 129,105.56 " fill="none" id="de.fraunhofer.aisec.cpg.graph.Statement&lt;-de.fraunhofer.aisec.cpg.graph.CompoundStatement" style="stroke: #A80036; stroke-width: 1.0;"/><polygon fill="none" points="122,66.16,129,46.16,136,66.16,122,66.16" style="stroke: #A80036; stroke-width: 1.0;"/><text fill="#888888" font-family="sans-serif" font-size="10" lengthAdjust="spacingAndGlyphs" textLength="186" x="42" y="197.2822">UMLDoclet 2.0.9, PlantUML 1.2020.08</text><!--MD5=[21b3950834c8b08243c940588797b46c]
@startuml
    set namespaceSeparator none
    hide empty fields
    hide empty methods

    class "<size:14>CompoundStatement\n<size:10>de.fraunhofer.aisec.cpg.graph" as de.fraunhofer.aisec.cpg.graph.CompoundStatement [[CompoundStatement.html]] {
        +getStatements(): List<Statement>
        +setStatements(List<Statement>): void
    }

    class "<size:14>Statement\n<size:10>de.fraunhofer.aisec.cpg.graph" as de.fraunhofer.aisec.cpg.graph.Statement [[Statement.html]]

    de.fraunhofer.aisec.cpg.graph.Statement <|- - de.fraunhofer.aisec.cpg.graph.CompoundStatement

    center footer UMLDoclet 2.0.9, PlantUML 1.2020.08
@enduml

PlantUML version 1.2020.08(Sun Apr 26 16:08:22 CEST 2020)
(APACHE source distribution)
Java Runtime: OpenJDK Runtime Environment
JVM: OpenJDK 64-Bit Server VM
Java Version: 12.0.2+9-Ubuntu-118.04
Operating System: Linux
Default Encoding: UTF-8
Language: en
Country: US
--></g></svg>