<?xml version="1.0" encoding="UTF-8" standalone="no"?><svg xmlns="http://www.w3.org/2000/svg" xmlns:xlink="http://www.w3.org/1999/xlink" contentScriptType="application/ecmascript" contentStyleType="text/css" height="320px" preserveAspectRatio="none" style="width:624px;height:320px;" version="1.1" viewBox="0 0 624 320" width="624px" zoomAndPan="magnify"><defs><filter height="300%" id="f11ht9mvv9aji4" width="300%" x="-1" y="-1"><feGaussianBlur result="blurOut" stdDeviation="2.0"/><feColorMatrix in="blurOut" result="blurOut2" type="matrix" values="0 0 0 0 0 0 0 0 0 0 0 0 0 0 0 0 0 0 .4 0"/><feOffset dx="4.0" dy="4.0" in="blurOut2" result="blurOut3"/><feBlend in="SourceGraphic" in2="blurOut3" mode="normal"/></filter></defs><g><!--MD5=[0adea3282d1c8a717d81fc825db88e12]
class de.fraunhofer.aisec.cpg.graph.ConditionalExpression--><a href="ConditionalExpression.html" target="_top" title="ConditionalExpression.html" xlink:actuate="onRequest" xlink:href="ConditionalExpression.html" xlink:show="new" xlink:title="ConditionalExpression.html" xlink:type="simple"><rect fill="#FEFECE" filter="url(#f11ht9mvv9aji4)" height="148.375" id="de.fraunhofer.aisec.cpg.graph.ConditionalExpression" style="stroke: #A80036; stroke-width: 1.5;" width="397" x="56" y="140"/><ellipse cx="173.75" cy="158.9688" fill="#ADD1B2" rx="11" ry="11" style="stroke: #A80036; stroke-width: 1.0;"/><path d="M176.7188,164.6094 Q176.1406,164.9063 175.5,165.0469 Q174.8594,165.2031 174.1563,165.2031 Q171.6563,165.2031 170.3281,163.5625 Q169.0156,161.9063 169.0156,158.7813 Q169.0156,155.6563 170.3281,154 Q171.6563,152.3438 174.1563,152.3438 Q174.8594,152.3438 175.5,152.5 Q176.1563,152.6563 176.7188,152.9531 L176.7188,155.6719 Q176.0938,155.0938 175.5,154.8281 Q174.9063,154.5469 174.2813,154.5469 Q172.9375,154.5469 172.25,155.625 Q171.5625,156.6875 171.5625,158.7813 Q171.5625,160.875 172.25,161.9531 Q172.9375,163.0156 174.2813,163.0156 Q174.9063,163.0156 175.5,162.75 Q176.0938,162.4688 176.7188,161.8906 L176.7188,164.6094 Z "/><text fill="#000000" font-family="sans-serif" font-size="14" lengthAdjust="spacingAndGlyphs" textLength="153" x="194.25" y="157.9951">ConditionalExpression</text><text fill="#000000" font-family="sans-serif" font-size="10" lengthAdjust="spacingAndGlyphs" textLength="145" x="198.25" y="170.5791">de.fraunhofer.aisec.cpg.graph</text><line style="stroke: #A80036; stroke-width: 1.5;" x1="57" x2="452" y1="177.9375" y2="177.9375"/><ellipse cx="67" cy="188.9375" fill="#84BE84" rx="3" ry="3" style="stroke: #038048; stroke-width: 1.0;"/><text fill="#000000" font-family="sans-serif" font-size="11" lengthAdjust="spacingAndGlyphs" textLength="150" x="76" y="192.1479">getCondition(): Expression</text><ellipse cx="67" cy="201.7422" fill="#84BE84" rx="3" ry="3" style="stroke: #038048; stroke-width: 1.0;"/><text fill="#000000" font-family="sans-serif" font-size="11" lengthAdjust="spacingAndGlyphs" textLength="173" x="76" y="204.9526">setCondition(Expression): void</text><ellipse cx="67" cy="214.5469" fill="#84BE84" rx="3" ry="3" style="stroke: #038048; stroke-width: 1.0;"/><text fill="#000000" font-family="sans-serif" font-size="11" lengthAdjust="spacingAndGlyphs" textLength="150" x="76" y="217.7573">getThenExpr(): Expression</text><ellipse cx="67" cy="227.3516" fill="#84BE84" rx="3" ry="3" style="stroke: #038048; stroke-width: 1.0;"/><text fill="#000000" font-family="sans-serif" font-size="11" lengthAdjust="spacingAndGlyphs" textLength="173" x="76" y="230.562">setThenExpr(Expression): void</text><ellipse cx="67" cy="240.1563" fill="#84BE84" rx="3" ry="3" style="stroke: #038048; stroke-width: 1.0;"/><text fill="#000000" font-family="sans-serif" font-size="11" lengthAdjust="spacingAndGlyphs" textLength="146" x="76" y="243.3667">getElseExpr(): Expression</text><ellipse cx="67" cy="252.9609" fill="#84BE84" rx="3" ry="3" style="stroke: #038048; stroke-width: 1.0;"/><text fill="#000000" font-family="sans-serif" font-size="11" lengthAdjust="spacingAndGlyphs" textLength="169" x="76" y="256.1714">setElseExpr(Expression): void</text><ellipse cx="67" cy="265.7656" fill="#84BE84" rx="3" ry="3" style="stroke: #038048; stroke-width: 1.0;"/><text fill="#000000" font-family="sans-serif" font-size="11" lengthAdjust="spacingAndGlyphs" textLength="254" x="76" y="268.9761">typeChanged(HasType, HasType, Type): void</text><ellipse cx="67" cy="278.5703" fill="#84BE84" rx="3" ry="3" style="stroke: #038048; stroke-width: 1.0;"/><text fill="#000000" font-family="sans-serif" font-size="11" lengthAdjust="spacingAndGlyphs" textLength="371" x="76" y="281.7808">possibleSubTypesChanged(HasType, HasType, Set&lt;Type&gt;): void</text></a><!--MD5=[f602dd8d46e7ba17465d0a1e20507055]
class de.fraunhofer.aisec.cpg.graph.Expression--><a href="Expression.html" target="_top" title="Expression.html" xlink:actuate="onRequest" xlink:href="Expression.html" xlink:show="new" xlink:title="Expression.html" xlink:type="simple"><rect fill="#FEFECE" filter="url(#f11ht9mvv9aji4)" height="37.9375" id="de.fraunhofer.aisec.cpg.graph.Expression" style="stroke: #A80036; stroke-width: 1.5;" width="177" x="6" y="25"/><ellipse cx="21" cy="43.9688" fill="#ADD1B2" rx="11" ry="11" style="stroke: #A80036; stroke-width: 1.0;"/><path d="M23.9688,49.6094 Q23.3906,49.9063 22.75,50.0469 Q22.1094,50.2031 21.4063,50.2031 Q18.9063,50.2031 17.5781,48.5625 Q16.2656,46.9063 16.2656,43.7813 Q16.2656,40.6563 17.5781,39 Q18.9063,37.3438 21.4063,37.3438 Q22.1094,37.3438 22.75,37.5 Q23.4063,37.6563 23.9688,37.9531 L23.9688,40.6719 Q23.3438,40.0938 22.75,39.8281 Q22.1563,39.5469 21.5313,39.5469 Q20.1875,39.5469 19.5,40.625 Q18.8125,41.6875 18.8125,43.7813 Q18.8125,45.875 19.5,46.9531 Q20.1875,48.0156 21.5313,48.0156 Q22.1563,48.0156 22.75,47.75 Q23.3438,47.4688 23.9688,46.8906 L23.9688,49.6094 Z "/><text fill="#000000" font-family="sans-serif" font-size="14" lengthAdjust="spacingAndGlyphs" textLength="76" x="69.5" y="42.9951">Expression</text><text fill="#000000" font-family="sans-serif" font-size="10" lengthAdjust="spacingAndGlyphs" textLength="145" x="35" y="55.5791">de.fraunhofer.aisec.cpg.graph</text></a><!--MD5=[4ec8a2121f068e962618cb9a044486ac]
class de.fraunhofer.aisec.cpg.graph.HasType.TypeListener--><a href="HasType.TypeListener.html" target="_top" title="HasType.TypeListener.html" xlink:actuate="onRequest" xlink:href="HasType.TypeListener.html" xlink:show="new" xlink:title="HasType.TypeListener.html" xlink:type="simple"><rect fill="#FEFECE" filter="url(#f11ht9mvv9aji4)" height="71.5469" id="de.fraunhofer.aisec.cpg.graph.HasType.TypeListener" style="stroke: #A80036; stroke-width: 1.5;" width="395" x="218" y="8"/><ellipse cx="333.75" cy="26.9688" fill="#B4A7E5" rx="11" ry="11" style="stroke: #A80036; stroke-width: 1.0;"/><path d="M329.6719,22.7344 L329.6719,20.5781 L337.0625,20.5781 L337.0625,22.7344 L334.5938,22.7344 L334.5938,30.8125 L337.0625,30.8125 L337.0625,32.9688 L329.6719,32.9688 L329.6719,30.8125 L332.1406,30.8125 L332.1406,22.7344 L329.6719,22.7344 Z "/><text fill="#000000" font-family="sans-serif" font-size="14" font-style="italic" lengthAdjust="spacingAndGlyphs" textLength="155" x="354.25" y="25.9951">HasType.TypeListener</text><text fill="#000000" font-family="sans-serif" font-size="10" font-style="italic" lengthAdjust="spacingAndGlyphs" textLength="148" x="357.75" y="38.5791">de.fraunhofer.aisec.cpg.graph</text><line style="stroke: #A80036; stroke-width: 1.5;" x1="219" x2="612" y1="45.9375" y2="45.9375"/><ellipse cx="229" cy="56.9375" fill="#84BE84" rx="3" ry="3" style="stroke: #038048; stroke-width: 1.0;"/><text fill="#000000" font-family="sans-serif" font-size="11" font-style="italic" lengthAdjust="spacingAndGlyphs" textLength="257" x="238" y="60.1479">typeChanged(HasType, HasType, Type): void</text><ellipse cx="229" cy="69.7422" fill="#84BE84" rx="3" ry="3" style="stroke: #038048; stroke-width: 1.0;"/><text fill="#000000" font-family="sans-serif" font-size="11" font-style="italic" lengthAdjust="spacingAndGlyphs" textLength="369" x="238" y="72.9526">possibleSubTypesChanged(HasType, HasType, Set&lt;Type&gt;): void</text></a><!--MD5=[3d121f9c478503d566c57342c7d168c0]
reverse link de.fraunhofer.aisec.cpg.graph.Expression to de.fraunhofer.aisec.cpg.graph.ConditionalExpression--><path d="M125.96,78.04 C142.84,95.76 164.35,118.34 184.92,139.94 " fill="none" id="de.fraunhofer.aisec.cpg.graph.Expression&lt;-de.fraunhofer.aisec.cpg.graph.ConditionalExpression" style="stroke: #A80036; stroke-width: 1.0;"/><polygon fill="none" points="120.65,82.61,111.93,63.3,130.79,72.95,120.65,82.61" style="stroke: #A80036; stroke-width: 1.0;"/><!--MD5=[0eda7cc93ec5eb2dd86e8a7dfab748ce]
reverse link de.fraunhofer.aisec.cpg.graph.HasType.TypeListener to de.fraunhofer.aisec.cpg.graph.ConditionalExpression--><path d="M367.76,94.82 C354.24,108.92 339.24,124.58 324.69,139.76 " fill="none" id="de.fraunhofer.aisec.cpg.graph.HasType.TypeListener&lt;-de.fraunhofer.aisec.cpg.graph.ConditionalExpression" style="stroke: #A80036; stroke-width: 1.0; stroke-dasharray: 7.0,7.0;"/><polygon fill="none" points="362.86,89.81,381.75,80.22,372.96,99.5,362.86,89.81" style="stroke: #A80036; stroke-width: 1.0;"/><text fill="#888888" font-family="sans-serif" font-size="10" lengthAdjust="spacingAndGlyphs" textLength="186" x="222.5" y="307.2822">UMLDoclet 2.0.9, PlantUML 1.2020.08</text><!--MD5=[68edcdf34df1ff7c8226854d4c88ab3c]
@startuml
    set namespaceSeparator none
    hide empty fields
    hide empty methods

    class "<size:14>ConditionalExpression\n<size:10>de.fraunhofer.aisec.cpg.graph" as de.fraunhofer.aisec.cpg.graph.ConditionalExpression [[ConditionalExpression.html]] {
        +getCondition(): Expression
        +setCondition(Expression): void
        +getThenExpr(): Expression
        +setThenExpr(Expression): void
        +getElseExpr(): Expression
        +setElseExpr(Expression): void
        +typeChanged(HasType, HasType, Type): void
        +possibleSubTypesChanged(HasType, HasType, Set<Type>): void
    }

    class "<size:14>Expression\n<size:10>de.fraunhofer.aisec.cpg.graph" as de.fraunhofer.aisec.cpg.graph.Expression [[Expression.html]]
    interface "<size:14>HasType.TypeListener\n<size:10>de.fraunhofer.aisec.cpg.graph" as de.fraunhofer.aisec.cpg.graph.HasType.TypeListener [[HasType.TypeListener.html]] {
        {abstract} +typeChanged(HasType, HasType, Type): void
        {abstract} +possibleSubTypesChanged(HasType, HasType, Set<Type>): void
    }

    de.fraunhofer.aisec.cpg.graph.Expression <|- - de.fraunhofer.aisec.cpg.graph.ConditionalExpression
    de.fraunhofer.aisec.cpg.graph.HasType.TypeListener <|.. de.fraunhofer.aisec.cpg.graph.ConditionalExpression

    center footer UMLDoclet 2.0.9, PlantUML 1.2020.08
@enduml

PlantUML version 1.2020.08(Sun Apr 26 16:08:22 CEST 2020)
(APACHE source distribution)
Java Runtime: OpenJDK Runtime Environment
JVM: OpenJDK 64-Bit Server VM
Java Version: 12.0.2+9-Ubuntu-118.04
Operating System: Linux
Default Encoding: UTF-8
Language: en
Country: US
--></g></svg>