<?xml version="1.0" encoding="UTF-8" standalone="no"?><svg xmlns="http://www.w3.org/2000/svg" xmlns:xlink="http://www.w3.org/1999/xlink" contentScriptType="application/ecmascript" contentStyleType="text/css" height="197px" preserveAspectRatio="none" style="width:322px;height:197px;" version="1.1" viewBox="0 0 322 197" width="322px" zoomAndPan="magnify"><defs><filter height="300%" id="f1of0f0jipoqsd" width="300%" x="-1" y="-1"><feGaussianBlur result="blurOut" stdDeviation="2.0"/><feColorMatrix in="blurOut" result="blurOut2" type="matrix" values="0 0 0 0 0 0 0 0 0 0 0 0 0 0 0 0 0 0 .4 0"/><feOffset dx="4.0" dy="4.0" in="blurOut2" result="blurOut3"/><feBlend in="SourceGraphic" in2="blurOut3" mode="normal"/></filter></defs><g><!--MD5=[714c60782137285a0a13fc7651d40849]
class de.fraunhofer.aisec.cpg.graph.ConstructorDeclaration--><a href="ConstructorDeclaration.html" target="_top" title="ConstructorDeclaration.html" xlink:actuate="onRequest" xlink:href="ConstructorDeclaration.html" xlink:show="new" xlink:title="ConstructorDeclaration.html" xlink:type="simple"><rect fill="#FEFECE" filter="url(#f1of0f0jipoqsd)" height="58.7422" id="de.fraunhofer.aisec.cpg.graph.ConstructorDeclaration" style="stroke: #A80036; stroke-width: 1.5;" width="305" x="6" y="106"/><ellipse cx="74.25" cy="124.9688" fill="#ADD1B2" rx="11" ry="11" style="stroke: #A80036; stroke-width: 1.0;"/><path d="M77.2188,130.6094 Q76.6406,130.9063 76,131.0469 Q75.3594,131.2031 74.6563,131.2031 Q72.1563,131.2031 70.8281,129.5625 Q69.5156,127.9063 69.5156,124.7813 Q69.5156,121.6563 70.8281,120 Q72.1563,118.3438 74.6563,118.3438 Q75.3594,118.3438 76,118.5 Q76.6563,118.6563 77.2188,118.9531 L77.2188,121.6719 Q76.5938,121.0938 76,120.8281 Q75.4063,120.5469 74.7813,120.5469 Q73.4375,120.5469 72.75,121.625 Q72.0625,122.6875 72.0625,124.7813 Q72.0625,126.875 72.75,127.9531 Q73.4375,129.0156 74.7813,129.0156 Q75.4063,129.0156 76,128.75 Q76.5938,128.4688 77.2188,127.8906 L77.2188,130.6094 Z "/><text fill="#000000" font-family="sans-serif" font-size="14" lengthAdjust="spacingAndGlyphs" textLength="160" x="94.75" y="123.9951">ConstructorDeclaration</text><text fill="#000000" font-family="sans-serif" font-size="10" lengthAdjust="spacingAndGlyphs" textLength="145" x="102.25" y="136.5791">de.fraunhofer.aisec.cpg.graph</text><line style="stroke: #A80036; stroke-width: 1.5;" x1="7" x2="310" y1="143.9375" y2="143.9375"/><ellipse cx="17" cy="154.9375" fill="#84BE84" rx="3" ry="3" style="stroke: #038048; stroke-width: 1.0;"/><text fill="#000000" font-family="sans-serif" font-size="11" lengthAdjust="spacingAndGlyphs" text-decoration="underline" textLength="279" x="26" y="158.1479">from(MethodDeclaration): ConstructorDeclaration</text></a><!--MD5=[1adc42e743aa2ca34d4d6c364be9c713]
class de.fraunhofer.aisec.cpg.graph.MethodDeclaration--><a href="MethodDeclaration.html" target="_top" title="MethodDeclaration.html" xlink:actuate="onRequest" xlink:href="MethodDeclaration.html" xlink:show="new" xlink:title="MethodDeclaration.html" xlink:type="simple"><rect fill="#FEFECE" filter="url(#f1of0f0jipoqsd)" height="37.9375" id="de.fraunhofer.aisec.cpg.graph.MethodDeclaration" style="stroke: #A80036; stroke-width: 1.5;" width="177" x="70" y="8"/><ellipse cx="85" cy="26.9688" fill="#ADD1B2" rx="11" ry="11" style="stroke: #A80036; stroke-width: 1.0;"/><path d="M87.9688,32.6094 Q87.3906,32.9063 86.75,33.0469 Q86.1094,33.2031 85.4063,33.2031 Q82.9063,33.2031 81.5781,31.5625 Q80.2656,29.9063 80.2656,26.7813 Q80.2656,23.6563 81.5781,22 Q82.9063,20.3438 85.4063,20.3438 Q86.1094,20.3438 86.75,20.5 Q87.4063,20.6563 87.9688,20.9531 L87.9688,23.6719 Q87.3438,23.0938 86.75,22.8281 Q86.1563,22.5469 85.5313,22.5469 Q84.1875,22.5469 83.5,23.625 Q82.8125,24.6875 82.8125,26.7813 Q82.8125,28.875 83.5,29.9531 Q84.1875,31.0156 85.5313,31.0156 Q86.1563,31.0156 86.75,30.75 Q87.3438,30.4688 87.9688,29.8906 L87.9688,32.6094 Z "/><text fill="#000000" font-family="sans-serif" font-size="14" lengthAdjust="spacingAndGlyphs" textLength="131" x="106" y="25.9951">MethodDeclaration</text><text fill="#000000" font-family="sans-serif" font-size="10" lengthAdjust="spacingAndGlyphs" textLength="145" x="99" y="38.5791">de.fraunhofer.aisec.cpg.graph</text></a><!--MD5=[65dab51d6ad05d394d1093c9cb1255ff]
reverse link de.fraunhofer.aisec.cpg.graph.MethodDeclaration to de.fraunhofer.aisec.cpg.graph.ConstructorDeclaration--><path d="M158.5,66.22 C158.5,79.3 158.5,93.7 158.5,105.89 " fill="none" id="de.fraunhofer.aisec.cpg.graph.MethodDeclaration&lt;-de.fraunhofer.aisec.cpg.graph.ConstructorDeclaration" style="stroke: #A80036; stroke-width: 1.0;"/><polygon fill="none" points="151.5,66.07,158.5,46.07,165.5,66.07,151.5,66.07" style="stroke: #A80036; stroke-width: 1.0;"/><text fill="#888888" font-family="sans-serif" font-size="10" lengthAdjust="spacingAndGlyphs" textLength="186" x="71.5" y="184.2822">UMLDoclet 2.0.9, PlantUML 1.2020.08</text><!--MD5=[d1ec856ab5ebbf64d75f1f0da45629ee]
@startuml
    set namespaceSeparator none
    hide empty fields
    hide empty methods

    class "<size:14>ConstructorDeclaration\n<size:10>de.fraunhofer.aisec.cpg.graph" as de.fraunhofer.aisec.cpg.graph.ConstructorDeclaration [[ConstructorDeclaration.html]] {
        {static} +from(MethodDeclaration): ConstructorDeclaration
    }

    class "<size:14>MethodDeclaration\n<size:10>de.fraunhofer.aisec.cpg.graph" as de.fraunhofer.aisec.cpg.graph.MethodDeclaration [[MethodDeclaration.html]]

    de.fraunhofer.aisec.cpg.graph.MethodDeclaration <|- - de.fraunhofer.aisec.cpg.graph.ConstructorDeclaration

    center footer UMLDoclet 2.0.9, PlantUML 1.2020.08
@enduml

PlantUML version 1.2020.08(Sun Apr 26 16:08:22 CEST 2020)
(APACHE source distribution)
Java Runtime: OpenJDK Runtime Environment
JVM: OpenJDK 64-Bit Server VM
Java Version: 12.0.2+9-Ubuntu-118.04
Operating System: Linux
Default Encoding: UTF-8
Language: en
Country: US
--></g></svg>