<?xml version="1.0" encoding="UTF-8" standalone="no"?><svg xmlns="http://www.w3.org/2000/svg" xmlns:xlink="http://www.w3.org/1999/xlink" contentScriptType="application/ecmascript" contentStyleType="text/css" height="261px" preserveAspectRatio="none" style="width:488px;height:261px;" version="1.1" viewBox="0 0 488 261" width="488px" zoomAndPan="magnify"><defs><filter height="300%" id="f9ddzhw9x0dr3" width="300%" x="-1" y="-1"><feGaussianBlur result="blurOut" stdDeviation="2.0"/><feColorMatrix in="blurOut" result="blurOut2" type="matrix" values="0 0 0 0 0 0 0 0 0 0 0 0 0 0 0 0 0 0 .4 0"/><feOffset dx="4.0" dy="4.0" in="blurOut2" result="blurOut3"/><feBlend in="SourceGraphic" in2="blurOut3" mode="normal"/></filter></defs><g><!--MD5=[d7781ecdc2356157de3c1ad39e5c051b]
class de.fraunhofer.aisec.cpg.graph.DeclarationStatement--><a href="DeclarationStatement.html" target="_top" title="DeclarationStatement.html" xlink:actuate="onRequest" xlink:href="DeclarationStatement.html" xlink:show="new" xlink:title="DeclarationStatement.html" xlink:type="simple"><rect fill="#FEFECE" filter="url(#f9ddzhw9x0dr3)" height="122.7656" id="de.fraunhofer.aisec.cpg.graph.DeclarationStatement" style="stroke: #A80036; stroke-width: 1.5;" width="471" x="6" y="106"/><ellipse cx="162.25" cy="124.9688" fill="#ADD1B2" rx="11" ry="11" style="stroke: #A80036; stroke-width: 1.0;"/><path d="M165.2188,130.6094 Q164.6406,130.9063 164,131.0469 Q163.3594,131.2031 162.6563,131.2031 Q160.1563,131.2031 158.8281,129.5625 Q157.5156,127.9063 157.5156,124.7813 Q157.5156,121.6563 158.8281,120 Q160.1563,118.3438 162.6563,118.3438 Q163.3594,118.3438 164,118.5 Q164.6563,118.6563 165.2188,118.9531 L165.2188,121.6719 Q164.5938,121.0938 164,120.8281 Q163.4063,120.5469 162.7813,120.5469 Q161.4375,120.5469 160.75,121.625 Q160.0625,122.6875 160.0625,124.7813 Q160.0625,126.875 160.75,127.9531 Q161.4375,129.0156 162.7813,129.0156 Q163.4063,129.0156 164,128.75 Q164.5938,128.4688 165.2188,127.8906 L165.2188,130.6094 Z "/><text fill="#000000" font-family="sans-serif" font-size="14" lengthAdjust="spacingAndGlyphs" textLength="150" x="182.75" y="123.9951">DeclarationStatement</text><text fill="#000000" font-family="sans-serif" font-size="10" lengthAdjust="spacingAndGlyphs" textLength="145" x="185.25" y="136.5791">de.fraunhofer.aisec.cpg.graph</text><line style="stroke: #A80036; stroke-width: 1.5;" x1="7" x2="476" y1="143.9375" y2="143.9375"/><ellipse cx="17" cy="154.9375" fill="#84BE84" rx="3" ry="3" style="stroke: #038048; stroke-width: 1.0;"/><text fill="#000000" font-family="sans-serif" font-size="11" lengthAdjust="spacingAndGlyphs" textLength="197" x="26" y="158.1479">getSingleDeclaration(): Declaration</text><ellipse cx="17" cy="167.7422" fill="#84BE84" rx="3" ry="3" style="stroke: #038048; stroke-width: 1.0;"/><text fill="#000000" font-family="sans-serif" font-size="11" lengthAdjust="spacingAndGlyphs" textLength="170" x="26" y="170.9526">isSingleDeclaration(): boolean</text><ellipse cx="17" cy="180.5469" fill="#84BE84" rx="3" ry="3" style="stroke: #038048; stroke-width: 1.0;"/><text fill="#000000" font-family="sans-serif" font-size="11" lengthAdjust="spacingAndGlyphs" textLength="220" x="26" y="183.7573">setSingleDeclaration(Declaration): void</text><ellipse cx="17" cy="193.3516" fill="#84BE84" rx="3" ry="3" style="stroke: #038048; stroke-width: 1.0;"/><text fill="#000000" font-family="sans-serif" font-size="11" lengthAdjust="spacingAndGlyphs" textLength="445" x="26" y="196.562">getSingleDeclarationAs(Class&lt;T extends Declaration&gt;): T extends Declaration</text><ellipse cx="17" cy="206.1563" fill="#84BE84" rx="3" ry="3" style="stroke: #038048; stroke-width: 1.0;"/><text fill="#000000" font-family="sans-serif" font-size="11" lengthAdjust="spacingAndGlyphs" textLength="207" x="26" y="209.3667">getDeclarations(): List&lt;Declaration&gt;</text><ellipse cx="17" cy="218.9609" fill="#84BE84" rx="3" ry="3" style="stroke: #038048; stroke-width: 1.0;"/><text fill="#000000" font-family="sans-serif" font-size="11" lengthAdjust="spacingAndGlyphs" textLength="230" x="26" y="222.1714">setDeclarations(List&lt;Declaration&gt;): void</text></a><!--MD5=[9566dda5ff1f2bf4890c28c79b7fba98]
class de.fraunhofer.aisec.cpg.graph.Statement--><a href="Statement.html" target="_top" title="Statement.html" xlink:actuate="onRequest" xlink:href="Statement.html" xlink:show="new" xlink:title="Statement.html" xlink:type="simple"><rect fill="#FEFECE" filter="url(#f9ddzhw9x0dr3)" height="37.9375" id="de.fraunhofer.aisec.cpg.graph.Statement" style="stroke: #A80036; stroke-width: 1.5;" width="177" x="153" y="8"/><ellipse cx="168" cy="26.9688" fill="#ADD1B2" rx="11" ry="11" style="stroke: #A80036; stroke-width: 1.0;"/><path d="M170.9688,32.6094 Q170.3906,32.9063 169.75,33.0469 Q169.1094,33.2031 168.4063,33.2031 Q165.9063,33.2031 164.5781,31.5625 Q163.2656,29.9063 163.2656,26.7813 Q163.2656,23.6563 164.5781,22 Q165.9063,20.3438 168.4063,20.3438 Q169.1094,20.3438 169.75,20.5 Q170.4063,20.6563 170.9688,20.9531 L170.9688,23.6719 Q170.3438,23.0938 169.75,22.8281 Q169.1563,22.5469 168.5313,22.5469 Q167.1875,22.5469 166.5,23.625 Q165.8125,24.6875 165.8125,26.7813 Q165.8125,28.875 166.5,29.9531 Q167.1875,31.0156 168.5313,31.0156 Q169.1563,31.0156 169.75,30.75 Q170.3438,30.4688 170.9688,29.8906 L170.9688,32.6094 Z "/><text fill="#000000" font-family="sans-serif" font-size="14" lengthAdjust="spacingAndGlyphs" textLength="72" x="218.5" y="25.9951">Statement</text><text fill="#000000" font-family="sans-serif" font-size="10" lengthAdjust="spacingAndGlyphs" textLength="145" x="182" y="38.5791">de.fraunhofer.aisec.cpg.graph</text></a><!--MD5=[75144523052cd907659d913dcf119cd2]
reverse link de.fraunhofer.aisec.cpg.graph.Statement to de.fraunhofer.aisec.cpg.graph.DeclarationStatement--><path d="M241.5,66.43 C241.5,78.6 241.5,92.36 241.5,105.7 " fill="none" id="de.fraunhofer.aisec.cpg.graph.Statement&lt;-de.fraunhofer.aisec.cpg.graph.DeclarationStatement" style="stroke: #A80036; stroke-width: 1.0;"/><polygon fill="none" points="234.5,66.11,241.5,46.11,248.5,66.11,234.5,66.11" style="stroke: #A80036; stroke-width: 1.0;"/><text fill="#888888" font-family="sans-serif" font-size="10" lengthAdjust="spacingAndGlyphs" textLength="186" x="154.5" y="248.2822">UMLDoclet 2.0.9, PlantUML 1.2020.08</text><!--MD5=[8900783206835e17326572e90e39ee6e]
@startuml
    set namespaceSeparator none
    hide empty fields
    hide empty methods

    class "<size:14>DeclarationStatement\n<size:10>de.fraunhofer.aisec.cpg.graph" as de.fraunhofer.aisec.cpg.graph.DeclarationStatement [[DeclarationStatement.html]] {
        +getSingleDeclaration(): Declaration
        +isSingleDeclaration(): boolean
        +setSingleDeclaration(Declaration): void
        +getSingleDeclarationAs(Class<T extends Declaration>): T extends Declaration
        +getDeclarations(): List<Declaration>
        +setDeclarations(List<Declaration>): void
    }

    class "<size:14>Statement\n<size:10>de.fraunhofer.aisec.cpg.graph" as de.fraunhofer.aisec.cpg.graph.Statement [[Statement.html]]

    de.fraunhofer.aisec.cpg.graph.Statement <|- - de.fraunhofer.aisec.cpg.graph.DeclarationStatement

    center footer UMLDoclet 2.0.9, PlantUML 1.2020.08
@enduml

PlantUML version 1.2020.08(Sun Apr 26 16:08:22 CEST 2020)
(APACHE source distribution)
Java Runtime: OpenJDK Runtime Environment
JVM: OpenJDK 64-Bit Server VM
Java Version: 12.0.2+9-Ubuntu-118.04
Operating System: Linux
Default Encoding: UTF-8
Language: en
Country: US
--></g></svg>