<?xml version="1.0" encoding="UTF-8" standalone="no"?><svg xmlns="http://www.w3.org/2000/svg" xmlns:xlink="http://www.w3.org/1999/xlink" contentScriptType="application/ecmascript" contentStyleType="text/css" height="308px" preserveAspectRatio="none" style="width:624px;height:308px;" version="1.1" viewBox="0 0 624 308" width="624px" zoomAndPan="magnify"><defs><filter height="300%" id="f1dw3svkl064cr" width="300%" x="-1" y="-1"><feGaussianBlur result="blurOut" stdDeviation="2.0"/><feColorMatrix in="blurOut" result="blurOut2" type="matrix" values="0 0 0 0 0 0 0 0 0 0 0 0 0 0 0 0 0 0 .4 0"/><feOffset dx="4.0" dy="4.0" in="blurOut2" result="blurOut3"/><feBlend in="SourceGraphic" in2="blurOut3" mode="normal"/></filter></defs><g><!--MD5=[dd4bfe91ad9208a59e8b2e1aff861382]
class de.fraunhofer.aisec.cpg.graph.DeclaredReferenceExpression--><a href="DeclaredReferenceExpression.html" target="_top" title="DeclaredReferenceExpression.html" xlink:actuate="onRequest" xlink:href="DeclaredReferenceExpression.html" xlink:show="new" xlink:title="DeclaredReferenceExpression.html" xlink:type="simple"><rect fill="#FEFECE" filter="url(#f1dw3svkl064cr)" height="135.5703" id="de.fraunhofer.aisec.cpg.graph.DeclaredReferenceExpression" style="stroke: #A80036; stroke-width: 1.5;" width="397" x="56" y="140"/><ellipse cx="145.25" cy="158.9688" fill="#ADD1B2" rx="11" ry="11" style="stroke: #A80036; stroke-width: 1.0;"/><path d="M148.2188,164.6094 Q147.6406,164.9063 147,165.0469 Q146.3594,165.2031 145.6563,165.2031 Q143.1563,165.2031 141.8281,163.5625 Q140.5156,161.9063 140.5156,158.7813 Q140.5156,155.6563 141.8281,154 Q143.1563,152.3438 145.6563,152.3438 Q146.3594,152.3438 147,152.5 Q147.6563,152.6563 148.2188,152.9531 L148.2188,155.6719 Q147.5938,155.0938 147,154.8281 Q146.4063,154.5469 145.7813,154.5469 Q144.4375,154.5469 143.75,155.625 Q143.0625,156.6875 143.0625,158.7813 Q143.0625,160.875 143.75,161.9531 Q144.4375,163.0156 145.7813,163.0156 Q146.4063,163.0156 147,162.75 Q147.5938,162.4688 148.2188,161.8906 L148.2188,164.6094 Z "/><text fill="#000000" font-family="sans-serif" font-size="14" lengthAdjust="spacingAndGlyphs" textLength="210" x="165.75" y="157.9951">DeclaredReferenceExpression</text><text fill="#000000" font-family="sans-serif" font-size="10" lengthAdjust="spacingAndGlyphs" textLength="145" x="198.25" y="170.5791">de.fraunhofer.aisec.cpg.graph</text><line style="stroke: #A80036; stroke-width: 1.5;" x1="57" x2="452" y1="177.9375" y2="177.9375"/><ellipse cx="67" cy="188.9375" fill="#84BE84" rx="3" ry="3" style="stroke: #038048; stroke-width: 1.0;"/><text fill="#000000" font-family="sans-serif" font-size="11" lengthAdjust="spacingAndGlyphs" textLength="217" x="76" y="192.1479">getRefersTo(): Set&lt;ValueDeclaration&gt;</text><ellipse cx="67" cy="201.7422" fill="#84BE84" rx="3" ry="3" style="stroke: #038048; stroke-width: 1.0;"/><text fill="#000000" font-family="sans-serif" font-size="11" lengthAdjust="spacingAndGlyphs" textLength="203" x="76" y="204.9526">setRefersTo(ValueDeclaration): void</text><ellipse cx="67" cy="214.5469" fill="#84BE84" rx="3" ry="3" style="stroke: #038048; stroke-width: 1.0;"/><text fill="#000000" font-family="sans-serif" font-size="11" lengthAdjust="spacingAndGlyphs" textLength="240" x="76" y="217.7573">setRefersTo(Set&lt;ValueDeclaration&gt;): void</text><ellipse cx="67" cy="227.3516" fill="#84BE84" rx="3" ry="3" style="stroke: #038048; stroke-width: 1.0;"/><text fill="#000000" font-family="sans-serif" font-size="11" lengthAdjust="spacingAndGlyphs" textLength="254" x="76" y="230.562">typeChanged(HasType, HasType, Type): void</text><ellipse cx="67" cy="240.1563" fill="#84BE84" rx="3" ry="3" style="stroke: #038048; stroke-width: 1.0;"/><text fill="#000000" font-family="sans-serif" font-size="11" lengthAdjust="spacingAndGlyphs" textLength="371" x="76" y="243.3667">possibleSubTypesChanged(HasType, HasType, Set&lt;Type&gt;): void</text><ellipse cx="67" cy="252.9609" fill="#84BE84" rx="3" ry="3" style="stroke: #038048; stroke-width: 1.0;"/><text fill="#000000" font-family="sans-serif" font-size="11" lengthAdjust="spacingAndGlyphs" textLength="180" x="76" y="256.1714">setWritingAccess(boolean): void</text><ellipse cx="67" cy="265.7656" fill="#84BE84" rx="3" ry="3" style="stroke: #038048; stroke-width: 1.0;"/><text fill="#000000" font-family="sans-serif" font-size="11" lengthAdjust="spacingAndGlyphs" textLength="149" x="76" y="268.9761">isWritingAccess(): boolean</text></a><!--MD5=[f602dd8d46e7ba17465d0a1e20507055]
class de.fraunhofer.aisec.cpg.graph.Expression--><a href="Expression.html" target="_top" title="Expression.html" xlink:actuate="onRequest" xlink:href="Expression.html" xlink:show="new" xlink:title="Expression.html" xlink:type="simple"><rect fill="#FEFECE" filter="url(#f1dw3svkl064cr)" height="37.9375" id="de.fraunhofer.aisec.cpg.graph.Expression" style="stroke: #A80036; stroke-width: 1.5;" width="177" x="6" y="25"/><ellipse cx="21" cy="43.9688" fill="#ADD1B2" rx="11" ry="11" style="stroke: #A80036; stroke-width: 1.0;"/><path d="M23.9688,49.6094 Q23.3906,49.9063 22.75,50.0469 Q22.1094,50.2031 21.4063,50.2031 Q18.9063,50.2031 17.5781,48.5625 Q16.2656,46.9063 16.2656,43.7813 Q16.2656,40.6563 17.5781,39 Q18.9063,37.3438 21.4063,37.3438 Q22.1094,37.3438 22.75,37.5 Q23.4063,37.6563 23.9688,37.9531 L23.9688,40.6719 Q23.3438,40.0938 22.75,39.8281 Q22.1563,39.5469 21.5313,39.5469 Q20.1875,39.5469 19.5,40.625 Q18.8125,41.6875 18.8125,43.7813 Q18.8125,45.875 19.5,46.9531 Q20.1875,48.0156 21.5313,48.0156 Q22.1563,48.0156 22.75,47.75 Q23.3438,47.4688 23.9688,46.8906 L23.9688,49.6094 Z "/><text fill="#000000" font-family="sans-serif" font-size="14" lengthAdjust="spacingAndGlyphs" textLength="76" x="69.5" y="42.9951">Expression</text><text fill="#000000" font-family="sans-serif" font-size="10" lengthAdjust="spacingAndGlyphs" textLength="145" x="35" y="55.5791">de.fraunhofer.aisec.cpg.graph</text></a><!--MD5=[4ec8a2121f068e962618cb9a044486ac]
class de.fraunhofer.aisec.cpg.graph.HasType.TypeListener--><a href="HasType.TypeListener.html" target="_top" title="HasType.TypeListener.html" xlink:actuate="onRequest" xlink:href="HasType.TypeListener.html" xlink:show="new" xlink:title="HasType.TypeListener.html" xlink:type="simple"><rect fill="#FEFECE" filter="url(#f1dw3svkl064cr)" height="71.5469" id="de.fraunhofer.aisec.cpg.graph.HasType.TypeListener" style="stroke: #A80036; stroke-width: 1.5;" width="395" x="218" y="8"/><ellipse cx="333.75" cy="26.9688" fill="#B4A7E5" rx="11" ry="11" style="stroke: #A80036; stroke-width: 1.0;"/><path d="M329.6719,22.7344 L329.6719,20.5781 L337.0625,20.5781 L337.0625,22.7344 L334.5938,22.7344 L334.5938,30.8125 L337.0625,30.8125 L337.0625,32.9688 L329.6719,32.9688 L329.6719,30.8125 L332.1406,30.8125 L332.1406,22.7344 L329.6719,22.7344 Z "/><text fill="#000000" font-family="sans-serif" font-size="14" font-style="italic" lengthAdjust="spacingAndGlyphs" textLength="155" x="354.25" y="25.9951">HasType.TypeListener</text><text fill="#000000" font-family="sans-serif" font-size="10" font-style="italic" lengthAdjust="spacingAndGlyphs" textLength="148" x="357.75" y="38.5791">de.fraunhofer.aisec.cpg.graph</text><line style="stroke: #A80036; stroke-width: 1.5;" x1="219" x2="612" y1="45.9375" y2="45.9375"/><ellipse cx="229" cy="56.9375" fill="#84BE84" rx="3" ry="3" style="stroke: #038048; stroke-width: 1.0;"/><text fill="#000000" font-family="sans-serif" font-size="11" font-style="italic" lengthAdjust="spacingAndGlyphs" textLength="257" x="238" y="60.1479">typeChanged(HasType, HasType, Type): void</text><ellipse cx="229" cy="69.7422" fill="#84BE84" rx="3" ry="3" style="stroke: #038048; stroke-width: 1.0;"/><text fill="#000000" font-family="sans-serif" font-size="11" font-style="italic" lengthAdjust="spacingAndGlyphs" textLength="369" x="238" y="72.9526">possibleSubTypesChanged(HasType, HasType, Set&lt;Type&gt;): void</text></a><!--MD5=[bffbf3433b9902c62fc32cae91f15838]
reverse link de.fraunhofer.aisec.cpg.graph.Expression to de.fraunhofer.aisec.cpg.graph.DeclaredReferenceExpression--><path d="M126.62,77.52 C144.25,95.37 166.79,118.2 188.03,139.69 " fill="none" id="de.fraunhofer.aisec.cpg.graph.Expression&lt;-de.fraunhofer.aisec.cpg.graph.DeclaredReferenceExpression" style="stroke: #A80036; stroke-width: 1.0;"/><polygon fill="none" points="121.62,82.42,112.54,63.27,131.58,72.58,121.62,82.42" style="stroke: #A80036; stroke-width: 1.0;"/><!--MD5=[8fc0f0f02d056242eae8e3ea62938283]
reverse link de.fraunhofer.aisec.cpg.graph.HasType.TypeListener to de.fraunhofer.aisec.cpg.graph.DeclaredReferenceExpression--><path d="M366.37,94.44 C352.11,108.78 336.31,124.69 321.17,139.92 " fill="none" id="de.fraunhofer.aisec.cpg.graph.HasType.TypeListener&lt;-de.fraunhofer.aisec.cpg.graph.DeclaredReferenceExpression" style="stroke: #A80036; stroke-width: 1.0; stroke-dasharray: 7.0,7.0;"/><polygon fill="none" points="361.5,89.4,380.57,80.15,371.43,99.27,361.5,89.4" style="stroke: #A80036; stroke-width: 1.0;"/><text fill="#888888" font-family="sans-serif" font-size="10" lengthAdjust="spacingAndGlyphs" textLength="186" x="222.5" y="295.2822">UMLDoclet 2.0.9, PlantUML 1.2020.08</text><!--MD5=[7ff969ba7c87b77f10f9fb605a3f5dad]
@startuml
    set namespaceSeparator none
    hide empty fields
    hide empty methods

    class "<size:14>DeclaredReferenceExpression\n<size:10>de.fraunhofer.aisec.cpg.graph" as de.fraunhofer.aisec.cpg.graph.DeclaredReferenceExpression [[DeclaredReferenceExpression.html]] {
        +getRefersTo(): Set<ValueDeclaration>
        +setRefersTo(ValueDeclaration): void
        +setRefersTo(Set<ValueDeclaration>): void
        +typeChanged(HasType, HasType, Type): void
        +possibleSubTypesChanged(HasType, HasType, Set<Type>): void
        +setWritingAccess(boolean): void
        +isWritingAccess(): boolean
    }

    class "<size:14>Expression\n<size:10>de.fraunhofer.aisec.cpg.graph" as de.fraunhofer.aisec.cpg.graph.Expression [[Expression.html]]
    interface "<size:14>HasType.TypeListener\n<size:10>de.fraunhofer.aisec.cpg.graph" as de.fraunhofer.aisec.cpg.graph.HasType.TypeListener [[HasType.TypeListener.html]] {
        {abstract} +typeChanged(HasType, HasType, Type): void
        {abstract} +possibleSubTypesChanged(HasType, HasType, Set<Type>): void
    }

    de.fraunhofer.aisec.cpg.graph.Expression <|- - de.fraunhofer.aisec.cpg.graph.DeclaredReferenceExpression
    de.fraunhofer.aisec.cpg.graph.HasType.TypeListener <|.. de.fraunhofer.aisec.cpg.graph.DeclaredReferenceExpression

    center footer UMLDoclet 2.0.9, PlantUML 1.2020.08
@enduml

PlantUML version 1.2020.08(Sun Apr 26 16:08:22 CEST 2020)
(APACHE source distribution)
Java Runtime: OpenJDK Runtime Environment
JVM: OpenJDK 64-Bit Server VM
Java Version: 12.0.2+9-Ubuntu-118.04
Operating System: Linux
Default Encoding: UTF-8
Language: en
Country: US
--></g></svg>