<?xml version="1.0" encoding="UTF-8" standalone="no"?><svg xmlns="http://www.w3.org/2000/svg" xmlns:xlink="http://www.w3.org/1999/xlink" contentScriptType="application/ecmascript" contentStyleType="text/css" height="210px" preserveAspectRatio="none" style="width:214px;height:210px;" version="1.1" viewBox="0 0 214 210" width="214px" zoomAndPan="magnify"><defs><filter height="300%" id="f97ovap57puw7" width="300%" x="-1" y="-1"><feGaussianBlur result="blurOut" stdDeviation="2.0"/><feColorMatrix in="blurOut" result="blurOut2" type="matrix" values="0 0 0 0 0 0 0 0 0 0 0 0 0 0 0 0 0 0 .4 0"/><feOffset dx="4.0" dy="4.0" in="blurOut2" result="blurOut3"/><feBlend in="SourceGraphic" in2="blurOut3" mode="normal"/></filter></defs><g><!--MD5=[60d4df5ed4325a02a90f626d0d3c6377]
class de.fraunhofer.aisec.cpg.graph.DeleteExpression--><a href="DeleteExpression.html" target="_top" title="DeleteExpression.html" xlink:actuate="onRequest" xlink:href="DeleteExpression.html" xlink:show="new" xlink:title="DeleteExpression.html" xlink:type="simple"><rect fill="#FEFECE" filter="url(#f97ovap57puw7)" height="71.5469" id="de.fraunhofer.aisec.cpg.graph.DeleteExpression" style="stroke: #A80036; stroke-width: 1.5;" width="195" x="6" y="106"/><ellipse cx="29.1" cy="124.9688" fill="#ADD1B2" rx="11" ry="11" style="stroke: #A80036; stroke-width: 1.0;"/><path d="M32.0688,130.6094 Q31.4906,130.9063 30.85,131.0469 Q30.2094,131.2031 29.5063,131.2031 Q27.0063,131.2031 25.6781,129.5625 Q24.3656,127.9063 24.3656,124.7813 Q24.3656,121.6563 25.6781,120 Q27.0063,118.3438 29.5063,118.3438 Q30.2094,118.3438 30.85,118.5 Q31.5063,118.6563 32.0688,118.9531 L32.0688,121.6719 Q31.4438,121.0938 30.85,120.8281 Q30.2563,120.5469 29.6313,120.5469 Q28.2875,120.5469 27.6,121.625 Q26.9125,122.6875 26.9125,124.7813 Q26.9125,126.875 27.6,127.9531 Q28.2875,129.0156 29.6313,129.0156 Q30.2563,129.0156 30.85,128.75 Q31.4438,128.4688 32.0688,127.8906 L32.0688,130.6094 Z "/><text fill="#000000" font-family="sans-serif" font-size="14" lengthAdjust="spacingAndGlyphs" textLength="122" x="56.4" y="123.9951">DeleteExpression</text><text fill="#000000" font-family="sans-serif" font-size="10" lengthAdjust="spacingAndGlyphs" textLength="145" x="44.9" y="136.5791">de.fraunhofer.aisec.cpg.graph</text><line style="stroke: #A80036; stroke-width: 1.5;" x1="7" x2="200" y1="143.9375" y2="143.9375"/><ellipse cx="17" cy="154.9375" fill="#84BE84" rx="3" ry="3" style="stroke: #038048; stroke-width: 1.0;"/><text fill="#000000" font-family="sans-serif" font-size="11" lengthAdjust="spacingAndGlyphs" textLength="146" x="26" y="158.1479">getOperand(): Expression</text><ellipse cx="17" cy="167.7422" fill="#84BE84" rx="3" ry="3" style="stroke: #038048; stroke-width: 1.0;"/><text fill="#000000" font-family="sans-serif" font-size="11" lengthAdjust="spacingAndGlyphs" textLength="169" x="26" y="170.9526">setOperand(Expression): void</text></a><!--MD5=[f602dd8d46e7ba17465d0a1e20507055]
class de.fraunhofer.aisec.cpg.graph.Expression--><a href="Expression.html" target="_top" title="Expression.html" xlink:actuate="onRequest" xlink:href="Expression.html" xlink:show="new" xlink:title="Expression.html" xlink:type="simple"><rect fill="#FEFECE" filter="url(#f97ovap57puw7)" height="37.9375" id="de.fraunhofer.aisec.cpg.graph.Expression" style="stroke: #A80036; stroke-width: 1.5;" width="177" x="15" y="8"/><ellipse cx="30" cy="26.9688" fill="#ADD1B2" rx="11" ry="11" style="stroke: #A80036; stroke-width: 1.0;"/><path d="M32.9688,32.6094 Q32.3906,32.9063 31.75,33.0469 Q31.1094,33.2031 30.4063,33.2031 Q27.9063,33.2031 26.5781,31.5625 Q25.2656,29.9063 25.2656,26.7813 Q25.2656,23.6563 26.5781,22 Q27.9063,20.3438 30.4063,20.3438 Q31.1094,20.3438 31.75,20.5 Q32.4063,20.6563 32.9688,20.9531 L32.9688,23.6719 Q32.3438,23.0938 31.75,22.8281 Q31.1563,22.5469 30.5313,22.5469 Q29.1875,22.5469 28.5,23.625 Q27.8125,24.6875 27.8125,26.7813 Q27.8125,28.875 28.5,29.9531 Q29.1875,31.0156 30.5313,31.0156 Q31.1563,31.0156 31.75,30.75 Q32.3438,30.4688 32.9688,29.8906 L32.9688,32.6094 Z "/><text fill="#000000" font-family="sans-serif" font-size="14" lengthAdjust="spacingAndGlyphs" textLength="76" x="78.5" y="25.9951">Expression</text><text fill="#000000" font-family="sans-serif" font-size="10" lengthAdjust="spacingAndGlyphs" textLength="145" x="44" y="38.5791">de.fraunhofer.aisec.cpg.graph</text></a><!--MD5=[3d2332ebe03dd9f5f060175cffa06d0e]
reverse link de.fraunhofer.aisec.cpg.graph.Expression to de.fraunhofer.aisec.cpg.graph.DeleteExpression--><path d="M103.5,66.3 C103.5,79 103.5,93.08 103.5,105.56 " fill="none" id="de.fraunhofer.aisec.cpg.graph.Expression&lt;-de.fraunhofer.aisec.cpg.graph.DeleteExpression" style="stroke: #A80036; stroke-width: 1.0;"/><polygon fill="none" points="96.5,66.16,103.5,46.16,110.5,66.16,96.5,66.16" style="stroke: #A80036; stroke-width: 1.0;"/><text fill="#888888" font-family="sans-serif" font-size="10" lengthAdjust="spacingAndGlyphs" textLength="186" x="16.5" y="197.2822">UMLDoclet 2.0.9, PlantUML 1.2020.08</text><!--MD5=[24b7bc0cb22c0ebab188ad8faedd7050]
@startuml
    set namespaceSeparator none
    hide empty fields
    hide empty methods

    class "<size:14>DeleteExpression\n<size:10>de.fraunhofer.aisec.cpg.graph" as de.fraunhofer.aisec.cpg.graph.DeleteExpression [[DeleteExpression.html]] {
        +getOperand(): Expression
        +setOperand(Expression): void
    }

    class "<size:14>Expression\n<size:10>de.fraunhofer.aisec.cpg.graph" as de.fraunhofer.aisec.cpg.graph.Expression [[Expression.html]]

    de.fraunhofer.aisec.cpg.graph.Expression <|- - de.fraunhofer.aisec.cpg.graph.DeleteExpression

    center footer UMLDoclet 2.0.9, PlantUML 1.2020.08
@enduml

PlantUML version 1.2020.08(Sun Apr 26 16:08:22 CEST 2020)
(APACHE source distribution)
Java Runtime: OpenJDK Runtime Environment
JVM: OpenJDK 64-Bit Server VM
Java Version: 12.0.2+9-Ubuntu-118.04
Operating System: Linux
Default Encoding: UTF-8
Language: en
Country: US
--></g></svg>