<?xml version="1.0" encoding="UTF-8" standalone="no"?><svg xmlns="http://www.w3.org/2000/svg" xmlns:xlink="http://www.w3.org/1999/xlink" contentScriptType="application/ecmascript" contentStyleType="text/css" height="235px" preserveAspectRatio="none" style="width:264px;height:235px;" version="1.1" viewBox="0 0 264 235" width="264px" zoomAndPan="magnify"><defs><filter height="300%" id="fq68e596032ql" width="300%" x="-1" y="-1"><feGaussianBlur result="blurOut" stdDeviation="2.0"/><feColorMatrix in="blurOut" result="blurOut2" type="matrix" values="0 0 0 0 0 0 0 0 0 0 0 0 0 0 0 0 0 0 .4 0"/><feOffset dx="4.0" dy="4.0" in="blurOut2" result="blurOut3"/><feBlend in="SourceGraphic" in2="blurOut3" mode="normal"/></filter></defs><g><!--MD5=[ad339bdac8a462608fa1a34811b6a56f]
class de.fraunhofer.aisec.cpg.graph.DesignatedInitializerExpression--><a href="DesignatedInitializerExpression.html" target="_top" title="DesignatedInitializerExpression.html" xlink:actuate="onRequest" xlink:href="DesignatedInitializerExpression.html" xlink:show="new" xlink:title="DesignatedInitializerExpression.html" xlink:type="simple"><rect fill="#FEFECE" filter="url(#fq68e596032ql)" height="97.1563" id="de.fraunhofer.aisec.cpg.graph.DesignatedInitializerExpression" style="stroke: #A80036; stroke-width: 1.5;" width="247" x="6" y="106"/><ellipse cx="21" cy="124.9688" fill="#ADD1B2" rx="11" ry="11" style="stroke: #A80036; stroke-width: 1.0;"/><path d="M23.9688,130.6094 Q23.3906,130.9063 22.75,131.0469 Q22.1094,131.2031 21.4063,131.2031 Q18.9063,131.2031 17.5781,129.5625 Q16.2656,127.9063 16.2656,124.7813 Q16.2656,121.6563 17.5781,120 Q18.9063,118.3438 21.4063,118.3438 Q22.1094,118.3438 22.75,118.5 Q23.4063,118.6563 23.9688,118.9531 L23.9688,121.6719 Q23.3438,121.0938 22.75,120.8281 Q22.1563,120.5469 21.5313,120.5469 Q20.1875,120.5469 19.5,121.625 Q18.8125,122.6875 18.8125,124.7813 Q18.8125,126.875 19.5,127.9531 Q20.1875,129.0156 21.5313,129.0156 Q22.1563,129.0156 22.75,128.75 Q23.3438,128.4688 23.9688,127.8906 L23.9688,130.6094 Z "/><text fill="#000000" font-family="sans-serif" font-size="14" lengthAdjust="spacingAndGlyphs" textLength="215" x="35" y="123.9951">DesignatedInitializerExpression</text><text fill="#000000" font-family="sans-serif" font-size="10" lengthAdjust="spacingAndGlyphs" textLength="145" x="70" y="136.5791">de.fraunhofer.aisec.cpg.graph</text><line style="stroke: #A80036; stroke-width: 1.5;" x1="7" x2="252" y1="143.9375" y2="143.9375"/><ellipse cx="17" cy="154.9375" fill="#84BE84" rx="3" ry="3" style="stroke: #038048; stroke-width: 1.0;"/><text fill="#000000" font-family="sans-serif" font-size="11" lengthAdjust="spacingAndGlyphs" textLength="118" x="26" y="158.1479">getRhs(): Expression</text><ellipse cx="17" cy="167.7422" fill="#84BE84" rx="3" ry="3" style="stroke: #038048; stroke-width: 1.0;"/><text fill="#000000" font-family="sans-serif" font-size="11" lengthAdjust="spacingAndGlyphs" textLength="141" x="26" y="170.9526">setRhs(Expression): void</text><ellipse cx="17" cy="180.5469" fill="#84BE84" rx="3" ry="3" style="stroke: #038048; stroke-width: 1.0;"/><text fill="#000000" font-family="sans-serif" font-size="11" lengthAdjust="spacingAndGlyphs" textLength="155" x="26" y="183.7573">getLhs(): List&lt;Expression&gt;</text><ellipse cx="17" cy="193.3516" fill="#84BE84" rx="3" ry="3" style="stroke: #038048; stroke-width: 1.0;"/><text fill="#000000" font-family="sans-serif" font-size="11" lengthAdjust="spacingAndGlyphs" textLength="178" x="26" y="196.562">setLhs(List&lt;Expression&gt;): void</text></a><!--MD5=[f602dd8d46e7ba17465d0a1e20507055]
class de.fraunhofer.aisec.cpg.graph.Expression--><a href="Expression.html" target="_top" title="Expression.html" xlink:actuate="onRequest" xlink:href="Expression.html" xlink:show="new" xlink:title="Expression.html" xlink:type="simple"><rect fill="#FEFECE" filter="url(#fq68e596032ql)" height="37.9375" id="de.fraunhofer.aisec.cpg.graph.Expression" style="stroke: #A80036; stroke-width: 1.5;" width="177" x="41" y="8"/><ellipse cx="56" cy="26.9688" fill="#ADD1B2" rx="11" ry="11" style="stroke: #A80036; stroke-width: 1.0;"/><path d="M58.9688,32.6094 Q58.3906,32.9063 57.75,33.0469 Q57.1094,33.2031 56.4063,33.2031 Q53.9063,33.2031 52.5781,31.5625 Q51.2656,29.9063 51.2656,26.7813 Q51.2656,23.6563 52.5781,22 Q53.9063,20.3438 56.4063,20.3438 Q57.1094,20.3438 57.75,20.5 Q58.4063,20.6563 58.9688,20.9531 L58.9688,23.6719 Q58.3438,23.0938 57.75,22.8281 Q57.1563,22.5469 56.5313,22.5469 Q55.1875,22.5469 54.5,23.625 Q53.8125,24.6875 53.8125,26.7813 Q53.8125,28.875 54.5,29.9531 Q55.1875,31.0156 56.5313,31.0156 Q57.1563,31.0156 57.75,30.75 Q58.3438,30.4688 58.9688,29.8906 L58.9688,32.6094 Z "/><text fill="#000000" font-family="sans-serif" font-size="14" lengthAdjust="spacingAndGlyphs" textLength="76" x="104.5" y="25.9951">Expression</text><text fill="#000000" font-family="sans-serif" font-size="10" lengthAdjust="spacingAndGlyphs" textLength="145" x="70" y="38.5791">de.fraunhofer.aisec.cpg.graph</text></a><!--MD5=[e047ecbd93e9b66984201224f197e0f7]
reverse link de.fraunhofer.aisec.cpg.graph.Expression to de.fraunhofer.aisec.cpg.graph.DesignatedInitializerExpression--><path d="M129.5,66.52 C129.5,78.97 129.5,92.93 129.5,105.96 " fill="none" id="de.fraunhofer.aisec.cpg.graph.Expression&lt;-de.fraunhofer.aisec.cpg.graph.DesignatedInitializerExpression" style="stroke: #A80036; stroke-width: 1.0;"/><polygon fill="none" points="122.5,66.25,129.5,46.25,136.5,66.25,122.5,66.25" style="stroke: #A80036; stroke-width: 1.0;"/><text fill="#888888" font-family="sans-serif" font-size="10" lengthAdjust="spacingAndGlyphs" textLength="186" x="42.5" y="222.2822">UMLDoclet 2.0.9, PlantUML 1.2020.08</text><!--MD5=[a271cc2c0440fe6e7ee75f06dfe34a66]
@startuml
    set namespaceSeparator none
    hide empty fields
    hide empty methods

    class "<size:14>DesignatedInitializerExpression\n<size:10>de.fraunhofer.aisec.cpg.graph" as de.fraunhofer.aisec.cpg.graph.DesignatedInitializerExpression [[DesignatedInitializerExpression.html]] {
        +getRhs(): Expression
        +setRhs(Expression): void
        +getLhs(): List<Expression>
        +setLhs(List<Expression>): void
    }

    class "<size:14>Expression\n<size:10>de.fraunhofer.aisec.cpg.graph" as de.fraunhofer.aisec.cpg.graph.Expression [[Expression.html]]

    de.fraunhofer.aisec.cpg.graph.Expression <|- - de.fraunhofer.aisec.cpg.graph.DesignatedInitializerExpression

    center footer UMLDoclet 2.0.9, PlantUML 1.2020.08
@enduml

PlantUML version 1.2020.08(Sun Apr 26 16:08:22 CEST 2020)
(APACHE source distribution)
Java Runtime: OpenJDK Runtime Environment
JVM: OpenJDK 64-Bit Server VM
Java Version: 12.0.2+9-Ubuntu-118.04
Operating System: Linux
Default Encoding: UTF-8
Language: en
Country: US
--></g></svg>