<?xml version="1.0" encoding="UTF-8" standalone="no"?><svg xmlns="http://www.w3.org/2000/svg" xmlns:xlink="http://www.w3.org/1999/xlink" contentScriptType="application/ecmascript" contentStyleType="text/css" height="176px" preserveAspectRatio="none" style="width:230px;height:176px;" version="1.1" viewBox="0 0 230 176" width="230px" zoomAndPan="magnify"><defs><filter height="300%" id="fbqs2ygbzl1ia" width="300%" x="-1" y="-1"><feGaussianBlur result="blurOut" stdDeviation="2.0"/><feColorMatrix in="blurOut" result="blurOut2" type="matrix" values="0 0 0 0 0 0 0 0 0 0 0 0 0 0 0 0 0 0 .4 0"/><feOffset dx="4.0" dy="4.0" in="blurOut2" result="blurOut3"/><feBlend in="SourceGraphic" in2="blurOut3" mode="normal"/></filter></defs><g><!--MD5=[64b2727a86389a2fb2ebda358bb43e33]
class de.fraunhofer.aisec.cpg.graph.EnumConstantDeclaration--><a href="EnumConstantDeclaration.html" target="_top" title="EnumConstantDeclaration.html" xlink:actuate="onRequest" xlink:href="EnumConstantDeclaration.html" xlink:show="new" xlink:title="EnumConstantDeclaration.html" xlink:type="simple"><rect fill="#FEFECE" filter="url(#fbqs2ygbzl1ia)" height="37.9375" id="de.fraunhofer.aisec.cpg.graph.EnumConstantDeclaration" style="stroke: #A80036; stroke-width: 1.5;" width="213" x="6" y="106"/><ellipse cx="21" cy="124.9688" fill="#ADD1B2" rx="11" ry="11" style="stroke: #A80036; stroke-width: 1.0;"/><path d="M23.9688,130.6094 Q23.3906,130.9063 22.75,131.0469 Q22.1094,131.2031 21.4063,131.2031 Q18.9063,131.2031 17.5781,129.5625 Q16.2656,127.9063 16.2656,124.7813 Q16.2656,121.6563 17.5781,120 Q18.9063,118.3438 21.4063,118.3438 Q22.1094,118.3438 22.75,118.5 Q23.4063,118.6563 23.9688,118.9531 L23.9688,121.6719 Q23.3438,121.0938 22.75,120.8281 Q22.1563,120.5469 21.5313,120.5469 Q20.1875,120.5469 19.5,121.625 Q18.8125,122.6875 18.8125,124.7813 Q18.8125,126.875 19.5,127.9531 Q20.1875,129.0156 21.5313,129.0156 Q22.1563,129.0156 22.75,128.75 Q23.3438,128.4688 23.9688,127.8906 L23.9688,130.6094 Z "/><text fill="#000000" font-family="sans-serif" font-size="14" lengthAdjust="spacingAndGlyphs" textLength="181" x="35" y="123.9951">EnumConstantDeclaration</text><text fill="#000000" font-family="sans-serif" font-size="10" lengthAdjust="spacingAndGlyphs" textLength="145" x="53" y="136.5791">de.fraunhofer.aisec.cpg.graph</text></a><!--MD5=[eda0c6d898d1f7ae46e3e1961061b4af]
class de.fraunhofer.aisec.cpg.graph.ValueDeclaration--><a href="ValueDeclaration.html" target="_top" title="ValueDeclaration.html" xlink:actuate="onRequest" xlink:href="ValueDeclaration.html" xlink:show="new" xlink:title="ValueDeclaration.html" xlink:type="simple"><rect fill="#FEFECE" filter="url(#fbqs2ygbzl1ia)" height="37.9375" id="de.fraunhofer.aisec.cpg.graph.ValueDeclaration" style="stroke: #A80036; stroke-width: 1.5;" width="180" x="22.5" y="8"/><ellipse cx="37.5" cy="26.9688" fill="#A9DCDF" rx="11" ry="11" style="stroke: #A80036; stroke-width: 1.0;"/><path d="M37.6094,22.3125 L36.4531,27.3906 L38.7813,27.3906 L37.6094,22.3125 Z M36.125,20.0781 L39.1094,20.0781 L42.4688,32.4688 L40.0156,32.4688 L39.25,29.4063 L35.9688,29.4063 L35.2188,32.4688 L32.7813,32.4688 L36.125,20.0781 Z "/><text fill="#000000" font-family="sans-serif" font-size="14" font-style="italic" lengthAdjust="spacingAndGlyphs" textLength="117" x="67" y="25.9951">ValueDeclaration</text><text fill="#000000" font-family="sans-serif" font-size="10" font-style="italic" lengthAdjust="spacingAndGlyphs" textLength="148" x="51.5" y="38.5791">de.fraunhofer.aisec.cpg.graph</text></a><!--MD5=[3864df720d3aa910fc595b64ab8052a3]
reverse link de.fraunhofer.aisec.cpg.graph.ValueDeclaration to de.fraunhofer.aisec.cpg.graph.EnumConstantDeclaration--><path d="M112.5,66.43 C112.5,79.98 112.5,94.59 112.5,105.7 " fill="none" id="de.fraunhofer.aisec.cpg.graph.ValueDeclaration&lt;-de.fraunhofer.aisec.cpg.graph.EnumConstantDeclaration" style="stroke: #A80036; stroke-width: 1.0;"/><polygon fill="none" points="105.5,66.06,112.5,46.06,119.5,66.06,105.5,66.06" style="stroke: #A80036; stroke-width: 1.0;"/><text fill="#888888" font-family="sans-serif" font-size="10" lengthAdjust="spacingAndGlyphs" textLength="186" x="25.5" y="163.2822">UMLDoclet 2.0.9, PlantUML 1.2020.08</text><!--MD5=[b30a319387941e56f3a1f97d89329c04]
@startuml
    set namespaceSeparator none
    hide empty fields
    hide empty methods

    class "<size:14>EnumConstantDeclaration\n<size:10>de.fraunhofer.aisec.cpg.graph" as de.fraunhofer.aisec.cpg.graph.EnumConstantDeclaration [[EnumConstantDeclaration.html]]

    abstract class "<size:14>ValueDeclaration\n<size:10>de.fraunhofer.aisec.cpg.graph" as de.fraunhofer.aisec.cpg.graph.ValueDeclaration [[ValueDeclaration.html]]

    de.fraunhofer.aisec.cpg.graph.ValueDeclaration <|- - de.fraunhofer.aisec.cpg.graph.EnumConstantDeclaration

    center footer UMLDoclet 2.0.9, PlantUML 1.2020.08
@enduml

PlantUML version 1.2020.08(Sun Apr 26 16:08:22 CEST 2020)
(APACHE source distribution)
Java Runtime: OpenJDK Runtime Environment
JVM: OpenJDK 64-Bit Server VM
Java Version: 12.0.2+9-Ubuntu-118.04
Operating System: Linux
Default Encoding: UTF-8
Language: en
Country: US
--></g></svg>