<?xml version="1.0" encoding="UTF-8" standalone="no"?><svg xmlns="http://www.w3.org/2000/svg" xmlns:xlink="http://www.w3.org/1999/xlink" contentScriptType="application/ecmascript" contentStyleType="text/css" height="261px" preserveAspectRatio="none" style="width:372px;height:261px;" version="1.1" viewBox="0 0 372 261" width="372px" zoomAndPan="magnify"><defs><filter height="300%" id="f18vgu2sjkxgb5" width="300%" x="-1" y="-1"><feGaussianBlur result="blurOut" stdDeviation="2.0"/><feColorMatrix in="blurOut" result="blurOut2" type="matrix" values="0 0 0 0 0 0 0 0 0 0 0 0 0 0 0 0 0 0 .4 0"/><feOffset dx="4.0" dy="4.0" in="blurOut2" result="blurOut3"/><feBlend in="SourceGraphic" in2="blurOut3" mode="normal"/></filter></defs><g><!--MD5=[4081bea1e06f607cd7cc41d3bc36a5d1]
class de.fraunhofer.aisec.cpg.graph.EnumDeclaration--><a href="EnumDeclaration.html" target="_top" title="EnumDeclaration.html" xlink:actuate="onRequest" xlink:href="EnumDeclaration.html" xlink:show="new" xlink:title="EnumDeclaration.html" xlink:type="simple"><rect fill="#FEFECE" filter="url(#f18vgu2sjkxgb5)" height="122.7656" id="de.fraunhofer.aisec.cpg.graph.EnumDeclaration" style="stroke: #A80036; stroke-width: 1.5;" width="355" x="6" y="106"/><ellipse cx="106.75" cy="124.9688" fill="#ADD1B2" rx="11" ry="11" style="stroke: #A80036; stroke-width: 1.0;"/><path d="M109.7188,130.6094 Q109.1406,130.9063 108.5,131.0469 Q107.8594,131.2031 107.1563,131.2031 Q104.6563,131.2031 103.3281,129.5625 Q102.0156,127.9063 102.0156,124.7813 Q102.0156,121.6563 103.3281,120 Q104.6563,118.3438 107.1563,118.3438 Q107.8594,118.3438 108.5,118.5 Q109.1563,118.6563 109.7188,118.9531 L109.7188,121.6719 Q109.0938,121.0938 108.5,120.8281 Q107.9063,120.5469 107.2813,120.5469 Q105.9375,120.5469 105.25,121.625 Q104.5625,122.6875 104.5625,124.7813 Q104.5625,126.875 105.25,127.9531 Q105.9375,129.0156 107.2813,129.0156 Q107.9063,129.0156 108.5,128.75 Q109.0938,128.4688 109.7188,127.8906 L109.7188,130.6094 Z "/><text fill="#000000" font-family="sans-serif" font-size="14" lengthAdjust="spacingAndGlyphs" textLength="118" x="140.75" y="123.9951">EnumDeclaration</text><text fill="#000000" font-family="sans-serif" font-size="10" lengthAdjust="spacingAndGlyphs" textLength="145" x="127.25" y="136.5791">de.fraunhofer.aisec.cpg.graph</text><line style="stroke: #A80036; stroke-width: 1.5;" x1="7" x2="360" y1="143.9375" y2="143.9375"/><ellipse cx="17" cy="154.9375" fill="#84BE84" rx="3" ry="3" style="stroke: #038048; stroke-width: 1.0;"/><text fill="#000000" font-family="sans-serif" font-size="11" lengthAdjust="spacingAndGlyphs" textLength="259" x="26" y="158.1479">getEntries(): List&lt;EnumConstantDeclaration&gt;</text><ellipse cx="17" cy="167.7422" fill="#84BE84" rx="3" ry="3" style="stroke: #038048; stroke-width: 1.0;"/><text fill="#000000" font-family="sans-serif" font-size="11" lengthAdjust="spacingAndGlyphs" textLength="282" x="26" y="170.9526">setEntries(List&lt;EnumConstantDeclaration&gt;): void</text><ellipse cx="17" cy="180.5469" fill="#84BE84" rx="3" ry="3" style="stroke: #038048; stroke-width: 1.0;"/><text fill="#000000" font-family="sans-serif" font-size="11" lengthAdjust="spacingAndGlyphs" textLength="167" x="26" y="183.7573">getSuperTypes(): List&lt;Type&gt;</text><ellipse cx="17" cy="193.3516" fill="#84BE84" rx="3" ry="3" style="stroke: #038048; stroke-width: 1.0;"/><text fill="#000000" font-family="sans-serif" font-size="11" lengthAdjust="spacingAndGlyphs" textLength="190" x="26" y="196.562">setSuperTypes(List&lt;Type&gt;): void</text><ellipse cx="17" cy="206.1563" fill="#84BE84" rx="3" ry="3" style="stroke: #038048; stroke-width: 1.0;"/><text fill="#000000" font-family="sans-serif" font-size="11" lengthAdjust="spacingAndGlyphs" textLength="306" x="26" y="209.3667">getSuperTypeDeclarations(): Set&lt;RecordDeclaration&gt;</text><ellipse cx="17" cy="218.9609" fill="#84BE84" rx="3" ry="3" style="stroke: #038048; stroke-width: 1.0;"/><text fill="#000000" font-family="sans-serif" font-size="11" lengthAdjust="spacingAndGlyphs" textLength="329" x="26" y="222.1714">setSuperTypeDeclarations(Set&lt;RecordDeclaration&gt;): void</text></a><!--MD5=[143931fe148168bbe79d8855ff7d1cb7]
class de.fraunhofer.aisec.cpg.graph.Declaration--><a href="Declaration.html" target="_top" title="Declaration.html" xlink:actuate="onRequest" xlink:href="Declaration.html" xlink:show="new" xlink:title="Declaration.html" xlink:type="simple"><rect fill="#FEFECE" filter="url(#f18vgu2sjkxgb5)" height="37.9375" id="de.fraunhofer.aisec.cpg.graph.Declaration" style="stroke: #A80036; stroke-width: 1.5;" width="177" x="95" y="8"/><ellipse cx="110" cy="26.9688" fill="#ADD1B2" rx="11" ry="11" style="stroke: #A80036; stroke-width: 1.0;"/><path d="M112.9688,32.6094 Q112.3906,32.9063 111.75,33.0469 Q111.1094,33.2031 110.4063,33.2031 Q107.9063,33.2031 106.5781,31.5625 Q105.2656,29.9063 105.2656,26.7813 Q105.2656,23.6563 106.5781,22 Q107.9063,20.3438 110.4063,20.3438 Q111.1094,20.3438 111.75,20.5 Q112.4063,20.6563 112.9688,20.9531 L112.9688,23.6719 Q112.3438,23.0938 111.75,22.8281 Q111.1563,22.5469 110.5313,22.5469 Q109.1875,22.5469 108.5,23.625 Q107.8125,24.6875 107.8125,26.7813 Q107.8125,28.875 108.5,29.9531 Q109.1875,31.0156 110.5313,31.0156 Q111.1563,31.0156 111.75,30.75 Q112.3438,30.4688 112.9688,29.8906 L112.9688,32.6094 Z "/><text fill="#000000" font-family="sans-serif" font-size="14" lengthAdjust="spacingAndGlyphs" textLength="78" x="157.5" y="25.9951">Declaration</text><text fill="#000000" font-family="sans-serif" font-size="10" lengthAdjust="spacingAndGlyphs" textLength="145" x="124" y="38.5791">de.fraunhofer.aisec.cpg.graph</text></a><!--MD5=[291a7b7e2792faf22c7f6b58423bad57]
reverse link de.fraunhofer.aisec.cpg.graph.Declaration to de.fraunhofer.aisec.cpg.graph.EnumDeclaration--><path d="M183.5,66.43 C183.5,78.6 183.5,92.36 183.5,105.7 " fill="none" id="de.fraunhofer.aisec.cpg.graph.Declaration&lt;-de.fraunhofer.aisec.cpg.graph.EnumDeclaration" style="stroke: #A80036; stroke-width: 1.0;"/><polygon fill="none" points="176.5,66.11,183.5,46.11,190.5,66.11,176.5,66.11" style="stroke: #A80036; stroke-width: 1.0;"/><text fill="#888888" font-family="sans-serif" font-size="10" lengthAdjust="spacingAndGlyphs" textLength="186" x="96.5" y="248.2822">UMLDoclet 2.0.9, PlantUML 1.2020.08</text><!--MD5=[c7109b9858f0f58a6ee4bbb7020914ca]
@startuml
    set namespaceSeparator none
    hide empty fields
    hide empty methods

    class "<size:14>EnumDeclaration\n<size:10>de.fraunhofer.aisec.cpg.graph" as de.fraunhofer.aisec.cpg.graph.EnumDeclaration [[EnumDeclaration.html]] {
        +getEntries(): List<EnumConstantDeclaration>
        +setEntries(List<EnumConstantDeclaration>): void
        +getSuperTypes(): List<Type>
        +setSuperTypes(List<Type>): void
        +getSuperTypeDeclarations(): Set<RecordDeclaration>
        +setSuperTypeDeclarations(Set<RecordDeclaration>): void
    }

    class "<size:14>Declaration\n<size:10>de.fraunhofer.aisec.cpg.graph" as de.fraunhofer.aisec.cpg.graph.Declaration [[Declaration.html]]

    de.fraunhofer.aisec.cpg.graph.Declaration <|- - de.fraunhofer.aisec.cpg.graph.EnumDeclaration

    center footer UMLDoclet 2.0.9, PlantUML 1.2020.08
@enduml

PlantUML version 1.2020.08(Sun Apr 26 16:08:22 CEST 2020)
(APACHE source distribution)
Java Runtime: OpenJDK Runtime Environment
JVM: OpenJDK 64-Bit Server VM
Java Version: 12.0.2+9-Ubuntu-118.04
Operating System: Linux
Default Encoding: UTF-8
Language: en
Country: US
--></g></svg>