<?xml version="1.0" encoding="UTF-8" standalone="no"?><svg xmlns="http://www.w3.org/2000/svg" xmlns:xlink="http://www.w3.org/1999/xlink" contentScriptType="application/ecmascript" contentStyleType="text/css" height="520px" preserveAspectRatio="none" style="width:534px;height:520px;" version="1.1" viewBox="0 0 534 520" width="534px" zoomAndPan="magnify"><defs><filter height="300%" id="f16d3jdxw2ltfm" width="300%" x="-1" y="-1"><feGaussianBlur result="blurOut" stdDeviation="2.0"/><feColorMatrix in="blurOut" result="blurOut2" type="matrix" values="0 0 0 0 0 0 0 0 0 0 0 0 0 0 0 0 0 0 .4 0"/><feOffset dx="4.0" dy="4.0" in="blurOut2" result="blurOut3"/><feBlend in="SourceGraphic" in2="blurOut3" mode="normal"/></filter></defs><g><!--MD5=[f602dd8d46e7ba17465d0a1e20507055]
class de.fraunhofer.aisec.cpg.graph.Expression--><a href="Expression.html" target="_top" title="Expression.html" xlink:actuate="onRequest" xlink:href="Expression.html" xlink:show="new" xlink:title="Expression.html" xlink:type="simple"><rect fill="#FEFECE" filter="url(#f16d3jdxw2ltfm)" height="220.3984" id="de.fraunhofer.aisec.cpg.graph.Expression" style="stroke: #A80036; stroke-width: 1.5;" width="308" x="78.5" y="268"/><ellipse cx="155.75" cy="286.9688" fill="#ADD1B2" rx="11" ry="11" style="stroke: #A80036; stroke-width: 1.0;"/><path d="M158.7188,292.6094 Q158.1406,292.9063 157.5,293.0469 Q156.8594,293.2031 156.1563,293.2031 Q153.6563,293.2031 152.3281,291.5625 Q151.0156,289.9063 151.0156,286.7813 Q151.0156,283.6563 152.3281,282 Q153.6563,280.3438 156.1563,280.3438 Q156.8594,280.3438 157.5,280.5 Q158.1563,280.6563 158.7188,280.9531 L158.7188,283.6719 Q158.0938,283.0938 157.5,282.8281 Q156.9063,282.5469 156.2813,282.5469 Q154.9375,282.5469 154.25,283.625 Q153.5625,284.6875 153.5625,286.7813 Q153.5625,288.875 154.25,289.9531 Q154.9375,291.0156 156.2813,291.0156 Q156.9063,291.0156 157.5,290.75 Q158.0938,290.4688 158.7188,289.8906 L158.7188,292.6094 Z "/><text fill="#000000" font-family="sans-serif" font-size="14" lengthAdjust="spacingAndGlyphs" textLength="76" x="210.75" y="285.9951">Expression</text><text fill="#000000" font-family="sans-serif" font-size="10" lengthAdjust="spacingAndGlyphs" textLength="145" x="176.25" y="298.5791">de.fraunhofer.aisec.cpg.graph</text><line style="stroke: #A80036; stroke-width: 1.5;" x1="79.5" x2="385.5" y1="305.9375" y2="305.9375"/><polygon fill="none" points="89.5,311.9375,93.5,315.9375,89.5,319.9375,85.5,315.9375" style="stroke: #B38D22; stroke-width: 1.0;"/><text fill="#000000" font-family="sans-serif" font-size="11" lengthAdjust="spacingAndGlyphs" textLength="59" x="98.5" y="320.1479">type: Type</text><line style="stroke: #A80036; stroke-width: 1.5;" x1="79.5" x2="385.5" y1="326.7422" y2="326.7422"/><ellipse cx="89.5" cy="337.7422" fill="#84BE84" rx="3" ry="3" style="stroke: #038048; stroke-width: 1.0;"/><text fill="#000000" font-family="sans-serif" font-size="11" lengthAdjust="spacingAndGlyphs" textLength="88" x="98.5" y="340.9526">getType(): Type</text><ellipse cx="89.5" cy="350.5469" fill="#84BE84" rx="3" ry="3" style="stroke: #038048; stroke-width: 1.0;"/><text fill="#000000" font-family="sans-serif" font-size="11" lengthAdjust="spacingAndGlyphs" textLength="156" x="98.5" y="353.7573">getPropagationType(): Type</text><ellipse cx="89.5" cy="363.3516" fill="#84BE84" rx="3" ry="3" style="stroke: #038048; stroke-width: 1.0;"/><text fill="#000000" font-family="sans-serif" font-size="11" lengthAdjust="spacingAndGlyphs" textLength="132" x="98.5" y="366.562">updateType(Type): void</text><ellipse cx="89.5" cy="376.1563" fill="#84BE84" rx="3" ry="3" style="stroke: #038048; stroke-width: 1.0;"/><text fill="#000000" font-family="sans-serif" font-size="11" lengthAdjust="spacingAndGlyphs" textLength="243" x="98.5" y="379.3667">updatePossibleSubtypes(Set&lt;Type&gt;): void</text><ellipse cx="89.5" cy="388.9609" fill="#84BE84" rx="3" ry="3" style="stroke: #038048; stroke-width: 1.0;"/><text fill="#000000" font-family="sans-serif" font-size="11" lengthAdjust="spacingAndGlyphs" textLength="168" x="98.5" y="392.1714">setType(Type, HasType): void</text><ellipse cx="89.5" cy="401.7656" fill="#84BE84" rx="3" ry="3" style="stroke: #038048; stroke-width: 1.0;"/><text fill="#000000" font-family="sans-serif" font-size="11" lengthAdjust="spacingAndGlyphs" textLength="202" x="98.5" y="404.9761">getPossibleSubTypes(): Set&lt;Type&gt;</text><ellipse cx="89.5" cy="414.5703" fill="#84BE84" rx="3" ry="3" style="stroke: #038048; stroke-width: 1.0;"/><text fill="#000000" font-family="sans-serif" font-size="11" lengthAdjust="spacingAndGlyphs" textLength="282" x="98.5" y="417.7808">setPossibleSubTypes(Set&lt;Type&gt;, HasType): void</text><ellipse cx="89.5" cy="427.375" fill="#84BE84" rx="3" ry="3" style="stroke: #038048; stroke-width: 1.0;"/><text fill="#000000" font-family="sans-serif" font-size="11" lengthAdjust="spacingAndGlyphs" textLength="130" x="98.5" y="430.5854">resetTypes(Type): void</text><ellipse cx="89.5" cy="440.1797" fill="#84BE84" rx="3" ry="3" style="stroke: #038048; stroke-width: 1.0;"/><text fill="#000000" font-family="sans-serif" font-size="11" lengthAdjust="spacingAndGlyphs" textLength="230" x="98.5" y="443.3901">registerTypeListener(TypeListener): void</text><ellipse cx="89.5" cy="452.9844" fill="#84BE84" rx="3" ry="3" style="stroke: #038048; stroke-width: 1.0;"/><text fill="#000000" font-family="sans-serif" font-size="11" lengthAdjust="spacingAndGlyphs" textLength="244" x="98.5" y="456.1948">unregisterTypeListener(TypeListener): void</text><ellipse cx="89.5" cy="465.7891" fill="#84BE84" rx="3" ry="3" style="stroke: #038048; stroke-width: 1.0;"/><text fill="#000000" font-family="sans-serif" font-size="11" lengthAdjust="spacingAndGlyphs" textLength="224" x="98.5" y="468.9995">getTypeListeners(): Set&lt;TypeListener&gt;</text><ellipse cx="89.5" cy="478.5938" fill="#84BE84" rx="3" ry="3" style="stroke: #038048; stroke-width: 1.0;"/><text fill="#000000" font-family="sans-serif" font-size="11" lengthAdjust="spacingAndGlyphs" textLength="108" x="98.5" y="481.8042">refreshType(): void</text></a><!--MD5=[9566dda5ff1f2bf4890c28c79b7fba98]
class de.fraunhofer.aisec.cpg.graph.Statement--><a href="Statement.html" target="_top" title="Statement.html" xlink:actuate="onRequest" xlink:href="Statement.html" xlink:show="new" xlink:title="Statement.html" xlink:type="simple"><rect fill="#FEFECE" filter="url(#f16d3jdxw2ltfm)" height="37.9375" id="de.fraunhofer.aisec.cpg.graph.Statement" style="stroke: #A80036; stroke-width: 1.5;" width="177" x="6" y="89"/><ellipse cx="21" cy="107.9688" fill="#ADD1B2" rx="11" ry="11" style="stroke: #A80036; stroke-width: 1.0;"/><path d="M23.9688,113.6094 Q23.3906,113.9063 22.75,114.0469 Q22.1094,114.2031 21.4063,114.2031 Q18.9063,114.2031 17.5781,112.5625 Q16.2656,110.9063 16.2656,107.7813 Q16.2656,104.6563 17.5781,103 Q18.9063,101.3438 21.4063,101.3438 Q22.1094,101.3438 22.75,101.5 Q23.4063,101.6563 23.9688,101.9531 L23.9688,104.6719 Q23.3438,104.0938 22.75,103.8281 Q22.1563,103.5469 21.5313,103.5469 Q20.1875,103.5469 19.5,104.625 Q18.8125,105.6875 18.8125,107.7813 Q18.8125,109.875 19.5,110.9531 Q20.1875,112.0156 21.5313,112.0156 Q22.1563,112.0156 22.75,111.75 Q23.3438,111.4688 23.9688,110.8906 L23.9688,113.6094 Z "/><text fill="#000000" font-family="sans-serif" font-size="14" lengthAdjust="spacingAndGlyphs" textLength="72" x="71.5" y="106.9951">Statement</text><text fill="#000000" font-family="sans-serif" font-size="10" lengthAdjust="spacingAndGlyphs" textLength="145" x="35" y="119.5791">de.fraunhofer.aisec.cpg.graph</text></a><!--MD5=[e543348eb4be39d28b40b02936d6ac64]
class de.fraunhofer.aisec.cpg.graph.HasType--><a href="HasType.html" target="_top" title="HasType.html" xlink:actuate="onRequest" xlink:href="HasType.html" xlink:show="new" xlink:title="HasType.html" xlink:type="simple"><rect fill="#FEFECE" filter="url(#f16d3jdxw2ltfm)" height="199.5938" id="de.fraunhofer.aisec.cpg.graph.HasType" style="stroke: #A80036; stroke-width: 1.5;" width="305" x="218" y="8"/><ellipse cx="292.25" cy="26.9688" fill="#B4A7E5" rx="11" ry="11" style="stroke: #A80036; stroke-width: 1.0;"/><path d="M288.1719,22.7344 L288.1719,20.5781 L295.5625,20.5781 L295.5625,22.7344 L293.0938,22.7344 L293.0938,30.8125 L295.5625,30.8125 L295.5625,32.9688 L288.1719,32.9688 L288.1719,30.8125 L290.6406,30.8125 L290.6406,22.7344 L288.1719,22.7344 Z "/><text fill="#000000" font-family="sans-serif" font-size="14" font-style="italic" lengthAdjust="spacingAndGlyphs" textLength="61" x="356.25" y="25.9951">HasType</text><text fill="#000000" font-family="sans-serif" font-size="10" font-style="italic" lengthAdjust="spacingAndGlyphs" textLength="148" x="312.75" y="38.5791">de.fraunhofer.aisec.cpg.graph</text><line style="stroke: #A80036; stroke-width: 1.5;" x1="219" x2="522" y1="45.9375" y2="45.9375"/><ellipse cx="229" cy="56.9375" fill="#84BE84" rx="3" ry="3" style="stroke: #038048; stroke-width: 1.0;"/><text fill="#000000" font-family="sans-serif" font-size="11" font-style="italic" lengthAdjust="spacingAndGlyphs" textLength="90" x="238" y="60.1479">getType(): Type</text><ellipse cx="229" cy="69.7422" fill="#84BE84" rx="3" ry="3" style="stroke: #038048; stroke-width: 1.0;"/><text fill="#000000" font-family="sans-serif" font-size="11" font-style="italic" lengthAdjust="spacingAndGlyphs" textLength="158" x="238" y="72.9526">getPropagationType(): Type</text><ellipse cx="229" cy="82.5469" fill="#84BE84" rx="3" ry="3" style="stroke: #038048; stroke-width: 1.0;"/><text fill="#000000" font-family="sans-serif" font-size="11" font-style="italic" lengthAdjust="spacingAndGlyphs" textLength="135" x="238" y="85.7573">updateType(Type): void</text><ellipse cx="229" cy="95.3516" fill="#84BE84" rx="3" ry="3" style="stroke: #038048; stroke-width: 1.0;"/><text fill="#000000" font-family="sans-serif" font-size="11" font-style="italic" lengthAdjust="spacingAndGlyphs" textLength="241" x="238" y="98.562">updatePossibleSubtypes(Set&lt;Type&gt;): void</text><ellipse cx="229" cy="108.1563" fill="#84BE84" rx="3" ry="3" style="stroke: #038048; stroke-width: 1.0;"/><text fill="#000000" font-family="sans-serif" font-size="11" font-style="italic" lengthAdjust="spacingAndGlyphs" textLength="170" x="238" y="111.3667">setType(Type, HasType): void</text><ellipse cx="229" cy="120.9609" fill="#84BE84" rx="3" ry="3" style="stroke: #038048; stroke-width: 1.0;"/><text fill="#000000" font-family="sans-serif" font-size="11" font-style="italic" lengthAdjust="spacingAndGlyphs" textLength="199" x="238" y="124.1714">getPossibleSubTypes(): Set&lt;Type&gt;</text><ellipse cx="229" cy="133.7656" fill="#84BE84" rx="3" ry="3" style="stroke: #038048; stroke-width: 1.0;"/><text fill="#000000" font-family="sans-serif" font-size="11" font-style="italic" lengthAdjust="spacingAndGlyphs" textLength="279" x="238" y="136.9761">setPossibleSubTypes(Set&lt;Type&gt;, HasType): void</text><ellipse cx="229" cy="146.5703" fill="#84BE84" rx="3" ry="3" style="stroke: #038048; stroke-width: 1.0;"/><text fill="#000000" font-family="sans-serif" font-size="11" font-style="italic" lengthAdjust="spacingAndGlyphs" textLength="230" x="238" y="149.7808">registerTypeListener(TypeListener): void</text><ellipse cx="229" cy="159.375" fill="#84BE84" rx="3" ry="3" style="stroke: #038048; stroke-width: 1.0;"/><text fill="#000000" font-family="sans-serif" font-size="11" font-style="italic" lengthAdjust="spacingAndGlyphs" textLength="244" x="238" y="162.5854">unregisterTypeListener(TypeListener): void</text><ellipse cx="229" cy="172.1797" fill="#84BE84" rx="3" ry="3" style="stroke: #038048; stroke-width: 1.0;"/><text fill="#000000" font-family="sans-serif" font-size="11" font-style="italic" lengthAdjust="spacingAndGlyphs" textLength="222" x="238" y="175.3901">getTypeListeners(): Set&lt;TypeListener&gt;</text><ellipse cx="229" cy="184.9844" fill="#84BE84" rx="3" ry="3" style="stroke: #038048; stroke-width: 1.0;"/><text fill="#000000" font-family="sans-serif" font-size="11" font-style="italic" lengthAdjust="spacingAndGlyphs" textLength="109" x="238" y="188.1948">refreshType(): void</text><ellipse cx="229" cy="197.7891" fill="#84BE84" rx="3" ry="3" style="stroke: #038048; stroke-width: 1.0;"/><text fill="#000000" font-family="sans-serif" font-size="11" font-style="italic" lengthAdjust="spacingAndGlyphs" textLength="131" x="238" y="200.9995">resetTypes(Type): void</text></a><!--MD5=[94de24f6f013199366bb84079c20f1f0]
reverse link de.fraunhofer.aisec.cpg.graph.Statement to de.fraunhofer.aisec.cpg.graph.Expression--><path d="M113.15,145.22 C129.37,176.72 153.74,224.04 176.24,267.73 " fill="none" id="de.fraunhofer.aisec.cpg.graph.Statement&lt;-de.fraunhofer.aisec.cpg.graph.Expression" style="stroke: #A80036; stroke-width: 1.0;"/><polygon fill="none" points="106.7,147.99,103.77,127,119.15,141.58,106.7,147.99" style="stroke: #A80036; stroke-width: 1.0;"/><!--MD5=[e3601d3052ba4f94cb089ace9d06396c]
reverse link de.fraunhofer.aisec.cpg.graph.HasType to de.fraunhofer.aisec.cpg.graph.Expression--><path d="M310.26,225.99 C303.15,239.8 295.91,253.85 288.86,267.55 " fill="none" id="de.fraunhofer.aisec.cpg.graph.HasType&lt;-de.fraunhofer.aisec.cpg.graph.Expression" style="stroke: #A80036; stroke-width: 1.0; stroke-dasharray: 7.0,7.0;"/><polygon fill="none" points="304.13,222.61,319.51,208.03,316.57,229.02,304.13,222.61" style="stroke: #A80036; stroke-width: 1.0;"/><text fill="#888888" font-family="sans-serif" font-size="10" lengthAdjust="spacingAndGlyphs" textLength="186" x="177.5" y="507.2822">UMLDoclet 2.0.9, PlantUML 1.2020.08</text><!--MD5=[2a568e819ab6fcf0d7ac662fad2564e8]
@startuml
    set namespaceSeparator none
    hide empty fields
    hide empty methods

    class "<size:14>Expression\n<size:10>de.fraunhofer.aisec.cpg.graph" as de.fraunhofer.aisec.cpg.graph.Expression [[Expression.html]] {
        #type: Type
        +getType(): Type
        +getPropagationType(): Type
        +updateType(Type): void
        +updatePossibleSubtypes(Set<Type>): void
        +setType(Type, HasType): void
        +getPossibleSubTypes(): Set<Type>
        +setPossibleSubTypes(Set<Type>, HasType): void
        +resetTypes(Type): void
        +registerTypeListener(TypeListener): void
        +unregisterTypeListener(TypeListener): void
        +getTypeListeners(): Set<TypeListener>
        +refreshType(): void
    }

    class "<size:14>Statement\n<size:10>de.fraunhofer.aisec.cpg.graph" as de.fraunhofer.aisec.cpg.graph.Statement [[Statement.html]]
    interface "<size:14>HasType\n<size:10>de.fraunhofer.aisec.cpg.graph" as de.fraunhofer.aisec.cpg.graph.HasType [[HasType.html]] {
        {abstract} +getType(): Type
        {abstract} +getPropagationType(): Type
        {abstract} +updateType(Type): void
        {abstract} +updatePossibleSubtypes(Set<Type>): void
        {abstract} +setType(Type, HasType): void
        {abstract} +getPossibleSubTypes(): Set<Type>
        {abstract} +setPossibleSubTypes(Set<Type>, HasType): void
        {abstract} +registerTypeListener(TypeListener): void
        {abstract} +unregisterTypeListener(TypeListener): void
        {abstract} +getTypeListeners(): Set<TypeListener>
        {abstract} +refreshType(): void
        {abstract} +resetTypes(Type): void
    }

    de.fraunhofer.aisec.cpg.graph.Statement <|- - de.fraunhofer.aisec.cpg.graph.Expression
    de.fraunhofer.aisec.cpg.graph.HasType <|.. de.fraunhofer.aisec.cpg.graph.Expression

    center footer UMLDoclet 2.0.9, PlantUML 1.2020.08
@enduml

PlantUML version 1.2020.08(Sun Apr 26 16:08:22 CEST 2020)
(APACHE source distribution)
Java Runtime: OpenJDK Runtime Environment
JVM: OpenJDK 64-Bit Server VM
Java Version: 12.0.2+9-Ubuntu-118.04
Operating System: Linux
Default Encoding: UTF-8
Language: en
Country: US
--></g></svg>