<?xml version="1.0" encoding="UTF-8" standalone="no"?><svg xmlns="http://www.w3.org/2000/svg" xmlns:xlink="http://www.w3.org/1999/xlink" contentScriptType="application/ecmascript" contentStyleType="text/css" height="261px" preserveAspectRatio="none" style="width:218px;height:261px;" version="1.1" viewBox="0 0 218 261" width="218px" zoomAndPan="magnify"><defs><filter height="300%" id="f51qiej8tymi3" width="300%" x="-1" y="-1"><feGaussianBlur result="blurOut" stdDeviation="2.0"/><feColorMatrix in="blurOut" result="blurOut2" type="matrix" values="0 0 0 0 0 0 0 0 0 0 0 0 0 0 0 0 0 0 .4 0"/><feOffset dx="4.0" dy="4.0" in="blurOut2" result="blurOut3"/><feBlend in="SourceGraphic" in2="blurOut3" mode="normal"/></filter></defs><g><!--MD5=[0b90a6ecc2025910887afa7cf99d92d4]
class de.fraunhofer.aisec.cpg.graph.ForEachStatement--><a href="ForEachStatement.html" target="_top" title="ForEachStatement.html" xlink:actuate="onRequest" xlink:href="ForEachStatement.html" xlink:show="new" xlink:title="ForEachStatement.html" xlink:type="simple"><rect fill="#FEFECE" filter="url(#f51qiej8tymi3)" height="122.7656" id="de.fraunhofer.aisec.cpg.graph.ForEachStatement" style="stroke: #A80036; stroke-width: 1.5;" width="201" x="6" y="106"/><ellipse cx="31.8" cy="124.9688" fill="#ADD1B2" rx="11" ry="11" style="stroke: #A80036; stroke-width: 1.0;"/><path d="M34.7688,130.6094 Q34.1906,130.9063 33.55,131.0469 Q32.9094,131.2031 32.2063,131.2031 Q29.7063,131.2031 28.3781,129.5625 Q27.0656,127.9063 27.0656,124.7813 Q27.0656,121.6563 28.3781,120 Q29.7063,118.3438 32.2063,118.3438 Q32.9094,118.3438 33.55,118.5 Q34.2063,118.6563 34.7688,118.9531 L34.7688,121.6719 Q34.1438,121.0938 33.55,120.8281 Q32.9563,120.5469 32.3313,120.5469 Q30.9875,120.5469 30.3,121.625 Q29.6125,122.6875 29.6125,124.7813 Q29.6125,126.875 30.3,127.9531 Q30.9875,129.0156 32.3313,129.0156 Q32.9563,129.0156 33.55,128.75 Q34.1438,128.4688 34.7688,127.8906 L34.7688,130.6094 Z "/><text fill="#000000" font-family="sans-serif" font-size="14" lengthAdjust="spacingAndGlyphs" textLength="128" x="56.7" y="123.9951">ForEachStatement</text><text fill="#000000" font-family="sans-serif" font-size="10" lengthAdjust="spacingAndGlyphs" textLength="145" x="48.2" y="136.5791">de.fraunhofer.aisec.cpg.graph</text><line style="stroke: #A80036; stroke-width: 1.5;" x1="7" x2="206" y1="143.9375" y2="143.9375"/><ellipse cx="17" cy="154.9375" fill="#84BE84" rx="3" ry="3" style="stroke: #038048; stroke-width: 1.0;"/><text fill="#000000" font-family="sans-serif" font-size="11" lengthAdjust="spacingAndGlyphs" textLength="152" x="26" y="158.1479">getStatement(): Statement</text><ellipse cx="17" cy="167.7422" fill="#84BE84" rx="3" ry="3" style="stroke: #038048; stroke-width: 1.0;"/><text fill="#000000" font-family="sans-serif" font-size="11" lengthAdjust="spacingAndGlyphs" textLength="175" x="26" y="170.9526">setStatement(Statement): void</text><ellipse cx="17" cy="180.5469" fill="#84BE84" rx="3" ry="3" style="stroke: #038048; stroke-width: 1.0;"/><text fill="#000000" font-family="sans-serif" font-size="11" lengthAdjust="spacingAndGlyphs" textLength="144" x="26" y="183.7573">getVariable(): Declaration</text><ellipse cx="17" cy="193.3516" fill="#84BE84" rx="3" ry="3" style="stroke: #038048; stroke-width: 1.0;"/><text fill="#000000" font-family="sans-serif" font-size="11" lengthAdjust="spacingAndGlyphs" textLength="167" x="26" y="196.562">setVariable(Declaration): void</text><ellipse cx="17" cy="206.1563" fill="#84BE84" rx="3" ry="3" style="stroke: #038048; stroke-width: 1.0;"/><text fill="#000000" font-family="sans-serif" font-size="11" lengthAdjust="spacingAndGlyphs" textLength="136" x="26" y="209.3667">getIterable(): Statement</text><ellipse cx="17" cy="218.9609" fill="#84BE84" rx="3" ry="3" style="stroke: #038048; stroke-width: 1.0;"/><text fill="#000000" font-family="sans-serif" font-size="11" lengthAdjust="spacingAndGlyphs" textLength="159" x="26" y="222.1714">setIterable(Statement): void</text></a><!--MD5=[9566dda5ff1f2bf4890c28c79b7fba98]
class de.fraunhofer.aisec.cpg.graph.Statement--><a href="Statement.html" target="_top" title="Statement.html" xlink:actuate="onRequest" xlink:href="Statement.html" xlink:show="new" xlink:title="Statement.html" xlink:type="simple"><rect fill="#FEFECE" filter="url(#f51qiej8tymi3)" height="37.9375" id="de.fraunhofer.aisec.cpg.graph.Statement" style="stroke: #A80036; stroke-width: 1.5;" width="177" x="18" y="8"/><ellipse cx="33" cy="26.9688" fill="#ADD1B2" rx="11" ry="11" style="stroke: #A80036; stroke-width: 1.0;"/><path d="M35.9688,32.6094 Q35.3906,32.9063 34.75,33.0469 Q34.1094,33.2031 33.4063,33.2031 Q30.9063,33.2031 29.5781,31.5625 Q28.2656,29.9063 28.2656,26.7813 Q28.2656,23.6563 29.5781,22 Q30.9063,20.3438 33.4063,20.3438 Q34.1094,20.3438 34.75,20.5 Q35.4063,20.6563 35.9688,20.9531 L35.9688,23.6719 Q35.3438,23.0938 34.75,22.8281 Q34.1563,22.5469 33.5313,22.5469 Q32.1875,22.5469 31.5,23.625 Q30.8125,24.6875 30.8125,26.7813 Q30.8125,28.875 31.5,29.9531 Q32.1875,31.0156 33.5313,31.0156 Q34.1563,31.0156 34.75,30.75 Q35.3438,30.4688 35.9688,29.8906 L35.9688,32.6094 Z "/><text fill="#000000" font-family="sans-serif" font-size="14" lengthAdjust="spacingAndGlyphs" textLength="72" x="83.5" y="25.9951">Statement</text><text fill="#000000" font-family="sans-serif" font-size="10" lengthAdjust="spacingAndGlyphs" textLength="145" x="47" y="38.5791">de.fraunhofer.aisec.cpg.graph</text></a><!--MD5=[11b1abfaae5486f927ec2da75fc4c2f7]
reverse link de.fraunhofer.aisec.cpg.graph.Statement to de.fraunhofer.aisec.cpg.graph.ForEachStatement--><path d="M106.5,66.43 C106.5,78.6 106.5,92.36 106.5,105.7 " fill="none" id="de.fraunhofer.aisec.cpg.graph.Statement&lt;-de.fraunhofer.aisec.cpg.graph.ForEachStatement" style="stroke: #A80036; stroke-width: 1.0;"/><polygon fill="none" points="99.5,66.11,106.5,46.11,113.5,66.11,99.5,66.11" style="stroke: #A80036; stroke-width: 1.0;"/><text fill="#888888" font-family="sans-serif" font-size="10" lengthAdjust="spacingAndGlyphs" textLength="186" x="19.5" y="248.2822">UMLDoclet 2.0.9, PlantUML 1.2020.08</text><!--MD5=[5ac4d5c442ee65ed9c94b2f228ef6fa2]
@startuml
    set namespaceSeparator none
    hide empty fields
    hide empty methods

    class "<size:14>ForEachStatement\n<size:10>de.fraunhofer.aisec.cpg.graph" as de.fraunhofer.aisec.cpg.graph.ForEachStatement [[ForEachStatement.html]] {
        +getStatement(): Statement
        +setStatement(Statement): void
        +getVariable(): Declaration
        +setVariable(Declaration): void
        +getIterable(): Statement
        +setIterable(Statement): void
    }

    class "<size:14>Statement\n<size:10>de.fraunhofer.aisec.cpg.graph" as de.fraunhofer.aisec.cpg.graph.Statement [[Statement.html]]

    de.fraunhofer.aisec.cpg.graph.Statement <|- - de.fraunhofer.aisec.cpg.graph.ForEachStatement

    center footer UMLDoclet 2.0.9, PlantUML 1.2020.08
@enduml

PlantUML version 1.2020.08(Sun Apr 26 16:08:22 CEST 2020)
(APACHE source distribution)
Java Runtime: OpenJDK Runtime Environment
JVM: OpenJDK 64-Bit Server VM
Java Version: 12.0.2+9-Ubuntu-118.04
Operating System: Linux
Default Encoding: UTF-8
Language: en
Country: US
--></g></svg>