<?xml version="1.0" encoding="UTF-8" standalone="no"?><svg xmlns="http://www.w3.org/2000/svg" xmlns:xlink="http://www.w3.org/1999/xlink" contentScriptType="application/ecmascript" contentStyleType="text/css" height="338px" preserveAspectRatio="none" style="width:281px;height:338px;" version="1.1" viewBox="0 0 281 338" width="281px" zoomAndPan="magnify"><defs><filter height="300%" id="f10olub3xpz97l" width="300%" x="-1" y="-1"><feGaussianBlur result="blurOut" stdDeviation="2.0"/><feColorMatrix in="blurOut" result="blurOut2" type="matrix" values="0 0 0 0 0 0 0 0 0 0 0 0 0 0 0 0 0 0 .4 0"/><feOffset dx="4.0" dy="4.0" in="blurOut2" result="blurOut3"/><feBlend in="SourceGraphic" in2="blurOut3" mode="normal"/></filter></defs><g><!--MD5=[55c0e9828c9904b879e516431a5f4c99]
class de.fraunhofer.aisec.cpg.graph.IfStatement--><a href="IfStatement.html" target="_top" title="IfStatement.html" xlink:actuate="onRequest" xlink:href="IfStatement.html" xlink:show="new" xlink:title="IfStatement.html" xlink:type="simple"><rect fill="#FEFECE" filter="url(#f10olub3xpz97l)" height="199.5938" id="de.fraunhofer.aisec.cpg.graph.IfStatement" style="stroke: #A80036; stroke-width: 1.5;" width="264" x="6" y="106"/><ellipse cx="61.25" cy="124.9688" fill="#ADD1B2" rx="11" ry="11" style="stroke: #A80036; stroke-width: 1.0;"/><path d="M64.2188,130.6094 Q63.6406,130.9063 63,131.0469 Q62.3594,131.2031 61.6563,131.2031 Q59.1563,131.2031 57.8281,129.5625 Q56.5156,127.9063 56.5156,124.7813 Q56.5156,121.6563 57.8281,120 Q59.1563,118.3438 61.6563,118.3438 Q62.3594,118.3438 63,118.5 Q63.6563,118.6563 64.2188,118.9531 L64.2188,121.6719 Q63.5938,121.0938 63,120.8281 Q62.4063,120.5469 61.7813,120.5469 Q60.4375,120.5469 59.75,121.625 Q59.0625,122.6875 59.0625,124.7813 Q59.0625,126.875 59.75,127.9531 Q60.4375,129.0156 61.7813,129.0156 Q62.4063,129.0156 63,128.75 Q63.5938,128.4688 64.2188,127.8906 L64.2188,130.6094 Z "/><text fill="#000000" font-family="sans-serif" font-size="14" lengthAdjust="spacingAndGlyphs" textLength="79" x="114.75" y="123.9951">IfStatement</text><text fill="#000000" font-family="sans-serif" font-size="10" lengthAdjust="spacingAndGlyphs" textLength="145" x="81.75" y="136.5791">de.fraunhofer.aisec.cpg.graph</text><line style="stroke: #A80036; stroke-width: 1.5;" x1="7" x2="269" y1="143.9375" y2="143.9375"/><ellipse cx="17" cy="154.9375" fill="#84BE84" rx="3" ry="3" style="stroke: #038048; stroke-width: 1.0;"/><text fill="#000000" font-family="sans-serif" font-size="11" lengthAdjust="spacingAndGlyphs" textLength="150" x="26" y="158.1479">getCondition(): Expression</text><ellipse cx="17" cy="167.7422" fill="#84BE84" rx="3" ry="3" style="stroke: #038048; stroke-width: 1.0;"/><text fill="#000000" font-family="sans-serif" font-size="11" lengthAdjust="spacingAndGlyphs" textLength="173" x="26" y="170.9526">setCondition(Expression): void</text><ellipse cx="17" cy="180.5469" fill="#84BE84" rx="3" ry="3" style="stroke: #038048; stroke-width: 1.0;"/><text fill="#000000" font-family="sans-serif" font-size="11" lengthAdjust="spacingAndGlyphs" textLength="202" x="26" y="183.7573">getInitializerStatement(): Statement</text><ellipse cx="17" cy="193.3516" fill="#84BE84" rx="3" ry="3" style="stroke: #038048; stroke-width: 1.0;"/><text fill="#000000" font-family="sans-serif" font-size="11" lengthAdjust="spacingAndGlyphs" textLength="225" x="26" y="196.562">setInitializerStatement(Statement): void</text><ellipse cx="17" cy="206.1563" fill="#84BE84" rx="3" ry="3" style="stroke: #038048; stroke-width: 1.0;"/><text fill="#000000" font-family="sans-serif" font-size="11" lengthAdjust="spacingAndGlyphs" textLength="215" x="26" y="209.3667">getConditionDeclaration(): Declaration</text><ellipse cx="17" cy="218.9609" fill="#84BE84" rx="3" ry="3" style="stroke: #038048; stroke-width: 1.0;"/><text fill="#000000" font-family="sans-serif" font-size="11" lengthAdjust="spacingAndGlyphs" textLength="238" x="26" y="222.1714">setConditionDeclaration(Declaration): void</text><ellipse cx="17" cy="231.7656" fill="#84BE84" rx="3" ry="3" style="stroke: #038048; stroke-width: 1.0;"/><text fill="#000000" font-family="sans-serif" font-size="11" lengthAdjust="spacingAndGlyphs" textLength="167" x="26" y="234.9761">isConstExpression(): boolean</text><ellipse cx="17" cy="244.5703" fill="#84BE84" rx="3" ry="3" style="stroke: #038048; stroke-width: 1.0;"/><text fill="#000000" font-family="sans-serif" font-size="11" lengthAdjust="spacingAndGlyphs" textLength="198" x="26" y="247.7808">setConstExpression(boolean): void</text><ellipse cx="17" cy="257.375" fill="#84BE84" rx="3" ry="3" style="stroke: #038048; stroke-width: 1.0;"/><text fill="#000000" font-family="sans-serif" font-size="11" lengthAdjust="spacingAndGlyphs" textLength="180" x="26" y="260.5854">getThenStatement(): Statement</text><ellipse cx="17" cy="270.1797" fill="#84BE84" rx="3" ry="3" style="stroke: #038048; stroke-width: 1.0;"/><text fill="#000000" font-family="sans-serif" font-size="11" lengthAdjust="spacingAndGlyphs" textLength="203" x="26" y="273.3901">setThenStatement(Statement): void</text><ellipse cx="17" cy="282.9844" fill="#84BE84" rx="3" ry="3" style="stroke: #038048; stroke-width: 1.0;"/><text fill="#000000" font-family="sans-serif" font-size="11" lengthAdjust="spacingAndGlyphs" textLength="176" x="26" y="286.1948">getElseStatement(): Statement</text><ellipse cx="17" cy="295.7891" fill="#84BE84" rx="3" ry="3" style="stroke: #038048; stroke-width: 1.0;"/><text fill="#000000" font-family="sans-serif" font-size="11" lengthAdjust="spacingAndGlyphs" textLength="199" x="26" y="298.9995">setElseStatement(Statement): void</text></a><!--MD5=[9566dda5ff1f2bf4890c28c79b7fba98]
class de.fraunhofer.aisec.cpg.graph.Statement--><a href="Statement.html" target="_top" title="Statement.html" xlink:actuate="onRequest" xlink:href="Statement.html" xlink:show="new" xlink:title="Statement.html" xlink:type="simple"><rect fill="#FEFECE" filter="url(#f10olub3xpz97l)" height="37.9375" id="de.fraunhofer.aisec.cpg.graph.Statement" style="stroke: #A80036; stroke-width: 1.5;" width="177" x="49.5" y="8"/><ellipse cx="64.5" cy="26.9688" fill="#ADD1B2" rx="11" ry="11" style="stroke: #A80036; stroke-width: 1.0;"/><path d="M67.4688,32.6094 Q66.8906,32.9063 66.25,33.0469 Q65.6094,33.2031 64.9063,33.2031 Q62.4063,33.2031 61.0781,31.5625 Q59.7656,29.9063 59.7656,26.7813 Q59.7656,23.6563 61.0781,22 Q62.4063,20.3438 64.9063,20.3438 Q65.6094,20.3438 66.25,20.5 Q66.9063,20.6563 67.4688,20.9531 L67.4688,23.6719 Q66.8438,23.0938 66.25,22.8281 Q65.6563,22.5469 65.0313,22.5469 Q63.6875,22.5469 63,23.625 Q62.3125,24.6875 62.3125,26.7813 Q62.3125,28.875 63,29.9531 Q63.6875,31.0156 65.0313,31.0156 Q65.6563,31.0156 66.25,30.75 Q66.8438,30.4688 67.4688,29.8906 L67.4688,32.6094 Z "/><text fill="#000000" font-family="sans-serif" font-size="14" lengthAdjust="spacingAndGlyphs" textLength="72" x="115" y="25.9951">Statement</text><text fill="#000000" font-family="sans-serif" font-size="10" lengthAdjust="spacingAndGlyphs" textLength="145" x="78.5" y="38.5791">de.fraunhofer.aisec.cpg.graph</text></a><!--MD5=[72e9f8744775499390d183246287c7a6]
reverse link de.fraunhofer.aisec.cpg.graph.Statement to de.fraunhofer.aisec.cpg.graph.IfStatement--><path d="M138,66.37 C138,78.15 138,91.69 138,105.6 " fill="none" id="de.fraunhofer.aisec.cpg.graph.Statement&lt;-de.fraunhofer.aisec.cpg.graph.IfStatement" style="stroke: #A80036; stroke-width: 1.0;"/><polygon fill="none" points="131,66.28,138,46.28,145,66.28,131,66.28" style="stroke: #A80036; stroke-width: 1.0;"/><text fill="#888888" font-family="sans-serif" font-size="10" lengthAdjust="spacingAndGlyphs" textLength="186" x="51" y="325.2822">UMLDoclet 2.0.9, PlantUML 1.2020.08</text><!--MD5=[bffc8434521ea64e8d0bb8bb157b644b]
@startuml
    set namespaceSeparator none
    hide empty fields
    hide empty methods

    class "<size:14>IfStatement\n<size:10>de.fraunhofer.aisec.cpg.graph" as de.fraunhofer.aisec.cpg.graph.IfStatement [[IfStatement.html]] {
        +getCondition(): Expression
        +setCondition(Expression): void
        +getInitializerStatement(): Statement
        +setInitializerStatement(Statement): void
        +getConditionDeclaration(): Declaration
        +setConditionDeclaration(Declaration): void
        +isConstExpression(): boolean
        +setConstExpression(boolean): void
        +getThenStatement(): Statement
        +setThenStatement(Statement): void
        +getElseStatement(): Statement
        +setElseStatement(Statement): void
    }

    class "<size:14>Statement\n<size:10>de.fraunhofer.aisec.cpg.graph" as de.fraunhofer.aisec.cpg.graph.Statement [[Statement.html]]

    de.fraunhofer.aisec.cpg.graph.Statement <|- - de.fraunhofer.aisec.cpg.graph.IfStatement

    center footer UMLDoclet 2.0.9, PlantUML 1.2020.08
@enduml

PlantUML version 1.2020.08(Sun Apr 26 16:08:22 CEST 2020)
(APACHE source distribution)
Java Runtime: OpenJDK Runtime Environment
JVM: OpenJDK 64-Bit Server VM
Java Version: 12.0.2+9-Ubuntu-118.04
Operating System: Linux
Default Encoding: UTF-8
Language: en
Country: US
--></g></svg>