<?xml version="1.0" encoding="UTF-8" standalone="no"?><svg xmlns="http://www.w3.org/2000/svg" xmlns:xlink="http://www.w3.org/1999/xlink" contentScriptType="application/ecmascript" contentStyleType="text/css" height="235px" preserveAspectRatio="none" style="width:280px;height:235px;" version="1.1" viewBox="0 0 280 235" width="280px" zoomAndPan="magnify"><defs><filter height="300%" id="f1uc2dot0btnsx" width="300%" x="-1" y="-1"><feGaussianBlur result="blurOut" stdDeviation="2.0"/><feColorMatrix in="blurOut" result="blurOut2" type="matrix" values="0 0 0 0 0 0 0 0 0 0 0 0 0 0 0 0 0 0 .4 0"/><feOffset dx="4.0" dy="4.0" in="blurOut2" result="blurOut3"/><feBlend in="SourceGraphic" in2="blurOut3" mode="normal"/></filter></defs><g><!--MD5=[cac35da6dd19ca957a4e0aada5b4d172]
class de.fraunhofer.aisec.cpg.graph.IncludeDeclaration--><a href="IncludeDeclaration.html" target="_top" title="IncludeDeclaration.html" xlink:actuate="onRequest" xlink:href="IncludeDeclaration.html" xlink:show="new" xlink:title="IncludeDeclaration.html" xlink:type="simple"><rect fill="#FEFECE" filter="url(#f1uc2dot0btnsx)" height="97.1563" id="de.fraunhofer.aisec.cpg.graph.IncludeDeclaration" style="stroke: #A80036; stroke-width: 1.5;" width="263" x="6" y="106"/><ellipse cx="60.75" cy="124.9688" fill="#ADD1B2" rx="11" ry="11" style="stroke: #A80036; stroke-width: 1.0;"/><path d="M63.7188,130.6094 Q63.1406,130.9063 62.5,131.0469 Q61.8594,131.2031 61.1563,131.2031 Q58.6563,131.2031 57.3281,129.5625 Q56.0156,127.9063 56.0156,124.7813 Q56.0156,121.6563 57.3281,120 Q58.6563,118.3438 61.1563,118.3438 Q61.8594,118.3438 62.5,118.5 Q63.1563,118.6563 63.7188,118.9531 L63.7188,121.6719 Q63.0938,121.0938 62.5,120.8281 Q61.9063,120.5469 61.2813,120.5469 Q59.9375,120.5469 59.25,121.625 Q58.5625,122.6875 58.5625,124.7813 Q58.5625,126.875 59.25,127.9531 Q59.9375,129.0156 61.2813,129.0156 Q61.9063,129.0156 62.5,128.75 Q63.0938,128.4688 63.7188,127.8906 L63.7188,130.6094 Z "/><text fill="#000000" font-family="sans-serif" font-size="14" lengthAdjust="spacingAndGlyphs" textLength="128" x="89.75" y="123.9951">IncludeDeclaration</text><text fill="#000000" font-family="sans-serif" font-size="10" lengthAdjust="spacingAndGlyphs" textLength="145" x="81.25" y="136.5791">de.fraunhofer.aisec.cpg.graph</text><line style="stroke: #A80036; stroke-width: 1.5;" x1="7" x2="268" y1="143.9375" y2="143.9375"/><ellipse cx="17" cy="154.9375" fill="#84BE84" rx="3" ry="3" style="stroke: #038048; stroke-width: 1.0;"/><text fill="#000000" font-family="sans-serif" font-size="11" lengthAdjust="spacingAndGlyphs" textLength="223" x="26" y="158.1479">getIncludes(): List&lt;IncludeDeclaration&gt;</text><ellipse cx="17" cy="167.7422" fill="#84BE84" rx="3" ry="3" style="stroke: #038048; stroke-width: 1.0;"/><text fill="#000000" font-family="sans-serif" font-size="11" lengthAdjust="spacingAndGlyphs" textLength="237" x="26" y="170.9526">getProblems(): List&lt;ProblemDeclaration&gt;</text><ellipse cx="17" cy="180.5469" fill="#84BE84" rx="3" ry="3" style="stroke: #038048; stroke-width: 1.0;"/><text fill="#000000" font-family="sans-serif" font-size="11" lengthAdjust="spacingAndGlyphs" textLength="119" x="26" y="183.7573">getFilename(): String</text><ellipse cx="17" cy="193.3516" fill="#84BE84" rx="3" ry="3" style="stroke: #038048; stroke-width: 1.0;"/><text fill="#000000" font-family="sans-serif" font-size="11" lengthAdjust="spacingAndGlyphs" textLength="142" x="26" y="196.562">setFilename(String): void</text></a><!--MD5=[143931fe148168bbe79d8855ff7d1cb7]
class de.fraunhofer.aisec.cpg.graph.Declaration--><a href="Declaration.html" target="_top" title="Declaration.html" xlink:actuate="onRequest" xlink:href="Declaration.html" xlink:show="new" xlink:title="Declaration.html" xlink:type="simple"><rect fill="#FEFECE" filter="url(#f1uc2dot0btnsx)" height="37.9375" id="de.fraunhofer.aisec.cpg.graph.Declaration" style="stroke: #A80036; stroke-width: 1.5;" width="177" x="49" y="8"/><ellipse cx="64" cy="26.9688" fill="#ADD1B2" rx="11" ry="11" style="stroke: #A80036; stroke-width: 1.0;"/><path d="M66.9688,32.6094 Q66.3906,32.9063 65.75,33.0469 Q65.1094,33.2031 64.4063,33.2031 Q61.9063,33.2031 60.5781,31.5625 Q59.2656,29.9063 59.2656,26.7813 Q59.2656,23.6563 60.5781,22 Q61.9063,20.3438 64.4063,20.3438 Q65.1094,20.3438 65.75,20.5 Q66.4063,20.6563 66.9688,20.9531 L66.9688,23.6719 Q66.3438,23.0938 65.75,22.8281 Q65.1563,22.5469 64.5313,22.5469 Q63.1875,22.5469 62.5,23.625 Q61.8125,24.6875 61.8125,26.7813 Q61.8125,28.875 62.5,29.9531 Q63.1875,31.0156 64.5313,31.0156 Q65.1563,31.0156 65.75,30.75 Q66.3438,30.4688 66.9688,29.8906 L66.9688,32.6094 Z "/><text fill="#000000" font-family="sans-serif" font-size="14" lengthAdjust="spacingAndGlyphs" textLength="78" x="111.5" y="25.9951">Declaration</text><text fill="#000000" font-family="sans-serif" font-size="10" lengthAdjust="spacingAndGlyphs" textLength="145" x="78" y="38.5791">de.fraunhofer.aisec.cpg.graph</text></a><!--MD5=[bf471ed8efad9474aa256304f9e9e137]
reverse link de.fraunhofer.aisec.cpg.graph.Declaration to de.fraunhofer.aisec.cpg.graph.IncludeDeclaration--><path d="M137.5,66.52 C137.5,78.97 137.5,92.93 137.5,105.96 " fill="none" id="de.fraunhofer.aisec.cpg.graph.Declaration&lt;-de.fraunhofer.aisec.cpg.graph.IncludeDeclaration" style="stroke: #A80036; stroke-width: 1.0;"/><polygon fill="none" points="130.5,66.25,137.5,46.25,144.5,66.25,130.5,66.25" style="stroke: #A80036; stroke-width: 1.0;"/><text fill="#888888" font-family="sans-serif" font-size="10" lengthAdjust="spacingAndGlyphs" textLength="186" x="50.5" y="222.2822">UMLDoclet 2.0.9, PlantUML 1.2020.08</text><!--MD5=[8e03c20688223633fb1f340068570908]
@startuml
    set namespaceSeparator none
    hide empty fields
    hide empty methods

    class "<size:14>IncludeDeclaration\n<size:10>de.fraunhofer.aisec.cpg.graph" as de.fraunhofer.aisec.cpg.graph.IncludeDeclaration [[IncludeDeclaration.html]] {
        +getIncludes(): List<IncludeDeclaration>
        +getProblems(): List<ProblemDeclaration>
        +getFilename(): String
        +setFilename(String): void
    }

    class "<size:14>Declaration\n<size:10>de.fraunhofer.aisec.cpg.graph" as de.fraunhofer.aisec.cpg.graph.Declaration [[Declaration.html]]

    de.fraunhofer.aisec.cpg.graph.Declaration <|- - de.fraunhofer.aisec.cpg.graph.IncludeDeclaration

    center footer UMLDoclet 2.0.9, PlantUML 1.2020.08
@enduml

PlantUML version 1.2020.08(Sun Apr 26 16:08:22 CEST 2020)
(APACHE source distribution)
Java Runtime: OpenJDK Runtime Environment
JVM: OpenJDK 64-Bit Server VM
Java Version: 12.0.2+9-Ubuntu-118.04
Operating System: Linux
Default Encoding: UTF-8
Language: en
Country: US
--></g></svg>