<?xml version="1.0" encoding="UTF-8" standalone="no"?><svg xmlns="http://www.w3.org/2000/svg" xmlns:xlink="http://www.w3.org/1999/xlink" contentScriptType="application/ecmascript" contentStyleType="text/css" height="210px" preserveAspectRatio="none" style="width:211px;height:210px;" version="1.1" viewBox="0 0 211 210" width="211px" zoomAndPan="magnify"><defs><filter height="300%" id="f1mg1rcvchkzh5" width="300%" x="-1" y="-1"><feGaussianBlur result="blurOut" stdDeviation="2.0"/><feColorMatrix in="blurOut" result="blurOut2" type="matrix" values="0 0 0 0 0 0 0 0 0 0 0 0 0 0 0 0 0 0 .4 0"/><feOffset dx="4.0" dy="4.0" in="blurOut2" result="blurOut3"/><feBlend in="SourceGraphic" in2="blurOut3" mode="normal"/></filter></defs><g><!--MD5=[74d9b1f77da5f0415a79d2bdaabd4032]
class de.fraunhofer.aisec.cpg.graph.Literal--><a href="Literal.html" target="_top" title="Literal.html" xlink:actuate="onRequest" xlink:href="Literal.html" xlink:show="new" xlink:title="Literal.html" xlink:type="simple"><rect fill="#FEFECE" filter="url(#f1mg1rcvchkzh5)" height="71.5469" id="de.fraunhofer.aisec.cpg.graph.Literal" style="stroke: #A80036; stroke-width: 1.5;" width="188" x="6" y="106"/><ellipse cx="21" cy="124.9688" fill="#ADD1B2" rx="11" ry="11" style="stroke: #A80036; stroke-width: 1.0;"/><path d="M23.9688,130.6094 Q23.3906,130.9063 22.75,131.0469 Q22.1094,131.2031 21.4063,131.2031 Q18.9063,131.2031 17.5781,129.5625 Q16.2656,127.9063 16.2656,124.7813 Q16.2656,121.6563 17.5781,120 Q18.9063,118.3438 21.4063,118.3438 Q22.1094,118.3438 22.75,118.5 Q23.4063,118.6563 23.9688,118.9531 L23.9688,121.6719 Q23.3438,121.0938 22.75,120.8281 Q22.1563,120.5469 21.5313,120.5469 Q20.1875,120.5469 19.5,121.625 Q18.8125,122.6875 18.8125,124.7813 Q18.8125,126.875 19.5,127.9531 Q20.1875,129.0156 21.5313,129.0156 Q22.1563,129.0156 22.75,128.75 Q23.3438,128.4688 23.9688,127.8906 L23.9688,130.6094 Z "/><text fill="#000000" font-family="sans-serif" font-size="14" lengthAdjust="spacingAndGlyphs" textLength="40" x="87.5" y="123.9951">Literal</text><text fill="#000000" font-family="sans-serif" font-size="10" lengthAdjust="spacingAndGlyphs" textLength="145" x="35" y="136.5791">de.fraunhofer.aisec.cpg.graph</text><rect fill="#FFFFFF" height="15.9688" style="stroke: #000000; stroke-width: 1.0; stroke-dasharray: 2.0,2.0;" width="9" x="188" y="103"/><text fill="#000000" font-family="sans-serif" font-size="12" font-style="italic" lengthAdjust="spacingAndGlyphs" textLength="7" x="189" y="115.1387">T</text><line style="stroke: #A80036; stroke-width: 1.5;" x1="7" x2="193" y1="143.9375" y2="143.9375"/><ellipse cx="17" cy="154.9375" fill="#84BE84" rx="3" ry="3" style="stroke: #038048; stroke-width: 1.0;"/><text fill="#000000" font-family="sans-serif" font-size="11" lengthAdjust="spacingAndGlyphs" textLength="72" x="26" y="158.1479">getValue(): T</text><ellipse cx="17" cy="167.7422" fill="#84BE84" rx="3" ry="3" style="stroke: #038048; stroke-width: 1.0;"/><text fill="#000000" font-family="sans-serif" font-size="11" lengthAdjust="spacingAndGlyphs" textLength="95" x="26" y="170.9526">setValue(T): void</text></a><!--MD5=[f602dd8d46e7ba17465d0a1e20507055]
class de.fraunhofer.aisec.cpg.graph.Expression--><a href="Expression.html" target="_top" title="Expression.html" xlink:actuate="onRequest" xlink:href="Expression.html" xlink:show="new" xlink:title="Expression.html" xlink:type="simple"><rect fill="#FEFECE" filter="url(#f1mg1rcvchkzh5)" height="37.9375" id="de.fraunhofer.aisec.cpg.graph.Expression" style="stroke: #A80036; stroke-width: 1.5;" width="177" x="11.5" y="8"/><ellipse cx="26.5" cy="26.9688" fill="#ADD1B2" rx="11" ry="11" style="stroke: #A80036; stroke-width: 1.0;"/><path d="M29.4688,32.6094 Q28.8906,32.9063 28.25,33.0469 Q27.6094,33.2031 26.9063,33.2031 Q24.4063,33.2031 23.0781,31.5625 Q21.7656,29.9063 21.7656,26.7813 Q21.7656,23.6563 23.0781,22 Q24.4063,20.3438 26.9063,20.3438 Q27.6094,20.3438 28.25,20.5 Q28.9063,20.6563 29.4688,20.9531 L29.4688,23.6719 Q28.8438,23.0938 28.25,22.8281 Q27.6563,22.5469 27.0313,22.5469 Q25.6875,22.5469 25,23.625 Q24.3125,24.6875 24.3125,26.7813 Q24.3125,28.875 25,29.9531 Q25.6875,31.0156 27.0313,31.0156 Q27.6563,31.0156 28.25,30.75 Q28.8438,30.4688 29.4688,29.8906 L29.4688,32.6094 Z "/><text fill="#000000" font-family="sans-serif" font-size="14" lengthAdjust="spacingAndGlyphs" textLength="76" x="75" y="25.9951">Expression</text><text fill="#000000" font-family="sans-serif" font-size="10" lengthAdjust="spacingAndGlyphs" textLength="145" x="40.5" y="38.5791">de.fraunhofer.aisec.cpg.graph</text></a><!--MD5=[5765411711830db471bee36669caa2e8]
reverse link de.fraunhofer.aisec.cpg.graph.Expression to de.fraunhofer.aisec.cpg.graph.Literal--><path d="M100,66.3 C100,79 100,93.08 100,105.56 " fill="none" id="de.fraunhofer.aisec.cpg.graph.Expression&lt;-de.fraunhofer.aisec.cpg.graph.Literal" style="stroke: #A80036; stroke-width: 1.0;"/><polygon fill="none" points="93,66.16,100,46.16,107,66.16,93,66.16" style="stroke: #A80036; stroke-width: 1.0;"/><text fill="#888888" font-family="sans-serif" font-size="10" lengthAdjust="spacingAndGlyphs" textLength="186" x="13" y="197.2822">UMLDoclet 2.0.9, PlantUML 1.2020.08</text><!--MD5=[cc1c381558649dc6ca9b2d312cd9884e]
@startuml
    set namespaceSeparator none
    hide empty fields
    hide empty methods

    class "<size:14>Literal\n<size:10>de.fraunhofer.aisec.cpg.graph" as de.fraunhofer.aisec.cpg.graph.Literal<T> [[Literal.html]] {
        +getValue(): T
        +setValue(T): void
    }

    class "<size:14>Expression\n<size:10>de.fraunhofer.aisec.cpg.graph" as de.fraunhofer.aisec.cpg.graph.Expression [[Expression.html]]

    de.fraunhofer.aisec.cpg.graph.Expression <|- - de.fraunhofer.aisec.cpg.graph.Literal

    center footer UMLDoclet 2.0.9, PlantUML 1.2020.08
@enduml

PlantUML version 1.2020.08(Sun Apr 26 16:08:22 CEST 2020)
(APACHE source distribution)
Java Runtime: OpenJDK Runtime Environment
JVM: OpenJDK 64-Bit Server VM
Java Version: 12.0.2+9-Ubuntu-118.04
Operating System: Linux
Default Encoding: UTF-8
Language: en
Country: US
--></g></svg>