<?xml version="1.0" encoding="UTF-8" standalone="no"?><svg xmlns="http://www.w3.org/2000/svg" xmlns:xlink="http://www.w3.org/1999/xlink" contentScriptType="application/ecmascript" contentStyleType="text/css" height="341px" preserveAspectRatio="none" style="width:624px;height:341px;" version="1.1" viewBox="0 0 624 341" width="624px" zoomAndPan="magnify"><defs><filter height="300%" id="f15vcifk04fkxw" width="300%" x="-1" y="-1"><feGaussianBlur result="blurOut" stdDeviation="2.0"/><feColorMatrix in="blurOut" result="blurOut2" type="matrix" values="0 0 0 0 0 0 0 0 0 0 0 0 0 0 0 0 0 0 .4 0"/><feOffset dx="4.0" dy="4.0" in="blurOut2" result="blurOut3"/><feBlend in="SourceGraphic" in2="blurOut3" mode="normal"/></filter></defs><g><!--MD5=[c3f01cc536f05beb1e083e60182e6f35]
class de.fraunhofer.aisec.cpg.graph.MemberExpression--><a href="MemberExpression.html" target="_top" title="MemberExpression.html" xlink:actuate="onRequest" xlink:href="MemberExpression.html" xlink:show="new" xlink:title="MemberExpression.html" xlink:type="simple"><rect fill="#FEFECE" filter="url(#f15vcifk04fkxw)" height="169.1797" id="de.fraunhofer.aisec.cpg.graph.MemberExpression" style="stroke: #A80036; stroke-width: 1.5;" width="397" x="56" y="140"/><ellipse cx="177.75" cy="158.9688" fill="#ADD1B2" rx="11" ry="11" style="stroke: #A80036; stroke-width: 1.0;"/><path d="M180.7188,164.6094 Q180.1406,164.9063 179.5,165.0469 Q178.8594,165.2031 178.1563,165.2031 Q175.6563,165.2031 174.3281,163.5625 Q173.0156,161.9063 173.0156,158.7813 Q173.0156,155.6563 174.3281,154 Q175.6563,152.3438 178.1563,152.3438 Q178.8594,152.3438 179.5,152.5 Q180.1563,152.6563 180.7188,152.9531 L180.7188,155.6719 Q180.0938,155.0938 179.5,154.8281 Q178.9063,154.5469 178.2813,154.5469 Q176.9375,154.5469 176.25,155.625 Q175.5625,156.6875 175.5625,158.7813 Q175.5625,160.875 176.25,161.9531 Q176.9375,163.0156 178.2813,163.0156 Q178.9063,163.0156 179.5,162.75 Q180.0938,162.4688 180.7188,161.8906 L180.7188,164.6094 Z "/><text fill="#000000" font-family="sans-serif" font-size="14" lengthAdjust="spacingAndGlyphs" textLength="133" x="204.25" y="157.9951">MemberExpression</text><text fill="#000000" font-family="sans-serif" font-size="10" lengthAdjust="spacingAndGlyphs" textLength="145" x="198.25" y="170.5791">de.fraunhofer.aisec.cpg.graph</text><line style="stroke: #A80036; stroke-width: 1.5;" x1="57" x2="452" y1="177.9375" y2="177.9375"/><polygon fill="none" points="67,183.9375,71,187.9375,67,191.9375,63,187.9375" style="stroke: #B38D22; stroke-width: 1.0;"/><text fill="#000000" font-family="sans-serif" font-size="11" lengthAdjust="spacingAndGlyphs" textLength="85" x="76" y="192.1479">member: Node</text><line style="stroke: #A80036; stroke-width: 1.5;" x1="57" x2="452" y1="198.7422" y2="198.7422"/><ellipse cx="67" cy="209.7422" fill="#84BE84" rx="3" ry="3" style="stroke: #038048; stroke-width: 1.0;"/><text fill="#000000" font-family="sans-serif" font-size="11" lengthAdjust="spacingAndGlyphs" textLength="92" x="76" y="212.9526">getBase(): Node</text><ellipse cx="67" cy="222.5469" fill="#84BE84" rx="3" ry="3" style="stroke: #038048; stroke-width: 1.0;"/><text fill="#000000" font-family="sans-serif" font-size="11" lengthAdjust="spacingAndGlyphs" textLength="115" x="76" y="225.7573">setBase(Node): void</text><ellipse cx="67" cy="235.3516" fill="#84BE84" rx="3" ry="3" style="stroke: #038048; stroke-width: 1.0;"/><text fill="#000000" font-family="sans-serif" font-size="11" lengthAdjust="spacingAndGlyphs" textLength="109" x="76" y="238.562">getMember(): Node</text><ellipse cx="67" cy="248.1563" fill="#84BE84" rx="3" ry="3" style="stroke: #038048; stroke-width: 1.0;"/><text fill="#000000" font-family="sans-serif" font-size="11" lengthAdjust="spacingAndGlyphs" textLength="132" x="76" y="251.3667">setMember(Node): void</text><ellipse cx="67" cy="260.9609" fill="#84BE84" rx="3" ry="3" style="stroke: #038048; stroke-width: 1.0;"/><text fill="#000000" font-family="sans-serif" font-size="11" lengthAdjust="spacingAndGlyphs" textLength="254" x="76" y="264.1714">typeChanged(HasType, HasType, Type): void</text><ellipse cx="67" cy="273.7656" fill="#84BE84" rx="3" ry="3" style="stroke: #038048; stroke-width: 1.0;"/><text fill="#000000" font-family="sans-serif" font-size="11" lengthAdjust="spacingAndGlyphs" textLength="371" x="76" y="276.9761">possibleSubTypesChanged(HasType, HasType, Set&lt;Type&gt;): void</text><ellipse cx="67" cy="286.5703" fill="#84BE84" rx="3" ry="3" style="stroke: #038048; stroke-width: 1.0;"/><text fill="#000000" font-family="sans-serif" font-size="11" lengthAdjust="spacingAndGlyphs" textLength="180" x="76" y="289.7808">setWritingAccess(boolean): void</text><ellipse cx="67" cy="299.375" fill="#84BE84" rx="3" ry="3" style="stroke: #038048; stroke-width: 1.0;"/><text fill="#000000" font-family="sans-serif" font-size="11" lengthAdjust="spacingAndGlyphs" textLength="149" x="76" y="302.5854">isWritingAccess(): boolean</text></a><!--MD5=[f602dd8d46e7ba17465d0a1e20507055]
class de.fraunhofer.aisec.cpg.graph.Expression--><a href="Expression.html" target="_top" title="Expression.html" xlink:actuate="onRequest" xlink:href="Expression.html" xlink:show="new" xlink:title="Expression.html" xlink:type="simple"><rect fill="#FEFECE" filter="url(#f15vcifk04fkxw)" height="37.9375" id="de.fraunhofer.aisec.cpg.graph.Expression" style="stroke: #A80036; stroke-width: 1.5;" width="177" x="6" y="25"/><ellipse cx="21" cy="43.9688" fill="#ADD1B2" rx="11" ry="11" style="stroke: #A80036; stroke-width: 1.0;"/><path d="M23.9688,49.6094 Q23.3906,49.9063 22.75,50.0469 Q22.1094,50.2031 21.4063,50.2031 Q18.9063,50.2031 17.5781,48.5625 Q16.2656,46.9063 16.2656,43.7813 Q16.2656,40.6563 17.5781,39 Q18.9063,37.3438 21.4063,37.3438 Q22.1094,37.3438 22.75,37.5 Q23.4063,37.6563 23.9688,37.9531 L23.9688,40.6719 Q23.3438,40.0938 22.75,39.8281 Q22.1563,39.5469 21.5313,39.5469 Q20.1875,39.5469 19.5,40.625 Q18.8125,41.6875 18.8125,43.7813 Q18.8125,45.875 19.5,46.9531 Q20.1875,48.0156 21.5313,48.0156 Q22.1563,48.0156 22.75,47.75 Q23.3438,47.4688 23.9688,46.8906 L23.9688,49.6094 Z "/><text fill="#000000" font-family="sans-serif" font-size="14" lengthAdjust="spacingAndGlyphs" textLength="76" x="69.5" y="42.9951">Expression</text><text fill="#000000" font-family="sans-serif" font-size="10" lengthAdjust="spacingAndGlyphs" textLength="145" x="35" y="55.5791">de.fraunhofer.aisec.cpg.graph</text></a><!--MD5=[4ec8a2121f068e962618cb9a044486ac]
class de.fraunhofer.aisec.cpg.graph.HasType.TypeListener--><a href="HasType.TypeListener.html" target="_top" title="HasType.TypeListener.html" xlink:actuate="onRequest" xlink:href="HasType.TypeListener.html" xlink:show="new" xlink:title="HasType.TypeListener.html" xlink:type="simple"><rect fill="#FEFECE" filter="url(#f15vcifk04fkxw)" height="71.5469" id="de.fraunhofer.aisec.cpg.graph.HasType.TypeListener" style="stroke: #A80036; stroke-width: 1.5;" width="395" x="218" y="8"/><ellipse cx="333.75" cy="26.9688" fill="#B4A7E5" rx="11" ry="11" style="stroke: #A80036; stroke-width: 1.0;"/><path d="M329.6719,22.7344 L329.6719,20.5781 L337.0625,20.5781 L337.0625,22.7344 L334.5938,22.7344 L334.5938,30.8125 L337.0625,30.8125 L337.0625,32.9688 L329.6719,32.9688 L329.6719,30.8125 L332.1406,30.8125 L332.1406,22.7344 L329.6719,22.7344 Z "/><text fill="#000000" font-family="sans-serif" font-size="14" font-style="italic" lengthAdjust="spacingAndGlyphs" textLength="155" x="354.25" y="25.9951">HasType.TypeListener</text><text fill="#000000" font-family="sans-serif" font-size="10" font-style="italic" lengthAdjust="spacingAndGlyphs" textLength="148" x="357.75" y="38.5791">de.fraunhofer.aisec.cpg.graph</text><line style="stroke: #A80036; stroke-width: 1.5;" x1="219" x2="612" y1="45.9375" y2="45.9375"/><ellipse cx="229" cy="56.9375" fill="#84BE84" rx="3" ry="3" style="stroke: #038048; stroke-width: 1.0;"/><text fill="#000000" font-family="sans-serif" font-size="11" font-style="italic" lengthAdjust="spacingAndGlyphs" textLength="257" x="238" y="60.1479">typeChanged(HasType, HasType, Type): void</text><ellipse cx="229" cy="69.7422" fill="#84BE84" rx="3" ry="3" style="stroke: #038048; stroke-width: 1.0;"/><text fill="#000000" font-family="sans-serif" font-size="11" font-style="italic" lengthAdjust="spacingAndGlyphs" textLength="369" x="238" y="72.9526">possibleSubTypesChanged(HasType, HasType, Set&lt;Type&gt;): void</text></a><!--MD5=[975ddd1e03f99071a40a63ef3b0e1b86]
reverse link de.fraunhofer.aisec.cpg.graph.Expression to de.fraunhofer.aisec.cpg.graph.MemberExpression--><path d="M124.24,78.18 C139.87,95.62 159.81,117.86 179.36,139.67 " fill="none" id="de.fraunhofer.aisec.cpg.graph.Expression&lt;-de.fraunhofer.aisec.cpg.graph.MemberExpression" style="stroke: #A80036; stroke-width: 1.0;"/><polygon fill="none" points="118.86,82.66,110.72,63.1,129.28,73.32,118.86,82.66" style="stroke: #A80036; stroke-width: 1.0;"/><!--MD5=[a85f8d678609fe4c9644197513643d59]
reverse link de.fraunhofer.aisec.cpg.graph.HasType.TypeListener to de.fraunhofer.aisec.cpg.graph.MemberExpression--><path d="M370.21,95.21 C357.66,109.13 343.68,124.63 329.9,139.9 " fill="none" id="de.fraunhofer.aisec.cpg.graph.HasType.TypeListener&lt;-de.fraunhofer.aisec.cpg.graph.MemberExpression" style="stroke: #A80036; stroke-width: 1.0; stroke-dasharray: 7.0,7.0;"/><polygon fill="none" points="365.1,90.43,383.69,80.27,375.49,99.81,365.1,90.43" style="stroke: #A80036; stroke-width: 1.0;"/><text fill="#888888" font-family="sans-serif" font-size="10" lengthAdjust="spacingAndGlyphs" textLength="186" x="222.5" y="328.2822">UMLDoclet 2.0.9, PlantUML 1.2020.08</text><!--MD5=[57e510119bb72eb12fa3588d9b8ce769]
@startuml
    set namespaceSeparator none
    hide empty fields
    hide empty methods

    class "<size:14>MemberExpression\n<size:10>de.fraunhofer.aisec.cpg.graph" as de.fraunhofer.aisec.cpg.graph.MemberExpression [[MemberExpression.html]] {
        #member: Node
        +getBase(): Node
        +setBase(Node): void
        +getMember(): Node
        +setMember(Node): void
        +typeChanged(HasType, HasType, Type): void
        +possibleSubTypesChanged(HasType, HasType, Set<Type>): void
        +setWritingAccess(boolean): void
        +isWritingAccess(): boolean
    }

    class "<size:14>Expression\n<size:10>de.fraunhofer.aisec.cpg.graph" as de.fraunhofer.aisec.cpg.graph.Expression [[Expression.html]]
    interface "<size:14>HasType.TypeListener\n<size:10>de.fraunhofer.aisec.cpg.graph" as de.fraunhofer.aisec.cpg.graph.HasType.TypeListener [[HasType.TypeListener.html]] {
        {abstract} +typeChanged(HasType, HasType, Type): void
        {abstract} +possibleSubTypesChanged(HasType, HasType, Set<Type>): void
    }

    de.fraunhofer.aisec.cpg.graph.Expression <|- - de.fraunhofer.aisec.cpg.graph.MemberExpression
    de.fraunhofer.aisec.cpg.graph.HasType.TypeListener <|.. de.fraunhofer.aisec.cpg.graph.MemberExpression

    center footer UMLDoclet 2.0.9, PlantUML 1.2020.08
@enduml

PlantUML version 1.2020.08(Sun Apr 26 16:08:22 CEST 2020)
(APACHE source distribution)
Java Runtime: OpenJDK Runtime Environment
JVM: OpenJDK 64-Bit Server VM
Java Version: 12.0.2+9-Ubuntu-118.04
Operating System: Linux
Default Encoding: UTF-8
Language: en
Country: US
--></g></svg>