<?xml version="1.0" encoding="UTF-8" standalone="no"?><svg xmlns="http://www.w3.org/2000/svg" xmlns:xlink="http://www.w3.org/1999/xlink" contentScriptType="application/ecmascript" contentStyleType="text/css" height="210px" preserveAspectRatio="none" style="width:211px;height:210px;" version="1.1" viewBox="0 0 211 210" width="211px" zoomAndPan="magnify"><defs><filter height="300%" id="f1odbg7u0nkxrz" width="300%" x="-1" y="-1"><feGaussianBlur result="blurOut" stdDeviation="2.0"/><feColorMatrix in="blurOut" result="blurOut2" type="matrix" values="0 0 0 0 0 0 0 0 0 0 0 0 0 0 0 0 0 0 .4 0"/><feOffset dx="4.0" dy="4.0" in="blurOut2" result="blurOut3"/><feBlend in="SourceGraphic" in2="blurOut3" mode="normal"/></filter></defs><g><!--MD5=[f6774029a15df666faac24046715d38d]
class de.fraunhofer.aisec.cpg.graph.MemberCallExpression--><a href="MemberCallExpression.html" target="_top" title="MemberCallExpression.html" xlink:actuate="onRequest" xlink:href="MemberCallExpression.html" xlink:show="new" xlink:title="MemberCallExpression.html" xlink:type="simple"><rect fill="#FEFECE" filter="url(#f1odbg7u0nkxrz)" height="71.5469" id="de.fraunhofer.aisec.cpg.graph.MemberCallExpression" style="stroke: #A80036; stroke-width: 1.5;" width="189" x="6" y="106"/><ellipse cx="21" cy="124.9688" fill="#ADD1B2" rx="11" ry="11" style="stroke: #A80036; stroke-width: 1.0;"/><path d="M23.9688,130.6094 Q23.3906,130.9063 22.75,131.0469 Q22.1094,131.2031 21.4063,131.2031 Q18.9063,131.2031 17.5781,129.5625 Q16.2656,127.9063 16.2656,124.7813 Q16.2656,121.6563 17.5781,120 Q18.9063,118.3438 21.4063,118.3438 Q22.1094,118.3438 22.75,118.5 Q23.4063,118.6563 23.9688,118.9531 L23.9688,121.6719 Q23.3438,121.0938 22.75,120.8281 Q22.1563,120.5469 21.5313,120.5469 Q20.1875,120.5469 19.5,121.625 Q18.8125,122.6875 18.8125,124.7813 Q18.8125,126.875 19.5,127.9531 Q20.1875,129.0156 21.5313,129.0156 Q22.1563,129.0156 22.75,128.75 Q23.3438,128.4688 23.9688,127.8906 L23.9688,130.6094 Z "/><text fill="#000000" font-family="sans-serif" font-size="14" lengthAdjust="spacingAndGlyphs" textLength="157" x="35" y="123.9951">MemberCallExpression</text><text fill="#000000" font-family="sans-serif" font-size="10" lengthAdjust="spacingAndGlyphs" textLength="145" x="41" y="136.5791">de.fraunhofer.aisec.cpg.graph</text><line style="stroke: #A80036; stroke-width: 1.5;" x1="7" x2="194" y1="143.9375" y2="143.9375"/><ellipse cx="17" cy="154.9375" fill="#84BE84" rx="3" ry="3" style="stroke: #038048; stroke-width: 1.0;"/><text fill="#000000" font-family="sans-serif" font-size="11" lengthAdjust="spacingAndGlyphs" textLength="109" x="26" y="158.1479">getMember(): Node</text><ellipse cx="17" cy="167.7422" fill="#84BE84" rx="3" ry="3" style="stroke: #038048; stroke-width: 1.0;"/><text fill="#000000" font-family="sans-serif" font-size="11" lengthAdjust="spacingAndGlyphs" textLength="132" x="26" y="170.9526">setMember(Node): void</text></a><!--MD5=[5fc3daf7a542c4d7aa23b26341df7e6b]
class de.fraunhofer.aisec.cpg.graph.CallExpression--><a href="CallExpression.html" target="_top" title="CallExpression.html" xlink:actuate="onRequest" xlink:href="CallExpression.html" xlink:show="new" xlink:title="CallExpression.html" xlink:type="simple"><rect fill="#FEFECE" filter="url(#f1odbg7u0nkxrz)" height="37.9375" id="de.fraunhofer.aisec.cpg.graph.CallExpression" style="stroke: #A80036; stroke-width: 1.5;" width="177" x="12" y="8"/><ellipse cx="27" cy="26.9688" fill="#ADD1B2" rx="11" ry="11" style="stroke: #A80036; stroke-width: 1.0;"/><path d="M29.9688,32.6094 Q29.3906,32.9063 28.75,33.0469 Q28.1094,33.2031 27.4063,33.2031 Q24.9063,33.2031 23.5781,31.5625 Q22.2656,29.9063 22.2656,26.7813 Q22.2656,23.6563 23.5781,22 Q24.9063,20.3438 27.4063,20.3438 Q28.1094,20.3438 28.75,20.5 Q29.4063,20.6563 29.9688,20.9531 L29.9688,23.6719 Q29.3438,23.0938 28.75,22.8281 Q28.1563,22.5469 27.5313,22.5469 Q26.1875,22.5469 25.5,23.625 Q24.8125,24.6875 24.8125,26.7813 Q24.8125,28.875 25.5,29.9531 Q26.1875,31.0156 27.5313,31.0156 Q28.1563,31.0156 28.75,30.75 Q29.3438,30.4688 29.9688,29.8906 L29.9688,32.6094 Z "/><text fill="#000000" font-family="sans-serif" font-size="14" lengthAdjust="spacingAndGlyphs" textLength="100" x="63.5" y="25.9951">CallExpression</text><text fill="#000000" font-family="sans-serif" font-size="10" lengthAdjust="spacingAndGlyphs" textLength="145" x="41" y="38.5791">de.fraunhofer.aisec.cpg.graph</text></a><!--MD5=[1c26b05218df1c9f809e3fddf4590261]
reverse link de.fraunhofer.aisec.cpg.graph.CallExpression to de.fraunhofer.aisec.cpg.graph.MemberCallExpression--><path d="M100.5,66.3 C100.5,79 100.5,93.08 100.5,105.56 " fill="none" id="de.fraunhofer.aisec.cpg.graph.CallExpression&lt;-de.fraunhofer.aisec.cpg.graph.MemberCallExpression" style="stroke: #A80036; stroke-width: 1.0;"/><polygon fill="none" points="93.5,66.16,100.5,46.16,107.5,66.16,93.5,66.16" style="stroke: #A80036; stroke-width: 1.0;"/><text fill="#888888" font-family="sans-serif" font-size="10" lengthAdjust="spacingAndGlyphs" textLength="186" x="13.5" y="197.2822">UMLDoclet 2.0.9, PlantUML 1.2020.08</text><!--MD5=[06fdf056abb964da580e1bd7697f64a9]
@startuml
    set namespaceSeparator none
    hide empty fields
    hide empty methods

    class "<size:14>MemberCallExpression\n<size:10>de.fraunhofer.aisec.cpg.graph" as de.fraunhofer.aisec.cpg.graph.MemberCallExpression [[MemberCallExpression.html]] {
        +getMember(): Node
        +setMember(Node): void
    }

    class "<size:14>CallExpression\n<size:10>de.fraunhofer.aisec.cpg.graph" as de.fraunhofer.aisec.cpg.graph.CallExpression [[CallExpression.html]]

    de.fraunhofer.aisec.cpg.graph.CallExpression <|- - de.fraunhofer.aisec.cpg.graph.MemberCallExpression

    center footer UMLDoclet 2.0.9, PlantUML 1.2020.08
@enduml

PlantUML version 1.2020.08(Sun Apr 26 16:08:22 CEST 2020)
(APACHE source distribution)
Java Runtime: OpenJDK Runtime Environment
JVM: OpenJDK 64-Bit Server VM
Java Version: 12.0.2+9-Ubuntu-118.04
Operating System: Linux
Default Encoding: UTF-8
Language: en
Country: US
--></g></svg>