<?xml version="1.0" encoding="UTF-8" standalone="no"?><svg xmlns="http://www.w3.org/2000/svg" xmlns:xlink="http://www.w3.org/1999/xlink" contentScriptType="application/ecmascript" contentStyleType="text/css" height="248px" preserveAspectRatio="none" style="width:413px;height:248px;" version="1.1" viewBox="0 0 413 248" width="413px" zoomAndPan="magnify"><defs><filter height="300%" id="fa0ujlzk46x0i" width="300%" x="-1" y="-1"><feGaussianBlur result="blurOut" stdDeviation="2.0"/><feColorMatrix in="blurOut" result="blurOut2" type="matrix" values="0 0 0 0 0 0 0 0 0 0 0 0 0 0 0 0 0 0 .4 0"/><feOffset dx="4.0" dy="4.0" in="blurOut2" result="blurOut3"/><feBlend in="SourceGraphic" in2="blurOut3" mode="normal"/></filter></defs><g><!--MD5=[1adc42e743aa2ca34d4d6c364be9c713]
class de.fraunhofer.aisec.cpg.graph.MethodDeclaration--><a href="MethodDeclaration.html" target="_top" title="MethodDeclaration.html" xlink:actuate="onRequest" xlink:href="MethodDeclaration.html" xlink:show="new" xlink:title="MethodDeclaration.html" xlink:type="simple"><rect fill="#FEFECE" filter="url(#fa0ujlzk46x0i)" height="109.9609" id="de.fraunhofer.aisec.cpg.graph.MethodDeclaration" style="stroke: #A80036; stroke-width: 1.5;" width="396" x="6" y="106"/><ellipse cx="127.25" cy="124.9688" fill="#ADD1B2" rx="11" ry="11" style="stroke: #A80036; stroke-width: 1.0;"/><path d="M130.2188,130.6094 Q129.6406,130.9063 129,131.0469 Q128.3594,131.2031 127.6563,131.2031 Q125.1563,131.2031 123.8281,129.5625 Q122.5156,127.9063 122.5156,124.7813 Q122.5156,121.6563 123.8281,120 Q125.1563,118.3438 127.6563,118.3438 Q128.3594,118.3438 129,118.5 Q129.6563,118.6563 130.2188,118.9531 L130.2188,121.6719 Q129.5938,121.0938 129,120.8281 Q128.4063,120.5469 127.7813,120.5469 Q126.4375,120.5469 125.75,121.625 Q125.0625,122.6875 125.0625,124.7813 Q125.0625,126.875 125.75,127.9531 Q126.4375,129.0156 127.7813,129.0156 Q128.4063,129.0156 129,128.75 Q129.5938,128.4688 130.2188,127.8906 L130.2188,130.6094 Z "/><text fill="#000000" font-family="sans-serif" font-size="14" lengthAdjust="spacingAndGlyphs" textLength="131" x="154.75" y="123.9951">MethodDeclaration</text><text fill="#000000" font-family="sans-serif" font-size="10" lengthAdjust="spacingAndGlyphs" textLength="145" x="147.75" y="136.5791">de.fraunhofer.aisec.cpg.graph</text><line style="stroke: #A80036; stroke-width: 1.5;" x1="7" x2="401" y1="143.9375" y2="143.9375"/><ellipse cx="17" cy="154.9375" fill="#84BE84" rx="3" ry="3" style="stroke: #038048; stroke-width: 1.0;"/><text fill="#000000" font-family="sans-serif" font-size="11" lengthAdjust="spacingAndGlyphs" text-decoration="underline" textLength="370" x="26" y="158.1479">from(FunctionDeclaration, RecordDeclaration): MethodDeclaration</text><ellipse cx="17" cy="167.7422" fill="#84BE84" rx="3" ry="3" style="stroke: #038048; stroke-width: 1.0;"/><text fill="#000000" font-family="sans-serif" font-size="11" lengthAdjust="spacingAndGlyphs" textLength="103" x="26" y="170.9526">isStatic(): boolean</text><ellipse cx="17" cy="180.5469" fill="#84BE84" rx="3" ry="3" style="stroke: #038048; stroke-width: 1.0;"/><text fill="#000000" font-family="sans-serif" font-size="11" lengthAdjust="spacingAndGlyphs" textLength="134" x="26" y="183.7573">setStatic(boolean): void</text><ellipse cx="17" cy="193.3516" fill="#84BE84" rx="3" ry="3" style="stroke: #038048; stroke-width: 1.0;"/><text fill="#000000" font-family="sans-serif" font-size="11" lengthAdjust="spacingAndGlyphs" textLength="240" x="26" y="196.562">getRecordDeclaration(): RecordDeclaration</text><ellipse cx="17" cy="206.1563" fill="#84BE84" rx="3" ry="3" style="stroke: #038048; stroke-width: 1.0;"/><text fill="#000000" font-family="sans-serif" font-size="11" lengthAdjust="spacingAndGlyphs" textLength="263" x="26" y="209.3667">setRecordDeclaration(RecordDeclaration): void</text></a><!--MD5=[fb16abf651319b269e0766c45d8b4407]
class de.fraunhofer.aisec.cpg.graph.FunctionDeclaration--><a href="FunctionDeclaration.html" target="_top" title="FunctionDeclaration.html" xlink:actuate="onRequest" xlink:href="FunctionDeclaration.html" xlink:show="new" xlink:title="FunctionDeclaration.html" xlink:type="simple"><rect fill="#FEFECE" filter="url(#fa0ujlzk46x0i)" height="37.9375" id="de.fraunhofer.aisec.cpg.graph.FunctionDeclaration" style="stroke: #A80036; stroke-width: 1.5;" width="177" x="115.5" y="8"/><ellipse cx="130.5" cy="26.9688" fill="#ADD1B2" rx="11" ry="11" style="stroke: #A80036; stroke-width: 1.0;"/><path d="M133.4688,32.6094 Q132.8906,32.9063 132.25,33.0469 Q131.6094,33.2031 130.9063,33.2031 Q128.4063,33.2031 127.0781,31.5625 Q125.7656,29.9063 125.7656,26.7813 Q125.7656,23.6563 127.0781,22 Q128.4063,20.3438 130.9063,20.3438 Q131.6094,20.3438 132.25,20.5 Q132.9063,20.6563 133.4688,20.9531 L133.4688,23.6719 Q132.8438,23.0938 132.25,22.8281 Q131.6563,22.5469 131.0313,22.5469 Q129.6875,22.5469 129,23.625 Q128.3125,24.6875 128.3125,26.7813 Q128.3125,28.875 129,29.9531 Q129.6875,31.0156 131.0313,31.0156 Q131.6563,31.0156 132.25,30.75 Q132.8438,30.4688 133.4688,29.8906 L133.4688,32.6094 Z "/><text fill="#000000" font-family="sans-serif" font-size="14" lengthAdjust="spacingAndGlyphs" textLength="138" x="148" y="25.9951">FunctionDeclaration</text><text fill="#000000" font-family="sans-serif" font-size="10" lengthAdjust="spacingAndGlyphs" textLength="145" x="144.5" y="38.5791">de.fraunhofer.aisec.cpg.graph</text></a><!--MD5=[ef5846a01bf4528c77336e58a280a73d]
reverse link de.fraunhofer.aisec.cpg.graph.FunctionDeclaration to de.fraunhofer.aisec.cpg.graph.MethodDeclaration--><path d="M204,66.19 C204,78.61 204,92.62 204,105.97 " fill="none" id="de.fraunhofer.aisec.cpg.graph.FunctionDeclaration&lt;-de.fraunhofer.aisec.cpg.graph.MethodDeclaration" style="stroke: #A80036; stroke-width: 1.0;"/><polygon fill="none" points="197,66.08,204,46.08,211,66.08,197,66.08" style="stroke: #A80036; stroke-width: 1.0;"/><text fill="#888888" font-family="sans-serif" font-size="10" lengthAdjust="spacingAndGlyphs" textLength="186" x="117" y="235.2822">UMLDoclet 2.0.9, PlantUML 1.2020.08</text><!--MD5=[e2189c63ab6eb05497d6ecb186bb8875]
@startuml
    set namespaceSeparator none
    hide empty fields
    hide empty methods

    class "<size:14>MethodDeclaration\n<size:10>de.fraunhofer.aisec.cpg.graph" as de.fraunhofer.aisec.cpg.graph.MethodDeclaration [[MethodDeclaration.html]] {
        {static} +from(FunctionDeclaration, RecordDeclaration): MethodDeclaration
        +isStatic(): boolean
        +setStatic(boolean): void
        +getRecordDeclaration(): RecordDeclaration
        +setRecordDeclaration(RecordDeclaration): void
    }

    class "<size:14>FunctionDeclaration\n<size:10>de.fraunhofer.aisec.cpg.graph" as de.fraunhofer.aisec.cpg.graph.FunctionDeclaration [[FunctionDeclaration.html]]

    de.fraunhofer.aisec.cpg.graph.FunctionDeclaration <|- - de.fraunhofer.aisec.cpg.graph.MethodDeclaration

    center footer UMLDoclet 2.0.9, PlantUML 1.2020.08
@enduml

PlantUML version 1.2020.08(Sun Apr 26 16:08:22 CEST 2020)
(APACHE source distribution)
Java Runtime: OpenJDK Runtime Environment
JVM: OpenJDK 64-Bit Server VM
Java Version: 12.0.2+9-Ubuntu-118.04
Operating System: Linux
Default Encoding: UTF-8
Language: en
Country: US
--></g></svg>