<?xml version="1.0" encoding="UTF-8" standalone="no"?><svg xmlns="http://www.w3.org/2000/svg" xmlns:xlink="http://www.w3.org/1999/xlink" contentScriptType="application/ecmascript" contentStyleType="text/css" height="176px" preserveAspectRatio="none" style="width:230px;height:176px;" version="1.1" viewBox="0 0 230 176" width="230px" zoomAndPan="magnify"><defs><filter height="300%" id="fvev8o7q5x8ry" width="300%" x="-1" y="-1"><feGaussianBlur result="blurOut" stdDeviation="2.0"/><feColorMatrix in="blurOut" result="blurOut2" type="matrix" values="0 0 0 0 0 0 0 0 0 0 0 0 0 0 0 0 0 0 .4 0"/><feOffset dx="4.0" dy="4.0" in="blurOut2" result="blurOut3"/><feBlend in="SourceGraphic" in2="blurOut3" mode="normal"/></filter></defs><g><!--MD5=[223d7ffc3cc7b504005d63d86ae98537]
class de.fraunhofer.aisec.cpg.graph.NamespaceDeclaration--><a href="NamespaceDeclaration.html" target="_top" title="NamespaceDeclaration.html" xlink:actuate="onRequest" xlink:href="NamespaceDeclaration.html" xlink:show="new" xlink:title="NamespaceDeclaration.html" xlink:type="simple"><rect fill="#FEFECE" filter="url(#fvev8o7q5x8ry)" height="37.9375" id="de.fraunhofer.aisec.cpg.graph.NamespaceDeclaration" style="stroke: #A80036; stroke-width: 1.5;" width="192" x="16.5" y="106"/><ellipse cx="31.5" cy="124.9688" fill="#ADD1B2" rx="11" ry="11" style="stroke: #A80036; stroke-width: 1.0;"/><path d="M34.4688,130.6094 Q33.8906,130.9063 33.25,131.0469 Q32.6094,131.2031 31.9063,131.2031 Q29.4063,131.2031 28.0781,129.5625 Q26.7656,127.9063 26.7656,124.7813 Q26.7656,121.6563 28.0781,120 Q29.4063,118.3438 31.9063,118.3438 Q32.6094,118.3438 33.25,118.5 Q33.9063,118.6563 34.4688,118.9531 L34.4688,121.6719 Q33.8438,121.0938 33.25,120.8281 Q32.6563,120.5469 32.0313,120.5469 Q30.6875,120.5469 30,121.625 Q29.3125,122.6875 29.3125,124.7813 Q29.3125,126.875 30,127.9531 Q30.6875,129.0156 32.0313,129.0156 Q32.6563,129.0156 33.25,128.75 Q33.8438,128.4688 34.4688,127.8906 L34.4688,130.6094 Z "/><text fill="#000000" font-family="sans-serif" font-size="14" lengthAdjust="spacingAndGlyphs" textLength="160" x="45.5" y="123.9951">NamespaceDeclaration</text><text fill="#000000" font-family="sans-serif" font-size="10" lengthAdjust="spacingAndGlyphs" textLength="145" x="53" y="136.5791">de.fraunhofer.aisec.cpg.graph</text></a><!--MD5=[46379bfef58435adf3366ed9c3258410]
class de.fraunhofer.aisec.cpg.graph.TranslationUnitDeclaration--><a href="TranslationUnitDeclaration.html" target="_top" title="TranslationUnitDeclaration.html" xlink:actuate="onRequest" xlink:href="TranslationUnitDeclaration.html" xlink:show="new" xlink:title="TranslationUnitDeclaration.html" xlink:type="simple"><rect fill="#FEFECE" filter="url(#fvev8o7q5x8ry)" height="37.9375" id="de.fraunhofer.aisec.cpg.graph.TranslationUnitDeclaration" style="stroke: #A80036; stroke-width: 1.5;" width="213" x="6" y="8"/><ellipse cx="21" cy="26.9688" fill="#ADD1B2" rx="11" ry="11" style="stroke: #A80036; stroke-width: 1.0;"/><path d="M23.9688,32.6094 Q23.3906,32.9063 22.75,33.0469 Q22.1094,33.2031 21.4063,33.2031 Q18.9063,33.2031 17.5781,31.5625 Q16.2656,29.9063 16.2656,26.7813 Q16.2656,23.6563 17.5781,22 Q18.9063,20.3438 21.4063,20.3438 Q22.1094,20.3438 22.75,20.5 Q23.4063,20.6563 23.9688,20.9531 L23.9688,23.6719 Q23.3438,23.0938 22.75,22.8281 Q22.1563,22.5469 21.5313,22.5469 Q20.1875,22.5469 19.5,23.625 Q18.8125,24.6875 18.8125,26.7813 Q18.8125,28.875 19.5,29.9531 Q20.1875,31.0156 21.5313,31.0156 Q22.1563,31.0156 22.75,30.75 Q23.3438,30.4688 23.9688,29.8906 L23.9688,32.6094 Z "/><text fill="#000000" font-family="sans-serif" font-size="14" lengthAdjust="spacingAndGlyphs" textLength="181" x="35" y="25.9951">TranslationUnitDeclaration</text><text fill="#000000" font-family="sans-serif" font-size="10" lengthAdjust="spacingAndGlyphs" textLength="145" x="53" y="38.5791">de.fraunhofer.aisec.cpg.graph</text></a><!--MD5=[7db61fba4588a59b15678a2ebf2be8fb]
reverse link de.fraunhofer.aisec.cpg.graph.TranslationUnitDeclaration to de.fraunhofer.aisec.cpg.graph.NamespaceDeclaration--><path d="M112.5,66.43 C112.5,79.98 112.5,94.59 112.5,105.7 " fill="none" id="de.fraunhofer.aisec.cpg.graph.TranslationUnitDeclaration&lt;-de.fraunhofer.aisec.cpg.graph.NamespaceDeclaration" style="stroke: #A80036; stroke-width: 1.0;"/><polygon fill="none" points="105.5,66.06,112.5,46.06,119.5,66.06,105.5,66.06" style="stroke: #A80036; stroke-width: 1.0;"/><text fill="#888888" font-family="sans-serif" font-size="10" lengthAdjust="spacingAndGlyphs" textLength="186" x="25.5" y="163.2822">UMLDoclet 2.0.9, PlantUML 1.2020.08</text><!--MD5=[27c7365c80d62acf65b55fef7c2ae187]
@startuml
    set namespaceSeparator none
    hide empty fields
    hide empty methods

    class "<size:14>NamespaceDeclaration\n<size:10>de.fraunhofer.aisec.cpg.graph" as de.fraunhofer.aisec.cpg.graph.NamespaceDeclaration [[NamespaceDeclaration.html]]

    class "<size:14>TranslationUnitDeclaration\n<size:10>de.fraunhofer.aisec.cpg.graph" as de.fraunhofer.aisec.cpg.graph.TranslationUnitDeclaration [[TranslationUnitDeclaration.html]]

    de.fraunhofer.aisec.cpg.graph.TranslationUnitDeclaration <|- - de.fraunhofer.aisec.cpg.graph.NamespaceDeclaration

    center footer UMLDoclet 2.0.9, PlantUML 1.2020.08
@enduml

PlantUML version 1.2020.08(Sun Apr 26 16:08:22 CEST 2020)
(APACHE source distribution)
Java Runtime: OpenJDK Runtime Environment
JVM: OpenJDK 64-Bit Server VM
Java Version: 12.0.2+9-Ubuntu-118.04
Operating System: Linux
Default Encoding: UTF-8
Language: en
Country: US
--></g></svg>