<?xml version="1.0" encoding="UTF-8" standalone="no"?><svg xmlns="http://www.w3.org/2000/svg" xmlns:xlink="http://www.w3.org/1999/xlink" contentScriptType="application/ecmascript" contentStyleType="text/css" height="210px" preserveAspectRatio="none" style="width:215px;height:210px;" version="1.1" viewBox="0 0 215 210" width="215px" zoomAndPan="magnify"><defs><filter height="300%" id="f1kr4bo3mkn87n" width="300%" x="-1" y="-1"><feGaussianBlur result="blurOut" stdDeviation="2.0"/><feColorMatrix in="blurOut" result="blurOut2" type="matrix" values="0 0 0 0 0 0 0 0 0 0 0 0 0 0 0 0 0 0 .4 0"/><feOffset dx="4.0" dy="4.0" in="blurOut2" result="blurOut3"/><feBlend in="SourceGraphic" in2="blurOut3" mode="normal"/></filter></defs><g><!--MD5=[5eb52d1edd29a549abead84e0f468544]
class de.fraunhofer.aisec.cpg.graph.NewExpression--><a href="NewExpression.html" target="_top" title="NewExpression.html" xlink:actuate="onRequest" xlink:href="NewExpression.html" xlink:show="new" xlink:title="NewExpression.html" xlink:type="simple"><rect fill="#FEFECE" filter="url(#f1kr4bo3mkn87n)" height="71.5469" id="de.fraunhofer.aisec.cpg.graph.NewExpression" style="stroke: #A80036; stroke-width: 1.5;" width="196" x="6" y="106"/><ellipse cx="29.55" cy="124.9688" fill="#ADD1B2" rx="11" ry="11" style="stroke: #A80036; stroke-width: 1.0;"/><path d="M32.5188,130.6094 Q31.9406,130.9063 31.3,131.0469 Q30.6594,131.2031 29.9563,131.2031 Q27.4563,131.2031 26.1281,129.5625 Q24.8156,127.9063 24.8156,124.7813 Q24.8156,121.6563 26.1281,120 Q27.4563,118.3438 29.9563,118.3438 Q30.6594,118.3438 31.3,118.5 Q31.9563,118.6563 32.5188,118.9531 L32.5188,121.6719 Q31.8938,121.0938 31.3,120.8281 Q30.7063,120.5469 30.0813,120.5469 Q28.7375,120.5469 28.05,121.625 Q27.3625,122.6875 27.3625,124.7813 Q27.3625,126.875 28.05,127.9531 Q28.7375,129.0156 30.0813,129.0156 Q30.7063,129.0156 31.3,128.75 Q31.8938,128.4688 32.5188,127.8906 L32.5188,130.6094 Z "/><text fill="#000000" font-family="sans-serif" font-size="14" lengthAdjust="spacingAndGlyphs" textLength="106" x="64.95" y="123.9951">NewExpression</text><text fill="#000000" font-family="sans-serif" font-size="10" lengthAdjust="spacingAndGlyphs" textLength="145" x="45.45" y="136.5791">de.fraunhofer.aisec.cpg.graph</text><line style="stroke: #A80036; stroke-width: 1.5;" x1="7" x2="201" y1="143.9375" y2="143.9375"/><ellipse cx="17" cy="154.9375" fill="#84BE84" rx="3" ry="3" style="stroke: #038048; stroke-width: 1.0;"/><text fill="#000000" font-family="sans-serif" font-size="11" lengthAdjust="spacingAndGlyphs" textLength="147" x="26" y="158.1479">getInitializer(): Expression</text><ellipse cx="17" cy="167.7422" fill="#84BE84" rx="3" ry="3" style="stroke: #038048; stroke-width: 1.0;"/><text fill="#000000" font-family="sans-serif" font-size="11" lengthAdjust="spacingAndGlyphs" textLength="170" x="26" y="170.9526">setInitializer(Expression): void</text></a><!--MD5=[f602dd8d46e7ba17465d0a1e20507055]
class de.fraunhofer.aisec.cpg.graph.Expression--><a href="Expression.html" target="_top" title="Expression.html" xlink:actuate="onRequest" xlink:href="Expression.html" xlink:show="new" xlink:title="Expression.html" xlink:type="simple"><rect fill="#FEFECE" filter="url(#f1kr4bo3mkn87n)" height="37.9375" id="de.fraunhofer.aisec.cpg.graph.Expression" style="stroke: #A80036; stroke-width: 1.5;" width="177" x="15.5" y="8"/><ellipse cx="30.5" cy="26.9688" fill="#ADD1B2" rx="11" ry="11" style="stroke: #A80036; stroke-width: 1.0;"/><path d="M33.4688,32.6094 Q32.8906,32.9063 32.25,33.0469 Q31.6094,33.2031 30.9063,33.2031 Q28.4063,33.2031 27.0781,31.5625 Q25.7656,29.9063 25.7656,26.7813 Q25.7656,23.6563 27.0781,22 Q28.4063,20.3438 30.9063,20.3438 Q31.6094,20.3438 32.25,20.5 Q32.9063,20.6563 33.4688,20.9531 L33.4688,23.6719 Q32.8438,23.0938 32.25,22.8281 Q31.6563,22.5469 31.0313,22.5469 Q29.6875,22.5469 29,23.625 Q28.3125,24.6875 28.3125,26.7813 Q28.3125,28.875 29,29.9531 Q29.6875,31.0156 31.0313,31.0156 Q31.6563,31.0156 32.25,30.75 Q32.8438,30.4688 33.4688,29.8906 L33.4688,32.6094 Z "/><text fill="#000000" font-family="sans-serif" font-size="14" lengthAdjust="spacingAndGlyphs" textLength="76" x="79" y="25.9951">Expression</text><text fill="#000000" font-family="sans-serif" font-size="10" lengthAdjust="spacingAndGlyphs" textLength="145" x="44.5" y="38.5791">de.fraunhofer.aisec.cpg.graph</text></a><!--MD5=[d00f6063c00d3b105af3cedd5e152886]
reverse link de.fraunhofer.aisec.cpg.graph.Expression to de.fraunhofer.aisec.cpg.graph.NewExpression--><path d="M104,66.3 C104,79 104,93.08 104,105.56 " fill="none" id="de.fraunhofer.aisec.cpg.graph.Expression&lt;-de.fraunhofer.aisec.cpg.graph.NewExpression" style="stroke: #A80036; stroke-width: 1.0;"/><polygon fill="none" points="97,66.16,104,46.16,111,66.16,97,66.16" style="stroke: #A80036; stroke-width: 1.0;"/><text fill="#888888" font-family="sans-serif" font-size="10" lengthAdjust="spacingAndGlyphs" textLength="186" x="17" y="197.2822">UMLDoclet 2.0.9, PlantUML 1.2020.08</text><!--MD5=[85041329194379d5d9ac459096e53929]
@startuml
    set namespaceSeparator none
    hide empty fields
    hide empty methods

    class "<size:14>NewExpression\n<size:10>de.fraunhofer.aisec.cpg.graph" as de.fraunhofer.aisec.cpg.graph.NewExpression [[NewExpression.html]] {
        +getInitializer(): Expression
        +setInitializer(Expression): void
    }

    class "<size:14>Expression\n<size:10>de.fraunhofer.aisec.cpg.graph" as de.fraunhofer.aisec.cpg.graph.Expression [[Expression.html]]

    de.fraunhofer.aisec.cpg.graph.Expression <|- - de.fraunhofer.aisec.cpg.graph.NewExpression

    center footer UMLDoclet 2.0.9, PlantUML 1.2020.08
@enduml

PlantUML version 1.2020.08(Sun Apr 26 16:08:22 CEST 2020)
(APACHE source distribution)
Java Runtime: OpenJDK Runtime Environment
JVM: OpenJDK 64-Bit Server VM
Java Version: 12.0.2+9-Ubuntu-118.04
Operating System: Linux
Default Encoding: UTF-8
Language: en
Country: US
--></g></svg>