<?xml version="1.0" encoding="UTF-8" standalone="no"?><svg xmlns="http://www.w3.org/2000/svg" xmlns:xlink="http://www.w3.org/1999/xlink" contentScriptType="application/ecmascript" contentStyleType="text/css" height="210px" preserveAspectRatio="none" style="width:224px;height:210px;" version="1.1" viewBox="0 0 224 210" width="224px" zoomAndPan="magnify"><defs><filter height="300%" id="fgvhgnaga5tgh" width="300%" x="-1" y="-1"><feGaussianBlur result="blurOut" stdDeviation="2.0"/><feColorMatrix in="blurOut" result="blurOut2" type="matrix" values="0 0 0 0 0 0 0 0 0 0 0 0 0 0 0 0 0 0 .4 0"/><feOffset dx="4.0" dy="4.0" in="blurOut2" result="blurOut3"/><feBlend in="SourceGraphic" in2="blurOut3" mode="normal"/></filter></defs><g><!--MD5=[6918b0f86744e30cf669651e05402c44]
class de.fraunhofer.aisec.cpg.graph.ParamVariableDeclaration--><a href="ParamVariableDeclaration.html" target="_top" title="ParamVariableDeclaration.html" xlink:actuate="onRequest" xlink:href="ParamVariableDeclaration.html" xlink:show="new" xlink:title="ParamVariableDeclaration.html" xlink:type="simple"><rect fill="#FEFECE" filter="url(#fgvhgnaga5tgh)" height="71.5469" id="de.fraunhofer.aisec.cpg.graph.ParamVariableDeclaration" style="stroke: #A80036; stroke-width: 1.5;" width="207" x="6" y="106"/><ellipse cx="21" cy="124.9688" fill="#ADD1B2" rx="11" ry="11" style="stroke: #A80036; stroke-width: 1.0;"/><path d="M23.9688,130.6094 Q23.3906,130.9063 22.75,131.0469 Q22.1094,131.2031 21.4063,131.2031 Q18.9063,131.2031 17.5781,129.5625 Q16.2656,127.9063 16.2656,124.7813 Q16.2656,121.6563 17.5781,120 Q18.9063,118.3438 21.4063,118.3438 Q22.1094,118.3438 22.75,118.5 Q23.4063,118.6563 23.9688,118.9531 L23.9688,121.6719 Q23.3438,121.0938 22.75,120.8281 Q22.1563,120.5469 21.5313,120.5469 Q20.1875,120.5469 19.5,121.625 Q18.8125,122.6875 18.8125,124.7813 Q18.8125,126.875 19.5,127.9531 Q20.1875,129.0156 21.5313,129.0156 Q22.1563,129.0156 22.75,128.75 Q23.3438,128.4688 23.9688,127.8906 L23.9688,130.6094 Z "/><text fill="#000000" font-family="sans-serif" font-size="14" lengthAdjust="spacingAndGlyphs" textLength="175" x="35" y="123.9951">ParamVariableDeclaration</text><text fill="#000000" font-family="sans-serif" font-size="10" lengthAdjust="spacingAndGlyphs" textLength="145" x="50" y="136.5791">de.fraunhofer.aisec.cpg.graph</text><line style="stroke: #A80036; stroke-width: 1.5;" x1="7" x2="212" y1="143.9375" y2="143.9375"/><ellipse cx="17" cy="154.9375" fill="#84BE84" rx="3" ry="3" style="stroke: #038048; stroke-width: 1.0;"/><text fill="#000000" font-family="sans-serif" font-size="11" lengthAdjust="spacingAndGlyphs" textLength="116" x="26" y="158.1479">isVariadic(): boolean</text><ellipse cx="17" cy="167.7422" fill="#84BE84" rx="3" ry="3" style="stroke: #038048; stroke-width: 1.0;"/><text fill="#000000" font-family="sans-serif" font-size="11" lengthAdjust="spacingAndGlyphs" textLength="147" x="26" y="170.9526">setVariadic(boolean): void</text></a><!--MD5=[eda0c6d898d1f7ae46e3e1961061b4af]
class de.fraunhofer.aisec.cpg.graph.ValueDeclaration--><a href="ValueDeclaration.html" target="_top" title="ValueDeclaration.html" xlink:actuate="onRequest" xlink:href="ValueDeclaration.html" xlink:show="new" xlink:title="ValueDeclaration.html" xlink:type="simple"><rect fill="#FEFECE" filter="url(#fgvhgnaga5tgh)" height="37.9375" id="de.fraunhofer.aisec.cpg.graph.ValueDeclaration" style="stroke: #A80036; stroke-width: 1.5;" width="180" x="19.5" y="8"/><ellipse cx="34.5" cy="26.9688" fill="#A9DCDF" rx="11" ry="11" style="stroke: #A80036; stroke-width: 1.0;"/><path d="M34.6094,22.3125 L33.4531,27.3906 L35.7813,27.3906 L34.6094,22.3125 Z M33.125,20.0781 L36.1094,20.0781 L39.4688,32.4688 L37.0156,32.4688 L36.25,29.4063 L32.9688,29.4063 L32.2188,32.4688 L29.7813,32.4688 L33.125,20.0781 Z "/><text fill="#000000" font-family="sans-serif" font-size="14" font-style="italic" lengthAdjust="spacingAndGlyphs" textLength="117" x="64" y="25.9951">ValueDeclaration</text><text fill="#000000" font-family="sans-serif" font-size="10" font-style="italic" lengthAdjust="spacingAndGlyphs" textLength="148" x="48.5" y="38.5791">de.fraunhofer.aisec.cpg.graph</text></a><!--MD5=[a2d62983ad02a8affaf61d1d5a628f00]
reverse link de.fraunhofer.aisec.cpg.graph.ValueDeclaration to de.fraunhofer.aisec.cpg.graph.ParamVariableDeclaration--><path d="M109.5,66.3 C109.5,79 109.5,93.08 109.5,105.56 " fill="none" id="de.fraunhofer.aisec.cpg.graph.ValueDeclaration&lt;-de.fraunhofer.aisec.cpg.graph.ParamVariableDeclaration" style="stroke: #A80036; stroke-width: 1.0;"/><polygon fill="none" points="102.5,66.16,109.5,46.16,116.5,66.16,102.5,66.16" style="stroke: #A80036; stroke-width: 1.0;"/><text fill="#888888" font-family="sans-serif" font-size="10" lengthAdjust="spacingAndGlyphs" textLength="186" x="22.5" y="197.2822">UMLDoclet 2.0.9, PlantUML 1.2020.08</text><!--MD5=[70bf8108f4b0678a7266efca3fe87e7b]
@startuml
    set namespaceSeparator none
    hide empty fields
    hide empty methods

    class "<size:14>ParamVariableDeclaration\n<size:10>de.fraunhofer.aisec.cpg.graph" as de.fraunhofer.aisec.cpg.graph.ParamVariableDeclaration [[ParamVariableDeclaration.html]] {
        +isVariadic(): boolean
        +setVariadic(boolean): void
    }

    abstract class "<size:14>ValueDeclaration\n<size:10>de.fraunhofer.aisec.cpg.graph" as de.fraunhofer.aisec.cpg.graph.ValueDeclaration [[ValueDeclaration.html]]

    de.fraunhofer.aisec.cpg.graph.ValueDeclaration <|- - de.fraunhofer.aisec.cpg.graph.ParamVariableDeclaration

    center footer UMLDoclet 2.0.9, PlantUML 1.2020.08
@enduml

PlantUML version 1.2020.08(Sun Apr 26 16:08:22 CEST 2020)
(APACHE source distribution)
Java Runtime: OpenJDK Runtime Environment
JVM: OpenJDK 64-Bit Server VM
Java Version: 12.0.2+9-Ubuntu-118.04
Operating System: Linux
Default Encoding: UTF-8
Language: en
Country: US
--></g></svg>