<?xml version="1.0" encoding="UTF-8" standalone="no"?><svg xmlns="http://www.w3.org/2000/svg" xmlns:xlink="http://www.w3.org/1999/xlink" contentScriptType="application/ecmascript" contentStyleType="text/css" height="261px" preserveAspectRatio="none" style="width:228px;height:261px;" version="1.1" viewBox="0 0 228 261" width="228px" zoomAndPan="magnify"><defs><filter height="300%" id="fexixf8teiq6b" width="300%" x="-1" y="-1"><feGaussianBlur result="blurOut" stdDeviation="2.0"/><feColorMatrix in="blurOut" result="blurOut2" type="matrix" values="0 0 0 0 0 0 0 0 0 0 0 0 0 0 0 0 0 0 .4 0"/><feOffset dx="4.0" dy="4.0" in="blurOut2" result="blurOut3"/><feBlend in="SourceGraphic" in2="blurOut3" mode="normal"/></filter></defs><g><!--MD5=[e83ea239f41e67517b22debf039aefce]
class de.fraunhofer.aisec.cpg.graph.ProblemDeclaration--><a href="ProblemDeclaration.html" target="_top" title="ProblemDeclaration.html" xlink:actuate="onRequest" xlink:href="ProblemDeclaration.html" xlink:show="new" xlink:title="ProblemDeclaration.html" xlink:type="simple"><rect fill="#FEFECE" filter="url(#fexixf8teiq6b)" height="122.7656" id="de.fraunhofer.aisec.cpg.graph.ProblemDeclaration" style="stroke: #A80036; stroke-width: 1.5;" width="211" x="6" y="106"/><ellipse cx="36.3" cy="124.9688" fill="#ADD1B2" rx="11" ry="11" style="stroke: #A80036; stroke-width: 1.0;"/><path d="M39.2688,130.6094 Q38.6906,130.9063 38.05,131.0469 Q37.4094,131.2031 36.7063,131.2031 Q34.2063,131.2031 32.8781,129.5625 Q31.5656,127.9063 31.5656,124.7813 Q31.5656,121.6563 32.8781,120 Q34.2063,118.3438 36.7063,118.3438 Q37.4094,118.3438 38.05,118.5 Q38.7063,118.6563 39.2688,118.9531 L39.2688,121.6719 Q38.6438,121.0938 38.05,120.8281 Q37.4563,120.5469 36.8313,120.5469 Q35.4875,120.5469 34.8,121.625 Q34.1125,122.6875 34.1125,124.7813 Q34.1125,126.875 34.8,127.9531 Q35.4875,129.0156 36.8313,129.0156 Q37.4563,129.0156 38.05,128.75 Q38.6438,128.4688 39.2688,127.8906 L39.2688,130.6094 Z "/><text fill="#000000" font-family="sans-serif" font-size="14" lengthAdjust="spacingAndGlyphs" textLength="135" x="58.7" y="123.9951">ProblemDeclaration</text><text fill="#000000" font-family="sans-serif" font-size="10" lengthAdjust="spacingAndGlyphs" textLength="145" x="53.7" y="136.5791">de.fraunhofer.aisec.cpg.graph</text><line style="stroke: #A80036; stroke-width: 1.5;" x1="7" x2="216" y1="143.9375" y2="143.9375"/><ellipse cx="17" cy="154.9375" fill="#84BE84" rx="3" ry="3" style="stroke: #038048; stroke-width: 1.0;"/><text fill="#000000" font-family="sans-serif" font-size="11" lengthAdjust="spacingAndGlyphs" textLength="119" x="26" y="158.1479">getFilename(): String</text><ellipse cx="17" cy="167.7422" fill="#84BE84" rx="3" ry="3" style="stroke: #038048; stroke-width: 1.0;"/><text fill="#000000" font-family="sans-serif" font-size="11" lengthAdjust="spacingAndGlyphs" textLength="142" x="26" y="170.9526">setFilename(String): void</text><ellipse cx="17" cy="180.5469" fill="#84BE84" rx="3" ry="3" style="stroke: #038048; stroke-width: 1.0;"/><text fill="#000000" font-family="sans-serif" font-size="11" lengthAdjust="spacingAndGlyphs" textLength="115" x="26" y="183.7573">getProblem(): String</text><ellipse cx="17" cy="193.3516" fill="#84BE84" rx="3" ry="3" style="stroke: #038048; stroke-width: 1.0;"/><text fill="#000000" font-family="sans-serif" font-size="11" lengthAdjust="spacingAndGlyphs" textLength="138" x="26" y="196.562">setProblem(String): void</text><ellipse cx="17" cy="206.1563" fill="#84BE84" rx="3" ry="3" style="stroke: #038048; stroke-width: 1.0;"/><text fill="#000000" font-family="sans-serif" font-size="11" lengthAdjust="spacingAndGlyphs" textLength="162" x="26" y="209.3667">getProblemLocation(): String</text><ellipse cx="17" cy="218.9609" fill="#84BE84" rx="3" ry="3" style="stroke: #038048; stroke-width: 1.0;"/><text fill="#000000" font-family="sans-serif" font-size="11" lengthAdjust="spacingAndGlyphs" textLength="185" x="26" y="222.1714">setProblemLocation(String): void</text></a><!--MD5=[143931fe148168bbe79d8855ff7d1cb7]
class de.fraunhofer.aisec.cpg.graph.Declaration--><a href="Declaration.html" target="_top" title="Declaration.html" xlink:actuate="onRequest" xlink:href="Declaration.html" xlink:show="new" xlink:title="Declaration.html" xlink:type="simple"><rect fill="#FEFECE" filter="url(#fexixf8teiq6b)" height="37.9375" id="de.fraunhofer.aisec.cpg.graph.Declaration" style="stroke: #A80036; stroke-width: 1.5;" width="177" x="23" y="8"/><ellipse cx="38" cy="26.9688" fill="#ADD1B2" rx="11" ry="11" style="stroke: #A80036; stroke-width: 1.0;"/><path d="M40.9688,32.6094 Q40.3906,32.9063 39.75,33.0469 Q39.1094,33.2031 38.4063,33.2031 Q35.9063,33.2031 34.5781,31.5625 Q33.2656,29.9063 33.2656,26.7813 Q33.2656,23.6563 34.5781,22 Q35.9063,20.3438 38.4063,20.3438 Q39.1094,20.3438 39.75,20.5 Q40.4063,20.6563 40.9688,20.9531 L40.9688,23.6719 Q40.3438,23.0938 39.75,22.8281 Q39.1563,22.5469 38.5313,22.5469 Q37.1875,22.5469 36.5,23.625 Q35.8125,24.6875 35.8125,26.7813 Q35.8125,28.875 36.5,29.9531 Q37.1875,31.0156 38.5313,31.0156 Q39.1563,31.0156 39.75,30.75 Q40.3438,30.4688 40.9688,29.8906 L40.9688,32.6094 Z "/><text fill="#000000" font-family="sans-serif" font-size="14" lengthAdjust="spacingAndGlyphs" textLength="78" x="85.5" y="25.9951">Declaration</text><text fill="#000000" font-family="sans-serif" font-size="10" lengthAdjust="spacingAndGlyphs" textLength="145" x="52" y="38.5791">de.fraunhofer.aisec.cpg.graph</text></a><!--MD5=[2162885bab0c63353cd0b3618079bdbf]
reverse link de.fraunhofer.aisec.cpg.graph.Declaration to de.fraunhofer.aisec.cpg.graph.ProblemDeclaration--><path d="M111.5,66.43 C111.5,78.6 111.5,92.36 111.5,105.7 " fill="none" id="de.fraunhofer.aisec.cpg.graph.Declaration&lt;-de.fraunhofer.aisec.cpg.graph.ProblemDeclaration" style="stroke: #A80036; stroke-width: 1.0;"/><polygon fill="none" points="104.5,66.11,111.5,46.11,118.5,66.11,104.5,66.11" style="stroke: #A80036; stroke-width: 1.0;"/><text fill="#888888" font-family="sans-serif" font-size="10" lengthAdjust="spacingAndGlyphs" textLength="186" x="24.5" y="248.2822">UMLDoclet 2.0.9, PlantUML 1.2020.08</text><!--MD5=[4e480b9926c6990abd7b827aaaa8f024]
@startuml
    set namespaceSeparator none
    hide empty fields
    hide empty methods

    class "<size:14>ProblemDeclaration\n<size:10>de.fraunhofer.aisec.cpg.graph" as de.fraunhofer.aisec.cpg.graph.ProblemDeclaration [[ProblemDeclaration.html]] {
        +getFilename(): String
        +setFilename(String): void
        +getProblem(): String
        +setProblem(String): void
        +getProblemLocation(): String
        +setProblemLocation(String): void
    }

    class "<size:14>Declaration\n<size:10>de.fraunhofer.aisec.cpg.graph" as de.fraunhofer.aisec.cpg.graph.Declaration [[Declaration.html]]

    de.fraunhofer.aisec.cpg.graph.Declaration <|- - de.fraunhofer.aisec.cpg.graph.ProblemDeclaration

    center footer UMLDoclet 2.0.9, PlantUML 1.2020.08
@enduml

PlantUML version 1.2020.08(Sun Apr 26 16:08:22 CEST 2020)
(APACHE source distribution)
Java Runtime: OpenJDK Runtime Environment
JVM: OpenJDK 64-Bit Server VM
Java Version: 12.0.2+9-Ubuntu-118.04
Operating System: Linux
Default Encoding: UTF-8
Language: en
Country: US
--></g></svg>