<?xml version="1.0" encoding="UTF-8" standalone="no"?><svg xmlns="http://www.w3.org/2000/svg" xmlns:xlink="http://www.w3.org/1999/xlink" contentScriptType="application/ecmascript" contentStyleType="text/css" height="210px" preserveAspectRatio="none" style="width:231px;height:210px;" version="1.1" viewBox="0 0 231 210" width="231px" zoomAndPan="magnify"><defs><filter height="300%" id="f1qsu74pxtfnun" width="300%" x="-1" y="-1"><feGaussianBlur result="blurOut" stdDeviation="2.0"/><feColorMatrix in="blurOut" result="blurOut2" type="matrix" values="0 0 0 0 0 0 0 0 0 0 0 0 0 0 0 0 0 0 .4 0"/><feOffset dx="4.0" dy="4.0" in="blurOut2" result="blurOut3"/><feBlend in="SourceGraphic" in2="blurOut3" mode="normal"/></filter></defs><g><!--MD5=[f4b25cdfc7c6fb2ddd411fe1c68e61c2]
class de.fraunhofer.aisec.cpg.graph.ReturnStatement--><a href="ReturnStatement.html" target="_top" title="ReturnStatement.html" xlink:actuate="onRequest" xlink:href="ReturnStatement.html" xlink:show="new" xlink:title="ReturnStatement.html" xlink:type="simple"><rect fill="#FEFECE" filter="url(#f1qsu74pxtfnun)" height="71.5469" id="de.fraunhofer.aisec.cpg.graph.ReturnStatement" style="stroke: #A80036; stroke-width: 1.5;" width="214" x="6" y="106"/><ellipse cx="37.65" cy="124.9688" fill="#ADD1B2" rx="11" ry="11" style="stroke: #A80036; stroke-width: 1.0;"/><path d="M40.6188,130.6094 Q40.0406,130.9063 39.4,131.0469 Q38.7594,131.2031 38.0563,131.2031 Q35.5563,131.2031 34.2281,129.5625 Q32.9156,127.9063 32.9156,124.7813 Q32.9156,121.6563 34.2281,120 Q35.5563,118.3438 38.0563,118.3438 Q38.7594,118.3438 39.4,118.5 Q40.0563,118.6563 40.6188,118.9531 L40.6188,121.6719 Q39.9938,121.0938 39.4,120.8281 Q38.8063,120.5469 38.1813,120.5469 Q36.8375,120.5469 36.15,121.625 Q35.4625,122.6875 35.4625,124.7813 Q35.4625,126.875 36.15,127.9531 Q36.8375,129.0156 38.1813,129.0156 Q38.8063,129.0156 39.4,128.75 Q39.9938,128.4688 40.6188,127.8906 L40.6188,130.6094 Z "/><text fill="#000000" font-family="sans-serif" font-size="14" lengthAdjust="spacingAndGlyphs" textLength="119" x="68.35" y="123.9951">ReturnStatement</text><text fill="#000000" font-family="sans-serif" font-size="10" lengthAdjust="spacingAndGlyphs" textLength="145" x="55.35" y="136.5791">de.fraunhofer.aisec.cpg.graph</text><line style="stroke: #A80036; stroke-width: 1.5;" x1="7" x2="219" y1="143.9375" y2="143.9375"/><ellipse cx="17" cy="154.9375" fill="#84BE84" rx="3" ry="3" style="stroke: #038048; stroke-width: 1.0;"/><text fill="#000000" font-family="sans-serif" font-size="11" lengthAdjust="spacingAndGlyphs" textLength="165" x="26" y="158.1479">getReturnValue(): Expression</text><ellipse cx="17" cy="167.7422" fill="#84BE84" rx="3" ry="3" style="stroke: #038048; stroke-width: 1.0;"/><text fill="#000000" font-family="sans-serif" font-size="11" lengthAdjust="spacingAndGlyphs" textLength="188" x="26" y="170.9526">setReturnValue(Expression): void</text></a><!--MD5=[9566dda5ff1f2bf4890c28c79b7fba98]
class de.fraunhofer.aisec.cpg.graph.Statement--><a href="Statement.html" target="_top" title="Statement.html" xlink:actuate="onRequest" xlink:href="Statement.html" xlink:show="new" xlink:title="Statement.html" xlink:type="simple"><rect fill="#FEFECE" filter="url(#f1qsu74pxtfnun)" height="37.9375" id="de.fraunhofer.aisec.cpg.graph.Statement" style="stroke: #A80036; stroke-width: 1.5;" width="177" x="24.5" y="8"/><ellipse cx="39.5" cy="26.9688" fill="#ADD1B2" rx="11" ry="11" style="stroke: #A80036; stroke-width: 1.0;"/><path d="M42.4688,32.6094 Q41.8906,32.9063 41.25,33.0469 Q40.6094,33.2031 39.9063,33.2031 Q37.4063,33.2031 36.0781,31.5625 Q34.7656,29.9063 34.7656,26.7813 Q34.7656,23.6563 36.0781,22 Q37.4063,20.3438 39.9063,20.3438 Q40.6094,20.3438 41.25,20.5 Q41.9063,20.6563 42.4688,20.9531 L42.4688,23.6719 Q41.8438,23.0938 41.25,22.8281 Q40.6563,22.5469 40.0313,22.5469 Q38.6875,22.5469 38,23.625 Q37.3125,24.6875 37.3125,26.7813 Q37.3125,28.875 38,29.9531 Q38.6875,31.0156 40.0313,31.0156 Q40.6563,31.0156 41.25,30.75 Q41.8438,30.4688 42.4688,29.8906 L42.4688,32.6094 Z "/><text fill="#000000" font-family="sans-serif" font-size="14" lengthAdjust="spacingAndGlyphs" textLength="72" x="90" y="25.9951">Statement</text><text fill="#000000" font-family="sans-serif" font-size="10" lengthAdjust="spacingAndGlyphs" textLength="145" x="53.5" y="38.5791">de.fraunhofer.aisec.cpg.graph</text></a><!--MD5=[cff93e32da009786c578ce24004724cc]
reverse link de.fraunhofer.aisec.cpg.graph.Statement to de.fraunhofer.aisec.cpg.graph.ReturnStatement--><path d="M113,66.3 C113,79 113,93.08 113,105.56 " fill="none" id="de.fraunhofer.aisec.cpg.graph.Statement&lt;-de.fraunhofer.aisec.cpg.graph.ReturnStatement" style="stroke: #A80036; stroke-width: 1.0;"/><polygon fill="none" points="106,66.16,113,46.16,120,66.16,106,66.16" style="stroke: #A80036; stroke-width: 1.0;"/><text fill="#888888" font-family="sans-serif" font-size="10" lengthAdjust="spacingAndGlyphs" textLength="186" x="26" y="197.2822">UMLDoclet 2.0.9, PlantUML 1.2020.08</text><!--MD5=[d9062a2a0a1a11207ae2dc2d3abefb5b]
@startuml
    set namespaceSeparator none
    hide empty fields
    hide empty methods

    class "<size:14>ReturnStatement\n<size:10>de.fraunhofer.aisec.cpg.graph" as de.fraunhofer.aisec.cpg.graph.ReturnStatement [[ReturnStatement.html]] {
        +getReturnValue(): Expression
        +setReturnValue(Expression): void
    }

    class "<size:14>Statement\n<size:10>de.fraunhofer.aisec.cpg.graph" as de.fraunhofer.aisec.cpg.graph.Statement [[Statement.html]]

    de.fraunhofer.aisec.cpg.graph.Statement <|- - de.fraunhofer.aisec.cpg.graph.ReturnStatement

    center footer UMLDoclet 2.0.9, PlantUML 1.2020.08
@enduml

PlantUML version 1.2020.08(Sun Apr 26 16:08:22 CEST 2020)
(APACHE source distribution)
Java Runtime: OpenJDK Runtime Environment
JVM: OpenJDK 64-Bit Server VM
Java Version: 12.0.2+9-Ubuntu-118.04
Operating System: Linux
Default Encoding: UTF-8
Language: en
Country: US
--></g></svg>