<?xml version="1.0" encoding="UTF-8" standalone="no"?><svg xmlns="http://www.w3.org/2000/svg" xmlns:xlink="http://www.w3.org/1999/xlink" contentScriptType="application/ecmascript" contentStyleType="text/css" height="222px" preserveAspectRatio="none" style="width:213px;height:222px;" version="1.1" viewBox="0 0 213 222" width="213px" zoomAndPan="magnify"><defs><filter height="300%" id="f1ci8y3qyc15s6" width="300%" x="-1" y="-1"><feGaussianBlur result="blurOut" stdDeviation="2.0"/><feColorMatrix in="blurOut" result="blurOut2" type="matrix" values="0 0 0 0 0 0 0 0 0 0 0 0 0 0 0 0 0 0 .4 0"/><feOffset dx="4.0" dy="4.0" in="blurOut2" result="blurOut3"/><feBlend in="SourceGraphic" in2="blurOut3" mode="normal"/></filter></defs><g><!--MD5=[9ef947964623fe2b1af5bc991a865f05]
class de.fraunhofer.aisec.cpg.graph.StaticCallExpression--><a href="StaticCallExpression.html" target="_top" title="StaticCallExpression.html" xlink:actuate="onRequest" xlink:href="StaticCallExpression.html" xlink:show="new" xlink:title="StaticCallExpression.html" xlink:type="simple"><rect fill="#FEFECE" filter="url(#f1ci8y3qyc15s6)" height="84.3516" id="de.fraunhofer.aisec.cpg.graph.StaticCallExpression" style="stroke: #A80036; stroke-width: 1.5;" width="193" x="6" y="106"/><ellipse cx="28.2" cy="124.9688" fill="#ADD1B2" rx="11" ry="11" style="stroke: #A80036; stroke-width: 1.0;"/><path d="M31.1688,130.6094 Q30.5906,130.9063 29.95,131.0469 Q29.3094,131.2031 28.6063,131.2031 Q26.1063,131.2031 24.7781,129.5625 Q23.4656,127.9063 23.4656,124.7813 Q23.4656,121.6563 24.7781,120 Q26.1063,118.3438 28.6063,118.3438 Q29.3094,118.3438 29.95,118.5 Q30.6063,118.6563 31.1688,118.9531 L31.1688,121.6719 Q30.5438,121.0938 29.95,120.8281 Q29.3563,120.5469 28.7313,120.5469 Q27.3875,120.5469 26.7,121.625 Q26.0125,122.6875 26.0125,124.7813 Q26.0125,126.875 26.7,127.9531 Q27.3875,129.0156 28.7313,129.0156 Q29.3563,129.0156 29.95,128.75 Q30.5438,128.4688 31.1688,127.8906 L31.1688,130.6094 Z "/><text fill="#000000" font-family="sans-serif" font-size="14" lengthAdjust="spacingAndGlyphs" textLength="138" x="47.3" y="123.9951">StaticCallExpression</text><text fill="#000000" font-family="sans-serif" font-size="10" lengthAdjust="spacingAndGlyphs" textLength="145" x="43.8" y="136.5791">de.fraunhofer.aisec.cpg.graph</text><line style="stroke: #A80036; stroke-width: 1.5;" x1="7" x2="198" y1="143.9375" y2="143.9375"/><ellipse cx="17" cy="154.9375" fill="#84BE84" rx="3" ry="3" style="stroke: #038048; stroke-width: 1.0;"/><text fill="#000000" font-family="sans-serif" font-size="11" lengthAdjust="spacingAndGlyphs" textLength="144" x="26" y="158.1479">getTargetRecord(): String</text><ellipse cx="17" cy="167.7422" fill="#84BE84" rx="3" ry="3" style="stroke: #038048; stroke-width: 1.0;"/><text fill="#000000" font-family="sans-serif" font-size="11" lengthAdjust="spacingAndGlyphs" textLength="124" x="26" y="170.9526">setName(String): void</text><ellipse cx="17" cy="180.5469" fill="#84BE84" rx="3" ry="3" style="stroke: #038048; stroke-width: 1.0;"/><text fill="#000000" font-family="sans-serif" font-size="11" lengthAdjust="spacingAndGlyphs" textLength="167" x="26" y="183.7573">setTargetRecord(String): void</text></a><!--MD5=[5fc3daf7a542c4d7aa23b26341df7e6b]
class de.fraunhofer.aisec.cpg.graph.CallExpression--><a href="CallExpression.html" target="_top" title="CallExpression.html" xlink:actuate="onRequest" xlink:href="CallExpression.html" xlink:show="new" xlink:title="CallExpression.html" xlink:type="simple"><rect fill="#FEFECE" filter="url(#f1ci8y3qyc15s6)" height="37.9375" id="de.fraunhofer.aisec.cpg.graph.CallExpression" style="stroke: #A80036; stroke-width: 1.5;" width="177" x="14" y="8"/><ellipse cx="29" cy="26.9688" fill="#ADD1B2" rx="11" ry="11" style="stroke: #A80036; stroke-width: 1.0;"/><path d="M31.9688,32.6094 Q31.3906,32.9063 30.75,33.0469 Q30.1094,33.2031 29.4063,33.2031 Q26.9063,33.2031 25.5781,31.5625 Q24.2656,29.9063 24.2656,26.7813 Q24.2656,23.6563 25.5781,22 Q26.9063,20.3438 29.4063,20.3438 Q30.1094,20.3438 30.75,20.5 Q31.4063,20.6563 31.9688,20.9531 L31.9688,23.6719 Q31.3438,23.0938 30.75,22.8281 Q30.1563,22.5469 29.5313,22.5469 Q28.1875,22.5469 27.5,23.625 Q26.8125,24.6875 26.8125,26.7813 Q26.8125,28.875 27.5,29.9531 Q28.1875,31.0156 29.5313,31.0156 Q30.1563,31.0156 30.75,30.75 Q31.3438,30.4688 31.9688,29.8906 L31.9688,32.6094 Z "/><text fill="#000000" font-family="sans-serif" font-size="14" lengthAdjust="spacingAndGlyphs" textLength="100" x="65.5" y="25.9951">CallExpression</text><text fill="#000000" font-family="sans-serif" font-size="10" lengthAdjust="spacingAndGlyphs" textLength="145" x="43" y="38.5791">de.fraunhofer.aisec.cpg.graph</text></a><!--MD5=[53af5de107ce23005f09e80e7a41f57c]
reverse link de.fraunhofer.aisec.cpg.graph.CallExpression to de.fraunhofer.aisec.cpg.graph.StaticCallExpression--><path d="M102.5,66.54 C102.5,79.08 102.5,93.05 102.5,105.78 " fill="none" id="de.fraunhofer.aisec.cpg.graph.CallExpression&lt;-de.fraunhofer.aisec.cpg.graph.StaticCallExpression" style="stroke: #A80036; stroke-width: 1.0;"/><polygon fill="none" points="95.5,66.07,102.5,46.07,109.5,66.07,95.5,66.07" style="stroke: #A80036; stroke-width: 1.0;"/><text fill="#888888" font-family="sans-serif" font-size="10" lengthAdjust="spacingAndGlyphs" textLength="186" x="15.5" y="209.2822">UMLDoclet 2.0.9, PlantUML 1.2020.08</text><!--MD5=[fc089f6ee1f0b294d28ed91d9ab933e5]
@startuml
    set namespaceSeparator none
    hide empty fields
    hide empty methods

    class "<size:14>StaticCallExpression\n<size:10>de.fraunhofer.aisec.cpg.graph" as de.fraunhofer.aisec.cpg.graph.StaticCallExpression [[StaticCallExpression.html]] {
        +getTargetRecord(): String
        +setName(String): void
        +setTargetRecord(String): void
    }

    class "<size:14>CallExpression\n<size:10>de.fraunhofer.aisec.cpg.graph" as de.fraunhofer.aisec.cpg.graph.CallExpression [[CallExpression.html]]

    de.fraunhofer.aisec.cpg.graph.CallExpression <|- - de.fraunhofer.aisec.cpg.graph.StaticCallExpression

    center footer UMLDoclet 2.0.9, PlantUML 1.2020.08
@enduml

PlantUML version 1.2020.08(Sun Apr 26 16:08:22 CEST 2020)
(APACHE source distribution)
Java Runtime: OpenJDK Runtime Environment
JVM: OpenJDK 64-Bit Server VM
Java Version: 12.0.2+9-Ubuntu-118.04
Operating System: Linux
Default Encoding: UTF-8
Language: en
Country: US
--></g></svg>