<?xml version="1.0" encoding="UTF-8" standalone="no"?><svg xmlns="http://www.w3.org/2000/svg" xmlns:xlink="http://www.w3.org/1999/xlink" contentScriptType="application/ecmascript" contentStyleType="text/css" height="210px" preserveAspectRatio="none" style="width:689px;height:210px;" version="1.1" viewBox="0 0 689 210" width="689px" zoomAndPan="magnify"><defs><filter height="300%" id="fcdwsdg0cqtbs" width="300%" x="-1" y="-1"><feGaussianBlur result="blurOut" stdDeviation="2.0"/><feColorMatrix in="blurOut" result="blurOut2" type="matrix" values="0 0 0 0 0 0 0 0 0 0 0 0 0 0 0 0 0 0 .4 0"/><feOffset dx="4.0" dy="4.0" in="blurOut2" result="blurOut3"/><feBlend in="SourceGraphic" in2="blurOut3" mode="normal"/></filter></defs><g><!--MD5=[62ddcedeb8d5482764cc04bf0ecc49f1]
class de.fraunhofer.aisec.cpg.graph.StaticReferenceExpression--><a href="StaticReferenceExpression.html" target="_top" title="StaticReferenceExpression.html" xlink:actuate="onRequest" xlink:href="StaticReferenceExpression.html" xlink:show="new" xlink:title="StaticReferenceExpression.html" xlink:type="simple"><rect fill="#FEFECE" filter="url(#fcdwsdg0cqtbs)" height="37.9375" id="de.fraunhofer.aisec.cpg.graph.StaticReferenceExpression" style="stroke: #A80036; stroke-width: 1.5;" width="218" x="195" y="140"/><ellipse cx="210" cy="158.9688" fill="#ADD1B2" rx="11" ry="11" style="stroke: #A80036; stroke-width: 1.0;"/><path d="M212.9688,164.6094 Q212.3906,164.9063 211.75,165.0469 Q211.1094,165.2031 210.4063,165.2031 Q207.9063,165.2031 206.5781,163.5625 Q205.2656,161.9063 205.2656,158.7813 Q205.2656,155.6563 206.5781,154 Q207.9063,152.3438 210.4063,152.3438 Q211.1094,152.3438 211.75,152.5 Q212.4063,152.6563 212.9688,152.9531 L212.9688,155.6719 Q212.3438,155.0938 211.75,154.8281 Q211.1563,154.5469 210.5313,154.5469 Q209.1875,154.5469 208.5,155.625 Q207.8125,156.6875 207.8125,158.7813 Q207.8125,160.875 208.5,161.9531 Q209.1875,163.0156 210.5313,163.0156 Q211.1563,163.0156 211.75,162.75 Q212.3438,162.4688 212.9688,161.8906 L212.9688,164.6094 Z "/><text fill="#000000" font-family="sans-serif" font-size="14" lengthAdjust="spacingAndGlyphs" textLength="186" x="224" y="157.9951">StaticReferenceExpression</text><text fill="#000000" font-family="sans-serif" font-size="10" lengthAdjust="spacingAndGlyphs" textLength="145" x="244.5" y="170.5791">de.fraunhofer.aisec.cpg.graph</text></a><!--MD5=[dd4bfe91ad9208a59e8b2e1aff861382]
class de.fraunhofer.aisec.cpg.graph.DeclaredReferenceExpression--><a href="DeclaredReferenceExpression.html" target="_top" title="DeclaredReferenceExpression.html" xlink:actuate="onRequest" xlink:href="DeclaredReferenceExpression.html" xlink:show="new" xlink:title="DeclaredReferenceExpression.html" xlink:type="simple"><rect fill="#FEFECE" filter="url(#fcdwsdg0cqtbs)" height="37.9375" id="de.fraunhofer.aisec.cpg.graph.DeclaredReferenceExpression" style="stroke: #A80036; stroke-width: 1.5;" width="242" x="6" y="25"/><ellipse cx="21" cy="43.9688" fill="#ADD1B2" rx="11" ry="11" style="stroke: #A80036; stroke-width: 1.0;"/><path d="M23.9688,49.6094 Q23.3906,49.9063 22.75,50.0469 Q22.1094,50.2031 21.4063,50.2031 Q18.9063,50.2031 17.5781,48.5625 Q16.2656,46.9063 16.2656,43.7813 Q16.2656,40.6563 17.5781,39 Q18.9063,37.3438 21.4063,37.3438 Q22.1094,37.3438 22.75,37.5 Q23.4063,37.6563 23.9688,37.9531 L23.9688,40.6719 Q23.3438,40.0938 22.75,39.8281 Q22.1563,39.5469 21.5313,39.5469 Q20.1875,39.5469 19.5,40.625 Q18.8125,41.6875 18.8125,43.7813 Q18.8125,45.875 19.5,46.9531 Q20.1875,48.0156 21.5313,48.0156 Q22.1563,48.0156 22.75,47.75 Q23.3438,47.4688 23.9688,46.8906 L23.9688,49.6094 Z "/><text fill="#000000" font-family="sans-serif" font-size="14" lengthAdjust="spacingAndGlyphs" textLength="210" x="35" y="42.9951">DeclaredReferenceExpression</text><text fill="#000000" font-family="sans-serif" font-size="10" lengthAdjust="spacingAndGlyphs" textLength="145" x="67.5" y="55.5791">de.fraunhofer.aisec.cpg.graph</text></a><!--MD5=[4ec8a2121f068e962618cb9a044486ac]
class de.fraunhofer.aisec.cpg.graph.HasType.TypeListener--><a href="HasType.TypeListener.html" target="_top" title="HasType.TypeListener.html" xlink:actuate="onRequest" xlink:href="HasType.TypeListener.html" xlink:show="new" xlink:title="HasType.TypeListener.html" xlink:type="simple"><rect fill="#FEFECE" filter="url(#fcdwsdg0cqtbs)" height="71.5469" id="de.fraunhofer.aisec.cpg.graph.HasType.TypeListener" style="stroke: #A80036; stroke-width: 1.5;" width="395" x="283.5" y="8"/><ellipse cx="399.25" cy="26.9688" fill="#B4A7E5" rx="11" ry="11" style="stroke: #A80036; stroke-width: 1.0;"/><path d="M395.1719,22.7344 L395.1719,20.5781 L402.5625,20.5781 L402.5625,22.7344 L400.0938,22.7344 L400.0938,30.8125 L402.5625,30.8125 L402.5625,32.9688 L395.1719,32.9688 L395.1719,30.8125 L397.6406,30.8125 L397.6406,22.7344 L395.1719,22.7344 Z "/><text fill="#000000" font-family="sans-serif" font-size="14" font-style="italic" lengthAdjust="spacingAndGlyphs" textLength="155" x="419.75" y="25.9951">HasType.TypeListener</text><text fill="#000000" font-family="sans-serif" font-size="10" font-style="italic" lengthAdjust="spacingAndGlyphs" textLength="148" x="423.25" y="38.5791">de.fraunhofer.aisec.cpg.graph</text><line style="stroke: #A80036; stroke-width: 1.5;" x1="284.5" x2="677.5" y1="45.9375" y2="45.9375"/><ellipse cx="294.5" cy="56.9375" fill="#84BE84" rx="3" ry="3" style="stroke: #038048; stroke-width: 1.0;"/><text fill="#000000" font-family="sans-serif" font-size="11" font-style="italic" lengthAdjust="spacingAndGlyphs" textLength="257" x="303.5" y="60.1479">typeChanged(HasType, HasType, Type): void</text><ellipse cx="294.5" cy="69.7422" fill="#84BE84" rx="3" ry="3" style="stroke: #038048; stroke-width: 1.0;"/><text fill="#000000" font-family="sans-serif" font-size="11" font-style="italic" lengthAdjust="spacingAndGlyphs" textLength="369" x="303.5" y="72.9526">possibleSubTypesChanged(HasType, HasType, Set&lt;Type&gt;): void</text></a><!--MD5=[9e51e8db5ef196b371405969ff5ac000]
reverse link de.fraunhofer.aisec.cpg.graph.DeclaredReferenceExpression to de.fraunhofer.aisec.cpg.graph.StaticReferenceExpression--><path d="M172.31,73.93 C204.88,94.72 247.79,122.11 275.63,139.89 " fill="none" id="de.fraunhofer.aisec.cpg.graph.DeclaredReferenceExpression&lt;-de.fraunhofer.aisec.cpg.graph.StaticReferenceExpression" style="stroke: #A80036; stroke-width: 1.0;"/><polygon fill="none" points="168.53,79.82,155.44,63.16,176.06,68.02,168.53,79.82" style="stroke: #A80036; stroke-width: 1.0;"/><!--MD5=[d2700871e7541050a40cfdd188735311]
reverse link de.fraunhofer.aisec.cpg.graph.HasType.TypeListener to de.fraunhofer.aisec.cpg.graph.StaticReferenceExpression--><path d="M409.09,90.91 C382.11,108.13 352.99,126.72 332.26,139.96 " fill="none" id="de.fraunhofer.aisec.cpg.graph.HasType.TypeListener&lt;-de.fraunhofer.aisec.cpg.graph.StaticReferenceExpression" style="stroke: #A80036; stroke-width: 1.0; stroke-dasharray: 7.0,7.0;"/><polygon fill="none" points="405.34,85,425.97,80.13,412.88,96.8,405.34,85" style="stroke: #A80036; stroke-width: 1.0;"/><text fill="#888888" font-family="sans-serif" font-size="10" lengthAdjust="spacingAndGlyphs" textLength="186" x="255.5" y="197.2822">UMLDoclet 2.0.9, PlantUML 1.2020.08</text><!--MD5=[7f102a75b1ef63f5f59833b865615741]
@startuml
    set namespaceSeparator none
    hide empty fields
    hide empty methods

    class "<size:14>StaticReferenceExpression\n<size:10>de.fraunhofer.aisec.cpg.graph" as de.fraunhofer.aisec.cpg.graph.StaticReferenceExpression [[StaticReferenceExpression.html]]

    class "<size:14>DeclaredReferenceExpression\n<size:10>de.fraunhofer.aisec.cpg.graph" as de.fraunhofer.aisec.cpg.graph.DeclaredReferenceExpression [[DeclaredReferenceExpression.html]]
    interface "<size:14>HasType.TypeListener\n<size:10>de.fraunhofer.aisec.cpg.graph" as de.fraunhofer.aisec.cpg.graph.HasType.TypeListener [[HasType.TypeListener.html]] {
        {abstract} +typeChanged(HasType, HasType, Type): void
        {abstract} +possibleSubTypesChanged(HasType, HasType, Set<Type>): void
    }

    de.fraunhofer.aisec.cpg.graph.DeclaredReferenceExpression <|- - de.fraunhofer.aisec.cpg.graph.StaticReferenceExpression
    de.fraunhofer.aisec.cpg.graph.HasType.TypeListener <|.. de.fraunhofer.aisec.cpg.graph.StaticReferenceExpression

    center footer UMLDoclet 2.0.9, PlantUML 1.2020.08
@enduml

PlantUML version 1.2020.08(Sun Apr 26 16:08:22 CEST 2020)
(APACHE source distribution)
Java Runtime: OpenJDK Runtime Environment
JVM: OpenJDK 64-Bit Server VM
Java Version: 12.0.2+9-Ubuntu-118.04
Operating System: Linux
Default Encoding: UTF-8
Language: en
Country: US
--></g></svg>