<?xml version="1.0" encoding="UTF-8" standalone="no"?><svg xmlns="http://www.w3.org/2000/svg" xmlns:xlink="http://www.w3.org/1999/xlink" contentScriptType="application/ecmascript" contentStyleType="text/css" height="307px" preserveAspectRatio="none" style="width:275px;height:307px;" version="1.1" viewBox="0 0 275 307" width="275px" zoomAndPan="magnify"><defs><filter height="300%" id="f13frcddx5ssbw" width="300%" x="-1" y="-1"><feGaussianBlur result="blurOut" stdDeviation="2.0"/><feColorMatrix in="blurOut" result="blurOut2" type="matrix" values="0 0 0 0 0 0 0 0 0 0 0 0 0 0 0 0 0 0 .4 0"/><feOffset dx="4.0" dy="4.0" in="blurOut2" result="blurOut3"/><feBlend in="SourceGraphic" in2="blurOut3" mode="normal"/></filter></defs><g><!--MD5=[085865151951a357580eb4505d217512]
class de.fraunhofer.aisec.cpg.graph.SwitchStatement--><a href="SwitchStatement.html" target="_top" title="SwitchStatement.html" xlink:actuate="onRequest" xlink:href="SwitchStatement.html" xlink:show="new" xlink:title="SwitchStatement.html" xlink:type="simple"><rect fill="#FEFECE" filter="url(#f13frcddx5ssbw)" height="169.1797" id="de.fraunhofer.aisec.cpg.graph.SwitchStatement" style="stroke: #A80036; stroke-width: 1.5;" width="258" x="6" y="106"/><ellipse cx="58.25" cy="124.9688" fill="#ADD1B2" rx="11" ry="11" style="stroke: #A80036; stroke-width: 1.0;"/><path d="M61.2188,130.6094 Q60.6406,130.9063 60,131.0469 Q59.3594,131.2031 58.6563,131.2031 Q56.1563,131.2031 54.8281,129.5625 Q53.5156,127.9063 53.5156,124.7813 Q53.5156,121.6563 54.8281,120 Q56.1563,118.3438 58.6563,118.3438 Q59.3594,118.3438 60,118.5 Q60.6563,118.6563 61.2188,118.9531 L61.2188,121.6719 Q60.5938,121.0938 60,120.8281 Q59.4063,120.5469 58.7813,120.5469 Q57.4375,120.5469 56.75,121.625 Q56.0625,122.6875 56.0625,124.7813 Q56.0625,126.875 56.75,127.9531 Q57.4375,129.0156 58.7813,129.0156 Q59.4063,129.0156 60,128.75 Q60.5938,128.4688 61.2188,127.8906 L61.2188,130.6094 Z "/><text fill="#000000" font-family="sans-serif" font-size="14" lengthAdjust="spacingAndGlyphs" textLength="117" x="92.75" y="123.9951">SwitchStatement</text><text fill="#000000" font-family="sans-serif" font-size="10" lengthAdjust="spacingAndGlyphs" textLength="145" x="78.75" y="136.5791">de.fraunhofer.aisec.cpg.graph</text><line style="stroke: #A80036; stroke-width: 1.5;" x1="7" x2="263" y1="143.9375" y2="143.9375"/><ellipse cx="17" cy="154.9375" fill="none" rx="3" ry="3" style="stroke: #038048; stroke-width: 1.0;"/><text fill="#000000" font-family="sans-serif" font-size="11" lengthAdjust="spacingAndGlyphs" textLength="117" x="26" y="158.1479">selector: Expression</text><line style="stroke: #A80036; stroke-width: 1.5;" x1="7" x2="263" y1="164.7422" y2="164.7422"/><ellipse cx="17" cy="175.7422" fill="#84BE84" rx="3" ry="3" style="stroke: #038048; stroke-width: 1.0;"/><text fill="#000000" font-family="sans-serif" font-size="11" lengthAdjust="spacingAndGlyphs" textLength="202" x="26" y="178.9526">getInitializerStatement(): Statement</text><ellipse cx="17" cy="188.5469" fill="#84BE84" rx="3" ry="3" style="stroke: #038048; stroke-width: 1.0;"/><text fill="#000000" font-family="sans-serif" font-size="11" lengthAdjust="spacingAndGlyphs" textLength="225" x="26" y="191.7573">setInitializerStatement(Statement): void</text><ellipse cx="17" cy="201.3516" fill="#84BE84" rx="3" ry="3" style="stroke: #038048; stroke-width: 1.0;"/><text fill="#000000" font-family="sans-serif" font-size="11" lengthAdjust="spacingAndGlyphs" textLength="209" x="26" y="204.562">getSelectorDeclaration(): Declaration</text><ellipse cx="17" cy="214.1563" fill="#84BE84" rx="3" ry="3" style="stroke: #038048; stroke-width: 1.0;"/><text fill="#000000" font-family="sans-serif" font-size="11" lengthAdjust="spacingAndGlyphs" textLength="232" x="26" y="217.3667">setSelectorDeclaration(Declaration): void</text><ellipse cx="17" cy="226.9609" fill="#84BE84" rx="3" ry="3" style="stroke: #038048; stroke-width: 1.0;"/><text fill="#000000" font-family="sans-serif" font-size="11" lengthAdjust="spacingAndGlyphs" textLength="144" x="26" y="230.1714">getSelector(): Expression</text><ellipse cx="17" cy="239.7656" fill="#84BE84" rx="3" ry="3" style="stroke: #038048; stroke-width: 1.0;"/><text fill="#000000" font-family="sans-serif" font-size="11" lengthAdjust="spacingAndGlyphs" textLength="167" x="26" y="242.9761">setSelector(Expression): void</text><ellipse cx="17" cy="252.5703" fill="#84BE84" rx="3" ry="3" style="stroke: #038048; stroke-width: 1.0;"/><text fill="#000000" font-family="sans-serif" font-size="11" lengthAdjust="spacingAndGlyphs" textLength="152" x="26" y="255.7808">getStatement(): Statement</text><ellipse cx="17" cy="265.375" fill="#84BE84" rx="3" ry="3" style="stroke: #038048; stroke-width: 1.0;"/><text fill="#000000" font-family="sans-serif" font-size="11" lengthAdjust="spacingAndGlyphs" textLength="175" x="26" y="268.5854">setStatement(Statement): void</text></a><!--MD5=[9566dda5ff1f2bf4890c28c79b7fba98]
class de.fraunhofer.aisec.cpg.graph.Statement--><a href="Statement.html" target="_top" title="Statement.html" xlink:actuate="onRequest" xlink:href="Statement.html" xlink:show="new" xlink:title="Statement.html" xlink:type="simple"><rect fill="#FEFECE" filter="url(#f13frcddx5ssbw)" height="37.9375" id="de.fraunhofer.aisec.cpg.graph.Statement" style="stroke: #A80036; stroke-width: 1.5;" width="177" x="46.5" y="8"/><ellipse cx="61.5" cy="26.9688" fill="#ADD1B2" rx="11" ry="11" style="stroke: #A80036; stroke-width: 1.0;"/><path d="M64.4688,32.6094 Q63.8906,32.9063 63.25,33.0469 Q62.6094,33.2031 61.9063,33.2031 Q59.4063,33.2031 58.0781,31.5625 Q56.7656,29.9063 56.7656,26.7813 Q56.7656,23.6563 58.0781,22 Q59.4063,20.3438 61.9063,20.3438 Q62.6094,20.3438 63.25,20.5 Q63.9063,20.6563 64.4688,20.9531 L64.4688,23.6719 Q63.8438,23.0938 63.25,22.8281 Q62.6563,22.5469 62.0313,22.5469 Q60.6875,22.5469 60,23.625 Q59.3125,24.6875 59.3125,26.7813 Q59.3125,28.875 60,29.9531 Q60.6875,31.0156 62.0313,31.0156 Q62.6563,31.0156 63.25,30.75 Q63.8438,30.4688 64.4688,29.8906 L64.4688,32.6094 Z "/><text fill="#000000" font-family="sans-serif" font-size="14" lengthAdjust="spacingAndGlyphs" textLength="72" x="112" y="25.9951">Statement</text><text fill="#000000" font-family="sans-serif" font-size="10" lengthAdjust="spacingAndGlyphs" textLength="145" x="75.5" y="38.5791">de.fraunhofer.aisec.cpg.graph</text></a><!--MD5=[632a8ab16dbf1d83a4b246126aeb2c3c]
reverse link de.fraunhofer.aisec.cpg.graph.Statement to de.fraunhofer.aisec.cpg.graph.SwitchStatement--><path d="M135,66.65 C135,78.59 135,92.24 135,105.99 " fill="none" id="de.fraunhofer.aisec.cpg.graph.Statement&lt;-de.fraunhofer.aisec.cpg.graph.SwitchStatement" style="stroke: #A80036; stroke-width: 1.0;"/><polygon fill="none" points="128,66.21,135,46.21,142,66.21,128,66.21" style="stroke: #A80036; stroke-width: 1.0;"/><text fill="#888888" font-family="sans-serif" font-size="10" lengthAdjust="spacingAndGlyphs" textLength="186" x="48" y="294.2822">UMLDoclet 2.0.9, PlantUML 1.2020.08</text><!--MD5=[5a5763dfe5d2736e42ce21d3b624656d]
@startuml
    set namespaceSeparator none
    hide empty fields
    hide empty methods

    class "<size:14>SwitchStatement\n<size:10>de.fraunhofer.aisec.cpg.graph" as de.fraunhofer.aisec.cpg.graph.SwitchStatement [[SwitchStatement.html]] {
        +selector: Expression
        +getInitializerStatement(): Statement
        +setInitializerStatement(Statement): void
        +getSelectorDeclaration(): Declaration
        +setSelectorDeclaration(Declaration): void
        +getSelector(): Expression
        +setSelector(Expression): void
        +getStatement(): Statement
        +setStatement(Statement): void
    }

    class "<size:14>Statement\n<size:10>de.fraunhofer.aisec.cpg.graph" as de.fraunhofer.aisec.cpg.graph.Statement [[Statement.html]]

    de.fraunhofer.aisec.cpg.graph.Statement <|- - de.fraunhofer.aisec.cpg.graph.SwitchStatement

    center footer UMLDoclet 2.0.9, PlantUML 1.2020.08
@enduml

PlantUML version 1.2020.08(Sun Apr 26 16:08:22 CEST 2020)
(APACHE source distribution)
Java Runtime: OpenJDK Runtime Environment
JVM: OpenJDK 64-Bit Server VM
Java Version: 12.0.2+9-Ubuntu-118.04
Operating System: Linux
Default Encoding: UTF-8
Language: en
Country: US
--></g></svg>