<?xml version="1.0" encoding="UTF-8" standalone="no"?><svg xmlns="http://www.w3.org/2000/svg" xmlns:xlink="http://www.w3.org/1999/xlink" contentScriptType="application/ecmascript" contentStyleType="text/css" height="269px" preserveAspectRatio="none" style="width:309px;height:269px;" version="1.1" viewBox="0 0 309 269" width="309px" zoomAndPan="magnify"><defs><filter height="300%" id="f1tijzgmy3fwnd" width="300%" x="-1" y="-1"><feGaussianBlur result="blurOut" stdDeviation="2.0"/><feColorMatrix in="blurOut" result="blurOut2" type="matrix" values="0 0 0 0 0 0 0 0 0 0 0 0 0 0 0 0 0 0 .4 0"/><feOffset dx="4.0" dy="4.0" in="blurOut2" result="blurOut3"/><feBlend in="SourceGraphic" in2="blurOut3" mode="normal"/></filter></defs><g><!--MD5=[24133b71fb1082bd0864fc3666081ad8]
class de.fraunhofer.aisec.cpg.graph.SynchronizedStatement--><a href="SynchronizedStatement.html" target="_top" title="SynchronizedStatement.html" xlink:actuate="onRequest" xlink:href="SynchronizedStatement.html" xlink:show="new" xlink:title="SynchronizedStatement.html" xlink:type="simple"><rect fill="#FEFECE" filter="url(#f1tijzgmy3fwnd)" height="130.7656" id="de.fraunhofer.aisec.cpg.graph.SynchronizedStatement" style="stroke: #A80036; stroke-width: 1.5;" width="292" x="6" y="106"/><ellipse cx="64.75" cy="124.9688" fill="#ADD1B2" rx="11" ry="11" style="stroke: #A80036; stroke-width: 1.0;"/><path d="M67.7188,130.6094 Q67.1406,130.9063 66.5,131.0469 Q65.8594,131.2031 65.1563,131.2031 Q62.6563,131.2031 61.3281,129.5625 Q60.0156,127.9063 60.0156,124.7813 Q60.0156,121.6563 61.3281,120 Q62.6563,118.3438 65.1563,118.3438 Q65.8594,118.3438 66.5,118.5 Q67.1563,118.6563 67.7188,118.9531 L67.7188,121.6719 Q67.0938,121.0938 66.5,120.8281 Q65.9063,120.5469 65.2813,120.5469 Q63.9375,120.5469 63.25,121.625 Q62.5625,122.6875 62.5625,124.7813 Q62.5625,126.875 63.25,127.9531 Q63.9375,129.0156 65.2813,129.0156 Q65.9063,129.0156 66.5,128.75 Q67.0938,128.4688 67.7188,127.8906 L67.7188,130.6094 Z "/><text fill="#000000" font-family="sans-serif" font-size="14" lengthAdjust="spacingAndGlyphs" textLength="166" x="85.25" y="123.9951">SynchronizedStatement</text><text fill="#000000" font-family="sans-serif" font-size="10" lengthAdjust="spacingAndGlyphs" textLength="145" x="95.75" y="136.5791">de.fraunhofer.aisec.cpg.graph</text><line style="stroke: #A80036; stroke-width: 1.5;" x1="7" x2="297" y1="143.9375" y2="143.9375"/><ellipse cx="17" cy="154.9375" fill="none" rx="3" ry="3" style="stroke: #038048; stroke-width: 1.0;"/><text fill="#000000" font-family="sans-serif" font-size="11" lengthAdjust="spacingAndGlyphs" textLength="134" x="26" y="158.1479">expression: Expression</text><ellipse cx="17" cy="167.7422" fill="none" rx="3" ry="3" style="stroke: #038048; stroke-width: 1.0;"/><text fill="#000000" font-family="sans-serif" font-size="11" lengthAdjust="spacingAndGlyphs" textLength="216" x="26" y="170.9526">blockStatement: CompoundStatement</text><line style="stroke: #A80036; stroke-width: 1.5;" x1="7" x2="297" y1="177.5469" y2="177.5469"/><ellipse cx="17" cy="188.5469" fill="#84BE84" rx="3" ry="3" style="stroke: #038048; stroke-width: 1.0;"/><text fill="#000000" font-family="sans-serif" font-size="11" lengthAdjust="spacingAndGlyphs" textLength="160" x="26" y="191.7573">getExpression(): Expression</text><ellipse cx="17" cy="201.3516" fill="#84BE84" rx="3" ry="3" style="stroke: #038048; stroke-width: 1.0;"/><text fill="#000000" font-family="sans-serif" font-size="11" lengthAdjust="spacingAndGlyphs" textLength="183" x="26" y="204.562">setExpression(Expression): void</text><ellipse cx="17" cy="214.1563" fill="#84BE84" rx="3" ry="3" style="stroke: #038048; stroke-width: 1.0;"/><text fill="#000000" font-family="sans-serif" font-size="11" lengthAdjust="spacingAndGlyphs" textLength="243" x="26" y="217.3667">getBlockStatement(): CompoundStatement</text><ellipse cx="17" cy="226.9609" fill="#84BE84" rx="3" ry="3" style="stroke: #038048; stroke-width: 1.0;"/><text fill="#000000" font-family="sans-serif" font-size="11" lengthAdjust="spacingAndGlyphs" textLength="266" x="26" y="230.1714">setBlockStatement(CompoundStatement): void</text></a><!--MD5=[9566dda5ff1f2bf4890c28c79b7fba98]
class de.fraunhofer.aisec.cpg.graph.Statement--><a href="Statement.html" target="_top" title="Statement.html" xlink:actuate="onRequest" xlink:href="Statement.html" xlink:show="new" xlink:title="Statement.html" xlink:type="simple"><rect fill="#FEFECE" filter="url(#f1tijzgmy3fwnd)" height="37.9375" id="de.fraunhofer.aisec.cpg.graph.Statement" style="stroke: #A80036; stroke-width: 1.5;" width="177" x="63.5" y="8"/><ellipse cx="78.5" cy="26.9688" fill="#ADD1B2" rx="11" ry="11" style="stroke: #A80036; stroke-width: 1.0;"/><path d="M81.4688,32.6094 Q80.8906,32.9063 80.25,33.0469 Q79.6094,33.2031 78.9063,33.2031 Q76.4063,33.2031 75.0781,31.5625 Q73.7656,29.9063 73.7656,26.7813 Q73.7656,23.6563 75.0781,22 Q76.4063,20.3438 78.9063,20.3438 Q79.6094,20.3438 80.25,20.5 Q80.9063,20.6563 81.4688,20.9531 L81.4688,23.6719 Q80.8438,23.0938 80.25,22.8281 Q79.6563,22.5469 79.0313,22.5469 Q77.6875,22.5469 77,23.625 Q76.3125,24.6875 76.3125,26.7813 Q76.3125,28.875 77,29.9531 Q77.6875,31.0156 79.0313,31.0156 Q79.6563,31.0156 80.25,30.75 Q80.8438,30.4688 81.4688,29.8906 L81.4688,32.6094 Z "/><text fill="#000000" font-family="sans-serif" font-size="14" lengthAdjust="spacingAndGlyphs" textLength="72" x="129" y="25.9951">Statement</text><text fill="#000000" font-family="sans-serif" font-size="10" lengthAdjust="spacingAndGlyphs" textLength="145" x="92.5" y="38.5791">de.fraunhofer.aisec.cpg.graph</text></a><!--MD5=[0da38f5562fd2c67aea43a0c2059c7af]
reverse link de.fraunhofer.aisec.cpg.graph.Statement to de.fraunhofer.aisec.cpg.graph.SynchronizedStatement--><path d="M152,66.34 C152,78.52 152,92.34 152,105.84 " fill="none" id="de.fraunhofer.aisec.cpg.graph.Statement&lt;-de.fraunhofer.aisec.cpg.graph.SynchronizedStatement" style="stroke: #A80036; stroke-width: 1.0;"/><polygon fill="none" points="145,66.05,152,46.05,159,66.05,145,66.05" style="stroke: #A80036; stroke-width: 1.0;"/><text fill="#888888" font-family="sans-serif" font-size="10" lengthAdjust="spacingAndGlyphs" textLength="186" x="65" y="256.2822">UMLDoclet 2.0.9, PlantUML 1.2020.08</text><!--MD5=[1b9b9feed1f03d9dfe9a04133f96ee34]
@startuml
    set namespaceSeparator none
    hide empty fields
    hide empty methods

    class "<size:14>SynchronizedStatement\n<size:10>de.fraunhofer.aisec.cpg.graph" as de.fraunhofer.aisec.cpg.graph.SynchronizedStatement [[SynchronizedStatement.html]] {
        +expression: Expression
        +blockStatement: CompoundStatement
        +getExpression(): Expression
        +setExpression(Expression): void
        +getBlockStatement(): CompoundStatement
        +setBlockStatement(CompoundStatement): void
    }

    class "<size:14>Statement\n<size:10>de.fraunhofer.aisec.cpg.graph" as de.fraunhofer.aisec.cpg.graph.Statement [[Statement.html]]

    de.fraunhofer.aisec.cpg.graph.Statement <|- - de.fraunhofer.aisec.cpg.graph.SynchronizedStatement

    center footer UMLDoclet 2.0.9, PlantUML 1.2020.08
@enduml

PlantUML version 1.2020.08(Sun Apr 26 16:08:22 CEST 2020)
(APACHE source distribution)
Java Runtime: OpenJDK Runtime Environment
JVM: OpenJDK 64-Bit Server VM
Java Version: 12.0.2+9-Ubuntu-118.04
Operating System: Linux
Default Encoding: UTF-8
Language: en
Country: US
--></g></svg>