<?xml version="1.0" encoding="UTF-8" standalone="no"?><svg xmlns="http://www.w3.org/2000/svg" xmlns:xlink="http://www.w3.org/1999/xlink" contentScriptType="application/ecmascript" contentStyleType="text/css" height="286px" preserveAspectRatio="none" style="width:593px;height:286px;" version="1.1" viewBox="0 0 593 286" width="593px" zoomAndPan="magnify"><defs><filter height="300%" id="f1jkwrfur3lm6u" width="300%" x="-1" y="-1"><feGaussianBlur result="blurOut" stdDeviation="2.0"/><feColorMatrix in="blurOut" result="blurOut2" type="matrix" values="0 0 0 0 0 0 0 0 0 0 0 0 0 0 0 0 0 0 .4 0"/><feOffset dx="4.0" dy="4.0" in="blurOut2" result="blurOut3"/><feBlend in="SourceGraphic" in2="blurOut3" mode="normal"/></filter></defs><g><!--MD5=[46379bfef58435adf3366ed9c3258410]
class de.fraunhofer.aisec.cpg.graph.TranslationUnitDeclaration--><a href="TranslationUnitDeclaration.html" target="_top" title="TranslationUnitDeclaration.html" xlink:actuate="onRequest" xlink:href="TranslationUnitDeclaration.html" xlink:show="new" xlink:title="TranslationUnitDeclaration.html" xlink:type="simple"><rect fill="#FEFECE" filter="url(#f1jkwrfur3lm6u)" height="148.375" id="de.fraunhofer.aisec.cpg.graph.TranslationUnitDeclaration" style="stroke: #A80036; stroke-width: 1.5;" width="576" x="6" y="106"/><ellipse cx="199.25" cy="124.9688" fill="#ADD1B2" rx="11" ry="11" style="stroke: #A80036; stroke-width: 1.0;"/><path d="M202.2188,130.6094 Q201.6406,130.9063 201,131.0469 Q200.3594,131.2031 199.6563,131.2031 Q197.1563,131.2031 195.8281,129.5625 Q194.5156,127.9063 194.5156,124.7813 Q194.5156,121.6563 195.8281,120 Q197.1563,118.3438 199.6563,118.3438 Q200.3594,118.3438 201,118.5 Q201.6563,118.6563 202.2188,118.9531 L202.2188,121.6719 Q201.5938,121.0938 201,120.8281 Q200.4063,120.5469 199.7813,120.5469 Q198.4375,120.5469 197.75,121.625 Q197.0625,122.6875 197.0625,124.7813 Q197.0625,126.875 197.75,127.9531 Q198.4375,129.0156 199.7813,129.0156 Q200.4063,129.0156 201,128.75 Q201.5938,128.4688 202.2188,127.8906 L202.2188,130.6094 Z "/><text fill="#000000" font-family="sans-serif" font-size="14" lengthAdjust="spacingAndGlyphs" textLength="181" x="219.75" y="123.9951">TranslationUnitDeclaration</text><text fill="#000000" font-family="sans-serif" font-size="10" lengthAdjust="spacingAndGlyphs" textLength="145" x="237.75" y="136.5791">de.fraunhofer.aisec.cpg.graph</text><line style="stroke: #A80036; stroke-width: 1.5;" x1="7" x2="581" y1="143.9375" y2="143.9375"/><ellipse cx="17" cy="154.9375" fill="#84BE84" rx="3" ry="3" style="stroke: #038048; stroke-width: 1.0;"/><text fill="#000000" font-family="sans-serif" font-size="11" lengthAdjust="spacingAndGlyphs" textLength="198" x="26" y="158.1479">getDeclarationAs(int, Class&lt;T&gt;): T</text><ellipse cx="17" cy="167.7422" fill="#84BE84" rx="3" ry="3" style="stroke: #038048; stroke-width: 1.0;"/><text fill="#000000" font-family="sans-serif" font-size="11" lengthAdjust="spacingAndGlyphs" textLength="550" x="26" y="170.9526">getDeclarationByName(String, Class&lt;T extends Declaration&gt;): Optional&lt;T extends Declaration&gt;</text><ellipse cx="17" cy="180.5469" fill="#84BE84" rx="3" ry="3" style="stroke: #038048; stroke-width: 1.0;"/><text fill="#000000" font-family="sans-serif" font-size="11" lengthAdjust="spacingAndGlyphs" textLength="207" x="26" y="183.7573">getDeclarations(): List&lt;Declaration&gt;</text><ellipse cx="17" cy="193.3516" fill="#84BE84" rx="3" ry="3" style="stroke: #038048; stroke-width: 1.0;"/><text fill="#000000" font-family="sans-serif" font-size="11" lengthAdjust="spacingAndGlyphs" textLength="230" x="26" y="196.562">setDeclarations(List&lt;Declaration&gt;): void</text><ellipse cx="17" cy="206.1563" fill="#84BE84" rx="3" ry="3" style="stroke: #038048; stroke-width: 1.0;"/><text fill="#000000" font-family="sans-serif" font-size="11" lengthAdjust="spacingAndGlyphs" textLength="183" x="26" y="209.3667">getIncludes(): List&lt;Declaration&gt;</text><ellipse cx="17" cy="218.9609" fill="#84BE84" rx="3" ry="3" style="stroke: #038048; stroke-width: 1.0;"/><text fill="#000000" font-family="sans-serif" font-size="11" lengthAdjust="spacingAndGlyphs" textLength="206" x="26" y="222.1714">setIncludes(List&lt;Declaration&gt;): void</text><ellipse cx="17" cy="231.7656" fill="#84BE84" rx="3" ry="3" style="stroke: #038048; stroke-width: 1.0;"/><text fill="#000000" font-family="sans-serif" font-size="11" lengthAdjust="spacingAndGlyphs" textLength="210" x="26" y="234.9761">getNamespaces(): List&lt;Declaration&gt;</text><ellipse cx="17" cy="244.5703" fill="#84BE84" rx="3" ry="3" style="stroke: #038048; stroke-width: 1.0;"/><text fill="#000000" font-family="sans-serif" font-size="11" lengthAdjust="spacingAndGlyphs" textLength="124" x="26" y="247.7808">add(Declaration): void</text></a><!--MD5=[143931fe148168bbe79d8855ff7d1cb7]
class de.fraunhofer.aisec.cpg.graph.Declaration--><a href="Declaration.html" target="_top" title="Declaration.html" xlink:actuate="onRequest" xlink:href="Declaration.html" xlink:show="new" xlink:title="Declaration.html" xlink:type="simple"><rect fill="#FEFECE" filter="url(#f1jkwrfur3lm6u)" height="37.9375" id="de.fraunhofer.aisec.cpg.graph.Declaration" style="stroke: #A80036; stroke-width: 1.5;" width="177" x="205.5" y="8"/><ellipse cx="220.5" cy="26.9688" fill="#ADD1B2" rx="11" ry="11" style="stroke: #A80036; stroke-width: 1.0;"/><path d="M223.4688,32.6094 Q222.8906,32.9063 222.25,33.0469 Q221.6094,33.2031 220.9063,33.2031 Q218.4063,33.2031 217.0781,31.5625 Q215.7656,29.9063 215.7656,26.7813 Q215.7656,23.6563 217.0781,22 Q218.4063,20.3438 220.9063,20.3438 Q221.6094,20.3438 222.25,20.5 Q222.9063,20.6563 223.4688,20.9531 L223.4688,23.6719 Q222.8438,23.0938 222.25,22.8281 Q221.6563,22.5469 221.0313,22.5469 Q219.6875,22.5469 219,23.625 Q218.3125,24.6875 218.3125,26.7813 Q218.3125,28.875 219,29.9531 Q219.6875,31.0156 221.0313,31.0156 Q221.6563,31.0156 222.25,30.75 Q222.8438,30.4688 223.4688,29.8906 L223.4688,32.6094 Z "/><text fill="#000000" font-family="sans-serif" font-size="14" lengthAdjust="spacingAndGlyphs" textLength="78" x="268" y="25.9951">Declaration</text><text fill="#000000" font-family="sans-serif" font-size="10" lengthAdjust="spacingAndGlyphs" textLength="145" x="234.5" y="38.5791">de.fraunhofer.aisec.cpg.graph</text></a><!--MD5=[7b748756dd134cf27944aa19ee3e01d1]
reverse link de.fraunhofer.aisec.cpg.graph.Declaration to de.fraunhofer.aisec.cpg.graph.TranslationUnitDeclaration--><path d="M294,66.32 C294,78.41 294,92.2 294,105.88 " fill="none" id="de.fraunhofer.aisec.cpg.graph.Declaration&lt;-de.fraunhofer.aisec.cpg.graph.TranslationUnitDeclaration" style="stroke: #A80036; stroke-width: 1.0;"/><polygon fill="none" points="287,66.21,294,46.21,301,66.21,287,66.21" style="stroke: #A80036; stroke-width: 1.0;"/><text fill="#888888" font-family="sans-serif" font-size="10" lengthAdjust="spacingAndGlyphs" textLength="186" x="207" y="273.2822">UMLDoclet 2.0.9, PlantUML 1.2020.08</text><!--MD5=[71eb236ae9d484abe1bdd31bd1787362]
@startuml
    set namespaceSeparator none
    hide empty fields
    hide empty methods

    class "<size:14>TranslationUnitDeclaration\n<size:10>de.fraunhofer.aisec.cpg.graph" as de.fraunhofer.aisec.cpg.graph.TranslationUnitDeclaration [[TranslationUnitDeclaration.html]] {
        +getDeclarationAs(int, Class<T>): T
        +getDeclarationByName(String, Class<T extends Declaration>): Optional<T extends Declaration>
        +getDeclarations(): List<Declaration>
        +setDeclarations(List<Declaration>): void
        +getIncludes(): List<Declaration>
        +setIncludes(List<Declaration>): void
        +getNamespaces(): List<Declaration>
        +add(Declaration): void
    }

    class "<size:14>Declaration\n<size:10>de.fraunhofer.aisec.cpg.graph" as de.fraunhofer.aisec.cpg.graph.Declaration [[Declaration.html]]

    de.fraunhofer.aisec.cpg.graph.Declaration <|- - de.fraunhofer.aisec.cpg.graph.TranslationUnitDeclaration

    center footer UMLDoclet 2.0.9, PlantUML 1.2020.08
@enduml

PlantUML version 1.2020.08(Sun Apr 26 16:08:22 CEST 2020)
(APACHE source distribution)
Java Runtime: OpenJDK Runtime Environment
JVM: OpenJDK 64-Bit Server VM
Java Version: 12.0.2+9-Ubuntu-118.04
Operating System: Linux
Default Encoding: UTF-8
Language: en
Country: US
--></g></svg>