<?xml version="1.0" encoding="UTF-8" standalone="no"?><svg xmlns="http://www.w3.org/2000/svg" xmlns:xlink="http://www.w3.org/1999/xlink" contentScriptType="application/ecmascript" contentStyleType="text/css" height="286px" preserveAspectRatio="none" style="width:287px;height:286px;" version="1.1" viewBox="0 0 287 286" width="287px" zoomAndPan="magnify"><defs><filter height="300%" id="f9quorn25m56b" width="300%" x="-1" y="-1"><feGaussianBlur result="blurOut" stdDeviation="2.0"/><feColorMatrix in="blurOut" result="blurOut2" type="matrix" values="0 0 0 0 0 0 0 0 0 0 0 0 0 0 0 0 0 0 .4 0"/><feOffset dx="4.0" dy="4.0" in="blurOut2" result="blurOut3"/><feBlend in="SourceGraphic" in2="blurOut3" mode="normal"/></filter></defs><g><!--MD5=[a48c514f4d4a1b9ab2dcbbdae9741b92]
class de.fraunhofer.aisec.cpg.graph.TryStatement--><a href="TryStatement.html" target="_top" title="TryStatement.html" xlink:actuate="onRequest" xlink:href="TryStatement.html" xlink:show="new" xlink:title="TryStatement.html" xlink:type="simple"><rect fill="#FEFECE" filter="url(#f9quorn25m56b)" height="148.375" id="de.fraunhofer.aisec.cpg.graph.TryStatement" style="stroke: #A80036; stroke-width: 1.5;" width="270" x="6" y="106"/><ellipse cx="64.25" cy="124.9688" fill="#ADD1B2" rx="11" ry="11" style="stroke: #A80036; stroke-width: 1.0;"/><path d="M67.2188,130.6094 Q66.6406,130.9063 66,131.0469 Q65.3594,131.2031 64.6563,131.2031 Q62.1563,131.2031 60.8281,129.5625 Q59.5156,127.9063 59.5156,124.7813 Q59.5156,121.6563 60.8281,120 Q62.1563,118.3438 64.6563,118.3438 Q65.3594,118.3438 66,118.5 Q66.6563,118.6563 67.2188,118.9531 L67.2188,121.6719 Q66.5938,121.0938 66,120.8281 Q65.4063,120.5469 64.7813,120.5469 Q63.4375,120.5469 62.75,121.625 Q62.0625,122.6875 62.0625,124.7813 Q62.0625,126.875 62.75,127.9531 Q63.4375,129.0156 64.7813,129.0156 Q65.4063,129.0156 66,128.75 Q66.5938,128.4688 67.2188,127.8906 L67.2188,130.6094 Z "/><text fill="#000000" font-family="sans-serif" font-size="14" lengthAdjust="spacingAndGlyphs" textLength="93" x="110.75" y="123.9951">TryStatement</text><text fill="#000000" font-family="sans-serif" font-size="10" lengthAdjust="spacingAndGlyphs" textLength="145" x="84.75" y="136.5791">de.fraunhofer.aisec.cpg.graph</text><line style="stroke: #A80036; stroke-width: 1.5;" x1="7" x2="275" y1="143.9375" y2="143.9375"/><ellipse cx="17" cy="154.9375" fill="#84BE84" rx="3" ry="3" style="stroke: #038048; stroke-width: 1.0;"/><text fill="#000000" font-family="sans-serif" font-size="11" lengthAdjust="spacingAndGlyphs" textLength="191" x="26" y="158.1479">getResources(): List&lt;Statement&gt;</text><ellipse cx="17" cy="167.7422" fill="#84BE84" rx="3" ry="3" style="stroke: #038048; stroke-width: 1.0;"/><text fill="#000000" font-family="sans-serif" font-size="11" lengthAdjust="spacingAndGlyphs" textLength="214" x="26" y="170.9526">setResources(List&lt;Statement&gt;): void</text><ellipse cx="17" cy="180.5469" fill="#84BE84" rx="3" ry="3" style="stroke: #038048; stroke-width: 1.0;"/><text fill="#000000" font-family="sans-serif" font-size="11" lengthAdjust="spacingAndGlyphs" textLength="202" x="26" y="183.7573">getTryBlock(): CompoundStatement</text><ellipse cx="17" cy="193.3516" fill="#84BE84" rx="3" ry="3" style="stroke: #038048; stroke-width: 1.0;"/><text fill="#000000" font-family="sans-serif" font-size="11" lengthAdjust="spacingAndGlyphs" textLength="225" x="26" y="196.562">setTryBlock(CompoundStatement): void</text><ellipse cx="17" cy="206.1563" fill="#84BE84" rx="3" ry="3" style="stroke: #038048; stroke-width: 1.0;"/><text fill="#000000" font-family="sans-serif" font-size="11" lengthAdjust="spacingAndGlyphs" textLength="219" x="26" y="209.3667">getFinallyBlock(): CompoundStatement</text><ellipse cx="17" cy="218.9609" fill="#84BE84" rx="3" ry="3" style="stroke: #038048; stroke-width: 1.0;"/><text fill="#000000" font-family="sans-serif" font-size="11" lengthAdjust="spacingAndGlyphs" textLength="242" x="26" y="222.1714">setFinallyBlock(CompoundStatement): void</text><ellipse cx="17" cy="231.7656" fill="#84BE84" rx="3" ry="3" style="stroke: #038048; stroke-width: 1.0;"/><text fill="#000000" font-family="sans-serif" font-size="11" lengthAdjust="spacingAndGlyphs" textLength="221" x="26" y="234.9761">getCatchClauses(): List&lt;CatchClause&gt;</text><ellipse cx="17" cy="244.5703" fill="#84BE84" rx="3" ry="3" style="stroke: #038048; stroke-width: 1.0;"/><text fill="#000000" font-family="sans-serif" font-size="11" lengthAdjust="spacingAndGlyphs" textLength="244" x="26" y="247.7808">setCatchClauses(List&lt;CatchClause&gt;): void</text></a><!--MD5=[9566dda5ff1f2bf4890c28c79b7fba98]
class de.fraunhofer.aisec.cpg.graph.Statement--><a href="Statement.html" target="_top" title="Statement.html" xlink:actuate="onRequest" xlink:href="Statement.html" xlink:show="new" xlink:title="Statement.html" xlink:type="simple"><rect fill="#FEFECE" filter="url(#f9quorn25m56b)" height="37.9375" id="de.fraunhofer.aisec.cpg.graph.Statement" style="stroke: #A80036; stroke-width: 1.5;" width="177" x="52.5" y="8"/><ellipse cx="67.5" cy="26.9688" fill="#ADD1B2" rx="11" ry="11" style="stroke: #A80036; stroke-width: 1.0;"/><path d="M70.4688,32.6094 Q69.8906,32.9063 69.25,33.0469 Q68.6094,33.2031 67.9063,33.2031 Q65.4063,33.2031 64.0781,31.5625 Q62.7656,29.9063 62.7656,26.7813 Q62.7656,23.6563 64.0781,22 Q65.4063,20.3438 67.9063,20.3438 Q68.6094,20.3438 69.25,20.5 Q69.9063,20.6563 70.4688,20.9531 L70.4688,23.6719 Q69.8438,23.0938 69.25,22.8281 Q68.6563,22.5469 68.0313,22.5469 Q66.6875,22.5469 66,23.625 Q65.3125,24.6875 65.3125,26.7813 Q65.3125,28.875 66,29.9531 Q66.6875,31.0156 68.0313,31.0156 Q68.6563,31.0156 69.25,30.75 Q69.8438,30.4688 70.4688,29.8906 L70.4688,32.6094 Z "/><text fill="#000000" font-family="sans-serif" font-size="14" lengthAdjust="spacingAndGlyphs" textLength="72" x="118" y="25.9951">Statement</text><text fill="#000000" font-family="sans-serif" font-size="10" lengthAdjust="spacingAndGlyphs" textLength="145" x="81.5" y="38.5791">de.fraunhofer.aisec.cpg.graph</text></a><!--MD5=[abf2a123729649b30a34febed657fa22]
reverse link de.fraunhofer.aisec.cpg.graph.Statement to de.fraunhofer.aisec.cpg.graph.TryStatement--><path d="M141,66.32 C141,78.41 141,92.2 141,105.88 " fill="none" id="de.fraunhofer.aisec.cpg.graph.Statement&lt;-de.fraunhofer.aisec.cpg.graph.TryStatement" style="stroke: #A80036; stroke-width: 1.0;"/><polygon fill="none" points="134,66.21,141,46.21,148,66.21,134,66.21" style="stroke: #A80036; stroke-width: 1.0;"/><text fill="#888888" font-family="sans-serif" font-size="10" lengthAdjust="spacingAndGlyphs" textLength="186" x="54" y="273.2822">UMLDoclet 2.0.9, PlantUML 1.2020.08</text><!--MD5=[31708bbb1bf03a8c3e4ba75369a40f18]
@startuml
    set namespaceSeparator none
    hide empty fields
    hide empty methods

    class "<size:14>TryStatement\n<size:10>de.fraunhofer.aisec.cpg.graph" as de.fraunhofer.aisec.cpg.graph.TryStatement [[TryStatement.html]] {
        +getResources(): List<Statement>
        +setResources(List<Statement>): void
        +getTryBlock(): CompoundStatement
        +setTryBlock(CompoundStatement): void
        +getFinallyBlock(): CompoundStatement
        +setFinallyBlock(CompoundStatement): void
        +getCatchClauses(): List<CatchClause>
        +setCatchClauses(List<CatchClause>): void
    }

    class "<size:14>Statement\n<size:10>de.fraunhofer.aisec.cpg.graph" as de.fraunhofer.aisec.cpg.graph.Statement [[Statement.html]]

    de.fraunhofer.aisec.cpg.graph.Statement <|- - de.fraunhofer.aisec.cpg.graph.TryStatement

    center footer UMLDoclet 2.0.9, PlantUML 1.2020.08
@enduml

PlantUML version 1.2020.08(Sun Apr 26 16:08:22 CEST 2020)
(APACHE source distribution)
Java Runtime: OpenJDK Runtime Environment
JVM: OpenJDK 64-Bit Server VM
Java Version: 12.0.2+9-Ubuntu-118.04
Operating System: Linux
Default Encoding: UTF-8
Language: en
Country: US
--></g></svg>