<?xml version="1.0" encoding="UTF-8" standalone="no"?><svg xmlns="http://www.w3.org/2000/svg" xmlns:xlink="http://www.w3.org/1999/xlink" contentScriptType="application/ecmascript" contentStyleType="text/css" height="210px" preserveAspectRatio="none" style="width:216px;height:210px;" version="1.1" viewBox="0 0 216 210" width="216px" zoomAndPan="magnify"><defs><filter height="300%" id="fjfir1mc2bsha" width="300%" x="-1" y="-1"><feGaussianBlur result="blurOut" stdDeviation="2.0"/><feColorMatrix in="blurOut" result="blurOut2" type="matrix" values="0 0 0 0 0 0 0 0 0 0 0 0 0 0 0 0 0 0 .4 0"/><feOffset dx="4.0" dy="4.0" in="blurOut2" result="blurOut3"/><feBlend in="SourceGraphic" in2="blurOut3" mode="normal"/></filter></defs><g><!--MD5=[c9d307671dca1929da61656eacc3930a]
class de.fraunhofer.aisec.cpg.graph.TypeManager.Language--><a href="TypeManager.Language.html" target="_top" title="TypeManager.Language.html" xlink:actuate="onRequest" xlink:href="TypeManager.Language.html" xlink:show="new" xlink:title="TypeManager.Language.html" xlink:type="simple"><rect fill="#FEFECE" filter="url(#fjfir1mc2bsha)" height="71.5469" id="de.fraunhofer.aisec.cpg.graph.TypeManager.Language" style="stroke: #A80036; stroke-width: 1.5;" width="198" x="6" y="106"/><ellipse cx="21" cy="124.9688" fill="#EB937F" rx="11" ry="11" style="stroke: #A80036; stroke-width: 1.0;"/><path d="M25.1094,130.9688 L17.3906,130.9688 L17.3906,118.5781 L25.1094,118.5781 L25.1094,120.7344 L19.8438,120.7344 L19.8438,123.4063 L24.6094,123.4063 L24.6094,125.5625 L19.8438,125.5625 L19.8438,128.8125 L25.1094,128.8125 L25.1094,130.9688 Z "/><text fill="#000000" font-family="sans-serif" font-size="14" lengthAdjust="spacingAndGlyphs" textLength="166" x="35" y="123.9951">TypeManager.Language</text><text fill="#000000" font-family="sans-serif" font-size="10" lengthAdjust="spacingAndGlyphs" textLength="145" x="45.5" y="136.5791">de.fraunhofer.aisec.cpg.graph</text><line style="stroke: #A80036; stroke-width: 1.5;" x1="7" x2="203" y1="143.9375" y2="143.9375"/><ellipse cx="17" cy="154.9375" fill="none" rx="3" ry="3" style="stroke: #038048; stroke-width: 1.0;"/><text fill="#000000" font-family="sans-serif" font-size="11" lengthAdjust="spacingAndGlyphs" text-decoration="underline" textLength="24" x="26" y="158.1479">JAVA</text><ellipse cx="17" cy="167.7422" fill="none" rx="3" ry="3" style="stroke: #038048; stroke-width: 1.0;"/><text fill="#000000" font-family="sans-serif" font-size="11" lengthAdjust="spacingAndGlyphs" text-decoration="underline" textLength="22" x="26" y="170.9526">CXX</text></a><!--MD5=[8fbd72ad5c4a5ca86b01e8003aae1be9]
class de.fraunhofer.aisec.cpg.graph.TypeManager--><a href="TypeManager.html" target="_top" title="TypeManager.html" xlink:actuate="onRequest" xlink:href="TypeManager.html" xlink:show="new" xlink:title="TypeManager.html" xlink:type="simple"><rect fill="#FEFECE" filter="url(#fjfir1mc2bsha)" height="37.9375" id="de.fraunhofer.aisec.cpg.graph.TypeManager" style="stroke: #A80036; stroke-width: 1.5;" width="177" x="16.5" y="8"/><ellipse cx="31.5" cy="26.9688" fill="#ADD1B2" rx="11" ry="11" style="stroke: #A80036; stroke-width: 1.0;"/><path d="M34.4688,32.6094 Q33.8906,32.9063 33.25,33.0469 Q32.6094,33.2031 31.9063,33.2031 Q29.4063,33.2031 28.0781,31.5625 Q26.7656,29.9063 26.7656,26.7813 Q26.7656,23.6563 28.0781,22 Q29.4063,20.3438 31.9063,20.3438 Q32.6094,20.3438 33.25,20.5 Q33.9063,20.6563 34.4688,20.9531 L34.4688,23.6719 Q33.8438,23.0938 33.25,22.8281 Q32.6563,22.5469 32.0313,22.5469 Q30.6875,22.5469 30,23.625 Q29.3125,24.6875 29.3125,26.7813 Q29.3125,28.875 30,29.9531 Q30.6875,31.0156 32.0313,31.0156 Q32.6563,31.0156 33.25,30.75 Q33.8438,30.4688 34.4688,29.8906 L34.4688,32.6094 Z "/><text fill="#000000" font-family="sans-serif" font-size="14" lengthAdjust="spacingAndGlyphs" textLength="94" x="71" y="25.9951">TypeManager</text><text fill="#000000" font-family="sans-serif" font-size="10" lengthAdjust="spacingAndGlyphs" textLength="145" x="45.5" y="38.5791">de.fraunhofer.aisec.cpg.graph</text></a><!--MD5=[34607721ca4934f6857ecb88b5076d33]
reverse link de.fraunhofer.aisec.cpg.graph.TypeManager to de.fraunhofer.aisec.cpg.graph.TypeManager.Language--><path d="M105,61.21 C105,75.15 105,91.38 105,105.56 " fill="none" id="de.fraunhofer.aisec.cpg.graph.TypeManager&lt;-de.fraunhofer.aisec.cpg.graph.TypeManager.Language" style="stroke: #A80036; stroke-width: 1.0;"/><ellipse cx="105" cy="54.16" fill="#FFFFFF" rx="8" ry="8" style="stroke: #A80036; stroke-width: 1.0;"/><line style="stroke: #A80036; stroke-width: 1.0;" x1="105" x2="105" y1="62.16" y2="46.16"/><line style="stroke: #A80036; stroke-width: 1.0;" x1="97" x2="113" y1="54.16" y2="54.16"/><text fill="#888888" font-family="sans-serif" font-size="10" lengthAdjust="spacingAndGlyphs" textLength="186" x="18" y="197.2822">UMLDoclet 2.0.9, PlantUML 1.2020.08</text><!--MD5=[2739f01f469a837379ad08229b6aac05]
@startuml
    set namespaceSeparator none
    hide empty fields
    hide empty methods

    enum "<size:14>TypeManager.Language\n<size:10>de.fraunhofer.aisec.cpg.graph" as de.fraunhofer.aisec.cpg.graph.TypeManager.Language [[TypeManager.Language.html]] {
        {static} +JAVA
        {static} +CXX
    }

    class "<size:14>TypeManager\n<size:10>de.fraunhofer.aisec.cpg.graph" as de.fraunhofer.aisec.cpg.graph.TypeManager [[TypeManager.html]]

    de.fraunhofer.aisec.cpg.graph.TypeManager +- - de.fraunhofer.aisec.cpg.graph.TypeManager.Language

    center footer UMLDoclet 2.0.9, PlantUML 1.2020.08
@enduml

PlantUML version 1.2020.08(Sun Apr 26 16:08:22 CEST 2020)
(APACHE source distribution)
Java Runtime: OpenJDK Runtime Environment
JVM: OpenJDK 64-Bit Server VM
Java Version: 12.0.2+9-Ubuntu-118.04
Operating System: Linux
Default Encoding: UTF-8
Language: en
Country: US
--></g></svg>