<?xml version="1.0" encoding="UTF-8" standalone="no"?><svg xmlns="http://www.w3.org/2000/svg" xmlns:xlink="http://www.w3.org/1999/xlink" contentScriptType="application/ecmascript" contentStyleType="text/css" height="210px" preserveAspectRatio="none" style="width:217px;height:210px;" version="1.1" viewBox="0 0 217 210" width="217px" zoomAndPan="magnify"><defs><filter height="300%" id="fq9ah0qy9jwp7" width="300%" x="-1" y="-1"><feGaussianBlur result="blurOut" stdDeviation="2.0"/><feColorMatrix in="blurOut" result="blurOut2" type="matrix" values="0 0 0 0 0 0 0 0 0 0 0 0 0 0 0 0 0 0 .4 0"/><feOffset dx="4.0" dy="4.0" in="blurOut2" result="blurOut3"/><feBlend in="SourceGraphic" in2="blurOut3" mode="normal"/></filter></defs><g><!--MD5=[1694d834841d58b79bf729ec3f1c1db9]
class de.fraunhofer.aisec.cpg.graph.UsingDirective--><a href="UsingDirective.html" target="_top" title="UsingDirective.html" xlink:actuate="onRequest" xlink:href="UsingDirective.html" xlink:show="new" xlink:title="UsingDirective.html" xlink:type="simple"><rect fill="#FEFECE" filter="url(#fq9ah0qy9jwp7)" height="71.5469" id="de.fraunhofer.aisec.cpg.graph.UsingDirective" style="stroke: #A80036; stroke-width: 1.5;" width="200" x="6" y="106"/><ellipse cx="31.35" cy="124.9688" fill="#ADD1B2" rx="11" ry="11" style="stroke: #A80036; stroke-width: 1.0;"/><path d="M34.3188,130.6094 Q33.7406,130.9063 33.1,131.0469 Q32.4594,131.2031 31.7563,131.2031 Q29.2563,131.2031 27.9281,129.5625 Q26.6156,127.9063 26.6156,124.7813 Q26.6156,121.6563 27.9281,120 Q29.2563,118.3438 31.7563,118.3438 Q32.4594,118.3438 33.1,118.5 Q33.7563,118.6563 34.3188,118.9531 L34.3188,121.6719 Q33.6938,121.0938 33.1,120.8281 Q32.5063,120.5469 31.8813,120.5469 Q30.5375,120.5469 29.85,121.625 Q29.1625,122.6875 29.1625,124.7813 Q29.1625,126.875 29.85,127.9531 Q30.5375,129.0156 31.8813,129.0156 Q32.5063,129.0156 33.1,128.75 Q33.6938,128.4688 34.3188,127.8906 L34.3188,130.6094 Z "/><text fill="#000000" font-family="sans-serif" font-size="14" lengthAdjust="spacingAndGlyphs" textLength="99" x="70.65" y="123.9951">UsingDirective</text><text fill="#000000" font-family="sans-serif" font-size="10" lengthAdjust="spacingAndGlyphs" textLength="145" x="47.65" y="136.5791">de.fraunhofer.aisec.cpg.graph</text><line style="stroke: #A80036; stroke-width: 1.5;" x1="7" x2="205" y1="143.9375" y2="143.9375"/><ellipse cx="17" cy="154.9375" fill="#84BE84" rx="3" ry="3" style="stroke: #038048; stroke-width: 1.0;"/><text fill="#000000" font-family="sans-serif" font-size="11" lengthAdjust="spacingAndGlyphs" textLength="151" x="26" y="158.1479">getQualifiedName(): String</text><ellipse cx="17" cy="167.7422" fill="#84BE84" rx="3" ry="3" style="stroke: #038048; stroke-width: 1.0;"/><text fill="#000000" font-family="sans-serif" font-size="11" lengthAdjust="spacingAndGlyphs" textLength="174" x="26" y="170.9526">setQualifiedName(String): void</text></a><!--MD5=[143931fe148168bbe79d8855ff7d1cb7]
class de.fraunhofer.aisec.cpg.graph.Declaration--><a href="Declaration.html" target="_top" title="Declaration.html" xlink:actuate="onRequest" xlink:href="Declaration.html" xlink:show="new" xlink:title="Declaration.html" xlink:type="simple"><rect fill="#FEFECE" filter="url(#fq9ah0qy9jwp7)" height="37.9375" id="de.fraunhofer.aisec.cpg.graph.Declaration" style="stroke: #A80036; stroke-width: 1.5;" width="177" x="17.5" y="8"/><ellipse cx="32.5" cy="26.9688" fill="#ADD1B2" rx="11" ry="11" style="stroke: #A80036; stroke-width: 1.0;"/><path d="M35.4688,32.6094 Q34.8906,32.9063 34.25,33.0469 Q33.6094,33.2031 32.9063,33.2031 Q30.4063,33.2031 29.0781,31.5625 Q27.7656,29.9063 27.7656,26.7813 Q27.7656,23.6563 29.0781,22 Q30.4063,20.3438 32.9063,20.3438 Q33.6094,20.3438 34.25,20.5 Q34.9063,20.6563 35.4688,20.9531 L35.4688,23.6719 Q34.8438,23.0938 34.25,22.8281 Q33.6563,22.5469 33.0313,22.5469 Q31.6875,22.5469 31,23.625 Q30.3125,24.6875 30.3125,26.7813 Q30.3125,28.875 31,29.9531 Q31.6875,31.0156 33.0313,31.0156 Q33.6563,31.0156 34.25,30.75 Q34.8438,30.4688 35.4688,29.8906 L35.4688,32.6094 Z "/><text fill="#000000" font-family="sans-serif" font-size="14" lengthAdjust="spacingAndGlyphs" textLength="78" x="80" y="25.9951">Declaration</text><text fill="#000000" font-family="sans-serif" font-size="10" lengthAdjust="spacingAndGlyphs" textLength="145" x="46.5" y="38.5791">de.fraunhofer.aisec.cpg.graph</text></a><!--MD5=[9207f5e592c6829dbc0ead12c7329e3b]
reverse link de.fraunhofer.aisec.cpg.graph.Declaration to de.fraunhofer.aisec.cpg.graph.UsingDirective--><path d="M106,66.3 C106,79 106,93.08 106,105.56 " fill="none" id="de.fraunhofer.aisec.cpg.graph.Declaration&lt;-de.fraunhofer.aisec.cpg.graph.UsingDirective" style="stroke: #A80036; stroke-width: 1.0;"/><polygon fill="none" points="99,66.16,106,46.16,113,66.16,99,66.16" style="stroke: #A80036; stroke-width: 1.0;"/><text fill="#888888" font-family="sans-serif" font-size="10" lengthAdjust="spacingAndGlyphs" textLength="186" x="19" y="197.2822">UMLDoclet 2.0.9, PlantUML 1.2020.08</text><!--MD5=[ad20df2361b2ccb66b97b24b8f1e9038]
@startuml
    set namespaceSeparator none
    hide empty fields
    hide empty methods

    class "<size:14>UsingDirective\n<size:10>de.fraunhofer.aisec.cpg.graph" as de.fraunhofer.aisec.cpg.graph.UsingDirective [[UsingDirective.html]] {
        +getQualifiedName(): String
        +setQualifiedName(String): void
    }

    class "<size:14>Declaration\n<size:10>de.fraunhofer.aisec.cpg.graph" as de.fraunhofer.aisec.cpg.graph.Declaration [[Declaration.html]]

    de.fraunhofer.aisec.cpg.graph.Declaration <|- - de.fraunhofer.aisec.cpg.graph.UsingDirective

    center footer UMLDoclet 2.0.9, PlantUML 1.2020.08
@enduml

PlantUML version 1.2020.08(Sun Apr 26 16:08:22 CEST 2020)
(APACHE source distribution)
Java Runtime: OpenJDK Runtime Environment
JVM: OpenJDK 64-Bit Server VM
Java Version: 12.0.2+9-Ubuntu-118.04
Operating System: Linux
Default Encoding: UTF-8
Language: en
Country: US
--></g></svg>