<?xml version="1.0" encoding="UTF-8" standalone="no"?><svg xmlns="http://www.w3.org/2000/svg" xmlns:xlink="http://www.w3.org/1999/xlink" contentScriptType="application/ecmascript" contentStyleType="text/css" height="231px" preserveAspectRatio="none" style="width:218px;height:231px;" version="1.1" viewBox="0 0 218 231" width="218px" zoomAndPan="magnify"><defs><filter height="300%" id="fcxlrn38fr7in" width="300%" x="-1" y="-1"><feGaussianBlur result="blurOut" stdDeviation="2.0"/><feColorMatrix in="blurOut" result="blurOut2" type="matrix" values="0 0 0 0 0 0 0 0 0 0 0 0 0 0 0 0 0 0 .4 0"/><feOffset dx="4.0" dy="4.0" in="blurOut2" result="blurOut3"/><feBlend in="SourceGraphic" in2="blurOut3" mode="normal"/></filter></defs><g><!--MD5=[fbb8c4fa5e32b7fe6311edeb21d0ad48]
class de.fraunhofer.aisec.cpg.passes.FilenameMapper--><a href="FilenameMapper.html" target="_top" title="FilenameMapper.html" xlink:actuate="onRequest" xlink:href="FilenameMapper.html" xlink:show="new" xlink:title="FilenameMapper.html" xlink:type="simple"><rect fill="#FEFECE" filter="url(#fcxlrn38fr7in)" height="71.5469" id="de.fraunhofer.aisec.cpg.passes.FilenameMapper" style="stroke: #A80036; stroke-width: 1.5;" width="201" x="6" y="127"/><ellipse cx="29.55" cy="145.9688" fill="#ADD1B2" rx="11" ry="11" style="stroke: #A80036; stroke-width: 1.0;"/><path d="M32.5188,151.6094 Q31.9406,151.9063 31.3,152.0469 Q30.6594,152.2031 29.9563,152.2031 Q27.4563,152.2031 26.1281,150.5625 Q24.8156,148.9063 24.8156,145.7813 Q24.8156,142.6563 26.1281,141 Q27.4563,139.3438 29.9563,139.3438 Q30.6594,139.3438 31.3,139.5 Q31.9563,139.6563 32.5188,139.9531 L32.5188,142.6719 Q31.8938,142.0938 31.3,141.8281 Q30.7063,141.5469 30.0813,141.5469 Q28.7375,141.5469 28.05,142.625 Q27.3625,143.6875 27.3625,145.7813 Q27.3625,147.875 28.05,148.9531 Q28.7375,150.0156 30.0813,150.0156 Q30.7063,150.0156 31.3,149.75 Q31.8938,149.4688 32.5188,148.8906 L32.5188,151.6094 Z "/><text fill="#000000" font-family="sans-serif" font-size="14" lengthAdjust="spacingAndGlyphs" textLength="114" x="63.45" y="144.9951">FilenameMapper</text><text fill="#000000" font-family="sans-serif" font-size="10" lengthAdjust="spacingAndGlyphs" textLength="150" x="45.45" y="157.5791">de.fraunhofer.aisec.cpg.passes</text><line style="stroke: #A80036; stroke-width: 1.5;" x1="7" x2="206" y1="164.9375" y2="164.9375"/><ellipse cx="17" cy="175.9375" fill="#84BE84" rx="3" ry="3" style="stroke: #038048; stroke-width: 1.0;"/><text fill="#000000" font-family="sans-serif" font-size="11" lengthAdjust="spacingAndGlyphs" textLength="175" x="26" y="179.1479">accept(TranslationResult): void</text><ellipse cx="17" cy="188.7422" fill="#84BE84" rx="3" ry="3" style="stroke: #038048; stroke-width: 1.0;"/><text fill="#000000" font-family="sans-serif" font-size="11" lengthAdjust="spacingAndGlyphs" textLength="83" x="26" y="191.9526">cleanup(): void</text></a><!--MD5=[c235e2277994a546abaab258d0865298]
class de.fraunhofer.aisec.cpg.passes.Pass--><a href="Pass.html" target="_top" title="Pass.html" xlink:actuate="onRequest" xlink:href="Pass.html" xlink:show="new" xlink:title="Pass.html" xlink:type="simple"><rect fill="#FEFECE" filter="url(#fcxlrn38fr7in)" height="58.7422" id="de.fraunhofer.aisec.cpg.passes.Pass" style="stroke: #A80036; stroke-width: 1.5;" width="185" x="14" y="8"/><ellipse cx="29" cy="26.9688" fill="#A9DCDF" rx="11" ry="11" style="stroke: #A80036; stroke-width: 1.0;"/><path d="M29.1094,22.3125 L27.9531,27.3906 L30.2813,27.3906 L29.1094,22.3125 Z M27.625,20.0781 L30.6094,20.0781 L33.9688,32.4688 L31.5156,32.4688 L30.75,29.4063 L27.4688,29.4063 L26.7188,32.4688 L24.2813,32.4688 L27.625,20.0781 Z "/><text fill="#000000" font-family="sans-serif" font-size="14" font-style="italic" lengthAdjust="spacingAndGlyphs" textLength="30" x="104.5" y="25.9951">Pass</text><text fill="#000000" font-family="sans-serif" font-size="10" font-style="italic" lengthAdjust="spacingAndGlyphs" textLength="153" x="43" y="38.5791">de.fraunhofer.aisec.cpg.passes</text><line style="stroke: #A80036; stroke-width: 1.5;" x1="15" x2="198" y1="45.9375" y2="45.9375"/><ellipse cx="25" cy="56.9375" fill="#84BE84" rx="3" ry="3" style="stroke: #038048; stroke-width: 1.0;"/><text fill="#000000" font-family="sans-serif" font-size="11" font-style="italic" lengthAdjust="spacingAndGlyphs" textLength="84" x="34" y="60.1479">cleanup(): void</text></a><!--MD5=[30139c54a75635ce6355a116e2266d0e]
reverse link de.fraunhofer.aisec.cpg.passes.Pass to de.fraunhofer.aisec.cpg.passes.FilenameMapper--><path d="M106.5,87.46 C106.5,100.64 106.5,114.64 106.5,126.9 " fill="none" id="de.fraunhofer.aisec.cpg.passes.Pass&lt;-de.fraunhofer.aisec.cpg.passes.FilenameMapper" style="stroke: #A80036; stroke-width: 1.0;"/><polygon fill="none" points="99.5,87.14,106.5,67.14,113.5,87.14,99.5,87.14" style="stroke: #A80036; stroke-width: 1.0;"/><text fill="#888888" font-family="sans-serif" font-size="10" lengthAdjust="spacingAndGlyphs" textLength="186" x="19.5" y="218.2822">UMLDoclet 2.0.9, PlantUML 1.2020.08</text><!--MD5=[6eddafb1a66bd5f7d4838615eb5dc6ad]
@startuml
    set namespaceSeparator none
    hide empty fields
    hide empty methods

    class "<size:14>FilenameMapper\n<size:10>de.fraunhofer.aisec.cpg.passes" as de.fraunhofer.aisec.cpg.passes.FilenameMapper [[FilenameMapper.html]] {
        +accept(TranslationResult): void
        +cleanup(): void
    }

    abstract class "<size:14>Pass\n<size:10>de.fraunhofer.aisec.cpg.passes" as de.fraunhofer.aisec.cpg.passes.Pass [[Pass.html]] {
        {abstract} +cleanup(): void
    }

    de.fraunhofer.aisec.cpg.passes.Pass <|- - de.fraunhofer.aisec.cpg.passes.FilenameMapper

    center footer UMLDoclet 2.0.9, PlantUML 1.2020.08
@enduml

PlantUML version 1.2020.08(Sun Apr 26 16:08:22 CEST 2020)
(APACHE source distribution)
Java Runtime: OpenJDK Runtime Environment
JVM: OpenJDK 64-Bit Server VM
Java Version: 12.0.2+9-Ubuntu-118.04
Operating System: Linux
Default Encoding: UTF-8
Language: en
Country: US
--></g></svg>