<?xml version="1.0" encoding="UTF-8" standalone="no"?><svg xmlns="http://www.w3.org/2000/svg" xmlns:xlink="http://www.w3.org/1999/xlink" contentScriptType="application/ecmascript" contentStyleType="text/css" height="646px" preserveAspectRatio="none" style="width:2434px;height:646px;" version="1.1" viewBox="0 0 2434 646" width="2434px" zoomAndPan="magnify"><defs><filter height="300%" id="f8rlboh67e3hm" width="300%" x="-1" y="-1"><feGaussianBlur result="blurOut" stdDeviation="2.0"/><feColorMatrix in="blurOut" result="blurOut2" type="matrix" values="0 0 0 0 0 0 0 0 0 0 0 0 0 0 0 0 0 0 .4 0"/><feOffset dx="4.0" dy="4.0" in="blurOut2" result="blurOut3"/><feBlend in="SourceGraphic" in2="blurOut3" mode="normal"/></filter></defs><g><!--MD5=[4eea148db9d74f1508c49b72619f4e4a]
cluster de.fraunhofer.aisec.cpg.passes--><polygon fill="#FFFFFF" filter="url(#f8rlboh67e3hm)" points="22,173,279,173,286,195.2969,2412,195.2969,2412,598,22,598,22,173" style="stroke: #000000; stroke-width: 1.5;"/><line style="stroke: #000000; stroke-width: 1.5;" x1="22" x2="286" y1="195.2969" y2="195.2969"/><text fill="#000000" font-family="sans-serif" font-size="14" font-weight="bold" lengthAdjust="spacingAndGlyphs" textLength="251" x="26" y="187.9951">de.fraunhofer.aisec.cpg.passes</text><!--MD5=[0c311de4a592f3c5f2bed0984ce064df]
cluster java.util.function--><polygon fill="#FFFFFF" filter="url(#f8rlboh67e3hm)" points="856,24,992,24,999,46.2969,1194,46.2969,1194,149,856,149,856,24" style="stroke: #000000; stroke-width: 1.5;"/><line style="stroke: #000000; stroke-width: 1.5;" x1="856" x2="999" y1="46.2969" y2="46.2969"/><text fill="#000000" font-family="sans-serif" font-size="14" font-weight="bold" lengthAdjust="spacingAndGlyphs" textLength="130" x="860" y="38.9951">java.util.function</text><!--MD5=[8d9e3ad08b168c43d47a69a5bbaf1ba0]
class de.fraunhofer.aisec.cpg.passes.ImportResolver--><a href="ImportResolver.html" target="_top" title="ImportResolver.html" xlink:actuate="onRequest" xlink:href="ImportResolver.html" xlink:show="new" xlink:title="ImportResolver.html" xlink:type="simple"><rect fill="#FEFECE" filter="url(#f8rlboh67e3hm)" height="99.2188" id="de.fraunhofer.aisec.cpg.passes.ImportResolver" style="stroke: #A80036; stroke-width: 1.5;" width="215" x="38.5" y="431.5"/><ellipse cx="95.25" cy="447.5" fill="#ADD1B2" rx="11" ry="11" style="stroke: #A80036; stroke-width: 1.0;"/><path d="M98.2188,453.1406 Q97.6406,453.4375 97,453.5781 Q96.3594,453.7344 95.6563,453.7344 Q93.1563,453.7344 91.8281,452.0938 Q90.5156,450.4375 90.5156,447.3125 Q90.5156,444.1875 91.8281,442.5313 Q93.1563,440.875 95.6563,440.875 Q96.3594,440.875 97,441.0313 Q97.6563,441.1875 98.2188,441.4844 L98.2188,444.2031 Q97.5938,443.625 97,443.3594 Q96.4063,443.0781 95.7813,443.0781 Q94.4375,443.0781 93.75,444.1563 Q93.0625,445.2188 93.0625,447.3125 Q93.0625,449.4063 93.75,450.4844 Q94.4375,451.5469 95.7813,451.5469 Q96.4063,451.5469 97,451.2813 Q97.5938,451 98.2188,450.4219 L98.2188,453.1406 Z "/><text fill="#000000" font-family="sans-serif" font-size="12" lengthAdjust="spacingAndGlyphs" textLength="93" x="115.75" y="451.6543">ImportResolver</text><line style="stroke: #A80036; stroke-width: 1.5;" x1="39.5" x2="252.5" y1="463.5" y2="463.5"/><line style="stroke: #A80036; stroke-width: 1.5;" x1="39.5" x2="252.5" y1="471.5" y2="471.5"/><ellipse cx="49.5" cy="482.5" fill="#84BE84" rx="3" ry="3" style="stroke: #038048; stroke-width: 1.0;"/><text fill="#000000" font-family="sans-serif" font-size="11" lengthAdjust="spacingAndGlyphs" textLength="166" x="58.5" y="485.7104">getLang(): LanguageFrontend</text><ellipse cx="49.5" cy="495.3047" fill="#84BE84" rx="3" ry="3" style="stroke: #038048; stroke-width: 1.0;"/><text fill="#000000" font-family="sans-serif" font-size="11" lengthAdjust="spacingAndGlyphs" textLength="189" x="58.5" y="498.5151">setLang(LanguageFrontend): void</text><ellipse cx="49.5" cy="508.1094" fill="#84BE84" rx="3" ry="3" style="stroke: #038048; stroke-width: 1.0;"/><text fill="#000000" font-family="sans-serif" font-size="11" lengthAdjust="spacingAndGlyphs" textLength="83" x="58.5" y="511.3198">cleanup(): void</text><ellipse cx="49.5" cy="520.9141" fill="#84BE84" rx="3" ry="3" style="stroke: #038048; stroke-width: 1.0;"/><text fill="#000000" font-family="sans-serif" font-size="11" lengthAdjust="spacingAndGlyphs" textLength="175" x="58.5" y="524.1245">accept(TranslationResult): void</text></a><!--MD5=[0e4f22da7b4c2b8e02b0d57bdaf6ebd3]
class de.fraunhofer.aisec.cpg.passes.TypeHierarchyResolver--><a href="TypeHierarchyResolver.html" target="_top" title="TypeHierarchyResolver.html" xlink:actuate="onRequest" xlink:href="TypeHierarchyResolver.html" xlink:show="new" xlink:title="TypeHierarchyResolver.html" xlink:type="simple"><rect fill="#FEFECE" filter="url(#f8rlboh67e3hm)" height="99.2188" id="de.fraunhofer.aisec.cpg.passes.TypeHierarchyResolver" style="stroke: #A80036; stroke-width: 1.5;" width="215" x="288.5" y="431.5"/><ellipse cx="322.4" cy="447.5" fill="#ADD1B2" rx="11" ry="11" style="stroke: #A80036; stroke-width: 1.0;"/><path d="M325.3688,453.1406 Q324.7906,453.4375 324.15,453.5781 Q323.5094,453.7344 322.8063,453.7344 Q320.3063,453.7344 318.9781,452.0938 Q317.6656,450.4375 317.6656,447.3125 Q317.6656,444.1875 318.9781,442.5313 Q320.3063,440.875 322.8063,440.875 Q323.5094,440.875 324.15,441.0313 Q324.8063,441.1875 325.3688,441.4844 L325.3688,444.2031 Q324.7438,443.625 324.15,443.3594 Q323.5563,443.0781 322.9313,443.0781 Q321.5875,443.0781 320.9,444.1563 Q320.2125,445.2188 320.2125,447.3125 Q320.2125,449.4063 320.9,450.4844 Q321.5875,451.5469 322.9313,451.5469 Q323.5563,451.5469 324.15,451.2813 Q324.7438,451 325.3688,450.4219 L325.3688,453.1406 Z "/><text fill="#000000" font-family="sans-serif" font-size="12" lengthAdjust="spacingAndGlyphs" textLength="141" x="340.6" y="451.6543">TypeHierarchyResolver</text><line style="stroke: #A80036; stroke-width: 1.5;" x1="289.5" x2="502.5" y1="463.5" y2="463.5"/><line style="stroke: #A80036; stroke-width: 1.5;" x1="289.5" x2="502.5" y1="471.5" y2="471.5"/><ellipse cx="299.5" cy="482.5" fill="#84BE84" rx="3" ry="3" style="stroke: #038048; stroke-width: 1.0;"/><text fill="#000000" font-family="sans-serif" font-size="11" lengthAdjust="spacingAndGlyphs" textLength="166" x="308.5" y="485.7104">getLang(): LanguageFrontend</text><ellipse cx="299.5" cy="495.3047" fill="#84BE84" rx="3" ry="3" style="stroke: #038048; stroke-width: 1.0;"/><text fill="#000000" font-family="sans-serif" font-size="11" lengthAdjust="spacingAndGlyphs" textLength="189" x="308.5" y="498.5151">setLang(LanguageFrontend): void</text><ellipse cx="299.5" cy="508.1094" fill="#84BE84" rx="3" ry="3" style="stroke: #038048; stroke-width: 1.0;"/><text fill="#000000" font-family="sans-serif" font-size="11" lengthAdjust="spacingAndGlyphs" textLength="175" x="308.5" y="511.3198">accept(TranslationResult): void</text><ellipse cx="299.5" cy="520.9141" fill="#84BE84" rx="3" ry="3" style="stroke: #038048; stroke-width: 1.0;"/><text fill="#000000" font-family="sans-serif" font-size="11" lengthAdjust="spacingAndGlyphs" textLength="83" x="308.5" y="524.1245">cleanup(): void</text></a><!--MD5=[a870330a96f1202e2f542ab20f0d6607]
class de.fraunhofer.aisec.cpg.passes.ControlFlowGraphPass--><a href="ControlFlowGraphPass.html" target="_top" title="ControlFlowGraphPass.html" xlink:actuate="onRequest" xlink:href="ControlFlowGraphPass.html" xlink:show="new" xlink:title="ControlFlowGraphPass.html" xlink:type="simple"><rect fill="#FEFECE" filter="url(#f8rlboh67e3hm)" height="99.2188" id="de.fraunhofer.aisec.cpg.passes.ControlFlowGraphPass" style="stroke: #A80036; stroke-width: 1.5;" width="233" x="538.5" y="431.5"/><ellipse cx="580.95" cy="447.5" fill="#ADD1B2" rx="11" ry="11" style="stroke: #A80036; stroke-width: 1.0;"/><path d="M583.9188,453.1406 Q583.3406,453.4375 582.7,453.5781 Q582.0594,453.7344 581.3563,453.7344 Q578.8563,453.7344 577.5281,452.0938 Q576.2156,450.4375 576.2156,447.3125 Q576.2156,444.1875 577.5281,442.5313 Q578.8563,440.875 581.3563,440.875 Q582.0594,440.875 582.7,441.0313 Q583.3563,441.1875 583.9188,441.4844 L583.9188,444.2031 Q583.2938,443.625 582.7,443.3594 Q582.1063,443.0781 581.4813,443.0781 Q580.1375,443.0781 579.45,444.1563 Q578.7625,445.2188 578.7625,447.3125 Q578.7625,449.4063 579.45,450.4844 Q580.1375,451.5469 581.4813,451.5469 Q582.1063,451.5469 582.7,451.2813 Q583.2938,451 583.9188,450.4219 L583.9188,453.1406 Z "/><text fill="#000000" font-family="sans-serif" font-size="12" lengthAdjust="spacingAndGlyphs" textLength="140" x="601.05" y="451.6543">ControlFlowGraphPass</text><line style="stroke: #A80036; stroke-width: 1.5;" x1="539.5" x2="770.5" y1="463.5" y2="463.5"/><line style="stroke: #A80036; stroke-width: 1.5;" x1="539.5" x2="770.5" y1="471.5" y2="471.5"/><ellipse cx="549.5" cy="482.5" fill="#84BE84" rx="3" ry="3" style="stroke: #038048; stroke-width: 1.0;"/><text fill="#000000" font-family="sans-serif" font-size="11" lengthAdjust="spacingAndGlyphs" textLength="83" x="558.5" y="485.7104">cleanup(): void</text><ellipse cx="549.5" cy="495.3047" fill="#84BE84" rx="3" ry="3" style="stroke: #038048; stroke-width: 1.0;"/><text fill="#000000" font-family="sans-serif" font-size="11" lengthAdjust="spacingAndGlyphs" textLength="175" x="558.5" y="498.5151">accept(TranslationResult): void</text><ellipse cx="549.5" cy="508.1094" fill="#84BE84" rx="3" ry="3" style="stroke: #038048; stroke-width: 1.0;"/><text fill="#000000" font-family="sans-serif" font-size="11" lengthAdjust="spacingAndGlyphs" textLength="207" x="558.5" y="511.3198">addTodo(int, List&lt;Statement&gt;): void</text><ellipse cx="549.5" cy="520.9141" fill="#84BE84" rx="3" ry="3" style="stroke: #038048; stroke-width: 1.0;"/><text fill="#000000" font-family="sans-serif" font-size="11" lengthAdjust="spacingAndGlyphs" textLength="181" x="558.5" y="524.1245">addTodo(int, Statement...): void</text></a><!--MD5=[fb4004e4f026085c16ec9714d4cc4fef]
class de.fraunhofer.aisec.cpg.passes.CallResolver--><a href="CallResolver.html" target="_top" title="CallResolver.html" xlink:actuate="onRequest" xlink:href="CallResolver.html" xlink:show="new" xlink:title="CallResolver.html" xlink:type="simple"><rect fill="#FEFECE" filter="url(#f8rlboh67e3hm)" height="73.6094" id="de.fraunhofer.aisec.cpg.passes.CallResolver" style="stroke: #A80036; stroke-width: 1.5;" width="201" x="806.5" y="444"/><ellipse cx="865.25" cy="460" fill="#ADD1B2" rx="11" ry="11" style="stroke: #A80036; stroke-width: 1.0;"/><path d="M868.2188,465.6406 Q867.6406,465.9375 867,466.0781 Q866.3594,466.2344 865.6563,466.2344 Q863.1563,466.2344 861.8281,464.5938 Q860.5156,462.9375 860.5156,459.8125 Q860.5156,456.6875 861.8281,455.0313 Q863.1563,453.375 865.6563,453.375 Q866.3594,453.375 867,453.5313 Q867.6563,453.6875 868.2188,453.9844 L868.2188,456.7031 Q867.5938,456.125 867,455.8594 Q866.4063,455.5781 865.7813,455.5781 Q864.4375,455.5781 863.75,456.6563 Q863.0625,457.7188 863.0625,459.8125 Q863.0625,461.9063 863.75,462.9844 Q864.4375,464.0469 865.7813,464.0469 Q866.4063,464.0469 867,463.7813 Q867.5938,463.5 868.2188,462.9219 L868.2188,465.6406 Z "/><text fill="#000000" font-family="sans-serif" font-size="12" lengthAdjust="spacingAndGlyphs" textLength="75" x="885.75" y="464.1543">CallResolver</text><line style="stroke: #A80036; stroke-width: 1.5;" x1="807.5" x2="1006.5" y1="476" y2="476"/><line style="stroke: #A80036; stroke-width: 1.5;" x1="807.5" x2="1006.5" y1="484" y2="484"/><ellipse cx="817.5" cy="495" fill="#84BE84" rx="3" ry="3" style="stroke: #038048; stroke-width: 1.0;"/><text fill="#000000" font-family="sans-serif" font-size="11" lengthAdjust="spacingAndGlyphs" textLength="83" x="826.5" y="498.2104">cleanup(): void</text><ellipse cx="817.5" cy="507.8047" fill="#84BE84" rx="3" ry="3" style="stroke: #038048; stroke-width: 1.0;"/><text fill="#000000" font-family="sans-serif" font-size="11" lengthAdjust="spacingAndGlyphs" textLength="175" x="826.5" y="511.0151">accept(TranslationResult): void</text></a><!--MD5=[c235e2277994a546abaab258d0865298]
class de.fraunhofer.aisec.cpg.passes.Pass--><a href="Pass.html" target="_top" title="Pass.html" xlink:actuate="onRequest" xlink:href="Pass.html" xlink:show="new" xlink:title="Pass.html" xlink:type="simple"><rect fill="#FEFECE" filter="url(#f8rlboh67e3hm)" height="112.0234" id="de.fraunhofer.aisec.cpg.passes.Pass" style="stroke: #A80036; stroke-width: 1.5;" width="348" x="851" y="208"/><ellipse cx="1007.25" cy="224" fill="#A9DCDF" rx="11" ry="11" style="stroke: #A80036; stroke-width: 1.0;"/><path d="M1007.3594,219.3438 L1006.2031,224.4219 L1008.5313,224.4219 L1007.3594,219.3438 Z M1005.875,217.1094 L1008.8594,217.1094 L1012.2188,229.5 L1009.7656,229.5 L1009,226.4375 L1005.7188,226.4375 L1004.9688,229.5 L1002.5313,229.5 L1005.875,217.1094 Z "/><text fill="#000000" font-family="sans-serif" font-size="12" font-style="italic" lengthAdjust="spacingAndGlyphs" textLength="27" x="1027.75" y="228.1543">Pass</text><line style="stroke: #A80036; stroke-width: 1.5;" x1="852" x2="1198" y1="240" y2="240"/><polygon fill="none" points="862,246,866,250,862,254,858,250" style="stroke: #B38D22; stroke-width: 1.0;"/><text fill="#000000" font-family="sans-serif" font-size="11" lengthAdjust="spacingAndGlyphs" textLength="137" x="871" y="254.2104">lang: LanguageFrontend</text><line style="stroke: #A80036; stroke-width: 1.5;" x1="852" x2="1198" y1="260.8047" y2="260.8047"/><ellipse cx="862" cy="271.8047" fill="#84BE84" rx="3" ry="3" style="stroke: #038048; stroke-width: 1.0;"/><text fill="#000000" font-family="sans-serif" font-size="11" lengthAdjust="spacingAndGlyphs" textLength="166" x="871" y="275.0151">getLang(): LanguageFrontend</text><ellipse cx="862" cy="284.6094" fill="#84BE84" rx="3" ry="3" style="stroke: #038048; stroke-width: 1.0;"/><text fill="#000000" font-family="sans-serif" font-size="11" lengthAdjust="spacingAndGlyphs" textLength="189" x="871" y="287.8198">setLang(LanguageFrontend): void</text><ellipse cx="862" cy="297.4141" fill="#84BE84" rx="3" ry="3" style="stroke: #038048; stroke-width: 1.0;"/><text fill="#000000" font-family="sans-serif" font-size="11" font-style="italic" lengthAdjust="spacingAndGlyphs" textLength="84" x="871" y="300.6245">cleanup(): void</text><ellipse cx="862" cy="310.2188" fill="#84BE84" rx="3" ry="3" style="stroke: #038048; stroke-width: 1.0;"/><text fill="#000000" font-family="sans-serif" font-size="11" lengthAdjust="spacingAndGlyphs" textLength="322" x="871" y="313.4292">supportsLanguageFrontend(LanguageFrontend): boolean</text></a><!--MD5=[fbb8c4fa5e32b7fe6311edeb21d0ad48]
class de.fraunhofer.aisec.cpg.passes.FilenameMapper--><a href="FilenameMapper.html" target="_top" title="FilenameMapper.html" xlink:actuate="onRequest" xlink:href="FilenameMapper.html" xlink:show="new" xlink:title="FilenameMapper.html" xlink:type="simple"><rect fill="#FEFECE" filter="url(#f8rlboh67e3hm)" height="73.6094" id="de.fraunhofer.aisec.cpg.passes.FilenameMapper" style="stroke: #A80036; stroke-width: 1.5;" width="201" x="1042.5" y="444"/><ellipse cx="1087.25" cy="460" fill="#ADD1B2" rx="11" ry="11" style="stroke: #A80036; stroke-width: 1.0;"/><path d="M1090.2188,465.6406 Q1089.6406,465.9375 1089,466.0781 Q1088.3594,466.2344 1087.6563,466.2344 Q1085.1563,466.2344 1083.8281,464.5938 Q1082.5156,462.9375 1082.5156,459.8125 Q1082.5156,456.6875 1083.8281,455.0313 Q1085.1563,453.375 1087.6563,453.375 Q1088.3594,453.375 1089,453.5313 Q1089.6563,453.6875 1090.2188,453.9844 L1090.2188,456.7031 Q1089.5938,456.125 1089,455.8594 Q1088.4063,455.5781 1087.7813,455.5781 Q1086.4375,455.5781 1085.75,456.6563 Q1085.0625,457.7188 1085.0625,459.8125 Q1085.0625,461.9063 1085.75,462.9844 Q1086.4375,464.0469 1087.7813,464.0469 Q1088.4063,464.0469 1089,463.7813 Q1089.5938,463.5 1090.2188,462.9219 L1090.2188,465.6406 Z "/><text fill="#000000" font-family="sans-serif" font-size="12" lengthAdjust="spacingAndGlyphs" textLength="103" x="1107.75" y="464.1543">FilenameMapper</text><line style="stroke: #A80036; stroke-width: 1.5;" x1="1043.5" x2="1242.5" y1="476" y2="476"/><line style="stroke: #A80036; stroke-width: 1.5;" x1="1043.5" x2="1242.5" y1="484" y2="484"/><ellipse cx="1053.5" cy="495" fill="#84BE84" rx="3" ry="3" style="stroke: #038048; stroke-width: 1.0;"/><text fill="#000000" font-family="sans-serif" font-size="11" lengthAdjust="spacingAndGlyphs" textLength="175" x="1062.5" y="498.2104">accept(TranslationResult): void</text><ellipse cx="1053.5" cy="507.8047" fill="#84BE84" rx="3" ry="3" style="stroke: #038048; stroke-width: 1.0;"/><text fill="#000000" font-family="sans-serif" font-size="11" lengthAdjust="spacingAndGlyphs" textLength="83" x="1062.5" y="511.0151">cleanup(): void</text></a><!--MD5=[f52a7e1d8a889dc3e51addd70141173f]
class de.fraunhofer.aisec.cpg.passes.TypeResolver--><a href="TypeResolver.html" target="_top" title="TypeResolver.html" xlink:actuate="onRequest" xlink:href="TypeResolver.html" xlink:show="new" xlink:title="TypeResolver.html" xlink:type="simple"><rect fill="#FEFECE" filter="url(#f8rlboh67e3hm)" height="124.8281" id="de.fraunhofer.aisec.cpg.passes.TypeResolver" style="stroke: #A80036; stroke-width: 1.5;" width="305" x="1278.5" y="418.5"/><ellipse cx="1385.75" cy="434.5" fill="#ADD1B2" rx="11" ry="11" style="stroke: #A80036; stroke-width: 1.0;"/><path d="M1388.7188,440.1406 Q1388.1406,440.4375 1387.5,440.5781 Q1386.8594,440.7344 1386.1563,440.7344 Q1383.6563,440.7344 1382.3281,439.0938 Q1381.0156,437.4375 1381.0156,434.3125 Q1381.0156,431.1875 1382.3281,429.5313 Q1383.6563,427.875 1386.1563,427.875 Q1386.8594,427.875 1387.5,428.0313 Q1388.1563,428.1875 1388.7188,428.4844 L1388.7188,431.2031 Q1388.0938,430.625 1387.5,430.3594 Q1386.9063,430.0781 1386.2813,430.0781 Q1384.9375,430.0781 1384.25,431.1563 Q1383.5625,432.2188 1383.5625,434.3125 Q1383.5625,436.4063 1384.25,437.4844 Q1384.9375,438.5469 1386.2813,438.5469 Q1386.9063,438.5469 1387.5,438.2813 Q1388.0938,438 1388.7188,437.4219 L1388.7188,440.1406 Z "/><text fill="#000000" font-family="sans-serif" font-size="12" lengthAdjust="spacingAndGlyphs" textLength="82" x="1406.25" y="438.6543">TypeResolver</text><line style="stroke: #A80036; stroke-width: 1.5;" x1="1279.5" x2="1582.5" y1="450.5" y2="450.5"/><line style="stroke: #A80036; stroke-width: 1.5;" x1="1279.5" x2="1582.5" y1="458.5" y2="458.5"/><ellipse cx="1289.5" cy="469.5" fill="#84BE84" rx="3" ry="3" style="stroke: #038048; stroke-width: 1.0;"/><text fill="#000000" font-family="sans-serif" font-size="11" lengthAdjust="spacingAndGlyphs" textLength="132" x="1298.5" y="472.7104">obtainType(Type): Type</text><ellipse cx="1289.5" cy="482.3047" fill="#84BE84" rx="3" ry="3" style="stroke: #038048; stroke-width: 1.0;"/><text fill="#000000" font-family="sans-serif" font-size="11" lengthAdjust="spacingAndGlyphs" textLength="175" x="1298.5" y="485.5151">accept(TranslationResult): void</text><ellipse cx="1289.5" cy="495.1094" fill="#84BE84" rx="3" ry="3" style="stroke: #038048; stroke-width: 1.0;"/><text fill="#000000" font-family="sans-serif" font-size="11" lengthAdjust="spacingAndGlyphs" textLength="279" x="1298.5" y="498.3198">ensureUniqueSubTypes(Set&lt;Type&gt;): Set&lt;Type&gt;</text><ellipse cx="1289.5" cy="507.9141" fill="#84BE84" rx="3" ry="3" style="stroke: #038048; stroke-width: 1.0;"/><text fill="#000000" font-family="sans-serif" font-size="11" lengthAdjust="spacingAndGlyphs" textLength="174" x="1298.5" y="511.1245">ensureUniqueType(Node): void</text><ellipse cx="1289.5" cy="520.7188" fill="#84BE84" rx="3" ry="3" style="stroke: #038048; stroke-width: 1.0;"/><text fill="#000000" font-family="sans-serif" font-size="11" lengthAdjust="spacingAndGlyphs" textLength="106" x="1298.5" y="523.9292">handle(Node): void</text><ellipse cx="1289.5" cy="533.5234" fill="#84BE84" rx="3" ry="3" style="stroke: #038048; stroke-width: 1.0;"/><text fill="#000000" font-family="sans-serif" font-size="11" lengthAdjust="spacingAndGlyphs" textLength="83" x="1298.5" y="536.7339">cleanup(): void</text></a><!--MD5=[3198f7bd202a7700ebe53a0db9a4d11b]
class de.fraunhofer.aisec.cpg.passes.EvaluationOrderGraphPass--><a href="EvaluationOrderGraphPass.html" target="_top" title="EvaluationOrderGraphPass.html" xlink:actuate="onRequest" xlink:href="EvaluationOrderGraphPass.html" xlink:show="new" xlink:title="EvaluationOrderGraphPass.html" xlink:type="simple"><rect fill="#FEFECE" filter="url(#f8rlboh67e3hm)" height="201.6563" id="de.fraunhofer.aisec.cpg.passes.EvaluationOrderGraphPass" style="stroke: #A80036; stroke-width: 1.5;" width="540" x="1619" y="380"/><ellipse cx="1800.75" cy="396" fill="#ADD1B2" rx="11" ry="11" style="stroke: #A80036; stroke-width: 1.0;"/><path d="M1803.7188,401.6406 Q1803.1406,401.9375 1802.5,402.0781 Q1801.8594,402.2344 1801.1563,402.2344 Q1798.6563,402.2344 1797.3281,400.5938 Q1796.0156,398.9375 1796.0156,395.8125 Q1796.0156,392.6875 1797.3281,391.0313 Q1798.6563,389.375 1801.1563,389.375 Q1801.8594,389.375 1802.5,389.5313 Q1803.1563,389.6875 1803.7188,389.9844 L1803.7188,392.7031 Q1803.0938,392.125 1802.5,391.8594 Q1801.9063,391.5781 1801.2813,391.5781 Q1799.9375,391.5781 1799.25,392.6563 Q1798.5625,393.7188 1798.5625,395.8125 Q1798.5625,397.9063 1799.25,398.9844 Q1799.9375,400.0469 1801.2813,400.0469 Q1801.9063,400.0469 1802.5,399.7813 Q1803.0938,399.5 1803.7188,398.9219 L1803.7188,401.6406 Z "/><text fill="#000000" font-family="sans-serif" font-size="12" lengthAdjust="spacingAndGlyphs" textLength="168" x="1821.25" y="400.1543">EvaluationOrderGraphPass</text><line style="stroke: #A80036; stroke-width: 1.5;" x1="1620" x2="2158" y1="412" y2="412"/><line style="stroke: #A80036; stroke-width: 1.5;" x1="1620" x2="2158" y1="420" y2="420"/><ellipse cx="1630" cy="431" fill="#84BE84" rx="3" ry="3" style="stroke: #038048; stroke-width: 1.0;"/><text fill="#000000" font-family="sans-serif" font-size="11" lengthAdjust="spacingAndGlyphs" textLength="83" x="1639" y="434.2104">cleanup(): void</text><ellipse cx="1630" cy="443.8047" fill="#84BE84" rx="3" ry="3" style="stroke: #038048; stroke-width: 1.0;"/><text fill="#000000" font-family="sans-serif" font-size="11" lengthAdjust="spacingAndGlyphs" textLength="175" x="1639" y="447.0151">accept(TranslationResult): void</text><ellipse cx="1630" cy="456.6094" fill="#84BE84" rx="3" ry="3" style="stroke: #038048; stroke-width: 1.0;"/><text fill="#000000" font-family="sans-serif" font-size="11" lengthAdjust="spacingAndGlyphs" textLength="514" x="1639" y="459.8198">pushToEOG(@org.checkerframework.checker.nullness.qual.NonNull T extends Node): void</text><ellipse cx="1630" cy="469.4141" fill="#84BE84" rx="3" ry="3" style="stroke: #038048; stroke-width: 1.0;"/><text fill="#000000" font-family="sans-serif" font-size="11" lengthAdjust="spacingAndGlyphs" textLength="169" x="1639" y="472.6245">getCurrentEOG(): List&lt;Node&gt;</text><ellipse cx="1630" cy="482.2188" fill="#84BE84" rx="3" ry="3" style="stroke: #038048; stroke-width: 1.0;"/><text fill="#000000" font-family="sans-serif" font-size="11" lengthAdjust="spacingAndGlyphs" textLength="192" x="1639" y="485.4292">setCurrentEOG(List&lt;Node&gt;): void</text><ellipse cx="1630" cy="495.0234" fill="#84BE84" rx="3" ry="3" style="stroke: #038048; stroke-width: 1.0;"/><text fill="#000000" font-family="sans-serif" font-size="11" lengthAdjust="spacingAndGlyphs" textLength="154" x="1639" y="498.2339">setCurrentEOG(Node): void</text><ellipse cx="1630" cy="507.8281" fill="#84BE84" rx="3" ry="3" style="stroke: #038048; stroke-width: 1.0;"/><text fill="#000000" font-family="sans-serif" font-size="11" lengthAdjust="spacingAndGlyphs" textLength="259" x="1639" y="511.0386">setCurrentEOGs(List&lt;T extends Node&gt;): void</text><ellipse cx="1630" cy="520.6328" fill="#84BE84" rx="3" ry="3" style="stroke: #038048; stroke-width: 1.0;"/><text fill="#000000" font-family="sans-serif" font-size="11" lengthAdjust="spacingAndGlyphs" textLength="209" x="1639" y="523.8433">addToCurrentEOG(List&lt;Node&gt;): void</text><ellipse cx="1630" cy="533.4375" fill="#84BE84" rx="3" ry="3" style="stroke: #038048; stroke-width: 1.0;"/><text fill="#000000" font-family="sans-serif" font-size="11" lengthAdjust="spacingAndGlyphs" textLength="215" x="1639" y="536.6479">exitLoop(Statement, LoopScope): void</text><ellipse cx="1630" cy="546.2422" fill="#84BE84" rx="3" ry="3" style="stroke: #038048; stroke-width: 1.0;"/><text fill="#000000" font-family="sans-serif" font-size="11" lengthAdjust="spacingAndGlyphs" textLength="195" x="1639" y="549.4526">connectCurrentToLoopStart(): void</text><ellipse cx="1630" cy="559.0469" fill="#84BE84" rx="3" ry="3" style="stroke: #038048; stroke-width: 1.0;"/><text fill="#000000" font-family="sans-serif" font-size="11" lengthAdjust="spacingAndGlyphs" textLength="179" x="1639" y="562.2573">addEOGEdge(Node, Node): void</text><ellipse cx="1630" cy="571.8516" fill="#84BE84" rx="3" ry="3" style="stroke: #038048; stroke-width: 1.0;"/><text fill="#000000" font-family="sans-serif" font-size="11" lengthAdjust="spacingAndGlyphs" textLength="318" x="1639" y="575.062">addMultipleIncomingEOGEdges(List&lt;Node&gt;, Node): void</text></a><!--MD5=[133ddf46041553fdab8db3e035a02d34]
class de.fraunhofer.aisec.cpg.passes.VariableUsageResolver--><a href="VariableUsageResolver.html" target="_top" title="VariableUsageResolver.html" xlink:actuate="onRequest" xlink:href="VariableUsageResolver.html" xlink:show="new" xlink:title="VariableUsageResolver.html" xlink:type="simple"><rect fill="#FEFECE" filter="url(#f8rlboh67e3hm)" height="73.6094" id="de.fraunhofer.aisec.cpg.passes.VariableUsageResolver" style="stroke: #A80036; stroke-width: 1.5;" width="201" x="2194.5" y="444"/><ellipse cx="2220.75" cy="460" fill="#ADD1B2" rx="11" ry="11" style="stroke: #A80036; stroke-width: 1.0;"/><path d="M2223.7188,465.6406 Q2223.1406,465.9375 2222.5,466.0781 Q2221.8594,466.2344 2221.1563,466.2344 Q2218.6563,466.2344 2217.3281,464.5938 Q2216.0156,462.9375 2216.0156,459.8125 Q2216.0156,456.6875 2217.3281,455.0313 Q2218.6563,453.375 2221.1563,453.375 Q2221.8594,453.375 2222.5,453.5313 Q2223.1563,453.6875 2223.7188,453.9844 L2223.7188,456.7031 Q2223.0938,456.125 2222.5,455.8594 Q2221.9063,455.5781 2221.2813,455.5781 Q2219.9375,455.5781 2219.25,456.6563 Q2218.5625,457.7188 2218.5625,459.8125 Q2218.5625,461.9063 2219.25,462.9844 Q2219.9375,464.0469 2221.2813,464.0469 Q2221.9063,464.0469 2222.5,463.7813 Q2223.0938,463.5 2223.7188,462.9219 L2223.7188,465.6406 Z "/><text fill="#000000" font-family="sans-serif" font-size="12" lengthAdjust="spacingAndGlyphs" textLength="144" x="2237.25" y="464.1543">VariableUsageResolver</text><line style="stroke: #A80036; stroke-width: 1.5;" x1="2195.5" x2="2394.5" y1="476" y2="476"/><line style="stroke: #A80036; stroke-width: 1.5;" x1="2195.5" x2="2394.5" y1="484" y2="484"/><ellipse cx="2205.5" cy="495" fill="#84BE84" rx="3" ry="3" style="stroke: #038048; stroke-width: 1.0;"/><text fill="#000000" font-family="sans-serif" font-size="11" lengthAdjust="spacingAndGlyphs" textLength="83" x="2214.5" y="498.2104">cleanup(): void</text><ellipse cx="2205.5" cy="507.8047" fill="#84BE84" rx="3" ry="3" style="stroke: #038048; stroke-width: 1.0;"/><text fill="#000000" font-family="sans-serif" font-size="11" lengthAdjust="spacingAndGlyphs" textLength="175" x="2214.5" y="511.0151">accept(TranslationResult): void</text></a><!--MD5=[7ab2e671a8c6ccacb8450048be8bb1c1]
class java.util.function.Consumer--><rect fill="#FEFECE" filter="url(#f8rlboh67e3hm)" height="73.6094" id="java.util.function.Consumer" style="stroke: #A80036; stroke-width: 1.5;" width="306" x="872" y="59"/><ellipse cx="984.25" cy="75" fill="#B4A7E5" rx="11" ry="11" style="stroke: #A80036; stroke-width: 1.0;"/><path d="M980.1719,70.7656 L980.1719,68.6094 L987.5625,68.6094 L987.5625,70.7656 L985.0938,70.7656 L985.0938,78.8438 L987.5625,78.8438 L987.5625,81 L980.1719,81 L980.1719,78.8438 L982.6406,78.8438 L982.6406,70.7656 L980.1719,70.7656 Z "/><text fill="#000000" font-family="sans-serif" font-size="12" font-style="italic" lengthAdjust="spacingAndGlyphs" textLength="62" x="1004.75" y="79.1543">Consumer</text><rect fill="#FFFFFF" height="15.9688" style="stroke: #000000; stroke-width: 1.0; stroke-dasharray: 2.0,2.0;" width="9" x="1172" y="56"/><text fill="#000000" font-family="sans-serif" font-size="12" font-style="italic" lengthAdjust="spacingAndGlyphs" textLength="7" x="1173" y="68.1387">T</text><line style="stroke: #A80036; stroke-width: 1.5;" x1="873" x2="1177" y1="91" y2="91"/><line style="stroke: #A80036; stroke-width: 1.5;" x1="873" x2="1177" y1="99" y2="99"/><ellipse cx="883" cy="110" fill="#84BE84" rx="3" ry="3" style="stroke: #038048; stroke-width: 1.0;"/><text fill="#000000" font-family="sans-serif" font-size="11" font-style="italic" lengthAdjust="spacingAndGlyphs" textLength="84" x="892" y="113.2104">accept(T): void</text><ellipse cx="883" cy="122.8047" fill="#84BE84" rx="3" ry="3" style="stroke: #038048; stroke-width: 1.0;"/><text fill="#000000" font-family="sans-serif" font-size="11" lengthAdjust="spacingAndGlyphs" textLength="280" x="892" y="126.0151">andThen(Consumer&lt;? super T&gt;): Consumer&lt;T&gt;</text><!--MD5=[31d63c88035921255e04649edbd87ea8]
reverse link de.fraunhofer.aisec.cpg.passes.Pass to de.fraunhofer.aisec.cpg.passes.ImportResolver--><path d="M830.79,283.09 C641.58,302.77 368.61,337.22 271,380 C243,392.27 215.98,412.46 194.28,431.5 " fill="none" id="de.fraunhofer.aisec.cpg.passes.Pass&lt;-de.fraunhofer.aisec.cpg.passes.ImportResolver" style="stroke: #A80036; stroke-width: 1.0;"/><polygon fill="none" points="830.23,276.11,850.84,281.03,831.66,290.04,830.23,276.11" style="stroke: #A80036; stroke-width: 1.0;"/><!--MD5=[c16da73397c43d545a50e4bd9be0e207]
reverse link de.fraunhofer.aisec.cpg.passes.Pass to de.fraunhofer.aisec.cpg.passes.TypeHierarchyResolver--><path d="M830.91,288.37 C734.3,305.13 617.79,333.3 521,380 C493.97,393.04 467.5,412.88 445.92,431.45 " fill="none" id="de.fraunhofer.aisec.cpg.passes.Pass&lt;-de.fraunhofer.aisec.cpg.passes.TypeHierarchyResolver" style="stroke: #A80036; stroke-width: 1.0;"/><polygon fill="none" points="830.01,281.42,850.89,285.01,832.33,295.23,830.01,281.42" style="stroke: #A80036; stroke-width: 1.0;"/><!--MD5=[c4b7f30df2f93d67c217c3e2e14c9873]
reverse link de.fraunhofer.aisec.cpg.passes.Pass to de.fraunhofer.aisec.cpg.passes.ControlFlowGraphPass--><path d="M882.49,329.09 C851.1,344.68 818.44,362.06 789,380 C763.84,395.33 737.57,414.23 715.02,431.45 " fill="none" id="de.fraunhofer.aisec.cpg.passes.Pass&lt;-de.fraunhofer.aisec.cpg.passes.ControlFlowGraphPass" style="stroke: #A80036; stroke-width: 1.0;"/><polygon fill="none" points="879.75,322.64,900.79,320.13,885.91,335.21,879.75,322.64" style="stroke: #A80036; stroke-width: 1.0;"/><!--MD5=[204411a37abaade115f77c5272135cf5]
reverse link de.fraunhofer.aisec.cpg.passes.Pass to de.fraunhofer.aisec.cpg.passes.CallResolver--><path d="M985.13,337.65 C965.48,373.44 942.67,415.01 926.78,443.96 " fill="none" id="de.fraunhofer.aisec.cpg.passes.Pass&lt;-de.fraunhofer.aisec.cpg.passes.CallResolver" style="stroke: #A80036; stroke-width: 1.0;"/><polygon fill="none" points="979.01,334.25,994.77,320.09,991.28,340.99,979.01,334.25" style="stroke: #A80036; stroke-width: 1.0;"/><!--MD5=[c0de68490566cb895e8f8d95aabaff00]
reverse link java.util.function.Consumer to de.fraunhofer.aisec.cpg.passes.Pass--><path d="M1025,153.04 C1025,170.7 1025,190.18 1025,207.78 " fill="none" id="java.util.function.Consumer&lt;-de.fraunhofer.aisec.cpg.passes.Pass" style="stroke: #A80036; stroke-width: 1.0; stroke-dasharray: 7.0,7.0;"/><polygon fill="none" points="1018,153.02,1025,133.02,1032,153.02,1018,153.02" style="stroke: #A80036; stroke-width: 1.0;"/><!--MD5=[30139c54a75635ce6355a116e2266d0e]
reverse link de.fraunhofer.aisec.cpg.passes.Pass to de.fraunhofer.aisec.cpg.passes.FilenameMapper--><path d="M1064.87,337.65 C1084.52,373.44 1107.33,415.01 1123.22,443.96 " fill="none" id="de.fraunhofer.aisec.cpg.passes.Pass&lt;-de.fraunhofer.aisec.cpg.passes.FilenameMapper" style="stroke: #A80036; stroke-width: 1.0;"/><polygon fill="none" points="1058.72,340.99,1055.23,320.09,1070.99,334.25,1058.72,340.99" style="stroke: #A80036; stroke-width: 1.0;"/><!--MD5=[fcc721760008334ac670f3f1263ffd4b]
reverse link de.fraunhofer.aisec.cpg.passes.Pass to de.fraunhofer.aisec.cpg.passes.TypeResolver--><path d="M1160.78,328.91 C1193.83,345.08 1228.89,362.77 1261,380 C1283.33,391.98 1306.95,405.39 1329.26,418.41 " fill="none" id="de.fraunhofer.aisec.cpg.passes.Pass&lt;-de.fraunhofer.aisec.cpg.passes.TypeResolver" style="stroke: #A80036; stroke-width: 1.0;"/><polygon fill="none" points="1157.58,335.14,1142.65,320.09,1163.7,322.55,1157.58,335.14" style="stroke: #A80036; stroke-width: 1.0;"/><!--MD5=[64727a0d21c60c8b4429c8c907f85f2b]
reverse link de.fraunhofer.aisec.cpg.passes.Pass to de.fraunhofer.aisec.cpg.passes.EvaluationOrderGraphPass--><path d="M1219,296.88 C1331.44,317.06 1475.22,345.78 1601,380 C1606.87,381.6 1612.8,383.25 1618.76,384.96 " fill="none" id="de.fraunhofer.aisec.cpg.passes.Pass&lt;-de.fraunhofer.aisec.cpg.passes.EvaluationOrderGraphPass" style="stroke: #A80036; stroke-width: 1.0;"/><polygon fill="none" points="1217.56,303.74,1199.1,293.34,1220.01,289.95,1217.56,303.74" style="stroke: #A80036; stroke-width: 1.0;"/><!--MD5=[899c53d8a42b1fb32b78db3e28384919]
reverse link de.fraunhofer.aisec.cpg.passes.Pass to de.fraunhofer.aisec.cpg.passes.VariableUsageResolver--><path d="M1219.43,270.49 C1501.64,280.81 2009.32,308.86 2177,380 C2210.37,394.16 2241.36,421.19 2263.2,443.59 " fill="none" id="de.fraunhofer.aisec.cpg.passes.Pass&lt;-de.fraunhofer.aisec.cpg.passes.VariableUsageResolver" style="stroke: #A80036; stroke-width: 1.0;"/><polygon fill="none" points="1218.83,277.48,1199.1,269.77,1219.33,263.48,1218.83,277.48" style="stroke: #A80036; stroke-width: 1.0;"/><text fill="#888888" font-family="sans-serif" font-size="10" lengthAdjust="spacingAndGlyphs" textLength="186" x="1130" y="633.2822">UMLDoclet 2.0.9, PlantUML 1.2020.08</text><!--MD5=[cc43cad3d8cf6d038287520863a03a5f]
@startuml
    namespace de.fraunhofer.aisec.cpg.passes {

        class ImportResolver [[ImportResolver.html]] {
            +getLang(): LanguageFrontend
            +setLang(LanguageFrontend): void
            +cleanup(): void
            +accept(TranslationResult): void
        }

        class TypeHierarchyResolver [[TypeHierarchyResolver.html]] {
            +getLang(): LanguageFrontend
            +setLang(LanguageFrontend): void
            +accept(TranslationResult): void
            +cleanup(): void
        }

        class ControlFlowGraphPass [[ControlFlowGraphPass.html]] {
            +cleanup(): void
            +accept(TranslationResult): void
            +addTodo(int, List<Statement>): void
            +addTodo(int, Statement...): void
        }

        class CallResolver [[CallResolver.html]] {
            +cleanup(): void
            +accept(TranslationResult): void
        }

        abstract class Pass [[Pass.html]] {
            #lang: LanguageFrontend
            +getLang(): LanguageFrontend
            +setLang(LanguageFrontend): void
            {abstract} +cleanup(): void
            +supportsLanguageFrontend(LanguageFrontend): boolean
        }

        class FilenameMapper [[FilenameMapper.html]] {
            +accept(TranslationResult): void
            +cleanup(): void
        }

        class TypeResolver [[TypeResolver.html]] {
            +obtainType(Type): Type
            +accept(TranslationResult): void
            +ensureUniqueSubTypes(Set<Type>): Set<Type>
            +ensureUniqueType(Node): void
            +handle(Node): void
            +cleanup(): void
        }

        class EvaluationOrderGraphPass [[EvaluationOrderGraphPass.html]] {
            +cleanup(): void
            +accept(TranslationResult): void
            +pushToEOG(@org.checkerframework.checker.nullness.qual.NonNull T extends Node): void
            +getCurrentEOG(): List<Node>
            +setCurrentEOG(List<Node>): void
            +setCurrentEOG(Node): void
            +setCurrentEOGs(List<T extends Node>): void
            +addToCurrentEOG(List<Node>): void
            +exitLoop(Statement, LoopScope): void
            +connectCurrentToLoopStart(): void
            +addEOGEdge(Node, Node): void
            +addMultipleIncomingEOGEdges(List<Node>, Node): void
        }

        class VariableUsageResolver [[VariableUsageResolver.html]] {
            +cleanup(): void
            +accept(TranslationResult): void
        }

        Pass <|- - ImportResolver
        Pass <|- - TypeHierarchyResolver
        Pass <|- - ControlFlowGraphPass
        Pass <|- - CallResolver
        java.util.function.Consumer <|.. Pass
        Pass <|- - FilenameMapper
        Pass <|- - TypeResolver
        Pass <|- - EvaluationOrderGraphPass
        Pass <|- - VariableUsageResolver
    }

    namespace java.util.function {
        interface Consumer<T> {
            {abstract} +accept(T): void
            +andThen(Consumer<? super T>): Consumer<T>
        }
    }

    center footer UMLDoclet 2.0.9, PlantUML 1.2020.08
@enduml

PlantUML version 1.2020.08(Sun Apr 26 16:08:22 CEST 2020)
(APACHE source distribution)
Java Runtime: OpenJDK Runtime Environment
JVM: OpenJDK 64-Bit Server VM
Java Version: 12.0.2+9-Ubuntu-118.04
Operating System: Linux
Default Encoding: UTF-8
Language: en
Country: US
--></g></svg>