<?xml version="1.0" encoding="UTF-8" standalone="no"?><svg xmlns="http://www.w3.org/2000/svg" xmlns:xlink="http://www.w3.org/1999/xlink" contentScriptType="application/ecmascript" contentStyleType="text/css" height="256px" preserveAspectRatio="none" style="width:232px;height:256px;" version="1.1" viewBox="0 0 232 256" width="232px" zoomAndPan="magnify"><defs><filter height="300%" id="f3wy9suagwegn" width="300%" x="-1" y="-1"><feGaussianBlur result="blurOut" stdDeviation="2.0"/><feColorMatrix in="blurOut" result="blurOut2" type="matrix" values="0 0 0 0 0 0 0 0 0 0 0 0 0 0 0 0 0 0 .4 0"/><feOffset dx="4.0" dy="4.0" in="blurOut2" result="blurOut3"/><feBlend in="SourceGraphic" in2="blurOut3" mode="normal"/></filter></defs><g><!--MD5=[0e4f22da7b4c2b8e02b0d57bdaf6ebd3]
class de.fraunhofer.aisec.cpg.passes.TypeHierarchyResolver--><a href="TypeHierarchyResolver.html" target="_top" title="TypeHierarchyResolver.html" xlink:actuate="onRequest" xlink:href="TypeHierarchyResolver.html" xlink:show="new" xlink:title="TypeHierarchyResolver.html" xlink:type="simple"><rect fill="#FEFECE" filter="url(#f3wy9suagwegn)" height="97.1563" id="de.fraunhofer.aisec.cpg.passes.TypeHierarchyResolver" style="stroke: #A80036; stroke-width: 1.5;" width="215" x="6" y="127"/><ellipse cx="32.25" cy="145.9688" fill="#ADD1B2" rx="11" ry="11" style="stroke: #A80036; stroke-width: 1.0;"/><path d="M35.2188,151.6094 Q34.6406,151.9063 34,152.0469 Q33.3594,152.2031 32.6563,152.2031 Q30.1563,152.2031 28.8281,150.5625 Q27.5156,148.9063 27.5156,145.7813 Q27.5156,142.6563 28.8281,141 Q30.1563,139.3438 32.6563,139.3438 Q33.3594,139.3438 34,139.5 Q34.6563,139.6563 35.2188,139.9531 L35.2188,142.6719 Q34.5938,142.0938 34,141.8281 Q33.4063,141.5469 32.7813,141.5469 Q31.4375,141.5469 30.75,142.625 Q30.0625,143.6875 30.0625,145.7813 Q30.0625,147.875 30.75,148.9531 Q31.4375,150.0156 32.7813,150.0156 Q33.4063,150.0156 34,149.75 Q34.5938,149.4688 35.2188,148.8906 L35.2188,151.6094 Z "/><text fill="#000000" font-family="sans-serif" font-size="14" lengthAdjust="spacingAndGlyphs" textLength="158" x="48.75" y="144.9951">TypeHierarchyResolver</text><text fill="#000000" font-family="sans-serif" font-size="10" lengthAdjust="spacingAndGlyphs" textLength="150" x="52.75" y="157.5791">de.fraunhofer.aisec.cpg.passes</text><line style="stroke: #A80036; stroke-width: 1.5;" x1="7" x2="220" y1="164.9375" y2="164.9375"/><ellipse cx="17" cy="175.9375" fill="#84BE84" rx="3" ry="3" style="stroke: #038048; stroke-width: 1.0;"/><text fill="#000000" font-family="sans-serif" font-size="11" lengthAdjust="spacingAndGlyphs" textLength="166" x="26" y="179.1479">getLang(): LanguageFrontend</text><ellipse cx="17" cy="188.7422" fill="#84BE84" rx="3" ry="3" style="stroke: #038048; stroke-width: 1.0;"/><text fill="#000000" font-family="sans-serif" font-size="11" lengthAdjust="spacingAndGlyphs" textLength="189" x="26" y="191.9526">setLang(LanguageFrontend): void</text><ellipse cx="17" cy="201.5469" fill="#84BE84" rx="3" ry="3" style="stroke: #038048; stroke-width: 1.0;"/><text fill="#000000" font-family="sans-serif" font-size="11" lengthAdjust="spacingAndGlyphs" textLength="175" x="26" y="204.7573">accept(TranslationResult): void</text><ellipse cx="17" cy="214.3516" fill="#84BE84" rx="3" ry="3" style="stroke: #038048; stroke-width: 1.0;"/><text fill="#000000" font-family="sans-serif" font-size="11" lengthAdjust="spacingAndGlyphs" textLength="83" x="26" y="217.562">cleanup(): void</text></a><!--MD5=[c235e2277994a546abaab258d0865298]
class de.fraunhofer.aisec.cpg.passes.Pass--><a href="Pass.html" target="_top" title="Pass.html" xlink:actuate="onRequest" xlink:href="Pass.html" xlink:show="new" xlink:title="Pass.html" xlink:type="simple"><rect fill="#FEFECE" filter="url(#f3wy9suagwegn)" height="58.7422" id="de.fraunhofer.aisec.cpg.passes.Pass" style="stroke: #A80036; stroke-width: 1.5;" width="185" x="21" y="8"/><ellipse cx="36" cy="26.9688" fill="#A9DCDF" rx="11" ry="11" style="stroke: #A80036; stroke-width: 1.0;"/><path d="M36.1094,22.3125 L34.9531,27.3906 L37.2813,27.3906 L36.1094,22.3125 Z M34.625,20.0781 L37.6094,20.0781 L40.9688,32.4688 L38.5156,32.4688 L37.75,29.4063 L34.4688,29.4063 L33.7188,32.4688 L31.2813,32.4688 L34.625,20.0781 Z "/><text fill="#000000" font-family="sans-serif" font-size="14" font-style="italic" lengthAdjust="spacingAndGlyphs" textLength="30" x="111.5" y="25.9951">Pass</text><text fill="#000000" font-family="sans-serif" font-size="10" font-style="italic" lengthAdjust="spacingAndGlyphs" textLength="153" x="50" y="38.5791">de.fraunhofer.aisec.cpg.passes</text><line style="stroke: #A80036; stroke-width: 1.5;" x1="22" x2="205" y1="45.9375" y2="45.9375"/><ellipse cx="32" cy="56.9375" fill="#84BE84" rx="3" ry="3" style="stroke: #038048; stroke-width: 1.0;"/><text fill="#000000" font-family="sans-serif" font-size="11" font-style="italic" lengthAdjust="spacingAndGlyphs" textLength="84" x="41" y="60.1479">cleanup(): void</text></a><!--MD5=[c16da73397c43d545a50e4bd9be0e207]
reverse link de.fraunhofer.aisec.cpg.passes.Pass to de.fraunhofer.aisec.cpg.passes.TypeHierarchyResolver--><path d="M113.5,87.31 C113.5,100.15 113.5,113.97 113.5,126.75 " fill="none" id="de.fraunhofer.aisec.cpg.passes.Pass&lt;-de.fraunhofer.aisec.cpg.passes.TypeHierarchyResolver" style="stroke: #A80036; stroke-width: 1.0;"/><polygon fill="none" points="106.5,87.01,113.5,67.01,120.5,87.01,106.5,87.01" style="stroke: #A80036; stroke-width: 1.0;"/><text fill="#888888" font-family="sans-serif" font-size="10" lengthAdjust="spacingAndGlyphs" textLength="186" x="26.5" y="243.2822">UMLDoclet 2.0.9, PlantUML 1.2020.08</text><!--MD5=[14491cf8e6d4a3e00f7d6abb05205d61]
@startuml
    set namespaceSeparator none
    hide empty fields
    hide empty methods

    class "<size:14>TypeHierarchyResolver\n<size:10>de.fraunhofer.aisec.cpg.passes" as de.fraunhofer.aisec.cpg.passes.TypeHierarchyResolver [[TypeHierarchyResolver.html]] {
        +getLang(): LanguageFrontend
        +setLang(LanguageFrontend): void
        +accept(TranslationResult): void
        +cleanup(): void
    }

    abstract class "<size:14>Pass\n<size:10>de.fraunhofer.aisec.cpg.passes" as de.fraunhofer.aisec.cpg.passes.Pass [[Pass.html]] {
        {abstract} +cleanup(): void
    }

    de.fraunhofer.aisec.cpg.passes.Pass <|- - de.fraunhofer.aisec.cpg.passes.TypeHierarchyResolver

    center footer UMLDoclet 2.0.9, PlantUML 1.2020.08
@enduml

PlantUML version 1.2020.08(Sun Apr 26 16:08:22 CEST 2020)
(APACHE source distribution)
Java Runtime: OpenJDK Runtime Environment
JVM: OpenJDK 64-Bit Server VM
Java Version: 12.0.2+9-Ubuntu-118.04
Operating System: Linux
Default Encoding: UTF-8
Language: en
Country: US
--></g></svg>