<?xml version="1.0" encoding="UTF-8" standalone="no"?><svg xmlns="http://www.w3.org/2000/svg" xmlns:xlink="http://www.w3.org/1999/xlink" contentScriptType="application/ecmascript" contentStyleType="text/css" height="282px" preserveAspectRatio="none" style="width:322px;height:282px;" version="1.1" viewBox="0 0 322 282" width="322px" zoomAndPan="magnify"><defs><filter height="300%" id="ffes51722j0q9" width="300%" x="-1" y="-1"><feGaussianBlur result="blurOut" stdDeviation="2.0"/><feColorMatrix in="blurOut" result="blurOut2" type="matrix" values="0 0 0 0 0 0 0 0 0 0 0 0 0 0 0 0 0 0 .4 0"/><feOffset dx="4.0" dy="4.0" in="blurOut2" result="blurOut3"/><feBlend in="SourceGraphic" in2="blurOut3" mode="normal"/></filter></defs><g><!--MD5=[f52a7e1d8a889dc3e51addd70141173f]
class de.fraunhofer.aisec.cpg.passes.TypeResolver--><a href="TypeResolver.html" target="_top" title="TypeResolver.html" xlink:actuate="onRequest" xlink:href="TypeResolver.html" xlink:show="new" xlink:title="TypeResolver.html" xlink:type="simple"><rect fill="#FEFECE" filter="url(#ffes51722j0q9)" height="122.7656" id="de.fraunhofer.aisec.cpg.passes.TypeResolver" style="stroke: #A80036; stroke-width: 1.5;" width="305" x="6" y="127"/><ellipse cx="79.25" cy="145.9688" fill="#ADD1B2" rx="11" ry="11" style="stroke: #A80036; stroke-width: 1.0;"/><path d="M82.2188,151.6094 Q81.6406,151.9063 81,152.0469 Q80.3594,152.2031 79.6563,152.2031 Q77.1563,152.2031 75.8281,150.5625 Q74.5156,148.9063 74.5156,145.7813 Q74.5156,142.6563 75.8281,141 Q77.1563,139.3438 79.6563,139.3438 Q80.3594,139.3438 81,139.5 Q81.6563,139.6563 82.2188,139.9531 L82.2188,142.6719 Q81.5938,142.0938 81,141.8281 Q80.4063,141.5469 79.7813,141.5469 Q78.4375,141.5469 77.75,142.625 Q77.0625,143.6875 77.0625,145.7813 Q77.0625,147.875 77.75,148.9531 Q78.4375,150.0156 79.7813,150.0156 Q80.4063,150.0156 81,149.75 Q81.5938,149.4688 82.2188,148.8906 L82.2188,151.6094 Z "/><text fill="#000000" font-family="sans-serif" font-size="14" lengthAdjust="spacingAndGlyphs" textLength="94" x="127.75" y="144.9951">TypeResolver</text><text fill="#000000" font-family="sans-serif" font-size="10" lengthAdjust="spacingAndGlyphs" textLength="150" x="99.75" y="157.5791">de.fraunhofer.aisec.cpg.passes</text><line style="stroke: #A80036; stroke-width: 1.5;" x1="7" x2="310" y1="164.9375" y2="164.9375"/><ellipse cx="17" cy="175.9375" fill="#84BE84" rx="3" ry="3" style="stroke: #038048; stroke-width: 1.0;"/><text fill="#000000" font-family="sans-serif" font-size="11" lengthAdjust="spacingAndGlyphs" textLength="132" x="26" y="179.1479">obtainType(Type): Type</text><ellipse cx="17" cy="188.7422" fill="#84BE84" rx="3" ry="3" style="stroke: #038048; stroke-width: 1.0;"/><text fill="#000000" font-family="sans-serif" font-size="11" lengthAdjust="spacingAndGlyphs" textLength="175" x="26" y="191.9526">accept(TranslationResult): void</text><ellipse cx="17" cy="201.5469" fill="#84BE84" rx="3" ry="3" style="stroke: #038048; stroke-width: 1.0;"/><text fill="#000000" font-family="sans-serif" font-size="11" lengthAdjust="spacingAndGlyphs" textLength="279" x="26" y="204.7573">ensureUniqueSubTypes(Set&lt;Type&gt;): Set&lt;Type&gt;</text><ellipse cx="17" cy="214.3516" fill="#84BE84" rx="3" ry="3" style="stroke: #038048; stroke-width: 1.0;"/><text fill="#000000" font-family="sans-serif" font-size="11" lengthAdjust="spacingAndGlyphs" textLength="174" x="26" y="217.562">ensureUniqueType(Node): void</text><ellipse cx="17" cy="227.1563" fill="#84BE84" rx="3" ry="3" style="stroke: #038048; stroke-width: 1.0;"/><text fill="#000000" font-family="sans-serif" font-size="11" lengthAdjust="spacingAndGlyphs" textLength="106" x="26" y="230.3667">handle(Node): void</text><ellipse cx="17" cy="239.9609" fill="#84BE84" rx="3" ry="3" style="stroke: #038048; stroke-width: 1.0;"/><text fill="#000000" font-family="sans-serif" font-size="11" lengthAdjust="spacingAndGlyphs" textLength="83" x="26" y="243.1714">cleanup(): void</text></a><!--MD5=[c235e2277994a546abaab258d0865298]
class de.fraunhofer.aisec.cpg.passes.Pass--><a href="Pass.html" target="_top" title="Pass.html" xlink:actuate="onRequest" xlink:href="Pass.html" xlink:show="new" xlink:title="Pass.html" xlink:type="simple"><rect fill="#FEFECE" filter="url(#ffes51722j0q9)" height="58.7422" id="de.fraunhofer.aisec.cpg.passes.Pass" style="stroke: #A80036; stroke-width: 1.5;" width="185" x="66" y="8"/><ellipse cx="81" cy="26.9688" fill="#A9DCDF" rx="11" ry="11" style="stroke: #A80036; stroke-width: 1.0;"/><path d="M81.1094,22.3125 L79.9531,27.3906 L82.2813,27.3906 L81.1094,22.3125 Z M79.625,20.0781 L82.6094,20.0781 L85.9688,32.4688 L83.5156,32.4688 L82.75,29.4063 L79.4688,29.4063 L78.7188,32.4688 L76.2813,32.4688 L79.625,20.0781 Z "/><text fill="#000000" font-family="sans-serif" font-size="14" font-style="italic" lengthAdjust="spacingAndGlyphs" textLength="30" x="156.5" y="25.9951">Pass</text><text fill="#000000" font-family="sans-serif" font-size="10" font-style="italic" lengthAdjust="spacingAndGlyphs" textLength="153" x="95" y="38.5791">de.fraunhofer.aisec.cpg.passes</text><line style="stroke: #A80036; stroke-width: 1.5;" x1="67" x2="250" y1="45.9375" y2="45.9375"/><ellipse cx="77" cy="56.9375" fill="#84BE84" rx="3" ry="3" style="stroke: #038048; stroke-width: 1.0;"/><text fill="#000000" font-family="sans-serif" font-size="11" font-style="italic" lengthAdjust="spacingAndGlyphs" textLength="84" x="86" y="60.1479">cleanup(): void</text></a><!--MD5=[fcc721760008334ac670f3f1263ffd4b]
reverse link de.fraunhofer.aisec.cpg.passes.Pass to de.fraunhofer.aisec.cpg.passes.TypeResolver--><path d="M158.5,87.61 C158.5,100.14 158.5,113.76 158.5,126.79 " fill="none" id="de.fraunhofer.aisec.cpg.passes.Pass&lt;-de.fraunhofer.aisec.cpg.passes.TypeResolver" style="stroke: #A80036; stroke-width: 1.0;"/><polygon fill="none" points="151.5,87.23,158.5,67.23,165.5,87.23,151.5,87.23" style="stroke: #A80036; stroke-width: 1.0;"/><text fill="#888888" font-family="sans-serif" font-size="10" lengthAdjust="spacingAndGlyphs" textLength="186" x="71.5" y="269.2822">UMLDoclet 2.0.9, PlantUML 1.2020.08</text><!--MD5=[95581d1276efd5d9d5f864e5cccb1bf8]
@startuml
    set namespaceSeparator none
    hide empty fields
    hide empty methods

    class "<size:14>TypeResolver\n<size:10>de.fraunhofer.aisec.cpg.passes" as de.fraunhofer.aisec.cpg.passes.TypeResolver [[TypeResolver.html]] {
        +obtainType(Type): Type
        +accept(TranslationResult): void
        +ensureUniqueSubTypes(Set<Type>): Set<Type>
        +ensureUniqueType(Node): void
        +handle(Node): void
        +cleanup(): void
    }

    abstract class "<size:14>Pass\n<size:10>de.fraunhofer.aisec.cpg.passes" as de.fraunhofer.aisec.cpg.passes.Pass [[Pass.html]] {
        {abstract} +cleanup(): void
    }

    de.fraunhofer.aisec.cpg.passes.Pass <|- - de.fraunhofer.aisec.cpg.passes.TypeResolver

    center footer UMLDoclet 2.0.9, PlantUML 1.2020.08
@enduml

PlantUML version 1.2020.08(Sun Apr 26 16:08:22 CEST 2020)
(APACHE source distribution)
Java Runtime: OpenJDK Runtime Environment
JVM: OpenJDK 64-Bit Server VM
Java Version: 12.0.2+9-Ubuntu-118.04
Operating System: Linux
Default Encoding: UTF-8
Language: en
Country: US
--></g></svg>